<svg width="900" height="89" viewBox="0 0 900 89" fill="none" xmlns="http://www.w3.org/2000/svg">
<path d="M3.00012 87.7207C2.12012 87.7207 1.40012 87.4407 0.840117 86.8807C0.280117 86.3207 0.000117302 85.6007 0.000117302 84.7207V6.7207C0.000117302 5.8407 0.280117 5.1207 0.840117 4.5607C1.40012 4.0007 2.12012 3.7207 3.00012 3.7207H57.3601C58.2401 3.7207 58.9601 4.0007 59.5201 4.5607C60.0801 5.1207 60.3601 5.8407 60.3601 6.7207V16.3207C60.3601 17.1207 60.0801 17.8007 59.5201 18.3607C58.9601 18.9207 58.2401 19.2007 57.3601 19.2007H18.4801V38.0407H54.7201C55.6001 38.0407 56.3201 38.3207 56.8801 38.8807C57.4401 39.4407 57.7201 40.1607 57.7201 41.0407V49.9207C57.7201 50.7207 57.4401 51.4007 56.8801 51.9607C56.3201 52.5207 55.6001 52.8007 54.7201 52.8007H18.4801V72.2407H58.3201C59.2001 72.2407 59.9201 72.5207 60.4801 73.0807C61.0401 73.6407 61.3201 74.3607 61.3201 75.2407V84.7207C61.3201 85.6007 61.0401 86.3207 60.4801 86.8807C59.9201 87.4407 59.2001 87.7207 58.3201 87.7207H3.00012ZM95.2914 87.7207C94.0914 87.7207 93.1714 87.4407 92.5314 86.8807C91.9714 86.2407 91.4914 85.5207 91.0914 84.7207L68.5314 29.0407C68.3714 28.7207 68.2914 28.3607 68.2914 27.9607C68.2914 27.2407 68.5314 26.6407 69.0114 26.1607C69.5714 25.6007 70.2114 25.3207 70.9314 25.3207H82.5714C83.6114 25.3207 84.3714 25.6007 84.8514 26.1607C85.4114 26.7207 85.7714 27.2407 85.9314 27.7207L100.691 67.3207L115.451 27.7207C115.691 27.2407 116.051 26.7207 116.531 26.1607C117.091 25.6007 117.851 25.3207 118.811 25.3207H130.451C131.171 25.3207 131.771 25.6007 132.251 26.1607C132.811 26.6407 133.091 27.2407 133.091 27.9607C133.091 28.3607 133.051 28.7207 132.971 29.0407L110.291 84.7207C109.971 85.5207 109.491 86.2407 108.851 86.8807C108.211 87.4407 107.291 87.7207 106.091 87.7207H95.2914ZM168.786 88.9207C159.586 88.9207 152.266 86.3607 146.826 81.2407C141.466 76.1207 138.626 68.6807 138.306 58.9207C138.306 58.2807 138.306 57.4407 138.306 56.4007C138.306 55.2807 138.306 54.4007 138.306 53.7607C138.626 47.6007 140.026 42.3207 142.506 37.9207C144.986 33.4407 148.466 30.0407 152.946 27.7207C157.426 25.3207 162.666 24.1207 168.666 24.1207C175.386 24.1207 180.986 25.5207 185.466 28.3207C190.026 31.0407 193.426 34.8007 195.666 39.6007C197.986 44.3207 199.146 49.7607 199.146 55.9207V58.6807C199.146 59.4807 198.826 60.1607 198.186 60.7207C197.626 61.2807 196.946 61.5607 196.146 61.5607H156.906C156.906 61.6407 156.906 61.8007 156.906 62.0407C156.906 62.2007 156.906 62.3607 156.906 62.5207C156.986 65.0807 157.466 67.4407 158.346 69.6007C159.306 71.6807 160.626 73.3607 162.306 74.6407C164.066 75.9207 166.146 76.5607 168.546 76.5607C170.546 76.5607 172.186 76.2807 173.466 75.7207C174.746 75.1607 175.786 74.4807 176.586 73.6807C177.466 72.8807 178.106 72.2007 178.506 71.6407C179.226 70.8407 179.786 70.3607 180.186 70.2007C180.666 69.9607 181.386 69.8407 182.346 69.8407H194.826C195.626 69.8407 196.266 70.0807 196.746 70.5607C197.306 70.9607 197.546 71.5607 197.466 72.3607C197.386 73.6407 196.706 75.2407 195.426 77.1607C194.226 79.0007 192.426 80.8407 190.026 82.6807C187.626 84.4407 184.626 85.9207 181.026 87.1207C177.506 88.3207 173.426 88.9207 168.786 88.9207ZM156.906 50.6407H180.426V50.4007C180.426 47.5207 179.946 45.0407 178.986 42.9607C178.106 40.8007 176.786 39.1207 175.026 37.9207C173.266 36.7207 171.146 36.1207 168.666 36.1207C166.186 36.1207 164.066 36.7207 162.306 37.9207C160.546 39.1207 159.186 40.8007 158.226 42.9607C157.346 45.0407 156.906 47.5207 156.906 50.4007V50.6407ZM214.021 87.7207C213.221 87.7207 212.541 87.4407 211.981 86.8807C211.421 86.3207 211.141 85.6007 211.141 84.7207V28.3207C211.141 27.4407 211.421 26.7207 211.981 26.1607C212.541 25.6007 213.221 25.3207 214.021 25.3207H225.781C226.661 25.3207 227.381 25.6007 227.941 26.1607C228.501 26.7207 228.781 27.4407 228.781 28.3207V33.0007C230.861 30.4407 233.541 28.3207 236.821 26.6407C240.101 24.9607 244.101 24.1207 248.821 24.1207C253.541 24.1207 257.661 25.2007 261.181 27.3607C264.781 29.4407 267.581 32.5207 269.581 36.6007C271.661 40.6007 272.701 45.4807 272.701 51.2407V84.7207C272.701 85.6007 272.381 86.3207 271.741 86.8807C271.181 87.4407 270.501 87.7207 269.701 87.7207H256.981C256.101 87.7207 255.381 87.4407 254.821 86.8807C254.261 86.3207 253.981 85.6007 253.981 84.7207V51.9607C253.981 47.7207 252.941 44.4407 250.861 42.1207C248.861 39.7207 245.901 38.5207 241.981 38.5207C238.221 38.5207 235.221 39.7207 232.981 42.1207C230.741 44.4407 229.621 47.7207 229.621 51.9607V84.7207C229.621 85.6007 229.341 86.3207 228.781 86.8807C228.221 87.4407 227.541 87.7207 226.741 87.7207H214.021ZM316.375 87.7207C311.415 87.7207 307.175 86.9207 303.655 85.3207C300.135 83.6407 297.455 81.0807 295.615 77.6407C293.855 74.2007 292.975 69.8807 292.975 64.6807V39.4807H283.615C282.735 39.4807 282.015 39.2007 281.455 38.6407C280.895 38.0807 280.615 37.3607 280.615 36.4807V28.3207C280.615 27.4407 280.895 26.7207 281.455 26.1607C282.015 25.6007 282.735 25.3207 283.615 25.3207H292.975V5.5207C292.975 4.6407 293.255 3.9207 293.815 3.3607C294.455 2.8007 295.175 2.5207 295.975 2.5207H307.735C308.615 2.5207 309.335 2.8007 309.895 3.3607C310.455 3.9207 310.735 4.6407 310.735 5.5207V25.3207H325.735C326.535 25.3207 327.215 25.6007 327.775 26.1607C328.335 26.7207 328.615 27.4407 328.615 28.3207V36.4807C328.615 37.3607 328.335 38.0807 327.775 38.6407C327.215 39.2007 326.535 39.4807 325.735 39.4807H310.735V63.2407C310.735 66.2807 311.255 68.6807 312.295 70.4407C313.415 72.1207 315.335 72.9607 318.055 72.9607H326.815C327.615 72.9607 328.295 73.2407 328.855 73.8007C329.415 74.3607 329.695 75.0407 329.695 75.8407V84.7207C329.695 85.6007 329.415 86.3207 328.855 86.8807C328.295 87.4407 327.615 87.7207 326.815 87.7207H316.375ZM368.724 88.9207C362.084 88.9207 356.524 87.8407 352.044 85.6807C347.564 83.4407 344.124 80.2807 341.724 76.2007C339.404 72.1207 338.124 67.3607 337.884 61.9207C337.804 60.3207 337.764 58.5207 337.764 56.5207C337.764 54.4407 337.804 52.6407 337.884 51.1207C338.124 45.6007 339.484 40.8407 341.964 36.8407C344.444 32.7607 347.924 29.6407 352.404 27.4807C356.884 25.2407 362.324 24.1207 368.724 24.1207C375.044 24.1207 380.444 25.2407 384.924 27.4807C389.404 29.6407 392.884 32.7607 395.364 36.8407C397.844 40.8407 399.204 45.6007 399.444 51.1207C399.604 52.6407 399.684 54.4407 399.684 56.5207C399.684 58.5207 399.604 60.3207 399.444 61.9207C399.204 67.3607 397.884 72.1207 395.484 76.2007C393.164 80.2807 389.764 83.4407 385.284 85.6807C380.804 87.8407 375.284 88.9207 368.724 88.9207ZM368.724 75.7207C372.644 75.7207 375.604 74.5207 377.604 72.1207C379.604 69.6407 380.684 66.0407 380.844 61.3207C380.924 60.1207 380.964 58.5207 380.964 56.5207C380.964 54.5207 380.924 52.9207 380.844 51.7207C380.684 47.0807 379.604 43.5207 377.604 41.0407C375.604 38.5607 372.644 37.3207 368.724 37.3207C364.804 37.3207 361.804 38.5607 359.724 41.0407C357.724 43.5207 356.644 47.0807 356.484 51.7207C356.404 52.9207 356.364 54.5207 356.364 56.5207C356.364 58.5207 356.404 60.1207 356.484 61.3207C356.644 66.0407 357.724 69.6407 359.724 72.1207C361.804 74.5207 364.804 75.7207 368.724 75.7207ZM436.835 88.9207C431.875 88.9207 427.595 88.3607 423.995 87.2407C420.475 86.0407 417.595 84.6007 415.355 82.9207C413.195 81.2407 411.555 79.5607 410.435 77.8807C409.395 76.1207 408.835 74.6407 408.755 73.4407C408.675 72.5607 408.955 71.8407 409.595 71.2807C410.235 70.7207 410.875 70.4407 411.515 70.4407H423.155C423.395 70.4407 423.635 70.4807 423.875 70.5607C424.115 70.6407 424.355 70.8407 424.595 71.1607C425.635 71.8807 426.715 72.7207 427.835 73.6807C428.955 74.5607 430.235 75.3207 431.675 75.9607C433.195 76.6007 435.075 76.9207 437.315 76.9207C439.955 76.9207 442.195 76.4007 444.035 75.3607C445.875 74.2407 446.795 72.6807 446.795 70.6807C446.795 69.2407 446.355 68.0407 445.475 67.0807C444.675 66.1207 443.115 65.2407 440.795 64.4407C438.475 63.6407 435.035 62.7607 430.475 61.8007C426.155 60.8407 422.475 59.5607 419.435 57.9607C416.395 56.3607 414.115 54.3607 412.595 51.9607C411.075 49.4807 410.315 46.5207 410.315 43.0807C410.315 39.9607 411.275 36.9607 413.195 34.0807C415.195 31.2007 418.115 28.8407 421.955 27.0007C425.795 25.0807 430.595 24.1207 436.355 24.1207C440.755 24.1207 444.595 24.6807 447.875 25.8007C451.235 26.8407 454.035 28.2007 456.275 29.8807C458.515 31.4807 460.195 33.1607 461.315 34.9207C462.515 36.6007 463.155 38.0807 463.235 39.3607C463.315 40.1607 463.075 40.8407 462.515 41.4007C461.955 41.9607 461.315 42.2407 460.595 42.2407H449.915C449.515 42.2407 449.155 42.2007 448.835 42.1207C448.515 41.9607 448.235 41.7607 447.995 41.5207C447.035 40.8807 446.035 40.1607 444.995 39.3607C444.035 38.4807 442.875 37.7207 441.515 37.0807C440.155 36.4407 438.395 36.1207 436.235 36.1207C433.595 36.1207 431.555 36.7207 430.115 37.9207C428.755 39.0407 428.075 40.4807 428.075 42.2407C428.075 43.3607 428.435 44.4007 429.155 45.3607C429.875 46.3207 431.355 47.2007 433.595 48.0007C435.835 48.8007 439.235 49.6407 443.795 50.5207C449.235 51.4807 453.555 52.9207 456.755 54.8407C459.955 56.7607 462.235 59.0007 463.595 61.5607C465.035 64.0407 465.755 66.7207 465.755 69.6007C465.755 73.3607 464.635 76.7207 462.395 79.6807C460.155 82.5607 456.875 84.8407 452.555 86.5207C448.315 88.1207 443.075 88.9207 436.835 88.9207ZM522.118 88.9207C517.878 88.9207 514.078 88.1207 510.718 86.5207C507.358 84.8407 504.678 82.6007 502.678 79.8007C500.678 77.0007 499.678 73.8807 499.678 70.4407C499.678 64.7607 501.958 60.2807 506.518 57.0007C511.158 53.7207 517.238 51.4807 524.758 50.2807L540.478 48.0007V45.8407C540.478 42.7207 539.758 40.3207 538.318 38.6407C536.878 36.9607 534.358 36.1207 530.758 36.1207C528.118 36.1207 525.998 36.6407 524.398 37.6807C522.798 38.7207 521.558 40.0807 520.678 41.7607C520.038 42.8007 519.118 43.3207 517.918 43.3207H506.518C505.638 43.3207 504.958 43.0807 504.478 42.6007C503.998 42.0407 503.798 41.4007 503.878 40.6807C503.878 39.3207 504.398 37.7207 505.438 35.8807C506.478 34.0407 508.078 32.2407 510.238 30.4807C512.398 28.6407 515.158 27.1207 518.518 25.9207C521.878 24.7207 525.998 24.1207 530.878 24.1207C535.918 24.1207 540.238 24.7207 543.838 25.9207C547.438 27.1207 550.318 28.8007 552.478 30.9607C554.638 33.1207 556.238 35.6407 557.278 38.5207C558.318 41.3207 558.838 44.3607 558.838 47.6407V84.7207C558.838 85.6007 558.558 86.3207 557.998 86.8807C557.438 87.4407 556.718 87.7207 555.838 87.7207H544.078C543.278 87.7207 542.598 87.4407 542.038 86.8807C541.478 86.3207 541.198 85.6007 541.198 84.7207V80.2807C540.158 81.8007 538.758 83.2407 536.998 84.6007C535.238 85.8807 533.118 86.9207 530.638 87.7207C528.238 88.5207 525.398 88.9207 522.118 88.9207ZM526.918 76.4407C529.558 76.4407 531.918 75.8807 533.998 74.7607C536.078 73.6407 537.718 71.9207 538.918 69.6007C540.118 67.2807 540.718 64.3607 540.718 60.8407V58.8007L529.558 60.6007C525.238 61.3207 522.078 62.4007 520.078 63.8407C518.078 65.2807 517.078 67.0407 517.078 69.1207C517.078 70.6407 517.518 71.9607 518.398 73.0807C519.358 74.2007 520.598 75.0407 522.118 75.6007C523.638 76.1607 525.238 76.4407 526.918 76.4407ZM601.928 88.9207C595.288 88.9207 589.728 87.8407 585.248 85.6807C580.768 83.4407 577.328 80.2807 574.928 76.2007C572.608 72.1207 571.328 67.3607 571.088 61.9207C571.008 60.3207 570.968 58.5207 570.968 56.5207C570.968 54.4407 571.008 52.6407 571.088 51.1207C571.328 45.6007 572.688 40.8407 575.168 36.8407C577.648 32.7607 581.128 29.6407 585.608 27.4807C590.088 25.2407 595.528 24.1207 601.928 24.1207C608.248 24.1207 613.648 25.2407 618.128 27.4807C622.608 29.6407 626.088 32.7607 628.568 36.8407C631.048 40.8407 632.408 45.6007 632.648 51.1207C632.808 52.6407 632.888 54.4407 632.888 56.5207C632.888 58.5207 632.808 60.3207 632.648 61.9207C632.408 67.3607 631.088 72.1207 628.688 76.2007C626.368 80.2807 622.968 83.4407 618.488 85.6807C614.008 87.8407 608.488 88.9207 601.928 88.9207ZM601.928 75.7207C605.848 75.7207 608.808 74.5207 610.808 72.1207C612.808 69.6407 613.888 66.0407 614.048 61.3207C614.128 60.1207 614.168 58.5207 614.168 56.5207C614.168 54.5207 614.128 52.9207 614.048 51.7207C613.888 47.0807 612.808 43.5207 610.808 41.0407C608.808 38.5607 605.848 37.3207 601.928 37.3207C598.008 37.3207 595.008 38.5607 592.928 41.0407C590.928 43.5207 589.848 47.0807 589.688 51.7207C589.608 52.9207 589.568 54.5207 589.568 56.5207C589.568 58.5207 589.608 60.1207 589.688 61.3207C589.848 66.0407 590.928 69.6407 592.928 72.1207C595.008 74.5207 598.008 75.7207 601.928 75.7207ZM690.955 87.7207C689.755 87.7207 688.835 87.4407 688.195 86.8807C687.635 86.2407 687.155 85.5207 686.755 84.7207L664.195 29.0407C664.035 28.7207 663.955 28.3607 663.955 27.9607C663.955 27.2407 664.195 26.6407 664.675 26.1607C665.235 25.6007 665.875 25.3207 666.595 25.3207H678.235C679.275 25.3207 680.035 25.6007 680.515 26.1607C681.075 26.7207 681.435 27.2407 681.595 27.7207L696.355 67.3207L711.115 27.7207C711.355 27.2407 711.715 26.7207 712.195 26.1607C712.755 25.6007 713.515 25.3207 714.475 25.3207H726.115C726.835 25.3207 727.435 25.6007 727.915 26.1607C728.475 26.6407 728.755 27.2407 728.755 27.9607C728.755 28.3607 728.715 28.7207 728.635 29.0407L705.955 84.7207C705.635 85.5207 705.155 86.2407 704.515 86.8807C703.875 87.4407 702.955 87.7207 701.755 87.7207H690.955ZM741.834 87.7207C741.034 87.7207 740.354 87.4407 739.794 86.8807C739.234 86.3207 738.954 85.6007 738.954 84.7207V28.3207C738.954 27.4407 739.234 26.7207 739.794 26.1607C740.354 25.6007 741.034 25.3207 741.834 25.3207H753.834C754.714 25.3207 755.434 25.6007 755.994 26.1607C756.554 26.7207 756.834 27.4407 756.834 28.3207V84.7207C756.834 85.6007 756.554 86.3207 755.994 86.8807C755.434 87.4407 754.714 87.7207 753.834 87.7207H741.834ZM741.474 15.7207C740.674 15.7207 739.994 15.4407 739.434 14.8807C738.874 14.3207 738.594 13.6007 738.594 12.7207V3.1207C738.594 2.2407 738.874 1.5207 739.434 0.960697C739.994 0.320701 740.674 0.000702381 741.474 0.000702381H754.074C754.954 0.000702381 755.674 0.320701 756.234 0.960697C756.874 1.5207 757.194 2.2407 757.194 3.1207V12.7207C757.194 13.6007 756.874 14.3207 756.234 14.8807C755.674 15.4407 754.954 15.7207 754.074 15.7207H741.474ZM793.963 87.7207C792.763 87.7207 791.843 87.4407 791.203 86.8807C790.643 86.2407 790.163 85.5207 789.763 84.7207L767.203 29.0407C767.043 28.7207 766.963 28.3607 766.963 27.9607C766.963 27.2407 767.203 26.6407 767.683 26.1607C768.243 25.6007 768.883 25.3207 769.603 25.3207H781.243C782.283 25.3207 783.043 25.6007 783.523 26.1607C784.083 26.7207 784.443 27.2407 784.603 27.7207L799.363 67.3207L814.123 27.7207C814.363 27.2407 814.723 26.7207 815.203 26.1607C815.763 25.6007 816.523 25.3207 817.483 25.3207H829.123C829.843 25.3207 830.443 25.6007 830.923 26.1607C831.483 26.6407 831.763 27.2407 831.763 27.9607C831.763 28.3607 831.723 28.7207 831.643 29.0407L808.963 84.7207C808.643 85.5207 808.163 86.2407 807.523 86.8807C806.883 87.4407 805.963 87.7207 804.763 87.7207H793.963ZM868.178 88.9207C861.538 88.9207 855.978 87.8407 851.498 85.6807C847.018 83.4407 843.578 80.2807 841.178 76.2007C838.858 72.1207 837.578 67.3607 837.338 61.9207C837.258 60.3207 837.218 58.5207 837.218 56.5207C837.218 54.4407 837.258 52.6407 837.338 51.1207C837.578 45.6007 838.938 40.8407 841.418 36.8407C843.898 32.7607 847.378 29.6407 851.858 27.4807C856.338 25.2407 861.778 24.1207 868.178 24.1207C874.498 24.1207 879.898 25.2407 884.378 27.4807C888.858 29.6407 892.338 32.7607 894.818 36.8407C897.298 40.8407 898.658 45.6007 898.898 51.1207C899.058 52.6407 899.138 54.4407 899.138 56.5207C899.138 58.5207 899.058 60.3207 898.898 61.9207C898.658 67.3607 897.338 72.1207 894.938 76.2007C892.618 80.2807 889.218 83.4407 884.738 85.6807C880.258 87.8407 874.738 88.9207 868.178 88.9207ZM868.178 75.7207C872.098 75.7207 875.058 74.5207 877.058 72.1207C879.058 69.6407 880.138 66.0407 880.298 61.3207C880.378 60.1207 880.418 58.5207 880.418 56.5207C880.418 54.5207 880.378 52.9207 880.298 51.7207C880.138 47.0807 879.058 43.5207 877.058 41.0407C875.058 38.5607 872.098 37.3207 868.178 37.3207C864.258 37.3207 861.258 38.5607 859.178 41.0407C857.178 43.5207 856.098 47.0807 855.938 51.7207C855.858 52.9207 855.818 54.5207 855.818 56.5207C855.818 58.5207 855.858 60.1207 855.938 61.3207C856.098 66.0407 857.178 69.6407 859.178 72.1207C861.258 74.5207 864.258 75.7207 868.178 75.7207Z" fill="#6D2E46"/>
</svg>
