<svg width="400" height="112" viewBox="0 0 400 112" fill="none" xmlns="http://www.w3.org/2000/svg">
<g filter="url(#filter0_d_3347_487)">
<rect x="6.5" y="2.5" width="387" height="99" rx="49.5" stroke="#BD4747" stroke-width="5" shape-rendering="crispEdges"/>
<path d="M131.125 68.495C128.89 68.495 126.993 68.03 125.433 67.1C123.873 66.17 122.613 64.925 121.653 63.365C120.693 61.805 119.988 60.0575 119.538 58.1225C119.103 56.1875 118.885 54.23 118.885 52.25C118.885 50.3 119.11 48.365 119.56 46.445C120.025 44.51 120.745 42.755 121.72 41.18C122.695 39.605 123.955 38.345 125.5 37.4C127.06 36.455 128.935 35.9825 131.125 35.9825C132.835 35.9825 134.305 36.2825 135.535 36.8825C136.765 37.4825 137.785 38.2625 138.595 39.2225C139.405 40.1675 140.028 41.1575 140.463 42.1925L136.188 44.3075C135.603 43.1825 134.928 42.2675 134.163 41.5625C133.398 40.8575 132.385 40.505 131.125 40.505C129.79 40.505 128.658 40.865 127.728 41.585C126.798 42.29 126.048 43.2275 125.478 44.3975C124.908 45.5525 124.495 46.82 124.24 48.2C123.985 49.565 123.858 50.915 123.858 52.25C123.858 53.675 124 55.085 124.285 56.48C124.57 57.875 125.005 59.135 125.59 60.26C126.19 61.385 126.948 62.285 127.862 62.96C128.778 63.635 129.865 63.9725 131.125 63.9725C132.4 63.9725 133.443 63.5975 134.253 62.8475C135.078 62.0975 135.768 61.13 136.323 59.945L140.665 61.5875C140.14 62.8775 139.45 64.0475 138.595 65.0975C137.74 66.1475 136.69 66.98 135.445 67.595C134.215 68.195 132.775 68.495 131.125 68.495ZM145.557 68L155.884 36.5L160.272 36.5L170.622 68L165.514 68L158.877 46.2425C158.817 46.0325 158.734 45.7325 158.629 45.3425C158.524 44.9375 158.419 44.5175 158.314 44.0825C158.209 43.6475 158.134 43.2575 158.089 42.9125C158.014 43.2575 157.924 43.6475 157.819 44.0825C157.729 44.5175 157.632 44.9375 157.527 45.3425C157.437 45.7325 157.362 46.0325 157.302 46.2425L150.709 68L145.557 68ZM151.744 60.755L153.072 56.4125L163.107 56.4125L164.434 60.755L151.744 60.755ZM175.716 68L175.716 36.5L180.554 36.5L185.166 54.365C185.301 54.92 185.436 55.4825 185.571 56.0525C185.721 56.6075 185.826 57.1025 185.886 57.5375C185.961 57.1025 186.066 56.6075 186.201 56.0525C186.336 55.4825 186.479 54.92 186.629 54.365L191.331 36.5L195.921 36.5L195.921 68L191.691 68L191.691 49.8875C191.691 49.5575 191.691 49.1225 191.691 48.5825C191.706 48.0275 191.736 47.5625 191.781 47.1875C191.661 47.6075 191.526 48.0575 191.376 48.5375C191.241 49.0025 191.114 49.4525 190.994 49.8875L186.089 68L185.571 68L180.644 49.8875C180.524 49.4525 180.389 48.995 180.239 48.515C180.104 48.035 179.976 47.5925 179.856 47.1875C179.886 47.5625 179.909 48.0275 179.924 48.5825C179.939 49.1225 179.946 49.5575 179.946 49.8875L179.946 68L175.716 68ZM203.446 68L203.446 36.5L214.043 36.5C216.623 36.5 218.671 36.9725 220.186 37.9175C221.701 38.8625 222.788 40.0775 223.448 41.5625C224.108 43.0325 224.438 44.555 224.438 46.13C224.438 47.24 224.243 48.365 223.853 49.505C223.478 50.63 222.871 51.665 222.031 52.61C221.206 53.555 220.133 54.32 218.813 54.905C217.508 55.475 215.918 55.76 214.043 55.76L208.261 55.76L208.261 68L203.446 68ZM208.261 51.2825L214.313 51.2825C215.603 51.2825 216.631 51.0275 217.396 50.5175C218.176 49.9925 218.738 49.34 219.083 48.56C219.428 47.765 219.601 46.955 219.601 46.13C219.601 45.395 219.443 44.63 219.128 43.835C218.828 43.04 218.296 42.365 217.531 41.81C216.766 41.255 215.693 40.9775 214.313 40.9775L208.261 40.9775L208.261 51.2825ZM241.278 68.54C239.223 68.54 237.468 68.09 236.013 67.19C234.558 66.275 233.373 65.045 232.458 63.5C231.543 61.955 230.868 60.215 230.433 58.28C230.013 56.33 229.803 54.32 229.803 52.25C229.803 50.18 230.013 48.1775 230.433 46.2425C230.868 44.2925 231.543 42.545 232.458 41C233.373 39.455 234.558 38.2325 236.013 37.3325C237.468 36.4175 239.223 35.96 241.278 35.96C243.333 35.96 245.088 36.4175 246.543 37.3325C248.013 38.2325 249.205 39.455 250.12 41C251.035 42.545 251.71 44.2925 252.145 46.2425C252.58 48.1775 252.798 50.18 252.798 52.25C252.798 54.32 252.58 56.33 252.145 58.28C251.71 60.215 251.035 61.955 250.12 63.5C249.205 65.045 248.013 66.275 246.543 67.19C245.088 68.09 243.333 68.54 241.278 68.54ZM241.278 64.0175C242.433 64.0175 243.423 63.68 244.248 63.005C245.073 62.33 245.74 61.43 246.25 60.305C246.775 59.18 247.158 57.92 247.398 56.525C247.653 55.115 247.78 53.69 247.78 52.25C247.78 50.69 247.653 49.2125 247.398 47.8175C247.158 46.4075 246.783 45.155 246.273 44.06C245.763 42.95 245.095 42.08 244.27 41.45C243.445 40.805 242.448 40.4825 241.278 40.4825C240.123 40.4825 239.133 40.82 238.308 41.495C237.483 42.155 236.808 43.0475 236.283 44.1725C235.773 45.2975 235.39 46.565 235.135 47.975C234.895 49.37 234.775 50.795 234.775 52.25C234.775 53.795 234.895 55.2725 235.135 56.6825C235.39 58.0775 235.773 59.33 236.283 60.44C236.808 61.55 237.483 62.4275 238.308 63.0725C239.133 63.7025 240.123 64.0175 241.278 64.0175ZM269.322 68.54C267.642 68.54 266.082 68.2175 264.642 67.5725C263.202 66.9125 261.95 66.0125 260.885 64.8725C259.835 63.7175 259.055 62.3825 258.545 60.8675L262.932 59.2475C263.577 60.6725 264.5 61.8275 265.7 62.7125C266.9 63.5975 268.22 64.04 269.66 64.04C271.115 64.04 272.292 63.6575 273.192 62.8925C274.092 62.1275 274.542 61.0175 274.542 59.5625C274.542 58.6025 274.242 57.755 273.642 57.02C273.042 56.285 272.255 55.6325 271.28 55.0625C270.305 54.4775 269.255 53.93 268.13 53.42C267.125 53 266.12 52.52 265.115 51.98C264.125 51.44 263.21 50.81 262.37 50.09C261.545 49.355 260.877 48.4925 260.367 47.5025C259.857 46.5125 259.602 45.3575 259.602 44.0375C259.602 42.5675 259.977 41.225 260.727 40.01C261.492 38.78 262.572 37.7975 263.967 37.0625C265.377 36.3275 267.042 35.96 268.962 35.96C271.257 35.96 273.215 36.56 274.835 37.76C276.47 38.945 277.542 40.4375 278.052 42.2375L273.71 43.7C273.29 42.785 272.66 42.0125 271.82 41.3825C270.98 40.7525 269.945 40.4375 268.715 40.4375C267.485 40.4375 266.465 40.7525 265.655 41.3825C264.86 42.0125 264.462 42.8675 264.462 43.9475C264.462 44.7425 264.702 45.4325 265.182 46.0175C265.677 46.5875 266.367 47.12 267.252 47.615C268.137 48.11 269.195 48.6425 270.425 49.2125C271.415 49.6775 272.435 50.2025 273.485 50.7875C274.535 51.3725 275.51 52.0625 276.41 52.8575C277.31 53.6375 278.03 54.56 278.57 55.625C279.125 56.69 279.402 57.9275 279.402 59.3375C279.402 61.3025 278.945 62.9675 278.03 64.3325C277.115 65.6975 275.892 66.74 274.362 67.46C272.832 68.18 271.152 68.54 269.322 68.54Z" fill="#BD4747"/>
</g>
<defs>
<filter id="filter0_d_3347_487" x="0" y="7.75981e-09" width="400" height="112" filterUnits="userSpaceOnUse" color-interpolation-filters="sRGB">
<feFlood flood-opacity="0" result="BackgroundImageFix"/>
<feColorMatrix in="SourceAlpha" type="matrix" values="0 0 0 0 0 0 0 0 0 0 0 0 0 0 0 0 0 0 127 0" result="hardAlpha"/>
<feOffset dy="4"/>
<feGaussianBlur stdDeviation="2"/>
<feComposite in2="hardAlpha" operator="out"/>
<feColorMatrix type="matrix" values="0 0 0 0 0 0 0 0 0 0 0 0 0 0 0 0 0 0 0.25 0"/>
<feBlend mode="normal" in2="BackgroundImageFix" result="effect1_dropShadow_3347_487"/>
<feBlend mode="normal" in="SourceGraphic" in2="effect1_dropShadow_3347_487" result="shape"/>
</filter>
</defs>
</svg>
