<svg width="401" height="112" viewBox="0 0 401 112" fill="none" xmlns="http://www.w3.org/2000/svg">
<g filter="url(#filter0_d_3347_485)">
<rect x="6.5" y="2.5" width="388" height="99" rx="49.5" stroke="#BD4747" stroke-width="5" shape-rendering="crispEdges"/>
<path d="M106.758 68L106.758 36.5L117.355 36.5C119.935 36.5 121.983 36.9725 123.498 37.9175C125.013 38.8625 126.1 40.0775 126.76 41.5625C127.42 43.0325 127.75 44.555 127.75 46.13C127.75 47.24 127.555 48.365 127.165 49.505C126.79 50.63 126.183 51.665 125.343 52.61C124.518 53.555 123.445 54.32 122.125 54.905C120.82 55.475 119.23 55.76 117.355 55.76L111.573 55.76L111.573 68L106.758 68ZM111.573 51.2825L117.625 51.2825C118.915 51.2825 119.943 51.0275 120.708 50.5175C121.488 49.9925 122.05 49.34 122.395 48.56C122.74 47.765 122.913 46.955 122.913 46.13C122.913 45.395 122.755 44.63 122.44 43.835C122.14 43.04 121.608 42.365 120.843 41.81C120.078 41.255 119.005 40.9775 117.625 40.9775L111.573 40.9775L111.573 51.2825ZM144.589 68.54C142.534 68.54 140.779 68.09 139.324 67.19C137.869 66.275 136.684 65.045 135.769 63.5C134.854 61.955 134.179 60.215 133.744 58.28C133.324 56.33 133.114 54.32 133.114 52.25C133.114 50.18 133.324 48.1775 133.744 46.2425C134.179 44.2925 134.854 42.545 135.769 41C136.684 39.455 137.869 38.2325 139.324 37.3325C140.779 36.4175 142.534 35.96 144.589 35.96C146.644 35.96 148.399 36.4175 149.854 37.3325C151.324 38.2325 152.517 39.455 153.432 41C154.347 42.545 155.022 44.2925 155.457 46.2425C155.892 48.1775 156.109 50.18 156.109 52.25C156.109 54.32 155.892 56.33 155.457 58.28C155.022 60.215 154.347 61.955 153.432 63.5C152.517 65.045 151.324 66.275 149.854 67.19C148.399 68.09 146.644 68.54 144.589 68.54ZM144.589 64.0175C145.744 64.0175 146.734 63.68 147.559 63.005C148.384 62.33 149.052 61.43 149.562 60.305C150.087 59.18 150.469 57.92 150.709 56.525C150.964 55.115 151.092 53.69 151.092 52.25C151.092 50.69 150.964 49.2125 150.709 47.8175C150.469 46.4075 150.094 45.155 149.584 44.06C149.074 42.95 148.407 42.08 147.582 41.45C146.757 40.805 145.759 40.4825 144.589 40.4825C143.434 40.4825 142.444 40.82 141.619 41.495C140.794 42.155 140.119 43.0475 139.594 44.1725C139.084 45.2975 138.702 46.565 138.447 47.975C138.207 49.37 138.087 50.795 138.087 52.25C138.087 53.795 138.207 55.2725 138.447 56.6825C138.702 58.0775 139.084 59.33 139.594 60.44C140.119 61.55 140.794 62.4275 141.619 63.0725C142.444 63.7025 143.434 64.0175 144.589 64.0175ZM162.216 68L162.216 36.5L169.934 36.5C172.484 36.5 174.636 36.95 176.391 37.85C178.161 38.735 179.594 39.935 180.689 41.45C181.784 42.95 182.579 44.6375 183.074 46.5125C183.584 48.3725 183.839 50.285 183.839 52.25C183.839 54.05 183.599 55.8725 183.119 57.7175C182.654 59.5625 181.881 61.265 180.801 62.825C179.721 64.385 178.281 65.6375 176.481 66.5825C174.681 67.5275 172.439 68 169.754 68L162.216 68ZM167.009 63.5L170.159 63.5C171.794 63.5 173.166 63.17 174.276 62.51C175.401 61.835 176.294 60.95 176.954 59.855C177.614 58.745 178.086 57.53 178.371 56.21C178.671 54.89 178.821 53.57 178.821 52.25C178.821 50.84 178.664 49.4675 178.349 48.1325C178.049 46.7975 177.569 45.59 176.909 44.51C176.264 43.43 175.424 42.575 174.389 41.945C173.354 41.3 172.109 40.9775 170.654 40.9775L167.009 40.9775L167.009 63.5ZM200.813 68.495C198.578 68.495 196.681 68.03 195.121 67.1C193.561 66.17 192.301 64.925 191.341 63.365C190.381 61.805 189.676 60.0575 189.226 58.1225C188.791 56.1875 188.573 54.23 188.573 52.25C188.573 50.3 188.798 48.365 189.248 46.445C189.713 44.51 190.433 42.755 191.408 41.18C192.383 39.605 193.643 38.345 195.188 37.4C196.748 36.455 198.623 35.9825 200.813 35.9825C202.523 35.9825 203.993 36.2825 205.223 36.8825C206.453 37.4825 207.473 38.2625 208.283 39.2225C209.093 40.1675 209.716 41.1575 210.151 42.1925L205.876 44.3075C205.291 43.1825 204.616 42.2675 203.851 41.5625C203.086 40.8575 202.073 40.505 200.813 40.505C199.478 40.505 198.346 40.865 197.416 41.585C196.486 42.29 195.736 43.2275 195.166 44.3975C194.596 45.5525 194.183 46.82 193.928 48.2C193.673 49.565 193.546 50.915 193.546 52.25C193.546 53.675 193.688 55.085 193.973 56.48C194.258 57.875 194.693 59.135 195.278 60.26C195.878 61.385 196.636 62.285 197.551 62.96C198.466 63.635 199.553 63.9725 200.813 63.9725C202.088 63.9725 203.131 63.5975 203.941 62.8475C204.766 62.0975 205.456 61.13 206.011 59.945L210.353 61.5875C209.828 62.8775 209.138 64.0475 208.283 65.0975C207.428 66.1475 206.378 66.98 205.133 67.595C203.903 68.195 202.463 68.495 200.813 68.495ZM215.245 68L225.573 36.5L229.96 36.5L240.31 68L235.203 68L228.565 46.2425C228.505 46.0325 228.423 45.7325 228.318 45.3425C228.213 44.9375 228.108 44.5175 228.003 44.0825C227.898 43.6475 227.823 43.2575 227.778 42.9125C227.703 43.2575 227.613 43.6475 227.508 44.0825C227.418 44.5175 227.32 44.9375 227.215 45.3425C227.125 45.7325 227.05 46.0325 226.99 46.2425L220.398 68L215.245 68ZM221.433 60.755L222.76 56.4125L232.795 56.4125L234.123 60.755L221.433 60.755ZM255.822 68.54C254.142 68.54 252.582 68.2175 251.142 67.5725C249.702 66.9125 248.45 66.0125 247.385 64.8725C246.335 63.7175 245.555 62.3825 245.045 60.8675L249.432 59.2475C250.077 60.6725 251 61.8275 252.2 62.7125C253.4 63.5975 254.72 64.04 256.16 64.04C257.615 64.04 258.792 63.6575 259.692 62.8925C260.592 62.1275 261.042 61.0175 261.042 59.5625C261.042 58.6025 260.742 57.755 260.142 57.02C259.542 56.285 258.755 55.6325 257.78 55.0625C256.805 54.4775 255.755 53.93 254.63 53.42C253.625 53 252.62 52.52 251.615 51.98C250.625 51.44 249.71 50.81 248.87 50.09C248.045 49.355 247.377 48.4925 246.867 47.5025C246.357 46.5125 246.102 45.3575 246.102 44.0375C246.102 42.5675 246.477 41.225 247.227 40.01C247.992 38.78 249.072 37.7975 250.467 37.0625C251.877 36.3275 253.542 35.96 255.462 35.96C257.757 35.96 259.715 36.56 261.335 37.76C262.97 38.945 264.042 40.4375 264.552 42.2375L260.21 43.7C259.79 42.785 259.16 42.0125 258.32 41.3825C257.48 40.7525 256.445 40.4375 255.215 40.4375C253.985 40.4375 252.965 40.7525 252.155 41.3825C251.36 42.0125 250.962 42.8675 250.962 43.9475C250.962 44.7425 251.202 45.4325 251.682 46.0175C252.177 46.5875 252.867 47.12 253.752 47.615C254.637 48.11 255.695 48.6425 256.925 49.2125C257.915 49.6775 258.935 50.2025 259.985 50.7875C261.035 51.3725 262.01 52.0625 262.91 52.8575C263.81 53.6375 264.53 54.56 265.07 55.625C265.625 56.69 265.902 57.9275 265.902 59.3375C265.902 61.3025 265.445 62.9675 264.53 64.3325C263.615 65.6975 262.392 66.74 260.862 67.46C259.332 68.18 257.652 68.54 255.822 68.54ZM280.829 68L280.829 41.09L271.717 41.09L271.717 36.5L294.757 36.5L294.757 41.09L285.622 41.09L285.622 68L280.829 68Z" fill="#BD4747"/>
</g>
<defs>
<filter id="filter0_d_3347_485" x="0" y="7.78164e-09" width="401" height="112" filterUnits="userSpaceOnUse" color-interpolation-filters="sRGB">
<feFlood flood-opacity="0" result="BackgroundImageFix"/>
<feColorMatrix in="SourceAlpha" type="matrix" values="0 0 0 0 0 0 0 0 0 0 0 0 0 0 0 0 0 0 127 0" result="hardAlpha"/>
<feOffset dy="4"/>
<feGaussianBlur stdDeviation="2"/>
<feComposite in2="hardAlpha" operator="out"/>
<feColorMatrix type="matrix" values="0 0 0 0 0 0 0 0 0 0 0 0 0 0 0 0 0 0 0.25 0"/>
<feBlend mode="normal" in2="BackgroundImageFix" result="effect1_dropShadow_3347_485"/>
<feBlend mode="normal" in="SourceGraphic" in2="effect1_dropShadow_3347_485" result="shape"/>
</filter>
</defs>
</svg>
