<svg width="620" height="98" viewBox="0 0 620 98" fill="none" xmlns="http://www.w3.org/2000/svg">
<path d="M26.2521 29C25.6221 29 25.0387 28.8483 24.5021 28.545C23.9654 28.2183 23.5337 27.7867 23.2071 27.25C22.9037 26.7133 22.7521 26.13 22.7521 25.5C22.7521 24.8467 22.9037 24.2633 23.2071 23.75C23.5337 23.2133 23.9654 22.7933 24.5021 22.49C25.0387 22.1633 25.6221 22 26.2521 22C26.9054 22 27.4887 22.1633 28.0021 22.49C28.5387 22.7933 28.9587 23.2133 29.2621 23.75C29.5887 24.2633 29.7521 24.8467 29.7521 25.5C29.7521 26.13 29.5887 26.7133 29.2621 27.25C28.9587 27.7867 28.5387 28.2183 28.0021 28.545C27.4887 28.8483 26.9054 29 26.2521 29ZM62.16 36C61.9267 36 61.74 35.93 61.6 35.79C61.46 35.65 61.39 35.4633 61.39 35.23V14.37L55.125 19.2C54.9383 19.34 54.74 19.3983 54.53 19.375C54.3433 19.3517 54.18 19.2467 54.04 19.06L53.655 18.57C53.515 18.3833 53.4567 18.1967 53.48 18.01C53.5033 17.8 53.6083 17.625 53.795 17.485L61.25 11.745C61.4133 11.6283 61.565 11.5583 61.705 11.535C61.845 11.5117 61.9967 11.5 62.16 11.5H62.825C63.0583 11.5 63.245 11.57 63.385 11.71C63.525 11.85 63.595 12.0367 63.595 12.27V35.23C63.595 35.4633 63.525 35.65 63.385 35.79C63.245 35.93 63.0583 36 62.825 36H62.16ZM73.4803 36C73.2703 36 73.0953 35.93 72.9553 35.79C72.8386 35.6267 72.7803 35.44 72.7803 35.23C72.7803 35.1133 72.8036 35.02 72.8503 34.95C72.897 34.88 72.932 34.8217 72.9553 34.775L78.4853 27.005C77.7853 27.1917 77.027 27.285 76.2103 27.285C74.8103 27.285 73.5853 27.0517 72.5353 26.585C71.5086 26.1183 70.6453 25.5 69.9453 24.73C69.2686 23.9367 68.7553 23.0733 68.4053 22.14C68.0786 21.1833 67.9153 20.215 67.9153 19.235C67.9153 18.255 68.0786 17.2867 68.4053 16.33C68.7553 15.3733 69.2686 14.51 69.9453 13.74C70.6453 12.9467 71.5086 12.3167 72.5353 11.85C73.5853 11.3833 74.8103 11.15 76.2103 11.15C77.6103 11.15 78.8236 11.3833 79.8503 11.85C80.9003 12.3167 81.7753 12.9467 82.4753 13.74C83.1753 14.51 83.6886 15.3733 84.0153 16.33C84.3653 17.2867 84.5403 18.255 84.5403 19.235C84.5403 20.145 84.4236 20.9733 84.1903 21.72C83.957 22.4667 83.677 23.12 83.3503 23.68C83.047 24.24 82.7553 24.7183 82.4753 25.115L75.2653 35.3C75.172 35.4167 75.0436 35.5683 74.8803 35.755C74.7403 35.9183 74.507 36 74.1803 36H73.4803ZM76.2103 25.185C77.307 25.185 78.322 24.94 79.2553 24.45C80.1886 23.96 80.9353 23.2717 81.4953 22.385C82.0553 21.4983 82.3353 20.4483 82.3353 19.235C82.3353 17.9983 82.0553 16.9367 81.4953 16.05C80.9353 15.1633 80.1886 14.475 79.2553 13.985C78.322 13.495 77.307 13.25 76.2103 13.25C75.1136 13.25 74.0986 13.495 73.1653 13.985C72.2553 14.475 71.5203 15.1633 70.9603 16.05C70.4003 16.9367 70.1203 17.9983 70.1203 19.235C70.1203 20.4483 70.4003 21.4983 70.9603 22.385C71.5203 23.2717 72.2553 23.96 73.1653 24.45C74.0986 24.94 75.1136 25.185 76.2103 25.185ZM104.913 36.35C103.56 36.35 102.405 36.105 101.448 35.615C100.515 35.125 99.7564 34.4717 99.173 33.655C98.5897 32.8383 98.158 31.9283 97.878 30.925C97.6214 29.9217 97.4697 28.9067 97.423 27.88C97.3997 27.53 97.388 27.2033 97.388 26.9C97.388 26.5967 97.3997 26.27 97.423 25.92C97.4697 24.8933 97.6214 23.8783 97.878 22.875C98.158 21.8717 98.5897 20.9617 99.173 20.145C99.7564 19.3283 100.515 18.675 101.448 18.185C102.405 17.695 103.56 17.45 104.913 17.45C106.36 17.45 107.55 17.7183 108.483 18.255C109.44 18.7917 110.21 19.445 110.793 20.215V11.92C110.793 11.6867 110.863 11.5 111.003 11.36C111.143 11.22 111.33 11.15 111.563 11.15H112.158C112.391 11.15 112.578 11.22 112.718 11.36C112.858 11.5 112.928 11.6867 112.928 11.92V35.23C112.928 35.4633 112.858 35.65 112.718 35.79C112.578 35.93 112.391 36 112.158 36H111.563C111.33 36 111.143 35.93 111.003 35.79C110.863 35.65 110.793 35.4633 110.793 35.23V33.585C110.21 34.3783 109.44 35.0433 108.483 35.58C107.55 36.0933 106.36 36.35 104.913 36.35ZM105.123 34.32C106.453 34.32 107.526 34.005 108.343 33.375C109.16 32.745 109.766 31.9633 110.163 31.03C110.56 30.0733 110.77 29.1167 110.793 28.16C110.816 27.81 110.828 27.355 110.828 26.795C110.828 26.235 110.816 25.78 110.793 25.43C110.77 24.4967 110.548 23.575 110.128 22.665C109.731 21.755 109.125 20.9967 108.308 20.39C107.491 19.7833 106.43 19.48 105.123 19.48C103.77 19.48 102.685 19.7833 101.868 20.39C101.075 20.9967 100.503 21.79 100.153 22.77C99.803 23.75 99.6047 24.8 99.558 25.92C99.5347 26.5733 99.5347 27.2267 99.558 27.88C99.6047 29 99.803 30.05 100.153 31.03C100.503 32.01 101.075 32.8033 101.868 33.41C102.685 34.0167 103.77 34.32 105.123 34.32ZM125.391 36.35C123.127 36.35 121.331 35.615 120.001 34.145C118.671 32.6517 117.912 30.7033 117.726 28.3C117.702 27.95 117.691 27.4833 117.691 26.9C117.691 26.3167 117.702 25.85 117.726 25.5C117.842 23.9133 118.216 22.5133 118.846 21.3C119.476 20.0867 120.339 19.1417 121.436 18.465C122.556 17.7883 123.874 17.45 125.391 17.45C127.024 17.45 128.412 17.8117 129.556 18.535C130.699 19.2583 131.574 20.2967 132.181 21.65C132.811 23.0033 133.126 24.6133 133.126 26.48V27.005C133.126 27.2383 133.044 27.425 132.881 27.565C132.741 27.705 132.554 27.775 132.321 27.775H119.861C119.861 27.775 119.861 27.8217 119.861 27.915C119.861 28.0083 119.861 28.0783 119.861 28.125C119.907 29.175 120.152 30.1783 120.596 31.135C121.039 32.0683 121.669 32.8383 122.486 33.445C123.302 34.0283 124.271 34.32 125.391 34.32C126.394 34.32 127.222 34.1683 127.876 33.865C128.552 33.5617 129.089 33.235 129.486 32.885C129.882 32.5117 130.139 32.2317 130.256 32.045C130.466 31.7417 130.629 31.5667 130.746 31.52C130.862 31.45 131.049 31.415 131.306 31.415H131.866C132.076 31.415 132.251 31.485 132.391 31.625C132.554 31.7417 132.624 31.905 132.601 32.115C132.577 32.4417 132.391 32.85 132.041 33.34C131.714 33.8067 131.236 34.2733 130.606 34.74C129.999 35.2067 129.252 35.5917 128.366 35.895C127.479 36.1983 126.487 36.35 125.391 36.35ZM119.861 25.815H130.991V25.675C130.991 24.5083 130.769 23.4583 130.326 22.525C129.882 21.5917 129.241 20.8567 128.401 20.32C127.561 19.76 126.557 19.48 125.391 19.48C124.224 19.48 123.221 19.76 122.381 20.32C121.564 20.8567 120.934 21.5917 120.491 22.525C120.071 23.4583 119.861 24.5083 119.861 25.675V25.815ZM143.791 42.65C143.557 42.65 143.371 42.58 143.231 42.44C143.091 42.3 143.021 42.1133 143.021 41.88V41.39C143.021 41.1567 143.091 40.97 143.231 40.83C143.371 40.69 143.557 40.62 143.791 40.62H143.931C144.887 40.62 145.587 40.445 146.031 40.095C146.474 39.745 146.754 39.2783 146.871 38.695C147.011 38.1117 147.081 37.47 147.081 36.77V18.57C147.081 18.3367 147.151 18.15 147.291 18.01C147.431 17.87 147.617 17.8 147.851 17.8H148.446C148.679 17.8 148.866 17.87 149.006 18.01C149.146 18.15 149.216 18.3367 149.216 18.57V36.77C149.216 37.8667 149.064 38.8583 148.761 39.745C148.481 40.6317 147.956 41.3317 147.186 41.845C146.439 42.3817 145.354 42.65 143.931 42.65H143.791ZM147.466 14.055C147.232 14.055 147.046 13.985 146.906 13.845C146.766 13.705 146.696 13.5183 146.696 13.285V11.955C146.696 11.7217 146.766 11.535 146.906 11.395C147.046 11.2317 147.232 11.15 147.466 11.15H148.796C149.029 11.15 149.216 11.2317 149.356 11.395C149.519 11.535 149.601 11.7217 149.601 11.955V13.285C149.601 13.5183 149.519 13.705 149.356 13.845C149.216 13.985 149.029 14.055 148.796 14.055H147.466ZM161.76 36.35C160.173 36.35 158.855 36.0117 157.805 35.335C156.778 34.635 156.008 33.69 155.495 32.5C155.005 31.31 154.76 29.98 154.76 28.51V18.57C154.76 18.3367 154.83 18.15 154.97 18.01C155.11 17.87 155.296 17.8 155.53 17.8H156.125C156.358 17.8 156.545 17.87 156.685 18.01C156.825 18.15 156.895 18.3367 156.895 18.57V28.335C156.895 32.325 158.633 34.32 162.11 34.32C163.766 34.32 165.096 33.795 166.1 32.745C167.103 31.6717 167.605 30.2017 167.605 28.335V18.57C167.605 18.3367 167.675 18.15 167.815 18.01C167.955 17.87 168.141 17.8 168.375 17.8H168.97C169.203 17.8 169.39 17.87 169.53 18.01C169.67 18.15 169.74 18.3367 169.74 18.57V35.23C169.74 35.4633 169.67 35.65 169.53 35.79C169.39 35.93 169.203 36 168.97 36H168.375C168.141 36 167.955 35.93 167.815 35.79C167.675 35.65 167.605 35.4633 167.605 35.23V33.585C166.975 34.4017 166.216 35.0667 165.33 35.58C164.466 36.0933 163.276 36.35 161.76 36.35ZM176.178 36C175.945 36 175.758 35.93 175.618 35.79C175.478 35.65 175.408 35.4633 175.408 35.23V18.57C175.408 18.3367 175.478 18.15 175.618 18.01C175.758 17.87 175.945 17.8 176.178 17.8H176.773C177.007 17.8 177.193 17.87 177.333 18.01C177.473 18.15 177.543 18.3367 177.543 18.57V20.215C178.173 19.3983 178.932 18.7333 179.818 18.22C180.728 17.7067 181.93 17.45 183.423 17.45C185.01 17.45 186.328 17.8 187.378 18.5C188.452 19.1767 189.245 20.11 189.758 21.3C190.295 22.4667 190.563 23.7967 190.563 25.29V35.23C190.563 35.4633 190.493 35.65 190.353 35.79C190.213 35.93 190.027 36 189.793 36H189.198C188.965 36 188.778 35.93 188.638 35.79C188.498 35.65 188.428 35.4633 188.428 35.23V25.465C188.428 23.5983 187.973 22.14 187.063 21.09C186.153 20.0167 184.823 19.48 183.073 19.48C181.417 19.48 180.075 20.0167 179.048 21.09C178.045 22.14 177.543 23.5983 177.543 25.465V35.23C177.543 35.4633 177.473 35.65 177.333 35.79C177.193 35.93 177.007 36 176.773 36H176.178ZM196.858 36C196.624 36 196.438 35.93 196.298 35.79C196.158 35.65 196.088 35.4633 196.088 35.23V11.92C196.088 11.6867 196.158 11.5 196.298 11.36C196.438 11.22 196.624 11.15 196.858 11.15H197.453C197.686 11.15 197.873 11.22 198.013 11.36C198.153 11.5 198.223 11.6867 198.223 11.92V20.215C198.853 19.3983 199.611 18.7333 200.498 18.22C201.408 17.7067 202.609 17.45 204.103 17.45C205.689 17.45 207.008 17.8 208.058 18.5C209.131 19.1767 209.924 20.11 210.438 21.3C210.974 22.4667 211.243 23.7967 211.243 25.29V35.23C211.243 35.4633 211.173 35.65 211.033 35.79C210.893 35.93 210.706 36 210.473 36H209.878C209.644 36 209.458 35.93 209.318 35.79C209.178 35.65 209.108 35.4633 209.108 35.23V25.465C209.108 23.5983 208.653 22.14 207.743 21.09C206.833 20.0167 205.503 19.48 203.753 19.48C202.096 19.48 200.754 20.0167 199.728 21.09C198.724 22.14 198.223 23.5983 198.223 25.465V35.23C198.223 35.4633 198.153 35.65 198.013 35.79C197.873 35.93 197.686 36 197.453 36H196.858ZM223.661 36.35C221.981 36.35 220.57 36 219.426 35.3C218.306 34.6 217.443 33.6433 216.836 32.43C216.253 31.2167 215.938 29.8633 215.891 28.37C215.868 28.02 215.856 27.53 215.856 26.9C215.856 26.27 215.868 25.78 215.891 25.43C215.938 23.9133 216.253 22.56 216.836 21.37C217.443 20.1567 218.306 19.2 219.426 18.5C220.57 17.8 221.981 17.45 223.661 17.45C225.341 17.45 226.741 17.8 227.861 18.5C229.005 19.2 229.868 20.1567 230.451 21.37C231.058 22.56 231.385 23.9133 231.431 25.43C231.455 25.78 231.466 26.27 231.466 26.9C231.466 27.53 231.455 28.02 231.431 28.37C231.385 29.8633 231.058 31.2167 230.451 32.43C229.868 33.6433 229.005 34.6 227.861 35.3C226.741 36 225.341 36.35 223.661 36.35ZM223.661 34.32C225.295 34.32 226.625 33.795 227.651 32.745C228.678 31.695 229.226 30.1783 229.296 28.195C229.32 27.845 229.331 27.4133 229.331 26.9C229.331 26.3867 229.32 25.955 229.296 25.605C229.226 23.5983 228.678 22.0817 227.651 21.055C226.625 20.005 225.295 19.48 223.661 19.48C222.028 19.48 220.698 20.005 219.671 21.055C218.645 22.0817 218.096 23.5983 218.026 25.605C218.003 25.955 217.991 26.3867 217.991 26.9C217.991 27.4133 218.003 27.845 218.026 28.195C218.096 30.1783 218.645 31.695 219.671 32.745C220.698 33.795 222.028 34.32 223.661 34.32ZM245.027 36C244.793 36 244.607 35.93 244.467 35.79C244.327 35.65 244.257 35.4633 244.257 35.23V34.705C244.257 34.4717 244.315 34.25 244.432 34.04C244.572 33.8067 244.805 33.5383 245.132 33.235L254.197 24.17C255.083 23.3533 255.76 22.6417 256.227 22.035C256.693 21.4283 257.008 20.8333 257.172 20.25C257.358 19.6433 257.452 18.9783 257.452 18.255C257.452 16.6917 256.997 15.4667 256.087 14.58C255.2 13.6933 253.928 13.25 252.272 13.25C251.222 13.25 250.312 13.46 249.542 13.88C248.772 14.3 248.165 14.895 247.722 15.665C247.278 16.4117 246.987 17.2867 246.847 18.29C246.823 18.57 246.718 18.78 246.532 18.92C246.345 19.0367 246.182 19.095 246.042 19.095H245.342C245.108 19.095 244.922 19.0367 244.782 18.92C244.665 18.78 244.607 18.6167 244.607 18.43C244.63 17.6367 244.793 16.82 245.097 15.98C245.4 15.1167 245.855 14.3233 246.462 13.6C247.092 12.8767 247.885 12.2933 248.842 11.85C249.798 11.3833 250.942 11.15 252.272 11.15C254.045 11.15 255.468 11.4883 256.542 12.165C257.638 12.8417 258.432 13.7167 258.922 14.79C259.412 15.8633 259.657 17.0183 259.657 18.255C259.657 19.2117 259.517 20.0983 259.237 20.915C258.957 21.7083 258.537 22.49 257.977 23.26C257.417 24.0067 256.705 24.7767 255.842 25.57L247.652 33.9H259.377C259.633 33.9 259.832 33.97 259.972 34.11C260.112 34.25 260.182 34.4483 260.182 34.705V35.23C260.182 35.4633 260.112 35.65 259.972 35.79C259.832 35.93 259.633 36 259.377 36H245.027ZM272.801 36.35C271.215 36.35 269.885 36.0933 268.811 35.58C267.761 35.0667 266.91 34.3667 266.256 33.48C265.626 32.57 265.171 31.5317 264.891 30.365C264.611 29.1983 264.448 27.9733 264.401 26.69C264.401 26.06 264.39 25.4183 264.366 24.765C264.366 24.1117 264.366 23.4583 264.366 22.805C264.39 22.1283 264.401 21.4633 264.401 20.81C264.425 19.5267 264.576 18.3017 264.856 17.135C265.16 15.9683 265.626 14.9417 266.256 14.055C266.91 13.145 267.761 12.4333 268.811 11.92C269.885 11.4067 271.215 11.15 272.801 11.15C274.388 11.15 275.706 11.4067 276.756 11.92C277.83 12.4333 278.681 13.145 279.311 14.055C279.965 14.9417 280.431 15.9683 280.711 17.135C281.015 18.3017 281.178 19.5267 281.201 20.81C281.225 21.4633 281.236 22.1283 281.236 22.805C281.236 23.4583 281.236 24.1117 281.236 24.765C281.236 25.4183 281.225 26.06 281.201 26.69C281.178 27.9733 281.015 29.1983 280.711 30.365C280.431 31.5317 279.965 32.57 279.311 33.48C278.681 34.3667 277.83 35.0667 276.756 35.58C275.706 36.0933 274.388 36.35 272.801 36.35ZM272.801 34.25C274.878 34.25 276.418 33.5617 277.421 32.185C278.425 30.8083 278.95 28.9183 278.996 26.515C279.02 25.8383 279.031 25.2083 279.031 24.625C279.031 24.0183 279.031 23.4233 279.031 22.84C279.031 22.2333 279.02 21.615 278.996 20.985C278.95 18.6283 278.425 16.75 277.421 15.35C276.418 13.95 274.878 13.25 272.801 13.25C270.748 13.25 269.208 13.95 268.181 15.35C267.178 16.75 266.653 18.6283 266.606 20.985C266.606 21.615 266.595 22.2333 266.571 22.84C266.571 23.4233 266.571 24.0183 266.571 24.625C266.595 25.2083 266.606 25.8383 266.606 26.515C266.653 28.9183 267.178 30.8083 268.181 32.185C269.208 33.5617 270.748 34.25 272.801 34.25ZM286.179 36C285.946 36 285.759 35.93 285.619 35.79C285.479 35.65 285.409 35.4633 285.409 35.23V34.705C285.409 34.4717 285.467 34.25 285.584 34.04C285.724 33.8067 285.957 33.5383 286.284 33.235L295.349 24.17C296.236 23.3533 296.912 22.6417 297.379 22.035C297.846 21.4283 298.161 20.8333 298.324 20.25C298.511 19.6433 298.604 18.9783 298.604 18.255C298.604 16.6917 298.149 15.4667 297.239 14.58C296.352 13.6933 295.081 13.25 293.424 13.25C292.374 13.25 291.464 13.46 290.694 13.88C289.924 14.3 289.317 14.895 288.874 15.665C288.431 16.4117 288.139 17.2867 287.999 18.29C287.976 18.57 287.871 18.78 287.684 18.92C287.497 19.0367 287.334 19.095 287.194 19.095H286.494C286.261 19.095 286.074 19.0367 285.934 18.92C285.817 18.78 285.759 18.6167 285.759 18.43C285.782 17.6367 285.946 16.82 286.249 15.98C286.552 15.1167 287.007 14.3233 287.614 13.6C288.244 12.8767 289.037 12.2933 289.994 11.85C290.951 11.3833 292.094 11.15 293.424 11.15C295.197 11.15 296.621 11.4883 297.694 12.165C298.791 12.8417 299.584 13.7167 300.074 14.79C300.564 15.8633 300.809 17.0183 300.809 18.255C300.809 19.2117 300.669 20.0983 300.389 20.915C300.109 21.7083 299.689 22.49 299.129 23.26C298.569 24.0067 297.857 24.7767 296.994 25.57L288.804 33.9H300.529C300.786 33.9 300.984 33.97 301.124 34.11C301.264 34.25 301.334 34.4483 301.334 34.705V35.23C301.334 35.4633 301.264 35.65 301.124 35.79C300.984 35.93 300.786 36 300.529 36H286.179ZM313.604 36.35C311.737 36.35 310.174 35.9533 308.914 35.16C307.654 34.3667 306.697 33.34 306.044 32.08C305.414 30.82 305.099 29.49 305.099 28.09C305.099 27.4133 305.169 26.7717 305.309 26.165C305.472 25.535 305.67 24.9517 305.904 24.415C306.137 23.8783 306.37 23.4 306.604 22.98C306.86 22.5367 307.094 22.175 307.304 21.895L314.199 12.2C314.315 12.0833 314.444 11.9433 314.584 11.78C314.747 11.5933 314.98 11.5 315.284 11.5H315.949C316.159 11.5 316.322 11.5817 316.439 11.745C316.579 11.885 316.649 12.06 316.649 12.27C316.649 12.3633 316.625 12.4567 316.579 12.55C316.555 12.62 316.52 12.6783 316.474 12.725L311.224 20.145C311.55 20.0517 311.935 19.9817 312.379 19.935C312.822 19.8883 313.23 19.865 313.604 19.865C315.004 19.865 316.229 20.0983 317.279 20.565C318.352 21.0083 319.239 21.615 319.939 22.385C320.662 23.155 321.199 24.0417 321.549 25.045C321.922 26.025 322.109 27.04 322.109 28.09C322.109 29.49 321.782 30.82 321.129 32.08C320.499 33.34 319.554 34.3667 318.294 35.16C317.034 35.9533 315.47 36.35 313.604 36.35ZM313.604 34.25C314.7 34.25 315.727 34.0167 316.684 33.55C317.64 33.0833 318.41 32.395 318.994 31.485C319.6 30.5517 319.904 29.42 319.904 28.09C319.904 26.76 319.6 25.64 318.994 24.73C318.41 23.82 317.64 23.1317 316.684 22.665C315.727 22.1983 314.7 21.965 313.604 21.965C312.507 21.965 311.48 22.1983 310.524 22.665C309.567 23.1317 308.785 23.82 308.179 24.73C307.595 25.64 307.304 26.76 307.304 28.09C307.304 29.42 307.595 30.5517 308.179 31.485C308.785 32.395 309.567 33.0833 310.524 33.55C311.48 34.0167 312.507 34.25 313.604 34.25ZM335.928 26.515C335.695 26.515 335.508 26.445 335.368 26.305C335.228 26.165 335.158 25.9783 335.158 25.745V25.255C335.158 25.0217 335.228 24.835 335.368 24.695C335.508 24.555 335.695 24.485 335.928 24.485H346.253C346.487 24.485 346.673 24.555 346.813 24.695C346.953 24.835 347.023 25.0217 347.023 25.255V25.745C347.023 25.9783 346.953 26.165 346.813 26.305C346.673 26.445 346.487 26.515 346.253 26.515H335.928ZM362.707 36C362.474 36 362.287 35.93 362.147 35.79C362.007 35.65 361.937 35.4633 361.937 35.23V12.27C361.937 12.0367 362.007 11.85 362.147 11.71C362.287 11.57 362.474 11.5 362.707 11.5H363.372C363.606 11.5 363.792 11.57 363.932 11.71C364.072 11.85 364.142 12.0367 364.142 12.27V33.9H376.217C376.474 33.9 376.672 33.97 376.812 34.11C376.952 34.25 377.022 34.4483 377.022 34.705V35.23C377.022 35.4633 376.952 35.65 376.812 35.79C376.672 35.93 376.474 36 376.217 36H362.707ZM381.427 36C381.194 36 381.007 35.93 380.867 35.79C380.727 35.65 380.657 35.4633 380.657 35.23V18.57C380.657 18.3367 380.727 18.15 380.867 18.01C381.007 17.87 381.194 17.8 381.427 17.8H382.022C382.256 17.8 382.442 17.87 382.582 18.01C382.722 18.15 382.792 18.3367 382.792 18.57V35.23C382.792 35.4633 382.722 35.65 382.582 35.79C382.442 35.93 382.256 36 382.022 36H381.427ZM381.042 14.055C380.809 14.055 380.622 13.985 380.482 13.845C380.342 13.705 380.272 13.5183 380.272 13.285V11.955C380.272 11.7217 380.342 11.535 380.482 11.395C380.622 11.2317 380.809 11.15 381.042 11.15H382.372C382.606 11.15 382.792 11.2317 382.932 11.395C383.096 11.535 383.177 11.7217 383.177 11.955V13.285C383.177 13.5183 383.096 13.705 382.932 13.845C382.792 13.985 382.606 14.055 382.372 14.055H381.042ZM394.225 36.35C393.012 36.35 391.962 36.1867 391.075 35.86C390.212 35.5333 389.5 35.1483 388.94 34.705C388.38 34.2383 387.96 33.7833 387.68 33.34C387.424 32.8967 387.284 32.5583 387.26 32.325C387.237 32.0683 387.319 31.8817 387.505 31.765C387.692 31.625 387.867 31.555 388.03 31.555H388.555C388.695 31.555 388.812 31.5783 388.905 31.625C389.022 31.6717 389.162 31.8 389.325 32.01C389.629 32.4067 389.979 32.7917 390.375 33.165C390.772 33.515 391.274 33.795 391.88 34.005C392.51 34.215 393.292 34.32 394.225 34.32C395.625 34.32 396.78 34.0517 397.69 33.515C398.6 32.9783 399.055 32.185 399.055 31.135C399.055 30.4817 398.869 29.9567 398.495 29.56C398.145 29.1633 397.539 28.8133 396.675 28.51C395.812 28.2067 394.645 27.8917 393.175 27.565C391.705 27.215 390.574 26.795 389.78 26.305C389.01 25.815 388.485 25.255 388.205 24.625C387.925 23.9717 387.785 23.2717 387.785 22.525C387.785 21.7083 388.019 20.915 388.485 20.145C388.952 19.3517 389.64 18.71 390.55 18.22C391.484 17.7067 392.65 17.45 394.05 17.45C395.194 17.45 396.162 17.6017 396.955 17.905C397.772 18.2083 398.437 18.5817 398.95 19.025C399.464 19.445 399.837 19.865 400.07 20.285C400.327 20.705 400.467 21.0433 400.49 21.3C400.514 21.5333 400.444 21.72 400.28 21.86C400.117 22 399.93 22.07 399.72 22.07H399.195C399.009 22.07 398.857 22.035 398.74 21.965C398.624 21.8717 398.519 21.755 398.425 21.615C398.192 21.2417 397.912 20.8917 397.585 20.565C397.259 20.2383 396.815 19.9817 396.255 19.795C395.719 19.585 394.984 19.48 394.05 19.48C392.65 19.48 391.612 19.7717 390.935 20.355C390.259 20.915 389.92 21.6383 389.92 22.525C389.92 23.0383 390.06 23.4933 390.34 23.89C390.62 24.2633 391.145 24.6133 391.915 24.94C392.685 25.2433 393.805 25.57 395.275 25.92C396.769 26.2467 397.947 26.655 398.81 27.145C399.674 27.6117 400.28 28.1717 400.63 28.825C401.004 29.4783 401.19 30.2483 401.19 31.135C401.19 32.0683 400.922 32.9317 400.385 33.725C399.872 34.5183 399.09 35.16 398.04 35.65C397.014 36.1167 395.742 36.35 394.225 36.35ZM413.727 36.35C412.28 36.35 411.078 36.0933 410.122 35.58C409.188 35.0433 408.43 34.3783 407.847 33.585V35.23C407.847 35.4633 407.777 35.65 407.637 35.79C407.497 35.93 407.31 36 407.077 36H406.482C406.248 36 406.062 35.93 405.922 35.79C405.782 35.65 405.712 35.4633 405.712 35.23V11.92C405.712 11.6867 405.782 11.5 405.922 11.36C406.062 11.22 406.248 11.15 406.482 11.15H407.077C407.31 11.15 407.497 11.22 407.637 11.36C407.777 11.5 407.847 11.6867 407.847 11.92V20.215C408.43 19.445 409.188 18.7917 410.122 18.255C411.078 17.7183 412.28 17.45 413.727 17.45C415.103 17.45 416.258 17.695 417.192 18.185C418.125 18.675 418.883 19.3283 419.467 20.145C420.05 20.9617 420.482 21.8717 420.762 22.875C421.042 23.8783 421.193 24.8933 421.217 25.92C421.24 26.27 421.252 26.5967 421.252 26.9C421.252 27.2033 421.24 27.53 421.217 27.88C421.193 28.9067 421.042 29.9217 420.762 30.925C420.482 31.9283 420.05 32.8383 419.467 33.655C418.883 34.4717 418.125 35.125 417.192 35.615C416.258 36.105 415.103 36.35 413.727 36.35ZM413.517 34.32C414.893 34.32 415.978 34.0167 416.772 33.41C417.565 32.8033 418.137 32.01 418.487 31.03C418.837 30.05 419.035 29 419.082 27.88C419.105 27.2267 419.105 26.5733 419.082 25.92C419.035 24.8 418.837 23.75 418.487 22.77C418.137 21.79 417.565 20.9967 416.772 20.39C415.978 19.7833 414.893 19.48 413.517 19.48C412.233 19.48 411.172 19.7833 410.332 20.39C409.515 20.9967 408.897 21.755 408.477 22.665C408.08 23.575 407.87 24.4967 407.847 25.43C407.823 25.78 407.812 26.235 407.812 26.795C407.812 27.355 407.823 27.81 407.847 28.16C407.893 29.1167 408.103 30.0733 408.477 31.03C408.873 31.9633 409.48 32.745 410.297 33.375C411.113 34.005 412.187 34.32 413.517 34.32ZM432.91 36.35C431.23 36.35 429.818 36 428.675 35.3C427.555 34.6 426.691 33.6433 426.085 32.43C425.501 31.2167 425.186 29.8633 425.14 28.37C425.116 28.02 425.105 27.53 425.105 26.9C425.105 26.27 425.116 25.78 425.14 25.43C425.186 23.9133 425.501 22.56 426.085 21.37C426.691 20.1567 427.555 19.2 428.675 18.5C429.818 17.8 431.23 17.45 432.91 17.45C434.59 17.45 435.99 17.8 437.11 18.5C438.253 19.2 439.116 20.1567 439.7 21.37C440.306 22.56 440.633 23.9133 440.68 25.43C440.703 25.78 440.715 26.27 440.715 26.9C440.715 27.53 440.703 28.02 440.68 28.37C440.633 29.8633 440.306 31.2167 439.7 32.43C439.116 33.6433 438.253 34.6 437.11 35.3C435.99 36 434.59 36.35 432.91 36.35ZM432.91 34.32C434.543 34.32 435.873 33.795 436.9 32.745C437.926 31.695 438.475 30.1783 438.545 28.195C438.568 27.845 438.58 27.4133 438.58 26.9C438.58 26.3867 438.568 25.955 438.545 25.605C438.475 23.5983 437.926 22.0817 436.9 21.055C435.873 20.005 434.543 19.48 432.91 19.48C431.276 19.48 429.946 20.005 428.92 21.055C427.893 22.0817 427.345 23.5983 427.275 25.605C427.251 25.955 427.24 26.3867 427.24 26.9C427.24 27.4133 427.251 27.845 427.275 28.195C427.345 30.1783 427.893 31.695 428.92 32.745C429.946 33.795 431.276 34.32 432.91 34.32ZM450.396 36.35C449.276 36.35 448.238 36.1167 447.281 35.65C446.348 35.1833 445.589 34.565 445.006 33.795C444.423 33.0017 444.131 32.115 444.131 31.135C444.131 29.5483 444.773 28.2767 446.056 27.32C447.339 26.3633 449.008 25.745 451.061 25.465L456.591 24.695V23.47C456.591 22.2333 456.206 21.265 455.436 20.565C454.689 19.8417 453.488 19.48 451.831 19.48C450.618 19.48 449.638 19.725 448.891 20.215C448.144 20.6817 447.631 21.3 447.351 22.07C447.234 22.42 447.013 22.595 446.686 22.595H446.126C445.846 22.595 445.648 22.525 445.531 22.385C445.414 22.2217 445.356 22.035 445.356 21.825C445.356 21.4983 445.473 21.09 445.706 20.6C445.963 20.11 446.348 19.6317 446.861 19.165C447.374 18.675 448.039 18.2667 448.856 17.94C449.673 17.6133 450.664 17.45 451.831 17.45C453.208 17.45 454.339 17.6367 455.226 18.01C456.136 18.3833 456.836 18.8733 457.326 19.48C457.839 20.0633 458.201 20.7167 458.411 21.44C458.621 22.1633 458.726 22.875 458.726 23.575V35.23C458.726 35.4633 458.656 35.65 458.516 35.79C458.376 35.93 458.189 36 457.956 36H457.361C457.128 36 456.941 35.93 456.801 35.79C456.661 35.65 456.591 35.4633 456.591 35.23V33.585C456.311 34.005 455.914 34.425 455.401 34.845C454.888 35.265 454.223 35.6267 453.406 35.93C452.613 36.21 451.609 36.35 450.396 36.35ZM450.746 34.32C451.819 34.32 452.799 34.0867 453.686 33.62C454.573 33.1533 455.273 32.4417 455.786 31.485C456.323 30.505 456.591 29.28 456.591 27.81V26.62L452.076 27.25C450.163 27.5067 448.716 27.95 447.736 28.58C446.756 29.21 446.266 30.0033 446.266 30.96C446.266 31.73 446.488 32.36 446.931 32.85C447.374 33.34 447.934 33.7133 448.611 33.97C449.311 34.2033 450.023 34.32 450.746 34.32ZM26.2521 78C25.6221 78 25.0387 77.8483 24.5021 77.545C23.9654 77.2183 23.5337 76.7867 23.2071 76.25C22.9037 75.7133 22.7521 75.13 22.7521 74.5C22.7521 73.8467 22.9037 73.2633 23.2071 72.75C23.5337 72.2133 23.9654 71.7933 24.5021 71.49C25.0387 71.1633 25.6221 71 26.2521 71C26.9054 71 27.4887 71.1633 28.0021 71.49C28.5387 71.7933 28.9587 72.2133 29.2621 72.75C29.5887 73.2633 29.7521 73.8467 29.7521 74.5C29.7521 75.13 29.5887 75.7133 29.2621 76.25C28.9587 76.7867 28.5387 77.2183 28.0021 77.545C27.4887 77.8483 26.9054 78 26.2521 78ZM62.16 85C61.9267 85 61.74 84.93 61.6 84.79C61.46 84.65 61.39 84.4633 61.39 84.23V63.37L55.125 68.2C54.9383 68.34 54.74 68.3983 54.53 68.375C54.3433 68.3517 54.18 68.2467 54.04 68.06L53.655 67.57C53.515 67.3833 53.4567 67.1967 53.48 67.01C53.5033 66.8 53.6083 66.625 53.795 66.485L61.25 60.745C61.4133 60.6283 61.565 60.5583 61.705 60.535C61.845 60.5117 61.9967 60.5 62.16 60.5H62.825C63.0583 60.5 63.245 60.57 63.385 60.71C63.525 60.85 63.595 61.0367 63.595 61.27V84.23C63.595 84.4633 63.525 84.65 63.385 84.79C63.245 84.93 63.0583 85 62.825 85H62.16ZM76.8753 85.35C75.0086 85.35 73.4453 84.9533 72.1853 84.16C70.9253 83.3667 69.9686 82.34 69.3153 81.08C68.6853 79.82 68.3703 78.49 68.3703 77.09C68.3703 76.4133 68.4403 75.7717 68.5803 75.165C68.7436 74.535 68.942 73.9517 69.1753 73.415C69.4086 72.8783 69.642 72.4 69.8753 71.98C70.132 71.5367 70.3653 71.175 70.5753 70.895L77.4703 61.2C77.587 61.0833 77.7153 60.9433 77.8553 60.78C78.0186 60.5933 78.252 60.5 78.5553 60.5H79.2203C79.4303 60.5 79.5936 60.5817 79.7103 60.745C79.8503 60.885 79.9203 61.06 79.9203 61.27C79.9203 61.3633 79.897 61.4567 79.8503 61.55C79.827 61.62 79.792 61.6783 79.7453 61.725L74.4953 69.145C74.822 69.0517 75.207 68.9817 75.6503 68.935C76.0936 68.8883 76.502 68.865 76.8753 68.865C78.2753 68.865 79.5003 69.0983 80.5503 69.565C81.6236 70.0083 82.5103 70.615 83.2103 71.385C83.9336 72.155 84.4703 73.0417 84.8203 74.045C85.1936 75.025 85.3803 76.04 85.3803 77.09C85.3803 78.49 85.0536 79.82 84.4003 81.08C83.7703 82.34 82.8253 83.3667 81.5653 84.16C80.3053 84.9533 78.742 85.35 76.8753 85.35ZM76.8753 83.25C77.972 83.25 78.9986 83.0167 79.9553 82.55C80.912 82.0833 81.682 81.395 82.2653 80.485C82.872 79.5517 83.1753 78.42 83.1753 77.09C83.1753 75.76 82.872 74.64 82.2653 73.73C81.682 72.82 80.912 72.1317 79.9553 71.665C78.9986 71.1983 77.972 70.965 76.8753 70.965C75.7786 70.965 74.752 71.1983 73.7953 71.665C72.8386 72.1317 72.057 72.82 71.4503 73.73C70.867 74.64 70.5753 75.76 70.5753 77.09C70.5753 78.42 70.867 79.5517 71.4503 80.485C72.057 81.395 72.8386 82.0833 73.7953 82.55C74.752 83.0167 75.7786 83.25 76.8753 83.25ZM90.1764 75.515C89.9431 75.515 89.7564 75.445 89.6164 75.305C89.4764 75.165 89.4064 74.9783 89.4064 74.745V74.255C89.4064 74.0217 89.4764 73.835 89.6164 73.695C89.7564 73.555 89.9431 73.485 90.1764 73.485H100.501C100.735 73.485 100.921 73.555 101.061 73.695C101.201 73.835 101.271 74.0217 101.271 74.255V74.745C101.271 74.9783 101.201 75.165 101.061 75.305C100.921 75.445 100.735 75.515 100.501 75.515H90.1764ZM112.097 85C111.863 85 111.677 84.93 111.537 84.79C111.397 84.65 111.327 84.4633 111.327 84.23V63.37L105.062 68.2C104.875 68.34 104.677 68.3983 104.467 68.375C104.28 68.3517 104.117 68.2467 103.977 68.06L103.592 67.57C103.452 67.3833 103.393 67.1967 103.417 67.01C103.44 66.8 103.545 66.625 103.732 66.485L111.187 60.745C111.35 60.6283 111.502 60.5583 111.642 60.535C111.782 60.5117 111.933 60.5 112.097 60.5H112.762C112.995 60.5 113.182 60.57 113.322 60.71C113.462 60.85 113.532 61.0367 113.532 61.27V84.23C113.532 84.4633 113.462 84.65 113.322 84.79C113.182 84.93 112.995 85 112.762 85H112.097ZM127.197 85.35C126.007 85.35 124.875 85.1983 123.802 84.895C122.752 84.5683 121.83 84.1017 121.037 83.495C120.244 82.865 119.614 82.1067 119.147 81.22C118.704 80.31 118.482 79.2717 118.482 78.105C118.482 76.6117 118.844 75.3517 119.567 74.325C120.29 73.275 121.247 72.47 122.437 71.91C121.504 71.3733 120.757 70.6617 120.197 69.775C119.637 68.8883 119.357 67.8267 119.357 66.59C119.357 65.1667 119.707 63.9883 120.407 63.055C121.107 62.0983 122.052 61.375 123.242 60.885C124.432 60.395 125.75 60.15 127.197 60.15C128.644 60.15 129.962 60.395 131.152 60.885C132.342 61.375 133.287 62.0983 133.987 63.055C134.687 63.9883 135.037 65.1667 135.037 66.59C135.037 67.8267 134.757 68.8883 134.197 69.775C133.637 70.6617 132.89 71.3733 131.957 71.91C133.147 72.47 134.104 73.275 134.827 74.325C135.55 75.3517 135.912 76.6117 135.912 78.105C135.912 79.6683 135.515 80.9867 134.722 82.06C133.952 83.1333 132.902 83.95 131.572 84.51C130.265 85.07 128.807 85.35 127.197 85.35ZM127.197 83.25C128.41 83.25 129.507 83.04 130.487 82.62C131.467 82.2 132.249 81.605 132.832 80.835C133.415 80.065 133.707 79.155 133.707 78.105C133.707 77.0317 133.415 76.1217 132.832 75.375C132.249 74.605 131.467 74.0217 130.487 73.625C129.507 73.205 128.41 72.995 127.197 72.995C126.007 72.995 124.91 73.205 123.907 73.625C122.927 74.0217 122.145 74.605 121.562 75.375C120.979 76.1217 120.687 77.0317 120.687 78.105C120.687 79.155 120.979 80.065 121.562 80.835C122.145 81.605 122.927 82.2 123.907 82.62C124.91 83.04 126.007 83.25 127.197 83.25ZM127.197 70.895C128.2 70.8717 129.122 70.685 129.962 70.335C130.825 69.985 131.514 69.495 132.027 68.865C132.564 68.235 132.832 67.4767 132.832 66.59C132.832 65.68 132.575 64.91 132.062 64.28C131.572 63.6267 130.895 63.125 130.032 62.775C129.192 62.425 128.247 62.25 127.197 62.25C126.17 62.25 125.225 62.425 124.362 62.775C123.499 63.125 122.81 63.6267 122.297 64.28C121.807 64.91 121.562 65.68 121.562 66.59C121.562 67.5 121.807 68.2817 122.297 68.935C122.81 69.565 123.499 70.055 124.362 70.405C125.225 70.7317 126.17 70.895 127.197 70.895ZM156.806 85.35C155.126 85.35 153.714 85 152.571 84.3C151.451 83.6 150.588 82.6433 149.981 81.43C149.398 80.2167 149.083 78.8633 149.036 77.37C149.013 77.02 149.001 76.53 149.001 75.9C149.001 75.27 149.013 74.78 149.036 74.43C149.083 72.9133 149.398 71.56 149.981 70.37C150.588 69.1567 151.451 68.2 152.571 67.5C153.714 66.8 155.126 66.45 156.806 66.45C158.486 66.45 159.886 66.8 161.006 67.5C162.149 68.2 163.013 69.1567 163.596 70.37C164.203 71.56 164.529 72.9133 164.576 74.43C164.599 74.78 164.611 75.27 164.611 75.9C164.611 76.53 164.599 77.02 164.576 77.37C164.529 78.8633 164.203 80.2167 163.596 81.43C163.013 82.6433 162.149 83.6 161.006 84.3C159.886 85 158.486 85.35 156.806 85.35ZM156.806 83.32C158.439 83.32 159.769 82.795 160.796 81.745C161.823 80.695 162.371 79.1783 162.441 77.195C162.464 76.845 162.476 76.4133 162.476 75.9C162.476 75.3867 162.464 74.955 162.441 74.605C162.371 72.5983 161.823 71.0817 160.796 70.055C159.769 69.005 158.439 68.48 156.806 68.48C155.173 68.48 153.843 69.005 152.816 70.055C151.789 71.0817 151.241 72.5983 151.171 74.605C151.148 74.955 151.136 75.3867 151.136 75.9C151.136 76.4133 151.148 76.845 151.171 77.195C151.241 79.1783 151.789 80.695 152.816 81.745C153.843 82.795 155.173 83.32 156.806 83.32ZM176.218 85.35C174.631 85.35 173.313 85.0117 172.263 84.335C171.236 83.635 170.466 82.69 169.953 81.5C169.463 80.31 169.218 78.98 169.218 77.51V67.57C169.218 67.3367 169.288 67.15 169.428 67.01C169.568 66.87 169.754 66.8 169.988 66.8H170.583C170.816 66.8 171.003 66.87 171.143 67.01C171.283 67.15 171.353 67.3367 171.353 67.57V77.335C171.353 81.325 173.091 83.32 176.568 83.32C178.224 83.32 179.554 82.795 180.558 81.745C181.561 80.6717 182.063 79.2017 182.063 77.335V67.57C182.063 67.3367 182.133 67.15 182.273 67.01C182.413 66.87 182.599 66.8 182.833 66.8H183.428C183.661 66.8 183.848 66.87 183.988 67.01C184.128 67.15 184.198 67.3367 184.198 67.57V84.23C184.198 84.4633 184.128 84.65 183.988 84.79C183.848 84.93 183.661 85 183.428 85H182.833C182.599 85 182.413 84.93 182.273 84.79C182.133 84.65 182.063 84.4633 182.063 84.23V82.585C181.433 83.4017 180.674 84.0667 179.788 84.58C178.924 85.0933 177.734 85.35 176.218 85.35ZM195.991 85C194.778 85 193.821 84.7433 193.121 84.23C192.421 83.7167 191.931 83.0167 191.651 82.13C191.371 81.2433 191.231 80.2517 191.231 79.155V68.83H188.501C188.268 68.83 188.081 68.76 187.941 68.62C187.801 68.48 187.731 68.2933 187.731 68.06V67.57C187.731 67.3367 187.801 67.15 187.941 67.01C188.081 66.87 188.268 66.8 188.501 66.8H191.231V60.92C191.231 60.6867 191.301 60.5 191.441 60.36C191.581 60.22 191.768 60.15 192.001 60.15H192.596C192.83 60.15 193.016 60.22 193.156 60.36C193.296 60.5 193.366 60.6867 193.366 60.92V66.8H197.706C197.94 66.8 198.126 66.87 198.266 67.01C198.406 67.15 198.476 67.3367 198.476 67.57V68.06C198.476 68.2933 198.406 68.48 198.266 68.62C198.126 68.76 197.94 68.83 197.706 68.83H193.366V79.015C193.366 80.2517 193.565 81.22 193.961 81.92C194.381 82.62 195.116 82.97 196.166 82.97H198.056C198.29 82.97 198.476 83.04 198.616 83.18C198.756 83.32 198.826 83.5067 198.826 83.74V84.23C198.826 84.4633 198.756 84.65 198.616 84.79C198.476 84.93 198.29 85 198.056 85H195.991ZM209.269 85.35C207.683 85.35 206.364 85.0117 205.314 84.335C204.288 83.635 203.518 82.69 203.004 81.5C202.514 80.31 202.269 78.98 202.269 77.51V67.57C202.269 67.3367 202.339 67.15 202.479 67.01C202.619 66.87 202.806 66.8 203.039 66.8H203.634C203.868 66.8 204.054 66.87 204.194 67.01C204.334 67.15 204.404 67.3367 204.404 67.57V77.335C204.404 81.325 206.143 83.32 209.619 83.32C211.276 83.32 212.606 82.795 213.609 81.745C214.613 80.6717 215.114 79.2017 215.114 77.335V67.57C215.114 67.3367 215.184 67.15 215.324 67.01C215.464 66.87 215.651 66.8 215.884 66.8H216.479C216.713 66.8 216.899 66.87 217.039 67.01C217.179 67.15 217.249 67.3367 217.249 67.57V84.23C217.249 84.4633 217.179 84.65 217.039 84.79C216.899 84.93 216.713 85 216.479 85H215.884C215.651 85 215.464 84.93 215.324 84.79C215.184 84.65 215.114 84.4633 215.114 84.23V82.585C214.484 83.4017 213.726 84.0667 212.839 84.58C211.976 85.0933 210.786 85.35 209.269 85.35ZM230.968 85.35C229.521 85.35 228.32 85.0933 227.363 84.58C226.43 84.0433 225.671 83.3783 225.088 82.585V84.23C225.088 84.4633 225.018 84.65 224.878 84.79C224.738 84.93 224.551 85 224.318 85H223.723C223.49 85 223.303 84.93 223.163 84.79C223.023 84.65 222.953 84.4633 222.953 84.23V60.92C222.953 60.6867 223.023 60.5 223.163 60.36C223.303 60.22 223.49 60.15 223.723 60.15H224.318C224.551 60.15 224.738 60.22 224.878 60.36C225.018 60.5 225.088 60.6867 225.088 60.92V69.215C225.671 68.445 226.43 67.7917 227.363 67.255C228.32 66.7183 229.521 66.45 230.968 66.45C232.345 66.45 233.5 66.695 234.433 67.185C235.366 67.675 236.125 68.3283 236.708 69.145C237.291 69.9617 237.723 70.8717 238.003 71.875C238.283 72.8783 238.435 73.8933 238.458 74.92C238.481 75.27 238.493 75.5967 238.493 75.9C238.493 76.2033 238.481 76.53 238.458 76.88C238.435 77.9067 238.283 78.9217 238.003 79.925C237.723 80.9283 237.291 81.8383 236.708 82.655C236.125 83.4717 235.366 84.125 234.433 84.615C233.5 85.105 232.345 85.35 230.968 85.35ZM230.758 83.32C232.135 83.32 233.22 83.0167 234.013 82.41C234.806 81.8033 235.378 81.01 235.728 80.03C236.078 79.05 236.276 78 236.323 76.88C236.346 76.2267 236.346 75.5733 236.323 74.92C236.276 73.8 236.078 72.75 235.728 71.77C235.378 70.79 234.806 69.9967 234.013 69.39C233.22 68.7833 232.135 68.48 230.758 68.48C229.475 68.48 228.413 68.7833 227.573 69.39C226.756 69.9967 226.138 70.755 225.718 71.665C225.321 72.575 225.111 73.4967 225.088 74.43C225.065 74.78 225.053 75.235 225.053 75.795C225.053 76.355 225.065 76.81 225.088 77.16C225.135 78.1167 225.345 79.0733 225.718 80.03C226.115 80.9633 226.721 81.745 227.538 82.375C228.355 83.005 229.428 83.32 230.758 83.32ZM243.991 85C243.757 85 243.571 84.93 243.431 84.79C243.291 84.65 243.221 84.4633 243.221 84.23V67.605C243.221 67.3717 243.291 67.185 243.431 67.045C243.571 66.8817 243.757 66.8 243.991 66.8H244.551C244.784 66.8 244.971 66.8817 245.111 67.045C245.274 67.185 245.356 67.3717 245.356 67.605V69.215C245.776 68.3983 246.382 67.7917 247.176 67.395C247.969 66.9983 248.949 66.8 250.116 66.8H251.411C251.644 66.8 251.831 66.87 251.971 67.01C252.111 67.15 252.181 67.3367 252.181 67.57V68.06C252.181 68.2933 252.111 68.48 251.971 68.62C251.831 68.76 251.644 68.83 251.411 68.83H249.906C248.506 68.83 247.397 69.2383 246.581 70.055C245.764 70.8717 245.356 71.98 245.356 73.38V84.23C245.356 84.4633 245.274 84.65 245.111 84.79C244.971 84.93 244.784 85 244.551 85H243.991ZM261.909 85.35C260.229 85.35 258.817 85 257.674 84.3C256.554 83.6 255.69 82.6433 255.084 81.43C254.5 80.2167 254.185 78.8633 254.139 77.37C254.115 77.02 254.104 76.53 254.104 75.9C254.104 75.27 254.115 74.78 254.139 74.43C254.185 72.9133 254.5 71.56 255.084 70.37C255.69 69.1567 256.554 68.2 257.674 67.5C258.817 66.8 260.229 66.45 261.909 66.45C263.589 66.45 264.989 66.8 266.109 67.5C267.252 68.2 268.115 69.1567 268.699 70.37C269.305 71.56 269.632 72.9133 269.679 74.43C269.702 74.78 269.714 75.27 269.714 75.9C269.714 76.53 269.702 77.02 269.679 77.37C269.632 78.8633 269.305 80.2167 268.699 81.43C268.115 82.6433 267.252 83.6 266.109 84.3C264.989 85 263.589 85.35 261.909 85.35ZM261.909 83.32C263.542 83.32 264.872 82.795 265.899 81.745C266.925 80.695 267.474 79.1783 267.544 77.195C267.567 76.845 267.579 76.4133 267.579 75.9C267.579 75.3867 267.567 74.955 267.544 74.605C267.474 72.5983 266.925 71.0817 265.899 70.055C264.872 69.005 263.542 68.48 261.909 68.48C260.275 68.48 258.945 69.005 257.919 70.055C256.892 71.0817 256.344 72.5983 256.274 74.605C256.25 74.955 256.239 75.3867 256.239 75.9C256.239 76.4133 256.25 76.845 256.274 77.195C256.344 79.1783 256.892 80.695 257.919 81.745C258.945 82.795 260.275 83.32 261.909 83.32ZM283.274 85C283.04 85 282.854 84.93 282.714 84.79C282.574 84.65 282.504 84.4633 282.504 84.23V83.705C282.504 83.4717 282.562 83.25 282.679 83.04C282.819 82.8067 283.052 82.5383 283.379 82.235L292.444 73.17C293.33 72.3533 294.007 71.6417 294.474 71.035C294.94 70.4283 295.255 69.8333 295.419 69.25C295.605 68.6433 295.699 67.9783 295.699 67.255C295.699 65.6917 295.244 64.4667 294.334 63.58C293.447 62.6933 292.175 62.25 290.519 62.25C289.469 62.25 288.559 62.46 287.789 62.88C287.019 63.3 286.412 63.895 285.969 64.665C285.525 65.4117 285.234 66.2867 285.094 67.29C285.07 67.57 284.965 67.78 284.779 67.92C284.592 68.0367 284.429 68.095 284.289 68.095H283.589C283.355 68.095 283.169 68.0367 283.029 67.92C282.912 67.78 282.854 67.6167 282.854 67.43C282.877 66.6367 283.04 65.82 283.344 64.98C283.647 64.1167 284.102 63.3233 284.709 62.6C285.339 61.8767 286.132 61.2933 287.089 60.85C288.045 60.3833 289.189 60.15 290.519 60.15C292.292 60.15 293.715 60.4883 294.789 61.165C295.885 61.8417 296.679 62.7167 297.169 63.79C297.659 64.8633 297.904 66.0183 297.904 67.255C297.904 68.2117 297.764 69.0983 297.484 69.915C297.204 70.7083 296.784 71.49 296.224 72.26C295.664 73.0067 294.952 73.7767 294.089 74.57L285.899 82.9H297.624C297.88 82.9 298.079 82.97 298.219 83.11C298.359 83.25 298.429 83.4483 298.429 83.705V84.23C298.429 84.4633 298.359 84.65 298.219 84.79C298.079 84.93 297.88 85 297.624 85H283.274ZM311.049 85.35C309.462 85.35 308.132 85.0933 307.059 84.58C306.009 84.0667 305.157 83.3667 304.504 82.48C303.874 81.57 303.419 80.5317 303.139 79.365C302.859 78.1983 302.695 76.9733 302.649 75.69C302.649 75.06 302.637 74.4183 302.614 73.765C302.614 73.1117 302.614 72.4583 302.614 71.805C302.637 71.1283 302.649 70.4633 302.649 69.81C302.672 68.5267 302.824 67.3017 303.104 66.135C303.407 64.9683 303.874 63.9417 304.504 63.055C305.157 62.145 306.009 61.4333 307.059 60.92C308.132 60.4067 309.462 60.15 311.049 60.15C312.635 60.15 313.954 60.4067 315.004 60.92C316.077 61.4333 316.929 62.145 317.559 63.055C318.212 63.9417 318.679 64.9683 318.959 66.135C319.262 67.3017 319.425 68.5267 319.449 69.81C319.472 70.4633 319.484 71.1283 319.484 71.805C319.484 72.4583 319.484 73.1117 319.484 73.765C319.484 74.4183 319.472 75.06 319.449 75.69C319.425 76.9733 319.262 78.1983 318.959 79.365C318.679 80.5317 318.212 81.57 317.559 82.48C316.929 83.3667 316.077 84.0667 315.004 84.58C313.954 85.0933 312.635 85.35 311.049 85.35ZM311.049 83.25C313.125 83.25 314.665 82.5617 315.669 81.185C316.672 79.8083 317.197 77.9183 317.244 75.515C317.267 74.8383 317.279 74.2083 317.279 73.625C317.279 73.0183 317.279 72.4233 317.279 71.84C317.279 71.2333 317.267 70.615 317.244 69.985C317.197 67.6283 316.672 65.75 315.669 64.35C314.665 62.95 313.125 62.25 311.049 62.25C308.995 62.25 307.455 62.95 306.429 64.35C305.425 65.75 304.9 67.6283 304.854 69.985C304.854 70.615 304.842 71.2333 304.819 71.84C304.819 72.4233 304.819 73.0183 304.819 73.625C304.842 74.2083 304.854 74.8383 304.854 75.515C304.9 77.9183 305.425 79.8083 306.429 81.185C307.455 82.5617 308.995 83.25 311.049 83.25ZM324.426 85C324.193 85 324.006 84.93 323.866 84.79C323.726 84.65 323.656 84.4633 323.656 84.23V83.705C323.656 83.4717 323.714 83.25 323.831 83.04C323.971 82.8067 324.204 82.5383 324.531 82.235L333.596 73.17C334.483 72.3533 335.159 71.6417 335.626 71.035C336.093 70.4283 336.408 69.8333 336.571 69.25C336.758 68.6433 336.851 67.9783 336.851 67.255C336.851 65.6917 336.396 64.4667 335.486 63.58C334.599 62.6933 333.328 62.25 331.671 62.25C330.621 62.25 329.711 62.46 328.941 62.88C328.171 63.3 327.564 63.895 327.121 64.665C326.678 65.4117 326.386 66.2867 326.246 67.29C326.223 67.57 326.118 67.78 325.931 67.92C325.744 68.0367 325.581 68.095 325.441 68.095H324.741C324.508 68.095 324.321 68.0367 324.181 67.92C324.064 67.78 324.006 67.6167 324.006 67.43C324.029 66.6367 324.193 65.82 324.496 64.98C324.799 64.1167 325.254 63.3233 325.861 62.6C326.491 61.8767 327.284 61.2933 328.241 60.85C329.198 60.3833 330.341 60.15 331.671 60.15C333.444 60.15 334.868 60.4883 335.941 61.165C337.038 61.8417 337.831 62.7167 338.321 63.79C338.811 64.8633 339.056 66.0183 339.056 67.255C339.056 68.2117 338.916 69.0983 338.636 69.915C338.356 70.7083 337.936 71.49 337.376 72.26C336.816 73.0067 336.104 73.7767 335.241 74.57L327.051 82.9H338.776C339.033 82.9 339.231 82.97 339.371 83.11C339.511 83.25 339.581 83.4483 339.581 83.705V84.23C339.581 84.4633 339.511 84.65 339.371 84.79C339.231 84.93 339.033 85 338.776 85H324.426ZM351.851 85.35C349.984 85.35 348.421 84.9533 347.161 84.16C345.901 83.3667 344.944 82.34 344.291 81.08C343.661 79.82 343.346 78.49 343.346 77.09C343.346 76.4133 343.416 75.7717 343.556 75.165C343.719 74.535 343.918 73.9517 344.151 73.415C344.384 72.8783 344.618 72.4 344.851 71.98C345.108 71.5367 345.341 71.175 345.551 70.895L352.446 61.2C352.563 61.0833 352.691 60.9433 352.831 60.78C352.994 60.5933 353.228 60.5 353.531 60.5H354.196C354.406 60.5 354.569 60.5817 354.686 60.745C354.826 60.885 354.896 61.06 354.896 61.27C354.896 61.3633 354.873 61.4567 354.826 61.55C354.803 61.62 354.768 61.6783 354.721 61.725L349.471 69.145C349.798 69.0517 350.183 68.9817 350.626 68.935C351.069 68.8883 351.478 68.865 351.851 68.865C353.251 68.865 354.476 69.0983 355.526 69.565C356.599 70.0083 357.486 70.615 358.186 71.385C358.909 72.155 359.446 73.0417 359.796 74.045C360.169 75.025 360.356 76.04 360.356 77.09C360.356 78.49 360.029 79.82 359.376 81.08C358.746 82.34 357.801 83.3667 356.541 84.16C355.281 84.9533 353.718 85.35 351.851 85.35ZM351.851 83.25C352.948 83.25 353.974 83.0167 354.931 82.55C355.888 82.0833 356.658 81.395 357.241 80.485C357.848 79.5517 358.151 78.42 358.151 77.09C358.151 75.76 357.848 74.64 357.241 73.73C356.658 72.82 355.888 72.1317 354.931 71.665C353.974 71.1983 352.948 70.965 351.851 70.965C350.754 70.965 349.728 71.1983 348.771 71.665C347.814 72.1317 347.033 72.82 346.426 73.73C345.843 74.64 345.551 75.76 345.551 77.09C345.551 78.42 345.843 79.5517 346.426 80.485C347.033 81.395 347.814 82.0833 348.771 82.55C349.728 83.0167 350.754 83.25 351.851 83.25ZM374.175 75.515C373.942 75.515 373.755 75.445 373.615 75.305C373.475 75.165 373.405 74.9783 373.405 74.745V74.255C373.405 74.0217 373.475 73.835 373.615 73.695C373.755 73.555 373.942 73.485 374.175 73.485H384.5C384.734 73.485 384.92 73.555 385.06 73.695C385.2 73.835 385.27 74.0217 385.27 74.255V74.745C385.27 74.9783 385.2 75.165 385.06 75.305C384.92 75.445 384.734 75.515 384.5 75.515H374.175ZM400.955 85C400.721 85 400.535 84.93 400.395 84.79C400.255 84.65 400.185 84.4633 400.185 84.23V61.305C400.185 61.0483 400.255 60.85 400.395 60.71C400.535 60.57 400.721 60.5 400.955 60.5H414.465C414.721 60.5 414.92 60.57 415.06 60.71C415.2 60.85 415.27 61.0483 415.27 61.305V61.83C415.27 62.0633 415.2 62.25 415.06 62.39C414.92 62.53 414.721 62.6 414.465 62.6H402.39V72.015H413.765C414.021 72.015 414.22 72.085 414.36 72.225C414.5 72.365 414.57 72.5633 414.57 72.82V73.345C414.57 73.5783 414.5 73.765 414.36 73.905C414.22 74.045 414.021 74.115 413.765 74.115H402.39V84.23C402.39 84.4633 402.32 84.65 402.18 84.79C402.04 84.93 401.841 85 401.585 85H400.955ZM423.463 85.35C422.343 85.35 421.304 85.1167 420.348 84.65C419.414 84.1833 418.656 83.565 418.073 82.795C417.489 82.0017 417.198 81.115 417.198 80.135C417.198 78.5483 417.839 77.2767 419.123 76.32C420.406 75.3633 422.074 74.745 424.128 74.465L429.658 73.695V72.47C429.658 71.2333 429.273 70.265 428.503 69.565C427.756 68.8417 426.554 68.48 424.898 68.48C423.684 68.48 422.704 68.725 421.958 69.215C421.211 69.6817 420.698 70.3 420.418 71.07C420.301 71.42 420.079 71.595 419.753 71.595H419.193C418.913 71.595 418.714 71.525 418.598 71.385C418.481 71.2217 418.423 71.035 418.423 70.825C418.423 70.4983 418.539 70.09 418.773 69.6C419.029 69.11 419.414 68.6317 419.928 68.165C420.441 67.675 421.106 67.2667 421.923 66.94C422.739 66.6133 423.731 66.45 424.898 66.45C426.274 66.45 427.406 66.6367 428.293 67.01C429.203 67.3833 429.903 67.8733 430.393 68.48C430.906 69.0633 431.268 69.7167 431.478 70.44C431.688 71.1633 431.793 71.875 431.793 72.575V84.23C431.793 84.4633 431.723 84.65 431.583 84.79C431.443 84.93 431.256 85 431.023 85H430.428C430.194 85 430.008 84.93 429.868 84.79C429.728 84.65 429.658 84.4633 429.658 84.23V82.585C429.378 83.005 428.981 83.425 428.468 83.845C427.954 84.265 427.289 84.6267 426.473 84.93C425.679 85.21 424.676 85.35 423.463 85.35ZM423.813 83.32C424.886 83.32 425.866 83.0867 426.753 82.62C427.639 82.1533 428.339 81.4417 428.853 80.485C429.389 79.505 429.658 78.28 429.658 76.81V75.62L425.143 76.25C423.229 76.5067 421.783 76.95 420.803 77.58C419.823 78.21 419.333 79.0033 419.333 79.96C419.333 80.73 419.554 81.36 419.998 81.85C420.441 82.34 421.001 82.7133 421.678 82.97C422.378 83.2033 423.089 83.32 423.813 83.32ZM424.513 64.175C424.139 64.175 423.953 63.9883 423.953 63.615C423.953 63.4283 424.011 63.2767 424.128 63.16L426.543 60.255C426.729 60.0217 426.904 59.8583 427.068 59.765C427.231 59.6717 427.488 59.625 427.838 59.625H429.273C429.716 59.625 429.938 59.8467 429.938 60.29C429.938 60.4533 429.879 60.5933 429.763 60.71L425.948 63.825C425.761 63.9883 425.586 64.0933 425.423 64.14C425.283 64.1633 425.096 64.175 424.863 64.175H424.513ZM443.281 85C442.068 85 441.111 84.7433 440.411 84.23C439.711 83.7167 439.221 83.0167 438.941 82.13C438.661 81.2433 438.521 80.2517 438.521 79.155V68.83H435.791C435.558 68.83 435.371 68.76 435.231 68.62C435.091 68.48 435.021 68.2933 435.021 68.06V67.57C435.021 67.3367 435.091 67.15 435.231 67.01C435.371 66.87 435.558 66.8 435.791 66.8H438.521V60.92C438.521 60.6867 438.591 60.5 438.731 60.36C438.871 60.22 439.058 60.15 439.291 60.15H439.886C440.12 60.15 440.306 60.22 440.446 60.36C440.586 60.5 440.656 60.6867 440.656 60.92V66.8H444.996C445.23 66.8 445.416 66.87 445.556 67.01C445.696 67.15 445.766 67.3367 445.766 67.57V68.06C445.766 68.2933 445.696 68.48 445.556 68.62C445.416 68.76 445.23 68.83 444.996 68.83H440.656V79.015C440.656 80.2517 440.855 81.22 441.251 81.92C441.671 82.62 442.406 82.97 443.456 82.97H445.346C445.58 82.97 445.766 83.04 445.906 83.18C446.046 83.32 446.116 83.5067 446.116 83.74V84.23C446.116 84.4633 446.046 84.65 445.906 84.79C445.766 84.93 445.58 85 445.346 85H443.281ZM450.504 85C450.271 85 450.084 84.93 449.944 84.79C449.804 84.65 449.734 84.4633 449.734 84.23V67.57C449.734 67.3367 449.804 67.15 449.944 67.01C450.084 66.87 450.271 66.8 450.504 66.8H451.099C451.333 66.8 451.519 66.87 451.659 67.01C451.799 67.15 451.869 67.3367 451.869 67.57V84.23C451.869 84.4633 451.799 84.65 451.659 84.79C451.519 84.93 451.333 85 451.099 85H450.504ZM450.119 63.055C449.886 63.055 449.699 62.985 449.559 62.845C449.419 62.705 449.349 62.5183 449.349 62.285V60.955C449.349 60.7217 449.419 60.535 449.559 60.395C449.699 60.2317 449.886 60.15 450.119 60.15H451.449C451.683 60.15 451.869 60.2317 452.009 60.395C452.173 60.535 452.254 60.7217 452.254 60.955V62.285C452.254 62.5183 452.173 62.705 452.009 62.845C451.869 62.985 451.683 63.055 451.449 63.055H450.119ZM458.297 85C458.064 85 457.877 84.93 457.737 84.79C457.597 84.65 457.527 84.4633 457.527 84.23V67.57C457.527 67.3367 457.597 67.15 457.737 67.01C457.877 66.87 458.064 66.8 458.297 66.8H458.892C459.126 66.8 459.312 66.87 459.452 67.01C459.592 67.15 459.662 67.3367 459.662 67.57V68.795C460.246 68.0483 460.934 67.4767 461.727 67.08C462.544 66.66 463.524 66.45 464.667 66.45C467.281 66.45 469.147 67.5467 470.267 69.74C470.804 68.7367 471.586 67.9433 472.612 67.36C473.662 66.7533 474.864 66.45 476.217 66.45C477.454 66.45 478.562 66.7417 479.542 67.325C480.546 67.885 481.327 68.725 481.887 69.845C482.471 70.965 482.762 72.365 482.762 74.045V84.23C482.762 84.4633 482.692 84.65 482.552 84.79C482.412 84.93 482.226 85 481.992 85H481.397C481.164 85 480.977 84.93 480.837 84.79C480.697 84.65 480.627 84.4633 480.627 84.23V74.395C480.627 72.855 480.406 71.665 479.962 70.825C479.519 69.9617 478.936 69.355 478.212 69.005C477.489 68.655 476.707 68.48 475.867 68.48C475.167 68.48 474.456 68.655 473.732 69.005C473.009 69.355 472.402 69.9617 471.912 70.825C471.446 71.665 471.212 72.855 471.212 74.395V84.23C471.212 84.4633 471.142 84.65 471.002 84.79C470.862 84.93 470.676 85 470.442 85H469.847C469.614 85 469.427 84.93 469.287 84.79C469.147 84.65 469.077 84.4633 469.077 84.23V74.395C469.077 72.855 468.844 71.665 468.377 70.825C467.911 69.9617 467.316 69.355 466.592 69.005C465.869 68.655 465.111 68.48 464.317 68.48C463.617 68.48 462.906 68.655 462.182 69.005C461.459 69.355 460.852 69.9617 460.362 70.825C459.896 71.665 459.662 72.8433 459.662 74.36V84.23C459.662 84.4633 459.592 84.65 459.452 84.79C459.312 84.93 459.126 85 458.892 85H458.297ZM493.155 85.35C492.035 85.35 490.997 85.1167 490.04 84.65C489.107 84.1833 488.348 83.565 487.765 82.795C487.182 82.0017 486.89 81.115 486.89 80.135C486.89 78.5483 487.532 77.2767 488.815 76.32C490.098 75.3633 491.767 74.745 493.82 74.465L499.35 73.695V72.47C499.35 71.2333 498.965 70.265 498.195 69.565C497.448 68.8417 496.247 68.48 494.59 68.48C493.377 68.48 492.397 68.725 491.65 69.215C490.903 69.6817 490.39 70.3 490.11 71.07C489.993 71.42 489.772 71.595 489.445 71.595H488.885C488.605 71.595 488.407 71.525 488.29 71.385C488.173 71.2217 488.115 71.035 488.115 70.825C488.115 70.4983 488.232 70.09 488.465 69.6C488.722 69.11 489.107 68.6317 489.62 68.165C490.133 67.675 490.798 67.2667 491.615 66.94C492.432 66.6133 493.423 66.45 494.59 66.45C495.967 66.45 497.098 66.6367 497.985 67.01C498.895 67.3833 499.595 67.8733 500.085 68.48C500.598 69.0633 500.96 69.7167 501.17 70.44C501.38 71.1633 501.485 71.875 501.485 72.575V84.23C501.485 84.4633 501.415 84.65 501.275 84.79C501.135 84.93 500.948 85 500.715 85H500.12C499.887 85 499.7 84.93 499.56 84.79C499.42 84.65 499.35 84.4633 499.35 84.23V82.585C499.07 83.005 498.673 83.425 498.16 83.845C497.647 84.265 496.982 84.6267 496.165 84.93C495.372 85.21 494.368 85.35 493.155 85.35ZM493.505 83.32C494.578 83.32 495.558 83.0867 496.445 82.62C497.332 82.1533 498.032 81.4417 498.545 80.485C499.082 79.505 499.35 78.28 499.35 76.81V75.62L494.835 76.25C492.922 76.5067 491.475 76.95 490.495 77.58C489.515 78.21 489.025 79.0033 489.025 79.96C489.025 80.73 489.247 81.36 489.69 81.85C490.133 82.34 490.693 82.7133 491.37 82.97C492.07 83.2033 492.782 83.32 493.505 83.32Z" fill="black"/>
</svg>
