<svg width="1005" height="51" viewBox="0 0 1005 51" fill="none" xmlns="http://www.w3.org/2000/svg">
<path d="M12.5732 11.0352C15.9098 11.0352 18.571 12.1826 20.5566 14.4775C22.5423 16.7725 23.5352 20.223 23.5352 24.8291C23.5352 27.8727 23.0794 30.4281 22.168 32.4951C21.2565 34.5622 19.9707 36.1247 18.3105 37.1826C16.6667 38.2406 14.7217 38.7695 12.4756 38.7695C11.0596 38.7695 9.81445 38.5824 8.74023 38.208C7.66602 37.8337 6.74642 37.3291 5.98145 36.6943C5.21647 36.0596 4.58171 35.3678 4.07715 34.6191H3.78418C3.83301 35.2539 3.88997 36.0189 3.95508 36.9141C4.03646 37.8092 4.07715 38.5905 4.07715 39.2578V50.2441H0V11.5234H3.34473L3.88184 15.4785H4.07715C4.59798 14.6647 5.23275 13.9242 5.98145 13.2568C6.73014 12.5732 7.6416 12.0361 8.71582 11.6455C9.80632 11.2386 11.0921 11.0352 12.5732 11.0352ZM11.8652 14.4531C10.0098 14.4531 8.51237 14.8112 7.37305 15.5273C6.25 16.2435 5.42806 17.3177 4.90723 18.75C4.38639 20.166 4.1097 21.9482 4.07715 24.0967V24.8779C4.07715 27.1403 4.32129 29.0527 4.80957 30.6152C5.31413 32.1777 6.13607 33.3659 7.27539 34.1797C8.43099 34.9935 9.97721 35.4004 11.9141 35.4004C13.5742 35.4004 14.9577 34.9528 16.0645 34.0576C17.1712 33.1624 17.9932 31.9173 18.5303 30.3223C19.0837 28.7109 19.3604 26.8636 19.3604 24.7803C19.3604 21.6227 18.7419 19.1162 17.5049 17.2607C16.2842 15.389 14.4043 14.4531 11.8652 14.4531ZM40.625 11.084C43.8151 11.084 46.1833 11.8001 47.7295 13.2324C49.2757 14.6647 50.0488 16.9515 50.0488 20.0928V38.2812H47.0947L46.3135 34.3262H46.1182C45.3695 35.3027 44.5882 36.1247 43.7744 36.792C42.9606 37.443 42.0166 37.9395 40.9424 38.2812C39.8844 38.6068 38.5824 38.7695 37.0361 38.7695C35.4085 38.7695 33.96 38.4847 32.6904 37.915C31.4372 37.3454 30.4443 36.4827 29.7119 35.3271C28.9958 34.1715 28.6377 32.7067 28.6377 30.9326C28.6377 28.2633 29.6956 26.2126 31.8115 24.7803C33.9274 23.348 37.1501 22.5667 41.4795 22.4365L46.0938 22.2412V20.6055C46.0938 18.2943 45.5973 16.6748 44.6045 15.7471C43.6117 14.8193 42.2119 14.3555 40.4053 14.3555C39.0055 14.3555 37.6709 14.5589 36.4014 14.9658C35.1318 15.3727 33.9274 15.8529 32.7881 16.4062L31.543 13.3301C32.7474 12.7116 34.1309 12.1826 35.6934 11.7432C37.2559 11.3037 38.8997 11.084 40.625 11.084ZM46.0449 25.0977L41.9678 25.2686C38.6312 25.3988 36.2793 25.944 34.9121 26.9043C33.5449 27.8646 32.8613 29.2236 32.8613 30.9814C32.8613 32.5114 33.3252 33.6426 34.2529 34.375C35.1807 35.1074 36.4095 35.4736 37.9395 35.4736C40.3158 35.4736 42.2607 34.8145 43.7744 33.4961C45.2881 32.1777 46.0449 30.2002 46.0449 27.5635V25.0977ZM70.5566 11.0352C71.0938 11.0352 71.6553 11.0677 72.2412 11.1328C72.8271 11.1816 73.348 11.2549 73.8037 11.3525L73.291 15.1123C72.8516 14.9984 72.3633 14.9089 71.8262 14.8438C71.2891 14.7786 70.7845 14.7461 70.3125 14.7461C69.2383 14.7461 68.221 14.9658 67.2607 15.4053C66.3167 15.8285 65.4867 16.4469 64.7705 17.2607C64.0544 18.0583 63.4928 19.0267 63.0859 20.166C62.679 21.2891 62.4756 22.5423 62.4756 23.9258V38.2812H58.3984V11.5234H61.7676L62.207 16.4551H62.3779C62.9313 15.4622 63.5986 14.5589 64.3799 13.7451C65.1611 12.915 66.0645 12.2559 67.0898 11.7676C68.1315 11.2793 69.2871 11.0352 70.5566 11.0352ZM88.8672 11.084C92.0573 11.084 94.4255 11.8001 95.9717 13.2324C97.5179 14.6647 98.291 16.9515 98.291 20.0928V38.2812H95.3369L94.5557 34.3262H94.3604C93.6117 35.3027 92.8304 36.1247 92.0166 36.792C91.2028 37.443 90.2588 37.9395 89.1846 38.2812C88.1266 38.6068 86.8245 38.7695 85.2783 38.7695C83.6507 38.7695 82.2021 38.4847 80.9326 37.915C79.6794 37.3454 78.6865 36.4827 77.9541 35.3271C77.238 34.1715 76.8799 32.7067 76.8799 30.9326C76.8799 28.2633 77.9378 26.2126 80.0537 24.7803C82.1696 23.348 85.3923 22.5667 89.7217 22.4365L94.3359 22.2412V20.6055C94.3359 18.2943 93.8395 16.6748 92.8467 15.7471C91.8538 14.8193 90.4541 14.3555 88.6475 14.3555C87.2477 14.3555 85.9131 14.5589 84.6436 14.9658C83.374 15.3727 82.1696 15.8529 81.0303 16.4062L79.7852 13.3301C80.9896 12.7116 82.373 12.1826 83.9355 11.7432C85.498 11.3037 87.1419 11.084 88.8672 11.084ZM94.2871 25.0977L90.21 25.2686C86.8734 25.3988 84.5215 25.944 83.1543 26.9043C81.7871 27.8646 81.1035 29.2236 81.1035 30.9814C81.1035 32.5114 81.5674 33.6426 82.4951 34.375C83.4229 35.1074 84.6517 35.4736 86.1816 35.4736C88.5579 35.4736 90.5029 34.8145 92.0166 33.4961C93.5303 32.1777 94.2871 30.2002 94.2871 27.5635V25.0977ZM129.15 38.7695C125.765 38.7695 123.079 37.6139 121.094 35.3027C119.124 32.9915 118.14 29.5573 118.14 25C118.14 20.3939 119.149 16.9189 121.167 14.5752C123.185 12.2152 125.871 11.0352 129.224 11.0352C130.64 11.0352 131.877 11.2223 132.935 11.5967C133.993 11.971 134.904 12.4756 135.669 13.1104C136.434 13.7288 137.077 14.4368 137.598 15.2344H137.891C137.826 14.7298 137.76 14.0381 137.695 13.1592C137.63 12.2803 137.598 11.5641 137.598 11.0107V0.292969H141.65V38.2812H138.379L137.769 34.4727H137.598C137.093 35.2702 136.45 35.9945 135.669 36.6455C134.904 37.2965 133.984 37.8174 132.91 38.208C131.852 38.5824 130.599 38.7695 129.15 38.7695ZM129.785 35.4004C132.65 35.4004 134.676 34.5866 135.864 32.959C137.052 31.3314 137.646 28.9144 137.646 25.708V24.9756C137.646 21.5739 137.077 18.9616 135.938 17.1387C134.814 15.3158 132.764 14.4043 129.785 14.4043C127.295 14.4043 125.431 15.3646 124.194 17.2852C122.957 19.1895 122.339 21.7936 122.339 25.0977C122.339 28.3854 122.949 30.9245 124.17 32.7148C125.407 34.5052 127.279 35.4004 129.785 35.4004ZM160.547 11.0352C162.826 11.0352 164.779 11.5397 166.406 12.5488C168.034 13.5579 169.279 14.974 170.142 16.7969C171.004 18.6035 171.436 20.7194 171.436 23.1445V25.6592H152.954C153.003 28.8005 153.784 31.193 155.298 32.8369C156.812 34.4808 158.944 35.3027 161.694 35.3027C163.387 35.3027 164.884 35.1481 166.187 34.8389C167.489 34.5296 168.84 34.0739 170.239 33.4717V37.0361C168.888 37.6383 167.546 38.0778 166.211 38.3545C164.893 38.6312 163.33 38.7695 161.523 38.7695C158.952 38.7695 156.706 38.2487 154.785 37.207C152.881 36.1491 151.4 34.6029 150.342 32.5684C149.284 30.5339 148.755 28.0436 148.755 25.0977C148.755 22.2168 149.235 19.7266 150.195 17.627C151.172 15.5111 152.539 13.8835 154.297 12.7441C156.071 11.6048 158.154 11.0352 160.547 11.0352ZM160.498 14.3555C158.333 14.3555 156.608 15.0635 155.322 16.4795C154.036 17.8955 153.271 19.873 153.027 22.4121H167.188C167.171 20.8171 166.919 19.4173 166.431 18.2129C165.959 16.9922 165.234 16.0482 164.258 15.3809C163.281 14.6973 162.028 14.3555 160.498 14.3555ZM195.63 30.957C195.63 32.666 195.199 34.1064 194.336 35.2783C193.49 36.4339 192.269 37.3047 190.674 37.8906C189.095 38.4766 187.207 38.7695 185.01 38.7695C183.138 38.7695 181.519 38.623 180.151 38.3301C178.784 38.0371 177.588 37.6221 176.562 37.085V33.3496C177.653 33.8867 178.955 34.375 180.469 34.8145C181.982 35.2539 183.529 35.4736 185.107 35.4736C187.419 35.4736 189.095 35.0993 190.137 34.3506C191.178 33.6019 191.699 32.5846 191.699 31.2988C191.699 30.5664 191.488 29.9235 191.064 29.3701C190.658 28.8005 189.966 28.2552 188.989 27.7344C188.013 27.1973 186.662 26.6113 184.937 25.9766C183.228 25.3255 181.746 24.6826 180.493 24.0479C179.256 23.3968 178.296 22.6074 177.612 21.6797C176.945 20.752 176.611 19.5475 176.611 18.0664C176.611 15.804 177.523 14.0706 179.346 12.8662C181.185 11.6455 183.594 11.0352 186.572 11.0352C188.184 11.0352 189.689 11.1979 191.089 11.5234C192.505 11.8327 193.823 12.2559 195.044 12.793L193.677 16.04C192.57 15.568 191.39 15.1693 190.137 14.8438C188.883 14.5182 187.606 14.3555 186.304 14.3555C184.432 14.3555 182.992 14.6647 181.982 15.2832C180.99 15.9017 180.493 16.748 180.493 17.8223C180.493 18.6523 180.721 19.3359 181.177 19.873C181.649 20.4102 182.397 20.9147 183.423 21.3867C184.448 21.8587 185.799 22.4121 187.476 23.0469C189.152 23.6654 190.601 24.3083 191.821 24.9756C193.042 25.6266 193.978 26.4242 194.629 27.3682C195.296 28.2959 195.63 29.4922 195.63 30.957ZM212.866 38.7695C210.457 38.7695 208.333 38.2731 206.494 37.2803C204.655 36.2874 203.223 34.7738 202.197 32.7393C201.172 30.7048 200.659 28.1413 200.659 25.0488C200.659 21.8099 201.196 19.165 202.271 17.1143C203.361 15.0472 204.858 13.5173 206.763 12.5244C208.667 11.5316 210.832 11.0352 213.257 11.0352C214.591 11.0352 215.877 11.1735 217.114 11.4502C218.368 11.7106 219.393 12.0443 220.19 12.4512L218.97 15.8447C218.156 15.5192 217.212 15.2262 216.138 14.9658C215.08 14.7054 214.087 14.5752 213.159 14.5752C211.304 14.5752 209.757 14.974 208.521 15.7715C207.3 16.569 206.38 17.7409 205.762 19.2871C205.16 20.8333 204.858 22.7376 204.858 25C204.858 27.1647 205.151 29.012 205.737 30.542C206.34 32.0719 207.227 33.2438 208.398 34.0576C209.587 34.8551 211.068 35.2539 212.842 35.2539C214.258 35.2539 215.535 35.1074 216.675 34.8145C217.814 34.5052 218.848 34.1471 219.775 33.7402V37.3535C218.88 37.8092 217.879 38.1592 216.772 38.4033C215.682 38.6475 214.38 38.7695 212.866 38.7695ZM249.194 24.8535C249.194 27.0508 248.91 29.012 248.34 30.7373C247.77 32.4626 246.948 33.9193 245.874 35.1074C244.8 36.2956 243.498 37.207 241.968 37.8418C240.454 38.4603 238.737 38.7695 236.816 38.7695C235.026 38.7695 233.382 38.4603 231.885 37.8418C230.404 37.207 229.118 36.2956 228.027 35.1074C226.953 33.9193 226.115 32.4626 225.513 30.7373C224.927 29.012 224.634 27.0508 224.634 24.8535C224.634 21.9238 225.13 19.4336 226.123 17.3828C227.116 15.3158 228.532 13.7451 230.371 12.6709C232.227 11.5804 234.432 11.0352 236.987 11.0352C239.429 11.0352 241.561 11.5804 243.384 12.6709C245.223 13.7614 246.647 15.3402 247.656 17.4072C248.682 19.458 249.194 21.9401 249.194 24.8535ZM228.833 24.8535C228.833 27.002 229.118 28.8656 229.688 30.4443C230.257 32.0231 231.136 33.2438 232.324 34.1064C233.512 34.9691 235.042 35.4004 236.914 35.4004C238.77 35.4004 240.291 34.9691 241.479 34.1064C242.684 33.2438 243.571 32.0231 244.141 30.4443C244.71 28.8656 244.995 27.002 244.995 24.8535C244.995 22.7214 244.71 20.8822 244.141 19.3359C243.571 17.7734 242.692 16.569 241.504 15.7227C240.316 14.8763 238.778 14.4531 236.89 14.4531C234.106 14.4531 232.064 15.3727 230.762 17.2119C229.476 19.0511 228.833 21.5983 228.833 24.8535ZM260.254 0.292969V9.79004C260.254 10.8805 260.221 11.9385 260.156 12.9639C260.107 13.9893 260.067 14.7868 260.034 15.3564H260.254C260.986 14.152 262.044 13.1348 263.428 12.3047C264.811 11.4746 266.577 11.0596 268.726 11.0596C272.078 11.0596 274.748 12.2233 276.733 14.5508C278.735 16.862 279.736 20.3044 279.736 24.8779C279.736 27.889 279.281 30.4281 278.369 32.4951C277.458 34.5622 276.172 36.1247 274.512 37.1826C272.852 38.2406 270.89 38.7695 268.628 38.7695C266.512 38.7695 264.771 38.3789 263.403 37.5977C262.052 36.8001 261.011 35.8317 260.278 34.6924H259.961L259.131 38.2812H256.201V0.292969H260.254ZM268.066 14.4531C266.13 14.4531 264.591 14.8356 263.452 15.6006C262.313 16.3493 261.491 17.4886 260.986 19.0186C260.498 20.5322 260.254 22.4528 260.254 24.7803V25C260.254 28.3691 260.815 30.9489 261.938 32.7393C263.062 34.5133 265.104 35.4004 268.066 35.4004C270.557 35.4004 272.42 34.4889 273.657 32.666C274.91 30.8431 275.537 28.2389 275.537 24.8535C275.537 21.403 274.919 18.807 273.682 17.0654C272.461 15.3239 270.589 14.4531 268.066 14.4531ZM298.975 11.0352C299.512 11.0352 300.073 11.0677 300.659 11.1328C301.245 11.1816 301.766 11.2549 302.222 11.3525L301.709 15.1123C301.27 14.9984 300.781 14.9089 300.244 14.8438C299.707 14.7786 299.202 14.7461 298.73 14.7461C297.656 14.7461 296.639 14.9658 295.679 15.4053C294.735 15.8285 293.905 16.4469 293.188 17.2607C292.472 18.0583 291.911 19.0267 291.504 20.166C291.097 21.2891 290.894 22.5423 290.894 23.9258V38.2812H286.816V11.5234H290.186L290.625 16.4551H290.796C291.349 15.4622 292.017 14.5589 292.798 13.7451C293.579 12.915 294.482 12.2559 295.508 11.7676C296.549 11.2793 297.705 11.0352 298.975 11.0352ZM311.328 11.5234V38.2812H307.275V11.5234H311.328ZM309.351 1.51367C310.018 1.51367 310.588 1.7334 311.06 2.17285C311.548 2.59603 311.792 3.26335 311.792 4.1748C311.792 5.06999 311.548 5.7373 311.06 6.17676C310.588 6.61621 310.018 6.83594 309.351 6.83594C308.651 6.83594 308.065 6.61621 307.593 6.17676C307.137 5.7373 306.909 5.06999 306.909 4.1748C306.909 3.26335 307.137 2.59603 307.593 2.17285C308.065 1.7334 308.651 1.51367 309.351 1.51367ZM332.08 11.0352C332.617 11.0352 333.179 11.0677 333.765 11.1328C334.351 11.1816 334.871 11.2549 335.327 11.3525L334.814 15.1123C334.375 14.9984 333.887 14.9089 333.35 14.8438C332.812 14.7786 332.308 14.7461 331.836 14.7461C330.762 14.7461 329.744 14.9658 328.784 15.4053C327.84 15.8285 327.01 16.4469 326.294 17.2607C325.578 18.0583 325.016 19.0267 324.609 20.166C324.202 21.2891 323.999 22.5423 323.999 23.9258V38.2812H319.922V11.5234H323.291L323.73 16.4551H323.901C324.455 15.4622 325.122 14.5589 325.903 13.7451C326.685 12.915 327.588 12.2559 328.613 11.7676C329.655 11.2793 330.811 11.0352 332.08 11.0352ZM376.44 24.8535C376.44 27.0508 376.156 29.012 375.586 30.7373C375.016 32.4626 374.194 33.9193 373.12 35.1074C372.046 36.2956 370.744 37.207 369.214 37.8418C367.7 38.4603 365.983 38.7695 364.062 38.7695C362.272 38.7695 360.628 38.4603 359.131 37.8418C357.65 37.207 356.364 36.2956 355.273 35.1074C354.199 33.9193 353.361 32.4626 352.759 30.7373C352.173 29.012 351.88 27.0508 351.88 24.8535C351.88 21.9238 352.376 19.4336 353.369 17.3828C354.362 15.3158 355.778 13.7451 357.617 12.6709C359.473 11.5804 361.678 11.0352 364.233 11.0352C366.675 11.0352 368.807 11.5804 370.63 12.6709C372.469 13.7614 373.893 15.3402 374.902 17.4072C375.928 19.458 376.44 21.9401 376.44 24.8535ZM356.079 24.8535C356.079 27.002 356.364 28.8656 356.934 30.4443C357.503 32.0231 358.382 33.2438 359.57 34.1064C360.758 34.9691 362.288 35.4004 364.16 35.4004C366.016 35.4004 367.537 34.9691 368.726 34.1064C369.93 33.2438 370.817 32.0231 371.387 30.4443C371.956 28.8656 372.241 27.002 372.241 24.8535C372.241 22.7214 371.956 20.8822 371.387 19.3359C370.817 17.7734 369.938 16.569 368.75 15.7227C367.562 14.8763 366.024 14.4531 364.136 14.4531C361.353 14.4531 359.31 15.3727 358.008 17.2119C356.722 19.0511 356.079 21.5983 356.079 24.8535ZM409.009 11.0352C412.345 11.0352 415.007 12.1826 416.992 14.4775C418.978 16.7725 419.971 20.223 419.971 24.8291C419.971 27.8727 419.515 30.4281 418.604 32.4951C417.692 34.5622 416.406 36.1247 414.746 37.1826C413.102 38.2406 411.157 38.7695 408.911 38.7695C407.495 38.7695 406.25 38.5824 405.176 38.208C404.102 37.8337 403.182 37.3291 402.417 36.6943C401.652 36.0596 401.017 35.3678 400.513 34.6191H400.22C400.269 35.2539 400.326 36.0189 400.391 36.9141C400.472 37.8092 400.513 38.5905 400.513 39.2578V50.2441H396.436V11.5234H399.78L400.317 15.4785H400.513C401.034 14.6647 401.668 13.9242 402.417 13.2568C403.166 12.5732 404.077 12.0361 405.151 11.6455C406.242 11.2386 407.528 11.0352 409.009 11.0352ZM408.301 14.4531C406.445 14.4531 404.948 14.8112 403.809 15.5273C402.686 16.2435 401.864 17.3177 401.343 18.75C400.822 20.166 400.545 21.9482 400.513 24.0967V24.8779C400.513 27.1403 400.757 29.0527 401.245 30.6152C401.75 32.1777 402.572 33.3659 403.711 34.1797C404.867 34.9935 406.413 35.4004 408.35 35.4004C410.01 35.4004 411.393 34.9528 412.5 34.0576C413.607 33.1624 414.429 31.9173 414.966 30.3223C415.519 28.7109 415.796 26.8636 415.796 24.7803C415.796 21.6227 415.177 19.1162 413.94 17.2607C412.72 15.389 410.84 14.4531 408.301 14.4531ZM450.122 24.8535C450.122 27.0508 449.837 29.012 449.268 30.7373C448.698 32.4626 447.876 33.9193 446.802 35.1074C445.728 36.2956 444.425 37.207 442.896 37.8418C441.382 38.4603 439.665 38.7695 437.744 38.7695C435.954 38.7695 434.31 38.4603 432.812 37.8418C431.331 37.207 430.046 36.2956 428.955 35.1074C427.881 33.9193 427.043 32.4626 426.44 30.7373C425.854 29.012 425.562 27.0508 425.562 24.8535C425.562 21.9238 426.058 19.4336 427.051 17.3828C428.044 15.3158 429.46 13.7451 431.299 12.6709C433.154 11.5804 435.36 11.0352 437.915 11.0352C440.356 11.0352 442.489 11.5804 444.312 12.6709C446.151 13.7614 447.575 15.3402 448.584 17.4072C449.609 19.458 450.122 21.9401 450.122 24.8535ZM429.761 24.8535C429.761 27.002 430.046 28.8656 430.615 30.4443C431.185 32.0231 432.064 33.2438 433.252 34.1064C434.44 34.9691 435.97 35.4004 437.842 35.4004C439.697 35.4004 441.219 34.9691 442.407 34.1064C443.612 33.2438 444.499 32.0231 445.068 30.4443C445.638 28.8656 445.923 27.002 445.923 24.8535C445.923 22.7214 445.638 20.8822 445.068 19.3359C444.499 17.7734 443.62 16.569 442.432 15.7227C441.243 14.8763 439.705 14.4531 437.817 14.4531C435.034 14.4531 432.992 15.3727 431.689 17.2119C430.404 19.0511 429.761 21.5983 429.761 24.8535ZM469.287 11.0352C469.824 11.0352 470.386 11.0677 470.972 11.1328C471.558 11.1816 472.078 11.2549 472.534 11.3525L472.021 15.1123C471.582 14.9984 471.094 14.9089 470.557 14.8438C470.02 14.7786 469.515 14.7461 469.043 14.7461C467.969 14.7461 466.951 14.9658 465.991 15.4053C465.047 15.8285 464.217 16.4469 463.501 17.2607C462.785 18.0583 462.223 19.0267 461.816 20.166C461.41 21.2891 461.206 22.5423 461.206 23.9258V38.2812H457.129V11.5234H460.498L460.938 16.4551H461.108C461.662 15.4622 462.329 14.5589 463.11 13.7451C463.892 12.915 464.795 12.2559 465.82 11.7676C466.862 11.2793 468.018 11.0352 469.287 11.0352ZM495.532 50.2441V38.7695C495.532 38.1348 495.549 37.4023 495.581 36.5723C495.614 35.7422 495.671 35.026 495.752 34.4238H495.483C494.735 35.6608 493.669 36.6943 492.285 37.5244C490.902 38.3545 489.119 38.7695 486.938 38.7695C483.667 38.7695 481.038 37.6139 479.053 35.3027C477.067 32.9915 476.074 29.541 476.074 24.9512C476.074 21.9401 476.53 19.401 477.441 17.334C478.353 15.2669 479.639 13.7044 481.299 12.6465C482.975 11.5723 484.928 11.0352 487.158 11.0352C489.29 11.0352 491.032 11.4583 492.383 12.3047C493.734 13.1348 494.792 14.152 495.557 15.3564H495.752L496.362 11.5234H499.585V50.2441H495.532ZM487.695 35.4004C489.583 35.4004 491.097 35.0505 492.236 34.3506C493.376 33.6344 494.206 32.5602 494.727 31.1279C495.264 29.6956 495.549 27.9134 495.581 25.7812V24.9268C495.581 21.4762 494.995 18.8639 493.823 17.0898C492.651 15.2995 490.609 14.4043 487.695 14.4043C485.189 14.4043 483.325 15.3646 482.104 17.2852C480.884 19.1895 480.273 21.7773 480.273 25.0488C480.273 28.3203 480.884 30.8675 482.104 32.6904C483.325 34.4971 485.189 35.4004 487.695 35.4004ZM530.298 11.5234V38.2812H526.978L526.392 34.5215H526.172C525.618 35.4492 524.902 36.2305 524.023 36.8652C523.145 37.5 522.152 37.972 521.045 38.2812C519.954 38.6068 518.791 38.7695 517.554 38.7695C515.438 38.7695 513.664 38.4277 512.231 37.7441C510.799 37.0605 509.717 36.0026 508.984 34.5703C508.268 33.138 507.91 31.2988 507.91 29.0527V11.5234H512.012V28.7598C512.012 30.9896 512.516 32.6579 513.525 33.7646C514.535 34.8551 516.073 35.4004 518.14 35.4004C520.125 35.4004 521.704 35.026 522.876 34.2773C524.064 33.5286 524.919 32.43 525.439 30.9814C525.96 29.5166 526.221 27.7262 526.221 25.6104V11.5234H530.298ZM549.17 11.0352C551.449 11.0352 553.402 11.5397 555.029 12.5488C556.657 13.5579 557.902 14.974 558.765 16.7969C559.627 18.6035 560.059 20.7194 560.059 23.1445V25.6592H541.577C541.626 28.8005 542.407 31.193 543.921 32.8369C545.435 34.4808 547.567 35.3027 550.317 35.3027C552.01 35.3027 553.507 35.1481 554.81 34.8389C556.112 34.5296 557.463 34.0739 558.862 33.4717V37.0361C557.511 37.6383 556.169 38.0778 554.834 38.3545C553.516 38.6312 551.953 38.7695 550.146 38.7695C547.575 38.7695 545.329 38.2487 543.408 37.207C541.504 36.1491 540.023 34.6029 538.965 32.5684C537.907 30.5339 537.378 28.0436 537.378 25.0977C537.378 22.2168 537.858 19.7266 538.818 17.627C539.795 15.5111 541.162 13.8835 542.92 12.7441C544.694 11.6048 546.777 11.0352 549.17 11.0352ZM549.121 14.3555C546.956 14.3555 545.231 15.0635 543.945 16.4795C542.66 17.8955 541.895 19.873 541.65 22.4121H555.811C555.794 20.8171 555.542 19.4173 555.054 18.2129C554.582 16.9922 553.857 16.0482 552.881 15.3809C551.904 14.6973 550.651 14.3555 549.121 14.3555ZM550.928 0C551.335 0.732422 551.904 1.5625 552.637 2.49023C553.369 3.40169 554.142 4.29688 554.956 5.17578C555.77 6.05469 556.494 6.81152 557.129 7.44629V7.9834H554.248C553.369 7.41374 552.466 6.71387 551.538 5.88379C550.61 5.05371 549.707 4.19108 548.828 3.2959C547.949 4.19108 547.054 5.05371 546.143 5.88379C545.247 6.69759 544.36 7.39746 543.481 7.9834H540.698V7.44629C541.317 6.79525 542.017 6.03027 542.798 5.15137C543.595 4.27246 544.352 3.37728 545.068 2.46582C545.801 1.55436 546.379 0.732422 546.802 0H550.928ZM589.453 38.7695C586.068 38.7695 583.382 37.6139 581.396 35.3027C579.427 32.9915 578.442 29.5573 578.442 25C578.442 20.3939 579.451 16.9189 581.47 14.5752C583.488 12.2152 586.174 11.0352 589.526 11.0352C590.942 11.0352 592.179 11.2223 593.237 11.5967C594.295 11.971 595.207 12.4756 595.972 13.1104C596.737 13.7288 597.38 14.4368 597.9 15.2344H598.193C598.128 14.7298 598.063 14.0381 597.998 13.1592C597.933 12.2803 597.9 11.5641 597.9 11.0107V0.292969H601.953V38.2812H598.682L598.071 34.4727H597.9C597.396 35.2702 596.753 35.9945 595.972 36.6455C595.207 37.2965 594.287 37.8174 593.213 38.208C592.155 38.5824 590.902 38.7695 589.453 38.7695ZM590.088 35.4004C592.952 35.4004 594.979 34.5866 596.167 32.959C597.355 31.3314 597.949 28.9144 597.949 25.708V24.9756C597.949 21.5739 597.38 18.9616 596.24 17.1387C595.117 15.3158 593.066 14.4043 590.088 14.4043C587.598 14.4043 585.734 15.3646 584.497 17.2852C583.26 19.1895 582.642 21.7936 582.642 25.0977C582.642 28.3854 583.252 30.9245 584.473 32.7148C585.71 34.5052 587.581 35.4004 590.088 35.4004ZM620.85 11.0352C623.128 11.0352 625.081 11.5397 626.709 12.5488C628.337 13.5579 629.582 14.974 630.444 16.7969C631.307 18.6035 631.738 20.7194 631.738 23.1445V25.6592H613.257C613.306 28.8005 614.087 31.193 615.601 32.8369C617.114 34.4808 619.246 35.3027 621.997 35.3027C623.69 35.3027 625.187 35.1481 626.489 34.8389C627.791 34.5296 629.142 34.0739 630.542 33.4717V37.0361C629.191 37.6383 627.848 38.0778 626.514 38.3545C625.195 38.6312 623.633 38.7695 621.826 38.7695C619.255 38.7695 617.008 38.2487 615.088 37.207C613.184 36.1491 611.702 34.6029 610.645 32.5684C609.587 30.5339 609.058 28.0436 609.058 25.0977C609.058 22.2168 609.538 19.7266 610.498 17.627C611.475 15.5111 612.842 13.8835 614.6 12.7441C616.374 11.6048 618.457 11.0352 620.85 11.0352ZM620.801 14.3555C618.636 14.3555 616.911 15.0635 615.625 16.4795C614.339 17.8955 613.574 19.873 613.33 22.4121H627.49C627.474 20.8171 627.222 19.4173 626.733 18.2129C626.261 16.9922 625.537 16.0482 624.561 15.3809C623.584 14.6973 622.331 14.3555 620.801 14.3555ZM661.914 11.0352C664.193 11.0352 666.146 11.5397 667.773 12.5488C669.401 13.5579 670.646 14.974 671.509 16.7969C672.371 18.6035 672.803 20.7194 672.803 23.1445V25.6592H654.321C654.37 28.8005 655.151 31.193 656.665 32.8369C658.179 34.4808 660.311 35.3027 663.062 35.3027C664.754 35.3027 666.252 35.1481 667.554 34.8389C668.856 34.5296 670.207 34.0739 671.606 33.4717V37.0361C670.256 37.6383 668.913 38.0778 667.578 38.3545C666.26 38.6312 664.697 38.7695 662.891 38.7695C660.319 38.7695 658.073 38.2487 656.152 37.207C654.248 36.1491 652.767 34.6029 651.709 32.5684C650.651 30.5339 650.122 28.0436 650.122 25.0977C650.122 22.2168 650.602 19.7266 651.562 17.627C652.539 15.5111 653.906 13.8835 655.664 12.7441C657.438 11.6048 659.521 11.0352 661.914 11.0352ZM661.865 14.3555C659.701 14.3555 657.975 15.0635 656.689 16.4795C655.404 17.8955 654.639 19.873 654.395 22.4121H668.555C668.538 20.8171 668.286 19.4173 667.798 18.2129C667.326 16.9922 666.602 16.0482 665.625 15.3809C664.648 14.6973 663.395 14.3555 661.865 14.3555ZM696.997 30.957C696.997 32.666 696.566 34.1064 695.703 35.2783C694.857 36.4339 693.636 37.3047 692.041 37.8906C690.462 38.4766 688.574 38.7695 686.377 38.7695C684.505 38.7695 682.886 38.623 681.519 38.3301C680.151 38.0371 678.955 37.6221 677.93 37.085V33.3496C679.02 33.8867 680.322 34.375 681.836 34.8145C683.35 35.2539 684.896 35.4736 686.475 35.4736C688.786 35.4736 690.462 35.0993 691.504 34.3506C692.546 33.6019 693.066 32.5846 693.066 31.2988C693.066 30.5664 692.855 29.9235 692.432 29.3701C692.025 28.8005 691.333 28.2552 690.356 27.7344C689.38 27.1973 688.029 26.6113 686.304 25.9766C684.595 25.3255 683.114 24.6826 681.86 24.0479C680.623 23.3968 679.663 22.6074 678.979 21.6797C678.312 20.752 677.979 19.5475 677.979 18.0664C677.979 15.804 678.89 14.0706 680.713 12.8662C682.552 11.6455 684.961 11.0352 687.939 11.0352C689.551 11.0352 691.056 11.1979 692.456 11.5234C693.872 11.8327 695.19 12.2559 696.411 12.793L695.044 16.04C693.937 15.568 692.757 15.1693 691.504 14.8438C690.251 14.5182 688.973 14.3555 687.671 14.3555C685.799 14.3555 684.359 14.6647 683.35 15.2832C682.357 15.9017 681.86 16.748 681.86 17.8223C681.86 18.6523 682.088 19.3359 682.544 19.873C683.016 20.4102 683.765 20.9147 684.79 21.3867C685.815 21.8587 687.166 22.4121 688.843 23.0469C690.519 23.6654 691.968 24.3083 693.188 24.9756C694.409 25.6266 695.345 26.4242 695.996 27.3682C696.663 28.2959 696.997 29.4922 696.997 30.957ZM712.158 35.4492C712.826 35.4492 713.509 35.3923 714.209 35.2783C714.909 35.1644 715.479 35.026 715.918 34.8633V38.0127C715.446 38.2243 714.787 38.4033 713.94 38.5498C713.11 38.6963 712.297 38.7695 711.499 38.7695C710.083 38.7695 708.797 38.5254 707.642 38.0371C706.486 37.5326 705.558 36.6862 704.858 35.498C704.175 34.3099 703.833 32.666 703.833 30.5664V14.6973H700.024V12.7197L703.857 11.1328L705.469 5.32227H707.91V11.5234H715.747V14.6973H707.91V30.4443C707.91 32.1208 708.293 33.374 709.058 34.2041C709.839 35.0342 710.872 35.4492 712.158 35.4492ZM731.348 11.084C734.538 11.084 736.906 11.8001 738.452 13.2324C739.998 14.6647 740.771 16.9515 740.771 20.0928V38.2812H737.817L737.036 34.3262H736.841C736.092 35.3027 735.311 36.1247 734.497 36.792C733.683 37.443 732.739 37.9395 731.665 38.2812C730.607 38.6068 729.305 38.7695 727.759 38.7695C726.131 38.7695 724.683 38.4847 723.413 37.915C722.16 37.3454 721.167 36.4827 720.435 35.3271C719.718 34.1715 719.36 32.7067 719.36 30.9326C719.36 28.2633 720.418 26.2126 722.534 24.7803C724.65 23.348 727.873 22.5667 732.202 22.4365L736.816 22.2412V20.6055C736.816 18.2943 736.32 16.6748 735.327 15.7471C734.334 14.8193 732.935 14.3555 731.128 14.3555C729.728 14.3555 728.394 14.5589 727.124 14.9658C725.854 15.3727 724.65 15.8529 723.511 16.4062L722.266 13.3301C723.47 12.7116 724.854 12.1826 726.416 11.7432C727.979 11.3037 729.622 11.084 731.348 11.084ZM736.768 25.0977L732.69 25.2686C729.354 25.3988 727.002 25.944 725.635 26.9043C724.268 27.8646 723.584 29.2236 723.584 30.9814C723.584 32.5114 724.048 33.6426 724.976 34.375C725.903 35.1074 727.132 35.4736 728.662 35.4736C731.038 35.4736 732.983 34.8145 734.497 33.4961C736.011 32.1777 736.768 30.2002 736.768 27.5635V25.0977ZM761.279 11.0352C761.816 11.0352 762.378 11.0677 762.964 11.1328C763.55 11.1816 764.071 11.2549 764.526 11.3525L764.014 15.1123C763.574 14.9984 763.086 14.9089 762.549 14.8438C762.012 14.7786 761.507 14.7461 761.035 14.7461C759.961 14.7461 758.944 14.9658 757.983 15.4053C757.039 15.8285 756.209 16.4469 755.493 17.2607C754.777 18.0583 754.215 19.0267 753.809 20.166C753.402 21.2891 753.198 22.5423 753.198 23.9258V38.2812H749.121V11.5234H752.49L752.93 16.4551H753.101C753.654 15.4622 754.321 14.5589 755.103 13.7451C755.884 12.915 756.787 12.2559 757.812 11.7676C758.854 11.2793 760.01 11.0352 761.279 11.0352ZM798.633 11.0352C801.579 11.0352 803.8 11.8083 805.298 13.3545C806.795 14.8844 807.544 17.3503 807.544 20.752V38.2812H803.54V20.9473C803.54 18.7826 803.068 17.1631 802.124 16.0889C801.196 14.9984 799.813 14.4531 797.974 14.4531C795.386 14.4531 793.506 15.2018 792.334 16.6992C791.162 18.1966 790.576 20.402 790.576 23.3154V38.2812H786.548V20.9473C786.548 19.4987 786.336 18.2943 785.913 17.334C785.506 16.3737 784.888 15.6576 784.058 15.1855C783.244 14.6973 782.21 14.4531 780.957 14.4531C779.183 14.4531 777.759 14.8193 776.685 15.5518C775.61 16.2842 774.829 17.3747 774.341 18.8232C773.869 20.2555 773.633 22.0215 773.633 24.1211V38.2812H769.58V11.5234H772.852L773.462 15.3076H773.682C774.219 14.3799 774.894 13.5986 775.708 12.9639C776.522 12.3291 777.433 11.849 778.442 11.5234C779.451 11.1979 780.526 11.0352 781.665 11.0352C783.7 11.0352 785.4 11.4176 786.768 12.1826C788.151 12.9313 789.152 14.0788 789.771 15.625H789.99C790.869 14.0788 792.074 12.9313 793.604 12.1826C795.133 11.4176 796.81 11.0352 798.633 11.0352ZM838.94 24.8535C838.94 27.0508 838.656 29.012 838.086 30.7373C837.516 32.4626 836.694 33.9193 835.62 35.1074C834.546 36.2956 833.244 37.207 831.714 37.8418C830.2 38.4603 828.483 38.7695 826.562 38.7695C824.772 38.7695 823.128 38.4603 821.631 37.8418C820.15 37.207 818.864 36.2956 817.773 35.1074C816.699 33.9193 815.861 32.4626 815.259 30.7373C814.673 29.012 814.38 27.0508 814.38 24.8535C814.38 21.9238 814.876 19.4336 815.869 17.3828C816.862 15.3158 818.278 13.7451 820.117 12.6709C821.973 11.5804 824.178 11.0352 826.733 11.0352C829.175 11.0352 831.307 11.5804 833.13 12.6709C834.969 13.7614 836.393 15.3402 837.402 17.4072C838.428 19.458 838.94 21.9401 838.94 24.8535ZM818.579 24.8535C818.579 27.002 818.864 28.8656 819.434 30.4443C820.003 32.0231 820.882 33.2438 822.07 34.1064C823.258 34.9691 824.788 35.4004 826.66 35.4004C828.516 35.4004 830.037 34.9691 831.226 34.1064C832.43 33.2438 833.317 32.0231 833.887 30.4443C834.456 28.8656 834.741 27.002 834.741 24.8535C834.741 22.7214 834.456 20.8822 833.887 19.3359C833.317 17.7734 832.438 16.569 831.25 15.7227C830.062 14.8763 828.524 14.4531 826.636 14.4531C823.853 14.4531 821.81 15.3727 820.508 17.2119C819.222 19.0511 818.579 21.5983 818.579 24.8535ZM863.257 30.957C863.257 32.666 862.826 34.1064 861.963 35.2783C861.117 36.4339 859.896 37.3047 858.301 37.8906C856.722 38.4766 854.834 38.7695 852.637 38.7695C850.765 38.7695 849.146 38.623 847.778 38.3301C846.411 38.0371 845.215 37.6221 844.189 37.085V33.3496C845.28 33.8867 846.582 34.375 848.096 34.8145C849.609 35.2539 851.156 35.4736 852.734 35.4736C855.046 35.4736 856.722 35.0993 857.764 34.3506C858.805 33.6019 859.326 32.5846 859.326 31.2988C859.326 30.5664 859.115 29.9235 858.691 29.3701C858.285 28.8005 857.593 28.2552 856.616 27.7344C855.64 27.1973 854.289 26.6113 852.563 25.9766C850.854 25.3255 849.373 24.6826 848.12 24.0479C846.883 23.3968 845.923 22.6074 845.239 21.6797C844.572 20.752 844.238 19.5475 844.238 18.0664C844.238 15.804 845.15 14.0706 846.973 12.8662C848.812 11.6455 851.221 11.0352 854.199 11.0352C855.811 11.0352 857.316 11.1979 858.716 11.5234C860.132 11.8327 861.45 12.2559 862.671 12.793L861.304 16.04C860.197 15.568 859.017 15.1693 857.764 14.8438C856.51 14.5182 855.233 14.3555 853.931 14.3555C852.059 14.3555 850.618 14.6647 849.609 15.2832C848.617 15.9017 848.12 16.748 848.12 17.8223C848.12 18.6523 848.348 19.3359 848.804 19.873C849.276 20.4102 850.024 20.9147 851.05 21.3867C852.075 21.8587 853.426 22.4121 855.103 23.0469C856.779 23.6654 858.228 24.3083 859.448 24.9756C860.669 25.6266 861.605 26.4242 862.256 27.3682C862.923 28.2959 863.257 29.4922 863.257 30.957ZM888.647 38.2812L878.491 11.5234H882.837L888.721 27.71C889.128 28.8167 889.543 30.0374 889.966 31.3721C890.389 32.7067 890.682 33.7809 890.845 34.5947H891.016C891.211 33.7809 891.536 32.7067 891.992 31.3721C892.448 30.0212 892.863 28.8005 893.237 27.71L899.121 11.5234H903.467L893.286 38.2812H888.647ZM911.816 11.5234V38.2812H907.764V11.5234H911.816ZM909.839 1.51367C910.506 1.51367 911.076 1.7334 911.548 2.17285C912.036 2.59603 912.28 3.26335 912.28 4.1748C912.28 5.06999 912.036 5.7373 911.548 6.17676C911.076 6.61621 910.506 6.83594 909.839 6.83594C909.139 6.83594 908.553 6.61621 908.081 6.17676C907.625 5.7373 907.397 5.06999 907.397 4.1748C907.397 3.26335 907.625 2.59603 908.081 2.17285C908.553 1.7334 909.139 1.51367 909.839 1.51367ZM926.294 38.2812L916.138 11.5234H920.483L926.367 27.71C926.774 28.8167 927.189 30.0374 927.612 31.3721C928.035 32.7067 928.328 33.7809 928.491 34.5947H928.662C928.857 33.7809 929.183 32.7067 929.639 31.3721C930.094 30.0212 930.509 28.8005 930.884 27.71L936.768 11.5234H941.113L930.933 38.2812H926.294ZM968.481 24.8535C968.481 27.0508 968.197 29.012 967.627 30.7373C967.057 32.4626 966.235 33.9193 965.161 35.1074C964.087 36.2956 962.785 37.207 961.255 37.8418C959.741 38.4603 958.024 38.7695 956.104 38.7695C954.313 38.7695 952.669 38.4603 951.172 37.8418C949.691 37.207 948.405 36.2956 947.314 35.1074C946.24 33.9193 945.402 32.4626 944.8 30.7373C944.214 29.012 943.921 27.0508 943.921 24.8535C943.921 21.9238 944.417 19.4336 945.41 17.3828C946.403 15.3158 947.819 13.7451 949.658 12.6709C951.514 11.5804 953.719 11.0352 956.274 11.0352C958.716 11.0352 960.848 11.5804 962.671 12.6709C964.51 13.7614 965.934 15.3402 966.943 17.4072C967.969 19.458 968.481 21.9401 968.481 24.8535ZM948.12 24.8535C948.12 27.002 948.405 28.8656 948.975 30.4443C949.544 32.0231 950.423 33.2438 951.611 34.1064C952.799 34.9691 954.329 35.4004 956.201 35.4004C958.057 35.4004 959.578 34.9691 960.767 34.1064C961.971 33.2438 962.858 32.0231 963.428 30.4443C963.997 28.8656 964.282 27.002 964.282 24.8535C964.282 22.7214 963.997 20.8822 963.428 19.3359C962.858 17.7734 961.979 16.569 960.791 15.7227C959.603 14.8763 958.065 14.4531 956.177 14.4531C953.394 14.4531 951.351 15.3727 950.049 17.2119C948.763 19.0511 948.12 21.5983 948.12 24.8535ZM992.798 30.957C992.798 32.666 992.367 34.1064 991.504 35.2783C990.658 36.4339 989.437 37.3047 987.842 37.8906C986.263 38.4766 984.375 38.7695 982.178 38.7695C980.306 38.7695 978.687 38.623 977.319 38.3301C975.952 38.0371 974.756 37.6221 973.73 37.085V33.3496C974.821 33.8867 976.123 34.375 977.637 34.8145C979.15 35.2539 980.697 35.4736 982.275 35.4736C984.587 35.4736 986.263 35.0993 987.305 34.3506C988.346 33.6019 988.867 32.5846 988.867 31.2988C988.867 30.5664 988.656 29.9235 988.232 29.3701C987.826 28.8005 987.134 28.2552 986.157 27.7344C985.181 27.1973 983.83 26.6113 982.104 25.9766C980.396 25.3255 978.914 24.6826 977.661 24.0479C976.424 23.3968 975.464 22.6074 974.78 21.6797C974.113 20.752 973.779 19.5475 973.779 18.0664C973.779 15.804 974.691 14.0706 976.514 12.8662C978.353 11.6455 980.762 11.0352 983.74 11.0352C985.352 11.0352 986.857 11.1979 988.257 11.5234C989.673 11.8327 990.991 12.2559 992.212 12.793L990.845 16.04C989.738 15.568 988.558 15.1693 987.305 14.8438C986.051 14.5182 984.774 14.3555 983.472 14.3555C981.6 14.3555 980.16 14.6647 979.15 15.2832C978.158 15.9017 977.661 16.748 977.661 17.8223C977.661 18.6523 977.889 19.3359 978.345 19.873C978.817 20.4102 979.565 20.9147 980.591 21.3867C981.616 21.8587 982.967 22.4121 984.644 23.0469C986.32 23.6654 987.769 24.3083 988.989 24.9756C990.21 25.6266 991.146 26.4242 991.797 27.3682C992.464 28.2959 992.798 29.4922 992.798 30.957ZM1002.98 28.3691H1000.32L999.194 2.58789H1004.1L1002.98 28.3691ZM998.706 35.7422C998.706 34.6029 998.983 33.7972 999.536 33.3252C1000.09 32.8369 1000.78 32.5928 1001.61 32.5928C1002.43 32.5928 1003.11 32.8369 1003.66 33.3252C1004.23 33.7972 1004.52 34.6029 1004.52 35.7422C1004.52 36.8652 1004.23 37.6872 1003.66 38.208C1003.11 38.7126 1002.43 38.9648 1001.61 38.9648C1000.78 38.9648 1000.09 38.7126 999.536 38.208C998.983 37.6872 998.706 36.8652 998.706 35.7422Z" fill="#BD4747"/>
</svg>
