<svg width="496" height="46" viewBox="0 0 496 46" fill="none" xmlns="http://www.w3.org/2000/svg">
<path d="M1.24981 45.0508C0.883138 45.0508 0.583138 44.9341 0.349805 44.7008C0.116471 44.4674 -0.000195265 44.1674 -0.000195265 43.8008V11.3008C-0.000195265 10.9341 0.116471 10.6341 0.349805 10.4008C0.583138 10.1674 0.883138 10.0508 1.24981 10.0508H14.8998C17.5998 10.0508 19.9331 10.4674 21.8998 11.3008C23.8998 12.1341 25.4498 13.4008 26.5498 15.1008C27.6831 16.7674 28.2498 18.8508 28.2498 21.3508C28.2498 23.8841 27.6831 25.9841 26.5498 27.6508C25.4498 29.2841 23.8998 30.5008 21.8998 31.3008C19.9331 32.1008 17.5998 32.5008 14.8998 32.5008H8.1998V43.8008C8.1998 44.1674 8.08314 44.4674 7.8498 44.7008C7.61647 44.9341 7.31647 45.0508 6.94981 45.0508H1.24981ZM8.04981 26.3008H14.6498C16.3498 26.3008 17.6665 25.8841 18.5998 25.0508C19.5665 24.2174 20.0498 22.9674 20.0498 21.3008C20.0498 19.8341 19.6165 18.6341 18.7498 17.7008C17.9165 16.7674 16.5498 16.3008 14.6498 16.3008H8.04981V26.3008ZM34.5994 45.0508C34.2327 45.0508 33.9327 44.9341 33.6994 44.7008C33.4661 44.4674 33.3494 44.1674 33.3494 43.8008V11.3008C33.3494 10.9341 33.4661 10.6341 33.6994 10.4008C33.9327 10.1674 34.2327 10.0508 34.5994 10.0508H47.8494C52.0161 10.0508 55.2994 11.0174 57.6994 12.9508C60.0994 14.8508 61.2994 17.6008 61.2994 21.2008C61.2994 23.6341 60.7161 25.6674 59.5494 27.3008C58.3827 28.9341 56.8161 30.1508 54.8494 30.9508L61.8994 43.4508C61.9994 43.6508 62.0494 43.8341 62.0494 44.0008C62.0494 44.2674 61.9494 44.5174 61.7494 44.7508C61.5494 44.9508 61.2994 45.0508 60.9994 45.0508H55.4494C54.8494 45.0508 54.3994 44.9008 54.0994 44.6008C53.7994 44.2674 53.5827 43.9674 53.4494 43.7008L47.3494 32.2508H41.2994V43.8008C41.2994 44.1674 41.1827 44.4674 40.9494 44.7008C40.7161 44.9341 40.4161 45.0508 40.0494 45.0508H34.5994ZM41.2994 25.9008H47.6994C49.5327 25.9008 50.8827 25.4841 51.7494 24.6508C52.6494 23.8174 53.0994 22.6508 53.0994 21.1508C53.0994 19.6508 52.6661 18.4674 51.7994 17.6008C50.9327 16.7341 49.5661 16.3008 47.6994 16.3008H41.2994V25.9008ZM81.185 45.5508C78.1516 45.5508 75.535 45.0508 73.335 44.0508C71.135 43.0508 69.4183 41.5508 68.185 39.5508C66.9516 37.5174 66.285 34.9674 66.185 31.9008C66.1516 30.4674 66.135 29.0508 66.135 27.6508C66.135 26.2174 66.1516 24.7674 66.185 23.3008C66.285 20.3008 66.9516 17.7841 68.185 15.7508C69.4516 13.6841 71.185 12.1341 73.385 11.1008C75.6183 10.0674 78.2183 9.55078 81.185 9.55078C84.1183 9.55078 86.685 10.0674 88.885 11.1008C91.1183 12.1341 92.8683 13.6841 94.135 15.7508C95.4016 17.7841 96.0683 20.3008 96.135 23.3008C96.2016 24.7674 96.235 26.2174 96.235 27.6508C96.235 29.0508 96.2016 30.4674 96.135 31.9008C96.035 34.9674 95.3683 37.5174 94.135 39.5508C92.9016 41.5508 91.185 43.0508 88.985 44.0508C86.785 45.0508 84.185 45.5508 81.185 45.5508ZM81.185 39.1008C83.1183 39.1008 84.7016 38.5174 85.935 37.3508C87.2016 36.1508 87.8683 34.2508 87.935 31.6508C88.0016 30.1841 88.035 28.8174 88.035 27.5508C88.035 26.2508 88.0016 24.8841 87.935 23.4508C87.9016 21.7174 87.585 20.3008 86.985 19.2008C86.385 18.1008 85.585 17.3008 84.585 16.8008C83.6183 16.2674 82.485 16.0008 81.185 16.0008C79.885 16.0008 78.735 16.2674 77.735 16.8008C76.735 17.3008 75.935 18.1008 75.335 19.2008C74.7683 20.3008 74.4516 21.7174 74.385 23.4508C74.3516 24.8841 74.335 26.2508 74.335 27.5508C74.335 28.8174 74.3516 30.1841 74.385 31.6508C74.485 34.2508 75.1516 36.1508 76.385 37.3508C77.6183 38.5174 79.2183 39.1008 81.185 39.1008ZM78.485 7.55078C77.9516 7.55078 77.685 7.28411 77.685 6.75078C77.685 6.48411 77.7683 6.26745 77.935 6.10078L82.185 0.95078C82.485 0.550779 82.7516 0.300779 82.985 0.200781C83.2516 0.0674469 83.6016 0.000780106 84.035 0.000780106H90.185C90.8183 0.000780106 91.135 0.334113 91.135 1.00078C91.135 1.23411 91.0516 1.43411 90.885 1.60078L84.435 6.85078C84.1683 7.08411 83.9016 7.26745 83.635 7.40078C83.3683 7.50078 83.0183 7.55078 82.585 7.55078H78.485ZM99.1252 45.0508C98.8252 45.0508 98.5752 44.9508 98.3752 44.7508C98.1752 44.5174 98.0752 44.2674 98.0752 44.0008C98.0752 43.9008 98.0919 43.8008 98.1252 43.7008C98.1585 43.6008 98.1919 43.5008 98.2252 43.4008L109.275 27.2008L98.9752 11.7008C98.8752 11.5008 98.8252 11.3008 98.8252 11.1008C98.8252 10.8341 98.9252 10.6008 99.1252 10.4008C99.3252 10.1674 99.5752 10.0508 99.8752 10.0508H106.025C106.459 10.0508 106.792 10.1674 107.025 10.4008C107.292 10.6341 107.492 10.8508 107.625 11.0508L114.325 21.0008L121.075 11.0508C121.209 10.8508 121.409 10.6341 121.675 10.4008C121.942 10.1674 122.292 10.0508 122.725 10.0508H128.575C128.842 10.0508 129.075 10.1674 129.275 10.4008C129.509 10.6008 129.625 10.8341 129.625 11.1008C129.625 11.3341 129.559 11.5341 129.425 11.7008L119.125 27.1508L130.225 43.4008C130.292 43.5008 130.325 43.6008 130.325 43.7008C130.359 43.8008 130.375 43.9008 130.375 44.0008C130.375 44.2674 130.275 44.5174 130.075 44.7508C129.875 44.9508 129.625 45.0508 129.325 45.0508H122.975C122.542 45.0508 122.192 44.9341 121.925 44.7008C121.692 44.4674 121.509 44.2674 121.375 44.1008L114.075 33.6008L106.825 44.1008C106.725 44.2674 106.542 44.4674 106.275 44.7008C106.042 44.9341 105.692 45.0508 105.225 45.0508H99.1252ZM136.064 45.0508C135.698 45.0508 135.398 44.9341 135.164 44.7008C134.931 44.4674 134.814 44.1674 134.814 43.8008V11.3008C134.814 10.9341 134.931 10.6341 135.164 10.4008C135.398 10.1674 135.698 10.0508 136.064 10.0508H141.714C142.081 10.0508 142.381 10.1674 142.614 10.4008C142.848 10.6341 142.964 10.9341 142.964 11.3008V43.8008C142.964 44.1674 142.848 44.4674 142.614 44.7008C142.381 44.9341 142.081 45.0508 141.714 45.0508H136.064ZM151.592 45.0508C151.258 45.0508 150.958 44.9341 150.692 44.7008C150.458 44.4674 150.342 44.1674 150.342 43.8008V11.3008C150.342 10.9341 150.458 10.6341 150.692 10.4008C150.958 10.1674 151.258 10.0508 151.592 10.0508H156.242C156.742 10.0508 157.108 10.1841 157.342 10.4508C157.608 10.7174 157.792 10.9174 157.892 11.0508L167.092 28.0008L176.392 11.0508C176.458 10.9174 176.608 10.7174 176.842 10.4508C177.108 10.1841 177.492 10.0508 177.992 10.0508H182.642C183.008 10.0508 183.308 10.1674 183.542 10.4008C183.775 10.6341 183.892 10.9341 183.892 11.3008V43.8008C183.892 44.1674 183.775 44.4674 183.542 44.7008C183.308 44.9341 183.008 45.0508 182.642 45.0508H177.542C177.208 45.0508 176.925 44.9341 176.692 44.7008C176.458 44.4674 176.342 44.1674 176.342 43.8008V23.6008L169.992 35.5008C169.825 35.8008 169.608 36.0674 169.342 36.3008C169.075 36.5341 168.725 36.6508 168.292 36.6508H165.942C165.508 36.6508 165.158 36.5341 164.892 36.3008C164.625 36.0674 164.408 35.8008 164.242 35.5008L157.892 23.6008V43.8008C157.892 44.1674 157.775 44.4674 157.542 44.7008C157.308 44.9341 157.025 45.0508 156.692 45.0508H151.592ZM205.208 45.5508C202.175 45.5508 199.558 45.0508 197.358 44.0508C195.158 43.0508 193.442 41.5508 192.208 39.5508C190.975 37.5174 190.308 34.9674 190.208 31.9008C190.175 30.4674 190.158 29.0508 190.158 27.6508C190.158 26.2174 190.175 24.7674 190.208 23.3008C190.308 20.3008 190.975 17.7841 192.208 15.7508C193.475 13.6841 195.208 12.1341 197.408 11.1008C199.642 10.0674 202.242 9.55078 205.208 9.55078C208.142 9.55078 210.708 10.0674 212.908 11.1008C215.142 12.1341 216.892 13.6841 218.158 15.7508C219.425 17.7841 220.092 20.3008 220.158 23.3008C220.225 24.7674 220.258 26.2174 220.258 27.6508C220.258 29.0508 220.225 30.4674 220.158 31.9008C220.058 34.9674 219.392 37.5174 218.158 39.5508C216.925 41.5508 215.208 43.0508 213.008 44.0508C210.808 45.0508 208.208 45.5508 205.208 45.5508ZM205.208 39.1008C207.142 39.1008 208.725 38.5174 209.958 37.3508C211.225 36.1508 211.892 34.2508 211.958 31.6508C212.025 30.1841 212.058 28.8174 212.058 27.5508C212.058 26.2508 212.025 24.8841 211.958 23.4508C211.925 21.7174 211.608 20.3008 211.008 19.2008C210.408 18.1008 209.608 17.3008 208.608 16.8008C207.642 16.2674 206.508 16.0008 205.208 16.0008C203.908 16.0008 202.758 16.2674 201.758 16.8008C200.758 17.3008 199.958 18.1008 199.358 19.2008C198.792 20.3008 198.475 21.7174 198.408 23.4508C198.375 24.8841 198.358 26.2508 198.358 27.5508C198.358 28.8174 198.375 30.1841 198.408 31.6508C198.508 34.2508 199.175 36.1508 200.408 37.3508C201.642 38.5174 203.242 39.1008 205.208 39.1008ZM239.065 45.5508C235.865 45.5508 233.181 45.0841 231.015 44.1508C228.881 43.2174 227.265 42.0008 226.165 40.5008C225.065 39.0008 224.481 37.4008 224.415 35.7008C224.415 35.4341 224.515 35.2008 224.715 35.0008C224.915 34.7674 225.165 34.6508 225.465 34.6508H230.815C231.248 34.6508 231.581 34.7508 231.815 34.9508C232.048 35.1174 232.265 35.3341 232.465 35.6008C232.698 36.1674 233.065 36.7174 233.565 37.2508C234.098 37.7841 234.815 38.2341 235.715 38.6008C236.615 38.9341 237.731 39.1008 239.065 39.1008C241.231 39.1008 242.848 38.7508 243.915 38.0508C245.015 37.3508 245.565 36.4008 245.565 35.2008C245.565 34.3341 245.265 33.6341 244.665 33.1008C244.098 32.5674 243.181 32.0841 241.915 31.6508C240.681 31.2174 239.031 30.7508 236.965 30.2508C234.465 29.7174 232.331 29.0341 230.565 28.2008C228.831 27.3341 227.515 26.2341 226.615 24.9008C225.748 23.5341 225.315 21.8508 225.315 19.8508C225.315 17.8508 225.865 16.0841 226.965 14.5508C228.065 12.9841 229.615 11.7674 231.615 10.9008C233.615 10.0008 235.998 9.55078 238.765 9.55078C240.998 9.55078 242.965 9.85078 244.665 10.4508C246.398 11.0508 247.831 11.8341 248.965 12.8008C250.131 13.7674 251.015 14.8008 251.615 15.9008C252.215 17.0008 252.531 18.0674 252.565 19.1008C252.565 19.3674 252.465 19.6174 252.265 19.8508C252.065 20.0508 251.815 20.1508 251.515 20.1508H245.915C245.581 20.1508 245.281 20.0841 245.015 19.9508C244.748 19.8174 244.531 19.5841 244.365 19.2508C244.165 18.3841 243.565 17.6341 242.565 17.0008C241.598 16.3341 240.331 16.0008 238.765 16.0008C237.131 16.0008 235.831 16.3008 234.865 16.9008C233.931 17.5008 233.465 18.4174 233.465 19.6508C233.465 20.4508 233.698 21.1341 234.165 21.7008C234.665 22.2341 235.481 22.7174 236.615 23.1508C237.781 23.5508 239.315 24.0008 241.215 24.5008C244.148 25.1008 246.531 25.8174 248.365 26.6508C250.198 27.4841 251.548 28.5674 252.415 29.9008C253.281 31.2008 253.715 32.8508 253.715 34.8508C253.715 37.0841 253.081 39.0008 251.815 40.6008C250.581 42.2008 248.865 43.4341 246.665 44.3008C244.498 45.1341 241.965 45.5508 239.065 45.5508ZM271.367 45.0508C271 45.0508 270.7 44.9341 270.467 44.7008C270.234 44.4674 270.117 44.1674 270.117 43.8008V11.3008C270.117 10.9341 270.234 10.6341 270.467 10.4008C270.7 10.1674 271 10.0508 271.367 10.0508H294.017C294.384 10.0508 294.684 10.1674 294.917 10.4008C295.15 10.6341 295.267 10.9341 295.267 11.3008V15.3008C295.267 15.6341 295.15 15.9174 294.917 16.1508C294.684 16.3841 294.384 16.5008 294.017 16.5008H277.817V24.3508H292.917C293.284 24.3508 293.584 24.4674 293.817 24.7008C294.05 24.9341 294.167 25.2341 294.167 25.6008V29.3008C294.167 29.6341 294.05 29.9174 293.817 30.1508C293.584 30.3841 293.284 30.5008 292.917 30.5008H277.817V38.6008H294.417C294.784 38.6008 295.084 38.7174 295.317 38.9508C295.55 39.1841 295.667 39.4841 295.667 39.8508V43.8008C295.667 44.1674 295.55 44.4674 295.317 44.7008C295.084 44.9341 294.784 45.0508 294.417 45.0508H271.367ZM311.467 45.0508C310.934 45.0508 310.5 44.9174 310.167 44.6508C309.867 44.3508 309.65 44.0008 309.517 43.6008L299.017 11.5508C298.984 11.3841 298.967 11.2341 298.967 11.1008C298.967 10.8341 299.067 10.6008 299.267 10.4008C299.467 10.1674 299.717 10.0508 300.017 10.0508H305.267C305.767 10.0508 306.15 10.2008 306.417 10.5008C306.717 10.7674 306.9 11.0174 306.967 11.2508L314.767 35.7008L322.517 11.2508C322.617 11.0174 322.8 10.7674 323.067 10.5008C323.334 10.2008 323.717 10.0508 324.217 10.0508H329.467C329.767 10.0508 330.017 10.1674 330.217 10.4008C330.417 10.6008 330.517 10.8341 330.517 11.1008C330.517 11.2341 330.5 11.3841 330.467 11.5508L319.967 43.6008C319.867 44.0008 319.65 44.3508 319.317 44.6508C319.017 44.9174 318.584 45.0508 318.017 45.0508H311.467ZM336.748 45.0508C336.381 45.0508 336.081 44.9341 335.848 44.7008C335.615 44.4674 335.498 44.1674 335.498 43.8008V11.3008C335.498 10.9341 335.615 10.6341 335.848 10.4008C336.081 10.1674 336.381 10.0508 336.748 10.0508H359.398C359.765 10.0508 360.065 10.1674 360.298 10.4008C360.531 10.6341 360.648 10.9341 360.648 11.3008V15.3008C360.648 15.6341 360.531 15.9174 360.298 16.1508C360.065 16.3841 359.765 16.5008 359.398 16.5008H343.198V24.3508H358.298C358.665 24.3508 358.965 24.4674 359.198 24.7008C359.431 24.9341 359.548 25.2341 359.548 25.6008V29.3008C359.548 29.6341 359.431 29.9174 359.198 30.1508C358.965 30.3841 358.665 30.5008 358.298 30.5008H343.198V38.6008H359.798C360.165 38.6008 360.465 38.7174 360.698 38.9508C360.931 39.1841 361.048 39.4841 361.048 39.8508V43.8008C361.048 44.1674 360.931 44.4674 360.698 44.7008C360.465 44.9341 360.165 45.0508 359.798 45.0508H336.748ZM368.242 45.0508C367.875 45.0508 367.575 44.9341 367.342 44.7008C367.109 44.4674 366.992 44.1674 366.992 43.8008V11.3008C366.992 10.9341 367.109 10.6341 367.342 10.4008C367.575 10.1674 367.875 10.0508 368.242 10.0508H372.792C373.292 10.0508 373.659 10.1674 373.892 10.4008C374.125 10.6341 374.275 10.8174 374.342 10.9508L387.692 31.8008V11.3008C387.692 10.9341 387.809 10.6341 388.042 10.4008C388.275 10.1674 388.559 10.0508 388.892 10.0508H393.992C394.359 10.0508 394.659 10.1674 394.892 10.4008C395.125 10.6341 395.242 10.9341 395.242 11.3008V43.8008C395.242 44.1341 395.125 44.4341 394.892 44.7008C394.659 44.9341 394.359 45.0508 393.992 45.0508H389.392C388.892 45.0508 388.525 44.9341 388.292 44.7008C388.092 44.4341 387.942 44.2508 387.842 44.1508L374.542 23.9508V43.8008C374.542 44.1674 374.425 44.4674 374.192 44.7008C373.959 44.9341 373.659 45.0508 373.292 45.0508H368.242ZM411.587 45.0508C411.22 45.0508 410.92 44.9341 410.687 44.7008C410.453 44.4674 410.337 44.1674 410.337 43.8008V17.0008H401.237C400.903 17.0008 400.62 16.8841 400.387 16.6508C400.153 16.4174 400.037 16.1341 400.037 15.8008V11.3008C400.037 10.9341 400.153 10.6341 400.387 10.4008C400.62 10.1674 400.903 10.0508 401.237 10.0508H427.437C427.803 10.0508 428.103 10.1674 428.337 10.4008C428.57 10.6341 428.687 10.9341 428.687 11.3008V15.8008C428.687 16.1341 428.57 16.4174 428.337 16.6508C428.103 16.8841 427.803 17.0008 427.437 17.0008H418.387V43.8008C418.387 44.1674 418.27 44.4674 418.037 44.7008C417.803 44.9341 417.503 45.0508 417.137 45.0508H411.587ZM446.81 45.5508C443.777 45.5508 441.16 45.0508 438.96 44.0508C436.76 43.0508 435.043 41.5508 433.81 39.5508C432.577 37.5174 431.91 34.9674 431.81 31.9008C431.777 30.4674 431.76 29.0508 431.76 27.6508C431.76 26.2174 431.777 24.7674 431.81 23.3008C431.91 20.3008 432.577 17.7841 433.81 15.7508C435.077 13.6841 436.81 12.1341 439.01 11.1008C441.243 10.0674 443.843 9.55078 446.81 9.55078C449.743 9.55078 452.31 10.0674 454.51 11.1008C456.743 12.1341 458.493 13.6841 459.76 15.7508C461.027 17.7841 461.693 20.3008 461.76 23.3008C461.827 24.7674 461.86 26.2174 461.86 27.6508C461.86 29.0508 461.827 30.4674 461.76 31.9008C461.66 34.9674 460.993 37.5174 459.76 39.5508C458.527 41.5508 456.81 43.0508 454.61 44.0508C452.41 45.0508 449.81 45.5508 446.81 45.5508ZM446.81 39.1008C448.743 39.1008 450.327 38.5174 451.56 37.3508C452.827 36.1508 453.493 34.2508 453.56 31.6508C453.627 30.1841 453.66 28.8174 453.66 27.5508C453.66 26.2508 453.627 24.8841 453.56 23.4508C453.527 21.7174 453.21 20.3008 452.61 19.2008C452.01 18.1008 451.21 17.3008 450.21 16.8008C449.243 16.2674 448.11 16.0008 446.81 16.0008C445.51 16.0008 444.36 16.2674 443.36 16.8008C442.36 17.3008 441.56 18.1008 440.96 19.2008C440.393 20.3008 440.077 21.7174 440.01 23.4508C439.977 24.8841 439.96 26.2508 439.96 27.5508C439.96 28.8174 439.977 30.1841 440.01 31.6508C440.11 34.2508 440.777 36.1508 442.01 37.3508C443.243 38.5174 444.843 39.1008 446.81 39.1008ZM480.666 45.5508C477.466 45.5508 474.783 45.0841 472.616 44.1508C470.483 43.2174 468.866 42.0008 467.766 40.5008C466.666 39.0008 466.083 37.4008 466.016 35.7008C466.016 35.4341 466.116 35.2008 466.316 35.0008C466.516 34.7674 466.766 34.6508 467.066 34.6508H472.416C472.85 34.6508 473.183 34.7508 473.416 34.9508C473.65 35.1174 473.866 35.3341 474.066 35.6008C474.3 36.1674 474.666 36.7174 475.166 37.2508C475.7 37.7841 476.416 38.2341 477.316 38.6008C478.216 38.9341 479.333 39.1008 480.666 39.1008C482.833 39.1008 484.45 38.7508 485.516 38.0508C486.616 37.3508 487.166 36.4008 487.166 35.2008C487.166 34.3341 486.866 33.6341 486.266 33.1008C485.7 32.5674 484.783 32.0841 483.516 31.6508C482.283 31.2174 480.633 30.7508 478.566 30.2508C476.066 29.7174 473.933 29.0341 472.166 28.2008C470.433 27.3341 469.116 26.2341 468.216 24.9008C467.35 23.5341 466.916 21.8508 466.916 19.8508C466.916 17.8508 467.466 16.0841 468.566 14.5508C469.666 12.9841 471.216 11.7674 473.216 10.9008C475.216 10.0008 477.6 9.55078 480.366 9.55078C482.6 9.55078 484.566 9.85078 486.266 10.4508C488 11.0508 489.433 11.8341 490.566 12.8008C491.733 13.7674 492.616 14.8008 493.216 15.9008C493.816 17.0008 494.133 18.0674 494.166 19.1008C494.166 19.3674 494.066 19.6174 493.866 19.8508C493.666 20.0508 493.416 20.1508 493.116 20.1508H487.516C487.183 20.1508 486.883 20.0841 486.616 19.9508C486.35 19.8174 486.133 19.5841 485.966 19.2508C485.766 18.3841 485.166 17.6341 484.166 17.0008C483.2 16.3341 481.933 16.0008 480.366 16.0008C478.733 16.0008 477.433 16.3008 476.466 16.9008C475.533 17.5008 475.066 18.4174 475.066 19.6508C475.066 20.4508 475.3 21.1341 475.766 21.7008C476.266 22.2341 477.083 22.7174 478.216 23.1508C479.383 23.5508 480.916 24.0008 482.816 24.5008C485.75 25.1008 488.133 25.8174 489.966 26.6508C491.8 27.4841 493.15 28.5674 494.016 29.9008C494.883 31.2008 495.316 32.8508 495.316 34.8508C495.316 37.0841 494.683 39.0008 493.416 40.6008C492.183 42.2008 490.466 43.4341 488.266 44.3008C486.1 45.1341 483.566 45.5508 480.666 45.5508Z" fill="#6D2E46"/>
</svg>
