<svg width="376" height="87" viewBox="0 0 376 87" fill="none" xmlns="http://www.w3.org/2000/svg">
<path d="M3.00009 85.4395C2.12009 85.4395 1.40009 85.1595 0.840088 84.5995C0.280088 84.0395 8.80659e-05 83.3195 8.80659e-05 82.4395V75.2395C8.80659e-05 74.5995 0.160088 73.7595 0.480088 72.7195C0.880088 71.5995 1.72009 70.5195 3.00009 69.4795L18.8401 53.7595C24.6801 49.2795 29.4001 45.4795 33.0001 42.3594C36.6801 39.2394 39.4001 36.3995 41.1601 33.8395C42.9201 31.2795 43.8001 28.7995 43.8001 26.3995C43.8001 23.2795 42.9201 20.7194 41.1601 18.7194C39.4801 16.6394 36.7201 15.5995 32.8801 15.5995C30.3201 15.5995 28.1601 16.1595 26.4001 17.2795C24.7201 18.3195 23.4001 19.7195 22.4401 21.4794C21.4801 23.2394 20.8401 25.1594 20.5201 27.2395C20.2801 28.2794 19.7601 28.9995 18.9601 29.3995C18.2401 29.7995 17.4801 29.9995 16.6801 29.9995H3.96009C3.16009 29.9995 2.52009 29.7595 2.04009 29.2795C1.56009 28.7195 1.32009 28.1195 1.32009 27.4795C1.40009 23.7994 2.16009 20.3194 3.60009 17.0394C5.12009 13.7595 7.24009 10.8395 9.96009 8.27945C12.6801 5.71945 15.9601 3.71945 19.8001 2.27945C23.6401 0.759451 28.0001 -0.000548363 32.8801 -0.000548363C39.6001 -0.000548363 45.2401 1.11945 49.8001 3.35945C54.3601 5.51945 57.8001 8.51945 60.1201 12.3594C62.4401 16.1994 63.6001 20.6394 63.6001 25.6795C63.6001 29.5195 62.8001 33.0795 61.2001 36.3595C59.6801 39.6395 57.4401 42.7995 54.4801 45.8395C51.5201 48.7995 48.0001 51.8795 43.9201 55.0795L29.7601 69.2395H62.4001C63.2801 69.2395 64.0001 69.5195 64.5601 70.0795C65.1201 70.6395 65.4001 71.3595 65.4001 72.2395V82.4395C65.4001 83.3195 65.1201 84.0395 64.5601 84.5995C64.0001 85.1595 63.2801 85.4395 62.4001 85.4395H3.00009ZM108.455 86.7595C101.255 86.7595 95.2148 85.5995 90.3348 83.2795C85.4548 80.9595 81.7348 77.9195 79.1748 74.1595C76.6948 70.3995 75.3748 66.3995 75.2148 62.1595C75.2148 61.4395 75.4548 60.8395 75.9348 60.3595C76.4148 59.8795 77.0148 59.6395 77.7348 59.6395H91.2948C92.2548 59.6395 93.0148 59.8795 93.5748 60.3595C94.2148 60.7595 94.6948 61.3195 95.0148 62.0395C95.8148 64.1995 96.8548 65.9595 98.1348 67.3195C99.4948 68.6795 101.055 69.6795 102.815 70.3195C104.575 70.9595 106.455 71.2795 108.455 71.2795C111.015 71.2795 113.375 70.7595 115.535 69.7195C117.695 68.5995 119.415 66.9995 120.695 64.9195C121.975 62.8395 122.615 60.2795 122.615 57.2395C122.615 54.5995 122.015 52.2795 120.815 50.2795C119.615 48.2795 117.935 46.7195 115.775 45.5995C113.615 44.4795 111.175 43.9195 108.455 43.9195C106.375 43.9195 104.655 44.1595 103.295 44.6395C102.015 45.1195 100.935 45.7195 100.055 46.4395C99.1748 47.0795 98.3748 47.6795 97.6548 48.2395C96.9348 48.7195 96.1348 48.9595 95.2548 48.9595H81.9348C81.2148 48.9595 80.5748 48.7195 80.0148 48.2395C79.5348 47.6795 79.2948 47.0395 79.2948 46.3195L83.4948 4.91945C83.6548 3.79945 84.0548 2.95945 84.6948 2.39945C85.4148 1.75945 86.2548 1.43945 87.2148 1.43945H133.775C134.655 1.43945 135.375 1.71945 135.935 2.27945C136.495 2.83945 136.775 3.55945 136.775 4.43945V14.0394C136.775 14.8394 136.495 15.5194 135.935 16.0795C135.375 16.6394 134.655 16.9194 133.775 16.9194H99.0948L97.2948 34.5595C98.8948 33.5195 100.855 32.5995 103.175 31.7994C105.575 30.9194 108.895 30.4794 113.135 30.4794C116.975 30.4794 120.615 31.1194 124.055 32.3994C127.575 33.5995 130.695 35.3995 133.415 37.7995C136.135 40.1995 138.255 43.0795 139.775 46.4395C141.375 49.7195 142.175 53.4795 142.175 57.7195C142.175 63.4795 140.815 68.5595 138.095 72.9595C135.375 77.2795 131.495 80.6795 126.455 83.1595C121.415 85.5595 115.415 86.7595 108.455 86.7595ZM186.795 86.6395C181.035 86.6395 176.075 85.8395 171.915 84.2395C167.835 82.5595 164.435 80.2795 161.715 77.3995C159.075 74.4395 157.075 71.0395 155.715 67.1995C154.435 63.2795 153.675 59.1195 153.435 54.7195C153.355 52.5595 153.275 50.1595 153.195 47.5195C153.195 44.7995 153.195 42.0795 153.195 39.3595C153.275 36.6395 153.355 34.1595 153.435 31.9195C153.595 27.5194 154.355 23.3994 155.715 19.5595C157.155 15.7195 159.235 12.3595 161.955 9.47945C164.675 6.59945 168.075 4.35945 172.155 2.75945C176.315 1.07945 181.195 0.239449 186.795 0.239449C192.395 0.239449 197.235 1.07945 201.315 2.75945C205.395 4.35945 208.795 6.59945 211.515 9.47945C214.235 12.3595 216.275 15.7195 217.635 19.5595C219.075 23.3994 219.915 27.5194 220.155 31.9195C220.235 34.1595 220.275 36.6395 220.275 39.3595C220.355 42.0795 220.355 44.7995 220.275 47.5195C220.275 50.1595 220.235 52.5595 220.155 54.7195C219.915 59.1195 219.115 63.2795 217.755 67.1995C216.395 71.0395 214.355 74.4395 211.635 77.3995C208.995 80.2795 205.595 82.5595 201.435 84.2395C197.355 85.8395 192.475 86.6395 186.795 86.6395ZM186.795 71.0395C191.435 71.0395 194.835 69.5195 196.995 66.4795C199.155 63.4395 200.315 59.3195 200.475 54.1195C200.555 51.7995 200.595 49.3995 200.595 46.9195C200.675 44.4395 200.675 41.9595 200.595 39.4795C200.595 36.9994 200.555 34.6794 200.475 32.5195C200.315 27.5595 199.155 23.5194 196.995 20.3994C194.835 17.2794 191.435 15.6795 186.795 15.5995C182.075 15.6795 178.635 17.2794 176.475 20.3994C174.395 23.5194 173.275 27.5595 173.115 32.5195C173.035 34.6794 172.955 36.9994 172.875 39.4795C172.875 41.9595 172.875 44.4395 172.875 46.9195C172.955 49.3995 173.035 51.7995 173.115 54.1195C173.275 59.3195 174.435 63.4395 176.595 66.4795C178.755 69.5195 182.155 71.0395 186.795 71.0395ZM266.951 86.6395C261.191 86.6395 256.231 85.8395 252.071 84.2395C247.991 82.5595 244.591 80.2795 241.871 77.3995C239.231 74.4395 237.231 71.0395 235.871 67.1995C234.591 63.2795 233.831 59.1195 233.591 54.7195C233.511 52.5595 233.431 50.1595 233.351 47.5195C233.351 44.7995 233.351 42.0795 233.351 39.3595C233.431 36.6395 233.511 34.1595 233.591 31.9195C233.751 27.5194 234.511 23.3994 235.871 19.5595C237.311 15.7195 239.391 12.3595 242.111 9.47945C244.831 6.59945 248.231 4.35945 252.311 2.75945C256.471 1.07945 261.351 0.239449 266.951 0.239449C272.551 0.239449 277.391 1.07945 281.471 2.75945C285.551 4.35945 288.951 6.59945 291.671 9.47945C294.391 12.3595 296.431 15.7195 297.791 19.5595C299.231 23.3994 300.071 27.5194 300.311 31.9195C300.391 34.1595 300.431 36.6395 300.431 39.3595C300.511 42.0795 300.511 44.7995 300.431 47.5195C300.431 50.1595 300.391 52.5595 300.311 54.7195C300.071 59.1195 299.271 63.2795 297.911 67.1995C296.551 71.0395 294.511 74.4395 291.791 77.3995C289.151 80.2795 285.751 82.5595 281.591 84.2395C277.511 85.8395 272.631 86.6395 266.951 86.6395ZM266.951 71.0395C271.591 71.0395 274.991 69.5195 277.151 66.4795C279.311 63.4395 280.471 59.3195 280.631 54.1195C280.711 51.7995 280.751 49.3995 280.751 46.9195C280.831 44.4395 280.831 41.9595 280.751 39.4795C280.751 36.9994 280.711 34.6794 280.631 32.5195C280.471 27.5595 279.311 23.5194 277.151 20.3994C274.991 17.2794 271.591 15.6795 266.951 15.5995C262.231 15.6795 258.791 17.2794 256.631 20.3994C254.551 23.5194 253.431 27.5595 253.271 32.5195C253.191 34.6794 253.111 36.9994 253.031 39.4795C253.031 41.9595 253.031 44.4395 253.031 46.9195C253.111 49.3995 253.191 51.7995 253.271 54.1195C253.431 59.3195 254.591 63.4395 256.751 66.4795C258.911 69.5195 262.311 71.0395 266.951 71.0395ZM339.548 81.4795C338.668 81.4795 337.948 81.1995 337.388 80.6395C336.828 80.0795 336.548 79.3595 336.548 78.4795V55.7995H314.348C313.468 55.7995 312.748 55.5195 312.188 54.9595C311.628 54.3995 311.348 53.7195 311.348 52.9194V45.3595C311.348 44.4794 311.628 43.7594 312.188 43.1994C312.748 42.6394 313.468 42.3594 314.348 42.3594H336.548V20.3994C336.548 19.5194 336.828 18.7995 337.388 18.2395C337.948 17.6795 338.668 17.3994 339.548 17.3994H347.828C348.708 17.3994 349.428 17.6795 349.988 18.2395C350.548 18.7995 350.828 19.5194 350.828 20.3994V42.3594H373.028C373.828 42.3594 374.508 42.6394 375.068 43.1994C375.628 43.7594 375.908 44.4794 375.908 45.3595V52.9194C375.908 53.7195 375.628 54.3995 375.068 54.9595C374.508 55.5195 373.828 55.7995 373.028 55.7995H350.828V78.4795C350.828 79.3595 350.548 80.0795 349.988 80.6395C349.428 81.1995 348.708 81.4795 347.828 81.4795H339.548Z" fill="#6D2E46"/>
</svg>
