<svg width="218" height="86" viewBox="0 0 218 86" fill="none" xmlns="http://www.w3.org/2000/svg">
<path d="M33.9601 85.2C28.0401 85.2 22.9601 84.48 18.7201 83.04C14.4801 81.6 11 79.76 8.28005 77.52C5.56005 75.28 3.52005 72.84 2.16005 70.2C0.800049 67.48 0.080049 64.88 4.8846e-05 62.4C4.8846e-05 61.68 0.240049 61.08 0.720049 60.6C1.20005 60.12 1.80005 59.88 2.52005 59.88H15.72C16.6 59.88 17.32 60.08 17.8801 60.48C18.4401 60.8 18.9601 61.4 19.4401 62.28C20.0801 64.12 21.1201 65.6 22.56 66.72C24 67.84 25.6801 68.64 27.6001 69.12C29.6001 69.52 31.7201 69.72 33.9601 69.72C38.4401 69.72 41.9601 68.68 44.5201 66.6C47.0801 64.52 48.3601 61.6 48.3601 57.84C48.3601 54 47.1601 51.24 44.7601 49.56C42.3601 47.88 38.9601 47.04 34.5601 47.04H21.72C20.9201 47.04 20.2401 46.76 19.6801 46.2C19.12 45.64 18.84 44.96 18.84 44.16V38.28C18.84 37.32 19 36.52 19.3201 35.88C19.72 35.24 20.12 34.76 20.5201 34.44L41.1601 15.48H7.32005C6.44005 15.48 5.72005 15.2 5.16005 14.64C4.60005 14.08 4.32005 13.4 4.32005 12.6V3C4.32005 2.12 4.60005 1.4 5.16005 0.839998C5.72005 0.279995 6.44005 -5.72205e-06 7.32005 -5.72205e-06H60.6001C61.48 -5.72205e-06 62.2 0.279995 62.7601 0.839998C63.32 1.4 63.6 2.12 63.6 3V11.64C63.6 12.52 63.4401 13.28 63.1201 13.92C62.8001 14.48 62.4001 14.92 61.92 15.24L42.3601 34.56L43.5601 34.68C48.2801 35.16 52.4801 36.32 56.1601 38.16C59.8401 40 62.7201 42.64 64.8001 46.08C66.9601 49.44 68.0401 53.72 68.0401 58.92C68.0401 64.36 66.5601 69.04 63.6 72.96C60.64 76.88 56.6 79.92 51.4801 82.08C46.36 84.16 40.5201 85.2 33.9601 85.2ZM110.587 85.32C103.387 85.32 97.3466 84.16 92.4666 81.84C87.5866 79.52 83.8666 76.48 81.3066 72.72C78.8266 68.96 77.5066 64.96 77.3466 60.72C77.3466 60 77.5866 59.4 78.0666 58.92C78.5466 58.44 79.1466 58.2 79.8666 58.2H93.4266C94.3866 58.2 95.1466 58.44 95.7066 58.92C96.3466 59.32 96.8266 59.88 97.1466 60.6C97.9466 62.76 98.9866 64.52 100.267 65.88C101.627 67.24 103.187 68.24 104.947 68.88C106.707 69.52 108.587 69.84 110.587 69.84C113.147 69.84 115.507 69.32 117.667 68.28C119.827 67.16 121.547 65.56 122.827 63.48C124.107 61.4 124.747 58.84 124.747 55.8C124.747 53.16 124.147 50.84 122.947 48.84C121.747 46.84 120.067 45.28 117.907 44.16C115.747 43.04 113.307 42.48 110.587 42.48C108.507 42.48 106.787 42.72 105.427 43.2C104.147 43.68 103.067 44.28 102.187 45C101.307 45.64 100.507 46.24 99.7866 46.8C99.0666 47.28 98.2666 47.52 97.3866 47.52H84.0666C83.3466 47.52 82.7066 47.28 82.1466 46.8C81.6666 46.24 81.4266 45.6 81.4266 44.88L85.6266 3.48C85.7866 2.35999 86.1866 1.51999 86.8266 0.959996C87.5466 0.319995 88.3866 -5.72205e-06 89.3466 -5.72205e-06H135.907C136.787 -5.72205e-06 137.507 0.279995 138.067 0.839998C138.627 1.4 138.907 2.12 138.907 3V12.6C138.907 13.4 138.627 14.08 138.067 14.64C137.507 15.2 136.787 15.48 135.907 15.48H101.227L99.4266 33.12C101.027 32.08 102.987 31.16 105.307 30.36C107.707 29.48 111.027 29.04 115.267 29.04C119.107 29.04 122.747 29.68 126.187 30.96C129.707 32.16 132.827 33.96 135.547 36.36C138.267 38.76 140.387 41.64 141.907 45C143.507 48.28 144.307 52.04 144.307 56.28C144.307 62.04 142.947 67.12 140.227 71.52C137.507 75.84 133.627 79.24 128.587 81.72C123.547 84.12 117.547 85.32 110.587 85.32ZM181.367 80.04C180.487 80.04 179.767 79.76 179.207 79.2C178.647 78.64 178.367 77.92 178.367 77.04V54.36H156.167C155.287 54.36 154.567 54.08 154.007 53.52C153.447 52.96 153.167 52.28 153.167 51.48V43.92C153.167 43.04 153.447 42.32 154.007 41.76C154.567 41.2 155.287 40.92 156.167 40.92H178.367V18.96C178.367 18.08 178.647 17.36 179.207 16.8C179.767 16.24 180.487 15.96 181.367 15.96H189.647C190.527 15.96 191.247 16.24 191.807 16.8C192.367 17.36 192.647 18.08 192.647 18.96V40.92H214.847C215.647 40.92 216.327 41.2 216.887 41.76C217.447 42.32 217.727 43.04 217.727 43.92V51.48C217.727 52.28 217.447 52.96 216.887 53.52C216.327 54.08 215.647 54.36 214.847 54.36H192.647V77.04C192.647 77.92 192.367 78.64 191.807 79.2C191.247 79.76 190.527 80.04 189.647 80.04H181.367Z" fill="#6D2E46"/>
</svg>
