<svg width="379" height="87" viewBox="0 0 379 87" fill="none" xmlns="http://www.w3.org/2000/svg">
<path d="M33.9598 86.3992C28.0398 86.3992 22.9598 85.6792 18.7198 84.2392C14.4798 82.7992 10.9998 80.9592 8.2798 78.7192C5.5598 76.4792 3.5198 74.0392 2.15981 71.3992C0.799805 68.6792 0.0798049 66.0792 -0.000195295 63.5992C-0.000195295 62.8792 0.239805 62.2792 0.719805 61.7992C1.1998 61.3192 1.7998 61.0792 2.5198 61.0792H15.7198C16.5998 61.0792 17.3198 61.2792 17.8798 61.6792C18.4398 61.9992 18.9598 62.5992 19.4398 63.4792C20.0798 65.3192 21.1198 66.7992 22.5598 67.9192C23.9998 69.0392 25.6798 69.8392 27.5998 70.3192C29.5998 70.7192 31.7198 70.9192 33.9598 70.9192C38.4398 70.9192 41.9598 69.8792 44.5198 67.7992C47.0798 65.7192 48.3598 62.7992 48.3598 59.0392C48.3598 55.1992 47.1598 52.4392 44.7598 50.7592C42.3598 49.0792 38.9598 48.2392 34.5598 48.2392H21.7198C20.9198 48.2392 20.2398 47.9592 19.6798 47.3992C19.1198 46.8392 18.8398 46.1592 18.8398 45.3592V39.4792C18.8398 38.5192 18.9998 37.7192 19.3198 37.0792C19.7198 36.4392 20.1198 35.9592 20.5198 35.6392L41.1598 16.6792H7.3198C6.4398 16.6792 5.7198 16.3992 5.1598 15.8392C4.5998 15.2792 4.3198 14.5992 4.3198 13.7992V4.19922C4.3198 3.31921 4.5998 2.59921 5.1598 2.03922C5.7198 1.47921 6.4398 1.19921 7.3198 1.19921H60.5998C61.4798 1.19921 62.1998 1.47921 62.7598 2.03922C63.3198 2.59921 63.5998 3.31921 63.5998 4.19922V12.8392C63.5998 13.7192 63.4398 14.4792 63.1198 15.1192C62.7998 15.6792 62.3998 16.1192 61.9198 16.4392L42.3598 35.7592L43.5598 35.8792C48.2798 36.3592 52.4798 37.5192 56.1598 39.3592C59.8398 41.1992 62.7198 43.8392 64.7998 47.2792C66.9598 50.6392 68.0398 54.9192 68.0398 60.1192C68.0398 65.5592 66.5598 70.2392 63.5998 74.1592C60.6398 78.0792 56.5998 81.1192 51.4798 83.2792C46.3598 85.3592 40.5198 86.3992 33.9598 86.3992ZM110.586 86.5192C103.386 86.5192 97.3464 85.3592 92.4664 83.0392C87.5864 80.7192 83.8664 77.6792 81.3064 73.9192C78.8264 70.1592 77.5064 66.1592 77.3464 61.9192C77.3464 61.1992 77.5864 60.5992 78.0664 60.1192C78.5464 59.6392 79.1464 59.3992 79.8664 59.3992H93.4264C94.3864 59.3992 95.1464 59.6392 95.7064 60.1192C96.3464 60.5192 96.8264 61.0792 97.1464 61.7992C97.9464 63.9592 98.9864 65.7192 100.266 67.0792C101.626 68.4392 103.186 69.4392 104.946 70.0792C106.706 70.7192 108.586 71.0392 110.586 71.0392C113.146 71.0392 115.506 70.5192 117.666 69.4792C119.826 68.3592 121.546 66.7592 122.826 64.6792C124.106 62.5992 124.746 60.0392 124.746 56.9992C124.746 54.3592 124.146 52.0392 122.946 50.0392C121.746 48.0392 120.066 46.4792 117.906 45.3592C115.746 44.2392 113.306 43.6792 110.586 43.6792C108.506 43.6792 106.786 43.9192 105.426 44.3992C104.146 44.8792 103.066 45.4792 102.186 46.1992C101.306 46.8392 100.506 47.4392 99.7864 47.9992C99.0664 48.4792 98.2664 48.7192 97.3864 48.7192H84.0664C83.3464 48.7192 82.7064 48.4792 82.1464 47.9992C81.6664 47.4392 81.4264 46.7992 81.4264 46.0792L85.6264 4.67922C85.7864 3.55921 86.1864 2.71921 86.8264 2.15921C87.5464 1.51921 88.3864 1.19921 89.3464 1.19921H135.906C136.786 1.19921 137.506 1.47921 138.066 2.03922C138.626 2.59921 138.906 3.31921 138.906 4.19922V13.7992C138.906 14.5992 138.626 15.2792 138.066 15.8392C137.506 16.3992 136.786 16.6792 135.906 16.6792H101.226L99.4264 34.3192C101.026 33.2792 102.986 32.3592 105.306 31.5592C107.706 30.6792 111.026 30.2392 115.266 30.2392C119.106 30.2392 122.746 30.8792 126.186 32.1592C129.706 33.3592 132.826 35.1592 135.546 37.5592C138.266 39.9592 140.386 42.8392 141.906 46.1992C143.506 49.4792 144.306 53.2392 144.306 57.4792C144.306 63.2392 142.946 68.3192 140.226 72.7192C137.506 77.0392 133.626 80.4392 128.586 82.9192C123.546 85.3192 117.546 86.5192 110.586 86.5192ZM188.927 86.3992C183.167 86.3992 178.207 85.5992 174.047 83.9992C169.967 82.3192 166.567 80.0392 163.847 77.1592C161.207 74.1992 159.207 70.7992 157.847 66.9592C156.567 63.0392 155.807 58.8792 155.567 54.4792C155.487 52.3192 155.407 49.9192 155.327 47.2792C155.327 44.5592 155.327 41.8392 155.327 39.1192C155.407 36.3992 155.487 33.9192 155.567 31.6792C155.727 27.2792 156.487 23.1592 157.847 19.3192C159.287 15.4792 161.367 12.1192 164.087 9.23922C166.807 6.35922 170.207 4.11922 174.287 2.51922C178.447 0.839215 183.327 -0.000785828 188.927 -0.000785828C194.527 -0.000785828 199.367 0.839215 203.447 2.51922C207.527 4.11922 210.927 6.35922 213.647 9.23922C216.367 12.1192 218.407 15.4792 219.767 19.3192C221.207 23.1592 222.047 27.2792 222.287 31.6792C222.367 33.9192 222.407 36.3992 222.407 39.1192C222.487 41.8392 222.487 44.5592 222.407 47.2792C222.407 49.9192 222.367 52.3192 222.287 54.4792C222.047 58.8792 221.247 63.0392 219.887 66.9592C218.527 70.7992 216.487 74.1992 213.767 77.1592C211.127 80.0392 207.727 82.3192 203.567 83.9992C199.487 85.5992 194.607 86.3992 188.927 86.3992ZM188.927 70.7992C193.567 70.7992 196.967 69.2792 199.127 66.2392C201.287 63.1992 202.447 59.0792 202.607 53.8792C202.687 51.5592 202.727 49.1592 202.727 46.6792C202.807 44.1992 202.807 41.7192 202.727 39.2392C202.727 36.7592 202.687 34.4392 202.607 32.2792C202.447 27.3192 201.287 23.2792 199.127 20.1592C196.967 17.0392 193.567 15.4392 188.927 15.3592C184.207 15.4392 180.767 17.0392 178.607 20.1592C176.527 23.2792 175.407 27.3192 175.247 32.2792C175.167 34.4392 175.087 36.7592 175.007 39.2392C175.007 41.7192 175.007 44.1992 175.007 46.6792C175.087 49.1592 175.167 51.5592 175.247 53.8792C175.407 59.0792 176.567 63.1992 178.727 66.2392C180.887 69.2792 184.287 70.7992 188.927 70.7992ZM269.083 86.3992C263.323 86.3992 258.363 85.5992 254.203 83.9992C250.123 82.3192 246.723 80.0392 244.003 77.1592C241.363 74.1992 239.363 70.7992 238.003 66.9592C236.723 63.0392 235.963 58.8792 235.723 54.4792C235.643 52.3192 235.563 49.9192 235.483 47.2792C235.483 44.5592 235.483 41.8392 235.483 39.1192C235.563 36.3992 235.643 33.9192 235.723 31.6792C235.883 27.2792 236.643 23.1592 238.003 19.3192C239.443 15.4792 241.523 12.1192 244.243 9.23922C246.963 6.35922 250.363 4.11922 254.443 2.51922C258.603 0.839215 263.483 -0.000785828 269.083 -0.000785828C274.683 -0.000785828 279.523 0.839215 283.603 2.51922C287.683 4.11922 291.083 6.35922 293.803 9.23922C296.523 12.1192 298.563 15.4792 299.923 19.3192C301.363 23.1592 302.203 27.2792 302.443 31.6792C302.523 33.9192 302.563 36.3992 302.563 39.1192C302.643 41.8392 302.643 44.5592 302.563 47.2792C302.563 49.9192 302.523 52.3192 302.443 54.4792C302.203 58.8792 301.403 63.0392 300.043 66.9592C298.683 70.7992 296.643 74.1992 293.923 77.1592C291.283 80.0392 287.883 82.3192 283.723 83.9992C279.643 85.5992 274.763 86.3992 269.083 86.3992ZM269.083 70.7992C273.723 70.7992 277.123 69.2792 279.283 66.2392C281.443 63.1992 282.603 59.0792 282.763 53.8792C282.843 51.5592 282.883 49.1592 282.883 46.6792C282.963 44.1992 282.963 41.7192 282.883 39.2392C282.883 36.7592 282.843 34.4392 282.763 32.2792C282.603 27.3192 281.443 23.2792 279.283 20.1592C277.123 17.0392 273.723 15.4392 269.083 15.3592C264.363 15.4392 260.923 17.0392 258.763 20.1592C256.683 23.2792 255.563 27.3192 255.403 32.2792C255.323 34.4392 255.243 36.7592 255.163 39.2392C255.163 41.7192 255.163 44.1992 255.163 46.6792C255.243 49.1592 255.323 51.5592 255.403 53.8792C255.563 59.0792 256.723 63.1992 258.883 66.2392C261.043 69.2792 264.443 70.7992 269.083 70.7992ZM341.679 81.2392C340.799 81.2392 340.079 80.9592 339.519 80.3992C338.959 79.8392 338.679 79.1192 338.679 78.2392V55.5592H316.479C315.599 55.5592 314.879 55.2792 314.319 54.7192C313.759 54.1592 313.479 53.4792 313.479 52.6792V45.1192C313.479 44.2392 313.759 43.5192 314.319 42.9592C314.879 42.3992 315.599 42.1192 316.479 42.1192H338.679V20.1592C338.679 19.2792 338.959 18.5592 339.519 17.9992C340.079 17.4392 340.799 17.1592 341.679 17.1592H349.959C350.839 17.1592 351.559 17.4392 352.119 17.9992C352.679 18.5592 352.959 19.2792 352.959 20.1592V42.1192H375.159C375.959 42.1192 376.639 42.3992 377.199 42.9592C377.759 43.5192 378.039 44.2392 378.039 45.1192V52.6792C378.039 53.4792 377.759 54.1592 377.199 54.7192C376.639 55.2792 375.959 55.5592 375.159 55.5592H352.959V78.2392C352.959 79.1192 352.679 79.8392 352.119 80.3992C351.559 80.9592 350.839 81.2392 349.959 81.2392H341.679Z" fill="#6D2E46"/>
</svg>
