<svg width="226" height="87" viewBox="0 0 226 87" fill="none" xmlns="http://www.w3.org/2000/svg">
<path d="M43.56 85.1992C42.76 85.1992 42.08 84.9192 41.52 84.3592C40.96 83.7992 40.68 83.0792 40.68 82.1992V67.7992H2.88002C2.08002 67.7992 1.40002 67.5192 0.84002 66.9592C0.28002 66.3992 1.96546e-05 65.6792 1.96546e-05 64.7992V55.0792C1.96546e-05 54.5192 0.12002 53.9192 0.36002 53.2792C0.60002 52.6392 0.92002 52.0392 1.32002 51.4792L36.48 3.23922C37.52 1.87921 39 1.19921 40.92 1.19921H56.16C56.96 1.19921 57.64 1.47921 58.2 2.03922C58.76 2.59921 59.04 3.31921 59.04 4.19922V51.8392H69.72C70.68 51.8392 71.4 52.1192 71.88 52.6792C72.44 53.2392 72.72 53.9192 72.72 54.7192V64.7992C72.72 65.6792 72.44 66.3992 71.88 66.9592C71.32 67.5192 70.64 67.7992 69.84 67.7992H59.04V82.1992C59.04 83.0792 58.76 83.7992 58.2 84.3592C57.64 84.9192 56.96 85.1992 56.16 85.1992H43.56ZM18.6 52.4392H41.04V20.8792L18.6 52.4392ZM116.639 86.3992C110.879 86.3992 105.919 85.5992 101.759 83.9992C97.6791 82.3192 94.2791 80.0392 91.5591 77.1592C88.9191 74.1992 86.9191 70.7992 85.5591 66.9592C84.2791 63.0392 83.5191 58.8792 83.2791 54.4792C83.1991 52.3192 83.1191 49.9192 83.0391 47.2792C83.0391 44.5592 83.0391 41.8392 83.0391 39.1192C83.1191 36.3992 83.1991 33.9192 83.2791 31.6792C83.4391 27.2792 84.1991 23.1592 85.5591 19.3192C86.9991 15.4792 89.0791 12.1192 91.7991 9.23922C94.5191 6.35922 97.9191 4.11922 101.999 2.51922C106.159 0.839215 111.039 -0.000785828 116.639 -0.000785828C122.239 -0.000785828 127.079 0.839215 131.159 2.51922C135.239 4.11922 138.639 6.35922 141.359 9.23922C144.079 12.1192 146.119 15.4792 147.479 19.3192C148.919 23.1592 149.759 27.2792 149.999 31.6792C150.079 33.9192 150.119 36.3992 150.119 39.1192C150.199 41.8392 150.199 44.5592 150.119 47.2792C150.119 49.9192 150.079 52.3192 149.999 54.4792C149.759 58.8792 148.959 63.0392 147.599 66.9592C146.239 70.7992 144.199 74.1992 141.479 77.1592C138.839 80.0392 135.439 82.3192 131.279 83.9992C127.199 85.5992 122.319 86.3992 116.639 86.3992ZM116.639 70.7992C121.279 70.7992 124.679 69.2792 126.839 66.2392C128.999 63.1992 130.159 59.0792 130.319 53.8792C130.399 51.5592 130.439 49.1592 130.439 46.6792C130.519 44.1992 130.519 41.7192 130.439 39.2392C130.439 36.7592 130.399 34.4392 130.319 32.2792C130.159 27.3192 128.999 23.2792 126.839 20.1592C124.679 17.0392 121.279 15.4392 116.639 15.3592C111.919 15.4392 108.479 17.0392 106.319 20.1592C104.239 23.2792 103.119 27.3192 102.959 32.2792C102.879 34.4392 102.799 36.7592 102.719 39.2392C102.719 41.7192 102.719 44.1992 102.719 46.6792C102.799 49.1592 102.879 51.5592 102.959 53.8792C103.119 59.0792 104.279 63.1992 106.439 66.2392C108.599 69.2792 111.999 70.7992 116.639 70.7992ZM189.235 81.2392C188.355 81.2392 187.635 80.9592 187.075 80.3992C186.515 79.8392 186.235 79.1192 186.235 78.2392V55.5592H164.035C163.155 55.5592 162.435 55.2792 161.875 54.7192C161.315 54.1592 161.035 53.4792 161.035 52.6792V45.1192C161.035 44.2392 161.315 43.5192 161.875 42.9592C162.435 42.3992 163.155 42.1192 164.035 42.1192H186.235V20.1592C186.235 19.2792 186.515 18.5592 187.075 17.9992C187.635 17.4392 188.355 17.1592 189.235 17.1592H197.515C198.395 17.1592 199.115 17.4392 199.675 17.9992C200.235 18.5592 200.515 19.2792 200.515 20.1592V42.1192H222.715C223.515 42.1192 224.195 42.3992 224.755 42.9592C225.315 43.5192 225.595 44.2392 225.595 45.1192V52.6792C225.595 53.4792 225.315 54.1592 224.755 54.7192C224.195 55.2792 223.515 55.5592 222.715 55.5592H200.515V78.2392C200.515 79.1192 200.235 79.8392 199.675 80.3992C199.115 80.9592 198.395 81.2392 197.515 81.2392H189.235Z" fill="#6D2E46"/>
</svg>
