<svg width="143" height="27" viewBox="0 0 143 27" fill="none" xmlns="http://www.w3.org/2000/svg">
<path d="M9.43359 4.57031C11.2565 4.57031 12.819 4.97396 14.1211 5.78125C15.4232 6.58854 16.4193 7.72135 17.1094 9.17969C17.7995 10.625 18.1445 12.3177 18.1445 14.2578V16.2695H3.35938C3.39844 18.7826 4.02344 20.6966 5.23438 22.0117C6.44531 23.3268 8.15104 23.9844 10.3516 23.9844C11.7057 23.9844 12.9036 23.8607 13.9453 23.6133C14.987 23.3659 16.0677 23.0013 17.1875 22.5195V25.3711C16.1068 25.8529 15.0326 26.2044 13.9648 26.4258C12.9102 26.6471 11.6602 26.7578 10.2148 26.7578C8.15755 26.7578 6.36068 26.3411 4.82422 25.5078C3.30078 24.6615 2.11589 23.4245 1.26953 21.7969C0.423177 20.1693 0 18.1771 0 15.8203C0 13.5156 0.384115 11.5234 1.15234 9.84375C1.93359 8.15104 3.02734 6.84896 4.43359 5.9375C5.85286 5.02604 7.51953 4.57031 9.43359 4.57031ZM9.39453 7.22656C7.66276 7.22656 6.28255 7.79297 5.25391 8.92578C4.22526 10.0586 3.61328 11.6406 3.41797 13.6719H14.7461C14.7331 12.3958 14.5312 11.276 14.1406 10.3125C13.763 9.33594 13.1836 8.58073 12.4023 8.04688C11.6211 7.5 10.6185 7.22656 9.39453 7.22656ZM28.3594 26.3672L20.2344 4.96094H23.7109L28.418 17.9102C28.7435 18.7956 29.0755 19.7721 29.4141 20.8398C29.7526 21.9076 29.987 22.7669 30.1172 23.418H30.2539C30.4102 22.7669 30.6706 21.9076 31.0352 20.8398C31.3997 19.7591 31.7318 18.7826 32.0312 17.9102L36.7383 4.96094H40.2148L32.0703 26.3672H28.3594ZM51.8945 4.57031C53.7174 4.57031 55.2799 4.97396 56.582 5.78125C57.8841 6.58854 58.8802 7.72135 59.5703 9.17969C60.2604 10.625 60.6055 12.3177 60.6055 14.2578V16.2695H45.8203C45.8594 18.7826 46.4844 20.6966 47.6953 22.0117C48.9062 23.3268 50.612 23.9844 52.8125 23.9844C54.1667 23.9844 55.3646 23.8607 56.4062 23.6133C57.4479 23.3659 58.5286 23.0013 59.6484 22.5195V25.3711C58.5677 25.8529 57.4935 26.2044 56.4258 26.4258C55.3711 26.6471 54.1211 26.7578 52.6758 26.7578C50.6185 26.7578 48.8216 26.3411 47.2852 25.5078C45.7617 24.6615 44.5768 23.4245 43.7305 21.7969C42.8841 20.1693 42.4609 18.1771 42.4609 15.8203C42.4609 13.5156 42.8451 11.5234 43.6133 9.84375C44.3945 8.15104 45.4883 6.84896 46.8945 5.9375C48.3138 5.02604 49.9805 4.57031 51.8945 4.57031ZM51.8555 7.22656C50.1237 7.22656 48.7435 7.79297 47.7148 8.92578C46.6862 10.0586 46.0742 11.6406 45.8789 13.6719H57.207C57.194 12.3958 56.9922 11.276 56.6016 10.3125C56.224 9.33594 55.6445 8.58073 54.8633 8.04688C54.082 7.5 53.0794 7.22656 51.8555 7.22656ZM76.25 4.57031C78.7891 4.57031 80.7096 5.19531 82.0117 6.44531C83.3138 7.68229 83.9648 9.67448 83.9648 12.4219V26.3672H80.7617V12.6367C80.7617 10.8529 80.3516 9.51823 79.5312 8.63281C78.724 7.7474 77.4805 7.30469 75.8008 7.30469C73.431 7.30469 71.7643 7.97526 70.8008 9.31641C69.8372 10.6576 69.3555 12.6042 69.3555 15.1562V26.3672H66.1133V4.96094H68.7305L69.2188 8.04688H69.3945C69.8503 7.29167 70.4297 6.66016 71.1328 6.15234C71.8359 5.63151 72.6237 5.24089 73.4961 4.98047C74.3685 4.70703 75.2865 4.57031 76.25 4.57031ZM97.5586 24.1016C98.0924 24.1016 98.6393 24.056 99.1992 23.9648C99.7591 23.8737 100.215 23.763 100.566 23.6328V26.1523C100.189 26.3216 99.6615 26.4648 98.9844 26.582C98.3203 26.6992 97.6693 26.7578 97.0312 26.7578C95.8984 26.7578 94.8698 26.5625 93.9453 26.1719C93.0208 25.7682 92.2786 25.0911 91.7188 24.1406C91.1719 23.1901 90.8984 21.875 90.8984 20.1953V7.5H87.8516V5.91797L90.918 4.64844L92.207 0H94.1602V4.96094H100.43V7.5H94.1602V20.0977C94.1602 21.4388 94.4661 22.4414 95.0781 23.1055C95.7031 23.7695 96.5299 24.1016 97.5586 24.1016ZM123.359 15.625C123.359 17.3828 123.132 18.9518 122.676 20.332C122.22 21.7122 121.562 22.8776 120.703 23.8281C119.844 24.7786 118.802 25.5078 117.578 26.0156C116.367 26.5104 114.993 26.7578 113.457 26.7578C112.025 26.7578 110.71 26.5104 109.512 26.0156C108.327 25.5078 107.298 24.7786 106.426 23.8281C105.566 22.8776 104.896 21.7122 104.414 20.332C103.945 18.9518 103.711 17.3828 103.711 15.625C103.711 13.2812 104.108 11.2891 104.902 9.64844C105.697 7.99479 106.829 6.73828 108.301 5.87891C109.785 5.00651 111.549 4.57031 113.594 4.57031C115.547 4.57031 117.253 5.00651 118.711 5.87891C120.182 6.7513 121.322 8.01432 122.129 9.66797C122.949 11.3086 123.359 13.2943 123.359 15.625ZM107.07 15.625C107.07 17.3438 107.298 18.8346 107.754 20.0977C108.21 21.3607 108.913 22.3372 109.863 23.0273C110.814 23.7174 112.038 24.0625 113.535 24.0625C115.02 24.0625 116.237 23.7174 117.188 23.0273C118.151 22.3372 118.861 21.3607 119.316 20.0977C119.772 18.8346 120 17.3438 120 15.625C120 13.9193 119.772 12.4479 119.316 11.2109C118.861 9.96094 118.158 8.9974 117.207 8.32031C116.257 7.64323 115.026 7.30469 113.516 7.30469C111.289 7.30469 109.655 8.04036 108.613 9.51172C107.585 10.9831 107.07 13.0208 107.07 15.625ZM142.812 20.5078C142.812 21.875 142.467 23.0273 141.777 23.9648C141.1 24.8893 140.124 25.5859 138.848 26.0547C137.585 26.5234 136.074 26.7578 134.316 26.7578C132.819 26.7578 131.523 26.6406 130.43 26.4062C129.336 26.1719 128.379 25.8398 127.559 25.4102V22.4219C128.431 22.8516 129.473 23.2422 130.684 23.5938C131.895 23.9453 133.132 24.1211 134.395 24.1211C136.243 24.1211 137.585 23.8216 138.418 23.2227C139.251 22.6237 139.668 21.8099 139.668 20.7812C139.668 20.1953 139.499 19.681 139.16 19.2383C138.835 18.7826 138.281 18.3464 137.5 17.9297C136.719 17.5 135.638 17.0312 134.258 16.5234C132.891 16.0026 131.706 15.4883 130.703 14.9805C129.714 14.4596 128.945 13.8281 128.398 13.0859C127.865 12.3438 127.598 11.3802 127.598 10.1953C127.598 8.38542 128.327 6.9987 129.785 6.03516C131.257 5.05859 133.184 4.57031 135.566 4.57031C136.855 4.57031 138.06 4.70052 139.18 4.96094C140.312 5.20833 141.367 5.54688 142.344 5.97656L141.25 8.57422C140.365 8.19661 139.421 7.8776 138.418 7.61719C137.415 7.35677 136.393 7.22656 135.352 7.22656C133.854 7.22656 132.702 7.47396 131.895 7.96875C131.1 8.46354 130.703 9.14062 130.703 10C130.703 10.6641 130.885 11.2109 131.25 11.6406C131.628 12.0703 132.227 12.474 133.047 12.8516C133.867 13.2292 134.948 13.6719 136.289 14.1797C137.63 14.6745 138.789 15.1888 139.766 15.7227C140.742 16.2435 141.491 16.8815 142.012 17.6367C142.546 18.3789 142.812 19.3359 142.812 20.5078Z" fill="#BD4747"/>
</svg>
