<svg width="935" height="341" viewBox="0 0 935 341" fill="none" xmlns="http://www.w3.org/2000/svg">
<path d="M4.50018 133.199C3.18018 133.199 2.10018 132.779 1.26018 131.939C0.420176 131.099 0.000175953 130.019 0.000175953 128.699V11.6992C0.000175953 10.3792 0.420176 9.29921 1.26018 8.45922C2.10018 7.61921 3.18018 7.19921 4.50018 7.19921H84.7802C86.1002 7.19921 87.1802 7.61921 88.0202 8.45922C88.8602 9.29921 89.2802 10.3792 89.2802 11.6992V26.9992C89.2802 28.3192 88.8602 29.3992 88.0202 30.2392C87.1802 31.0792 86.1002 31.4992 84.7802 31.4992H28.0802V61.9192H81.1802C82.5002 61.9192 83.5802 62.3392 84.4202 63.1792C85.2602 64.0192 85.6802 65.0992 85.6802 66.4192V81.7192C85.6802 82.9192 85.2602 83.9392 84.4202 84.7792C83.5802 85.6192 82.5002 86.0392 81.1802 86.0392H28.0802V128.699C28.0802 130.019 27.6602 131.099 26.8202 131.939C25.9802 132.779 24.9002 133.199 23.5802 133.199H4.50018ZM148.79 134.999C138.83 134.999 130.49 133.379 123.77 130.139C117.05 126.779 111.89 122.039 108.29 115.919C104.81 109.799 102.89 102.659 102.53 94.4992C102.41 92.0992 102.35 89.3992 102.35 86.3992C102.35 83.2792 102.41 80.5792 102.53 78.2992C102.89 70.0192 104.93 62.8792 108.65 56.8792C112.37 50.7592 117.59 46.0792 124.31 42.8392C131.03 39.4792 139.19 37.7992 148.79 37.7992C158.27 37.7992 166.37 39.4792 173.09 42.8392C179.81 46.0792 185.03 50.7592 188.75 56.8792C192.47 62.8792 194.51 70.0192 194.87 78.2992C195.11 80.5792 195.23 83.2792 195.23 86.3992C195.23 89.3992 195.11 92.0992 194.87 94.4992C194.51 102.659 192.53 109.799 188.93 115.919C185.45 122.039 180.35 126.779 173.63 130.139C166.91 133.379 158.63 134.999 148.79 134.999ZM148.79 115.199C154.67 115.199 159.11 113.399 162.11 109.799C165.11 106.079 166.73 100.679 166.97 93.5992C167.09 91.7992 167.15 89.3992 167.15 86.3992C167.15 83.3992 167.09 80.9992 166.97 79.1992C166.73 72.2392 165.11 66.8992 162.11 63.1792C159.11 59.4592 154.67 57.5992 148.79 57.5992C142.91 57.5992 138.41 59.4592 135.29 63.1792C132.29 66.8992 130.67 72.2392 130.43 79.1992C130.31 80.9992 130.25 83.3992 130.25 86.3992C130.25 89.3992 130.31 91.7992 130.43 93.5992C130.67 100.679 132.29 106.079 135.29 109.799C138.41 113.399 142.91 115.199 148.79 115.199ZM250.955 134.999C243.515 134.999 237.095 134.159 231.695 132.479C226.415 130.679 222.095 128.519 218.735 125.999C215.495 123.479 213.035 120.959 211.355 118.439C209.795 115.799 208.955 113.579 208.835 111.779C208.715 110.459 209.135 109.379 210.095 108.539C211.055 107.699 212.015 107.279 212.975 107.279H230.435C230.795 107.279 231.155 107.339 231.515 107.459C231.875 107.579 232.235 107.879 232.595 108.359C234.155 109.439 235.775 110.699 237.455 112.139C239.135 113.459 241.055 114.599 243.215 115.559C245.495 116.519 248.315 116.999 251.675 116.999C255.635 116.999 258.995 116.219 261.755 114.659C264.515 112.979 265.895 110.639 265.895 107.639C265.895 105.479 265.235 103.679 263.915 102.239C262.715 100.799 260.375 99.4792 256.895 98.2792C253.415 97.0792 248.255 95.7592 241.415 94.3192C234.935 92.8792 229.415 90.9592 224.855 88.5592C220.295 86.1592 216.875 83.1592 214.595 79.5592C212.315 75.8392 211.175 71.3992 211.175 66.2392C211.175 61.5592 212.615 57.0592 215.495 52.7392C218.495 48.4192 222.875 44.8792 228.635 42.1192C234.395 39.2392 241.595 37.7992 250.235 37.7992C256.835 37.7992 262.595 38.6392 267.515 40.3192C272.555 41.8792 276.755 43.9192 280.115 46.4392C283.475 48.8392 285.995 51.3592 287.675 53.9992C289.475 56.5192 290.435 58.7392 290.555 60.6592C290.675 61.8592 290.315 62.8792 289.475 63.7192C288.635 64.5592 287.675 64.9792 286.595 64.9792H270.575C269.975 64.9792 269.435 64.9192 268.955 64.7992C268.475 64.5592 268.055 64.2592 267.695 63.8992C266.255 62.9392 264.755 61.8592 263.195 60.6592C261.755 59.3392 260.015 58.1992 257.975 57.2392C255.935 56.2792 253.295 55.7992 250.055 55.7992C246.095 55.7992 243.035 56.6992 240.875 58.4992C238.835 60.1792 237.815 62.3392 237.815 64.9792C237.815 66.6592 238.355 68.2192 239.435 69.6592C240.515 71.0992 242.735 72.4192 246.095 73.6192C249.455 74.8192 254.555 76.0792 261.395 77.3992C269.555 78.8392 276.035 80.9992 280.835 83.8792C285.635 86.7592 289.055 90.1192 291.095 93.9592C293.255 97.6792 294.335 101.699 294.335 106.019C294.335 111.659 292.655 116.699 289.295 121.139C285.935 125.459 281.015 128.879 274.535 131.399C268.175 133.799 260.315 134.999 250.955 134.999ZM356.262 133.199C348.822 133.199 342.462 131.999 337.182 129.599C331.902 127.079 327.882 123.239 325.122 118.079C322.482 112.919 321.162 106.439 321.162 98.6392V60.8392H307.122C305.802 60.8392 304.722 60.4192 303.882 59.5792C303.042 58.7392 302.622 57.6592 302.622 56.3392V44.0992C302.622 42.7792 303.042 41.6992 303.882 40.8592C304.722 40.0192 305.802 39.5992 307.122 39.5992H321.162V9.89921C321.162 8.57921 321.582 7.49921 322.422 6.65922C323.382 5.81921 324.462 5.39921 325.662 5.39921H343.302C344.622 5.39921 345.702 5.81921 346.542 6.65922C347.382 7.49921 347.802 8.57921 347.802 9.89921V39.5992H370.302C371.502 39.5992 372.522 40.0192 373.362 40.8592C374.202 41.6992 374.622 42.7792 374.622 44.0992V56.3392C374.622 57.6592 374.202 58.7392 373.362 59.5792C372.522 60.4192 371.502 60.8392 370.302 60.8392H347.802V96.4792C347.802 101.039 348.582 104.639 350.142 107.279C351.822 109.799 354.702 111.059 358.782 111.059H371.922C373.122 111.059 374.142 111.479 374.982 112.319C375.822 113.159 376.242 114.179 376.242 115.379V128.699C376.242 130.019 375.822 131.099 374.982 131.939C374.142 132.779 373.122 133.199 371.922 133.199H356.262ZM433.706 134.999C419.906 134.999 408.926 131.159 400.766 123.479C392.726 115.799 388.466 104.639 387.986 89.9992C387.986 89.0392 387.986 87.7792 387.986 86.2192C387.986 84.5392 387.986 83.2192 387.986 82.2592C388.466 73.0192 390.566 65.0992 394.286 58.4992C398.006 51.7792 403.226 46.6792 409.946 43.1992C416.666 39.5992 424.526 37.7992 433.526 37.7992C443.606 37.7992 452.006 39.8992 458.726 44.0992C465.566 48.1792 470.666 53.8192 474.026 61.0192C477.506 68.0992 479.246 76.2592 479.246 85.4992V89.6392C479.246 90.8392 478.766 91.8592 477.806 92.6992C476.966 93.5392 475.946 93.9592 474.746 93.9592H415.886C415.886 94.0792 415.886 94.3192 415.886 94.6792C415.886 94.9192 415.886 95.1592 415.886 95.3992C416.006 99.2392 416.726 102.779 418.046 106.019C419.486 109.139 421.466 111.659 423.986 113.579C426.626 115.499 429.746 116.459 433.346 116.459C436.346 116.459 438.806 116.039 440.726 115.199C442.646 114.359 444.206 113.339 445.406 112.139C446.726 110.939 447.686 109.919 448.286 109.079C449.366 107.879 450.206 107.159 450.806 106.919C451.526 106.559 452.606 106.379 454.046 106.379H472.766C473.966 106.379 474.926 106.739 475.646 107.459C476.486 108.059 476.846 108.959 476.726 110.159C476.606 112.079 475.586 114.479 473.666 117.359C471.866 120.119 469.166 122.879 465.566 125.639C461.966 128.279 457.466 130.499 452.066 132.299C446.786 134.099 440.666 134.999 433.706 134.999ZM415.886 77.5792H451.166V77.2192C451.166 72.8992 450.446 69.1792 449.006 66.0592C447.686 62.8192 445.706 60.2992 443.066 58.4992C440.426 56.6992 437.246 55.7992 433.526 55.7992C429.806 55.7992 426.626 56.6992 423.986 58.4992C421.346 60.2992 419.306 62.8192 417.866 66.0592C416.546 69.1792 415.886 72.8992 415.886 77.2192V77.5792ZM548.737 133.199C547.417 133.199 546.337 132.779 545.497 131.939C544.657 131.099 544.237 130.019 544.237 128.699V60.8392H530.197C528.877 60.8392 527.797 60.4192 526.957 59.5792C526.117 58.7392 525.697 57.6592 525.697 56.3392V44.0992C525.697 42.7792 526.117 41.6992 526.957 40.8592C527.797 40.0192 528.877 39.5992 530.197 39.5992H544.237V33.1192C544.237 25.4392 545.677 19.1392 548.557 14.2192C551.437 9.29922 555.637 5.69922 561.157 3.41922C566.677 1.13922 573.457 -0.000782967 581.497 -0.000782967H594.637C595.957 -0.000782967 597.037 0.419215 597.877 1.25921C598.717 2.09922 599.137 3.17922 599.137 4.49921V16.7392C599.137 18.0592 598.717 19.1392 597.877 19.9792C597.037 20.8192 595.957 21.2392 594.637 21.2392H582.577C578.137 21.2392 575.017 22.3192 573.217 24.4792C571.537 26.6392 570.697 29.8192 570.697 34.0192V39.5992H592.837C594.157 39.5992 595.237 40.0192 596.077 40.8592C596.917 41.6992 597.337 42.7792 597.337 44.0992V56.3392C597.337 57.6592 596.917 58.7392 596.077 59.5792C595.237 60.4192 594.157 60.8392 592.837 60.8392H570.697V128.699C570.697 130.019 570.277 131.099 569.437 131.939C568.597 132.779 567.577 133.199 566.377 133.199H548.737ZM651.499 134.999C637.699 134.999 626.719 131.159 618.559 123.479C610.519 115.799 606.259 104.639 605.779 89.9992C605.779 89.0392 605.779 87.7792 605.779 86.2192C605.779 84.5392 605.779 83.2192 605.779 82.2592C606.259 73.0192 608.359 65.0992 612.079 58.4992C615.799 51.7792 621.019 46.6792 627.739 43.1992C634.459 39.5992 642.319 37.7992 651.319 37.7992C661.399 37.7992 669.799 39.8992 676.519 44.0992C683.359 48.1792 688.459 53.8192 691.819 61.0192C695.299 68.0992 697.039 76.2592 697.039 85.4992V89.6392C697.039 90.8392 696.559 91.8592 695.599 92.6992C694.759 93.5392 693.739 93.9592 692.539 93.9592H633.679C633.679 94.0792 633.679 94.3192 633.679 94.6792C633.679 94.9192 633.679 95.1592 633.679 95.3992C633.799 99.2392 634.519 102.779 635.839 106.019C637.279 109.139 639.259 111.659 641.779 113.579C644.419 115.499 647.539 116.459 651.139 116.459C654.139 116.459 656.599 116.039 658.519 115.199C660.439 114.359 661.999 113.339 663.199 112.139C664.519 110.939 665.479 109.919 666.079 109.079C667.159 107.879 667.999 107.159 668.599 106.919C669.319 106.559 670.399 106.379 671.839 106.379H690.559C691.759 106.379 692.719 106.739 693.439 107.459C694.279 108.059 694.639 108.959 694.519 110.159C694.399 112.079 693.379 114.479 691.459 117.359C689.659 120.119 686.959 122.879 683.359 125.639C679.759 128.279 675.259 130.499 669.859 132.299C664.579 134.099 658.459 134.999 651.499 134.999ZM633.679 77.5792H668.959V77.2192C668.959 72.8992 668.239 69.1792 666.799 66.0592C665.479 62.8192 663.499 60.2992 660.859 58.4992C658.219 56.6992 655.039 55.7992 651.319 55.7992C647.599 55.7992 644.419 56.6992 641.779 58.4992C639.139 60.2992 637.099 62.8192 635.659 66.0592C634.339 69.1792 633.679 72.8992 633.679 77.2192V77.5792ZM719.352 133.199C718.152 133.199 717.132 132.779 716.292 131.939C715.452 131.099 715.032 130.019 715.032 128.699V44.0992C715.032 42.7792 715.452 41.6992 716.292 40.8592C717.132 40.0192 718.152 39.5992 719.352 39.5992H737.352C738.672 39.5992 739.752 40.0192 740.592 40.8592C741.432 41.6992 741.852 42.7792 741.852 44.0992V128.699C741.852 130.019 741.432 131.099 740.592 131.939C739.752 132.779 738.672 133.199 737.352 133.199H719.352ZM718.812 25.1992C717.612 25.1992 716.592 24.7792 715.752 23.9392C714.912 23.0992 714.492 22.0192 714.492 20.6992V6.29921C714.492 4.97921 714.912 3.89921 715.752 3.05921C716.592 2.09922 717.612 1.61922 718.812 1.61922H737.712C739.032 1.61922 740.112 2.09922 740.952 3.05921C741.912 3.89921 742.392 4.97921 742.392 6.29921V20.6992C742.392 22.0192 741.912 23.0992 740.952 23.9392C740.112 24.7792 739.032 25.1992 737.712 25.1992H718.812ZM809.426 133.199C801.986 133.199 795.626 131.999 790.346 129.599C785.066 127.079 781.046 123.239 778.286 118.079C775.646 112.919 774.326 106.439 774.326 98.6392V60.8392H760.286C758.966 60.8392 757.886 60.4192 757.046 59.5792C756.206 58.7392 755.786 57.6592 755.786 56.3392V44.0992C755.786 42.7792 756.206 41.6992 757.046 40.8592C757.886 40.0192 758.966 39.5992 760.286 39.5992H774.326V9.89921C774.326 8.57921 774.746 7.49921 775.586 6.65922C776.546 5.81921 777.626 5.39921 778.826 5.39921H796.466C797.786 5.39921 798.866 5.81921 799.706 6.65922C800.546 7.49921 800.966 8.57921 800.966 9.89921V39.5992H823.466C824.666 39.5992 825.686 40.0192 826.526 40.8592C827.366 41.6992 827.786 42.7792 827.786 44.0992V56.3392C827.786 57.6592 827.366 58.7392 826.526 59.5792C825.686 60.4192 824.666 60.8392 823.466 60.8392H800.966V96.4792C800.966 101.039 801.746 104.639 803.306 107.279C804.986 109.799 807.866 111.059 811.946 111.059H825.086C826.286 111.059 827.306 111.479 828.146 112.319C828.986 113.159 829.406 114.179 829.406 115.379V128.699C829.406 130.019 828.986 131.099 828.146 131.939C827.306 132.779 826.286 133.199 825.086 133.199H809.426ZM887.95 134.999C877.99 134.999 869.65 133.379 862.93 130.139C856.21 126.779 851.05 122.039 847.45 115.919C843.97 109.799 842.05 102.659 841.69 94.4992C841.57 92.0992 841.51 89.3992 841.51 86.3992C841.51 83.2792 841.57 80.5792 841.69 78.2992C842.05 70.0192 844.09 62.8792 847.81 56.8792C851.53 50.7592 856.75 46.0792 863.47 42.8392C870.19 39.4792 878.35 37.7992 887.95 37.7992C897.43 37.7992 905.53 39.4792 912.25 42.8392C918.97 46.0792 924.19 50.7592 927.91 56.8792C931.63 62.8792 933.67 70.0192 934.03 78.2992C934.27 80.5792 934.39 83.2792 934.39 86.3992C934.39 89.3992 934.27 92.0992 934.03 94.4992C933.67 102.659 931.69 109.799 928.09 115.919C924.61 122.039 919.51 126.779 912.79 130.139C906.07 133.379 897.79 134.999 887.95 134.999ZM887.95 115.199C893.83 115.199 898.27 113.399 901.27 109.799C904.27 106.079 905.89 100.679 906.13 93.5992C906.25 91.7992 906.31 89.3992 906.31 86.3992C906.31 83.3992 906.25 80.9992 906.13 79.1992C905.89 72.2392 904.27 66.8992 901.27 63.1792C898.27 59.4592 893.83 57.5992 887.95 57.5992C882.07 57.5992 877.57 59.4592 874.45 63.1792C871.45 66.8992 869.83 72.2392 869.59 79.1992C869.47 80.9992 869.41 83.3992 869.41 86.3992C869.41 89.3992 869.47 91.7992 869.59 93.5992C869.83 100.679 871.45 106.079 874.45 109.799C877.57 113.399 882.07 115.199 887.95 115.199ZM16.0553 340.399C14.7353 340.399 13.6553 339.979 12.8153 339.139C11.9753 338.299 11.5553 337.219 11.5553 335.899V217.099C11.5553 215.779 11.9753 214.699 12.8153 213.859C13.6553 213.019 14.7353 212.599 16.0553 212.599H33.1553C34.4753 212.599 35.5553 213.019 36.3953 213.859C37.2353 214.699 37.6553 215.779 37.6553 217.099V223.939C40.5353 220.099 44.2553 216.979 48.8153 214.579C53.3753 212.059 59.0753 210.799 65.9153 210.799C72.1553 210.799 77.5553 211.819 82.1153 213.859C86.7953 215.779 90.6953 218.599 93.8153 222.319C97.0553 225.919 99.5153 230.299 101.195 235.459C102.995 240.619 104.015 246.439 104.255 252.919C104.375 255.199 104.435 257.359 104.435 259.399C104.435 261.439 104.375 263.659 104.255 266.059C104.135 272.179 103.175 277.819 101.375 282.979C99.6953 288.139 97.2353 292.579 93.9953 296.299C90.7553 300.019 86.7953 302.899 82.1153 304.939C77.5553 306.979 72.1553 307.999 65.9153 307.999C59.7953 307.999 54.4553 306.919 49.8953 304.759C45.4553 302.479 41.7953 299.419 38.9153 295.579V335.899C38.9153 337.219 38.4953 338.299 37.6553 339.139C36.8153 339.979 35.7953 340.399 34.5953 340.399H16.0553ZM57.8153 286.399C62.3753 286.399 65.9753 285.439 68.6153 283.519C71.2553 281.479 73.1153 278.839 74.1953 275.599C75.3953 272.359 76.1153 268.819 76.3553 264.979C76.5953 261.259 76.5953 257.539 76.3553 253.819C76.1153 249.979 75.3953 246.439 74.1953 243.199C73.1153 239.959 71.2553 237.379 68.6153 235.459C65.9753 233.419 62.3753 232.399 57.8153 232.399C53.3753 232.399 49.7753 233.419 47.0153 235.459C44.2553 237.499 42.2753 240.079 41.0753 243.199C39.8753 246.319 39.1553 249.679 38.9153 253.279C38.7953 255.439 38.7353 257.659 38.7353 259.939C38.7353 262.219 38.7953 264.499 38.9153 266.779C39.0353 270.139 39.7553 273.319 41.0753 276.319C42.5153 279.199 44.5553 281.599 47.1953 283.519C49.9553 285.439 53.4953 286.399 57.8153 286.399ZM151.068 307.999C144.708 307.999 139.008 306.799 133.968 304.399C128.928 301.879 124.908 298.519 121.908 294.319C118.908 290.119 117.408 285.439 117.408 280.279C117.408 271.759 120.828 265.039 127.668 260.119C134.628 255.199 143.748 251.839 155.028 250.039L178.608 246.619V243.379C178.608 238.699 177.528 235.099 175.368 232.579C173.208 230.059 169.428 228.799 164.028 228.799C160.068 228.799 156.888 229.579 154.488 231.139C152.088 232.699 150.228 234.739 148.908 237.259C147.948 238.819 146.568 239.599 144.768 239.599H127.668C126.348 239.599 125.328 239.239 124.608 238.519C123.888 237.679 123.588 236.719 123.708 235.639C123.708 233.599 124.488 231.199 126.048 228.439C127.608 225.679 130.008 222.979 133.248 220.339C136.488 217.579 140.628 215.299 145.668 213.499C150.708 211.699 156.888 210.799 164.208 210.799C171.768 210.799 178.248 211.699 183.648 213.499C189.048 215.299 193.368 217.819 196.608 221.059C199.848 224.299 202.248 228.079 203.808 232.399C205.368 236.599 206.148 241.159 206.148 246.079V301.699C206.148 303.019 205.728 304.099 204.888 304.939C204.048 305.779 202.968 306.199 201.648 306.199H184.008C182.808 306.199 181.788 305.779 180.948 304.939C180.108 304.099 179.688 303.019 179.688 301.699V295.039C178.128 297.319 176.028 299.479 173.388 301.519C170.748 303.439 167.568 304.999 163.848 306.199C160.248 307.399 155.988 307.999 151.068 307.999ZM158.268 289.279C162.228 289.279 165.768 288.439 168.888 286.759C172.008 285.079 174.468 282.499 176.268 279.019C178.068 275.539 178.968 271.159 178.968 265.879V262.819L162.228 265.519C155.748 266.599 151.008 268.219 148.008 270.379C145.008 272.539 143.508 275.179 143.508 278.299C143.508 280.579 144.168 282.559 145.488 284.239C146.928 285.919 148.788 287.179 151.068 288.019C153.348 288.859 155.748 289.279 158.268 289.279ZM232.262 306.199C231.062 306.199 230.042 305.779 229.202 304.939C228.362 304.099 227.942 303.019 227.942 301.699V217.099C227.942 215.899 228.362 214.879 229.202 214.039C230.042 213.079 231.062 212.599 232.262 212.599H249.902C251.102 212.599 252.122 213.079 252.962 214.039C253.922 214.879 254.402 215.899 254.402 217.099V224.299C257.402 220.579 261.062 217.699 265.382 215.659C269.822 213.619 274.922 212.599 280.682 212.599H288.422C289.622 212.599 290.642 213.019 291.482 213.859C292.322 214.699 292.742 215.779 292.742 217.099V232.579C292.742 233.899 292.322 234.979 291.482 235.819C290.642 236.659 289.622 237.079 288.422 237.079H272.582C267.302 237.079 263.162 238.579 260.162 241.579C257.162 244.459 255.662 248.599 255.662 253.999V301.699C255.662 303.019 255.242 304.099 254.402 304.939C253.562 305.779 252.482 306.199 251.162 306.199H232.262ZM332.123 307.999C325.763 307.999 320.063 306.799 315.023 304.399C309.983 301.879 305.963 298.519 302.963 294.319C299.963 290.119 298.463 285.439 298.463 280.279C298.463 271.759 301.883 265.039 308.723 260.119C315.683 255.199 324.803 251.839 336.083 250.039L359.663 246.619V243.379C359.663 238.699 358.583 235.099 356.423 232.579C354.263 230.059 350.483 228.799 345.083 228.799C341.123 228.799 337.943 229.579 335.543 231.139C333.143 232.699 331.283 234.739 329.963 237.259C329.003 238.819 327.623 239.599 325.823 239.599H308.723C307.403 239.599 306.383 239.239 305.663 238.519C304.943 237.679 304.643 236.719 304.763 235.639C304.763 233.599 305.543 231.199 307.103 228.439C308.663 225.679 311.063 222.979 314.303 220.339C317.543 217.579 321.683 215.299 326.723 213.499C331.763 211.699 337.943 210.799 345.263 210.799C352.823 210.799 359.303 211.699 364.703 213.499C370.103 215.299 374.423 217.819 377.663 221.059C380.903 224.299 383.303 228.079 384.863 232.399C386.423 236.599 387.203 241.159 387.203 246.079V301.699C387.203 303.019 386.783 304.099 385.943 304.939C385.103 305.779 384.023 306.199 382.703 306.199H365.063C363.863 306.199 362.843 305.779 362.003 304.939C361.163 304.099 360.743 303.019 360.743 301.699V295.039C359.183 297.319 357.083 299.479 354.443 301.519C351.803 303.439 348.623 304.999 344.903 306.199C341.303 307.399 337.043 307.999 332.123 307.999ZM339.323 289.279C343.283 289.279 346.823 288.439 349.943 286.759C353.063 285.079 355.523 282.499 357.323 279.019C359.123 275.539 360.023 271.159 360.023 265.879V262.819L343.283 265.519C336.803 266.599 332.063 268.219 329.063 270.379C326.063 272.539 324.563 275.179 324.563 278.299C324.563 280.579 325.223 282.559 326.543 284.239C327.983 285.919 329.843 287.179 332.123 288.019C334.403 288.859 336.803 289.279 339.323 289.279Z" fill="#6D2E46"/>
<path d="M476.263 307.999C469.903 307.999 464.203 306.799 459.163 304.399C454.123 301.879 450.103 298.519 447.103 294.319C444.103 290.119 442.603 285.439 442.603 280.279C442.603 271.759 446.023 265.039 452.863 260.119C459.823 255.199 468.943 251.839 480.223 250.039L503.803 246.619V243.379C503.803 238.699 502.723 235.099 500.563 232.579C498.403 230.059 494.623 228.799 489.223 228.799C485.263 228.799 482.083 229.579 479.683 231.139C477.283 232.699 475.423 234.739 474.103 237.259C473.143 238.819 471.763 239.599 469.963 239.599H452.863C451.543 239.599 450.523 239.239 449.803 238.519C449.083 237.679 448.783 236.719 448.903 235.639C448.903 233.599 449.683 231.199 451.243 228.439C452.803 225.679 455.203 222.979 458.443 220.339C461.683 217.579 465.823 215.299 470.863 213.499C475.903 211.699 482.083 210.799 489.403 210.799C496.963 210.799 503.443 211.699 508.843 213.499C514.243 215.299 518.563 217.819 521.803 221.059C525.043 224.299 527.443 228.079 529.003 232.399C530.563 236.599 531.343 241.159 531.343 246.079V301.699C531.343 303.019 530.923 304.099 530.083 304.939C529.243 305.779 528.163 306.199 526.843 306.199H509.203C508.003 306.199 506.983 305.779 506.143 304.939C505.303 304.099 504.883 303.019 504.883 301.699V295.039C503.323 297.319 501.223 299.479 498.583 301.519C495.943 303.439 492.763 304.999 489.043 306.199C485.443 307.399 481.183 307.999 476.263 307.999ZM483.463 289.279C487.423 289.279 490.963 288.439 494.083 286.759C497.203 285.079 499.663 282.499 501.463 279.019C503.263 275.539 504.163 271.159 504.163 265.879V262.819L487.423 265.519C480.943 266.599 476.203 268.219 473.203 270.379C470.203 272.539 468.703 275.179 468.703 278.299C468.703 280.579 469.363 282.559 470.683 284.239C472.123 285.919 473.983 287.179 476.263 288.019C478.543 288.859 480.943 289.279 483.463 289.279ZM557.457 306.199C556.257 306.199 555.237 305.779 554.397 304.939C553.557 304.099 553.137 303.019 553.137 301.699V217.099C553.137 215.779 553.557 214.699 554.397 213.859C555.237 213.019 556.257 212.599 557.457 212.599H574.197C575.397 212.599 576.417 213.019 577.257 213.859C578.217 214.699 578.697 215.779 578.697 217.099V223.219C581.097 219.859 584.397 216.979 588.597 214.579C592.917 212.179 598.017 210.919 603.897 210.799C617.817 210.559 627.357 215.839 632.517 226.639C635.277 221.959 639.237 218.179 644.397 215.299C649.677 212.299 655.437 210.799 661.677 210.799C667.917 210.799 673.557 212.239 678.597 215.119C683.637 217.879 687.597 222.199 690.477 228.079C693.477 233.839 694.977 241.279 694.977 250.399V301.699C694.977 303.019 694.557 304.099 693.717 304.939C692.877 305.779 691.857 306.199 690.657 306.199H672.837C671.637 306.199 670.617 305.779 669.777 304.939C668.937 304.099 668.517 303.019 668.517 301.699V251.839C668.517 246.919 667.797 243.079 666.357 240.319C664.917 237.439 662.997 235.399 660.597 234.199C658.317 232.999 655.737 232.399 652.857 232.399C650.337 232.399 647.877 232.999 645.477 234.199C643.197 235.399 641.277 237.439 639.717 240.319C638.277 243.079 637.557 246.919 637.557 251.839V301.699C637.557 303.019 637.137 304.099 636.297 304.939C635.457 305.779 634.377 306.199 633.057 306.199H615.417C614.097 306.199 613.017 305.779 612.177 304.939C611.337 304.099 610.917 303.019 610.917 301.699V251.839C610.917 246.919 610.197 243.079 608.757 240.319C607.317 237.439 605.397 235.399 602.997 234.199C600.717 232.999 598.197 232.399 595.437 232.399C592.917 232.399 590.457 233.059 588.057 234.379C585.657 235.579 583.677 237.559 582.117 240.319C580.677 243.079 579.957 246.859 579.957 251.659V301.699C579.957 303.019 579.537 304.099 578.697 304.939C577.857 305.779 576.837 306.199 575.637 306.199H557.457ZM744.33 307.999C737.97 307.999 732.27 306.799 727.23 304.399C722.19 301.879 718.17 298.519 715.17 294.319C712.17 290.119 710.67 285.439 710.67 280.279C710.67 271.759 714.09 265.039 720.93 260.119C727.89 255.199 737.01 251.839 748.29 250.039L771.87 246.619V243.379C771.87 238.699 770.79 235.099 768.63 232.579C766.47 230.059 762.69 228.799 757.29 228.799C753.33 228.799 750.15 229.579 747.75 231.139C745.35 232.699 743.49 234.739 742.17 237.259C741.21 238.819 739.83 239.599 738.03 239.599H720.93C719.61 239.599 718.59 239.239 717.87 238.519C717.15 237.679 716.85 236.719 716.97 235.639C716.97 233.599 717.75 231.199 719.31 228.439C720.87 225.679 723.27 222.979 726.51 220.339C729.75 217.579 733.89 215.299 738.93 213.499C743.97 211.699 750.15 210.799 757.47 210.799C765.03 210.799 771.51 211.699 776.91 213.499C782.31 215.299 786.63 217.819 789.87 221.059C793.11 224.299 795.51 228.079 797.07 232.399C798.63 236.599 799.41 241.159 799.41 246.079V301.699C799.41 303.019 798.99 304.099 798.15 304.939C797.31 305.779 796.23 306.199 794.91 306.199H777.27C776.07 306.199 775.05 305.779 774.21 304.939C773.37 304.099 772.95 303.019 772.95 301.699V295.039C771.39 297.319 769.29 299.479 766.65 301.519C764.01 303.439 760.83 304.999 757.11 306.199C753.51 307.399 749.25 307.999 744.33 307.999ZM751.53 289.279C755.49 289.279 759.03 288.439 762.15 286.759C765.27 285.079 767.73 282.499 769.53 279.019C771.33 275.539 772.23 271.159 772.23 265.879V262.819L755.49 265.519C749.01 266.599 744.27 268.219 741.27 270.379C738.27 272.539 736.77 275.179 736.77 278.299C736.77 280.579 737.43 282.559 738.75 284.239C740.19 285.919 742.05 287.179 744.33 288.019C746.61 288.859 749.01 289.279 751.53 289.279ZM825.524 306.199C824.324 306.199 823.304 305.779 822.464 304.939C821.624 304.099 821.204 303.019 821.204 301.699V217.099C821.204 215.899 821.624 214.879 822.464 214.039C823.304 213.079 824.324 212.599 825.524 212.599H843.164C844.364 212.599 845.384 213.079 846.224 214.039C847.184 214.879 847.664 215.899 847.664 217.099V224.299C850.664 220.579 854.324 217.699 858.644 215.659C863.084 213.619 868.184 212.599 873.944 212.599H881.684C882.884 212.599 883.904 213.019 884.744 213.859C885.584 214.699 886.004 215.779 886.004 217.099V232.579C886.004 233.899 885.584 234.979 884.744 235.819C883.904 236.659 882.884 237.079 881.684 237.079H865.844C860.564 237.079 856.424 238.579 853.424 241.579C850.424 244.459 848.924 248.599 848.924 253.999V301.699C848.924 303.019 848.504 304.099 847.664 304.939C846.824 305.779 845.744 306.199 844.424 306.199H825.524ZM893.354 306.199C892.034 306.199 890.954 305.779 890.114 304.939C889.274 304.099 888.854 303.019 888.854 301.699V281.539C888.854 280.219 889.274 279.139 890.114 278.299C890.954 277.459 892.034 277.039 893.354 277.039H913.514C914.834 277.039 915.914 277.459 916.754 278.299C917.594 279.139 918.014 280.219 918.014 281.539V301.699C918.014 303.019 917.594 304.099 916.754 304.939C915.914 305.779 914.834 306.199 913.514 306.199H893.354Z" fill="#BD4747"/>
</svg>
