<svg width="428" height="112" viewBox="0 0 428 112" fill="none" xmlns="http://www.w3.org/2000/svg">
<g filter="url(#filter0_d_3347_488)">
<rect x="6.5" y="2.5" width="415" height="99" rx="49.5" stroke="#FFE57D" stroke-width="5" shape-rendering="crispEdges"/>
<path d="M37.2575 68L37.2575 36.5L44.975 36.5C47.525 36.5 49.6775 36.95 51.4325 37.85C53.2025 38.735 54.635 39.935 55.73 41.45C56.825 42.95 57.62 44.6375 58.115 46.5125C58.625 48.3725 58.88 50.285 58.88 52.25C58.88 54.05 58.64 55.8725 58.16 57.7175C57.695 59.5625 56.9225 61.265 55.8425 62.825C54.7625 64.385 53.3225 65.6375 51.5225 66.5825C49.7225 67.5275 47.48 68 44.795 68L37.2575 68ZM42.05 63.5L45.2 63.5C46.835 63.5 48.2075 63.17 49.3175 62.51C50.4425 61.835 51.335 60.95 51.995 59.855C52.655 58.745 53.1275 57.53 53.4125 56.21C53.7125 54.89 53.8625 53.57 53.8625 52.25C53.8625 50.84 53.705 49.4675 53.39 48.1325C53.09 46.7975 52.61 45.59 51.95 44.51C51.305 43.43 50.465 42.575 49.43 41.945C48.395 41.3 47.15 40.9775 45.695 40.9775L42.05 40.9775L42.05 63.5ZM64.987 68L64.987 36.5L84.5395 36.5L84.5395 41.0675L69.802 41.0675L69.802 49.4375L79.567 49.4375L79.567 54.005L69.802 54.005L69.802 63.4325L85.4845 63.4325L85.4845 68L64.987 68ZM103.134 68.54C101.454 68.54 99.894 68.2175 98.454 67.5725C97.014 66.9125 95.7615 66.0125 94.6965 64.8725C93.6465 63.7175 92.8665 62.3825 92.3565 60.8675L96.744 59.2475C97.389 60.6725 98.3115 61.8275 99.5115 62.7125C100.711 63.5975 102.031 64.04 103.471 64.04C104.926 64.04 106.104 63.6575 107.004 62.8925C107.904 62.1275 108.354 61.0175 108.354 59.5625C108.354 58.6025 108.054 57.755 107.454 57.02C106.854 56.285 106.066 55.6325 105.091 55.0625C104.116 54.4775 103.066 53.93 101.941 53.42C100.936 53 99.9315 52.52 98.9265 51.98C97.9365 51.44 97.0215 50.81 96.1815 50.09C95.3565 49.355 94.689 48.4925 94.179 47.5025C93.669 46.5125 93.414 45.3575 93.414 44.0375C93.414 42.5675 93.789 41.225 94.539 40.01C95.304 38.78 96.384 37.7975 97.779 37.0625C99.189 36.3275 100.854 35.96 102.774 35.96C105.069 35.96 107.026 36.56 108.646 37.76C110.281 38.945 111.354 40.4375 111.864 42.2375L107.521 43.7C107.101 42.785 106.471 42.0125 105.631 41.3825C104.791 40.7525 103.756 40.4375 102.526 40.4375C101.296 40.4375 100.276 40.7525 99.4665 41.3825C98.6715 42.0125 98.274 42.8675 98.274 43.9475C98.274 44.7425 98.514 45.4325 98.994 46.0175C99.489 46.5875 100.179 47.12 101.064 47.615C101.949 48.11 103.006 48.6425 104.236 49.2125C105.226 49.6775 106.246 50.2025 107.296 50.7875C108.346 51.3725 109.321 52.0625 110.221 52.8575C111.121 53.6375 111.841 54.56 112.381 55.625C112.936 56.69 113.214 57.9275 113.214 59.3375C113.214 61.3025 112.756 62.9675 111.841 64.3325C110.926 65.6975 109.704 66.74 108.174 67.46C106.644 68.18 104.964 68.54 103.134 68.54ZM131.313 68.495C129.078 68.495 127.181 68.03 125.621 67.1C124.061 66.17 122.801 64.925 121.841 63.365C120.881 61.805 120.176 60.0575 119.726 58.1225C119.291 56.1875 119.073 54.23 119.073 52.25C119.073 50.3 119.298 48.365 119.748 46.445C120.213 44.51 120.933 42.755 121.908 41.18C122.883 39.605 124.143 38.345 125.688 37.4C127.248 36.455 129.123 35.9825 131.313 35.9825C133.023 35.9825 134.493 36.2825 135.723 36.8825C136.953 37.4825 137.973 38.2625 138.783 39.2225C139.593 40.1675 140.216 41.1575 140.651 42.1925L136.376 44.3075C135.791 43.1825 135.116 42.2675 134.351 41.5625C133.586 40.8575 132.573 40.505 131.313 40.505C129.978 40.505 128.846 40.865 127.916 41.585C126.986 42.29 126.236 43.2275 125.666 44.3975C125.096 45.5525 124.683 46.82 124.428 48.2C124.173 49.565 124.046 50.915 124.046 52.25C124.046 53.675 124.188 55.085 124.473 56.48C124.758 57.875 125.193 59.135 125.778 60.26C126.378 61.385 127.136 62.285 128.051 62.96C128.966 63.635 130.053 63.9725 131.313 63.9725C132.588 63.9725 133.631 63.5975 134.441 62.8475C135.266 62.0975 135.956 61.13 136.511 59.945L140.853 61.5875C140.328 62.8775 139.638 64.0475 138.783 65.0975C137.928 66.1475 136.878 66.98 135.633 67.595C134.403 68.195 132.963 68.495 131.313 68.495ZM158.278 68.54C156.223 68.54 154.468 68.09 153.013 67.19C151.558 66.275 150.373 65.045 149.458 63.5C148.543 61.955 147.868 60.215 147.433 58.28C147.013 56.33 146.803 54.32 146.803 52.25C146.803 50.18 147.013 48.1775 147.433 46.2425C147.868 44.2925 148.543 42.545 149.458 41C150.373 39.455 151.558 38.2325 153.013 37.3325C154.468 36.4175 156.223 35.96 158.278 35.96C160.333 35.96 162.088 36.4175 163.543 37.3325C165.013 38.2325 166.205 39.455 167.12 41C168.035 42.545 168.71 44.2925 169.145 46.2425C169.58 48.1775 169.798 50.18 169.798 52.25C169.798 54.32 169.58 56.33 169.145 58.28C168.71 60.215 168.035 61.955 167.12 63.5C166.205 65.045 165.013 66.275 163.543 67.19C162.088 68.09 160.333 68.54 158.278 68.54ZM158.278 64.0175C159.433 64.0175 160.423 63.68 161.248 63.005C162.073 62.33 162.74 61.43 163.25 60.305C163.775 59.18 164.158 57.92 164.398 56.525C164.653 55.115 164.78 53.69 164.78 52.25C164.78 50.69 164.653 49.2125 164.398 47.8175C164.158 46.4075 163.783 45.155 163.273 44.06C162.763 42.95 162.095 42.08 161.27 41.45C160.445 40.805 159.448 40.4825 158.278 40.4825C157.123 40.4825 156.133 40.82 155.308 41.495C154.483 42.155 153.808 43.0475 153.283 44.1725C152.773 45.2975 152.39 46.565 152.135 47.975C151.895 49.37 151.775 50.795 151.775 52.25C151.775 53.795 151.895 55.2725 152.135 56.6825C152.39 58.0775 152.773 59.33 153.283 60.44C153.808 61.55 154.483 62.4275 155.308 63.0725C156.133 63.7025 157.123 64.0175 158.278 64.0175ZM175.905 68L175.905 36.5L185.94 36.5C188.46 36.5 190.447 36.905 191.902 37.715C193.357 38.525 194.385 39.575 194.985 40.865C195.6 42.14 195.907 43.475 195.907 44.87C195.907 46.31 195.54 47.6075 194.805 48.7625C194.085 49.9025 193.012 50.78 191.587 51.395C193.327 51.935 194.662 52.8875 195.592 54.2525C196.522 55.6175 196.987 57.155 196.987 58.865C196.987 59.96 196.807 61.0475 196.447 62.1275C196.102 63.2075 195.525 64.19 194.715 65.075C193.92 65.96 192.862 66.6725 191.542 67.2125C190.222 67.7375 188.58 68 186.615 68L175.905 68ZM180.72 63.5675L187.02 63.5675C188.385 63.5675 189.442 63.3425 190.192 62.8925C190.957 62.4275 191.49 61.8425 191.79 61.1375C192.09 60.4325 192.24 59.7125 192.24 58.9775C192.24 58.1075 192.06 57.2825 191.7 56.5025C191.355 55.7225 190.702 55.085 189.742 54.59C188.797 54.095 187.44 53.8475 185.67 53.8475L180.72 53.8475L180.72 63.5675ZM180.72 49.4825L185.197 49.4825C187.207 49.4825 188.7 49.085 189.675 48.29C190.665 47.495 191.16 46.4375 191.16 45.1175C191.16 44.4425 191.025 43.7825 190.755 43.1375C190.5 42.4925 190.005 41.96 189.27 41.54C188.55 41.12 187.492 40.91 186.097 40.91L180.72 40.91L180.72 49.4825ZM203.634 68L203.634 36.5L214.074 36.5C216.639 36.5 218.657 36.9425 220.127 37.8275C221.612 38.7125 222.662 39.8675 223.277 41.2925C223.907 42.7175 224.222 44.225 224.222 45.815C224.222 46.94 224.034 48.05 223.659 49.145C223.299 50.225 222.729 51.2075 221.949 52.0925C221.184 52.9775 220.202 53.6975 219.002 54.2525C217.802 54.8075 216.377 55.13 214.727 55.22L208.449 55.22L208.449 68L203.634 68ZM218.822 68L212.229 54.59L217.337 54.1175L224.154 68L218.822 68ZM208.449 50.7425L214.164 50.7425C215.484 50.7425 216.519 50.51 217.269 50.045C218.034 49.565 218.574 48.9575 218.889 48.2225C219.204 47.4875 219.362 46.7075 219.362 45.8825C219.362 45.1475 219.212 44.405 218.912 43.655C218.612 42.89 218.087 42.2525 217.337 41.7425C216.587 41.2325 215.529 40.9775 214.164 40.9775L208.449 40.9775L208.449 50.7425ZM231.364 68L231.364 36.5L250.916 36.5L250.916 41.0675L236.179 41.0675L236.179 49.4375L245.944 49.4375L245.944 54.005L236.179 54.005L236.179 63.4325L251.861 63.4325L251.861 68L231.364 68ZM297.69 68.495C295.455 68.495 293.558 68.03 291.998 67.1C290.438 66.17 289.178 64.925 288.218 63.365C287.258 61.805 286.553 60.0575 286.103 58.1225C285.668 56.1875 285.45 54.23 285.45 52.25C285.45 50.3 285.675 48.365 286.125 46.445C286.59 44.51 287.31 42.755 288.285 41.18C289.26 39.605 290.52 38.345 292.065 37.4C293.625 36.455 295.5 35.9825 297.69 35.9825C299.4 35.9825 300.87 36.2825 302.1 36.8825C303.33 37.4825 304.35 38.2625 305.16 39.2225C305.97 40.1675 306.593 41.1575 307.028 42.1925L302.753 44.3075C302.168 43.1825 301.493 42.2675 300.728 41.5625C299.963 40.8575 298.95 40.505 297.69 40.505C296.355 40.505 295.223 40.865 294.293 41.585C293.363 42.29 292.613 43.2275 292.043 44.3975C291.473 45.5525 291.06 46.82 290.805 48.2C290.55 49.565 290.423 50.915 290.423 52.25C290.423 53.675 290.565 55.085 290.85 56.48C291.135 57.875 291.57 59.135 292.155 60.26C292.755 61.385 293.513 62.285 294.428 62.96C295.343 63.635 296.43 63.9725 297.69 63.9725C298.965 63.9725 300.008 63.5975 300.818 62.8475C301.643 62.0975 302.333 61.13 302.888 59.945L307.23 61.5875C306.705 62.8775 306.015 64.0475 305.16 65.0975C304.305 66.1475 303.255 66.98 302.01 67.595C300.78 68.195 299.34 68.495 297.69 68.495ZM324.655 68.54C322.6 68.54 320.845 68.09 319.39 67.19C317.935 66.275 316.75 65.045 315.835 63.5C314.92 61.955 314.245 60.215 313.81 58.28C313.39 56.33 313.18 54.32 313.18 52.25C313.18 50.18 313.39 48.1775 313.81 46.2425C314.245 44.2925 314.92 42.545 315.835 41C316.75 39.455 317.935 38.2325 319.39 37.3325C320.845 36.4175 322.6 35.96 324.655 35.96C326.71 35.96 328.465 36.4175 329.92 37.3325C331.39 38.2325 332.582 39.455 333.497 41C334.412 42.545 335.087 44.2925 335.522 46.2425C335.957 48.1775 336.175 50.18 336.175 52.25C336.175 54.32 335.957 56.33 335.522 58.28C335.087 60.215 334.412 61.955 333.497 63.5C332.582 65.045 331.39 66.275 329.92 67.19C328.465 68.09 326.71 68.54 324.655 68.54ZM324.655 64.0175C325.81 64.0175 326.8 63.68 327.625 63.005C328.45 62.33 329.117 61.43 329.627 60.305C330.152 59.18 330.535 57.92 330.775 56.525C331.03 55.115 331.157 53.69 331.157 52.25C331.157 50.69 331.03 49.2125 330.775 47.8175C330.535 46.4075 330.16 45.155 329.65 44.06C329.14 42.95 328.472 42.08 327.647 41.45C326.822 40.805 325.825 40.4825 324.655 40.4825C323.5 40.4825 322.51 40.82 321.685 41.495C320.86 42.155 320.185 43.0475 319.66 44.1725C319.15 45.2975 318.767 46.565 318.512 47.975C318.272 49.37 318.152 50.795 318.152 52.25C318.152 53.795 318.272 55.2725 318.512 56.6825C318.767 58.0775 319.15 59.33 319.66 60.44C320.185 61.55 320.86 62.4275 321.685 63.0725C322.51 63.7025 323.5 64.0175 324.655 64.0175ZM342.282 68L342.282 36.5L347.119 36.5L351.732 54.365C351.867 54.92 352.002 55.4825 352.137 56.0525C352.287 56.6075 352.392 57.1025 352.452 57.5375C352.527 57.1025 352.632 56.6075 352.767 56.0525C352.902 55.4825 353.044 54.92 353.194 54.365L357.897 36.5L362.487 36.5L362.487 68L358.257 68L358.257 49.8875C358.257 49.5575 358.257 49.1225 358.257 48.5825C358.272 48.0275 358.302 47.5625 358.347 47.1875C358.227 47.6075 358.092 48.0575 357.942 48.5375C357.807 49.0025 357.679 49.4525 357.559 49.8875L352.654 68L352.137 68L347.209 49.8875C347.089 49.4525 346.954 48.995 346.804 48.515C346.669 48.035 346.542 47.5925 346.422 47.1875C346.452 47.5625 346.474 48.0275 346.489 48.5825C346.504 49.1225 346.512 49.5575 346.512 49.8875L346.512 68L342.282 68ZM380.114 68.54C378.059 68.54 376.304 68.09 374.849 67.19C373.394 66.275 372.209 65.045 371.294 63.5C370.379 61.955 369.704 60.215 369.269 58.28C368.849 56.33 368.639 54.32 368.639 52.25C368.639 50.18 368.849 48.1775 369.269 46.2425C369.704 44.2925 370.379 42.545 371.294 41C372.209 39.455 373.394 38.2325 374.849 37.3325C376.304 36.4175 378.059 35.96 380.114 35.96C382.169 35.96 383.924 36.4175 385.379 37.3325C386.849 38.2325 388.041 39.455 388.956 41C389.871 42.545 390.546 44.2925 390.981 46.2425C391.416 48.1775 391.634 50.18 391.634 52.25C391.634 54.32 391.416 56.33 390.981 58.28C390.546 60.215 389.871 61.955 388.956 63.5C388.041 65.045 386.849 66.275 385.379 67.19C383.924 68.09 382.169 68.54 380.114 68.54ZM380.114 64.0175C381.269 64.0175 382.259 63.68 383.084 63.005C383.909 62.33 384.576 61.43 385.086 60.305C385.611 59.18 385.994 57.92 386.234 56.525C386.489 55.115 386.616 53.69 386.616 52.25C386.616 50.69 386.489 49.2125 386.234 47.8175C385.994 46.4075 385.619 45.155 385.109 44.06C384.599 42.95 383.931 42.08 383.106 41.45C382.281 40.805 381.284 40.4825 380.114 40.4825C378.959 40.4825 377.969 40.82 377.144 41.495C376.319 42.155 375.644 43.0475 375.119 44.1725C374.609 45.2975 374.226 46.565 373.971 47.975C373.731 49.37 373.611 50.795 373.611 52.25C373.611 53.795 373.731 55.2725 373.971 56.6825C374.226 58.0775 374.609 59.33 375.119 60.44C375.644 61.55 376.319 62.4275 377.144 63.0725C377.969 63.7025 378.959 64.0175 380.114 64.0175Z" fill="#BD4747"/>
</g>
<defs>
<filter id="filter0_d_3347_488" x="0" y="8.31642e-09" width="428" height="112" filterUnits="userSpaceOnUse" color-interpolation-filters="sRGB">
<feFlood flood-opacity="0" result="BackgroundImageFix"/>
<feColorMatrix in="SourceAlpha" type="matrix" values="0 0 0 0 0 0 0 0 0 0 0 0 0 0 0 0 0 0 127 0" result="hardAlpha"/>
<feOffset dy="4"/>
<feGaussianBlur stdDeviation="2"/>
<feComposite in2="hardAlpha" operator="out"/>
<feColorMatrix type="matrix" values="0 0 0 0 0 0 0 0 0 0 0 0 0 0 0 0 0 0 0.25 0"/>
<feBlend mode="normal" in2="BackgroundImageFix" result="effect1_dropShadow_3347_488"/>
<feBlend mode="normal" in="SourceGraphic" in2="effect1_dropShadow_3347_488" result="shape"/>
</filter>
</defs>
</svg>
