<svg width="1244" height="50" viewBox="0 0 1244 50" fill="none" xmlns="http://www.w3.org/2000/svg">
<path d="M4.41895 11.2305V37.9883H0.366211V11.2305H4.41895ZM2.44141 1.2207C3.10872 1.2207 3.67839 1.44043 4.15039 1.87988C4.63867 2.30306 4.88281 2.97038 4.88281 3.88184C4.88281 4.77702 4.63867 5.44434 4.15039 5.88379C3.67839 6.32324 3.10872 6.54297 2.44141 6.54297C1.74154 6.54297 1.1556 6.32324 0.683594 5.88379C0.227865 5.44434 0 4.77702 0 3.88184C0 2.97038 0.227865 2.30306 0.683594 1.87988C1.1556 1.44043 1.74154 1.2207 2.44141 1.2207ZM25.6836 10.7422C28.8574 10.7422 31.2581 11.5234 32.8857 13.0859C34.5133 14.6322 35.3271 17.1224 35.3271 20.5566V37.9883H31.3232V20.8252C31.3232 18.5954 30.8105 16.9271 29.7852 15.8203C28.776 14.7135 27.2217 14.1602 25.1221 14.1602C22.1598 14.1602 20.0765 14.9984 18.8721 16.6748C17.6676 18.3512 17.0654 20.7845 17.0654 23.9746V37.9883H13.0127V11.2305H16.2842L16.8945 15.0879H17.1143C17.6839 14.1439 18.4082 13.3545 19.2871 12.7197C20.166 12.0687 21.1507 11.5804 22.2412 11.2549C23.3317 10.9131 24.4792 10.7422 25.6836 10.7422ZM60.9863 30.6641C60.9863 32.373 60.555 33.8135 59.6924 34.9854C58.846 36.141 57.6253 37.0117 56.0303 37.5977C54.4515 38.1836 52.5635 38.4766 50.3662 38.4766C48.4945 38.4766 46.875 38.3301 45.5078 38.0371C44.1406 37.7441 42.9443 37.3291 41.9189 36.792V33.0566C43.0094 33.5938 44.3115 34.082 45.8252 34.5215C47.3389 34.9609 48.8851 35.1807 50.4639 35.1807C52.7751 35.1807 54.4515 34.8063 55.4932 34.0576C56.5348 33.3089 57.0557 32.2917 57.0557 31.0059C57.0557 30.2734 56.8441 29.6305 56.4209 29.0771C56.014 28.5075 55.3223 27.9622 54.3457 27.4414C53.3691 26.9043 52.0182 26.3184 50.293 25.6836C48.584 25.0326 47.1029 24.3896 45.8496 23.7549C44.6126 23.1038 43.6523 22.3145 42.9688 21.3867C42.3014 20.459 41.9678 19.2546 41.9678 17.7734C41.9678 15.5111 42.8792 13.7777 44.7021 12.5732C46.5413 11.3525 48.9502 10.7422 51.9287 10.7422C53.54 10.7422 55.0456 10.9049 56.4453 11.2305C57.8613 11.5397 59.1797 11.9629 60.4004 12.5L59.0332 15.7471C57.9264 15.2751 56.7464 14.8763 55.4932 14.5508C54.2399 14.2253 52.9622 14.0625 51.6602 14.0625C49.7884 14.0625 48.348 14.3717 47.3389 14.9902C46.346 15.6087 45.8496 16.4551 45.8496 17.5293C45.8496 18.3594 46.0775 19.043 46.5332 19.5801C47.0052 20.1172 47.7539 20.6217 48.7793 21.0938C49.8047 21.5658 51.1556 22.1191 52.832 22.7539C54.5085 23.3724 55.957 24.0153 57.1777 24.6826C58.3984 25.3337 59.3343 26.1312 59.9854 27.0752C60.6527 28.0029 60.9863 29.1992 60.9863 30.6641ZM80.0781 10.7422C83.4147 10.7422 86.0758 11.8896 88.0615 14.1846C90.0472 16.4795 91.04 19.93 91.04 24.5361C91.04 27.5798 90.5843 30.1351 89.6729 32.2021C88.7614 34.2692 87.4756 35.8317 85.8154 36.8896C84.1715 37.9476 82.2266 38.4766 79.9805 38.4766C78.5645 38.4766 77.3193 38.2894 76.2451 37.915C75.1709 37.5407 74.2513 37.0361 73.4863 36.4014C72.7214 35.7666 72.0866 35.0749 71.582 34.3262H71.2891C71.3379 34.9609 71.3949 35.7259 71.46 36.6211C71.5413 37.5163 71.582 38.2975 71.582 38.9648V49.9512H67.5049V11.2305H70.8496L71.3867 15.1855H71.582C72.1029 14.3717 72.7376 13.6312 73.4863 12.9639C74.235 12.2803 75.1465 11.7432 76.2207 11.3525C77.3112 10.9456 78.597 10.7422 80.0781 10.7422ZM79.3701 14.1602C77.5146 14.1602 76.0173 14.5182 74.8779 15.2344C73.7549 15.9505 72.9329 17.0247 72.4121 18.457C71.8913 19.873 71.6146 21.6553 71.582 23.8037V24.585C71.582 26.8473 71.8262 28.7598 72.3145 30.3223C72.819 31.8848 73.641 33.0729 74.7803 33.8867C75.9359 34.7005 77.4821 35.1074 79.4189 35.1074C81.0791 35.1074 82.4626 34.6598 83.5693 33.7646C84.6761 32.8695 85.498 31.6243 86.0352 30.0293C86.5885 28.418 86.8652 26.5706 86.8652 24.4873C86.8652 21.3298 86.2467 18.8232 85.0098 16.9678C83.7891 15.096 81.9092 14.1602 79.3701 14.1602ZM102.173 11.2305V37.9883H98.1201V11.2305H102.173ZM100.195 1.2207C100.863 1.2207 101.432 1.44043 101.904 1.87988C102.393 2.30306 102.637 2.97038 102.637 3.88184C102.637 4.77702 102.393 5.44434 101.904 5.88379C101.432 6.32324 100.863 6.54297 100.195 6.54297C99.4954 6.54297 98.9095 6.32324 98.4375 5.88379C97.9818 5.44434 97.7539 4.77702 97.7539 3.88184C97.7539 2.97038 97.9818 2.30306 98.4375 1.87988C98.9095 1.44043 99.4954 1.2207 100.195 1.2207ZM122.925 10.7422C123.462 10.7422 124.023 10.7747 124.609 10.8398C125.195 10.8887 125.716 10.9619 126.172 11.0596L125.659 14.8193C125.22 14.7054 124.731 14.6159 124.194 14.5508C123.657 14.4857 123.153 14.4531 122.681 14.4531C121.606 14.4531 120.589 14.6729 119.629 15.1123C118.685 15.5355 117.855 16.154 117.139 16.9678C116.423 17.7653 115.861 18.7337 115.454 19.873C115.047 20.9961 114.844 22.2493 114.844 23.6328V37.9883H110.767V11.2305H114.136L114.575 16.1621H114.746C115.299 15.1693 115.967 14.266 116.748 13.4521C117.529 12.6221 118.433 11.9629 119.458 11.4746C120.5 10.9863 121.655 10.7422 122.925 10.7422ZM141.235 10.791C144.425 10.791 146.794 11.5072 148.34 12.9395C149.886 14.3717 150.659 16.6585 150.659 19.7998V37.9883H147.705L146.924 34.0332H146.729C145.98 35.0098 145.199 35.8317 144.385 36.499C143.571 37.1501 142.627 37.6465 141.553 37.9883C140.495 38.3138 139.193 38.4766 137.646 38.4766C136.019 38.4766 134.57 38.1917 133.301 37.6221C132.048 37.0524 131.055 36.1898 130.322 35.0342C129.606 33.8786 129.248 32.4137 129.248 30.6396C129.248 27.9704 130.306 25.9196 132.422 24.4873C134.538 23.055 137.76 22.2738 142.09 22.1436L146.704 21.9482V20.3125C146.704 18.0013 146.208 16.3818 145.215 15.4541C144.222 14.5264 142.822 14.0625 141.016 14.0625C139.616 14.0625 138.281 14.266 137.012 14.6729C135.742 15.0798 134.538 15.5599 133.398 16.1133L132.153 13.0371C133.358 12.4186 134.741 11.8896 136.304 11.4502C137.866 11.0107 139.51 10.791 141.235 10.791ZM146.655 24.8047L142.578 24.9756C139.242 25.1058 136.89 25.651 135.522 26.6113C134.155 27.5716 133.472 28.9307 133.472 30.6885C133.472 32.2184 133.936 33.3496 134.863 34.082C135.791 34.8145 137.02 35.1807 138.55 35.1807C140.926 35.1807 142.871 34.5215 144.385 33.2031C145.898 31.8848 146.655 29.9072 146.655 27.2705V24.8047ZM171.167 10.7422C171.704 10.7422 172.266 10.7747 172.852 10.8398C173.438 10.8887 173.958 10.9619 174.414 11.0596L173.901 14.8193C173.462 14.7054 172.974 14.6159 172.437 14.5508C171.899 14.4857 171.395 14.4531 170.923 14.4531C169.849 14.4531 168.831 14.6729 167.871 15.1123C166.927 15.5355 166.097 16.154 165.381 16.9678C164.665 17.7653 164.103 18.7337 163.696 19.873C163.289 20.9961 163.086 22.2493 163.086 23.6328V37.9883H159.009V11.2305H162.378L162.817 16.1621H162.988C163.542 15.1693 164.209 14.266 164.99 13.4521C165.771 12.6221 166.675 11.9629 167.7 11.4746C168.742 10.9863 169.897 10.7422 171.167 10.7422ZM189.233 50C188.403 50 187.679 49.9349 187.061 49.8047C186.442 49.6908 185.905 49.5524 185.449 49.3896V46.0938C185.954 46.2565 186.466 46.3786 186.987 46.46C187.508 46.5576 188.094 46.6064 188.745 46.6064C189.852 46.6064 190.747 46.2972 191.431 45.6787C192.114 45.0602 192.456 43.9372 192.456 42.3096V11.2305H196.509V42.2119C196.509 43.8395 196.248 45.2311 195.728 46.3867C195.207 47.5586 194.409 48.4538 193.335 49.0723C192.261 49.6908 190.894 50 189.233 50ZM192.09 3.88184C192.09 2.97038 192.318 2.30306 192.773 1.87988C193.245 1.44043 193.831 1.2207 194.531 1.2207C195.199 1.2207 195.768 1.44043 196.24 1.87988C196.729 2.30306 196.973 2.97038 196.973 3.88184C196.973 4.77702 196.729 5.44434 196.24 5.88379C195.768 6.32324 195.199 6.54297 194.531 6.54297C193.831 6.54297 193.245 6.32324 192.773 5.88379C192.318 5.44434 192.09 4.77702 192.09 3.88184ZM228.174 24.5605C228.174 26.7578 227.889 28.7191 227.319 30.4443C226.75 32.1696 225.928 33.6263 224.854 34.8145C223.779 36.0026 222.477 36.9141 220.947 37.5488C219.434 38.1673 217.716 38.4766 215.796 38.4766C214.006 38.4766 212.362 38.1673 210.864 37.5488C209.383 36.9141 208.097 36.0026 207.007 34.8145C205.933 33.6263 205.094 32.1696 204.492 30.4443C203.906 28.7191 203.613 26.7578 203.613 24.5605C203.613 21.6309 204.11 19.1406 205.103 17.0898C206.095 15.0228 207.511 13.4521 209.351 12.3779C211.206 11.2874 213.411 10.7422 215.967 10.7422C218.408 10.7422 220.54 11.2874 222.363 12.3779C224.202 13.4684 225.627 15.0472 226.636 17.1143C227.661 19.165 228.174 21.6471 228.174 24.5605ZM207.812 24.5605C207.812 26.709 208.097 28.5726 208.667 30.1514C209.237 31.7301 210.116 32.9508 211.304 33.8135C212.492 34.6761 214.022 35.1074 215.894 35.1074C217.749 35.1074 219.271 34.6761 220.459 33.8135C221.663 32.9508 222.55 31.7301 223.12 30.1514C223.69 28.5726 223.975 26.709 223.975 24.5605C223.975 22.4284 223.69 20.5892 223.12 19.043C222.55 17.4805 221.672 16.276 220.483 15.4297C219.295 14.5833 217.757 14.1602 215.869 14.1602C213.086 14.1602 211.043 15.0798 209.741 16.9189C208.455 18.7581 207.812 21.3053 207.812 24.5605ZM241.064 37.9883L230.908 11.2305H235.254L241.138 27.417C241.545 28.5238 241.96 29.7445 242.383 31.0791C242.806 32.4137 243.099 33.488 243.262 34.3018H243.433C243.628 33.488 243.953 32.4137 244.409 31.0791C244.865 29.7282 245.28 28.5075 245.654 27.417L251.538 11.2305H255.884L245.703 37.9883H241.064ZM270.483 10.7422C272.762 10.7422 274.715 11.2467 276.343 12.2559C277.97 13.265 279.215 14.681 280.078 16.5039C280.941 18.3105 281.372 20.4264 281.372 22.8516V25.3662H262.891C262.939 28.5075 263.721 30.9001 265.234 32.5439C266.748 34.1878 268.88 35.0098 271.631 35.0098C273.324 35.0098 274.821 34.8551 276.123 34.5459C277.425 34.2367 278.776 33.7809 280.176 33.1787V36.7432C278.825 37.3454 277.482 37.7848 276.147 38.0615C274.829 38.3382 273.267 38.4766 271.46 38.4766C268.888 38.4766 266.642 37.9557 264.722 36.9141C262.817 35.8561 261.336 34.3099 260.278 32.2754C259.22 30.2409 258.691 27.7507 258.691 24.8047C258.691 21.9238 259.172 19.4336 260.132 17.334C261.108 15.2181 262.476 13.5905 264.233 12.4512C266.007 11.3118 268.091 10.7422 270.483 10.7422ZM270.435 14.0625C268.27 14.0625 266.545 14.7705 265.259 16.1865C263.973 17.6025 263.208 19.5801 262.964 22.1191H277.124C277.108 20.5241 276.855 19.1243 276.367 17.9199C275.895 16.6992 275.171 15.7552 274.194 15.0879C273.218 14.4043 271.965 14.0625 270.435 14.0625ZM300.928 10.7422C304.102 10.7422 306.502 11.5234 308.13 13.0859C309.757 14.6322 310.571 17.1224 310.571 20.5566V37.9883H306.567V20.8252C306.567 18.5954 306.055 16.9271 305.029 15.8203C304.02 14.7135 302.466 14.1602 300.366 14.1602C297.404 14.1602 295.321 14.9984 294.116 16.6748C292.912 18.3512 292.31 20.7845 292.31 23.9746V37.9883H288.257V11.2305H291.528L292.139 15.0879H292.358C292.928 14.1439 293.652 13.3545 294.531 12.7197C295.41 12.0687 296.395 11.5804 297.485 11.2549C298.576 10.9131 299.723 10.7422 300.928 10.7422ZM336.23 30.6641C336.23 32.373 335.799 33.8135 334.937 34.9854C334.09 36.141 332.869 37.0117 331.274 37.5977C329.696 38.1836 327.808 38.4766 325.61 38.4766C323.739 38.4766 322.119 38.3301 320.752 38.0371C319.385 37.7441 318.188 37.3291 317.163 36.792V33.0566C318.254 33.5938 319.556 34.082 321.069 34.5215C322.583 34.9609 324.129 35.1807 325.708 35.1807C328.019 35.1807 329.696 34.8063 330.737 34.0576C331.779 33.3089 332.3 32.2917 332.3 31.0059C332.3 30.2734 332.088 29.6305 331.665 29.0771C331.258 28.5075 330.566 27.9622 329.59 27.4414C328.613 26.9043 327.262 26.3184 325.537 25.6836C323.828 25.0326 322.347 24.3896 321.094 23.7549C319.857 23.1038 318.896 22.3145 318.213 21.3867C317.546 20.459 317.212 19.2546 317.212 17.7734C317.212 15.5111 318.123 13.7777 319.946 12.5732C321.785 11.3525 324.194 10.7422 327.173 10.7422C328.784 10.7422 330.29 10.9049 331.689 11.2305C333.105 11.5397 334.424 11.9629 335.645 12.5L334.277 15.7471C333.171 15.2751 331.991 14.8763 330.737 14.5508C329.484 14.2253 328.206 14.0625 326.904 14.0625C325.033 14.0625 323.592 14.3717 322.583 14.9902C321.59 15.6087 321.094 16.4551 321.094 17.5293C321.094 18.3594 321.322 19.043 321.777 19.5801C322.249 20.1172 322.998 20.6217 324.023 21.0938C325.049 21.5658 326.4 22.1191 328.076 22.7539C329.753 23.3724 331.201 24.0153 332.422 24.6826C333.643 25.3337 334.578 26.1312 335.229 27.0752C335.897 28.0029 336.23 29.1992 336.23 30.6641ZM365.747 10.791C368.937 10.791 371.305 11.5072 372.852 12.9395C374.398 14.3717 375.171 16.6585 375.171 19.7998V37.9883H372.217L371.436 34.0332H371.24C370.492 35.0098 369.71 35.8317 368.896 36.499C368.083 37.1501 367.139 37.6465 366.064 37.9883C365.007 38.3138 363.704 38.4766 362.158 38.4766C360.531 38.4766 359.082 38.1917 357.812 37.6221C356.559 37.0524 355.566 36.1898 354.834 35.0342C354.118 33.8786 353.76 32.4137 353.76 30.6396C353.76 27.9704 354.818 25.9196 356.934 24.4873C359.049 23.055 362.272 22.2738 366.602 22.1436L371.216 21.9482V20.3125C371.216 18.0013 370.719 16.3818 369.727 15.4541C368.734 14.5264 367.334 14.0625 365.527 14.0625C364.128 14.0625 362.793 14.266 361.523 14.6729C360.254 15.0798 359.049 15.5599 357.91 16.1133L356.665 13.0371C357.869 12.4186 359.253 11.8896 360.815 11.4502C362.378 11.0107 364.022 10.791 365.747 10.791ZM371.167 24.8047L367.09 24.9756C363.753 25.1058 361.401 25.651 360.034 26.6113C358.667 27.5716 357.983 28.9307 357.983 30.6885C357.983 32.2184 358.447 33.3496 359.375 34.082C360.303 34.8145 361.532 35.1807 363.062 35.1807C365.438 35.1807 367.383 34.5215 368.896 33.2031C370.41 31.8848 371.167 29.9072 371.167 27.2705V24.8047ZM406.03 38.4766C402.645 38.4766 399.959 37.321 397.974 35.0098C396.004 32.6986 395.02 29.2643 395.02 24.707C395.02 20.1009 396.029 16.626 398.047 14.2822C400.065 11.9222 402.751 10.7422 406.104 10.7422C407.52 10.7422 408.757 10.9294 409.814 11.3037C410.872 11.6781 411.784 12.1826 412.549 12.8174C413.314 13.4359 413.957 14.1439 414.478 14.9414H414.771C414.705 14.4368 414.64 13.7451 414.575 12.8662C414.51 11.9873 414.478 11.2712 414.478 10.7178V0H418.53V37.9883H415.259L414.648 34.1797H414.478C413.973 34.9772 413.33 35.7015 412.549 36.3525C411.784 37.0036 410.864 37.5244 409.79 37.915C408.732 38.2894 407.479 38.4766 406.03 38.4766ZM406.665 35.1074C409.53 35.1074 411.556 34.2936 412.744 32.666C413.932 31.0384 414.526 28.6214 414.526 25.415V24.6826C414.526 21.2809 413.957 18.6686 412.817 16.8457C411.694 15.0228 409.644 14.1113 406.665 14.1113C404.175 14.1113 402.311 15.0716 401.074 16.9922C399.837 18.8965 399.219 21.5007 399.219 24.8047C399.219 28.0924 399.829 30.6315 401.05 32.4219C402.287 34.2122 404.159 35.1074 406.665 35.1074ZM437.427 10.7422C439.705 10.7422 441.659 11.2467 443.286 12.2559C444.914 13.265 446.159 14.681 447.021 16.5039C447.884 18.3105 448.315 20.4264 448.315 22.8516V25.3662H429.834C429.883 28.5075 430.664 30.9001 432.178 32.5439C433.691 34.1878 435.824 35.0098 438.574 35.0098C440.267 35.0098 441.764 34.8551 443.066 34.5459C444.368 34.2367 445.719 33.7809 447.119 33.1787V36.7432C445.768 37.3454 444.425 37.7848 443.091 38.0615C441.772 38.3382 440.21 38.4766 438.403 38.4766C435.832 38.4766 433.586 37.9557 431.665 36.9141C429.761 35.8561 428.28 34.3099 427.222 32.2754C426.164 30.2409 425.635 27.7507 425.635 24.8047C425.635 21.9238 426.115 19.4336 427.075 17.334C428.052 15.2181 429.419 13.5905 431.177 12.4512C432.951 11.3118 435.034 10.7422 437.427 10.7422ZM437.378 14.0625C435.213 14.0625 433.488 14.7705 432.202 16.1865C430.916 17.6025 430.151 19.5801 429.907 22.1191H444.067C444.051 20.5241 443.799 19.1243 443.311 17.9199C442.839 16.6992 442.114 15.7552 441.138 15.0879C440.161 14.4043 438.908 14.0625 437.378 14.0625ZM472.51 30.6641C472.51 32.373 472.078 33.8135 471.216 34.9854C470.369 36.141 469.149 37.0117 467.554 37.5977C465.975 38.1836 464.087 38.4766 461.89 38.4766C460.018 38.4766 458.398 38.3301 457.031 38.0371C455.664 37.7441 454.468 37.3291 453.442 36.792V33.0566C454.533 33.5938 455.835 34.082 457.349 34.5215C458.862 34.9609 460.409 35.1807 461.987 35.1807C464.299 35.1807 465.975 34.8063 467.017 34.0576C468.058 33.3089 468.579 32.2917 468.579 31.0059C468.579 30.2734 468.368 29.6305 467.944 29.0771C467.537 28.5075 466.846 27.9622 465.869 27.4414C464.893 26.9043 463.542 26.3184 461.816 25.6836C460.107 25.0326 458.626 24.3896 457.373 23.7549C456.136 23.1038 455.176 22.3145 454.492 21.3867C453.825 20.459 453.491 19.2546 453.491 17.7734C453.491 15.5111 454.403 13.7777 456.226 12.5732C458.065 11.3525 460.474 10.7422 463.452 10.7422C465.063 10.7422 466.569 10.9049 467.969 11.2305C469.385 11.5397 470.703 11.9629 471.924 12.5L470.557 15.7471C469.45 15.2751 468.27 14.8763 467.017 14.5508C465.763 14.2253 464.486 14.0625 463.184 14.0625C461.312 14.0625 459.871 14.3717 458.862 14.9902C457.869 15.6087 457.373 16.4551 457.373 17.5293C457.373 18.3594 457.601 19.043 458.057 19.5801C458.529 20.1172 459.277 20.6217 460.303 21.0938C461.328 21.5658 462.679 22.1191 464.355 22.7539C466.032 23.3724 467.48 24.0153 468.701 24.6826C469.922 25.3337 470.858 26.1312 471.509 27.0752C472.176 28.0029 472.51 29.1992 472.51 30.6641ZM489.746 38.4766C487.337 38.4766 485.213 37.9801 483.374 36.9873C481.535 35.9945 480.103 34.4808 479.077 32.4463C478.052 30.4118 477.539 27.8483 477.539 24.7559C477.539 21.5169 478.076 18.8721 479.15 16.8213C480.241 14.7542 481.738 13.2243 483.643 12.2314C485.547 11.2386 487.712 10.7422 490.137 10.7422C491.471 10.7422 492.757 10.8805 493.994 11.1572C495.247 11.4176 496.273 11.7513 497.07 12.1582L495.85 15.5518C495.036 15.2262 494.092 14.9333 493.018 14.6729C491.96 14.4124 490.967 14.2822 490.039 14.2822C488.184 14.2822 486.637 14.681 485.4 15.4785C484.18 16.276 483.26 17.4479 482.642 18.9941C482.039 20.5404 481.738 22.4447 481.738 24.707C481.738 26.8717 482.031 28.7191 482.617 30.249C483.219 31.779 484.106 32.9508 485.278 33.7646C486.466 34.5622 487.948 34.9609 489.722 34.9609C491.138 34.9609 492.415 34.8145 493.555 34.5215C494.694 34.2122 495.728 33.8542 496.655 33.4473V37.0605C495.76 37.5163 494.759 37.8662 493.652 38.1104C492.562 38.3545 491.26 38.4766 489.746 38.4766ZM526.074 24.5605C526.074 26.7578 525.789 28.7191 525.22 30.4443C524.65 32.1696 523.828 33.6263 522.754 34.8145C521.68 36.0026 520.378 36.9141 518.848 37.5488C517.334 38.1673 515.617 38.4766 513.696 38.4766C511.906 38.4766 510.262 38.1673 508.765 37.5488C507.284 36.9141 505.998 36.0026 504.907 34.8145C503.833 33.6263 502.995 32.1696 502.393 30.4443C501.807 28.7191 501.514 26.7578 501.514 24.5605C501.514 21.6309 502.01 19.1406 503.003 17.0898C503.996 15.0228 505.412 13.4521 507.251 12.3779C509.106 11.2874 511.312 10.7422 513.867 10.7422C516.309 10.7422 518.441 11.2874 520.264 12.3779C522.103 13.4684 523.527 15.0472 524.536 17.1143C525.562 19.165 526.074 21.6471 526.074 24.5605ZM505.713 24.5605C505.713 26.709 505.998 28.5726 506.567 30.1514C507.137 31.7301 508.016 32.9508 509.204 33.8135C510.392 34.6761 511.922 35.1074 513.794 35.1074C515.649 35.1074 517.171 34.6761 518.359 33.8135C519.564 32.9508 520.451 31.7301 521.021 30.1514C521.59 28.5726 521.875 26.709 521.875 24.5605C521.875 22.4284 521.59 20.5892 521.021 19.043C520.451 17.4805 519.572 16.276 518.384 15.4297C517.196 14.5833 515.658 14.1602 513.77 14.1602C510.986 14.1602 508.944 15.0798 507.642 16.9189C506.356 18.7581 505.713 21.3053 505.713 24.5605ZM537.134 0V9.49707C537.134 10.5876 537.101 11.6455 537.036 12.6709C536.987 13.6963 536.947 14.4938 536.914 15.0635H537.134C537.866 13.859 538.924 12.8418 540.308 12.0117C541.691 11.1816 543.457 10.7666 545.605 10.7666C548.958 10.7666 551.628 11.9303 553.613 14.2578C555.615 16.569 556.616 20.0114 556.616 24.585C556.616 27.596 556.16 30.1351 555.249 32.2021C554.338 34.2692 553.052 35.8317 551.392 36.8896C549.731 37.9476 547.77 38.4766 545.508 38.4766C543.392 38.4766 541.65 38.0859 540.283 37.3047C538.932 36.5072 537.891 35.5387 537.158 34.3994H536.841L536.011 37.9883H533.081V0H537.134ZM544.946 14.1602C543.009 14.1602 541.471 14.5426 540.332 15.3076C539.193 16.0563 538.371 17.1956 537.866 18.7256C537.378 20.2393 537.134 22.1598 537.134 24.4873V24.707C537.134 28.0762 537.695 30.6559 538.818 32.4463C539.941 34.2204 541.984 35.1074 544.946 35.1074C547.437 35.1074 549.3 34.196 550.537 32.373C551.79 30.5501 552.417 27.946 552.417 24.5605C552.417 21.11 551.799 18.514 550.562 16.7725C549.341 15.0309 547.469 14.1602 544.946 14.1602ZM575.854 10.7422C576.392 10.7422 576.953 10.7747 577.539 10.8398C578.125 10.8887 578.646 10.9619 579.102 11.0596L578.589 14.8193C578.149 14.7054 577.661 14.6159 577.124 14.5508C576.587 14.4857 576.082 14.4531 575.61 14.4531C574.536 14.4531 573.519 14.6729 572.559 15.1123C571.615 15.5355 570.785 16.154 570.068 16.9678C569.352 17.7653 568.791 18.7337 568.384 19.873C567.977 20.9961 567.773 22.2493 567.773 23.6328V37.9883H563.696V11.2305H567.065L567.505 16.1621H567.676C568.229 15.1693 568.896 14.266 569.678 13.4521C570.459 12.6221 571.362 11.9629 572.388 11.4746C573.429 10.9863 574.585 10.7422 575.854 10.7422ZM588.208 11.2305V37.9883H584.155V11.2305H588.208ZM586.23 1.2207C586.898 1.2207 587.467 1.44043 587.939 1.87988C588.428 2.30306 588.672 2.97038 588.672 3.88184C588.672 4.77702 588.428 5.44434 587.939 5.88379C587.467 6.32324 586.898 6.54297 586.23 6.54297C585.531 6.54297 584.945 6.32324 584.473 5.88379C584.017 5.44434 583.789 4.77702 583.789 3.88184C583.789 2.97038 584.017 2.30306 584.473 1.87988C584.945 1.44043 585.531 1.2207 586.23 1.2207ZM608.96 10.7422C609.497 10.7422 610.059 10.7747 610.645 10.8398C611.23 10.8887 611.751 10.9619 612.207 11.0596L611.694 14.8193C611.255 14.7054 610.767 14.6159 610.229 14.5508C609.692 14.4857 609.188 14.4531 608.716 14.4531C607.642 14.4531 606.624 14.6729 605.664 15.1123C604.72 15.5355 603.89 16.154 603.174 16.9678C602.458 17.7653 601.896 18.7337 601.489 19.873C601.082 20.9961 600.879 22.2493 600.879 23.6328V37.9883H596.802V11.2305H600.171L600.61 16.1621H600.781C601.335 15.1693 602.002 14.266 602.783 13.4521C603.564 12.6221 604.468 11.9629 605.493 11.4746C606.535 10.9863 607.69 10.7422 608.96 10.7422ZM653.32 24.5605C653.32 26.7578 653.035 28.7191 652.466 30.4443C651.896 32.1696 651.074 33.6263 650 34.8145C648.926 36.0026 647.624 36.9141 646.094 37.5488C644.58 38.1673 642.863 38.4766 640.942 38.4766C639.152 38.4766 637.508 38.1673 636.011 37.5488C634.53 36.9141 633.244 36.0026 632.153 34.8145C631.079 33.6263 630.241 32.1696 629.639 30.4443C629.053 28.7191 628.76 26.7578 628.76 24.5605C628.76 21.6309 629.256 19.1406 630.249 17.0898C631.242 15.0228 632.658 13.4521 634.497 12.3779C636.353 11.2874 638.558 10.7422 641.113 10.7422C643.555 10.7422 645.687 11.2874 647.51 12.3779C649.349 13.4684 650.773 15.0472 651.782 17.1143C652.808 19.165 653.32 21.6471 653.32 24.5605ZM632.959 24.5605C632.959 26.709 633.244 28.5726 633.813 30.1514C634.383 31.7301 635.262 32.9508 636.45 33.8135C637.638 34.6761 639.168 35.1074 641.04 35.1074C642.896 35.1074 644.417 34.6761 645.605 33.8135C646.81 32.9508 647.697 31.7301 648.267 30.1514C648.836 28.5726 649.121 26.709 649.121 24.5605C649.121 22.4284 648.836 20.5892 648.267 19.043C647.697 17.4805 646.818 16.276 645.63 15.4297C644.442 14.5833 642.904 14.1602 641.016 14.1602C638.232 14.1602 636.19 15.0798 634.888 16.9189C633.602 18.7581 632.959 21.3053 632.959 24.5605ZM690.625 30.6641C690.625 32.373 690.194 33.8135 689.331 34.9854C688.485 36.141 687.264 37.0117 685.669 37.5977C684.09 38.1836 682.202 38.4766 680.005 38.4766C678.133 38.4766 676.514 38.3301 675.146 38.0371C673.779 37.7441 672.583 37.3291 671.558 36.792V33.0566C672.648 33.5938 673.95 34.082 675.464 34.5215C676.978 34.9609 678.524 35.1807 680.103 35.1807C682.414 35.1807 684.09 34.8063 685.132 34.0576C686.174 33.3089 686.694 32.2917 686.694 31.0059C686.694 30.2734 686.483 29.6305 686.06 29.0771C685.653 28.5075 684.961 27.9622 683.984 27.4414C683.008 26.9043 681.657 26.3184 679.932 25.6836C678.223 25.0326 676.742 24.3896 675.488 23.7549C674.251 23.1038 673.291 22.3145 672.607 21.3867C671.94 20.459 671.606 19.2546 671.606 17.7734C671.606 15.5111 672.518 13.7777 674.341 12.5732C676.18 11.3525 678.589 10.7422 681.567 10.7422C683.179 10.7422 684.684 10.9049 686.084 11.2305C687.5 11.5397 688.818 11.9629 690.039 12.5L688.672 15.7471C687.565 15.2751 686.385 14.8763 685.132 14.5508C683.879 14.2253 682.601 14.0625 681.299 14.0625C679.427 14.0625 677.987 14.3717 676.978 14.9902C675.985 15.6087 675.488 16.4551 675.488 17.5293C675.488 18.3594 675.716 19.043 676.172 19.5801C676.644 20.1172 677.393 20.6217 678.418 21.0938C679.443 21.5658 680.794 22.1191 682.471 22.7539C684.147 23.3724 685.596 24.0153 686.816 24.6826C688.037 25.3337 688.973 26.1312 689.624 27.0752C690.291 28.0029 690.625 29.1992 690.625 30.6641ZM707.446 10.7422C709.725 10.7422 711.678 11.2467 713.306 12.2559C714.933 13.265 716.178 14.681 717.041 16.5039C717.904 18.3105 718.335 20.4264 718.335 22.8516V25.3662H699.854C699.902 28.5075 700.684 30.9001 702.197 32.5439C703.711 34.1878 705.843 35.0098 708.594 35.0098C710.286 35.0098 711.784 34.8551 713.086 34.5459C714.388 34.2367 715.739 33.7809 717.139 33.1787V36.7432C715.788 37.3454 714.445 37.7848 713.11 38.0615C711.792 38.3382 710.229 38.4766 708.423 38.4766C705.851 38.4766 703.605 37.9557 701.685 36.9141C699.78 35.8561 698.299 34.3099 697.241 32.2754C696.183 30.2409 695.654 27.7507 695.654 24.8047C695.654 21.9238 696.134 19.4336 697.095 17.334C698.071 15.2181 699.438 13.5905 701.196 12.4512C702.97 11.3118 705.054 10.7422 707.446 10.7422ZM707.397 14.0625C705.233 14.0625 703.507 14.7705 702.222 16.1865C700.936 17.6025 700.171 19.5801 699.927 22.1191H714.087C714.071 20.5241 713.818 19.1243 713.33 17.9199C712.858 16.6992 712.134 15.7552 711.157 15.0879C710.181 14.4043 708.927 14.0625 707.397 14.0625ZM737.891 10.7422C741.064 10.7422 743.465 11.5234 745.093 13.0859C746.72 14.6322 747.534 17.1224 747.534 20.5566V37.9883H743.53V20.8252C743.53 18.5954 743.018 16.9271 741.992 15.8203C740.983 14.7135 739.429 14.1602 737.329 14.1602C734.367 14.1602 732.284 14.9984 731.079 16.6748C729.875 18.3512 729.272 20.7845 729.272 23.9746V37.9883H725.22V11.2305H728.491L729.102 15.0879H729.321C729.891 14.1439 730.615 13.3545 731.494 12.7197C732.373 12.0687 733.358 11.5804 734.448 11.2549C735.539 10.9131 736.686 10.7422 737.891 10.7422ZM764.526 35.1562C765.194 35.1562 765.877 35.0993 766.577 34.9854C767.277 34.8714 767.847 34.7331 768.286 34.5703V37.7197C767.814 37.9313 767.155 38.1104 766.309 38.2568C765.479 38.4033 764.665 38.4766 763.867 38.4766C762.451 38.4766 761.165 38.2324 760.01 37.7441C758.854 37.2396 757.926 36.3932 757.227 35.2051C756.543 34.0169 756.201 32.373 756.201 30.2734V14.4043H752.393V12.4268L756.226 10.8398L757.837 5.0293H760.278V11.2305H768.115V14.4043H760.278V30.1514C760.278 31.8278 760.661 33.0811 761.426 33.9111C762.207 34.7412 763.241 35.1562 764.526 35.1562ZM777.759 11.2305V37.9883H773.706V11.2305H777.759ZM775.781 1.2207C776.449 1.2207 777.018 1.44043 777.49 1.87988C777.979 2.30306 778.223 2.97038 778.223 3.88184C778.223 4.77702 777.979 5.44434 777.49 5.88379C777.018 6.32324 776.449 6.54297 775.781 6.54297C775.081 6.54297 774.495 6.32324 774.023 5.88379C773.568 5.44434 773.34 4.77702 773.34 3.88184C773.34 2.97038 773.568 2.30306 774.023 1.87988C774.495 1.44043 775.081 1.2207 775.781 1.2207ZM795.874 38.4766C792.489 38.4766 789.803 37.321 787.817 35.0098C785.848 32.6986 784.863 29.2643 784.863 24.707C784.863 20.1009 785.872 16.626 787.891 14.2822C789.909 11.9222 792.594 10.7422 795.947 10.7422C797.363 10.7422 798.6 10.9294 799.658 11.3037C800.716 11.6781 801.628 12.1826 802.393 12.8174C803.158 13.4359 803.8 14.1439 804.321 14.9414H804.614C804.549 14.4368 804.484 13.7451 804.419 12.8662C804.354 11.9873 804.321 11.2712 804.321 10.7178V0H808.374V37.9883H805.103L804.492 34.1797H804.321C803.817 34.9772 803.174 35.7015 802.393 36.3525C801.628 37.0036 800.708 37.5244 799.634 37.915C798.576 38.2894 797.323 38.4766 795.874 38.4766ZM796.509 35.1074C799.373 35.1074 801.4 34.2936 802.588 32.666C803.776 31.0384 804.37 28.6214 804.37 25.415V24.6826C804.37 21.2809 803.8 18.6686 802.661 16.8457C801.538 15.0228 799.487 14.1113 796.509 14.1113C794.019 14.1113 792.155 15.0716 790.918 16.9922C789.681 18.8965 789.062 21.5007 789.062 24.8047C789.062 28.0924 789.673 30.6315 790.894 32.4219C792.131 34.2122 794.002 35.1074 796.509 35.1074ZM840.039 24.5605C840.039 26.7578 839.754 28.7191 839.185 30.4443C838.615 32.1696 837.793 33.6263 836.719 34.8145C835.645 36.0026 834.342 36.9141 832.812 37.5488C831.299 38.1673 829.582 38.4766 827.661 38.4766C825.871 38.4766 824.227 38.1673 822.729 37.5488C821.248 36.9141 819.963 36.0026 818.872 34.8145C817.798 33.6263 816.96 32.1696 816.357 30.4443C815.771 28.7191 815.479 26.7578 815.479 24.5605C815.479 21.6309 815.975 19.1406 816.968 17.0898C817.961 15.0228 819.377 13.4521 821.216 12.3779C823.071 11.2874 825.277 10.7422 827.832 10.7422C830.273 10.7422 832.406 11.2874 834.229 12.3779C836.068 13.4684 837.492 15.0472 838.501 17.1143C839.526 19.165 840.039 21.6471 840.039 24.5605ZM819.678 24.5605C819.678 26.709 819.963 28.5726 820.532 30.1514C821.102 31.7301 821.981 32.9508 823.169 33.8135C824.357 34.6761 825.887 35.1074 827.759 35.1074C829.614 35.1074 831.136 34.6761 832.324 33.8135C833.529 32.9508 834.416 31.7301 834.985 30.1514C835.555 28.5726 835.84 26.709 835.84 24.5605C835.84 22.4284 835.555 20.5892 834.985 19.043C834.416 17.4805 833.537 16.276 832.349 15.4297C831.16 14.5833 829.622 14.1602 827.734 14.1602C824.951 14.1602 822.909 15.0798 821.606 16.9189C820.321 18.7581 819.678 21.3053 819.678 24.5605ZM869.556 38.4766C866.17 38.4766 863.485 37.321 861.499 35.0098C859.53 32.6986 858.545 29.2643 858.545 24.707C858.545 20.1009 859.554 16.626 861.572 14.2822C863.59 11.9222 866.276 10.7422 869.629 10.7422C871.045 10.7422 872.282 10.9294 873.34 11.3037C874.398 11.6781 875.309 12.1826 876.074 12.8174C876.839 13.4359 877.482 14.1439 878.003 14.9414H878.296C878.231 14.4368 878.166 13.7451 878.101 12.8662C878.035 11.9873 878.003 11.2712 878.003 10.7178V0H882.056V37.9883H878.784L878.174 34.1797H878.003C877.498 34.9772 876.855 35.7015 876.074 36.3525C875.309 37.0036 874.39 37.5244 873.315 37.915C872.257 38.2894 871.004 38.4766 869.556 38.4766ZM870.19 35.1074C873.055 35.1074 875.081 34.2936 876.27 32.666C877.458 31.0384 878.052 28.6214 878.052 25.415V24.6826C878.052 21.2809 877.482 18.6686 876.343 16.8457C875.22 15.0228 873.169 14.1113 870.19 14.1113C867.7 14.1113 865.837 15.0716 864.6 16.9922C863.363 18.8965 862.744 21.5007 862.744 24.8047C862.744 28.0924 863.354 30.6315 864.575 32.4219C865.812 34.2122 867.684 35.1074 870.19 35.1074ZM900.659 10.791C903.849 10.791 906.217 11.5072 907.764 12.9395C909.31 14.3717 910.083 16.6585 910.083 19.7998V37.9883H907.129L906.348 34.0332H906.152C905.404 35.0098 904.622 35.8317 903.809 36.499C902.995 37.1501 902.051 37.6465 900.977 37.9883C899.919 38.3138 898.617 38.4766 897.07 38.4766C895.443 38.4766 893.994 38.1917 892.725 37.6221C891.471 37.0524 890.479 36.1898 889.746 35.0342C889.03 33.8786 888.672 32.4137 888.672 30.6396C888.672 27.9704 889.73 25.9196 891.846 24.4873C893.962 23.055 897.184 22.2738 901.514 22.1436L906.128 21.9482V20.3125C906.128 18.0013 905.632 16.3818 904.639 15.4541C903.646 14.5264 902.246 14.0625 900.439 14.0625C899.04 14.0625 897.705 14.266 896.436 14.6729C895.166 15.0798 893.962 15.5599 892.822 16.1133L891.577 13.0371C892.782 12.4186 894.165 11.8896 895.728 11.4502C897.29 11.0107 898.934 10.791 900.659 10.791ZM906.079 24.8047L902.002 24.9756C898.665 25.1058 896.313 25.651 894.946 26.6113C893.579 27.5716 892.896 28.9307 892.896 30.6885C892.896 32.2184 893.359 33.3496 894.287 34.082C895.215 34.8145 896.444 35.1807 897.974 35.1807C900.35 35.1807 902.295 34.5215 903.809 33.2031C905.322 31.8848 906.079 29.9072 906.079 27.2705V24.8047ZM937.305 37.9883L927.148 11.2305H931.494L937.378 27.417C937.785 28.5238 938.2 29.7445 938.623 31.0791C939.046 32.4137 939.339 33.488 939.502 34.3018H939.673C939.868 33.488 940.194 32.4137 940.649 31.0791C941.105 29.7282 941.52 28.5075 941.895 27.417L947.778 11.2305H952.124L941.943 37.9883H937.305ZM960.474 11.2305V37.9883H956.421V11.2305H960.474ZM958.496 1.2207C959.163 1.2207 959.733 1.44043 960.205 1.87988C960.693 2.30306 960.938 2.97038 960.938 3.88184C960.938 4.77702 960.693 5.44434 960.205 5.88379C959.733 6.32324 959.163 6.54297 958.496 6.54297C957.796 6.54297 957.21 6.32324 956.738 5.88379C956.283 5.44434 956.055 4.77702 956.055 3.88184C956.055 2.97038 956.283 2.30306 956.738 1.87988C957.21 1.44043 957.796 1.2207 958.496 1.2207ZM978.589 38.4766C975.203 38.4766 972.518 37.321 970.532 35.0098C968.563 32.6986 967.578 29.2643 967.578 24.707C967.578 20.1009 968.587 16.626 970.605 14.2822C972.624 11.9222 975.309 10.7422 978.662 10.7422C980.078 10.7422 981.315 10.9294 982.373 11.3037C983.431 11.6781 984.342 12.1826 985.107 12.8174C985.872 13.4359 986.515 14.1439 987.036 14.9414H987.329C987.264 14.4368 987.199 13.7451 987.134 12.8662C987.069 11.9873 987.036 11.2712 987.036 10.7178V0H991.089V37.9883H987.817L987.207 34.1797H987.036C986.532 34.9772 985.889 35.7015 985.107 36.3525C984.342 37.0036 983.423 37.5244 982.349 37.915C981.291 38.2894 980.037 38.4766 978.589 38.4766ZM979.224 35.1074C982.088 35.1074 984.115 34.2936 985.303 32.666C986.491 31.0384 987.085 28.6214 987.085 25.415V24.6826C987.085 21.2809 986.515 18.6686 985.376 16.8457C984.253 15.0228 982.202 14.1113 979.224 14.1113C976.733 14.1113 974.87 15.0716 973.633 16.9922C972.396 18.8965 971.777 21.5007 971.777 24.8047C971.777 28.0924 972.388 30.6315 973.608 32.4219C974.845 34.2122 976.717 35.1074 979.224 35.1074ZM1009.69 10.791C1012.88 10.791 1015.25 11.5072 1016.8 12.9395C1018.34 14.3717 1019.12 16.6585 1019.12 19.7998V37.9883H1016.16L1015.38 34.0332H1015.19C1014.44 35.0098 1013.66 35.8317 1012.84 36.499C1012.03 37.1501 1011.08 37.6465 1010.01 37.9883C1008.95 38.3138 1007.65 38.4766 1006.1 38.4766C1004.48 38.4766 1003.03 38.1917 1001.76 37.6221C1000.5 37.0524 999.512 36.1898 998.779 35.0342C998.063 33.8786 997.705 32.4137 997.705 30.6396C997.705 27.9704 998.763 25.9196 1000.88 24.4873C1002.99 23.055 1006.22 22.2738 1010.55 22.1436L1015.16 21.9482V20.3125C1015.16 18.0013 1014.66 16.3818 1013.67 15.4541C1012.68 14.5264 1011.28 14.0625 1009.47 14.0625C1008.07 14.0625 1006.74 14.266 1005.47 14.6729C1004.2 15.0798 1002.99 15.5599 1001.86 16.1133L1000.61 13.0371C1001.81 12.4186 1003.2 11.8896 1004.76 11.4502C1006.32 11.0107 1007.97 10.791 1009.69 10.791ZM1015.11 24.8047L1011.04 24.9756C1007.7 25.1058 1005.35 25.651 1003.98 26.6113C1002.61 27.5716 1001.93 28.9307 1001.93 30.6885C1001.93 32.2184 1002.39 33.3496 1003.32 34.082C1004.25 34.8145 1005.48 35.1807 1007.01 35.1807C1009.38 35.1807 1011.33 34.5215 1012.84 33.2031C1014.36 31.8848 1015.11 29.9072 1015.11 27.2705V24.8047ZM1053.12 10.7422C1056.3 10.7422 1058.7 11.5234 1060.33 13.0859C1061.95 14.6322 1062.77 17.1224 1062.77 20.5566V37.9883H1058.76V20.8252C1058.76 18.5954 1058.25 16.9271 1057.23 15.8203C1056.22 14.7135 1054.66 14.1602 1052.56 14.1602C1049.6 14.1602 1047.52 14.9984 1046.31 16.6748C1045.11 18.3512 1044.51 20.7845 1044.51 23.9746V37.9883H1040.45V11.2305H1043.73L1044.34 15.0879H1044.56C1045.13 14.1439 1045.85 13.3545 1046.73 12.7197C1047.61 12.0687 1048.59 11.5804 1049.68 11.2549C1050.77 10.9131 1051.92 10.7422 1053.12 10.7422ZM1094.19 24.5605C1094.19 26.7578 1093.9 28.7191 1093.33 30.4443C1092.77 32.1696 1091.94 33.6263 1090.87 34.8145C1089.79 36.0026 1088.49 36.9141 1086.96 37.5488C1085.45 38.1673 1083.73 38.4766 1081.81 38.4766C1080.02 38.4766 1078.38 38.1673 1076.88 37.5488C1075.4 36.9141 1074.11 36.0026 1073.02 34.8145C1071.95 33.6263 1071.11 32.1696 1070.51 30.4443C1069.92 28.7191 1069.63 26.7578 1069.63 24.5605C1069.63 21.6309 1070.13 19.1406 1071.12 17.0898C1072.11 15.0228 1073.53 13.4521 1075.37 12.3779C1077.22 11.2874 1079.43 10.7422 1081.98 10.7422C1084.42 10.7422 1086.56 11.2874 1088.38 12.3779C1090.22 13.4684 1091.64 15.0472 1092.65 17.1143C1093.68 19.165 1094.19 21.6471 1094.19 24.5605ZM1073.83 24.5605C1073.83 26.709 1074.11 28.5726 1074.68 30.1514C1075.25 31.7301 1076.13 32.9508 1077.32 33.8135C1078.51 34.6761 1080.04 35.1074 1081.91 35.1074C1083.76 35.1074 1085.29 34.6761 1086.47 33.8135C1087.68 32.9508 1088.57 31.7301 1089.14 30.1514C1089.71 28.5726 1089.99 26.709 1089.99 24.5605C1089.99 22.4284 1089.71 20.5892 1089.14 19.043C1088.57 17.4805 1087.69 16.276 1086.5 15.4297C1085.31 14.5833 1083.77 14.1602 1081.88 14.1602C1079.1 14.1602 1077.06 15.0798 1075.76 16.9189C1074.47 18.7581 1073.83 21.3053 1073.83 24.5605ZM1124.19 10.791C1127.38 10.791 1129.75 11.5072 1131.3 12.9395C1132.85 14.3717 1133.62 16.6585 1133.62 19.7998V37.9883H1130.66L1129.88 34.0332H1129.69C1128.94 35.0098 1128.16 35.8317 1127.34 36.499C1126.53 37.1501 1125.59 37.6465 1124.51 37.9883C1123.45 38.3138 1122.15 38.4766 1120.61 38.4766C1118.98 38.4766 1117.53 38.1917 1116.26 37.6221C1115.01 37.0524 1114.01 36.1898 1113.28 35.0342C1112.57 33.8786 1112.21 32.4137 1112.21 30.6396C1112.21 27.9704 1113.26 25.9196 1115.38 24.4873C1117.5 23.055 1120.72 22.2738 1125.05 22.1436L1129.66 21.9482V20.3125C1129.66 18.0013 1129.17 16.3818 1128.17 15.4541C1127.18 14.5264 1125.78 14.0625 1123.97 14.0625C1122.57 14.0625 1121.24 14.266 1119.97 14.6729C1118.7 15.0798 1117.5 15.5599 1116.36 16.1133L1115.11 13.0371C1116.32 12.4186 1117.7 11.8896 1119.26 11.4502C1120.83 11.0107 1122.47 10.791 1124.19 10.791ZM1129.61 24.8047L1125.54 24.9756C1122.2 25.1058 1119.85 25.651 1118.48 26.6113C1117.11 27.5716 1116.43 28.9307 1116.43 30.6885C1116.43 32.2184 1116.89 33.3496 1117.82 34.082C1118.75 34.8145 1119.98 35.1807 1121.51 35.1807C1123.89 35.1807 1125.83 34.5215 1127.34 33.2031C1128.86 31.8848 1129.61 29.9072 1129.61 27.2705V24.8047ZM1171.02 10.7422C1173.97 10.7422 1176.19 11.5153 1177.69 13.0615C1179.18 14.5915 1179.93 17.0573 1179.93 20.459V37.9883H1175.93V20.6543C1175.93 18.4896 1175.46 16.8701 1174.51 15.7959C1173.58 14.7054 1172.2 14.1602 1170.36 14.1602C1167.77 14.1602 1165.89 14.9089 1164.72 16.4062C1163.55 17.9036 1162.96 20.109 1162.96 23.0225V37.9883H1158.94V20.6543C1158.94 19.2057 1158.72 18.0013 1158.3 17.041C1157.89 16.0807 1157.28 15.3646 1156.45 14.8926C1155.63 14.4043 1154.6 14.1602 1153.34 14.1602C1151.57 14.1602 1150.15 14.5264 1149.07 15.2588C1148 15.9912 1147.22 17.0817 1146.73 18.5303C1146.26 19.9626 1146.02 21.7285 1146.02 23.8281V37.9883H1141.97V11.2305H1145.24L1145.85 15.0146H1146.07C1146.61 14.0869 1147.28 13.3057 1148.1 12.6709C1148.91 12.0361 1149.82 11.556 1150.83 11.2305C1151.84 10.9049 1152.91 10.7422 1154.05 10.7422C1156.09 10.7422 1157.79 11.1247 1159.16 11.8896C1160.54 12.6383 1161.54 13.7858 1162.16 15.332H1162.38C1163.26 13.7858 1164.46 12.6383 1165.99 11.8896C1167.52 11.1247 1169.2 10.7422 1171.02 10.7422ZM1211.33 24.5605C1211.33 26.7578 1211.04 28.7191 1210.47 30.4443C1209.9 32.1696 1209.08 33.6263 1208.01 34.8145C1206.93 36.0026 1205.63 36.9141 1204.1 37.5488C1202.59 38.1673 1200.87 38.4766 1198.95 38.4766C1197.16 38.4766 1195.52 38.1673 1194.02 37.5488C1192.54 36.9141 1191.25 36.0026 1190.16 34.8145C1189.09 33.6263 1188.25 32.1696 1187.65 30.4443C1187.06 28.7191 1186.77 26.7578 1186.77 24.5605C1186.77 21.6309 1187.26 19.1406 1188.26 17.0898C1189.25 15.0228 1190.67 13.4521 1192.5 12.3779C1194.36 11.2874 1196.57 10.7422 1199.12 10.7422C1201.56 10.7422 1203.69 11.2874 1205.52 12.3779C1207.36 13.4684 1208.78 15.0472 1209.79 17.1143C1210.82 19.165 1211.33 21.6471 1211.33 24.5605ZM1190.97 24.5605C1190.97 26.709 1191.25 28.5726 1191.82 30.1514C1192.39 31.7301 1193.27 32.9508 1194.46 33.8135C1195.65 34.6761 1197.18 35.1074 1199.05 35.1074C1200.9 35.1074 1202.43 34.6761 1203.61 33.8135C1204.82 32.9508 1205.7 31.7301 1206.27 30.1514C1206.84 28.5726 1207.13 26.709 1207.13 24.5605C1207.13 22.4284 1206.84 20.5892 1206.27 19.043C1205.7 17.4805 1204.83 16.276 1203.64 15.4297C1202.45 14.5833 1200.91 14.1602 1199.02 14.1602C1196.24 14.1602 1194.2 15.0798 1192.9 16.9189C1191.61 18.7581 1190.97 21.3053 1190.97 24.5605ZM1230.49 10.7422C1231.03 10.7422 1231.59 10.7747 1232.18 10.8398C1232.76 10.8887 1233.28 10.9619 1233.74 11.0596L1233.23 14.8193C1232.79 14.7054 1232.3 14.6159 1231.76 14.5508C1231.23 14.4857 1230.72 14.4531 1230.25 14.4531C1229.17 14.4531 1228.16 14.6729 1227.2 15.1123C1226.25 15.5355 1225.42 16.154 1224.71 16.9678C1223.99 17.7653 1223.43 18.7337 1223.02 19.873C1222.62 20.9961 1222.41 22.2493 1222.41 23.6328V37.9883H1218.33V11.2305H1221.7L1222.14 16.1621H1222.31C1222.87 15.1693 1223.54 14.266 1224.32 13.4521C1225.1 12.6221 1226 11.9629 1227.03 11.4746C1228.07 10.9863 1229.22 10.7422 1230.49 10.7422ZM1238.18 35.4492C1238.18 34.3099 1238.46 33.5042 1239.01 33.0322C1239.57 32.5439 1240.24 32.2998 1241.04 32.2998C1241.87 32.2998 1242.57 32.5439 1243.14 33.0322C1243.71 33.5042 1243.99 34.3099 1243.99 35.4492C1243.99 36.5723 1243.71 37.3942 1243.14 37.915C1242.57 38.4196 1241.87 38.6719 1241.04 38.6719C1240.24 38.6719 1239.57 38.4196 1239.01 37.915C1238.46 37.3942 1238.18 36.5723 1238.18 35.4492Z" fill="#BD4747"/>
</svg>
