<svg width="349" height="40" viewBox="0 0 349 40" fill="none" xmlns="http://www.w3.org/2000/svg">
<path d="M3.02734 40C2.36328 40 1.78385 39.9479 1.28906 39.8438C0.794271 39.7526 0.364583 39.6419 0 39.5117V36.875C0.403646 37.0052 0.813802 37.1029 1.23047 37.168C1.64714 37.2461 2.11589 37.2852 2.63672 37.2852C3.52214 37.2852 4.23828 37.0378 4.78516 36.543C5.33203 36.0482 5.60547 35.1497 5.60547 33.8477V8.98438H8.84766V33.7695C8.84766 35.0716 8.63932 36.1849 8.22266 37.1094C7.80599 38.0469 7.16797 38.763 6.30859 39.2578C5.44922 39.7526 4.35547 40 3.02734 40ZM5.3125 3.10547C5.3125 2.3763 5.49479 1.84245 5.85938 1.50391C6.23698 1.15234 6.70573 0.976562 7.26562 0.976562C7.79948 0.976562 8.25521 1.15234 8.63281 1.50391C9.02344 1.84245 9.21875 2.3763 9.21875 3.10547C9.21875 3.82161 9.02344 4.35547 8.63281 4.70703C8.25521 5.05859 7.79948 5.23438 7.26562 5.23438C6.70573 5.23438 6.23698 5.05859 5.85938 4.70703C5.49479 4.35547 5.3125 3.82161 5.3125 3.10547ZM34.1797 19.6484C34.1797 21.4062 33.9518 22.9753 33.4961 24.3555C33.0404 25.7357 32.3828 26.901 31.5234 27.8516C30.6641 28.8021 29.6224 29.5312 28.3984 30.0391C27.1875 30.5339 25.8138 30.7812 24.2773 30.7812C22.8451 30.7812 21.5299 30.5339 20.332 30.0391C19.1471 29.5312 18.1185 28.8021 17.2461 27.8516C16.3867 26.901 15.7161 25.7357 15.2344 24.3555C14.7656 22.9753 14.5312 21.4062 14.5312 19.6484C14.5312 17.3047 14.9284 15.3125 15.7227 13.6719C16.5169 12.0182 17.6497 10.7617 19.1211 9.90234C20.6055 9.02995 22.3698 8.59375 24.4141 8.59375C26.3672 8.59375 28.0729 9.02995 29.5312 9.90234C31.0026 10.7747 32.1419 12.0378 32.9492 13.6914C33.7695 15.332 34.1797 17.3177 34.1797 19.6484ZM17.8906 19.6484C17.8906 21.3672 18.1185 22.8581 18.5742 24.1211C19.0299 25.3841 19.7331 26.3607 20.6836 27.0508C21.6341 27.7409 22.8581 28.0859 24.3555 28.0859C25.8398 28.0859 27.0573 27.7409 28.0078 27.0508C28.9714 26.3607 29.681 25.3841 30.1367 24.1211C30.5924 22.8581 30.8203 21.3672 30.8203 19.6484C30.8203 17.9427 30.5924 16.4714 30.1367 15.2344C29.681 13.9844 28.9779 13.0208 28.0273 12.3438C27.0768 11.6667 25.8464 11.3281 24.3359 11.3281C22.1094 11.3281 20.4753 12.0638 19.4336 13.5352C18.4049 15.0065 17.8906 17.0443 17.8906 19.6484ZM44.4922 30.3906L36.3672 8.98438H39.8438L44.5508 21.9336C44.8763 22.819 45.2083 23.7956 45.5469 24.8633C45.8854 25.931 46.1198 26.7904 46.25 27.4414H46.3867C46.543 26.7904 46.8034 25.931 47.168 24.8633C47.5326 23.7826 47.8646 22.806 48.1641 21.9336L52.8711 8.98438H56.3477L48.2031 30.3906H44.4922ZM68.0273 8.59375C69.8503 8.59375 71.4128 8.9974 72.7148 9.80469C74.0169 10.612 75.013 11.7448 75.7031 13.2031C76.3932 14.6484 76.7383 16.3411 76.7383 18.2812V20.293H61.9531C61.9922 22.806 62.6172 24.7201 63.8281 26.0352C65.0391 27.3503 66.7448 28.0078 68.9453 28.0078C70.2995 28.0078 71.4974 27.8841 72.5391 27.6367C73.5807 27.3893 74.6615 27.0247 75.7812 26.543V29.3945C74.7005 29.8763 73.6263 30.2279 72.5586 30.4492C71.5039 30.6706 70.2539 30.7812 68.8086 30.7812C66.7513 30.7812 64.9544 30.3646 63.418 29.5312C61.8945 28.6849 60.7096 27.4479 59.8633 25.8203C59.0169 24.1927 58.5938 22.2005 58.5938 19.8438C58.5938 17.5391 58.9779 15.5469 59.7461 13.8672C60.5273 12.1745 61.6211 10.8724 63.0273 9.96094C64.4466 9.04948 66.1133 8.59375 68.0273 8.59375ZM67.9883 11.25C66.2565 11.25 64.8763 11.8164 63.8477 12.9492C62.819 14.082 62.207 15.6641 62.0117 17.6953H73.3398C73.3268 16.4193 73.125 15.2995 72.7344 14.3359C72.3568 13.3594 71.7773 12.6042 70.9961 12.0703C70.2148 11.5234 69.2122 11.25 67.9883 11.25ZM92.3828 8.59375C94.9219 8.59375 96.8424 9.21875 98.1445 10.4688C99.4466 11.7057 100.098 13.6979 100.098 16.4453V30.3906H96.8945V16.6602C96.8945 14.8763 96.4844 13.5417 95.6641 12.6562C94.8568 11.7708 93.6133 11.3281 91.9336 11.3281C89.5638 11.3281 87.8971 11.9987 86.9336 13.3398C85.9701 14.681 85.4883 16.6276 85.4883 19.1797V30.3906H82.2461V8.98438H84.8633L85.3516 12.0703H85.5273C85.9831 11.3151 86.5625 10.6836 87.2656 10.1758C87.9688 9.65495 88.7565 9.26432 89.6289 9.00391C90.5013 8.73047 91.4193 8.59375 92.3828 8.59375ZM120.625 24.5312C120.625 25.8984 120.28 27.0508 119.59 27.9883C118.913 28.9128 117.936 29.6094 116.66 30.0781C115.397 30.5469 113.887 30.7812 112.129 30.7812C110.632 30.7812 109.336 30.6641 108.242 30.4297C107.148 30.1953 106.191 29.8633 105.371 29.4336V26.4453C106.243 26.875 107.285 27.2656 108.496 27.6172C109.707 27.9688 110.944 28.1445 112.207 28.1445C114.056 28.1445 115.397 27.8451 116.23 27.2461C117.064 26.6471 117.48 25.8333 117.48 24.8047C117.48 24.2188 117.311 23.7044 116.973 23.2617C116.647 22.806 116.094 22.3698 115.312 21.9531C114.531 21.5234 113.451 21.0547 112.07 20.5469C110.703 20.026 109.518 19.5117 108.516 19.0039C107.526 18.4831 106.758 17.8516 106.211 17.1094C105.677 16.3672 105.41 15.4036 105.41 14.2188C105.41 12.4089 106.139 11.0221 107.598 10.0586C109.069 9.08203 110.996 8.59375 113.379 8.59375C114.668 8.59375 115.872 8.72396 116.992 8.98438C118.125 9.23177 119.18 9.57031 120.156 10L119.062 12.5977C118.177 12.2201 117.233 11.901 116.23 11.6406C115.228 11.3802 114.206 11.25 113.164 11.25C111.667 11.25 110.514 11.4974 109.707 11.9922C108.913 12.487 108.516 13.1641 108.516 14.0234C108.516 14.6875 108.698 15.2344 109.062 15.6641C109.44 16.0938 110.039 16.4974 110.859 16.875C111.68 17.2526 112.76 17.6953 114.102 18.2031C115.443 18.6979 116.602 19.2122 117.578 19.7461C118.555 20.2669 119.303 20.9049 119.824 21.6602C120.358 22.4023 120.625 23.3594 120.625 24.5312ZM139.473 8.98438V30.3906H136.23V8.98438H139.473ZM137.891 0.976562C138.424 0.976562 138.88 1.15234 139.258 1.50391C139.648 1.84245 139.844 2.3763 139.844 3.10547C139.844 3.82161 139.648 4.35547 139.258 4.70703C138.88 5.05859 138.424 5.23438 137.891 5.23438C137.331 5.23438 136.862 5.05859 136.484 4.70703C136.12 4.35547 135.938 3.82161 135.938 3.10547C135.938 2.3763 136.12 1.84245 136.484 1.50391C136.862 1.15234 137.331 0.976562 137.891 0.976562ZM169.59 8.59375C171.947 8.59375 173.724 9.21224 174.922 10.4492C176.12 11.6732 176.719 13.6458 176.719 16.3672V30.3906H173.516V16.5234C173.516 14.7917 173.138 13.4961 172.383 12.6367C171.641 11.7643 170.534 11.3281 169.062 11.3281C166.992 11.3281 165.488 11.9271 164.551 13.125C163.613 14.3229 163.145 16.0872 163.145 18.418V30.3906H159.922V16.5234C159.922 15.3646 159.753 14.401 159.414 13.6328C159.089 12.8646 158.594 12.2917 157.93 11.9141C157.279 11.5234 156.452 11.3281 155.449 11.3281C154.03 11.3281 152.891 11.6211 152.031 12.207C151.172 12.793 150.547 13.6654 150.156 14.8242C149.779 15.9701 149.59 17.3828 149.59 19.0625V30.3906H146.348V8.98438H148.965L149.453 12.0117H149.629C150.059 11.2695 150.599 10.6445 151.25 10.1367C151.901 9.62891 152.63 9.24479 153.438 8.98438C154.245 8.72396 155.104 8.59375 156.016 8.59375C157.643 8.59375 159.004 8.89974 160.098 9.51172C161.204 10.1107 162.005 11.0286 162.5 12.2656H162.676C163.379 11.0286 164.342 10.1107 165.566 9.51172C166.79 8.89974 168.132 8.59375 169.59 8.59375ZM193.438 8.59375C196.107 8.59375 198.236 9.51172 199.824 11.3477C201.413 13.1836 202.207 15.944 202.207 19.6289C202.207 22.0638 201.842 24.1081 201.113 25.7617C200.384 27.4154 199.355 28.6654 198.027 29.5117C196.712 30.3581 195.156 30.7812 193.359 30.7812C192.227 30.7812 191.23 30.6315 190.371 30.332C189.512 30.0326 188.776 29.6289 188.164 29.1211C187.552 28.6133 187.044 28.0599 186.641 27.4609H186.406C186.445 27.9688 186.491 28.5807 186.543 29.2969C186.608 30.013 186.641 30.638 186.641 31.1719V39.9609H183.379V8.98438H186.055L186.484 12.1484H186.641C187.057 11.4974 187.565 10.9049 188.164 10.3711C188.763 9.82422 189.492 9.39453 190.352 9.08203C191.224 8.75651 192.253 8.59375 193.438 8.59375ZM192.871 11.3281C191.387 11.3281 190.189 11.6146 189.277 12.1875C188.379 12.7604 187.721 13.6198 187.305 14.7656C186.888 15.8984 186.667 17.3242 186.641 19.043V19.668C186.641 21.4779 186.836 23.0078 187.227 24.2578C187.63 25.5078 188.288 26.4583 189.199 27.1094C190.124 27.7604 191.361 28.0859 192.91 28.0859C194.238 28.0859 195.345 27.7279 196.23 27.0117C197.116 26.2956 197.773 25.2995 198.203 24.0234C198.646 22.7344 198.867 21.2565 198.867 19.5898C198.867 17.0638 198.372 15.0586 197.383 13.5742C196.406 12.0768 194.902 11.3281 192.871 11.3281ZM215.879 8.63281C218.431 8.63281 220.326 9.20573 221.562 10.3516C222.799 11.4974 223.418 13.3268 223.418 15.8398V30.3906H221.055L220.43 27.2266H220.273C219.674 28.0078 219.049 28.6654 218.398 29.1992C217.747 29.7201 216.992 30.1172 216.133 30.3906C215.286 30.651 214.245 30.7812 213.008 30.7812C211.706 30.7812 210.547 30.5534 209.531 30.0977C208.529 29.6419 207.734 28.9518 207.148 28.0273C206.576 27.1029 206.289 25.931 206.289 24.5117C206.289 22.3763 207.135 20.7357 208.828 19.5898C210.521 18.444 213.099 17.819 216.562 17.7148L220.254 17.5586V16.25C220.254 14.401 219.857 13.1055 219.062 12.3633C218.268 11.6211 217.148 11.25 215.703 11.25C214.583 11.25 213.516 11.4128 212.5 11.7383C211.484 12.0638 210.521 12.4479 209.609 12.8906L208.613 10.4297C209.577 9.9349 210.684 9.51172 211.934 9.16016C213.184 8.80859 214.499 8.63281 215.879 8.63281ZM220.215 19.8438L216.953 19.9805C214.284 20.0846 212.402 20.5208 211.309 21.2891C210.215 22.0573 209.668 23.1445 209.668 24.5508C209.668 25.7747 210.039 26.6797 210.781 27.2656C211.523 27.8516 212.507 28.1445 213.73 28.1445C215.632 28.1445 217.188 27.6172 218.398 26.5625C219.609 25.5078 220.215 23.9258 220.215 21.8164V19.8438ZM238.672 30.7812C236.745 30.7812 235.046 30.3841 233.574 29.5898C232.103 28.7956 230.957 27.5846 230.137 25.957C229.316 24.3294 228.906 22.2786 228.906 19.8047C228.906 17.2135 229.336 15.0977 230.195 13.457C231.068 11.8034 232.266 10.5794 233.789 9.78516C235.312 8.99089 237.044 8.59375 238.984 8.59375C240.052 8.59375 241.081 8.70443 242.07 8.92578C243.073 9.13411 243.893 9.40104 244.531 9.72656L243.555 12.4414C242.904 12.181 242.148 11.9466 241.289 11.7383C240.443 11.5299 239.648 11.4258 238.906 11.4258C237.422 11.4258 236.185 11.7448 235.195 12.3828C234.219 13.0208 233.483 13.9583 232.988 15.1953C232.507 16.4323 232.266 17.9557 232.266 19.7656C232.266 21.4974 232.5 22.9753 232.969 24.1992C233.451 25.4232 234.16 26.3607 235.098 27.0117C236.048 27.6497 237.233 27.9688 238.652 27.9688C239.785 27.9688 240.807 27.8516 241.719 27.6172C242.63 27.3698 243.457 27.0833 244.199 26.7578V29.6484C243.483 30.013 242.682 30.293 241.797 30.4883C240.924 30.6836 239.883 30.7812 238.672 30.7812ZM256.191 28.125C256.725 28.125 257.272 28.0794 257.832 27.9883C258.392 27.8971 258.848 27.7865 259.199 27.6562V30.1758C258.822 30.3451 258.294 30.4883 257.617 30.6055C256.953 30.7227 256.302 30.7812 255.664 30.7812C254.531 30.7812 253.503 30.5859 252.578 30.1953C251.654 29.7917 250.911 29.1146 250.352 28.1641C249.805 27.2135 249.531 25.8984 249.531 24.2188V11.5234H246.484V9.94141L249.551 8.67188L250.84 4.02344H252.793V8.98438H259.062V11.5234H252.793V24.1211C252.793 25.4622 253.099 26.4648 253.711 27.1289C254.336 27.793 255.163 28.125 256.191 28.125ZM271.543 8.63281C274.095 8.63281 275.99 9.20573 277.227 10.3516C278.464 11.4974 279.082 13.3268 279.082 15.8398V30.3906H276.719L276.094 27.2266H275.938C275.339 28.0078 274.714 28.6654 274.062 29.1992C273.411 29.7201 272.656 30.1172 271.797 30.3906C270.951 30.651 269.909 30.7812 268.672 30.7812C267.37 30.7812 266.211 30.5534 265.195 30.0977C264.193 29.6419 263.398 28.9518 262.812 28.0273C262.24 27.1029 261.953 25.931 261.953 24.5117C261.953 22.3763 262.799 20.7357 264.492 19.5898C266.185 18.444 268.763 17.819 272.227 17.7148L275.918 17.5586V16.25C275.918 14.401 275.521 13.1055 274.727 12.3633C273.932 11.6211 272.812 11.25 271.367 11.25C270.247 11.25 269.18 11.4128 268.164 11.7383C267.148 12.0638 266.185 12.4479 265.273 12.8906L264.277 10.4297C265.241 9.9349 266.348 9.51172 267.598 9.16016C268.848 8.80859 270.163 8.63281 271.543 8.63281ZM275.879 19.8438L272.617 19.9805C269.948 20.0846 268.066 20.5208 266.973 21.2891C265.879 22.0573 265.332 23.1445 265.332 24.5508C265.332 25.7747 265.703 26.6797 266.445 27.2656C267.188 27.8516 268.171 28.1445 269.395 28.1445C271.296 28.1445 272.852 27.6172 274.062 26.5625C275.273 25.5078 275.879 23.9258 275.879 21.8164V19.8438ZM293.379 30.7812C290.671 30.7812 288.522 29.8568 286.934 28.0078C285.358 26.1589 284.57 23.4115 284.57 19.7656C284.57 16.0807 285.378 13.3008 286.992 11.4258C288.607 9.53776 290.755 8.59375 293.438 8.59375C294.57 8.59375 295.56 8.74349 296.406 9.04297C297.253 9.34245 297.982 9.74609 298.594 10.2539C299.206 10.7487 299.72 11.3151 300.137 11.9531H300.371C300.319 11.5495 300.267 10.9961 300.215 10.293C300.163 9.58984 300.137 9.01693 300.137 8.57422V0H303.379V30.3906H300.762L300.273 27.3438H300.137C299.733 27.9818 299.219 28.5612 298.594 29.082C297.982 29.6029 297.246 30.0195 296.387 30.332C295.54 30.6315 294.538 30.7812 293.379 30.7812ZM293.887 28.0859C296.178 28.0859 297.799 27.4349 298.75 26.1328C299.701 24.8307 300.176 22.8971 300.176 20.332V19.7461C300.176 17.0247 299.72 14.9349 298.809 13.4766C297.91 12.0182 296.27 11.2891 293.887 11.2891C291.895 11.2891 290.404 12.0573 289.414 13.5938C288.424 15.1172 287.93 17.2005 287.93 19.8438C287.93 22.474 288.418 24.5052 289.395 25.9375C290.384 27.3698 291.882 28.0859 293.887 28.0859ZM328.711 19.6484C328.711 21.4062 328.483 22.9753 328.027 24.3555C327.572 25.7357 326.914 26.901 326.055 27.8516C325.195 28.8021 324.154 29.5312 322.93 30.0391C321.719 30.5339 320.345 30.7812 318.809 30.7812C317.376 30.7812 316.061 30.5339 314.863 30.0391C313.678 29.5312 312.65 28.8021 311.777 27.8516C310.918 26.901 310.247 25.7357 309.766 24.3555C309.297 22.9753 309.062 21.4062 309.062 19.6484C309.062 17.3047 309.46 15.3125 310.254 13.6719C311.048 12.0182 312.181 10.7617 313.652 9.90234C315.137 9.02995 316.901 8.59375 318.945 8.59375C320.898 8.59375 322.604 9.02995 324.062 9.90234C325.534 10.7747 326.673 12.0378 327.48 13.6914C328.301 15.332 328.711 17.3177 328.711 19.6484ZM312.422 19.6484C312.422 21.3672 312.65 22.8581 313.105 24.1211C313.561 25.3841 314.264 26.3607 315.215 27.0508C316.165 27.7409 317.389 28.0859 318.887 28.0859C320.371 28.0859 321.589 27.7409 322.539 27.0508C323.503 26.3607 324.212 25.3841 324.668 24.1211C325.124 22.8581 325.352 21.3672 325.352 19.6484C325.352 17.9427 325.124 16.4714 324.668 15.2344C324.212 13.9844 323.509 13.0208 322.559 12.3438C321.608 11.6667 320.378 11.3281 318.867 11.3281C316.641 11.3281 315.007 12.0638 313.965 13.5352C312.936 15.0065 312.422 17.0443 312.422 19.6484ZM348.164 24.5312C348.164 25.8984 347.819 27.0508 347.129 27.9883C346.452 28.9128 345.475 29.6094 344.199 30.0781C342.936 30.5469 341.426 30.7812 339.668 30.7812C338.171 30.7812 336.875 30.6641 335.781 30.4297C334.688 30.1953 333.73 29.8633 332.91 29.4336V26.4453C333.783 26.875 334.824 27.2656 336.035 27.6172C337.246 27.9688 338.483 28.1445 339.746 28.1445C341.595 28.1445 342.936 27.8451 343.77 27.2461C344.603 26.6471 345.02 25.8333 345.02 24.8047C345.02 24.2188 344.85 23.7044 344.512 23.2617C344.186 22.806 343.633 22.3698 342.852 21.9531C342.07 21.5234 340.99 21.0547 339.609 20.5469C338.242 20.026 337.057 19.5117 336.055 19.0039C335.065 18.4831 334.297 17.8516 333.75 17.1094C333.216 16.3672 332.949 15.4036 332.949 14.2188C332.949 12.4089 333.678 11.0221 335.137 10.0586C336.608 9.08203 338.535 8.59375 340.918 8.59375C342.207 8.59375 343.411 8.72396 344.531 8.98438C345.664 9.23177 346.719 9.57031 347.695 10L346.602 12.5977C345.716 12.2201 344.772 11.901 343.77 11.6406C342.767 11.3802 341.745 11.25 340.703 11.25C339.206 11.25 338.053 11.4974 337.246 11.9922C336.452 12.487 336.055 13.1641 336.055 14.0234C336.055 14.6875 336.237 15.2344 336.602 15.6641C336.979 16.0938 337.578 16.4974 338.398 16.875C339.219 17.2526 340.299 17.6953 341.641 18.2031C342.982 18.6979 344.141 19.2122 345.117 19.7461C346.094 20.2669 346.842 20.9049 347.363 21.6602C347.897 22.4023 348.164 23.3594 348.164 24.5312Z" fill="#BD4747"/>
</svg>
