<svg width="208" height="32" viewBox="0 0 208 32" fill="none" xmlns="http://www.w3.org/2000/svg">
<path d="M8.125 30.6445L0 9.23828H3.47656L8.18359 22.1875C8.50911 23.0729 8.84115 24.0495 9.17969 25.1172C9.51823 26.1849 9.7526 27.0443 9.88281 27.6953H10.0195C10.1758 27.0443 10.4362 26.1849 10.8008 25.1172C11.1654 24.0365 11.4974 23.0599 11.7969 22.1875L16.5039 9.23828H19.9805L11.8359 30.6445H8.125ZM41.875 19.9023C41.875 21.6602 41.6471 23.2292 41.1914 24.6094C40.7357 25.9896 40.0781 27.1549 39.2188 28.1055C38.3594 29.056 37.3177 29.7852 36.0938 30.293C34.8828 30.7878 33.5091 31.0352 31.9727 31.0352C30.5404 31.0352 29.2253 30.7878 28.0273 30.293C26.8424 29.7852 25.8138 29.056 24.9414 28.1055C24.082 27.1549 23.4115 25.9896 22.9297 24.6094C22.4609 23.2292 22.2266 21.6602 22.2266 19.9023C22.2266 17.5586 22.6237 15.5664 23.418 13.9258C24.2122 12.2721 25.3451 11.0156 26.8164 10.1562C28.3008 9.28385 30.0651 8.84766 32.1094 8.84766C34.0625 8.84766 35.7682 9.28385 37.2266 10.1562C38.6979 11.0286 39.8372 12.2917 40.6445 13.9453C41.4648 15.5859 41.875 17.5716 41.875 19.9023ZM25.5859 19.9023C25.5859 21.6211 25.8138 23.112 26.2695 24.375C26.7253 25.638 27.4284 26.6146 28.3789 27.3047C29.3294 27.9948 30.5534 28.3398 32.0508 28.3398C33.5352 28.3398 34.7526 27.9948 35.7031 27.3047C36.6667 26.6146 37.3763 25.638 37.832 24.375C38.2878 23.112 38.5156 21.6211 38.5156 19.9023C38.5156 18.1966 38.2878 16.7253 37.832 15.4883C37.3763 14.2383 36.6732 13.2747 35.7227 12.5977C34.7721 11.9206 33.5417 11.582 32.0312 11.582C29.8047 11.582 28.1706 12.3177 27.1289 13.7891C26.1003 15.2604 25.5859 17.2982 25.5859 19.9023ZM50.7422 30.6445H47.4805V0.253906H50.7422V30.6445ZM75.2734 9.23828V30.6445H72.6172L72.1484 27.6367H71.9727C71.5299 28.3789 70.957 29.0039 70.2539 29.5117C69.5508 30.0195 68.7565 30.3971 67.8711 30.6445C66.9987 30.9049 66.0677 31.0352 65.0781 31.0352C63.3854 31.0352 61.9661 30.7617 60.8203 30.2148C59.6745 29.668 58.8086 28.8216 58.2227 27.6758C57.6497 26.5299 57.3633 25.0586 57.3633 23.2617V9.23828H60.6445V23.0273C60.6445 24.8112 61.0482 26.1458 61.8555 27.0312C62.6628 27.9036 63.8932 28.3398 65.5469 28.3398C67.1354 28.3398 68.3984 28.0404 69.3359 27.4414C70.2865 26.8424 70.9701 25.9635 71.3867 24.8047C71.8034 23.6328 72.0117 22.2005 72.0117 20.5078V9.23828H75.2734ZM92.2656 8.84766C94.8047 8.84766 96.7253 9.47266 98.0273 10.7227C99.3294 11.9596 99.9805 13.9518 99.9805 16.6992V30.6445H96.7773V16.9141C96.7773 15.1302 96.3672 13.7956 95.5469 12.9102C94.7396 12.0247 93.4961 11.582 91.8164 11.582C89.4466 11.582 87.7799 12.2526 86.8164 13.5938C85.8529 14.9349 85.3711 16.8815 85.3711 19.4336V30.6445H82.1289V9.23828H84.7461L85.2344 12.3242H85.4102C85.8659 11.569 86.4453 10.9375 87.1484 10.4297C87.8516 9.90885 88.6393 9.51823 89.5117 9.25781C90.3841 8.98438 91.3021 8.84766 92.2656 8.84766ZM113.574 28.3789C114.108 28.3789 114.655 28.3333 115.215 28.2422C115.775 28.151 116.23 28.0404 116.582 27.9102V30.4297C116.204 30.599 115.677 30.7422 115 30.8594C114.336 30.9766 113.685 31.0352 113.047 31.0352C111.914 31.0352 110.885 30.8398 109.961 30.4492C109.036 30.0456 108.294 29.3685 107.734 28.418C107.188 27.4674 106.914 26.1523 106.914 24.4727V11.7773H103.867V10.1953L106.934 8.92578L108.223 4.27734H110.176V9.23828H116.445V11.7773H110.176V24.375C110.176 25.7161 110.482 26.7188 111.094 27.3828C111.719 28.0469 112.546 28.3789 113.574 28.3789ZM128.926 8.88672C131.478 8.88672 133.372 9.45964 134.609 10.6055C135.846 11.7513 136.465 13.5807 136.465 16.0938V30.6445H134.102L133.477 27.4805H133.32C132.721 28.2617 132.096 28.9193 131.445 29.4531C130.794 29.974 130.039 30.3711 129.18 30.6445C128.333 30.9049 127.292 31.0352 126.055 31.0352C124.753 31.0352 123.594 30.8073 122.578 30.3516C121.576 29.8958 120.781 29.2057 120.195 28.2812C119.622 27.3568 119.336 26.1849 119.336 24.7656C119.336 22.6302 120.182 20.9896 121.875 19.8438C123.568 18.6979 126.146 18.0729 129.609 17.9688L133.301 17.8125V16.5039C133.301 14.6549 132.904 13.3594 132.109 12.6172C131.315 11.875 130.195 11.5039 128.75 11.5039C127.63 11.5039 126.562 11.6667 125.547 11.9922C124.531 12.3177 123.568 12.7018 122.656 13.1445L121.66 10.6836C122.624 10.1888 123.73 9.76562 124.98 9.41406C126.23 9.0625 127.546 8.88672 128.926 8.88672ZM133.262 20.0977L130 20.2344C127.331 20.3385 125.449 20.7747 124.355 21.543C123.262 22.3112 122.715 23.3984 122.715 24.8047C122.715 26.0286 123.086 26.9336 123.828 27.5195C124.57 28.1055 125.553 28.3984 126.777 28.3984C128.678 28.3984 130.234 27.8711 131.445 26.8164C132.656 25.7617 133.262 24.1797 133.262 22.0703V20.0977ZM134.277 0V0.390625C134.017 0.768229 133.659 1.22396 133.203 1.75781C132.76 2.27865 132.266 2.83203 131.719 3.41797C131.172 3.99089 130.618 4.53776 130.059 5.05859C129.512 5.57943 129.004 6.02865 128.535 6.40625H126.367V5.9375C126.784 5.44271 127.24 4.85026 127.734 4.16016C128.229 3.45703 128.711 2.74089 129.18 2.01172C129.648 1.26953 130.039 0.598958 130.352 0H134.277ZM152.871 8.84766C153.301 8.84766 153.75 8.8737 154.219 8.92578C154.688 8.96484 155.104 9.02344 155.469 9.10156L155.059 12.1094C154.707 12.0182 154.316 11.9466 153.887 11.8945C153.457 11.8424 153.053 11.8164 152.676 11.8164C151.816 11.8164 151.003 11.9922 150.234 12.3438C149.479 12.6823 148.815 13.1771 148.242 13.8281C147.669 14.4661 147.22 15.2409 146.895 16.1523C146.569 17.0508 146.406 18.0534 146.406 19.1602V30.6445H143.145V9.23828H145.84L146.191 13.1836H146.328C146.771 12.3893 147.305 11.6667 147.93 11.0156C148.555 10.3516 149.277 9.82422 150.098 9.43359C150.931 9.04297 151.855 8.84766 152.871 8.84766ZM162.754 9.23828V30.6445H159.512V9.23828H162.754ZM161.172 1.23047C161.706 1.23047 162.161 1.40625 162.539 1.75781C162.93 2.09635 163.125 2.63021 163.125 3.35938C163.125 4.07552 162.93 4.60938 162.539 4.96094C162.161 5.3125 161.706 5.48828 161.172 5.48828C160.612 5.48828 160.143 5.3125 159.766 4.96094C159.401 4.60938 159.219 4.07552 159.219 3.35938C159.219 2.63021 159.401 2.09635 159.766 1.75781C160.143 1.40625 160.612 1.23047 161.172 1.23047ZM188.086 19.9023C188.086 21.6602 187.858 23.2292 187.402 24.6094C186.947 25.9896 186.289 27.1549 185.43 28.1055C184.57 29.056 183.529 29.7852 182.305 30.293C181.094 30.7878 179.72 31.0352 178.184 31.0352C176.751 31.0352 175.436 30.7878 174.238 30.293C173.053 29.7852 172.025 29.056 171.152 28.1055C170.293 27.1549 169.622 25.9896 169.141 24.6094C168.672 23.2292 168.438 21.6602 168.438 19.9023C168.438 17.5586 168.835 15.5664 169.629 13.9258C170.423 12.2721 171.556 11.0156 173.027 10.1562C174.512 9.28385 176.276 8.84766 178.32 8.84766C180.273 8.84766 181.979 9.28385 183.438 10.1562C184.909 11.0286 186.048 12.2917 186.855 13.9453C187.676 15.5859 188.086 17.5716 188.086 19.9023ZM171.797 19.9023C171.797 21.6211 172.025 23.112 172.48 24.375C172.936 25.638 173.639 26.6146 174.59 27.3047C175.54 27.9948 176.764 28.3398 178.262 28.3398C179.746 28.3398 180.964 27.9948 181.914 27.3047C182.878 26.6146 183.587 25.638 184.043 24.375C184.499 23.112 184.727 21.6211 184.727 19.9023C184.727 18.1966 184.499 16.7253 184.043 15.4883C183.587 14.2383 182.884 13.2747 181.934 12.5977C180.983 11.9206 179.753 11.582 178.242 11.582C176.016 11.582 174.382 12.3177 173.34 13.7891C172.311 15.2604 171.797 17.2982 171.797 19.9023ZM207.539 24.7852C207.539 26.1523 207.194 27.3047 206.504 28.2422C205.827 29.1667 204.85 29.8633 203.574 30.332C202.311 30.8008 200.801 31.0352 199.043 31.0352C197.546 31.0352 196.25 30.918 195.156 30.6836C194.062 30.4492 193.105 30.1172 192.285 29.6875V26.6992C193.158 27.1289 194.199 27.5195 195.41 27.8711C196.621 28.2227 197.858 28.3984 199.121 28.3984C200.97 28.3984 202.311 28.099 203.145 27.5C203.978 26.901 204.395 26.0872 204.395 25.0586C204.395 24.4727 204.225 23.9583 203.887 23.5156C203.561 23.0599 203.008 22.6237 202.227 22.207C201.445 21.7773 200.365 21.3086 198.984 20.8008C197.617 20.2799 196.432 19.7656 195.43 19.2578C194.44 18.737 193.672 18.1055 193.125 17.3633C192.591 16.6211 192.324 15.6576 192.324 14.4727C192.324 12.6628 193.053 11.276 194.512 10.3125C195.983 9.33594 197.91 8.84766 200.293 8.84766C201.582 8.84766 202.786 8.97786 203.906 9.23828C205.039 9.48568 206.094 9.82422 207.07 10.2539L205.977 12.8516C205.091 12.474 204.147 12.1549 203.145 11.8945C202.142 11.6341 201.12 11.5039 200.078 11.5039C198.581 11.5039 197.428 11.7513 196.621 12.2461C195.827 12.7409 195.43 13.418 195.43 14.2773C195.43 14.9414 195.612 15.4883 195.977 15.918C196.354 16.3477 196.953 16.7513 197.773 17.1289C198.594 17.5065 199.674 17.9492 201.016 18.457C202.357 18.9518 203.516 19.4661 204.492 20C205.469 20.5208 206.217 21.1589 206.738 21.9141C207.272 22.6562 207.539 23.6133 207.539 24.7852Z" fill="#BD4747"/>
</svg>
