<svg width="405" height="90" viewBox="0 0 405 90" fill="none" xmlns="http://www.w3.org/2000/svg">
    <g clip-path="url(#clip0_658_600)">
        <path d="M404.388 51.0454C403.93 50.7406 403.471 50.5883 402.859 50.7406C401.025 51.1978 398.884 51.5025 396.285 51.5025C393.533 51.5025 390.934 51.0454 388.641 50.4359C388.335 49.2169 387.724 48.1503 386.959 47.3884C386.195 46.6265 385.277 46.1694 384.36 46.1694C383.749 46.1694 383.29 46.4742 382.831 46.9313C382.373 47.3884 382.22 47.8455 382.22 48.455C382.22 49.9788 382.984 51.3501 384.513 52.4168V53.331C384.513 55.4642 384.054 57.9022 382.984 60.645C381.914 63.3877 380.691 65.8257 379.315 67.8066C377.939 69.7874 376.563 70.854 375.34 71.0064C375.187 71.0064 375.034 71.0064 374.728 70.854C374.422 70.7017 374.27 70.0922 373.964 69.1779C373.658 68.2637 373.658 67.1971 373.658 65.9781C373.658 61.1021 374.575 56.5309 376.563 52.4168C378.55 48.3027 380.538 45.5599 382.678 44.3409H382.831C382.984 44.3409 383.29 44.4933 383.596 44.4933C384.207 44.4933 384.666 44.3409 384.972 43.8838C385.43 43.579 385.583 43.1219 385.583 42.6648C385.583 41.9029 385.125 41.1411 384.054 40.5316C382.984 39.9221 381.761 39.6173 380.385 39.6173C379.009 39.6173 377.327 40.2268 375.798 41.2934C374.117 42.3601 372.741 43.8838 371.365 45.7123C368.613 49.5216 367.084 54.0929 366.625 59.1212C364.026 64.1496 361.274 69.0256 358.675 73.5968C354.7 80.4536 351.489 84.4154 349.349 85.3296C348.89 85.482 348.584 85.482 348.431 85.1772C347.973 84.7201 347.667 83.5011 347.208 81.6726C346.903 79.6918 346.597 77.7109 346.597 75.5777C346.597 72.2254 347.055 68.2637 347.82 63.6925C348.584 59.1212 349.502 55.0071 350.572 51.1978C351.642 47.3884 353.018 42.8172 354.7 37.6365C356.382 32.4557 357.758 28.494 358.828 25.7513C359.898 23.0085 361.121 19.5039 362.803 15.3898C363.109 14.6279 363.567 13.5613 364.026 12.0376C364.638 10.5138 364.943 9.59958 365.249 8.99008C365.555 8.22821 365.402 7.46634 365.096 6.70447C364.638 6.09497 364.026 5.48548 363.414 5.18073C362.038 4.57123 360.968 4.57123 360.204 5.48547C360.051 5.63785 360.051 5.63785 360.051 5.79022C360.051 5.79022 359.898 5.9426 359.898 6.09497C359.898 6.24735 359.745 6.24735 359.745 6.39972V6.5521C358.063 9.29483 354.241 17.0659 348.431 29.8654C344.915 37.7888 342.775 42.2077 342.316 43.2743C341.551 42.3601 340.328 41.5982 338.952 40.9887C337.576 40.3792 336.048 40.0744 334.519 40.0744C332.072 40.0744 329.626 41.1411 327.486 43.2743C325.192 45.4075 323.511 48.1503 322.135 51.3501C321.676 52.5691 321.37 53.6358 321.065 54.8547C313.879 63.5401 308.833 67.8066 305.776 67.8066C304.094 67.8066 303.329 66.1304 303.329 62.6258C303.329 58.3594 304.247 53.331 305.929 47.5408C306.082 46.7789 305.929 46.017 305.47 45.5599C304.858 44.6457 303.941 44.1885 302.718 44.1885H302.412C300.425 42.0553 297.826 40.9887 294.615 40.9887C291.404 40.9887 288.499 42.2077 285.747 44.4933C282.995 46.7789 280.855 49.8264 279.479 53.331C279.02 54.2453 278.715 55.1595 278.409 56.0737C274.587 61.7116 270.612 66.7399 266.484 71.0064C261.285 76.4919 257.616 79.2346 255.476 79.2346C254.711 79.2346 253.947 78.3204 253.182 76.4919C252.571 74.6634 252.112 72.3778 252.112 69.6351C252.112 64.1496 253.029 58.207 254.864 51.8073C259.145 49.9788 263.579 46.1694 268.165 40.6839C272.752 35.1985 276.421 29.2559 279.173 22.8561C282.078 16.4564 283.454 11.1233 283.454 6.70447C283.454 4.7236 282.995 3.19986 282.231 1.98087C281.467 0.761871 280.396 0.304749 278.867 0.304749C276.727 0.304749 273.822 2.43799 270.153 6.70447C266.484 10.971 262.661 16.3041 259.145 23.0085C254.864 30.7796 251.501 38.3983 249.207 46.1694C248.749 47.9979 248.137 49.674 247.831 51.3501C245.079 52.8739 242.786 54.0929 240.493 55.3119C237.588 56.8356 236.212 57.4451 234.683 58.0546C231.625 59.2736 229.79 59.8831 228.873 60.1879C226.427 60.9497 224.592 61.1021 222.911 61.1021C220.464 61.1021 219.547 60.645 219.088 60.3402C218.018 59.5784 217.712 58.3594 217.559 57.9022C216.642 54.3976 219.088 49.0645 219.394 47.5408C219.547 46.9313 219.394 46.4742 219.088 46.1694C218.63 45.5599 218.018 45.2552 217.254 45.2552H217.101C215.725 43.8838 213.89 43.1219 211.75 43.1219C209.609 43.1219 207.469 43.8838 205.634 45.5599C204.411 46.6265 203.341 47.8455 202.424 49.3693C197.378 50.7406 190.498 51.8073 182.548 51.1978C179.796 51.0454 177.197 50.5883 174.904 50.1311C174.598 48.9122 173.986 47.8455 173.222 47.0837C172.457 46.3218 171.54 45.8647 170.623 45.8647C170.011 45.8647 169.553 46.1694 169.094 46.6265C168.635 47.0837 168.482 47.5408 168.482 48.1503C168.482 49.674 169.247 51.0454 170.776 52.112V53.1786C170.776 55.3119 170.317 57.7499 169.247 60.4926C168.177 63.2353 166.954 65.6733 165.578 67.6542C164.202 69.6351 162.826 70.7017 161.602 70.854C161.45 70.854 161.297 70.854 160.991 70.7017C160.685 70.5493 160.532 69.9398 160.226 69.0256C159.921 68.1113 159.921 67.0447 159.921 65.8257C159.921 60.9497 160.838 56.3785 162.826 52.2644C164.813 48.1503 166.801 45.4075 168.941 44.1885H169.094C169.247 44.1885 169.553 44.3409 169.858 44.3409C170.47 44.3409 170.929 44.1885 171.234 43.7314C171.693 43.4267 171.846 42.9696 171.846 42.5124C171.846 41.7506 171.387 40.9887 170.317 40.3792C169.247 39.7697 168.024 39.4649 166.648 39.4649C165.272 39.4649 163.59 40.0744 162.061 41.1411C160.379 42.2077 159.003 43.7314 157.627 45.5599C154.875 49.3693 153.346 53.9405 152.888 58.9689C150.289 63.9972 147.537 68.8732 144.938 73.4444C140.963 80.3013 137.752 84.263 135.611 85.1772C135.153 85.3296 134.847 85.3296 134.694 85.0249C134.236 84.5677 133.93 83.3487 133.471 81.5203C133.165 79.5394 132.86 77.5585 132.86 75.4253C132.86 72.073 133.318 68.1113 134.083 63.5401C134.847 58.9689 135.764 54.8547 136.835 51.0454C137.905 47.236 139.281 42.6648 140.963 37.4841C142.644 32.3034 144.02 28.3416 145.091 25.5989C146.161 22.8561 147.384 19.3515 149.066 15.2374C149.371 14.4756 149.83 13.4089 150.289 11.8852C150.9 10.3615 151.206 9.44721 151.512 8.83771C151.818 8.07584 151.665 7.31397 151.359 6.5521C150.9 5.9426 150.289 5.3331 149.677 5.02835C148.301 4.41885 147.231 4.41885 146.467 5.3331C146.314 5.48548 146.314 5.48548 146.314 5.63785C146.314 5.63785 146.161 5.79022 146.161 5.9426C146.161 6.09497 145.702 6.09497 145.702 6.09497V6.24735C144.02 8.99008 140.198 16.7612 134.388 29.5606C130.872 37.4841 128.732 41.9029 128.273 42.9696C127.508 42.0553 126.285 41.2934 124.909 40.6839C123.533 40.0744 122.004 39.7697 120.476 39.7697C118.029 39.7697 115.583 40.8363 113.443 42.9696C111.149 45.1028 109.468 47.8455 108.092 51.0454C107.633 52.2644 107.327 53.331 107.021 54.55C99.8357 63.2353 94.7904 67.5018 91.7327 67.5018C90.0509 67.5018 89.2865 65.8257 89.2865 62.3211C89.2865 58.0546 90.2038 53.0263 91.8856 47.236C92.0385 46.4742 91.8856 45.7123 91.4269 45.2552C90.8154 44.3409 89.898 43.8838 88.6749 43.8838H88.3691C86.3816 41.7506 83.7825 40.6839 80.5719 40.6839C77.3612 40.6839 74.4564 41.9029 71.7044 44.1885C68.9524 46.4742 66.812 49.5216 65.436 53.0263C64.9773 53.9405 64.6715 54.8547 64.3658 55.769C60.5436 61.4068 56.5685 66.4352 52.4405 70.7017C47.2423 76.1872 43.573 78.9299 41.4326 78.9299C40.6681 78.9299 39.9037 78.0156 39.1393 76.1871C38.5277 74.3587 38.069 72.073 38.069 69.3303C38.069 63.8448 38.9864 57.9022 40.821 51.5025C45.1019 49.674 49.5356 45.8647 54.1223 40.3792C58.7089 34.8937 62.3782 28.9511 65.1302 22.5514C68.0351 16.1517 69.4111 10.8186 69.4111 6.39972C69.4111 4.41885 68.9524 2.89511 68.188 1.67612C67.4235 0.609497 66.2004 0 64.8244 0C62.684 0 59.7791 2.13324 56.1098 6.39972C52.4405 10.6662 48.6183 15.9993 45.1019 22.7038C40.821 30.3225 37.4575 38.0936 35.1642 45.7123C34.7055 47.5408 34.094 49.2169 33.7882 50.893C31.4949 52.2644 29.8131 53.331 26.4496 55.1595C24.462 56.2261 23.3918 56.8356 21.71 57.4451C20.4869 57.9022 17.5821 59.1212 13.7599 60.0355C13.4541 60.0355 11.6194 60.4926 9.02034 60.645C6.57413 60.7973 5.65681 60.645 5.04526 60.0355C3.36349 58.8165 3.66926 57.4451 2.59905 56.6832C1.9875 56.2261 0.917283 56.2261 0.458619 56.6832C-0.458708 57.5975 0.611507 60.645 2.59905 62.3211C3.97504 63.3877 5.50392 63.6925 7.0328 63.8448C9.17323 64.1496 10.7021 63.8448 11.4665 63.8448C14.5243 63.5401 18.0407 62.6258 23.6976 60.4926C25.838 59.5784 27.3669 58.8165 28.59 58.207C30.1189 57.4451 31.6477 56.6832 32.8708 55.9214C32.1064 59.7307 31.8006 63.3877 31.8006 66.8923C31.8006 72.3778 32.718 76.3395 34.7055 78.9299C36.693 81.5202 38.9864 82.7392 41.7383 82.7392C43.573 82.7392 45.7134 81.9774 48.0067 80.4536C50.3001 78.9299 52.5934 76.949 54.7338 74.6634C56.8742 72.3778 59.1676 69.7874 61.308 66.8923C61.9195 65.9781 62.684 65.2162 63.2955 64.302C63.2955 66.8923 63.9071 69.0256 65.1302 70.5493C66.3533 72.2254 67.8822 72.9873 69.5639 72.9873C71.0928 72.9873 72.7746 71.9207 74.7621 69.6351C76.7497 67.3494 79.6545 63.5401 83.6296 57.9022V59.1212C83.6296 62.9306 84.3941 65.9781 85.9229 68.1113C87.4518 70.2446 89.5923 71.4636 92.1913 71.4636C95.0962 71.4636 98.6126 69.3303 102.894 65.2162C103.964 64.1496 105.034 62.9306 106.104 61.864C106.257 64.7591 107.021 67.0447 108.245 68.8732C109.621 71.0064 111.608 72.073 114.054 72.073C115.125 72.073 116.195 71.6159 117.265 70.854C118.335 70.0922 119.405 69.0256 120.323 67.8066C121.24 66.5876 122.31 64.9115 123.533 62.9306C124.756 60.9497 125.674 58.9689 126.591 57.1404C127.508 55.3119 128.579 53.0263 129.802 50.4359C127.814 59.1212 126.744 66.4352 126.744 72.2254C126.744 83.3487 129.649 88.9866 135.459 88.9866C137.14 88.9866 139.281 87.7676 141.574 85.1772C143.867 82.5869 146.314 79.387 148.607 75.4253C150.289 72.5302 151.818 69.7874 153.194 67.0447C153.652 68.7208 154.264 70.0922 155.028 71.3112C156.71 73.7492 158.85 74.9682 161.602 74.9682C163.896 74.9682 166.036 73.7492 168.024 71.4636C170.011 69.1779 171.693 66.4352 172.916 63.2353C174.139 60.0355 174.751 56.988 175.057 53.9405C177.656 54.55 180.255 54.8547 182.854 54.8547C186.829 54.8547 195.849 54.0929 200.589 52.8739C199.977 54.8548 199.519 56.8356 199.519 58.8165C199.519 60.7973 199.977 62.3211 200.895 63.3877C201.812 64.4543 202.729 65.0638 203.952 65.0638C205.023 65.0638 206.093 64.302 207.469 62.7782C208.845 61.2545 210.832 58.6641 213.584 54.7024V55.6166C213.431 56.0737 212.973 59.426 215.266 61.864C216.948 63.6925 219.241 64.1496 220.464 64.302C220.77 64.302 221.993 64.4543 225.204 63.9972C229.179 63.3877 232.542 62.4735 237.435 60.645C239.422 59.8831 242.174 58.5117 246.761 56.2261C245.997 60.1879 245.691 63.8448 245.691 67.3494C245.691 72.8349 246.608 76.7966 248.596 79.387C250.583 81.9774 252.877 83.1964 255.628 83.1964C257.463 83.1964 259.604 82.4345 261.897 80.9108C264.19 79.387 266.484 77.4061 268.624 75.1205C270.764 72.8349 273.058 70.2446 275.198 67.3494C275.81 66.4352 276.574 65.6733 277.186 64.7591C277.186 67.3494 277.797 69.4827 279.02 71.0064C280.243 72.6825 281.772 73.4444 283.454 73.4444C284.983 73.4444 286.665 72.3778 288.652 70.0922C290.64 67.8066 293.545 63.9972 297.52 58.3594V59.5784C297.52 63.3877 298.284 66.4352 299.813 68.5684C301.342 70.7017 303.482 71.9207 306.082 71.9207C308.986 71.9207 312.503 69.7874 316.784 65.6733C317.854 64.6067 318.924 63.3877 319.994 62.3211C320.147 65.2162 320.912 67.5018 322.135 69.3303C323.511 71.4635 325.498 72.5302 327.944 72.5302C329.015 72.5302 330.085 72.073 331.155 71.3112C332.225 70.5493 333.296 69.4827 334.213 68.2637C335.13 67.0447 336.2 65.3686 337.424 63.3877C338.647 61.4068 339.564 59.426 340.481 57.5975C341.399 55.769 342.469 53.4834 343.692 50.893C341.704 59.5784 340.634 66.8923 340.634 72.6825C340.634 83.8059 343.539 89.4437 349.349 89.4437C351.031 89.4437 353.171 88.2247 355.464 85.6344C357.758 83.044 360.204 79.8441 362.497 75.8824C364.179 72.9873 365.708 70.2446 367.084 67.5018C367.542 69.1779 368.154 70.5493 368.918 71.7683C370.6 74.2063 372.741 75.4253 375.493 75.4253C377.786 75.4253 379.926 74.2063 381.914 71.9207C383.901 69.6351 385.583 66.8923 386.806 63.6925C388.029 60.4926 388.641 57.4451 388.947 54.3976C391.546 55.0071 394.145 55.3119 396.744 55.3119C402.248 55.3119 405 54.3976 405 52.5691C405 51.8073 404.847 51.3501 404.388 51.0454ZM53.5107 21.6372C58.0974 13.8661 61.9195 8.53296 65.1302 5.63785C65.436 9.14246 64.5186 13.7137 62.0724 19.1992C59.7791 24.6846 56.7214 29.8654 53.0521 34.7413C49.3827 39.6173 45.8663 43.4267 42.3499 46.017C45.4077 37.4841 49.077 29.4082 53.5107 21.6372ZM83.9354 48.455C83.4767 49.2169 83.0181 49.8264 82.7123 50.1311C76.1381 59.8831 72.0101 65.521 70.0226 67.0447C70.1755 63.6925 71.0928 60.3402 72.6217 56.988C74.1506 53.6358 75.9852 50.893 77.9728 48.9121C79.9603 46.9313 81.9479 45.8647 83.6296 45.8647C84.2412 45.8647 84.6998 46.3218 84.8527 46.9313C84.8527 47.0837 84.547 47.6932 83.9354 48.455ZM113.901 67.6542C113.749 67.8066 113.596 67.8066 113.596 67.6542C113.137 67.1971 112.984 65.8257 112.984 63.5401C112.984 60.645 113.596 57.7499 114.819 54.7024C116.042 51.6549 117.418 49.2169 118.947 47.236C120.476 45.4075 121.852 44.3409 123.075 44.3409C123.686 44.3409 124.145 44.4933 124.451 44.798C124.909 45.1028 125.215 45.4075 125.368 45.7123C125.521 46.017 125.827 46.3218 126.132 46.9313C126.132 46.9313 126.132 46.9313 126.132 47.0837C120.017 59.8831 115.889 66.7399 113.901 67.6542ZM213.89 48.1503C213.584 48.6074 213.279 49.0645 213.126 49.3693C208.539 56.0737 205.634 59.8831 204.411 60.9497C204.564 58.6641 205.175 56.3785 206.246 54.0929C207.316 51.8073 208.539 49.9788 209.915 48.6074C211.291 47.236 212.667 46.4742 213.737 46.4742C214.196 46.4742 214.502 46.7789 214.655 47.236C214.502 47.236 214.349 47.6932 213.89 48.1503ZM267.401 21.9419C271.987 14.1708 275.81 8.83771 279.02 5.9426C279.326 9.44721 278.409 14.0184 275.963 19.5039C273.669 24.9894 270.612 30.1701 266.942 35.0461C263.273 39.9221 259.757 43.7314 256.24 46.3218C259.145 37.7888 262.967 29.713 267.401 21.9419ZM297.826 48.7598C297.367 49.5216 296.908 50.1311 296.602 50.4359C290.028 60.1878 285.747 65.8257 283.913 67.3494C284.066 63.9972 284.983 60.645 286.512 57.2927C288.041 53.9405 289.875 51.1978 291.863 49.2169C293.85 47.236 295.838 46.1694 297.52 46.1694C298.131 46.1694 298.59 46.6265 298.743 47.236C298.743 47.3884 298.437 47.9979 297.826 48.7598ZM327.639 67.9589C327.486 68.1113 327.333 68.1113 327.333 67.9589C326.874 67.5018 326.721 66.1304 326.721 63.8448C326.721 60.9497 327.333 58.0546 328.556 55.0071C329.779 51.9596 331.155 49.5216 332.684 47.5408C334.213 45.7123 335.589 44.6457 336.812 44.6457C337.424 44.6457 337.882 44.798 338.188 45.1028C338.647 45.4075 338.952 45.7123 339.105 46.017C339.258 46.3218 339.564 46.6265 339.87 47.236C339.87 47.236 339.87 47.236 339.87 47.3884C333.907 60.3402 329.779 67.0447 327.639 67.9589Z"
              fill="black"/>
    </g>
    <defs>
        <clipPath id="clip0_658_600">
            <rect width="405" height="89.2913" fill="white"/>
        </clipPath>
    </defs>
</svg>
