<svg width="126" height="28" viewBox="0 0 126 28" fill="none" xmlns="http://www.w3.org/2000/svg">
    <path d="M125.81 15.9796C125.667 15.8842 125.524 15.8365 125.334 15.8842C124.763 16.0273 124.097 16.1227 123.288 16.1227C122.431 16.1227 121.623 15.9796 120.909 15.7888C120.814 15.4072 120.623 15.0733 120.386 14.8348C120.148 14.5963 119.862 14.4532 119.577 14.4532C119.386 14.4532 119.244 14.5486 119.101 14.6917C118.958 14.8348 118.911 14.9779 118.911 15.1687C118.911 15.6457 119.148 16.075 119.624 16.4089V16.6951C119.624 17.3629 119.482 18.1261 119.148 18.9847C118.815 19.8433 118.435 20.6065 118.007 21.2266C117.578 21.8467 117.15 22.1806 116.769 22.2283C116.722 22.2283 116.674 22.2283 116.579 22.1806C116.484 22.1329 116.436 21.9421 116.341 21.6559C116.246 21.3697 116.246 21.0358 116.246 20.6542C116.246 19.1278 116.532 17.6968 117.15 16.4089C117.769 15.121 118.387 14.2624 119.053 13.8807H119.101C119.148 13.8807 119.244 13.9284 119.339 13.9284C119.529 13.9284 119.672 13.8807 119.767 13.7376C119.91 13.6422 119.957 13.4991 119.957 13.356C119.957 13.1175 119.815 12.879 119.482 12.6882C119.148 12.4974 118.768 12.402 118.34 12.402C117.911 12.402 117.388 12.5928 116.912 12.9267C116.389 13.2606 115.961 13.7376 115.532 14.3101C114.676 15.5026 114.2 16.9336 114.057 18.5077C113.249 20.0818 112.392 21.6082 111.583 23.0392C110.346 25.1857 109.347 26.4259 108.681 26.7121C108.538 26.7598 108.443 26.7598 108.395 26.6644C108.253 26.5213 108.158 26.1397 108.015 25.5673C107.92 24.9472 107.824 24.3271 107.824 23.6593C107.824 22.6099 107.967 21.3697 108.205 19.9387C108.443 18.5077 108.728 17.2198 109.062 16.0273C109.395 14.8348 109.823 13.4037 110.346 11.7819C110.87 10.1601 111.298 8.91993 111.631 8.06133C111.964 7.20273 112.345 6.10562 112.868 4.81772C112.963 4.57922 113.106 4.24532 113.249 3.76831C113.439 3.29131 113.534 3.00511 113.629 2.81431C113.724 2.57581 113.677 2.33731 113.582 2.09881C113.439 1.90801 113.249 1.71721 113.058 1.62181C112.63 1.43101 112.297 1.43101 112.059 1.71721C112.011 1.76491 112.011 1.76491 112.011 1.81261C112.011 1.81261 111.964 1.86031 111.964 1.90801C111.964 1.95571 111.916 1.95571 111.916 2.00341V2.05111C111.393 2.90971 110.203 5.34242 108.395 9.34923C107.301 11.8296 106.635 13.2129 106.492 13.5468C106.254 13.2606 105.874 13.0221 105.445 12.8313C105.017 12.6405 104.541 12.5451 104.066 12.5451C103.304 12.5451 102.543 12.879 101.877 13.5468C101.163 14.2147 100.64 15.0733 100.212 16.075C100.069 16.4566 99.9737 16.7905 99.8786 17.1721C97.6423 19.891 96.0722 21.2266 95.1206 21.2266C94.5972 21.2266 94.3593 20.7019 94.3593 19.6048C94.3593 18.2692 94.6448 16.6951 95.1682 14.8825C95.2158 14.644 95.1682 14.4055 95.0254 14.2624C94.8351 13.9761 94.5496 13.833 94.169 13.833H94.0738C93.4553 13.1652 92.6464 12.8313 91.6472 12.8313C90.6481 12.8313 89.744 13.2129 88.8876 13.9284C88.0312 14.644 87.365 15.598 86.9368 16.6951C86.7941 16.9813 86.6989 17.2675 86.6038 17.5537C85.4143 19.3186 84.1772 20.8927 82.8925 22.2283C81.2748 23.9455 80.1329 24.8041 79.4668 24.8041C79.2289 24.8041 78.991 24.5179 78.7531 23.9455C78.5628 23.3731 78.42 22.6576 78.42 21.799C78.42 20.0818 78.7055 18.2215 79.2765 16.2181C80.6087 15.6457 81.9885 14.4532 83.4159 12.7359C84.8433 11.0187 85.9852 9.15843 86.8417 7.15503C87.7457 5.15162 88.1739 3.48211 88.1739 2.09881C88.1739 1.47871 88.0312 1.0017 87.7933 0.620102C87.5554 0.238501 87.2223 0.0954003 86.7465 0.0954003C86.0804 0.0954003 85.1764 0.763203 84.0344 2.09881C82.8925 3.43441 81.703 5.10392 80.6087 7.20273C79.2764 9.63543 78.2297 12.0204 77.516 14.4532C77.3732 15.0256 77.1829 15.5503 77.0878 16.075C76.2313 16.552 75.5176 16.9336 74.8039 17.3152C73.8999 17.7922 73.4717 17.983 72.9959 18.1738C72.0443 18.5554 71.4733 18.7462 71.1879 18.8416C70.4266 19.0801 69.8556 19.1278 69.3322 19.1278C68.571 19.1278 68.2855 18.9847 68.1427 18.8893C67.8097 18.6508 67.7145 18.2692 67.6669 18.1261C67.3815 17.029 68.1427 15.3595 68.2379 14.8825C68.2855 14.6917 68.2379 14.5486 68.1427 14.4532C68 14.2624 67.8097 14.167 67.5718 14.167H67.5242C67.096 13.7376 66.525 13.4991 65.8589 13.4991C65.1928 13.4991 64.5267 13.7376 63.9557 14.2624C63.5751 14.5963 63.242 14.9779 62.9565 15.4549C61.3864 15.8842 59.2453 16.2181 56.7711 16.0273C55.9147 15.9796 55.1058 15.8365 54.3921 15.6934C54.297 15.3118 54.1066 14.9779 53.8687 14.7394C53.6308 14.5009 53.3454 14.3578 53.0599 14.3578C52.8696 14.3578 52.7268 14.4532 52.5841 14.5963C52.4413 14.7394 52.3938 14.8825 52.3938 15.0733C52.3938 15.5503 52.6317 15.9796 53.1075 16.3135V16.6474C53.1075 17.3152 52.9647 18.0784 52.6317 18.937C52.2986 19.7956 51.918 20.5588 51.4897 21.1789C51.0615 21.799 50.6333 22.1329 50.2527 22.1806C50.2051 22.1806 50.1575 22.1806 50.0623 22.1329C49.9672 22.0852 49.9196 21.8944 49.8244 21.6082C49.7293 21.322 49.7293 20.9881 49.7293 20.6065C49.7293 19.0801 50.0148 17.6491 50.6333 16.3612C51.2518 15.0733 51.8704 14.2147 52.5365 13.833H52.5841C52.6317 13.833 52.7268 13.8807 52.822 13.8807C53.0123 13.8807 53.155 13.833 53.2502 13.6899C53.3929 13.5945 53.4405 13.4514 53.4405 13.3083C53.4405 13.0698 53.2978 12.8313 52.9647 12.6405C52.6317 12.4497 52.251 12.3543 51.8228 12.3543C51.3946 12.3543 50.8712 12.5451 50.3954 12.879C49.872 13.2129 49.4438 13.6899 49.0156 14.2624C48.1591 15.4549 47.6833 16.8859 47.5406 18.46C46.7317 20.0341 45.8753 21.5605 45.0664 22.9915C43.8294 25.138 42.8302 26.3782 42.1641 26.6644C42.0213 26.7121 41.9262 26.7121 41.8786 26.6167C41.7358 26.4736 41.6407 26.092 41.4979 25.5196C41.4028 24.8995 41.3076 24.2794 41.3076 23.6116C41.3076 22.5622 41.4504 21.322 41.6883 19.891C41.9262 18.46 42.2116 17.1721 42.5447 15.9796C42.8778 14.7871 43.306 13.356 43.8294 11.7342C44.3527 10.1124 44.781 8.87223 45.114 8.01363C45.4471 7.15503 45.8277 6.05792 46.3511 4.77002C46.4463 4.53152 46.589 4.19761 46.7317 3.72061C46.9221 3.24361 47.0172 2.95741 47.1124 2.76661C47.2075 2.52811 47.16 2.28961 47.0648 2.05111C46.9221 1.86031 46.7317 1.66951 46.5414 1.57411C46.1132 1.3833 45.7801 1.3833 45.5422 1.66951C45.4947 1.71721 45.4947 1.71721 45.4947 1.76491C45.4947 1.76491 45.4471 1.81261 45.4471 1.86031C45.4471 1.90801 45.3043 1.90801 45.3043 1.90801V1.95571C44.781 2.81431 43.5915 5.24702 41.7834 9.25383C40.6891 11.7342 40.023 13.1175 39.8802 13.4514C39.6423 13.1652 39.2617 12.9267 38.8335 12.7359C38.4052 12.5451 37.9294 12.4497 37.4536 12.4497C36.6924 12.4497 35.9311 12.7836 35.265 13.4514C34.5513 14.1193 34.0279 14.9779 33.5997 15.9796C33.4569 16.3612 33.3618 16.6951 33.2666 17.0767C31.0303 19.7956 29.4602 21.1312 28.5086 21.1312C27.9852 21.1312 27.7473 20.6065 27.7473 19.5094C27.7473 18.1738 28.0328 16.5997 28.5562 14.7871C28.6038 14.5486 28.5562 14.3101 28.4134 14.167C28.2231 13.8807 27.9376 13.7376 27.557 13.7376H27.4618C26.8433 13.0698 26.0344 12.7359 25.0353 12.7359C24.0361 12.7359 23.1321 13.1175 22.2756 13.833C21.4192 14.5486 20.7531 15.5026 20.3248 16.5997C20.1821 16.8859 20.0869 17.1721 19.9918 17.4583C18.8023 19.2232 17.5652 20.7973 16.2805 22.1329C14.6628 23.8501 13.5209 24.7087 12.8548 24.7087C12.6169 24.7087 12.379 24.4225 12.1411 23.8501C11.9508 23.2777 11.808 22.5622 11.808 21.7036C11.808 19.9864 12.0935 18.1261 12.6645 16.1227C13.9967 15.5503 15.3765 14.3578 16.8039 12.6405C18.2313 10.9233 19.3732 9.06303 20.2297 7.05962C21.1337 5.05622 21.5619 3.38671 21.5619 2.00341C21.5619 1.3833 21.4192 0.906303 21.1813 0.524702C20.9434 0.190801 20.5627 0 20.1345 0C19.4684 0 18.5644 0.667802 17.4225 2.00341C16.2805 3.33901 15.091 5.00852 13.9967 7.10733C12.6645 9.49233 11.6177 11.925 10.904 14.3101C10.7613 14.8825 10.5709 15.4072 10.4758 15.9319C9.76209 16.3612 9.23871 16.6951 8.19195 17.2675C7.57341 17.6014 7.24035 17.7922 6.71697 17.983C6.33633 18.1261 5.43231 18.5077 4.24281 18.7939C4.14765 18.7939 3.57669 18.937 2.76783 18.9847C2.00655 19.0324 1.72107 18.9847 1.53075 18.7939C1.00737 18.4123 1.10253 17.983 0.76947 17.7445C0.57915 17.6014 0.24609 17.6014 0.10335 17.7445C-0.18213 18.0307 0.15093 18.9847 0.76947 19.5094C1.19769 19.8433 1.67349 19.9387 2.14929 19.9864C2.81541 20.0818 3.29121 19.9864 3.52911 19.9864C4.48071 19.891 5.57505 19.6048 7.33551 18.937C8.00163 18.6508 8.47743 18.4123 8.85807 18.2215C9.33387 17.983 9.80967 17.7445 10.1903 17.506C9.95241 18.6985 9.85725 19.8433 9.85725 20.9404C9.85725 22.6576 10.1427 23.8978 10.7613 24.7087C11.3798 25.5196 12.0935 25.9012 12.9499 25.9012C13.5209 25.9012 14.187 25.6627 14.9007 25.1857C15.6144 24.7087 16.3281 24.0886 16.9942 23.3731C17.6604 22.6576 18.3741 21.8467 19.0402 20.9404C19.2305 20.6542 19.4684 20.4157 19.6587 20.1295C19.6587 20.9404 19.849 21.6082 20.2297 22.0852C20.6103 22.6099 21.0861 22.8484 21.6095 22.8484C22.0853 22.8484 22.6087 22.5145 23.2272 21.799C23.8458 21.0835 24.7498 19.891 25.9869 18.1261V18.5077C25.9869 19.7002 26.2248 20.6542 26.7006 21.322C27.1764 21.9898 27.8425 22.3714 28.6513 22.3714C29.5554 22.3714 30.6497 21.7036 31.9819 20.4157C32.315 20.0818 32.6481 19.7002 32.9811 19.3663C33.0287 20.2726 33.2666 20.9881 33.6472 21.5605C34.0755 22.2283 34.694 22.5622 35.4553 22.5622C35.7883 22.5622 36.1214 22.4191 36.4545 22.1806C36.7875 21.9421 37.1206 21.6082 37.4061 21.2266C37.6915 20.845 38.0246 20.3203 38.4052 19.7002C38.7859 19.0801 39.0714 18.46 39.3568 17.8876C39.6423 17.3152 39.9754 16.5997 40.356 15.7888C39.7375 18.5077 39.4044 20.7973 39.4044 22.6099C39.4044 26.092 40.3084 27.8569 42.1165 27.8569C42.6399 27.8569 43.306 27.4753 44.0197 26.6644C44.7334 25.8535 45.4947 24.8518 46.2084 23.6116C46.7317 22.7053 47.2075 21.8467 47.6358 20.9881C47.7785 21.5128 47.9688 21.9421 48.2067 22.3237C48.7301 23.0869 49.3962 23.4685 50.2527 23.4685C50.9664 23.4685 51.6325 23.0869 52.251 22.3714C52.8696 21.6559 53.3929 20.7973 53.7736 19.7956C54.1542 18.7939 54.3445 17.8399 54.4397 16.8859C55.2486 17.0767 56.0574 17.1721 56.8663 17.1721C58.1034 17.1721 60.9106 16.9336 62.3856 16.552C62.1952 17.1721 62.0525 17.7922 62.0525 18.4123C62.0525 19.0324 62.1952 19.5094 62.4807 19.8433C62.7662 20.1772 63.0517 20.368 63.4323 20.368C63.7654 20.368 64.0984 20.1295 64.5266 19.6525C64.9549 19.1755 65.5734 18.3646 66.4298 17.1244V17.4106C66.3823 17.5537 66.2395 18.6031 66.9532 19.3663C67.4766 19.9387 68.1903 20.0818 68.571 20.1295C68.6661 20.1295 69.0468 20.1772 70.0459 20.0341C71.283 19.8433 72.3298 19.5571 73.8523 18.9847C74.4709 18.7462 75.3273 18.3169 76.7547 17.6014C76.5168 18.8416 76.4216 19.9864 76.4216 21.0835C76.4216 22.8007 76.7071 24.0409 77.3257 24.8518C77.9442 25.6627 78.6579 26.0443 79.5143 26.0443C80.0853 26.0443 80.7514 25.8058 81.4651 25.3288C82.1788 24.8518 82.8925 24.2317 83.5586 23.5162C84.2248 22.8007 84.9385 21.9898 85.6046 21.0835C85.7949 20.7973 86.0328 20.5588 86.2231 20.2726C86.2231 21.0835 86.4134 21.7513 86.7941 22.2283C87.1747 22.753 87.6505 22.9915 88.1739 22.9915C88.6497 22.9915 89.1731 22.6576 89.7916 21.9421C90.4102 21.2266 91.3142 20.0341 92.5513 18.2692V18.6508C92.5513 19.8433 92.7892 20.7973 93.265 21.4651C93.7408 22.1329 94.4069 22.5145 95.2157 22.5145C96.1198 22.5145 97.2141 21.8467 98.5463 20.5588C98.8794 20.2249 99.2125 19.8433 99.5455 19.5094C99.5931 20.4157 99.831 21.1312 100.212 21.7036C100.64 22.3714 101.258 22.7053 102.02 22.7053C102.353 22.7053 102.686 22.5622 103.019 22.3237C103.352 22.0852 103.685 21.7513 103.97 21.3697C104.256 20.9881 104.589 20.4634 104.97 19.8433C105.35 19.2232 105.636 18.6031 105.921 18.0307C106.207 17.4583 106.54 16.7428 106.92 15.9319C106.302 18.6508 105.969 20.9404 105.969 22.753C105.969 26.2351 106.873 28 108.681 28C109.204 28 109.87 27.6184 110.584 26.8075C111.298 25.9966 112.059 24.9949 112.773 23.7547C113.296 22.8484 113.772 21.9898 114.2 21.1312C114.343 21.6559 114.533 22.0852 114.771 22.4668C115.294 23.23 115.961 23.6116 116.817 23.6116C117.531 23.6116 118.197 23.23 118.815 22.5145C119.434 21.799 119.957 20.9404 120.338 19.9387C120.719 18.937 120.909 17.983 121.004 17.029C121.813 17.2198 122.622 17.3152 123.431 17.3152C125.144 17.3152 126 17.029 126 16.4566C126 16.2181 125.952 16.075 125.81 15.9796ZM16.6136 6.77342C18.041 4.34072 19.2305 2.67121 20.2297 1.76491C20.3248 2.86201 20.0394 4.29302 19.2781 6.01022C18.5644 7.72743 17.6128 9.34923 16.4709 10.8756C15.3289 12.402 14.2346 13.5945 13.1403 14.4055C14.0919 11.7342 15.2338 9.20613 16.6136 6.77342ZM26.082 15.1687C25.9393 15.4072 25.7965 15.598 25.7014 15.6934C23.6554 18.7462 22.3708 20.5111 21.7522 20.9881C21.7998 19.9387 22.0853 18.8893 22.5611 17.8399C23.0369 16.7905 23.6079 15.9319 24.2264 15.3118C24.8449 14.6917 25.4635 14.3578 25.9869 14.3578C26.1772 14.3578 26.3199 14.5009 26.3675 14.6917C26.3675 14.7394 26.2723 14.9302 26.082 15.1687ZM35.4077 21.1789C35.3601 21.2266 35.3125 21.2266 35.3125 21.1789C35.1698 21.0358 35.1222 20.6065 35.1222 19.891C35.1222 18.9847 35.3125 18.0784 35.6932 17.1244C36.0738 16.1704 36.502 15.4072 36.9778 14.7871C37.4536 14.2147 37.8819 13.8807 38.2625 13.8807C38.4528 13.8807 38.5956 13.9284 38.6907 14.0238C38.8335 14.1192 38.9286 14.2147 38.9762 14.3101C39.0238 14.4055 39.1189 14.5009 39.2141 14.6917C39.2141 14.6917 39.2141 14.6917 39.2141 14.7394C37.3109 18.7462 36.0262 20.8927 35.4077 21.1789ZM66.525 15.0733C66.4298 15.2164 66.3347 15.3595 66.2871 15.4549C64.8597 17.5537 63.9557 18.7462 63.5751 19.0801C63.6226 18.3646 63.813 17.6491 64.146 16.9336C64.4791 16.2181 64.8597 15.6457 65.2879 15.2164C65.7162 14.7871 66.1444 14.5486 66.4774 14.5486C66.6202 14.5486 66.7153 14.644 66.7629 14.7871C66.7153 14.7871 66.6677 14.9302 66.525 15.0733ZM83.178 6.86882C84.6054 4.43612 85.7949 2.76661 86.7941 1.86031C86.8892 2.95741 86.6038 4.38842 85.8425 6.10562C85.1288 7.82283 84.1772 9.44463 83.0353 10.971C81.8934 12.4974 80.799 13.6899 79.7047 14.5009C80.6087 11.8296 81.7982 9.30153 83.178 6.86882ZM92.6464 15.2641C92.5037 15.5026 92.3609 15.6934 92.2658 15.7888C90.2198 18.8416 88.8876 20.6065 88.3167 21.0835C88.3642 20.0341 88.6497 18.9847 89.1255 17.9353C89.6013 16.8859 90.1723 16.0273 90.7908 15.4072C91.4093 14.7871 92.0279 14.4532 92.5513 14.4532C92.7416 14.4532 92.8843 14.5963 92.9319 14.7871C92.9319 14.8348 92.8367 15.0256 92.6464 15.2641ZM101.925 21.2743C101.877 21.322 101.829 21.322 101.829 21.2743C101.687 21.1312 101.639 20.7019 101.639 19.9864C101.639 19.0801 101.829 18.1738 102.21 17.2198C102.591 16.2658 103.019 15.5026 103.495 14.8825C103.97 14.3101 104.399 13.9761 104.779 13.9761C104.97 13.9761 105.112 14.0238 105.208 14.1192C105.35 14.2147 105.445 14.3101 105.493 14.4055C105.541 14.5009 105.636 14.5963 105.731 14.7871C105.731 14.7871 105.731 14.7871 105.731 14.8348C103.875 18.8893 102.591 20.9881 101.925 21.2743Z" fill="#FCF9E9"/>
</svg>
