<svg width="161" height="36" viewBox="0 0 161 36" fill="none" xmlns="http://www.w3.org/2000/svg">
<g clip-path="url(#clip0_2239_294)">
<path d="M160.757 20.5802C160.575 20.4573 160.392 20.3959 160.149 20.4573C159.42 20.6416 158.569 20.7645 157.536 20.7645C156.442 20.7645 155.408 20.5802 154.497 20.3345C154.375 19.843 154.132 19.413 153.828 19.1058C153.524 18.7986 153.16 18.6143 152.795 18.6143C152.552 18.6143 152.37 18.7372 152.187 18.9215C152.005 19.1058 151.944 19.2901 151.944 19.5358C151.944 20.1502 152.248 20.7031 152.856 21.1331V21.5017C152.856 22.3618 152.673 23.3447 152.248 24.4505C151.823 25.5563 151.336 26.5393 150.789 27.3379C150.242 28.1365 149.695 28.5666 149.209 28.628C149.148 28.628 149.088 28.628 148.966 28.5666C148.844 28.5051 148.784 28.2594 148.662 27.8908C148.541 27.5222 148.541 27.0922 148.541 26.6007C148.541 24.6348 148.905 22.7918 149.695 21.1331C150.485 19.4744 151.276 18.3686 152.126 17.8771H152.187C152.248 17.8771 152.37 17.9386 152.491 17.9386C152.734 17.9386 152.917 17.8771 153.038 17.6928C153.22 17.57 153.281 17.3857 153.281 17.2014C153.281 16.8942 153.099 16.587 152.673 16.3413C152.248 16.0956 151.762 15.9727 151.215 15.9727C150.668 15.9727 149.999 16.2184 149.391 16.6485C148.723 17.0785 148.176 17.6928 147.629 18.43C146.535 19.9659 145.927 21.8089 145.745 23.8362C144.712 25.8635 143.618 27.8294 142.584 29.6724C141.004 32.4369 139.728 34.0341 138.877 34.4027C138.695 34.4642 138.573 34.4642 138.512 34.3413C138.33 34.157 138.208 33.6655 138.026 32.9283C137.904 32.1297 137.783 31.3311 137.783 30.471C137.783 29.1195 137.965 27.5222 138.269 25.6792C138.573 23.8362 138.938 22.1775 139.363 20.6416C139.789 19.1058 140.336 17.2628 141.004 15.1741C141.673 13.0853 142.22 11.4881 142.645 10.3823C143.071 9.27645 143.557 7.86348 144.225 6.20478C144.347 5.89761 144.529 5.46758 144.712 4.85324C144.955 4.23891 145.076 3.87031 145.198 3.62457C145.319 3.31741 145.259 3.01024 145.137 2.70307C144.955 2.45734 144.712 2.2116 144.468 2.08874C143.921 1.843 143.496 1.843 143.192 2.2116C143.131 2.27304 143.131 2.27304 143.131 2.33447C143.131 2.33447 143.071 2.3959 143.071 2.45734C143.071 2.51877 143.01 2.51877 143.01 2.5802V2.64164C142.341 3.74744 140.822 6.88055 138.512 12.041C137.114 15.2355 136.263 17.0171 136.081 17.4471C135.777 17.0785 135.291 16.7713 134.744 16.5256C134.197 16.2799 133.589 16.157 132.982 16.157C132.009 16.157 131.037 16.587 130.186 17.4471C129.274 18.3072 128.605 19.413 128.059 20.7031C127.876 21.1945 127.755 21.6246 127.633 22.116C124.777 25.6178 122.771 27.3379 121.555 27.3379C120.887 27.3379 120.583 26.6621 120.583 25.2491C120.583 23.529 120.948 21.5017 121.616 19.1672C121.677 18.8601 121.616 18.5529 121.434 18.3686C121.191 18 120.826 17.8157 120.34 17.8157H120.218C119.428 16.9556 118.395 16.5256 117.119 16.5256C115.842 16.5256 114.687 17.0171 113.593 17.9386C112.499 18.8601 111.649 20.0887 111.102 21.5017C110.919 21.8703 110.798 22.2389 110.676 22.6075C109.157 24.8805 107.576 26.9079 105.935 28.628C103.869 30.8396 102.41 31.9454 101.559 31.9454C101.256 31.9454 100.952 31.5768 100.648 30.8396C100.405 30.1024 100.222 29.1809 100.222 28.0751C100.222 25.8635 100.587 23.4676 101.316 20.8874C103.018 20.1502 104.781 18.6143 106.604 16.4027C108.427 14.1911 109.886 11.7952 110.98 9.21502C112.135 6.63481 112.682 4.48464 112.682 2.70307C112.682 1.90444 112.499 1.2901 112.196 0.798635C111.892 0.307167 111.466 0.122867 110.858 0.122867C110.008 0.122867 108.853 0.982935 107.394 2.70307C105.935 4.42321 104.416 6.57338 103.018 9.27645C101.316 12.4096 99.9792 15.4812 99.0676 18.6143C98.8852 19.3515 98.6421 20.0273 98.5206 20.7031C97.4266 21.3174 96.5149 21.8089 95.6032 22.3003C94.4485 22.9147 93.9015 23.1604 93.2937 23.4061C92.0781 23.8976 91.3488 24.1433 90.9841 24.2662C90.0117 24.5734 89.2824 24.6348 88.6138 24.6348C87.6414 24.6348 87.2767 24.4505 87.0944 24.3276C86.6689 24.0205 86.5474 23.529 86.4866 23.3447C86.1219 21.9317 87.0944 19.7816 87.2159 19.1672C87.2767 18.9215 87.2159 18.7372 87.0944 18.6143C86.912 18.3686 86.6689 18.2457 86.365 18.2457H86.3043C85.7573 17.6928 85.0279 17.3857 84.177 17.3857C83.3261 17.3857 82.4753 17.6928 81.7459 18.3686C81.2597 18.7986 80.8343 19.2901 80.4696 19.9044C78.4639 20.4573 75.7289 20.8874 72.5685 20.6416C71.4745 20.5802 70.4413 20.3959 69.5296 20.2116C69.4081 19.7201 69.165 19.2901 68.8611 18.9829C68.5572 18.6758 68.1925 18.4915 67.8278 18.4915C67.5847 18.4915 67.4024 18.6143 67.2201 18.7986C67.0377 18.9829 66.977 19.1672 66.977 19.413C66.977 20.0273 67.2808 20.5802 67.8886 21.0102V21.4403C67.8886 22.3003 67.7063 23.2833 67.2808 24.3891C66.8554 25.4949 66.3692 26.4778 65.8222 27.2765C65.2752 28.0751 64.7282 28.5051 64.242 28.5666C64.1812 28.5666 64.1204 28.5666 63.9989 28.5051C63.8773 28.4437 63.8165 28.198 63.695 27.8294C63.5734 27.4608 63.5734 27.0307 63.5734 26.5393C63.5734 24.5734 63.9381 22.7304 64.7282 21.0717C65.5183 19.413 66.3084 18.3072 67.1593 17.8157H67.2201C67.2808 17.8157 67.4024 17.8771 67.524 17.8771C67.7671 17.8771 67.9494 17.8157 68.071 17.6314C68.2533 17.5085 68.3141 17.3242 68.3141 17.1399C68.3141 16.8328 68.1317 16.5256 67.7063 16.2799C67.2808 16.0341 66.7946 15.9113 66.2476 15.9113C65.7006 15.9113 65.0321 16.157 64.4243 16.587C63.7557 17.0171 63.2087 17.6314 62.6617 18.3686C61.5677 19.9044 60.96 21.7474 60.7776 23.7747C59.7444 25.802 58.6504 27.7679 57.6172 29.6109C56.037 32.3754 54.7606 33.9727 53.9098 34.3413C53.7274 34.4027 53.6059 34.4027 53.5451 34.2799C53.3628 34.0956 53.2412 33.6041 53.0589 32.8669C52.9373 32.0683 52.8158 31.2696 52.8158 30.4096C52.8158 29.058 52.9981 27.4608 53.302 25.6178C53.6059 23.7747 53.9705 22.116 54.396 20.5802C54.8214 19.0444 55.3684 17.2014 56.037 15.1126C56.7055 13.0239 57.2525 11.4266 57.678 10.3208C58.1034 9.21502 58.5896 7.80205 59.2582 6.14335C59.3797 5.83618 59.5621 5.40614 59.7444 4.79181C59.9875 4.17747 60.1091 3.80887 60.2306 3.56314C60.3522 3.25597 60.2914 2.94881 60.1699 2.64164C59.9875 2.3959 59.7444 2.15017 59.5013 2.0273C58.9543 1.78157 58.5289 1.78157 58.225 2.15017C58.1642 2.2116 58.1642 2.2116 58.1642 2.27304C58.1642 2.27304 58.1034 2.33447 58.1034 2.3959C58.1034 2.45734 57.9211 2.45734 57.9211 2.45734V2.51877C57.2525 3.62457 55.7331 6.75768 53.4235 11.9181C52.0257 15.1126 51.1748 16.8942 50.9924 17.3242C50.6885 16.9556 50.2023 16.6485 49.6553 16.4027C49.1083 16.157 48.5005 16.0341 47.8928 16.0341C46.9203 16.0341 45.9479 16.4642 45.097 17.3242C44.1853 18.1843 43.5168 19.2901 42.9698 20.5802C42.7874 21.0717 42.6659 21.5017 42.5443 21.9932C39.6878 25.4949 37.6821 27.215 36.4666 27.215C35.798 27.215 35.4941 26.5393 35.4941 25.1263C35.4941 23.4061 35.8588 21.3788 36.5273 19.0444C36.5881 18.7372 36.5273 18.43 36.345 18.2457C36.1019 17.8771 35.7372 17.6928 35.251 17.6928H35.1295C34.3394 16.8328 33.3061 16.4027 32.0298 16.4027C30.7535 16.4027 29.5987 16.8942 28.5047 17.8157C27.4107 18.7372 26.5598 19.9659 26.0128 21.3788C25.8305 21.7474 25.7089 22.116 25.5874 22.4846C24.0679 24.7577 22.4877 26.785 20.8467 28.5051C18.7803 30.7167 17.3216 31.8225 16.4707 31.8225C16.1668 31.8225 15.8629 31.4539 15.5591 30.7167C15.3159 29.9795 15.1336 29.058 15.1336 27.9522C15.1336 25.7406 15.4983 23.3447 16.2276 20.7645C17.9294 20.0273 19.6919 18.4915 21.5153 16.2799C23.3386 14.0683 24.7973 11.6724 25.8913 9.09215C27.046 6.51195 27.593 4.36177 27.593 2.5802C27.593 1.78157 27.4107 1.16724 27.1068 0.675768C26.8029 0.245734 26.3167 0 25.7697 0C24.9188 0 23.764 0.860068 22.3054 2.5802C20.8467 4.30034 19.3273 6.45051 17.9294 9.15358C16.2276 12.2253 14.8905 15.3584 13.9788 18.43C13.7965 19.1672 13.5534 19.843 13.4318 20.5188C12.5202 21.0717 11.8516 21.5017 10.5145 22.2389C9.7244 22.6689 9.29896 22.9147 8.6304 23.1604C8.14418 23.3447 6.98941 23.8362 5.46997 24.2048C5.34841 24.2048 4.61908 24.3891 3.58586 24.4505C2.61342 24.5119 2.24875 24.4505 2.00564 24.2048C1.33709 23.7133 1.45864 23.1604 1.0332 22.8532C0.790087 22.6689 0.364643 22.6689 0.18231 22.8532C-0.182356 23.2218 0.243088 24.4505 1.0332 25.1263C1.5802 25.5563 2.18797 25.6792 2.79575 25.7406C3.64664 25.8635 4.25441 25.7406 4.5583 25.7406C5.77385 25.6178 7.17174 25.2491 9.42051 24.3891C10.2714 24.0205 10.8792 23.7133 11.3654 23.4676C11.9732 23.1604 12.581 22.8532 13.0672 22.5461C12.7633 24.0819 12.6417 25.5563 12.6417 26.9693C12.6417 29.1809 13.0064 30.7782 13.7965 31.8225C14.5866 32.8669 15.4983 33.3584 16.5923 33.3584C17.3216 33.3584 18.1725 33.0512 19.0842 32.4369C19.9958 31.8225 20.9075 31.0239 21.7584 30.1024C22.6093 29.1809 23.5209 28.1365 24.3718 26.9693C24.6149 26.6007 24.9188 26.2935 25.1619 25.9249C25.1619 26.9693 25.405 27.8294 25.8913 28.4437C26.3775 29.1195 26.9853 29.4266 27.6538 29.4266C28.2616 29.4266 28.9301 28.9966 29.7203 28.0751C30.5104 27.1536 31.6651 25.6178 33.2454 23.3447V23.8362C33.2454 25.372 33.5492 26.6007 34.157 27.4608C34.7648 28.3208 35.6157 28.8123 36.6489 28.8123C37.8037 28.8123 39.2016 27.9522 40.9033 26.2935C41.3288 25.8635 41.7542 25.372 42.1797 24.942C42.2405 26.1092 42.5443 27.0307 43.0306 27.7679C43.5776 28.628 44.3677 29.058 45.3401 29.058C45.7656 29.058 46.191 28.8737 46.6164 28.5666C47.0419 28.2594 47.4673 27.8294 47.832 27.3379C48.1967 26.8464 48.6221 26.1707 49.1083 25.372C49.5945 24.5734 49.9592 23.7747 50.3239 23.0375C50.6885 22.3003 51.114 21.3788 51.6002 20.3345C50.8101 23.8362 50.3847 26.785 50.3847 29.1195C50.3847 33.6041 51.5394 35.8771 53.849 35.8771C54.5175 35.8771 55.3684 35.3857 56.2801 34.3413C57.1918 33.2969 58.1642 32.0068 59.0759 30.4096C59.7444 29.2423 60.3522 28.1365 60.8992 27.0307C61.0815 27.7065 61.3246 28.2594 61.6285 28.7509C62.2971 29.7338 63.148 30.2253 64.242 30.2253C65.1536 30.2253 66.0045 29.7338 66.7946 28.8123C67.5847 27.8908 68.2533 26.785 68.7395 25.4949C69.2257 24.2048 69.4688 22.9761 69.5904 21.7474C70.6236 21.9932 71.6568 22.116 72.6901 22.116C74.2703 22.116 77.8562 21.8089 79.7403 21.3174C79.4972 22.116 79.3148 22.9147 79.3148 23.7133C79.3148 24.5119 79.4972 25.1263 79.8618 25.5563C80.2265 25.9863 80.5912 26.2321 81.0774 26.2321C81.5028 26.2321 81.9283 25.9249 82.4753 25.3106C83.0223 24.6962 83.8124 23.6519 84.9064 22.0546V22.4232C84.8456 22.6075 84.6633 23.959 85.5749 24.942C86.2435 25.6792 87.1551 25.8635 87.6414 25.9249C87.7629 25.9249 88.2491 25.9864 89.5255 25.802C91.1057 25.5563 92.4428 25.1877 94.3877 24.4505C95.1778 24.1433 96.2718 23.5904 98.0951 22.6689C97.7912 24.2662 97.6697 25.7406 97.6697 27.1536C97.6697 29.3652 98.0343 30.9625 98.8245 32.0068C99.6146 33.0512 100.526 33.5427 101.62 33.5427C102.35 33.5427 103.2 33.2355 104.112 32.6212C105.024 32.0068 105.935 31.2082 106.786 30.2867C107.637 29.3652 108.549 28.3208 109.4 27.1536C109.643 26.785 109.947 26.4778 110.19 26.1092C110.19 27.1536 110.433 28.0137 110.919 28.628C111.405 29.3038 112.013 29.6109 112.682 29.6109C113.29 29.6109 113.958 29.1809 114.748 28.2594C115.538 27.3379 116.693 25.802 118.273 23.529V24.0205C118.273 25.5563 118.577 26.785 119.185 27.6451C119.793 28.5051 120.644 28.9966 121.677 28.9966C122.832 28.9966 124.23 28.1365 125.931 26.4778C126.357 26.0478 126.782 25.5563 127.208 25.1263C127.268 26.2935 127.572 27.215 128.059 27.9522C128.605 28.8123 129.396 29.2423 130.368 29.2423C130.794 29.2423 131.219 29.058 131.644 28.7509C132.07 28.4437 132.495 28.0137 132.86 27.5222C133.225 27.0307 133.65 26.3549 134.136 25.5563C134.622 24.7577 134.987 23.959 135.352 23.2218C135.716 22.4846 136.142 21.5631 136.628 20.5188C135.838 24.0205 135.413 26.9693 135.413 29.3038C135.413 33.7884 136.567 36.0614 138.877 36.0614C139.545 36.0614 140.396 35.57 141.308 34.5256C142.22 33.4812 143.192 32.1911 144.104 30.5939C144.772 29.4266 145.38 28.3208 145.927 27.215C146.109 27.8908 146.353 28.4437 146.656 28.9352C147.325 29.9181 148.176 30.4096 149.27 30.4096C150.182 30.4096 151.032 29.9181 151.823 28.9966C152.613 28.0751 153.281 26.9693 153.767 25.6792C154.254 24.3891 154.497 23.1604 154.618 21.9317C155.652 22.1775 156.685 22.3003 157.718 22.3003C159.906 22.3003 161 21.9317 161 21.1945C161 20.8874 160.939 20.7031 160.757 20.5802ZM21.2722 8.72355C23.0955 5.59044 24.6149 3.44027 25.8913 2.27304C26.0128 3.68601 25.6481 5.52901 24.6757 7.74062C23.764 9.95222 22.5485 12.041 21.0898 14.0068C19.6312 15.9727 18.2333 17.5085 16.8354 18.5529C18.0509 15.1126 19.5096 11.8567 21.2722 8.72355ZM33.3669 19.5358C33.1846 19.843 33.0022 20.0887 32.8807 20.2116C30.2673 24.1433 28.6263 26.4164 27.8361 27.0307C27.8969 25.6792 28.2616 24.3276 28.8694 22.9761C29.4771 21.6246 30.2065 20.5188 30.9966 19.7201C31.7867 18.9215 32.5768 18.4915 33.2454 18.4915C33.4885 18.4915 33.6708 18.6758 33.7316 18.9215C33.7316 18.9829 33.61 19.2287 33.3669 19.5358ZM45.2793 27.2765C45.2186 27.3379 45.1578 27.3379 45.1578 27.2765C44.9754 27.0922 44.9147 26.5393 44.9147 25.6178C44.9147 24.4505 45.1578 23.2833 45.644 22.0546C46.1302 20.8259 46.6772 19.843 47.285 19.0444C47.8928 18.3072 48.4398 17.8771 48.926 17.8771C49.1691 17.8771 49.3514 17.9386 49.473 18.0614C49.6553 18.1843 49.7769 18.3072 49.8377 18.43C49.8984 18.5529 50.02 18.6758 50.1415 18.9215C50.1415 18.9215 50.1415 18.9215 50.1415 18.9829C47.7104 24.1433 46.0694 26.9079 45.2793 27.2765ZM85.0279 19.413C84.9064 19.5973 84.7848 19.7816 84.724 19.9044C82.9007 22.6075 81.7459 24.1433 81.2597 24.5734C81.3205 23.6519 81.5636 22.7304 81.989 21.8089C82.4145 20.8874 82.9007 20.1502 83.4477 19.5973C83.9947 19.0444 84.5417 18.7372 84.9671 18.7372C85.1495 18.7372 85.271 18.8601 85.3318 19.0444C85.271 19.0444 85.2103 19.2287 85.0279 19.413ZM106.3 8.84642C108.123 5.71331 109.643 3.56314 110.919 2.3959C111.041 3.80887 110.676 5.65188 109.704 7.86348C108.792 10.0751 107.576 12.1638 106.118 14.1297C104.659 16.0956 103.261 17.6314 101.863 18.6758C103.018 15.2355 104.538 11.9795 106.3 8.84642ZM118.395 19.6587C118.213 19.9659 118.03 20.2116 117.909 20.3345C115.295 24.2662 113.593 26.5393 112.864 27.1536C112.925 25.802 113.29 24.4505 113.897 23.099C114.505 21.7474 115.234 20.6416 116.025 19.843C116.815 19.0444 117.605 18.6143 118.273 18.6143C118.516 18.6143 118.699 18.7986 118.76 19.0444C118.76 19.1058 118.638 19.3515 118.395 19.6587ZM130.247 27.3993C130.186 27.4608 130.125 27.4608 130.125 27.3993C129.943 27.215 129.882 26.6621 129.882 25.7406C129.882 24.5734 130.125 23.4061 130.611 22.1775C131.097 20.9488 131.644 19.9659 132.252 19.1672C132.86 18.43 133.407 18 133.893 18C134.136 18 134.319 18.0614 134.44 18.1843C134.622 18.3072 134.744 18.43 134.805 18.5529C134.866 18.6758 134.987 18.7986 135.109 19.0444C135.109 19.0444 135.109 19.0444 135.109 19.1058C132.738 24.3276 131.097 27.0307 130.247 27.3993Z" fill="#FFE57D"/>
</g>
<defs>
<clipPath id="clip0_2239_294">
<rect width="161" height="36" fill="white"/>
</clipPath>
</defs>
</svg>
