<svg width="420" height="115" viewBox="0 0 420 115" fill="none" xmlns="http://www.w3.org/2000/svg">
<path id="2500+" d="M8.16 99C7.28 99 6.56 98.72 6 98.16C5.44 97.6 5.16 96.88 5.16 96V88.8C5.16 88.16 5.32 87.32 5.64 86.28C6.04 85.16 6.88 84.08 8.16 83.04L24 67.32C29.84 62.84 34.56 59.04 38.16 55.92C41.84 52.8 44.56 49.96 46.32 47.4C48.08 44.84 48.96 42.36 48.96 39.96C48.96 36.84 48.08 34.28 46.32 32.28C44.64 30.2 41.88 29.16 38.04 29.16C35.48 29.16 33.32 29.72 31.56 30.84C29.88 31.88 28.56 33.28 27.6 35.04C26.64 36.8 26 38.72 25.68 40.8C25.44 41.84 24.92 42.56 24.12 42.96C23.4 43.36 22.64 43.56 21.84 43.56H9.12C8.32 43.56 7.68 43.32 7.2 42.84C6.72 42.28 6.48 41.68 6.48 41.04C6.56 37.36 7.32 33.88 8.76 30.6C10.28 27.32 12.4 24.4 15.12 21.84C17.84 19.28 21.12 17.28 24.96 15.84C28.8 14.32 33.16 13.56 38.04 13.56C44.76 13.56 50.4 14.68 54.96 16.92C59.52 19.08 62.96 22.08 65.28 25.92C67.6 29.76 68.76 34.2 68.76 39.24C68.76 43.08 67.96 46.64 66.36 49.92C64.84 53.2 62.6 56.36 59.64 59.4C56.68 62.36 53.16 65.44 49.08 68.64L34.92 82.8H67.56C68.44 82.8 69.16 83.08 69.72 83.64C70.28 84.2 70.56 84.92 70.56 85.8V96C70.56 96.88 70.28 97.6 69.72 98.16C69.16 98.72 68.44 99 67.56 99H8.16ZM113.615 100.32C106.415 100.32 100.375 99.16 95.4947 96.84C90.6147 94.52 86.8947 91.48 84.3347 87.72C81.8547 83.96 80.5347 79.96 80.3747 75.72C80.3747 75 80.6147 74.4 81.0947 73.92C81.5747 73.44 82.1747 73.2 82.8947 73.2H96.4547C97.4147 73.2 98.1747 73.44 98.7347 73.92C99.3747 74.32 99.8547 74.88 100.175 75.6C100.975 77.76 102.015 79.52 103.295 80.88C104.655 82.24 106.215 83.24 107.975 83.88C109.735 84.52 111.615 84.84 113.615 84.84C116.175 84.84 118.535 84.32 120.695 83.28C122.855 82.16 124.575 80.56 125.855 78.48C127.135 76.4 127.775 73.84 127.775 70.8C127.775 68.16 127.175 65.84 125.975 63.84C124.775 61.84 123.095 60.28 120.935 59.16C118.775 58.04 116.335 57.48 113.615 57.48C111.535 57.48 109.815 57.72 108.455 58.2C107.175 58.68 106.095 59.28 105.215 60C104.335 60.64 103.535 61.24 102.815 61.8C102.095 62.28 101.295 62.52 100.415 62.52H87.0947C86.3747 62.52 85.7347 62.28 85.1747 61.8C84.6947 61.24 84.4547 60.6 84.4547 59.88L88.6547 18.48C88.8147 17.36 89.2147 16.52 89.8547 15.96C90.5747 15.32 91.4147 15 92.3747 15H138.935C139.815 15 140.535 15.28 141.095 15.84C141.655 16.4 141.935 17.12 141.935 18V27.6C141.935 28.4 141.655 29.08 141.095 29.64C140.535 30.2 139.815 30.48 138.935 30.48H104.255L102.455 48.12C104.055 47.08 106.015 46.16 108.335 45.36C110.735 44.48 114.055 44.04 118.295 44.04C122.135 44.04 125.775 44.68 129.215 45.96C132.735 47.16 135.855 48.96 138.575 51.36C141.295 53.76 143.415 56.64 144.935 60C146.535 63.28 147.335 67.04 147.335 71.28C147.335 77.04 145.975 82.12 143.255 86.52C140.535 90.84 136.655 94.24 131.615 96.72C126.575 99.12 120.575 100.32 113.615 100.32ZM191.955 100.2C186.195 100.2 181.235 99.4 177.075 97.8C172.995 96.12 169.595 93.84 166.875 90.96C164.235 88 162.235 84.6 160.875 80.76C159.595 76.84 158.835 72.68 158.595 68.28C158.515 66.12 158.435 63.72 158.355 61.08C158.355 58.36 158.355 55.64 158.355 52.92C158.435 50.2 158.515 47.72 158.595 45.48C158.755 41.08 159.515 36.96 160.875 33.12C162.315 29.28 164.395 25.92 167.115 23.04C169.835 20.16 173.235 17.92 177.315 16.32C181.475 14.64 186.355 13.8 191.955 13.8C197.555 13.8 202.395 14.64 206.475 16.32C210.555 17.92 213.955 20.16 216.675 23.04C219.395 25.92 221.435 29.28 222.795 33.12C224.235 36.96 225.075 41.08 225.315 45.48C225.395 47.72 225.435 50.2 225.435 52.92C225.515 55.64 225.515 58.36 225.435 61.08C225.435 63.72 225.395 66.12 225.315 68.28C225.075 72.68 224.275 76.84 222.915 80.76C221.555 84.6 219.515 88 216.795 90.96C214.155 93.84 210.755 96.12 206.595 97.8C202.515 99.4 197.635 100.2 191.955 100.2ZM191.955 84.6C196.595 84.6 199.995 83.08 202.155 80.04C204.315 77 205.475 72.88 205.635 67.68C205.715 65.36 205.755 62.96 205.755 60.48C205.835 58 205.835 55.52 205.755 53.04C205.755 50.56 205.715 48.24 205.635 46.08C205.475 41.12 204.315 37.08 202.155 33.96C199.995 30.84 196.595 29.24 191.955 29.16C187.235 29.24 183.795 30.84 181.635 33.96C179.555 37.08 178.435 41.12 178.275 46.08C178.195 48.24 178.115 50.56 178.035 53.04C178.035 55.52 178.035 58 178.035 60.48C178.115 62.96 178.195 65.36 178.275 67.68C178.435 72.88 179.595 77 181.755 80.04C183.915 83.08 187.315 84.6 191.955 84.6ZM272.111 100.2C266.351 100.2 261.391 99.4 257.231 97.8C253.151 96.12 249.751 93.84 247.031 90.96C244.391 88 242.391 84.6 241.031 80.76C239.751 76.84 238.991 72.68 238.751 68.28C238.671 66.12 238.591 63.72 238.511 61.08C238.511 58.36 238.511 55.64 238.511 52.92C238.591 50.2 238.671 47.72 238.751 45.48C238.911 41.08 239.671 36.96 241.031 33.12C242.471 29.28 244.551 25.92 247.271 23.04C249.991 20.16 253.391 17.92 257.471 16.32C261.631 14.64 266.511 13.8 272.111 13.8C277.711 13.8 282.551 14.64 286.631 16.32C290.711 17.92 294.111 20.16 296.831 23.04C299.551 25.92 301.591 29.28 302.951 33.12C304.391 36.96 305.231 41.08 305.471 45.48C305.551 47.72 305.591 50.2 305.591 52.92C305.671 55.64 305.671 58.36 305.591 61.08C305.591 63.72 305.551 66.12 305.471 68.28C305.231 72.68 304.431 76.84 303.071 80.76C301.711 84.6 299.671 88 296.951 90.96C294.311 93.84 290.911 96.12 286.751 97.8C282.671 99.4 277.791 100.2 272.111 100.2ZM272.111 84.6C276.751 84.6 280.151 83.08 282.311 80.04C284.471 77 285.631 72.88 285.791 67.68C285.871 65.36 285.911 62.96 285.911 60.48C285.991 58 285.991 55.52 285.911 53.04C285.911 50.56 285.871 48.24 285.791 46.08C285.631 41.12 284.471 37.08 282.311 33.96C280.151 30.84 276.751 29.24 272.111 29.16C267.391 29.24 263.951 30.84 261.791 33.96C259.711 37.08 258.591 41.12 258.431 46.08C258.351 48.24 258.271 50.56 258.191 53.04C258.191 55.52 258.191 58 258.191 60.48C258.271 62.96 258.351 65.36 258.431 67.68C258.591 72.88 259.751 77 261.911 80.04C264.071 83.08 267.471 84.6 272.111 84.6ZM344.708 95.04C343.828 95.04 343.108 94.76 342.548 94.2C341.988 93.64 341.708 92.92 341.708 92.04V69.36H319.508C318.628 69.36 317.908 69.08 317.348 68.52C316.788 67.96 316.508 67.28 316.508 66.48V58.92C316.508 58.04 316.788 57.32 317.348 56.76C317.908 56.2 318.628 55.92 319.508 55.92H341.708V33.96C341.708 33.08 341.988 32.36 342.548 31.8C343.108 31.24 343.828 30.96 344.708 30.96H352.988C353.868 30.96 354.588 31.24 355.148 31.8C355.708 32.36 355.988 33.08 355.988 33.96V55.92H378.188C378.988 55.92 379.668 56.2 380.228 56.76C380.788 57.32 381.068 58.04 381.068 58.92V66.48C381.068 67.28 380.788 67.96 380.228 68.52C379.668 69.08 378.988 69.36 378.188 69.36H355.988V92.04C355.988 92.92 355.708 93.64 355.148 94.2C354.588 94.76 353.868 95.04 352.988 95.04H344.708Z" fill="#6D2E46"/>
</svg>
