<svg width="420" height="115" viewBox="0 0 420 115" fill="none" xmlns="http://www.w3.org/2000/svg">
<path id="35+" d="M134.957 100.2C129.037 100.2 123.957 99.48 119.717 98.04C115.477 96.6 111.997 94.76 109.277 92.52C106.557 90.28 104.517 87.84 103.157 85.2C101.797 82.48 101.077 79.88 100.997 77.4C100.997 76.68 101.237 76.08 101.717 75.6C102.197 75.12 102.797 74.88 103.517 74.88H116.717C117.597 74.88 118.317 75.08 118.877 75.48C119.437 75.8 119.957 76.4 120.437 77.28C121.077 79.12 122.117 80.6 123.557 81.72C124.997 82.84 126.677 83.64 128.597 84.12C130.597 84.52 132.717 84.72 134.957 84.72C139.437 84.72 142.957 83.68 145.517 81.6C148.077 79.52 149.357 76.6 149.357 72.84C149.357 69 148.157 66.24 145.757 64.56C143.357 62.88 139.957 62.04 135.557 62.04H122.717C121.917 62.04 121.237 61.76 120.677 61.2C120.117 60.64 119.837 59.96 119.837 59.16V53.28C119.837 52.32 119.997 51.52 120.317 50.88C120.717 50.24 121.117 49.76 121.517 49.44L142.157 30.48H108.317C107.437 30.48 106.717 30.2 106.157 29.64C105.597 29.08 105.317 28.4 105.317 27.6V18C105.317 17.12 105.597 16.4 106.157 15.84C106.717 15.28 107.437 15 108.317 15H161.597C162.477 15 163.197 15.28 163.757 15.84C164.317 16.4 164.597 17.12 164.597 18V26.64C164.597 27.52 164.437 28.28 164.117 28.92C163.797 29.48 163.397 29.92 162.917 30.24L143.357 49.56L144.557 49.68C149.277 50.16 153.477 51.32 157.157 53.16C160.837 55 163.717 57.64 165.797 61.08C167.957 64.44 169.037 68.72 169.037 73.92C169.037 79.36 167.557 84.04 164.597 87.96C161.637 91.88 157.597 94.92 152.477 97.08C147.357 99.16 141.517 100.2 134.957 100.2ZM211.583 100.32C204.383 100.32 198.343 99.16 193.463 96.84C188.583 94.52 184.863 91.48 182.303 87.72C179.823 83.96 178.503 79.96 178.343 75.72C178.343 75 178.583 74.4 179.063 73.92C179.543 73.44 180.143 73.2 180.863 73.2H194.423C195.383 73.2 196.143 73.44 196.703 73.92C197.343 74.32 197.823 74.88 198.143 75.6C198.943 77.76 199.983 79.52 201.263 80.88C202.623 82.24 204.183 83.24 205.943 83.88C207.703 84.52 209.583 84.84 211.583 84.84C214.143 84.84 216.503 84.32 218.663 83.28C220.823 82.16 222.543 80.56 223.823 78.48C225.103 76.4 225.743 73.84 225.743 70.8C225.743 68.16 225.143 65.84 223.943 63.84C222.743 61.84 221.063 60.28 218.903 59.16C216.743 58.04 214.303 57.48 211.583 57.48C209.503 57.48 207.783 57.72 206.423 58.2C205.143 58.68 204.063 59.28 203.183 60C202.303 60.64 201.503 61.24 200.783 61.8C200.063 62.28 199.263 62.52 198.383 62.52H185.063C184.343 62.52 183.703 62.28 183.143 61.8C182.663 61.24 182.423 60.6 182.423 59.88L186.623 18.48C186.783 17.36 187.183 16.52 187.823 15.96C188.543 15.32 189.383 15 190.343 15H236.903C237.783 15 238.503 15.28 239.063 15.84C239.623 16.4 239.903 17.12 239.903 18V27.6C239.903 28.4 239.623 29.08 239.063 29.64C238.503 30.2 237.783 30.48 236.903 30.48H202.223L200.423 48.12C202.023 47.08 203.983 46.16 206.303 45.36C208.703 44.48 212.023 44.04 216.263 44.04C220.103 44.04 223.743 44.68 227.183 45.96C230.703 47.16 233.823 48.96 236.543 51.36C239.263 53.76 241.383 56.64 242.903 60C244.503 63.28 245.303 67.04 245.303 71.28C245.303 77.04 243.943 82.12 241.223 86.52C238.503 90.84 234.623 94.24 229.583 96.72C224.543 99.12 218.543 100.32 211.583 100.32ZM282.364 95.04C281.484 95.04 280.764 94.76 280.204 94.2C279.644 93.64 279.364 92.92 279.364 92.04V69.36H257.164C256.284 69.36 255.564 69.08 255.004 68.52C254.444 67.96 254.164 67.28 254.164 66.48V58.92C254.164 58.04 254.444 57.32 255.004 56.76C255.564 56.2 256.284 55.92 257.164 55.92H279.364V33.96C279.364 33.08 279.644 32.36 280.204 31.8C280.764 31.24 281.484 30.96 282.364 30.96H290.644C291.524 30.96 292.244 31.24 292.804 31.8C293.364 32.36 293.644 33.08 293.644 33.96V55.92H315.844C316.644 55.92 317.324 56.2 317.884 56.76C318.444 57.32 318.724 58.04 318.724 58.92V66.48C318.724 67.28 318.444 67.96 317.884 68.52C317.324 69.08 316.644 69.36 315.844 69.36H293.644V92.04C293.644 92.92 293.364 93.64 292.804 94.2C292.244 94.76 291.524 95.04 290.644 95.04H282.364Z" fill="#6D2E46"/>
</svg>
