<svg width="420" height="115" viewBox="0 0 420 115" fill="none" xmlns="http://www.w3.org/2000/svg">
<path id="3500+" d="M54.8006 100.2C48.8806 100.2 43.8006 99.48 39.5606 98.04C35.3206 96.6 31.8406 94.76 29.1206 92.52C26.4006 90.28 24.3606 87.84 23.0006 85.2C21.6406 82.48 20.9206 79.88 20.8406 77.4C20.8406 76.68 21.0806 76.08 21.5606 75.6C22.0406 75.12 22.6406 74.88 23.3606 74.88H36.5606C37.4406 74.88 38.1606 75.08 38.7206 75.48C39.2806 75.8 39.8006 76.4 40.2806 77.28C40.9206 79.12 41.9606 80.6 43.4006 81.72C44.8406 82.84 46.5206 83.64 48.4406 84.12C50.4406 84.52 52.5606 84.72 54.8006 84.72C59.2806 84.72 62.8006 83.68 65.3606 81.6C67.9206 79.52 69.2006 76.6 69.2006 72.84C69.2006 69 68.0006 66.24 65.6006 64.56C63.2006 62.88 59.8006 62.04 55.4006 62.04H42.5606C41.7606 62.04 41.0806 61.76 40.5206 61.2C39.9606 60.64 39.6806 59.96 39.6806 59.16V53.28C39.6806 52.32 39.8406 51.52 40.1606 50.88C40.5606 50.24 40.9606 49.76 41.3606 49.44L62.0006 30.48H28.1606C27.2806 30.48 26.5606 30.2 26.0006 29.64C25.4406 29.08 25.1606 28.4 25.1606 27.6V18C25.1606 17.12 25.4406 16.4 26.0006 15.84C26.5606 15.28 27.2806 15 28.1606 15H81.4406C82.3206 15 83.0406 15.28 83.6006 15.84C84.1606 16.4 84.4406 17.12 84.4406 18V26.64C84.4406 27.52 84.2806 28.28 83.9606 28.92C83.6406 29.48 83.2406 29.92 82.7606 30.24L63.2006 49.56L64.4006 49.68C69.1206 50.16 73.3206 51.32 77.0006 53.16C80.6806 55 83.5606 57.64 85.6406 61.08C87.8006 64.44 88.8806 68.72 88.8806 73.92C88.8806 79.36 87.4006 84.04 84.4406 87.96C81.4806 91.88 77.4406 94.92 72.3206 97.08C67.2006 99.16 61.3606 100.2 54.8006 100.2ZM131.427 100.32C124.227 100.32 118.187 99.16 113.307 96.84C108.427 94.52 104.707 91.48 102.147 87.72C99.6672 83.96 98.3472 79.96 98.1872 75.72C98.1872 75 98.4272 74.4 98.9072 73.92C99.3872 73.44 99.9872 73.2 100.707 73.2H114.267C115.227 73.2 115.987 73.44 116.547 73.92C117.187 74.32 117.667 74.88 117.987 75.6C118.787 77.76 119.827 79.52 121.107 80.88C122.467 82.24 124.027 83.24 125.787 83.88C127.547 84.52 129.427 84.84 131.427 84.84C133.987 84.84 136.347 84.32 138.507 83.28C140.667 82.16 142.387 80.56 143.667 78.48C144.947 76.4 145.587 73.84 145.587 70.8C145.587 68.16 144.987 65.84 143.787 63.84C142.587 61.84 140.907 60.28 138.747 59.16C136.587 58.04 134.147 57.48 131.427 57.48C129.347 57.48 127.627 57.72 126.267 58.2C124.987 58.68 123.907 59.28 123.027 60C122.147 60.64 121.347 61.24 120.627 61.8C119.907 62.28 119.107 62.52 118.227 62.52H104.907C104.187 62.52 103.547 62.28 102.987 61.8C102.507 61.24 102.267 60.6 102.267 59.88L106.467 18.48C106.627 17.36 107.027 16.52 107.667 15.96C108.387 15.32 109.227 15 110.187 15H156.747C157.627 15 158.347 15.28 158.907 15.84C159.467 16.4 159.747 17.12 159.747 18V27.6C159.747 28.4 159.467 29.08 158.907 29.64C158.347 30.2 157.627 30.48 156.747 30.48H122.067L120.267 48.12C121.867 47.08 123.827 46.16 126.147 45.36C128.547 44.48 131.867 44.04 136.107 44.04C139.947 44.04 143.587 44.68 147.027 45.96C150.547 47.16 153.667 48.96 156.387 51.36C159.107 53.76 161.227 56.64 162.747 60C164.347 63.28 165.147 67.04 165.147 71.28C165.147 77.04 163.787 82.12 161.067 86.52C158.347 90.84 154.467 94.24 149.427 96.72C144.387 99.12 138.387 100.32 131.427 100.32ZM209.768 100.2C204.008 100.2 199.048 99.4 194.888 97.8C190.808 96.12 187.408 93.84 184.688 90.96C182.048 88 180.048 84.6 178.688 80.76C177.408 76.84 176.648 72.68 176.408 68.28C176.328 66.12 176.248 63.72 176.168 61.08C176.168 58.36 176.168 55.64 176.168 52.92C176.248 50.2 176.328 47.72 176.408 45.48C176.568 41.08 177.328 36.96 178.688 33.12C180.128 29.28 182.208 25.92 184.928 23.04C187.648 20.16 191.048 17.92 195.128 16.32C199.288 14.64 204.168 13.8 209.768 13.8C215.368 13.8 220.208 14.64 224.288 16.32C228.368 17.92 231.768 20.16 234.488 23.04C237.208 25.92 239.248 29.28 240.608 33.12C242.048 36.96 242.888 41.08 243.128 45.48C243.208 47.72 243.248 50.2 243.248 52.92C243.328 55.64 243.328 58.36 243.248 61.08C243.248 63.72 243.208 66.12 243.128 68.28C242.888 72.68 242.088 76.84 240.728 80.76C239.368 84.6 237.328 88 234.608 90.96C231.968 93.84 228.568 96.12 224.408 97.8C220.328 99.4 215.448 100.2 209.768 100.2ZM209.768 84.6C214.408 84.6 217.808 83.08 219.968 80.04C222.128 77 223.288 72.88 223.448 67.68C223.528 65.36 223.568 62.96 223.568 60.48C223.648 58 223.648 55.52 223.568 53.04C223.568 50.56 223.528 48.24 223.448 46.08C223.288 41.12 222.128 37.08 219.968 33.96C217.808 30.84 214.408 29.24 209.768 29.16C205.048 29.24 201.608 30.84 199.448 33.96C197.368 37.08 196.248 41.12 196.088 46.08C196.008 48.24 195.928 50.56 195.848 53.04C195.848 55.52 195.848 58 195.848 60.48C195.928 62.96 196.008 65.36 196.088 67.68C196.248 72.88 197.408 77 199.568 80.04C201.728 83.08 205.128 84.6 209.768 84.6ZM289.924 100.2C284.164 100.2 279.204 99.4 275.044 97.8C270.964 96.12 267.564 93.84 264.844 90.96C262.204 88 260.204 84.6 258.844 80.76C257.564 76.84 256.804 72.68 256.564 68.28C256.484 66.12 256.404 63.72 256.324 61.08C256.324 58.36 256.324 55.64 256.324 52.92C256.404 50.2 256.484 47.72 256.564 45.48C256.724 41.08 257.484 36.96 258.844 33.12C260.284 29.28 262.364 25.92 265.084 23.04C267.804 20.16 271.204 17.92 275.284 16.32C279.444 14.64 284.324 13.8 289.924 13.8C295.524 13.8 300.364 14.64 304.444 16.32C308.524 17.92 311.924 20.16 314.644 23.04C317.364 25.92 319.404 29.28 320.764 33.12C322.204 36.96 323.044 41.08 323.284 45.48C323.364 47.72 323.404 50.2 323.404 52.92C323.484 55.64 323.484 58.36 323.404 61.08C323.404 63.72 323.364 66.12 323.284 68.28C323.044 72.68 322.244 76.84 320.884 80.76C319.524 84.6 317.484 88 314.764 90.96C312.124 93.84 308.724 96.12 304.564 97.8C300.484 99.4 295.604 100.2 289.924 100.2ZM289.924 84.6C294.564 84.6 297.964 83.08 300.124 80.04C302.284 77 303.444 72.88 303.604 67.68C303.684 65.36 303.724 62.96 303.724 60.48C303.804 58 303.804 55.52 303.724 53.04C303.724 50.56 303.684 48.24 303.604 46.08C303.444 41.12 302.284 37.08 300.124 33.96C297.964 30.84 294.564 29.24 289.924 29.16C285.204 29.24 281.764 30.84 279.604 33.96C277.524 37.08 276.404 41.12 276.244 46.08C276.164 48.24 276.084 50.56 276.004 53.04C276.004 55.52 276.004 58 276.004 60.48C276.084 62.96 276.164 65.36 276.244 67.68C276.404 72.88 277.564 77 279.724 80.04C281.884 83.08 285.284 84.6 289.924 84.6ZM362.52 95.04C361.64 95.04 360.92 94.76 360.36 94.2C359.8 93.64 359.52 92.92 359.52 92.04V69.36H337.32C336.44 69.36 335.72 69.08 335.16 68.52C334.6 67.96 334.32 67.28 334.32 66.48V58.92C334.32 58.04 334.6 57.32 335.16 56.76C335.72 56.2 336.44 55.92 337.32 55.92H359.52V33.96C359.52 33.08 359.8 32.36 360.36 31.8C360.92 31.24 361.64 30.96 362.52 30.96H370.8C371.68 30.96 372.4 31.24 372.96 31.8C373.52 32.36 373.8 33.08 373.8 33.96V55.92H396C396.8 55.92 397.48 56.2 398.04 56.76C398.6 57.32 398.88 58.04 398.88 58.92V66.48C398.88 67.28 398.6 67.96 398.04 68.52C397.48 69.08 396.8 69.36 396 69.36H373.8V92.04C373.8 92.92 373.52 93.64 372.96 94.2C372.4 94.76 371.68 95.04 370.8 95.04H362.52Z" fill="#6D2E46"/>
</svg>
