<svg width="420" height="115" viewBox="0 0 420 115" fill="none" xmlns="http://www.w3.org/2000/svg">
<path id="40+" d="M140.263 99C139.463 99 138.783 98.72 138.223 98.16C137.663 97.6 137.383 96.88 137.383 96V81.6H99.5827C98.7827 81.6 98.1027 81.32 97.5427 80.76C96.9827 80.2 96.7027 79.48 96.7027 78.6V68.88C96.7027 68.32 96.8227 67.72 97.0627 67.08C97.3027 66.44 97.6227 65.84 98.0227 65.28L133.183 17.04C134.223 15.68 135.703 15 137.623 15H152.863C153.663 15 154.343 15.28 154.903 15.84C155.463 16.4 155.743 17.12 155.743 18V65.64H166.423C167.383 65.64 168.103 65.92 168.583 66.48C169.143 67.04 169.423 67.72 169.423 68.52V78.6C169.423 79.48 169.143 80.2 168.583 80.76C168.023 81.32 167.343 81.6 166.543 81.6H155.743V96C155.743 96.88 155.463 97.6 154.903 98.16C154.343 98.72 153.663 99 152.863 99H140.263ZM115.303 66.24H137.743V34.68L115.303 66.24ZM213.342 100.2C207.582 100.2 202.622 99.4 198.462 97.8C194.382 96.12 190.982 93.84 188.262 90.96C185.622 88 183.622 84.6 182.262 80.76C180.982 76.84 180.222 72.68 179.982 68.28C179.902 66.12 179.822 63.72 179.742 61.08C179.742 58.36 179.742 55.64 179.742 52.92C179.822 50.2 179.902 47.72 179.982 45.48C180.142 41.08 180.902 36.96 182.262 33.12C183.702 29.28 185.782 25.92 188.502 23.04C191.222 20.16 194.622 17.92 198.702 16.32C202.862 14.64 207.742 13.8 213.342 13.8C218.942 13.8 223.782 14.64 227.862 16.32C231.942 17.92 235.342 20.16 238.062 23.04C240.782 25.92 242.822 29.28 244.182 33.12C245.622 36.96 246.462 41.08 246.702 45.48C246.782 47.72 246.822 50.2 246.822 52.92C246.902 55.64 246.902 58.36 246.822 61.08C246.822 63.72 246.782 66.12 246.702 68.28C246.462 72.68 245.662 76.84 244.302 80.76C242.942 84.6 240.902 88 238.182 90.96C235.542 93.84 232.142 96.12 227.982 97.8C223.902 99.4 219.022 100.2 213.342 100.2ZM213.342 84.6C217.982 84.6 221.382 83.08 223.542 80.04C225.702 77 226.862 72.88 227.022 67.68C227.102 65.36 227.142 62.96 227.142 60.48C227.222 58 227.222 55.52 227.142 53.04C227.142 50.56 227.102 48.24 227.022 46.08C226.862 41.12 225.702 37.08 223.542 33.96C221.382 30.84 217.982 29.24 213.342 29.16C208.622 29.24 205.182 30.84 203.022 33.96C200.942 37.08 199.822 41.12 199.662 46.08C199.582 48.24 199.502 50.56 199.422 53.04C199.422 55.52 199.422 58 199.422 60.48C199.502 62.96 199.582 65.36 199.662 67.68C199.822 72.88 200.982 77 203.142 80.04C205.302 83.08 208.702 84.6 213.342 84.6ZM285.938 95.04C285.058 95.04 284.338 94.76 283.778 94.2C283.218 93.64 282.938 92.92 282.938 92.04V69.36H260.738C259.858 69.36 259.138 69.08 258.578 68.52C258.018 67.96 257.738 67.28 257.738 66.48V58.92C257.738 58.04 258.018 57.32 258.578 56.76C259.138 56.2 259.858 55.92 260.738 55.92H282.938V33.96C282.938 33.08 283.218 32.36 283.778 31.8C284.338 31.24 285.058 30.96 285.938 30.96H294.218C295.098 30.96 295.818 31.24 296.378 31.8C296.938 32.36 297.218 33.08 297.218 33.96V55.92H319.418C320.218 55.92 320.898 56.2 321.458 56.76C322.018 57.32 322.298 58.04 322.298 58.92V66.48C322.298 67.28 322.018 67.96 321.458 68.52C320.898 69.08 320.218 69.36 319.418 69.36H297.218V92.04C297.218 92.92 296.938 93.64 296.378 94.2C295.818 94.76 295.098 95.04 294.218 95.04H285.938Z" fill="#6D2E46"/>
</svg>
