<svg width="1900" height="230" viewBox="0 0 1900 230" fill="none" xmlns="http://www.w3.org/2000/svg">
<g id="Cal&#195;&#167;a a meia. Vive o sentido.">
<path d="M1153.1 100.2C1145.58 100.2 1139.18 98.96 1133.9 96.48C1128.7 93.92 1124.66 90.24 1121.78 85.44C1118.9 80.56 1117.3 74.64 1116.98 67.68C1116.9 64.4 1116.86 60.88 1116.86 57.12C1116.86 53.36 1116.9 49.76 1116.98 46.32C1117.3 39.44 1118.9 33.6 1121.78 28.8C1124.74 23.92 1128.86 20.2 1134.14 17.64C1139.42 15.08 1145.74 13.8 1153.1 13.8C1158.46 13.8 1163.34 14.48 1167.74 15.84C1172.14 17.2 1175.94 19.16 1179.14 21.72C1182.34 24.28 1184.82 27.28 1186.58 30.72C1188.34 34.16 1189.3 38 1189.46 42.24C1189.46 42.96 1189.18 43.56 1188.62 44.04C1188.14 44.52 1187.54 44.76 1186.82 44.76H1173.14C1172.18 44.76 1171.42 44.52 1170.86 44.04C1170.3 43.56 1169.86 42.76 1169.54 41.64C1168.34 36.92 1166.34 33.68 1163.54 31.92C1160.74 30.16 1157.26 29.28 1153.1 29.28C1148.14 29.28 1144.22 30.64 1141.34 33.36C1138.46 36.08 1136.9 40.6 1136.66 46.92C1136.42 53.48 1136.42 60.2 1136.66 67.08C1136.9 73.4 1138.46 77.92 1141.34 80.64C1144.22 83.36 1148.14 84.72 1153.1 84.72C1157.26 84.72 1160.74 83.84 1163.54 82.08C1166.42 80.24 1168.42 77 1169.54 72.36C1169.86 71.16 1170.3 70.36 1170.86 69.96C1171.42 69.48 1172.18 69.24 1173.14 69.24H1186.82C1187.54 69.24 1188.14 69.48 1188.62 69.96C1189.18 70.44 1189.46 71.04 1189.46 71.76C1189.3 76 1188.34 79.84 1186.58 83.28C1184.82 86.72 1182.34 89.72 1179.14 92.28C1175.94 94.84 1172.14 96.8 1167.74 98.16C1163.34 99.52 1158.46 100.2 1153.1 100.2ZM1219.98 100.2C1215.74 100.2 1211.94 99.4 1208.58 97.8C1205.22 96.12 1202.54 93.88 1200.54 91.08C1198.54 88.28 1197.54 85.16 1197.54 81.72C1197.54 76.04 1199.82 71.56 1204.38 68.28C1209.02 65 1215.1 62.76 1222.62 61.56L1238.34 59.28V57.12C1238.34 54 1237.62 51.6 1236.18 49.92C1234.74 48.24 1232.22 47.4 1228.62 47.4C1225.98 47.4 1223.86 47.92 1222.26 48.96C1220.66 50 1219.42 51.36 1218.54 53.04C1217.9 54.08 1216.98 54.6 1215.78 54.6H1204.38C1203.5 54.6 1202.82 54.36 1202.34 53.88C1201.86 53.32 1201.66 52.68 1201.74 51.96C1201.74 50.6 1202.26 49 1203.3 47.16C1204.34 45.32 1205.94 43.52 1208.1 41.76C1210.26 39.92 1213.02 38.4 1216.38 37.2C1219.74 36 1223.86 35.4 1228.74 35.4C1233.78 35.4 1238.1 36 1241.7 37.2C1245.3 38.4 1248.18 40.08 1250.34 42.24C1252.5 44.4 1254.1 46.92 1255.14 49.8C1256.18 52.6 1256.7 55.64 1256.7 58.92V96C1256.7 96.88 1256.42 97.6 1255.86 98.16C1255.3 98.72 1254.58 99 1253.7 99H1241.94C1241.14 99 1240.46 98.72 1239.9 98.16C1239.34 97.6 1239.06 96.88 1239.06 96V91.56C1238.02 93.08 1236.62 94.52 1234.86 95.88C1233.1 97.16 1230.98 98.2 1228.5 99C1226.1 99.8 1223.26 100.2 1219.98 100.2ZM1224.78 87.72C1227.42 87.72 1229.78 87.16 1231.86 86.04C1233.94 84.92 1235.58 83.2 1236.78 80.88C1237.98 78.56 1238.58 75.64 1238.58 72.12V70.08L1227.42 71.88C1223.1 72.6 1219.94 73.68 1217.94 75.12C1215.94 76.56 1214.94 78.32 1214.94 80.4C1214.94 81.92 1215.38 83.24 1216.26 84.36C1217.22 85.48 1218.46 86.32 1219.98 86.88C1221.5 87.44 1223.1 87.72 1224.78 87.72ZM1274.23 99C1273.35 99 1272.63 98.72 1272.07 98.16C1271.51 97.6 1271.23 96.88 1271.23 96V16.8C1271.23 15.92 1271.51 15.2 1272.07 14.64C1272.63 14.08 1273.35 13.8 1274.23 13.8H1286.23C1287.03 13.8 1287.71 14.08 1288.27 14.64C1288.83 15.2 1289.11 15.92 1289.11 16.8V96C1289.11 96.88 1288.83 97.6 1288.27 98.16C1287.71 98.72 1287.03 99 1286.23 99H1274.23ZM1331.88 125.4C1329.72 125.4 1327.76 125.04 1326 124.32C1324.32 123.6 1323.08 122.76 1322.28 121.8C1321.56 120.84 1321.6 120 1322.4 119.28L1324.56 117.36C1325.28 116.72 1325.88 116.52 1326.36 116.76C1326.92 117.08 1327.6 117.48 1328.4 117.96C1329.2 118.44 1330.36 118.68 1331.88 118.68C1333.16 118.68 1334.2 118.32 1335 117.6C1335.8 116.88 1336.2 115.96 1336.2 114.84C1336.2 113.8 1335.8 112.92 1335 112.2C1334.2 111.48 1333.16 111.12 1331.88 111.12C1330.92 111.12 1330.04 111.24 1329.24 111.48C1328.44 111.8 1327.68 112 1326.96 112.08C1326.32 112.16 1325.72 111.92 1325.16 111.36L1322.88 109.08C1322.4 108.6 1322.2 108.04 1322.28 107.4C1322.36 106.84 1322.6 106.12 1323 105.24L1325.52 99.72C1318.56 98.6 1312.96 95.72 1308.72 91.08C1304.48 86.44 1302.2 80.32 1301.88 72.72C1301.8 71.44 1301.76 69.84 1301.76 67.92C1301.76 65.92 1301.8 64.28 1301.88 63C1302.12 57.16 1303.48 52.2 1305.96 48.12C1308.52 43.96 1312.04 40.8 1316.52 38.64C1321 36.48 1326.16 35.4 1332 35.4C1337.36 35.4 1341.92 36.16 1345.68 37.68C1349.44 39.12 1352.52 40.96 1354.92 43.2C1357.32 45.44 1359.08 47.8 1360.2 50.28C1361.4 52.68 1362.04 54.8 1362.12 56.64C1362.2 57.44 1361.92 58.16 1361.28 58.8C1360.72 59.36 1360.04 59.64 1359.24 59.64H1346.4C1345.6 59.64 1344.96 59.44 1344.48 59.04C1344.08 58.56 1343.68 57.92 1343.28 57.12C1342.16 54.32 1340.72 52.32 1338.96 51.12C1337.2 49.92 1335 49.32 1332.36 49.32C1328.76 49.32 1325.92 50.48 1323.84 52.8C1321.76 55.12 1320.64 58.72 1320.48 63.6C1320.4 66.72 1320.4 69.56 1320.48 72.12C1320.72 77.08 1321.84 80.68 1323.84 82.92C1325.92 85.16 1328.76 86.28 1332.36 86.28C1335.16 86.28 1337.4 85.68 1339.08 84.48C1340.76 83.28 1342.16 81.28 1343.28 78.48C1343.6 77.68 1344 77.08 1344.48 76.68C1344.96 76.2 1345.6 75.96 1346.4 75.96H1359.24C1360.04 75.96 1360.72 76.28 1361.28 76.92C1361.92 77.48 1362.2 78.16 1362.12 78.96C1362.04 80.64 1361.44 82.68 1360.32 85.08C1359.2 87.48 1357.48 89.84 1355.16 92.16C1352.92 94.4 1349.92 96.28 1346.16 97.8C1342.4 99.32 1337.84 100.12 1332.48 100.2L1330.08 105.12C1330.56 104.88 1331.2 104.68 1332 104.52C1332.88 104.44 1333.56 104.4 1334.04 104.4C1336.92 104.4 1339.2 105.36 1340.88 107.28C1342.64 109.2 1343.52 111.68 1343.52 114.72C1343.52 117.76 1342.48 120.28 1340.4 122.28C1338.4 124.36 1335.56 125.4 1331.88 125.4ZM1392.25 100.2C1388.01 100.2 1384.21 99.4 1380.85 97.8C1377.49 96.12 1374.81 93.88 1372.81 91.08C1370.81 88.28 1369.81 85.16 1369.81 81.72C1369.81 76.04 1372.09 71.56 1376.65 68.28C1381.29 65 1387.37 62.76 1394.89 61.56L1410.61 59.28V57.12C1410.61 54 1409.89 51.6 1408.45 49.92C1407.01 48.24 1404.49 47.4 1400.89 47.4C1398.25 47.4 1396.13 47.92 1394.53 48.96C1392.93 50 1391.69 51.36 1390.81 53.04C1390.17 54.08 1389.25 54.6 1388.05 54.6H1376.65C1375.77 54.6 1375.09 54.36 1374.61 53.88C1374.13 53.32 1373.93 52.68 1374.01 51.96C1374.01 50.6 1374.53 49 1375.57 47.16C1376.61 45.32 1378.21 43.52 1380.37 41.76C1382.53 39.92 1385.29 38.4 1388.65 37.2C1392.01 36 1396.13 35.4 1401.01 35.4C1406.05 35.4 1410.37 36 1413.97 37.2C1417.57 38.4 1420.45 40.08 1422.61 42.24C1424.77 44.4 1426.37 46.92 1427.41 49.8C1428.45 52.6 1428.97 55.64 1428.97 58.92V96C1428.97 96.88 1428.69 97.6 1428.13 98.16C1427.57 98.72 1426.85 99 1425.97 99H1414.21C1413.41 99 1412.73 98.72 1412.17 98.16C1411.61 97.6 1411.33 96.88 1411.33 96V91.56C1410.29 93.08 1408.89 94.52 1407.13 95.88C1405.37 97.16 1403.25 98.2 1400.77 99C1398.37 99.8 1395.53 100.2 1392.25 100.2ZM1397.05 87.72C1399.69 87.72 1402.05 87.16 1404.13 86.04C1406.21 84.92 1407.85 83.2 1409.05 80.88C1410.25 78.56 1410.85 75.64 1410.85 72.12V70.08L1399.69 71.88C1395.37 72.6 1392.21 73.68 1390.21 75.12C1388.21 76.56 1387.21 78.32 1387.21 80.4C1387.21 81.92 1387.65 83.24 1388.53 84.36C1389.49 85.48 1390.73 86.32 1392.25 86.88C1393.77 87.44 1395.37 87.72 1397.05 87.72ZM1488.34 100.2C1484.1 100.2 1480.3 99.4 1476.94 97.8C1473.58 96.12 1470.9 93.88 1468.9 91.08C1466.9 88.28 1465.9 85.16 1465.9 81.72C1465.9 76.04 1468.18 71.56 1472.74 68.28C1477.38 65 1483.46 62.76 1490.98 61.56L1506.7 59.28V57.12C1506.7 54 1505.98 51.6 1504.54 49.92C1503.1 48.24 1500.58 47.4 1496.98 47.4C1494.34 47.4 1492.22 47.92 1490.62 48.96C1489.02 50 1487.78 51.36 1486.9 53.04C1486.26 54.08 1485.34 54.6 1484.14 54.6H1472.74C1471.86 54.6 1471.18 54.36 1470.7 53.88C1470.22 53.32 1470.02 52.68 1470.1 51.96C1470.1 50.6 1470.62 49 1471.66 47.16C1472.7 45.32 1474.3 43.52 1476.46 41.76C1478.62 39.92 1481.38 38.4 1484.74 37.2C1488.1 36 1492.22 35.4 1497.1 35.4C1502.14 35.4 1506.46 36 1510.06 37.2C1513.66 38.4 1516.54 40.08 1518.7 42.24C1520.86 44.4 1522.46 46.92 1523.5 49.8C1524.54 52.6 1525.06 55.64 1525.06 58.92V96C1525.06 96.88 1524.78 97.6 1524.22 98.16C1523.66 98.72 1522.94 99 1522.06 99H1510.3C1509.5 99 1508.82 98.72 1508.26 98.16C1507.7 97.6 1507.42 96.88 1507.42 96V91.56C1506.38 93.08 1504.98 94.52 1503.22 95.88C1501.46 97.16 1499.34 98.2 1496.86 99C1494.46 99.8 1491.62 100.2 1488.34 100.2ZM1493.14 87.72C1495.78 87.72 1498.14 87.16 1500.22 86.04C1502.3 84.92 1503.94 83.2 1505.14 80.88C1506.34 78.56 1506.94 75.64 1506.94 72.12V70.08L1495.78 71.88C1491.46 72.6 1488.3 73.68 1486.3 75.12C1484.3 76.56 1483.3 78.32 1483.3 80.4C1483.3 81.92 1483.74 83.24 1484.62 84.36C1485.58 85.48 1486.82 86.32 1488.34 86.88C1489.86 87.44 1491.46 87.72 1493.14 87.72ZM1568.96 99C1568.16 99 1567.48 98.72 1566.92 98.16C1566.36 97.6 1566.08 96.88 1566.08 96V39.6C1566.08 38.72 1566.36 38 1566.92 37.44C1567.48 36.88 1568.16 36.6 1568.96 36.6H1580.12C1580.92 36.6 1581.6 36.88 1582.16 37.44C1582.8 38 1583.12 38.72 1583.12 39.6V43.68C1584.72 41.44 1586.92 39.52 1589.72 37.92C1592.6 36.32 1596 35.48 1599.92 35.4C1609.2 35.24 1615.56 38.76 1619 45.96C1620.84 42.84 1623.48 40.32 1626.92 38.4C1630.44 36.4 1634.28 35.4 1638.44 35.4C1642.6 35.4 1646.36 36.36 1649.72 38.28C1653.08 40.12 1655.72 43 1657.64 46.92C1659.64 50.76 1660.64 55.72 1660.64 61.8V96C1660.64 96.88 1660.36 97.6 1659.8 98.16C1659.24 98.72 1658.56 99 1657.76 99H1645.88C1645.08 99 1644.4 98.72 1643.84 98.16C1643.28 97.6 1643 96.88 1643 96V62.76C1643 59.48 1642.52 56.92 1641.56 55.08C1640.6 53.16 1639.32 51.8 1637.72 51C1636.2 50.2 1634.48 49.8 1632.56 49.8C1630.88 49.8 1629.24 50.2 1627.64 51C1626.12 51.8 1624.84 53.16 1623.8 55.08C1622.84 56.92 1622.36 59.48 1622.36 62.76V96C1622.36 96.88 1622.08 97.6 1621.52 98.16C1620.96 98.72 1620.24 99 1619.36 99H1607.6C1606.72 99 1606 98.72 1605.44 98.16C1604.88 97.6 1604.6 96.88 1604.6 96V62.76C1604.6 59.48 1604.12 56.92 1603.16 55.08C1602.2 53.16 1600.92 51.8 1599.32 51C1597.8 50.2 1596.12 49.8 1594.28 49.8C1592.6 49.8 1590.96 50.24 1589.36 51.12C1587.76 51.92 1586.44 53.24 1585.4 55.08C1584.44 56.92 1583.96 59.44 1583.96 62.64V96C1583.96 96.88 1583.68 97.6 1583.12 98.16C1582.56 98.72 1581.88 99 1581.08 99H1568.96ZM1703.02 100.2C1693.82 100.2 1686.5 97.64 1681.06 92.52C1675.7 87.4 1672.86 79.96 1672.54 70.2C1672.54 69.56 1672.54 68.72 1672.54 67.68C1672.54 66.56 1672.54 65.68 1672.54 65.04C1672.86 58.88 1674.26 53.6 1676.74 49.2C1679.22 44.72 1682.7 41.32 1687.18 39C1691.66 36.6 1696.9 35.4 1702.9 35.4C1709.62 35.4 1715.22 36.8 1719.7 39.6C1724.26 42.32 1727.66 46.08 1729.9 50.88C1732.22 55.6 1733.38 61.04 1733.38 67.2V69.96C1733.38 70.76 1733.06 71.44 1732.42 72C1731.86 72.56 1731.18 72.84 1730.38 72.84H1691.14C1691.14 72.92 1691.14 73.08 1691.14 73.32C1691.14 73.48 1691.14 73.64 1691.14 73.8C1691.22 76.36 1691.7 78.72 1692.58 80.88C1693.54 82.96 1694.86 84.64 1696.54 85.92C1698.3 87.2 1700.38 87.84 1702.78 87.84C1704.78 87.84 1706.42 87.56 1707.7 87C1708.98 86.44 1710.02 85.76 1710.82 84.96C1711.7 84.16 1712.34 83.48 1712.74 82.92C1713.46 82.12 1714.02 81.64 1714.42 81.48C1714.9 81.24 1715.62 81.12 1716.58 81.12H1729.06C1729.86 81.12 1730.5 81.36 1730.98 81.84C1731.54 82.24 1731.78 82.84 1731.7 83.64C1731.62 84.92 1730.94 86.52 1729.66 88.44C1728.46 90.28 1726.66 92.12 1724.26 93.96C1721.86 95.72 1718.86 97.2 1715.26 98.4C1711.74 99.6 1707.66 100.2 1703.02 100.2ZM1691.14 61.92H1714.66V61.68C1714.66 58.8 1714.18 56.32 1713.22 54.24C1712.34 52.08 1711.02 50.4 1709.26 49.2C1707.5 48 1705.38 47.4 1702.9 47.4C1700.42 47.4 1698.3 48 1696.54 49.2C1694.78 50.4 1693.42 52.08 1692.46 54.24C1691.58 56.32 1691.14 58.8 1691.14 61.68V61.92ZM1748.25 99C1747.45 99 1746.77 98.72 1746.21 98.16C1745.65 97.6 1745.37 96.88 1745.37 96V39.6C1745.37 38.72 1745.65 38 1746.21 37.44C1746.77 36.88 1747.45 36.6 1748.25 36.6H1760.25C1761.13 36.6 1761.85 36.88 1762.41 37.44C1762.97 38 1763.25 38.72 1763.25 39.6V96C1763.25 96.88 1762.97 97.6 1762.41 98.16C1761.85 98.72 1761.13 99 1760.25 99H1748.25ZM1747.89 27C1747.09 27 1746.41 26.72 1745.85 26.16C1745.29 25.6 1745.01 24.88 1745.01 24V14.4C1745.01 13.52 1745.29 12.8 1745.85 12.24C1746.41 11.6 1747.09 11.28 1747.89 11.28H1760.49C1761.37 11.28 1762.09 11.6 1762.65 12.24C1763.29 12.8 1763.61 13.52 1763.61 14.4V24C1763.61 24.88 1763.29 25.6 1762.65 26.16C1762.09 26.72 1761.37 27 1760.49 27H1747.89ZM1796.66 100.2C1792.42 100.2 1788.62 99.4 1785.26 97.8C1781.9 96.12 1779.22 93.88 1777.22 91.08C1775.22 88.28 1774.22 85.16 1774.22 81.72C1774.22 76.04 1776.5 71.56 1781.06 68.28C1785.7 65 1791.78 62.76 1799.3 61.56L1815.02 59.28V57.12C1815.02 54 1814.3 51.6 1812.86 49.92C1811.42 48.24 1808.9 47.4 1805.3 47.4C1802.66 47.4 1800.54 47.92 1798.94 48.96C1797.34 50 1796.1 51.36 1795.22 53.04C1794.58 54.08 1793.66 54.6 1792.46 54.6H1781.06C1780.18 54.6 1779.5 54.36 1779.02 53.88C1778.54 53.32 1778.34 52.68 1778.42 51.96C1778.42 50.6 1778.94 49 1779.98 47.16C1781.02 45.32 1782.62 43.52 1784.78 41.76C1786.94 39.92 1789.7 38.4 1793.06 37.2C1796.42 36 1800.54 35.4 1805.42 35.4C1810.46 35.4 1814.78 36 1818.38 37.2C1821.98 38.4 1824.86 40.08 1827.02 42.24C1829.18 44.4 1830.78 46.92 1831.82 49.8C1832.86 52.6 1833.38 55.64 1833.38 58.92V96C1833.38 96.88 1833.1 97.6 1832.54 98.16C1831.98 98.72 1831.26 99 1830.38 99H1818.62C1817.82 99 1817.14 98.72 1816.58 98.16C1816.02 97.6 1815.74 96.88 1815.74 96V91.56C1814.7 93.08 1813.3 94.52 1811.54 95.88C1809.78 97.16 1807.66 98.2 1805.18 99C1802.78 99.8 1799.94 100.2 1796.66 100.2ZM1801.46 87.72C1804.1 87.72 1806.46 87.16 1808.54 86.04C1810.62 84.92 1812.26 83.2 1813.46 80.88C1814.66 78.56 1815.26 75.64 1815.26 72.12V70.08L1804.1 71.88C1799.78 72.6 1796.62 73.68 1794.62 75.12C1792.62 76.56 1791.62 78.32 1791.62 80.4C1791.62 81.92 1792.06 83.24 1792.94 84.36C1793.9 85.48 1795.14 86.32 1796.66 86.88C1798.18 87.44 1799.78 87.72 1801.46 87.72ZM1850.19 99C1849.31 99 1848.59 98.72 1848.03 98.16C1847.47 97.6 1847.19 96.88 1847.19 96V82.56C1847.19 81.68 1847.47 80.96 1848.03 80.4C1848.59 79.84 1849.31 79.56 1850.19 79.56H1863.63C1864.51 79.56 1865.23 79.84 1865.79 80.4C1866.35 80.96 1866.63 81.68 1866.63 82.56V96C1866.63 96.88 1866.35 97.6 1865.79 98.16C1865.23 98.72 1864.51 99 1863.63 99H1850.19ZM1080 214C1078.72 214 1077.68 213.68 1076.88 213.04C1076.16 212.32 1075.64 211.48 1075.32 210.52L1050.12 133.6C1050.04 133.2 1050 132.84 1050 132.52C1050 131.88 1050.24 131.32 1050.72 130.84C1051.2 130.28 1051.8 130 1052.52 130H1065.12C1066.32 130 1067.24 130.36 1067.88 131.08C1068.6 131.72 1069.04 132.32 1069.2 132.88L1087.92 191.56L1106.52 132.88C1106.76 132.32 1107.2 131.72 1107.84 131.08C1108.48 130.36 1109.4 130 1110.6 130H1123.2C1123.92 130 1124.52 130.28 1125 130.84C1125.48 131.32 1125.72 131.88 1125.72 132.52C1125.72 132.84 1125.68 133.2 1125.6 133.6L1100.4 210.52C1100.16 211.48 1099.64 212.32 1098.84 213.04C1098.12 213.68 1097.08 214 1095.72 214H1080ZM1138.17 214C1137.37 214 1136.69 213.72 1136.13 213.16C1135.57 212.6 1135.29 211.88 1135.29 211V154.6C1135.29 153.72 1135.57 153 1136.13 152.44C1136.69 151.88 1137.37 151.6 1138.17 151.6H1150.17C1151.05 151.6 1151.77 151.88 1152.33 152.44C1152.89 153 1153.17 153.72 1153.17 154.6V211C1153.17 211.88 1152.89 212.6 1152.33 213.16C1151.77 213.72 1151.05 214 1150.17 214H1138.17ZM1137.81 142C1137.01 142 1136.33 141.72 1135.77 141.16C1135.21 140.6 1134.93 139.88 1134.93 139V129.4C1134.93 128.52 1135.21 127.8 1135.77 127.24C1136.33 126.6 1137.01 126.28 1137.81 126.28H1150.41C1151.29 126.28 1152.01 126.6 1152.57 127.24C1153.21 127.8 1153.53 128.52 1153.53 129.4V139C1153.53 139.88 1153.21 140.6 1152.57 141.16C1152.01 141.72 1151.29 142 1150.41 142H1137.81ZM1190.3 214C1189.1 214 1188.18 213.72 1187.54 213.16C1186.98 212.52 1186.5 211.8 1186.1 211L1163.54 155.32C1163.38 155 1163.3 154.64 1163.3 154.24C1163.3 153.52 1163.54 152.92 1164.02 152.44C1164.58 151.88 1165.22 151.6 1165.94 151.6H1177.58C1178.62 151.6 1179.38 151.88 1179.86 152.44C1180.42 153 1180.78 153.52 1180.94 154L1195.7 193.6L1210.46 154C1210.7 153.52 1211.06 153 1211.54 152.44C1212.1 151.88 1212.86 151.6 1213.82 151.6H1225.46C1226.18 151.6 1226.78 151.88 1227.26 152.44C1227.82 152.92 1228.1 153.52 1228.1 154.24C1228.1 154.64 1228.06 155 1227.98 155.32L1205.3 211C1204.98 211.8 1204.5 212.52 1203.86 213.16C1203.22 213.72 1202.3 214 1201.1 214H1190.3ZM1263.8 215.2C1254.6 215.2 1247.28 212.64 1241.84 207.52C1236.48 202.4 1233.64 194.96 1233.32 185.2C1233.32 184.56 1233.32 183.72 1233.32 182.68C1233.32 181.56 1233.32 180.68 1233.32 180.04C1233.64 173.88 1235.04 168.6 1237.52 164.2C1240 159.72 1243.48 156.32 1247.96 154C1252.44 151.6 1257.68 150.4 1263.68 150.4C1270.4 150.4 1276 151.8 1280.48 154.6C1285.04 157.32 1288.44 161.08 1290.68 165.88C1293 170.6 1294.16 176.04 1294.16 182.2V184.96C1294.16 185.76 1293.84 186.44 1293.2 187C1292.64 187.56 1291.96 187.84 1291.16 187.84H1251.92C1251.92 187.92 1251.92 188.08 1251.92 188.32C1251.92 188.48 1251.92 188.64 1251.92 188.8C1252 191.36 1252.48 193.72 1253.36 195.88C1254.32 197.96 1255.64 199.64 1257.32 200.92C1259.08 202.2 1261.16 202.84 1263.56 202.84C1265.56 202.84 1267.2 202.56 1268.48 202C1269.76 201.44 1270.8 200.76 1271.6 199.96C1272.48 199.16 1273.12 198.48 1273.52 197.92C1274.24 197.12 1274.8 196.64 1275.2 196.48C1275.68 196.24 1276.4 196.12 1277.36 196.12H1289.84C1290.64 196.12 1291.28 196.36 1291.76 196.84C1292.32 197.24 1292.56 197.84 1292.48 198.64C1292.4 199.92 1291.72 201.52 1290.44 203.44C1289.24 205.28 1287.44 207.12 1285.04 208.96C1282.64 210.72 1279.64 212.2 1276.04 213.4C1272.52 214.6 1268.44 215.2 1263.8 215.2ZM1251.92 176.92H1275.44V176.68C1275.44 173.8 1274.96 171.32 1274 169.24C1273.12 167.08 1271.8 165.4 1270.04 164.2C1268.28 163 1266.16 162.4 1263.68 162.4C1261.2 162.4 1259.08 163 1257.32 164.2C1255.56 165.4 1254.2 167.08 1253.24 169.24C1252.36 171.32 1251.92 173.8 1251.92 176.68V176.92ZM1361.2 215.2C1354.56 215.2 1349 214.12 1344.52 211.96C1340.04 209.72 1336.6 206.56 1334.2 202.48C1331.88 198.4 1330.6 193.64 1330.36 188.2C1330.28 186.6 1330.24 184.8 1330.24 182.8C1330.24 180.72 1330.28 178.92 1330.36 177.4C1330.6 171.88 1331.96 167.12 1334.44 163.12C1336.92 159.04 1340.4 155.92 1344.88 153.76C1349.36 151.52 1354.8 150.4 1361.2 150.4C1367.52 150.4 1372.92 151.52 1377.4 153.76C1381.88 155.92 1385.36 159.04 1387.84 163.12C1390.32 167.12 1391.68 171.88 1391.92 177.4C1392.08 178.92 1392.16 180.72 1392.16 182.8C1392.16 184.8 1392.08 186.6 1391.92 188.2C1391.68 193.64 1390.36 198.4 1387.96 202.48C1385.64 206.56 1382.24 209.72 1377.76 211.96C1373.28 214.12 1367.76 215.2 1361.2 215.2ZM1361.2 202C1365.12 202 1368.08 200.8 1370.08 198.4C1372.08 195.92 1373.16 192.32 1373.32 187.6C1373.4 186.4 1373.44 184.8 1373.44 182.8C1373.44 180.8 1373.4 179.2 1373.32 178C1373.16 173.36 1372.08 169.8 1370.08 167.32C1368.08 164.84 1365.12 163.6 1361.2 163.6C1357.28 163.6 1354.28 164.84 1352.2 167.32C1350.2 169.8 1349.12 173.36 1348.96 178C1348.88 179.2 1348.84 180.8 1348.84 182.8C1348.84 184.8 1348.88 186.4 1348.96 187.6C1349.12 192.32 1350.2 195.92 1352.2 198.4C1354.28 200.8 1357.28 202 1361.2 202ZM1876.68 214C1875.8 214 1875.08 213.72 1874.52 213.16C1873.96 212.6 1873.68 211.88 1873.68 211V197.56C1873.68 196.68 1873.96 195.96 1874.52 195.4C1875.08 194.84 1875.8 194.56 1876.68 194.56H1890.12C1891 194.56 1891.72 194.84 1892.28 195.4C1892.84 195.96 1893.12 196.68 1893.12 197.56V211C1893.12 211.88 1892.84 212.6 1892.28 213.16C1891.72 213.72 1891 214 1890.12 214H1876.68Z" fill="#6D2E46"/>
<path d="M1455.79 215.2C1450.83 215.2 1446.55 214.64 1442.95 213.52C1439.43 212.32 1436.55 210.88 1434.31 209.2C1432.15 207.52 1430.51 205.84 1429.39 204.16C1428.35 202.4 1427.79 200.92 1427.71 199.72C1427.63 198.84 1427.91 198.12 1428.55 197.56C1429.19 197 1429.83 196.72 1430.47 196.72H1442.11C1442.35 196.72 1442.59 196.76 1442.83 196.84C1443.07 196.92 1443.31 197.12 1443.55 197.44C1444.59 198.16 1445.67 199 1446.79 199.96C1447.91 200.84 1449.19 201.6 1450.63 202.24C1452.15 202.88 1454.03 203.2 1456.27 203.2C1458.91 203.2 1461.15 202.68 1462.99 201.64C1464.83 200.52 1465.75 198.96 1465.75 196.96C1465.75 195.52 1465.31 194.32 1464.43 193.36C1463.63 192.4 1462.07 191.52 1459.75 190.72C1457.43 189.92 1453.99 189.04 1449.43 188.08C1445.11 187.12 1441.43 185.84 1438.39 184.24C1435.35 182.64 1433.07 180.64 1431.55 178.24C1430.03 175.76 1429.27 172.8 1429.27 169.36C1429.27 166.24 1430.23 163.24 1432.15 160.36C1434.15 157.48 1437.07 155.12 1440.91 153.28C1444.75 151.36 1449.55 150.4 1455.31 150.4C1459.71 150.4 1463.55 150.96 1466.83 152.08C1470.19 153.12 1472.99 154.48 1475.23 156.16C1477.47 157.76 1479.15 159.44 1480.27 161.2C1481.47 162.88 1482.11 164.36 1482.19 165.64C1482.27 166.44 1482.03 167.12 1481.47 167.68C1480.91 168.24 1480.27 168.52 1479.55 168.52H1468.87C1468.47 168.52 1468.11 168.48 1467.79 168.4C1467.47 168.24 1467.19 168.04 1466.95 167.8C1465.99 167.16 1464.99 166.44 1463.95 165.64C1462.99 164.76 1461.83 164 1460.47 163.36C1459.11 162.72 1457.35 162.4 1455.19 162.4C1452.55 162.4 1450.51 163 1449.07 164.2C1447.71 165.32 1447.03 166.76 1447.03 168.52C1447.03 169.64 1447.39 170.68 1448.11 171.64C1448.83 172.6 1450.31 173.48 1452.55 174.28C1454.79 175.08 1458.19 175.92 1462.75 176.8C1468.19 177.76 1472.51 179.2 1475.71 181.12C1478.91 183.04 1481.19 185.28 1482.55 187.84C1483.99 190.32 1484.71 193 1484.71 195.88C1484.71 199.64 1483.59 203 1481.35 205.96C1479.11 208.84 1475.83 211.12 1471.51 212.8C1467.27 214.4 1462.03 215.2 1455.79 215.2ZM1524.07 215.2C1514.87 215.2 1507.55 212.64 1502.11 207.52C1496.75 202.4 1493.91 194.96 1493.59 185.2C1493.59 184.56 1493.59 183.72 1493.59 182.68C1493.59 181.56 1493.59 180.68 1493.59 180.04C1493.91 173.88 1495.31 168.6 1497.79 164.2C1500.27 159.72 1503.75 156.32 1508.23 154C1512.71 151.6 1517.95 150.4 1523.95 150.4C1530.67 150.4 1536.27 151.8 1540.75 154.6C1545.31 157.32 1548.71 161.08 1550.95 165.88C1553.27 170.6 1554.43 176.04 1554.43 182.2V184.96C1554.43 185.76 1554.11 186.44 1553.47 187C1552.91 187.56 1552.23 187.84 1551.43 187.84H1512.19C1512.19 187.92 1512.19 188.08 1512.19 188.32C1512.19 188.48 1512.19 188.64 1512.19 188.8C1512.27 191.36 1512.75 193.72 1513.63 195.88C1514.59 197.96 1515.91 199.64 1517.59 200.92C1519.35 202.2 1521.43 202.84 1523.83 202.84C1525.83 202.84 1527.47 202.56 1528.75 202C1530.03 201.44 1531.07 200.76 1531.87 199.96C1532.75 199.16 1533.39 198.48 1533.79 197.92C1534.51 197.12 1535.07 196.64 1535.47 196.48C1535.95 196.24 1536.67 196.12 1537.63 196.12H1550.11C1550.91 196.12 1551.55 196.36 1552.03 196.84C1552.59 197.24 1552.83 197.84 1552.75 198.64C1552.67 199.92 1551.99 201.52 1550.71 203.44C1549.51 205.28 1547.71 207.12 1545.31 208.96C1542.91 210.72 1539.91 212.2 1536.31 213.4C1532.79 214.6 1528.71 215.2 1524.07 215.2ZM1512.19 176.92H1535.71V176.68C1535.71 173.8 1535.23 171.32 1534.27 169.24C1533.39 167.08 1532.07 165.4 1530.31 164.2C1528.55 163 1526.43 162.4 1523.95 162.4C1521.47 162.4 1519.35 163 1517.59 164.2C1515.83 165.4 1514.47 167.08 1513.51 169.24C1512.63 171.32 1512.19 173.8 1512.19 176.68V176.92ZM1569.31 214C1568.51 214 1567.83 213.72 1567.27 213.16C1566.71 212.6 1566.43 211.88 1566.43 211V154.6C1566.43 153.72 1566.71 153 1567.27 152.44C1567.83 151.88 1568.51 151.6 1569.31 151.6H1581.07C1581.95 151.6 1582.67 151.88 1583.23 152.44C1583.79 153 1584.07 153.72 1584.07 154.6V159.28C1586.15 156.72 1588.83 154.6 1592.11 152.92C1595.39 151.24 1599.39 150.4 1604.11 150.4C1608.83 150.4 1612.95 151.48 1616.47 153.64C1620.07 155.72 1622.87 158.8 1624.87 162.88C1626.95 166.88 1627.99 171.76 1627.99 177.52V211C1627.99 211.88 1627.67 212.6 1627.03 213.16C1626.47 213.72 1625.79 214 1624.99 214H1612.27C1611.39 214 1610.67 213.72 1610.11 213.16C1609.55 212.6 1609.27 211.88 1609.27 211V178.24C1609.27 174 1608.23 170.72 1606.15 168.4C1604.15 166 1601.19 164.8 1597.27 164.8C1593.51 164.8 1590.51 166 1588.27 168.4C1586.03 170.72 1584.91 174 1584.91 178.24V211C1584.91 211.88 1584.63 212.6 1584.07 213.16C1583.51 213.72 1582.83 214 1582.03 214H1569.31ZM1671.66 214C1666.7 214 1662.46 213.2 1658.94 211.6C1655.42 209.92 1652.74 207.36 1650.9 203.92C1649.14 200.48 1648.26 196.16 1648.26 190.96V165.76H1638.9C1638.02 165.76 1637.3 165.48 1636.74 164.92C1636.18 164.36 1635.9 163.64 1635.9 162.76V154.6C1635.9 153.72 1636.18 153 1636.74 152.44C1637.3 151.88 1638.02 151.6 1638.9 151.6H1648.26V131.8C1648.26 130.92 1648.54 130.2 1649.1 129.64C1649.74 129.08 1650.46 128.8 1651.26 128.8H1663.02C1663.9 128.8 1664.62 129.08 1665.18 129.64C1665.74 130.2 1666.02 130.92 1666.02 131.8V151.6H1681.02C1681.82 151.6 1682.5 151.88 1683.06 152.44C1683.62 153 1683.9 153.72 1683.9 154.6V162.76C1683.9 163.64 1683.62 164.36 1683.06 164.92C1682.5 165.48 1681.82 165.76 1681.02 165.76H1666.02V189.52C1666.02 192.56 1666.54 194.96 1667.58 196.72C1668.7 198.4 1670.62 199.24 1673.34 199.24H1682.1C1682.9 199.24 1683.58 199.52 1684.14 200.08C1684.7 200.64 1684.98 201.32 1684.98 202.12V211C1684.98 211.88 1684.7 212.6 1684.14 213.16C1683.58 213.72 1682.9 214 1682.1 214H1671.66ZM1698.33 214C1697.53 214 1696.85 213.72 1696.29 213.16C1695.73 212.6 1695.45 211.88 1695.45 211V154.6C1695.45 153.72 1695.73 153 1696.29 152.44C1696.85 151.88 1697.53 151.6 1698.33 151.6H1710.33C1711.21 151.6 1711.93 151.88 1712.49 152.44C1713.05 153 1713.33 153.72 1713.33 154.6V211C1713.33 211.88 1713.05 212.6 1712.49 213.16C1711.93 213.72 1711.21 214 1710.33 214H1698.33ZM1697.97 142C1697.17 142 1696.49 141.72 1695.93 141.16C1695.37 140.6 1695.09 139.88 1695.09 139V129.4C1695.09 128.52 1695.37 127.8 1695.93 127.24C1696.49 126.6 1697.17 126.28 1697.97 126.28H1710.57C1711.45 126.28 1712.17 126.6 1712.73 127.24C1713.37 127.8 1713.69 128.52 1713.69 129.4V139C1713.69 139.88 1713.37 140.6 1712.73 141.16C1712.17 141.72 1711.45 142 1710.57 142H1697.97ZM1751.54 215.2C1747.54 215.2 1743.98 214.56 1740.86 213.28C1737.74 211.92 1735.1 210 1732.94 207.52C1730.78 204.96 1729.14 201.96 1728.02 198.52C1726.9 195 1726.22 191.12 1725.98 186.88C1725.9 185.36 1725.86 184 1725.86 182.8C1725.86 181.52 1725.9 180.16 1725.98 178.72C1726.14 174.56 1726.78 170.76 1727.9 167.32C1729.1 163.88 1730.74 160.92 1732.82 158.44C1734.98 155.88 1737.62 153.92 1740.74 152.56C1743.94 151.12 1747.54 150.4 1751.54 150.4C1755.7 150.4 1759.26 151.12 1762.22 152.56C1765.18 153.92 1767.62 155.72 1769.54 157.96V131.8C1769.54 130.92 1769.82 130.2 1770.38 129.64C1770.94 129.08 1771.66 128.8 1772.54 128.8H1784.9C1785.7 128.8 1786.38 129.08 1786.94 129.64C1787.5 130.2 1787.78 130.92 1787.78 131.8V211C1787.78 211.88 1787.5 212.6 1786.94 213.16C1786.38 213.72 1785.7 214 1784.9 214H1773.38C1772.58 214 1771.9 213.72 1771.34 213.16C1770.78 212.6 1770.5 211.88 1770.5 211V206.92C1768.5 209.32 1765.98 211.32 1762.94 212.92C1759.9 214.44 1756.1 215.2 1751.54 215.2ZM1757.06 200.8C1760.02 200.8 1762.38 200.12 1764.14 198.76C1765.98 197.4 1767.3 195.68 1768.1 193.6C1768.98 191.52 1769.46 189.28 1769.54 186.88C1769.7 185.36 1769.78 183.84 1769.78 182.32C1769.78 180.8 1769.7 179.32 1769.54 177.88C1769.46 175.64 1768.98 173.56 1768.1 171.64C1767.22 169.64 1765.86 168 1764.02 166.72C1762.26 165.44 1759.94 164.8 1757.06 164.8C1754.02 164.8 1751.62 165.48 1749.86 166.84C1748.1 168.12 1746.82 169.84 1746.02 172C1745.3 174.16 1744.86 176.52 1744.7 179.08C1744.46 181.56 1744.46 184.04 1744.7 186.52C1744.86 189.08 1745.3 191.44 1746.02 193.6C1746.82 195.76 1748.1 197.52 1749.86 198.88C1751.62 200.16 1754.02 200.8 1757.06 200.8ZM1831.59 215.2C1824.95 215.2 1819.39 214.12 1814.91 211.96C1810.43 209.72 1806.99 206.56 1804.59 202.48C1802.27 198.4 1800.99 193.64 1800.75 188.2C1800.67 186.6 1800.63 184.8 1800.63 182.8C1800.63 180.72 1800.67 178.92 1800.75 177.4C1800.99 171.88 1802.35 167.12 1804.83 163.12C1807.31 159.04 1810.79 155.92 1815.27 153.76C1819.75 151.52 1825.19 150.4 1831.59 150.4C1837.91 150.4 1843.31 151.52 1847.79 153.76C1852.27 155.92 1855.75 159.04 1858.23 163.12C1860.71 167.12 1862.07 171.88 1862.31 177.4C1862.47 178.92 1862.55 180.72 1862.55 182.8C1862.55 184.8 1862.47 186.6 1862.31 188.2C1862.07 193.64 1860.75 198.4 1858.35 202.48C1856.03 206.56 1852.63 209.72 1848.15 211.96C1843.67 214.12 1838.15 215.2 1831.59 215.2ZM1831.59 202C1835.51 202 1838.47 200.8 1840.47 198.4C1842.47 195.92 1843.55 192.32 1843.71 187.6C1843.79 186.4 1843.83 184.8 1843.83 182.8C1843.83 180.8 1843.79 179.2 1843.71 178C1843.55 173.36 1842.47 169.8 1840.47 167.32C1838.47 164.84 1835.51 163.6 1831.59 163.6C1827.67 163.6 1824.67 164.84 1822.59 167.32C1820.59 169.8 1819.51 173.36 1819.35 178C1819.27 179.2 1819.23 180.8 1819.23 182.8C1819.23 184.8 1819.27 186.4 1819.35 187.6C1819.51 192.32 1820.59 195.92 1822.59 198.4C1824.67 200.8 1827.67 202 1831.59 202Z" fill="#BD4747"/>
</g>
</svg>
