<svg width="1955" height="115" viewBox="0 0 1955 115" fill="none" xmlns="http://www.w3.org/2000/svg">
<path id="Campos voluntariado &#38; forma&#195;&#167;&#195;&#163;o" d="M48.1775 100.2C40.6575 100.2 34.2575 98.96 28.9775 96.48C23.7775 93.92 19.7375 90.24 16.8575 85.44C13.9775 80.56 12.3775 74.64 12.0575 67.68C11.9775 64.4 11.9375 60.88 11.9375 57.12C11.9375 53.36 11.9775 49.76 12.0575 46.32C12.3775 39.44 13.9775 33.6 16.8575 28.8C19.8175 23.92 23.9375 20.2 29.2175 17.64C34.4975 15.08 40.8175 13.8 48.1775 13.8C53.5375 13.8 58.4175 14.48 62.8175 15.84C67.2175 17.2 71.0175 19.16 74.2175 21.72C77.4175 24.28 79.8975 27.28 81.6575 30.72C83.4175 34.16 84.3775 38 84.5375 42.24C84.5375 42.96 84.2575 43.56 83.6975 44.04C83.2175 44.52 82.6175 44.76 81.8975 44.76H68.2175C67.2575 44.76 66.4975 44.52 65.9375 44.04C65.3775 43.56 64.9375 42.76 64.6175 41.64C63.4175 36.92 61.4175 33.68 58.6175 31.92C55.8175 30.16 52.3375 29.28 48.1775 29.28C43.2175 29.28 39.2975 30.64 36.4175 33.36C33.5375 36.08 31.9775 40.6 31.7375 46.92C31.4975 53.48 31.4975 60.2 31.7375 67.08C31.9775 73.4 33.5375 77.92 36.4175 80.64C39.2975 83.36 43.2175 84.72 48.1775 84.72C52.3375 84.72 55.8175 83.84 58.6175 82.08C61.4975 80.24 63.4975 77 64.6175 72.36C64.9375 71.16 65.3775 70.36 65.9375 69.96C66.4975 69.48 67.2575 69.24 68.2175 69.24H81.8975C82.6175 69.24 83.2175 69.48 83.6975 69.96C84.2575 70.44 84.5375 71.04 84.5375 71.76C84.3775 76 83.4175 79.84 81.6575 83.28C79.8975 86.72 77.4175 89.72 74.2175 92.28C71.0175 94.84 67.2175 96.8 62.8175 98.16C58.4175 99.52 53.5375 100.2 48.1775 100.2ZM115.061 100.2C110.821 100.2 107.021 99.4 103.661 97.8C100.301 96.12 97.6206 93.88 95.6206 91.08C93.6206 88.28 92.6206 85.16 92.6206 81.72C92.6206 76.04 94.9006 71.56 99.4606 68.28C104.101 65 110.181 62.76 117.701 61.56L133.421 59.28V57.12C133.421 54 132.701 51.6 131.261 49.92C129.821 48.24 127.301 47.4 123.701 47.4C121.061 47.4 118.941 47.92 117.341 48.96C115.741 50 114.501 51.36 113.621 53.04C112.981 54.08 112.061 54.6 110.861 54.6H99.4606C98.5806 54.6 97.9006 54.36 97.4206 53.88C96.9406 53.32 96.7406 52.68 96.8206 51.96C96.8206 50.6 97.3406 49 98.3806 47.16C99.4206 45.32 101.021 43.52 103.181 41.76C105.341 39.92 108.101 38.4 111.461 37.2C114.821 36 118.941 35.4 123.821 35.4C128.861 35.4 133.181 36 136.781 37.2C140.381 38.4 143.261 40.08 145.421 42.24C147.581 44.4 149.181 46.92 150.221 49.8C151.261 52.6 151.781 55.64 151.781 58.92V96C151.781 96.88 151.501 97.6 150.941 98.16C150.381 98.72 149.661 99 148.781 99H137.021C136.221 99 135.541 98.72 134.981 98.16C134.421 97.6 134.141 96.88 134.141 96V91.56C133.101 93.08 131.701 94.52 129.941 95.88C128.181 97.16 126.061 98.2 123.581 99C121.181 99.8 118.341 100.2 115.061 100.2ZM119.861 87.72C122.501 87.72 124.861 87.16 126.941 86.04C129.021 84.92 130.661 83.2 131.861 80.88C133.061 78.56 133.661 75.64 133.661 72.12V70.08L122.501 71.88C118.181 72.6 115.021 73.68 113.021 75.12C111.021 76.56 110.021 78.32 110.021 80.4C110.021 81.92 110.461 83.24 111.341 84.36C112.301 85.48 113.541 86.32 115.061 86.88C116.581 87.44 118.181 87.72 119.861 87.72ZM169.19 99C168.39 99 167.71 98.72 167.15 98.16C166.59 97.6 166.31 96.88 166.31 96V39.6C166.31 38.72 166.59 38 167.15 37.44C167.71 36.88 168.39 36.6 169.19 36.6H180.35C181.15 36.6 181.83 36.88 182.39 37.44C183.03 38 183.35 38.72 183.35 39.6V43.68C184.95 41.44 187.15 39.52 189.95 37.92C192.83 36.32 196.23 35.48 200.15 35.4C209.43 35.24 215.79 38.76 219.23 45.96C221.07 42.84 223.71 40.32 227.15 38.4C230.67 36.4 234.51 35.4 238.67 35.4C242.83 35.4 246.59 36.36 249.95 38.28C253.31 40.12 255.95 43 257.87 46.92C259.87 50.76 260.87 55.72 260.87 61.8V96C260.87 96.88 260.59 97.6 260.03 98.16C259.47 98.72 258.79 99 257.99 99H246.11C245.31 99 244.63 98.72 244.07 98.16C243.51 97.6 243.23 96.88 243.23 96V62.76C243.23 59.48 242.75 56.92 241.79 55.08C240.83 53.16 239.55 51.8 237.95 51C236.43 50.2 234.71 49.8 232.79 49.8C231.11 49.8 229.47 50.2 227.87 51C226.35 51.8 225.07 53.16 224.03 55.08C223.07 56.92 222.59 59.48 222.59 62.76V96C222.59 96.88 222.31 97.6 221.75 98.16C221.19 98.72 220.47 99 219.59 99H207.83C206.95 99 206.23 98.72 205.67 98.16C205.11 97.6 204.83 96.88 204.83 96V62.76C204.83 59.48 204.35 56.92 203.39 55.08C202.43 53.16 201.15 51.8 199.55 51C198.03 50.2 196.35 49.8 194.51 49.8C192.83 49.8 191.19 50.24 189.59 51.12C187.99 51.92 186.67 53.24 185.63 55.08C184.67 56.92 184.19 59.44 184.19 62.64V96C184.19 96.88 183.91 97.6 183.35 98.16C182.79 98.72 182.11 99 181.31 99H169.19ZM278.412 121.8C277.532 121.8 276.812 121.52 276.252 120.96C275.692 120.4 275.412 119.68 275.412 118.8V39.6C275.412 38.72 275.692 38 276.252 37.44C276.812 36.88 277.532 36.6 278.412 36.6H289.812C290.692 36.6 291.412 36.88 291.972 37.44C292.532 38 292.812 38.72 292.812 39.6V44.16C294.732 41.6 297.212 39.52 300.252 37.92C303.292 36.24 307.092 35.4 311.652 35.4C315.812 35.4 319.412 36.08 322.452 37.44C325.572 38.72 328.172 40.6 330.252 43.08C332.412 45.48 334.052 48.4 335.172 51.84C336.372 55.28 337.052 59.16 337.212 63.48C337.292 65 337.332 66.44 337.332 67.8C337.332 69.16 337.292 70.64 337.212 72.24C337.132 76.32 336.492 80.08 335.292 83.52C334.172 86.96 332.532 89.92 330.372 92.4C328.212 94.88 325.572 96.8 322.452 98.16C319.412 99.52 315.812 100.2 311.652 100.2C307.572 100.2 304.012 99.48 300.972 98.04C298.012 96.52 295.572 94.48 293.652 91.92V118.8C293.652 119.68 293.372 120.4 292.812 120.96C292.252 121.52 291.572 121.8 290.772 121.8H278.412ZM306.252 85.8C309.292 85.8 311.692 85.16 313.452 83.88C315.212 82.52 316.452 80.76 317.172 78.6C317.972 76.44 318.452 74.08 318.612 71.52C318.772 69.04 318.772 66.56 318.612 64.08C318.452 61.52 317.972 59.16 317.172 57C316.452 54.84 315.212 53.12 313.452 51.84C311.692 50.48 309.292 49.8 306.252 49.8C303.292 49.8 300.892 50.48 299.052 51.84C297.212 53.2 295.892 54.92 295.092 57C294.292 59.08 293.812 61.32 293.652 63.72C293.572 65.16 293.532 66.64 293.532 68.16C293.532 69.68 293.572 71.2 293.652 72.72C293.732 74.96 294.212 77.08 295.092 79.08C296.052 81 297.412 82.6 299.172 83.88C301.012 85.16 303.372 85.8 306.252 85.8ZM378.62 100.2C371.98 100.2 366.42 99.12 361.94 96.96C357.46 94.72 354.02 91.56 351.62 87.48C349.3 83.4 348.02 78.64 347.78 73.2C347.7 71.6 347.66 69.8 347.66 67.8C347.66 65.72 347.7 63.92 347.78 62.4C348.02 56.88 349.38 52.12 351.86 48.12C354.34 44.04 357.82 40.92 362.3 38.76C366.78 36.52 372.22 35.4 378.62 35.4C384.94 35.4 390.34 36.52 394.82 38.76C399.3 40.92 402.78 44.04 405.26 48.12C407.74 52.12 409.1 56.88 409.34 62.4C409.5 63.92 409.58 65.72 409.58 67.8C409.58 69.8 409.5 71.6 409.34 73.2C409.1 78.64 407.78 83.4 405.38 87.48C403.06 91.56 399.66 94.72 395.18 96.96C390.7 99.12 385.18 100.2 378.62 100.2ZM378.62 87C382.54 87 385.5 85.8 387.5 83.4C389.5 80.92 390.58 77.32 390.74 72.6C390.82 71.4 390.86 69.8 390.86 67.8C390.86 65.8 390.82 64.2 390.74 63C390.58 58.36 389.5 54.8 387.5 52.32C385.5 49.84 382.54 48.6 378.62 48.6C374.7 48.6 371.7 49.84 369.62 52.32C367.62 54.8 366.54 58.36 366.38 63C366.3 64.2 366.26 65.8 366.26 67.8C366.26 69.8 366.3 71.4 366.38 72.6C366.54 77.32 367.62 80.92 369.62 83.4C371.7 85.8 374.7 87 378.62 87ZM446.73 100.2C441.77 100.2 437.49 99.64 433.89 98.52C430.37 97.32 427.49 95.88 425.25 94.2C423.09 92.52 421.45 90.84 420.33 89.16C419.29 87.4 418.73 85.92 418.65 84.72C418.57 83.84 418.85 83.12 419.49 82.56C420.13 82 420.77 81.72 421.41 81.72H433.05C433.29 81.72 433.53 81.76 433.77 81.84C434.01 81.92 434.25 82.12 434.49 82.44C435.53 83.16 436.61 84 437.73 84.96C438.85 85.84 440.13 86.6 441.57 87.24C443.09 87.88 444.97 88.2 447.21 88.2C449.85 88.2 452.09 87.68 453.93 86.64C455.77 85.52 456.69 83.96 456.69 81.96C456.69 80.52 456.25 79.32 455.37 78.36C454.57 77.4 453.01 76.52 450.69 75.72C448.37 74.92 444.93 74.04 440.37 73.08C436.05 72.12 432.37 70.84 429.33 69.24C426.29 67.64 424.01 65.64 422.49 63.24C420.97 60.76 420.21 57.8 420.21 54.36C420.21 51.24 421.17 48.24 423.09 45.36C425.09 42.48 428.01 40.12 431.85 38.28C435.69 36.36 440.49 35.4 446.25 35.4C450.65 35.4 454.49 35.96 457.77 37.08C461.13 38.12 463.93 39.48 466.17 41.16C468.41 42.76 470.09 44.44 471.21 46.2C472.41 47.88 473.05 49.36 473.13 50.64C473.21 51.44 472.97 52.12 472.41 52.68C471.85 53.24 471.21 53.52 470.49 53.52H459.81C459.41 53.52 459.05 53.48 458.73 53.4C458.41 53.24 458.13 53.04 457.89 52.8C456.93 52.16 455.93 51.44 454.89 50.64C453.93 49.76 452.77 49 451.41 48.36C450.05 47.72 448.29 47.4 446.13 47.4C443.49 47.4 441.45 48 440.01 49.2C438.65 50.32 437.97 51.76 437.97 53.52C437.97 54.64 438.33 55.68 439.05 56.64C439.77 57.6 441.25 58.48 443.49 59.28C445.73 60.08 449.13 60.92 453.69 61.8C459.13 62.76 463.45 64.2 466.65 66.12C469.85 68.04 472.13 70.28 473.49 72.84C474.93 75.32 475.65 78 475.65 80.88C475.65 84.64 474.53 88 472.29 90.96C470.05 93.84 466.77 96.12 462.45 97.8C458.21 99.4 452.97 100.2 446.73 100.2ZM532.687 99C531.487 99 530.567 98.72 529.927 98.16C529.367 97.52 528.887 96.8 528.487 96L505.927 40.32C505.767 40 505.687 39.64 505.687 39.24C505.687 38.52 505.927 37.92 506.407 37.44C506.967 36.88 507.607 36.6 508.327 36.6H519.967C521.007 36.6 521.767 36.88 522.247 37.44C522.807 38 523.167 38.52 523.327 39L538.087 78.6L552.847 39C553.087 38.52 553.447 38 553.927 37.44C554.487 36.88 555.247 36.6 556.207 36.6H567.847C568.567 36.6 569.167 36.88 569.647 37.44C570.207 37.92 570.487 38.52 570.487 39.24C570.487 39.64 570.447 40 570.367 40.32L547.687 96C547.367 96.8 546.887 97.52 546.247 98.16C545.607 98.72 544.687 99 543.487 99H532.687ZM606.901 100.2C600.261 100.2 594.701 99.12 590.221 96.96C585.741 94.72 582.301 91.56 579.901 87.48C577.581 83.4 576.301 78.64 576.061 73.2C575.981 71.6 575.941 69.8 575.941 67.8C575.941 65.72 575.981 63.92 576.061 62.4C576.301 56.88 577.661 52.12 580.141 48.12C582.621 44.04 586.101 40.92 590.581 38.76C595.061 36.52 600.501 35.4 606.901 35.4C613.221 35.4 618.621 36.52 623.101 38.76C627.581 40.92 631.061 44.04 633.541 48.12C636.021 52.12 637.381 56.88 637.621 62.4C637.781 63.92 637.861 65.72 637.861 67.8C637.861 69.8 637.781 71.6 637.621 73.2C637.381 78.64 636.061 83.4 633.661 87.48C631.341 91.56 627.941 94.72 623.461 96.96C618.981 99.12 613.461 100.2 606.901 100.2ZM606.901 87C610.821 87 613.781 85.8 615.781 83.4C617.781 80.92 618.861 77.32 619.021 72.6C619.101 71.4 619.141 69.8 619.141 67.8C619.141 65.8 619.101 64.2 619.021 63C618.861 58.36 617.781 54.8 615.781 52.32C613.781 49.84 610.821 48.6 606.901 48.6C602.981 48.6 599.981 49.84 597.901 52.32C595.901 54.8 594.821 58.36 594.661 63C594.581 64.2 594.541 65.8 594.541 67.8C594.541 69.8 594.581 71.4 594.661 72.6C594.821 77.32 595.901 80.92 597.901 83.4C599.981 85.8 602.981 87 606.901 87ZM653.412 99C652.532 99 651.812 98.72 651.252 98.16C650.692 97.6 650.412 96.88 650.412 96V16.8C650.412 15.92 650.692 15.2 651.252 14.64C651.812 14.08 652.532 13.8 653.412 13.8H665.412C666.212 13.8 666.892 14.08 667.452 14.64C668.012 15.2 668.292 15.92 668.292 16.8V96C668.292 96.88 668.012 97.6 667.452 98.16C666.892 98.72 666.212 99 665.412 99H653.412ZM706.378 100.2C701.738 100.2 697.618 99.16 694.018 97.08C690.498 94.92 687.738 91.84 685.738 87.84C683.818 83.76 682.858 78.84 682.858 73.08V39.6C682.858 38.72 683.138 38 683.698 37.44C684.258 36.88 684.938 36.6 685.738 36.6H698.458C699.338 36.6 700.058 36.88 700.618 37.44C701.178 38 701.458 38.72 701.458 39.6V72.36C701.458 81.32 705.378 85.8 713.218 85.8C716.978 85.8 719.938 84.64 722.098 82.32C724.338 79.92 725.458 76.6 725.458 72.36V39.6C725.458 38.72 725.738 38 726.298 37.44C726.858 36.88 727.578 36.6 728.458 36.6H741.178C741.978 36.6 742.658 36.88 743.218 37.44C743.778 38 744.058 38.72 744.058 39.6V96C744.058 96.88 743.778 97.6 743.218 98.16C742.658 98.72 741.978 99 741.178 99H729.418C728.538 99 727.818 98.72 727.258 98.16C726.698 97.6 726.418 96.88 726.418 96V91.32C724.338 94.2 721.658 96.4 718.378 97.92C715.098 99.44 711.098 100.2 706.378 100.2ZM762.042 99C761.242 99 760.562 98.72 760.002 98.16C759.442 97.6 759.162 96.88 759.162 96V39.6C759.162 38.72 759.442 38 760.002 37.44C760.562 36.88 761.242 36.6 762.042 36.6H773.802C774.682 36.6 775.402 36.88 775.962 37.44C776.522 38 776.802 38.72 776.802 39.6V44.28C778.882 41.72 781.562 39.6 784.842 37.92C788.122 36.24 792.122 35.4 796.842 35.4C801.562 35.4 805.682 36.48 809.202 38.64C812.802 40.72 815.602 43.8 817.602 47.88C819.682 51.88 820.722 56.76 820.722 62.52V96C820.722 96.88 820.402 97.6 819.762 98.16C819.202 98.72 818.522 99 817.722 99H805.002C804.122 99 803.402 98.72 802.842 98.16C802.282 97.6 802.002 96.88 802.002 96V63.24C802.002 59 800.962 55.72 798.882 53.4C796.882 51 793.922 49.8 790.002 49.8C786.242 49.8 783.242 51 781.002 53.4C778.762 55.72 777.642 59 777.642 63.24V96C777.642 96.88 777.362 97.6 776.802 98.16C776.242 98.72 775.562 99 774.762 99H762.042ZM864.396 99C859.436 99 855.196 98.2 851.676 96.6C848.156 94.92 845.476 92.36 843.636 88.92C841.876 85.48 840.996 81.16 840.996 75.96V50.76H831.636C830.756 50.76 830.036 50.48 829.476 49.92C828.916 49.36 828.636 48.64 828.636 47.76V39.6C828.636 38.72 828.916 38 829.476 37.44C830.036 36.88 830.756 36.6 831.636 36.6H840.996V16.8C840.996 15.92 841.276 15.2 841.836 14.64C842.476 14.08 843.196 13.8 843.996 13.8H855.756C856.636 13.8 857.356 14.08 857.916 14.64C858.476 15.2 858.756 15.92 858.756 16.8V36.6H873.756C874.556 36.6 875.236 36.88 875.796 37.44C876.356 38 876.636 38.72 876.636 39.6V47.76C876.636 48.64 876.356 49.36 875.796 49.92C875.236 50.48 874.556 50.76 873.756 50.76H858.756V74.52C858.756 77.56 859.276 79.96 860.316 81.72C861.436 83.4 863.356 84.24 866.076 84.24H874.836C875.636 84.24 876.316 84.52 876.876 85.08C877.436 85.64 877.716 86.32 877.716 87.12V96C877.716 96.88 877.436 97.6 876.876 98.16C876.316 98.72 875.636 99 874.836 99H864.396ZM906.545 100.2C902.305 100.2 898.505 99.4 895.145 97.8C891.785 96.12 889.105 93.88 887.105 91.08C885.105 88.28 884.105 85.16 884.105 81.72C884.105 76.04 886.385 71.56 890.945 68.28C895.585 65 901.665 62.76 909.185 61.56L924.905 59.28V57.12C924.905 54 924.185 51.6 922.745 49.92C921.305 48.24 918.785 47.4 915.185 47.4C912.545 47.4 910.425 47.92 908.825 48.96C907.225 50 905.985 51.36 905.105 53.04C904.465 54.08 903.545 54.6 902.345 54.6H890.945C890.065 54.6 889.385 54.36 888.905 53.88C888.425 53.32 888.225 52.68 888.305 51.96C888.305 50.6 888.825 49 889.865 47.16C890.905 45.32 892.505 43.52 894.665 41.76C896.825 39.92 899.585 38.4 902.945 37.2C906.305 36 910.425 35.4 915.305 35.4C920.345 35.4 924.665 36 928.265 37.2C931.865 38.4 934.745 40.08 936.905 42.24C939.065 44.4 940.665 46.92 941.705 49.8C942.745 52.6 943.265 55.64 943.265 58.92V96C943.265 96.88 942.985 97.6 942.425 98.16C941.865 98.72 941.145 99 940.265 99H928.505C927.705 99 927.025 98.72 926.465 98.16C925.905 97.6 925.625 96.88 925.625 96V91.56C924.585 93.08 923.185 94.52 921.425 95.88C919.665 97.16 917.545 98.2 915.065 99C912.665 99.8 909.825 100.2 906.545 100.2ZM911.345 87.72C913.985 87.72 916.345 87.16 918.425 86.04C920.505 84.92 922.145 83.2 923.345 80.88C924.545 78.56 925.145 75.64 925.145 72.12V70.08L913.985 71.88C909.665 72.6 906.505 73.68 904.505 75.12C902.505 76.56 901.505 78.32 901.505 80.4C901.505 81.92 901.945 83.24 902.825 84.36C903.785 85.48 905.025 86.32 906.545 86.88C908.065 87.44 909.665 87.72 911.345 87.72ZM960.674 99C959.874 99 959.194 98.72 958.634 98.16C958.074 97.6 957.794 96.88 957.794 96V39.6C957.794 38.8 958.074 38.12 958.634 37.56C959.194 36.92 959.874 36.6 960.674 36.6H972.434C973.234 36.6 973.914 36.92 974.474 37.56C975.114 38.12 975.434 38.8 975.434 39.6V44.4C977.434 41.92 979.874 40 982.754 38.64C985.714 37.28 989.114 36.6 992.954 36.6H998.114C998.914 36.6 999.594 36.88 1000.15 37.44C1000.71 38 1000.99 38.72 1000.99 39.6V49.92C1000.99 50.8 1000.71 51.52 1000.15 52.08C999.594 52.64 998.914 52.92 998.114 52.92H987.554C984.034 52.92 981.274 53.92 979.274 55.92C977.274 57.84 976.274 60.6 976.274 64.2V96C976.274 96.88 975.994 97.6 975.434 98.16C974.874 98.72 974.154 99 973.274 99H960.674ZM1012.82 99C1012.02 99 1011.34 98.72 1010.78 98.16C1010.22 97.6 1009.94 96.88 1009.94 96V39.6C1009.94 38.72 1010.22 38 1010.78 37.44C1011.34 36.88 1012.02 36.6 1012.82 36.6H1024.82C1025.7 36.6 1026.42 36.88 1026.98 37.44C1027.54 38 1027.82 38.72 1027.82 39.6V96C1027.82 96.88 1027.54 97.6 1026.98 98.16C1026.42 98.72 1025.7 99 1024.82 99H1012.82ZM1012.46 27C1011.66 27 1010.98 26.72 1010.42 26.16C1009.86 25.6 1009.58 24.88 1009.58 24V14.4C1009.58 13.52 1009.86 12.8 1010.42 12.24C1010.98 11.6 1011.66 11.28 1012.46 11.28H1025.06C1025.94 11.28 1026.66 11.6 1027.22 12.24C1027.86 12.8 1028.18 13.52 1028.18 14.4V24C1028.18 24.88 1027.86 25.6 1027.22 26.16C1026.66 26.72 1025.94 27 1025.06 27H1012.46ZM1061.23 100.2C1056.99 100.2 1053.19 99.4 1049.83 97.8C1046.47 96.12 1043.79 93.88 1041.79 91.08C1039.79 88.28 1038.79 85.16 1038.79 81.72C1038.79 76.04 1041.07 71.56 1045.63 68.28C1050.27 65 1056.35 62.76 1063.87 61.56L1079.59 59.28V57.12C1079.59 54 1078.87 51.6 1077.43 49.92C1075.99 48.24 1073.47 47.4 1069.87 47.4C1067.23 47.4 1065.11 47.92 1063.51 48.96C1061.91 50 1060.67 51.36 1059.79 53.04C1059.15 54.08 1058.23 54.6 1057.03 54.6H1045.63C1044.75 54.6 1044.07 54.36 1043.59 53.88C1043.11 53.32 1042.91 52.68 1042.99 51.96C1042.99 50.6 1043.51 49 1044.55 47.16C1045.59 45.32 1047.19 43.52 1049.35 41.76C1051.51 39.92 1054.27 38.4 1057.63 37.2C1060.99 36 1065.11 35.4 1069.99 35.4C1075.03 35.4 1079.35 36 1082.95 37.2C1086.55 38.4 1089.43 40.08 1091.59 42.24C1093.75 44.4 1095.35 46.92 1096.39 49.8C1097.43 52.6 1097.95 55.64 1097.95 58.92V96C1097.95 96.88 1097.67 97.6 1097.11 98.16C1096.55 98.72 1095.83 99 1094.95 99H1083.19C1082.39 99 1081.71 98.72 1081.15 98.16C1080.59 97.6 1080.31 96.88 1080.31 96V91.56C1079.27 93.08 1077.87 94.52 1076.11 95.88C1074.35 97.16 1072.23 98.2 1069.75 99C1067.35 99.8 1064.51 100.2 1061.23 100.2ZM1066.03 87.72C1068.67 87.72 1071.03 87.16 1073.11 86.04C1075.19 84.92 1076.83 83.2 1078.03 80.88C1079.23 78.56 1079.83 75.64 1079.83 72.12V70.08L1068.67 71.88C1064.35 72.6 1061.19 73.68 1059.19 75.12C1057.19 76.56 1056.19 78.32 1056.19 80.4C1056.19 81.92 1056.63 83.24 1057.51 84.36C1058.47 85.48 1059.71 86.32 1061.23 86.88C1062.75 87.44 1064.35 87.72 1066.03 87.72ZM1135.64 100.2C1131.64 100.2 1128.08 99.56 1124.96 98.28C1121.84 96.92 1119.2 95 1117.04 92.52C1114.88 89.96 1113.24 86.96 1112.12 83.52C1111 80 1110.32 76.12 1110.08 71.88C1110 70.36 1109.96 69 1109.96 67.8C1109.96 66.52 1110 65.16 1110.08 63.72C1110.24 59.56 1110.88 55.76 1112 52.32C1113.2 48.88 1114.84 45.92 1116.92 43.44C1119.08 40.88 1121.72 38.92 1124.84 37.56C1128.04 36.12 1131.64 35.4 1135.64 35.4C1139.8 35.4 1143.36 36.12 1146.32 37.56C1149.28 38.92 1151.72 40.72 1153.64 42.96V16.8C1153.64 15.92 1153.92 15.2 1154.48 14.64C1155.04 14.08 1155.76 13.8 1156.64 13.8H1169C1169.8 13.8 1170.48 14.08 1171.04 14.64C1171.6 15.2 1171.88 15.92 1171.88 16.8V96C1171.88 96.88 1171.6 97.6 1171.04 98.16C1170.48 98.72 1169.8 99 1169 99H1157.48C1156.68 99 1156 98.72 1155.44 98.16C1154.88 97.6 1154.6 96.88 1154.6 96V91.92C1152.6 94.32 1150.08 96.32 1147.04 97.92C1144 99.44 1140.2 100.2 1135.64 100.2ZM1141.16 85.8C1144.12 85.8 1146.48 85.12 1148.24 83.76C1150.08 82.4 1151.4 80.68 1152.2 78.6C1153.08 76.52 1153.56 74.28 1153.64 71.88C1153.8 70.36 1153.88 68.84 1153.88 67.32C1153.88 65.8 1153.8 64.32 1153.64 62.88C1153.56 60.64 1153.08 58.56 1152.2 56.64C1151.32 54.64 1149.96 53 1148.12 51.72C1146.36 50.44 1144.04 49.8 1141.16 49.8C1138.12 49.8 1135.72 50.48 1133.96 51.84C1132.2 53.12 1130.92 54.84 1130.12 57C1129.4 59.16 1128.96 61.52 1128.8 64.08C1128.56 66.56 1128.56 69.04 1128.8 71.52C1128.96 74.08 1129.4 76.44 1130.12 78.6C1130.92 80.76 1132.2 82.52 1133.96 83.88C1135.72 85.16 1138.12 85.8 1141.16 85.8ZM1215.69 100.2C1209.05 100.2 1203.49 99.12 1199.01 96.96C1194.53 94.72 1191.09 91.56 1188.69 87.48C1186.37 83.4 1185.09 78.64 1184.85 73.2C1184.77 71.6 1184.73 69.8 1184.73 67.8C1184.73 65.72 1184.77 63.92 1184.85 62.4C1185.09 56.88 1186.45 52.12 1188.93 48.12C1191.41 44.04 1194.89 40.92 1199.37 38.76C1203.85 36.52 1209.29 35.4 1215.69 35.4C1222.01 35.4 1227.41 36.52 1231.89 38.76C1236.37 40.92 1239.85 44.04 1242.33 48.12C1244.81 52.12 1246.17 56.88 1246.41 62.4C1246.57 63.92 1246.65 65.72 1246.65 67.8C1246.65 69.8 1246.57 71.6 1246.41 73.2C1246.17 78.64 1244.85 83.4 1242.45 87.48C1240.13 91.56 1236.73 94.72 1232.25 96.96C1227.77 99.12 1222.25 100.2 1215.69 100.2ZM1215.69 87C1219.61 87 1222.57 85.8 1224.57 83.4C1226.57 80.92 1227.65 77.32 1227.81 72.6C1227.89 71.4 1227.93 69.8 1227.93 67.8C1227.93 65.8 1227.89 64.2 1227.81 63C1227.65 58.36 1226.57 54.8 1224.57 52.32C1222.57 49.84 1219.61 48.6 1215.69 48.6C1211.77 48.6 1208.77 49.84 1206.69 52.32C1204.69 54.8 1203.61 58.36 1203.45 63C1203.37 64.2 1203.33 65.8 1203.33 67.8C1203.33 69.8 1203.37 71.4 1203.45 72.6C1203.61 77.32 1204.69 80.92 1206.69 83.4C1208.77 85.8 1211.77 87 1215.69 87ZM1313.65 100.2C1307.65 100.2 1302.41 99.24 1297.93 97.32C1293.45 95.32 1289.97 92.48 1287.49 88.8C1285.01 85.12 1283.77 80.8 1283.77 75.84C1283.77 72.32 1284.45 69.2 1285.81 66.48C1287.25 63.76 1289.21 61.32 1291.69 59.16C1294.17 56.92 1297.01 54.88 1300.21 53.04C1296.93 49.52 1294.57 46.32 1293.12 43.44C1291.77 40.56 1291.09 37.6 1291.09 34.56C1291.09 30.88 1292.05 27.48 1293.96 24.36C1295.89 21.24 1298.73 18.72 1302.49 16.8C1306.25 14.8 1310.85 13.8 1316.29 13.8C1321.41 13.8 1325.77 14.76 1329.37 16.68C1332.97 18.52 1335.73 21 1337.65 24.12C1339.57 27.24 1340.53 30.64 1340.53 34.32C1340.53 37.6 1339.77 40.56 1338.25 43.2C1336.81 45.76 1334.81 48.08 1332.25 50.16C1329.69 52.24 1326.77 54.24 1323.49 56.16L1339.21 71.88C1340.01 70.52 1341.01 68.64 1342.21 66.24C1343.41 63.84 1344.49 60.76 1345.45 57C1345.69 55.72 1346.53 55.08 1347.97 55.08H1358.41C1359.13 55.08 1359.69 55.32 1360.09 55.8C1360.57 56.2 1360.81 56.76 1360.81 57.48C1360.73 59 1360.37 60.8 1359.73 62.88C1359.09 64.88 1358.21 67 1357.09 69.24C1355.97 71.48 1354.73 73.68 1353.37 75.84C1352.01 78 1350.65 80 1349.29 81.84L1362.37 95.04C1362.93 95.68 1363.21 96.28 1363.21 96.84C1363.21 97.48 1363.01 98 1362.61 98.4C1362.21 98.8 1361.65 99 1360.93 99H1347.13C1346.33 99 1345.69 98.88 1345.21 98.64C1344.73 98.32 1344.29 98.04 1343.89 97.8L1337.89 92.04C1334.69 94.68 1331.09 96.72 1327.09 98.16C1323.17 99.52 1318.69 100.2 1313.65 100.2ZM1313.65 86.4C1316.29 86.4 1318.77 86 1321.09 85.2C1323.49 84.32 1325.69 82.92 1327.69 81L1309.93 63.6C1307.45 64.96 1305.33 66.6 1303.57 68.52C1301.81 70.36 1300.93 72.6 1300.93 75.24C1300.93 77.56 1301.53 79.56 1302.73 81.24C1303.93 82.92 1305.49 84.2 1307.41 85.08C1309.41 85.96 1311.49 86.4 1313.65 86.4ZM1314.13 46.2C1316.13 45.08 1317.97 44 1319.65 42.96C1321.33 41.84 1322.65 40.64 1323.61 39.36C1324.57 38 1325.05 36.48 1325.05 34.8C1325.05 32.32 1324.21 30.36 1322.53 28.92C1320.85 27.48 1318.77 26.76 1316.29 26.76C1313.97 26.76 1311.93 27.48 1310.17 28.92C1308.41 30.36 1307.53 32.32 1307.53 34.8C1307.53 35.92 1307.73 37.04 1308.12 38.16C1308.53 39.2 1309.21 40.36 1310.17 41.64C1311.13 42.92 1312.45 44.44 1314.13 46.2ZM1407.67 99C1406.79 99 1406.07 98.72 1405.51 98.16C1404.95 97.6 1404.67 96.88 1404.67 96V50.76H1395.31C1394.43 50.76 1393.71 50.48 1393.15 49.92C1392.59 49.36 1392.31 48.64 1392.31 47.76V39.6C1392.31 38.72 1392.59 38 1393.15 37.44C1393.71 36.88 1394.43 36.6 1395.31 36.6H1404.67V32.28C1404.67 27.16 1405.63 22.96 1407.55 19.68C1409.47 16.4 1412.27 14 1415.95 12.48C1419.63 10.96 1424.15 10.2 1429.51 10.2H1438.27C1439.15 10.2 1439.87 10.48 1440.43 11.04C1440.99 11.6 1441.27 12.32 1441.27 13.2V21.36C1441.27 22.24 1440.99 22.96 1440.43 23.52C1439.87 24.08 1439.15 24.36 1438.27 24.36H1430.23C1427.27 24.36 1425.19 25.08 1423.99 26.52C1422.87 27.96 1422.31 30.08 1422.31 32.88V36.6H1437.07C1437.95 36.6 1438.67 36.88 1439.23 37.44C1439.79 38 1440.07 38.72 1440.07 39.6V47.76C1440.07 48.64 1439.79 49.36 1439.23 49.92C1438.67 50.48 1437.95 50.76 1437.07 50.76H1422.31V96C1422.31 96.88 1422.03 97.6 1421.47 98.16C1420.91 98.72 1420.23 99 1419.43 99H1407.67ZM1476.9 100.2C1470.26 100.2 1464.7 99.12 1460.22 96.96C1455.74 94.72 1452.3 91.56 1449.9 87.48C1447.58 83.4 1446.3 78.64 1446.06 73.2C1445.98 71.6 1445.94 69.8 1445.94 67.8C1445.94 65.72 1445.98 63.92 1446.06 62.4C1446.3 56.88 1447.66 52.12 1450.14 48.12C1452.62 44.04 1456.1 40.92 1460.58 38.76C1465.06 36.52 1470.5 35.4 1476.9 35.4C1483.22 35.4 1488.62 36.52 1493.1 38.76C1497.58 40.92 1501.06 44.04 1503.54 48.12C1506.02 52.12 1507.38 56.88 1507.62 62.4C1507.78 63.92 1507.86 65.72 1507.86 67.8C1507.86 69.8 1507.78 71.6 1507.62 73.2C1507.38 78.64 1506.06 83.4 1503.66 87.48C1501.34 91.56 1497.94 94.72 1493.46 96.96C1488.98 99.12 1483.46 100.2 1476.9 100.2ZM1476.9 87C1480.82 87 1483.78 85.8 1485.78 83.4C1487.78 80.92 1488.86 77.32 1489.02 72.6C1489.1 71.4 1489.14 69.8 1489.14 67.8C1489.14 65.8 1489.1 64.2 1489.02 63C1488.86 58.36 1487.78 54.8 1485.78 52.32C1483.78 49.84 1480.82 48.6 1476.9 48.6C1472.98 48.6 1469.98 49.84 1467.9 52.32C1465.9 54.8 1464.82 58.36 1464.66 63C1464.58 64.2 1464.54 65.8 1464.54 67.8C1464.54 69.8 1464.58 71.4 1464.66 72.6C1464.82 77.32 1465.9 80.92 1467.9 83.4C1469.98 85.8 1472.98 87 1476.9 87ZM1523.29 99C1522.49 99 1521.81 98.72 1521.25 98.16C1520.69 97.6 1520.41 96.88 1520.41 96V39.6C1520.41 38.8 1520.69 38.12 1521.25 37.56C1521.81 36.92 1522.49 36.6 1523.29 36.6H1535.05C1535.85 36.6 1536.53 36.92 1537.09 37.56C1537.73 38.12 1538.05 38.8 1538.05 39.6V44.4C1540.05 41.92 1542.49 40 1545.37 38.64C1548.33 37.28 1551.73 36.6 1555.57 36.6H1560.73C1561.53 36.6 1562.21 36.88 1562.77 37.44C1563.33 38 1563.61 38.72 1563.61 39.6V49.92C1563.61 50.8 1563.33 51.52 1562.77 52.08C1562.21 52.64 1561.53 52.92 1560.73 52.92H1550.17C1546.65 52.92 1543.89 53.92 1541.89 55.92C1539.89 57.84 1538.89 60.6 1538.89 64.2V96C1538.89 96.88 1538.61 97.6 1538.05 98.16C1537.49 98.72 1536.77 99 1535.89 99H1523.29ZM1575.44 99C1574.64 99 1573.96 98.72 1573.4 98.16C1572.84 97.6 1572.56 96.88 1572.56 96V39.6C1572.56 38.72 1572.84 38 1573.4 37.44C1573.96 36.88 1574.64 36.6 1575.44 36.6H1586.6C1587.4 36.6 1588.08 36.88 1588.64 37.44C1589.28 38 1589.6 38.72 1589.6 39.6V43.68C1591.2 41.44 1593.4 39.52 1596.2 37.92C1599.08 36.32 1602.48 35.48 1606.4 35.4C1615.68 35.24 1622.04 38.76 1625.48 45.96C1627.32 42.84 1629.96 40.32 1633.4 38.4C1636.92 36.4 1640.76 35.4 1644.92 35.4C1649.08 35.4 1652.84 36.36 1656.2 38.28C1659.56 40.12 1662.2 43 1664.12 46.92C1666.12 50.76 1667.12 55.72 1667.12 61.8V96C1667.12 96.88 1666.84 97.6 1666.28 98.16C1665.72 98.72 1665.04 99 1664.24 99H1652.36C1651.56 99 1650.88 98.72 1650.32 98.16C1649.76 97.6 1649.48 96.88 1649.48 96V62.76C1649.48 59.48 1649 56.92 1648.04 55.08C1647.08 53.16 1645.8 51.8 1644.2 51C1642.68 50.2 1640.96 49.8 1639.04 49.8C1637.36 49.8 1635.72 50.2 1634.12 51C1632.6 51.8 1631.32 53.16 1630.28 55.08C1629.32 56.92 1628.84 59.48 1628.84 62.76V96C1628.84 96.88 1628.56 97.6 1628 98.16C1627.44 98.72 1626.72 99 1625.84 99H1614.08C1613.2 99 1612.48 98.72 1611.92 98.16C1611.36 97.6 1611.08 96.88 1611.08 96V62.76C1611.08 59.48 1610.6 56.92 1609.64 55.08C1608.68 53.16 1607.4 51.8 1605.8 51C1604.28 50.2 1602.6 49.8 1600.76 49.8C1599.08 49.8 1597.44 50.24 1595.84 51.12C1594.24 51.92 1592.92 53.24 1591.88 55.08C1590.92 56.92 1590.44 59.44 1590.44 62.64V96C1590.44 96.88 1590.16 97.6 1589.6 98.16C1589.04 98.72 1588.36 99 1587.56 99H1575.44ZM1700.02 100.2C1695.78 100.2 1691.98 99.4 1688.62 97.8C1685.26 96.12 1682.58 93.88 1680.58 91.08C1678.58 88.28 1677.58 85.16 1677.58 81.72C1677.58 76.04 1679.86 71.56 1684.42 68.28C1689.06 65 1695.14 62.76 1702.66 61.56L1718.38 59.28V57.12C1718.38 54 1717.66 51.6 1716.22 49.92C1714.78 48.24 1712.26 47.4 1708.66 47.4C1706.02 47.4 1703.9 47.92 1702.3 48.96C1700.7 50 1699.46 51.36 1698.58 53.04C1697.94 54.08 1697.02 54.6 1695.82 54.6H1684.42C1683.54 54.6 1682.86 54.36 1682.38 53.88C1681.9 53.32 1681.7 52.68 1681.78 51.96C1681.78 50.6 1682.3 49 1683.34 47.16C1684.38 45.32 1685.98 43.52 1688.14 41.76C1690.3 39.92 1693.06 38.4 1696.42 37.2C1699.78 36 1703.9 35.4 1708.78 35.4C1713.82 35.4 1718.14 36 1721.74 37.2C1725.34 38.4 1728.22 40.08 1730.38 42.24C1732.54 44.4 1734.14 46.92 1735.18 49.8C1736.22 52.6 1736.74 55.64 1736.74 58.92V96C1736.74 96.88 1736.46 97.6 1735.9 98.16C1735.34 98.72 1734.62 99 1733.74 99H1721.98C1721.18 99 1720.5 98.72 1719.94 98.16C1719.38 97.6 1719.1 96.88 1719.1 96V91.56C1718.06 93.08 1716.66 94.52 1714.9 95.88C1713.14 97.16 1711.02 98.2 1708.54 99C1706.14 99.8 1703.3 100.2 1700.02 100.2ZM1704.82 87.72C1707.46 87.72 1709.82 87.16 1711.9 86.04C1713.98 84.92 1715.62 83.2 1716.82 80.88C1718.02 78.56 1718.62 75.64 1718.62 72.12V70.08L1707.46 71.88C1703.14 72.6 1699.98 73.68 1697.98 75.12C1695.98 76.56 1694.98 78.32 1694.98 80.4C1694.98 81.92 1695.42 83.24 1696.3 84.36C1697.26 85.48 1698.5 86.32 1700.02 86.88C1701.54 87.44 1703.14 87.72 1704.82 87.72ZM1778.87 125.4C1776.71 125.4 1774.75 125.04 1772.99 124.32C1771.31 123.6 1770.07 122.76 1769.27 121.8C1768.55 120.84 1768.59 120 1769.39 119.28L1771.55 117.36C1772.27 116.72 1772.87 116.52 1773.35 116.76C1773.91 117.08 1774.59 117.48 1775.39 117.96C1776.19 118.44 1777.35 118.68 1778.87 118.68C1780.15 118.68 1781.19 118.32 1781.99 117.6C1782.79 116.88 1783.19 115.96 1783.19 114.84C1783.19 113.8 1782.79 112.92 1781.99 112.2C1781.19 111.48 1780.15 111.12 1778.87 111.12C1777.91 111.12 1777.03 111.24 1776.23 111.48C1775.43 111.8 1774.67 112 1773.95 112.08C1773.31 112.16 1772.71 111.92 1772.15 111.36L1769.87 109.08C1769.39 108.6 1769.19 108.04 1769.27 107.4C1769.35 106.84 1769.59 106.12 1769.99 105.24L1772.51 99.72C1765.55 98.6 1759.95 95.72 1755.71 91.08C1751.47 86.44 1749.19 80.32 1748.87 72.72C1748.79 71.44 1748.75 69.84 1748.75 67.92C1748.75 65.92 1748.79 64.28 1748.87 63C1749.11 57.16 1750.47 52.2 1752.95 48.12C1755.51 43.96 1759.03 40.8 1763.51 38.64C1767.99 36.48 1773.15 35.4 1778.99 35.4C1784.35 35.4 1788.91 36.16 1792.67 37.68C1796.43 39.12 1799.51 40.96 1801.91 43.2C1804.31 45.44 1806.07 47.8 1807.19 50.28C1808.39 52.68 1809.03 54.8 1809.11 56.64C1809.19 57.44 1808.91 58.16 1808.27 58.8C1807.71 59.36 1807.03 59.64 1806.23 59.64H1793.39C1792.59 59.64 1791.95 59.44 1791.47 59.04C1791.07 58.56 1790.67 57.92 1790.27 57.12C1789.15 54.32 1787.71 52.32 1785.95 51.12C1784.19 49.92 1781.99 49.32 1779.35 49.32C1775.75 49.32 1772.91 50.48 1770.83 52.8C1768.75 55.12 1767.63 58.72 1767.47 63.6C1767.39 66.72 1767.39 69.56 1767.47 72.12C1767.71 77.08 1768.83 80.68 1770.83 82.92C1772.91 85.16 1775.75 86.28 1779.35 86.28C1782.15 86.28 1784.39 85.68 1786.07 84.48C1787.75 83.28 1789.15 81.28 1790.27 78.48C1790.59 77.68 1790.99 77.08 1791.47 76.68C1791.95 76.2 1792.59 75.96 1793.39 75.96H1806.23C1807.03 75.96 1807.71 76.28 1808.27 76.92C1808.91 77.48 1809.19 78.16 1809.11 78.96C1809.03 80.64 1808.43 82.68 1807.31 85.08C1806.19 87.48 1804.47 89.84 1802.15 92.16C1799.91 94.4 1796.91 96.28 1793.15 97.8C1789.39 99.32 1784.83 100.12 1779.47 100.2L1777.07 105.12C1777.55 104.88 1778.19 104.68 1778.99 104.52C1779.87 104.44 1780.55 104.4 1781.03 104.4C1783.91 104.4 1786.19 105.36 1787.87 107.28C1789.63 109.2 1790.51 111.68 1790.51 114.72C1790.51 117.76 1789.47 120.28 1787.39 122.28C1785.39 124.36 1782.55 125.4 1778.87 125.4ZM1839.24 100.2C1835 100.2 1831.2 99.4 1827.84 97.8C1824.48 96.12 1821.8 93.88 1819.8 91.08C1817.8 88.28 1816.8 85.16 1816.8 81.72C1816.8 76.04 1819.08 71.56 1823.64 68.28C1828.28 65 1834.36 62.76 1841.88 61.56L1857.6 59.28V57.12C1857.6 54 1856.88 51.6 1855.44 49.92C1854 48.24 1851.48 47.4 1847.88 47.4C1845.24 47.4 1843.12 47.92 1841.52 48.96C1839.92 50 1838.68 51.36 1837.8 53.04C1837.16 54.08 1836.24 54.6 1835.04 54.6H1823.64C1822.76 54.6 1822.08 54.36 1821.6 53.88C1821.12 53.32 1820.92 52.68 1821 51.96C1821 50.6 1821.52 49 1822.56 47.16C1823.6 45.32 1825.2 43.52 1827.36 41.76C1829.52 39.92 1832.28 38.4 1835.64 37.2C1839 36 1843.12 35.4 1848 35.4C1853.04 35.4 1857.36 36 1860.96 37.2C1864.56 38.4 1867.44 40.08 1869.6 42.24C1871.76 44.4 1873.36 46.92 1874.4 49.8C1875.44 52.6 1875.96 55.64 1875.96 58.92V96C1875.96 96.88 1875.68 97.6 1875.12 98.16C1874.56 98.72 1873.84 99 1872.96 99H1861.2C1860.4 99 1859.72 98.72 1859.16 98.16C1858.6 97.6 1858.32 96.88 1858.32 96V91.56C1857.28 93.08 1855.88 94.52 1854.12 95.88C1852.36 97.16 1850.24 98.2 1847.76 99C1845.36 99.8 1842.52 100.2 1839.24 100.2ZM1844.04 87.72C1846.68 87.72 1849.04 87.16 1851.12 86.04C1853.2 84.92 1854.84 83.2 1856.04 80.88C1857.24 78.56 1857.84 75.64 1857.84 72.12V70.08L1846.68 71.88C1842.36 72.6 1839.2 73.68 1837.2 75.12C1835.2 76.56 1834.2 78.32 1834.2 80.4C1834.2 81.92 1834.64 83.24 1835.52 84.36C1836.48 85.48 1837.72 86.32 1839.24 86.88C1840.76 87.44 1842.36 87.72 1844.04 87.72ZM1854.72 28.2C1852.56 28.2 1850.8 27.84 1849.44 27.12C1848.16 26.4 1846.96 25.72 1845.84 25.08C1844.8 24.36 1843.6 24 1842.24 24C1841.2 24 1840.44 24.28 1839.96 24.84C1839.48 25.4 1839.04 26 1838.64 26.64C1838.24 27.28 1837.6 27.6 1836.72 27.6H1830.36C1829.8 27.6 1829.32 27.4 1828.92 27C1828.52 26.52 1828.32 26.04 1828.32 25.56C1828.32 24.28 1828.52 22.88 1828.92 21.36C1829.4 19.76 1830.12 18.24 1831.08 16.8C1832.12 15.28 1833.44 14.04 1835.04 13.08C1836.64 12.12 1838.56 11.64 1840.8 11.64C1842.96 11.64 1844.72 12 1846.08 12.72C1847.44 13.36 1848.64 14.04 1849.68 14.76C1850.8 15.48 1852.04 15.84 1853.4 15.84C1854.44 15.84 1855.16 15.52 1855.56 14.88C1856.04 14.24 1856.48 13.64 1856.88 13.08C1857.36 12.44 1858.04 12.12 1858.92 12.12H1865.16C1865.88 12.12 1866.4 12.36 1866.72 12.84C1867.12 13.24 1867.32 13.72 1867.32 14.28C1867.32 15.56 1867.08 17 1866.6 18.6C1866.12 20.12 1865.36 21.64 1864.32 23.16C1863.36 24.6 1862.08 25.8 1860.48 26.76C1858.88 27.72 1856.96 28.2 1854.72 28.2ZM1919.05 100.2C1912.41 100.2 1906.85 99.12 1902.37 96.96C1897.89 94.72 1894.45 91.56 1892.05 87.48C1889.73 83.4 1888.45 78.64 1888.21 73.2C1888.13 71.6 1888.09 69.8 1888.09 67.8C1888.09 65.72 1888.13 63.92 1888.21 62.4C1888.45 56.88 1889.81 52.12 1892.29 48.12C1894.77 44.04 1898.25 40.92 1902.73 38.76C1907.21 36.52 1912.65 35.4 1919.05 35.4C1925.37 35.4 1930.77 36.52 1935.25 38.76C1939.73 40.92 1943.21 44.04 1945.69 48.12C1948.17 52.12 1949.53 56.88 1949.77 62.4C1949.93 63.92 1950.01 65.72 1950.01 67.8C1950.01 69.8 1949.93 71.6 1949.77 73.2C1949.53 78.64 1948.21 83.4 1945.81 87.48C1943.49 91.56 1940.09 94.72 1935.61 96.96C1931.13 99.12 1925.61 100.2 1919.05 100.2ZM1919.05 87C1922.97 87 1925.93 85.8 1927.93 83.4C1929.93 80.92 1931.01 77.32 1931.17 72.6C1931.25 71.4 1931.29 69.8 1931.29 67.8C1931.29 65.8 1931.25 64.2 1931.17 63C1931.01 58.36 1929.93 54.8 1927.93 52.32C1925.93 49.84 1922.97 48.6 1919.05 48.6C1915.13 48.6 1912.13 49.84 1910.05 52.32C1908.05 54.8 1906.97 58.36 1906.81 63C1906.73 64.2 1906.69 65.8 1906.69 67.8C1906.69 69.8 1906.73 71.4 1906.81 72.6C1906.97 77.32 1908.05 80.92 1910.05 83.4C1912.13 85.8 1915.13 87 1919.05 87Z" fill="#6D2E46"/>
</svg>
