<svg width="1696" height="55" viewBox="0 0 1696 55" fill="none" xmlns="http://www.w3.org/2000/svg">
<path id="com casais convidados e especialistas para responder &#195;&#128;s tuas perguntas!" d="M15.2363 47.4883C12.8275 47.4883 10.7035 46.9919 8.86426 45.999C7.02507 45.0062 5.59277 43.4925 4.56738 41.458C3.54199 39.4235 3.0293 36.86 3.0293 33.7676C3.0293 30.5286 3.56641 27.8838 4.64062 25.833C5.73112 23.766 7.22852 22.236 9.13281 21.2432C11.0371 20.2503 13.2018 19.7539 15.627 19.7539C16.9616 19.7539 18.2474 19.8923 19.4844 20.1689C20.7376 20.4294 21.763 20.763 22.5605 21.1699L21.3398 24.5635C20.526 24.238 19.582 23.945 18.5078 23.6846C17.4499 23.4242 16.457 23.2939 15.5293 23.2939C13.6738 23.2939 12.1276 23.6927 10.8906 24.4902C9.66992 25.2878 8.75033 26.4596 8.13184 28.0059C7.52962 29.5521 7.22852 31.4564 7.22852 33.7188C7.22852 35.8835 7.52148 37.7308 8.10742 39.2607C8.70964 40.7907 9.59668 41.9626 10.7686 42.7764C11.9567 43.5739 13.4378 43.9727 15.2119 43.9727C16.6279 43.9727 17.9056 43.8262 19.0449 43.5332C20.1842 43.224 21.2178 42.8659 22.1455 42.459V46.0723C21.2503 46.528 20.2493 46.8779 19.1426 47.1221C18.0521 47.3662 16.75 47.4883 15.2363 47.4883ZM51.5645 33.5723C51.5645 35.7695 51.2796 37.7308 50.71 39.4561C50.1403 41.1813 49.3184 42.638 48.2441 43.8262C47.1699 45.0143 45.8678 45.9258 44.3379 46.5605C42.8242 47.179 41.1071 47.4883 39.1865 47.4883C37.3962 47.4883 35.7523 47.179 34.2549 46.5605C32.7738 45.9258 31.488 45.0143 30.3975 43.8262C29.3232 42.638 28.485 41.1813 27.8828 39.4561C27.2969 37.7308 27.0039 35.7695 27.0039 33.5723C27.0039 30.6426 27.5003 28.1523 28.4932 26.1016C29.486 24.0345 30.902 22.4639 32.7412 21.3896C34.5967 20.2992 36.8021 19.7539 39.3574 19.7539C41.7988 19.7539 43.931 20.2992 45.7539 21.3896C47.5931 22.4801 49.0173 24.0589 50.0264 26.126C51.0518 28.1768 51.5645 30.6589 51.5645 33.5723ZM31.2031 33.5723C31.2031 35.7207 31.488 37.5843 32.0576 39.1631C32.6273 40.7419 33.5062 41.9626 34.6943 42.8252C35.8825 43.6878 37.4124 44.1191 39.2842 44.1191C41.1396 44.1191 42.6615 43.6878 43.8496 42.8252C45.054 41.9626 45.9411 40.7419 46.5107 39.1631C47.0804 37.5843 47.3652 35.7207 47.3652 33.5723C47.3652 31.4401 47.0804 29.6009 46.5107 28.0547C45.9411 26.4922 45.0622 25.2878 43.874 24.4414C42.6859 23.5951 41.1478 23.1719 39.2598 23.1719C36.4766 23.1719 34.4339 24.0915 33.1318 25.9307C31.846 27.7699 31.2031 30.3171 31.2031 33.5723ZM87.624 19.7539C90.57 19.7539 92.7917 20.527 94.2891 22.0732C95.7865 23.6032 96.5352 26.069 96.5352 29.4707V47H92.5312V29.666C92.5312 27.5013 92.0592 25.8818 91.1152 24.8076C90.1875 23.7171 88.804 23.1719 86.9648 23.1719C84.377 23.1719 82.4971 23.9206 81.3252 25.418C80.1533 26.9154 79.5674 29.1208 79.5674 32.0342V47H75.5391V29.666C75.5391 28.2174 75.3275 27.013 74.9043 26.0527C74.4974 25.0924 73.8789 24.3763 73.0488 23.9043C72.235 23.416 71.2015 23.1719 69.9482 23.1719C68.1742 23.1719 66.75 23.5381 65.6758 24.2705C64.6016 25.0029 63.8203 26.0934 63.332 27.542C62.86 28.9743 62.624 30.7402 62.624 32.8398V47H58.5713V20.2422H61.8428L62.4531 24.0264H62.6729C63.21 23.0986 63.8854 22.3174 64.6992 21.6826C65.513 21.0479 66.4245 20.5677 67.4336 20.2422C68.4427 19.9167 69.5169 19.7539 70.6562 19.7539C72.6908 19.7539 74.3916 20.1364 75.7588 20.9014C77.1423 21.6501 78.1432 22.7975 78.7617 24.3438H78.9814C79.8604 22.7975 81.0648 21.6501 82.5947 20.9014C84.1247 20.1364 85.8011 19.7539 87.624 19.7539ZM128.566 47.4883C126.158 47.4883 124.034 46.9919 122.194 45.999C120.355 45.0062 118.923 43.4925 117.897 41.458C116.872 39.4235 116.359 36.86 116.359 33.7676C116.359 30.5286 116.896 27.8838 117.971 25.833C119.061 23.766 120.559 22.236 122.463 21.2432C124.367 20.2503 126.532 19.7539 128.957 19.7539C130.292 19.7539 131.577 19.8923 132.814 20.1689C134.068 20.4294 135.093 20.763 135.891 21.1699L134.67 24.5635C133.856 24.238 132.912 23.945 131.838 23.6846C130.78 23.4242 129.787 23.2939 128.859 23.2939C127.004 23.2939 125.458 23.6927 124.221 24.4902C123 25.2878 122.08 26.4596 121.462 28.0059C120.86 29.5521 120.559 31.4564 120.559 33.7188C120.559 35.8835 120.852 37.7308 121.438 39.2607C122.04 40.7907 122.927 41.9626 124.099 42.7764C125.287 43.5739 126.768 43.9727 128.542 43.9727C129.958 43.9727 131.236 43.8262 132.375 43.5332C133.514 43.224 134.548 42.8659 135.476 42.459V46.0723C134.58 46.528 133.579 46.8779 132.473 47.1221C131.382 47.3662 130.08 47.4883 128.566 47.4883ZM151.833 19.8027C155.023 19.8027 157.391 20.5189 158.938 21.9512C160.484 23.3835 161.257 25.6702 161.257 28.8115V47H158.303L157.521 43.0449H157.326C156.577 44.0215 155.796 44.8434 154.982 45.5107C154.169 46.1618 153.225 46.6582 152.15 47C151.092 47.3255 149.79 47.4883 148.244 47.4883C146.617 47.4883 145.168 47.2035 143.898 46.6338C142.645 46.0641 141.652 45.2015 140.92 44.0459C140.204 42.8903 139.846 41.4255 139.846 39.6514C139.846 36.9821 140.904 34.9313 143.02 33.499C145.135 32.0667 148.358 31.2855 152.688 31.1553L157.302 30.96V29.3242C157.302 27.013 156.805 25.3936 155.812 24.4658C154.82 23.5381 153.42 23.0742 151.613 23.0742C150.214 23.0742 148.879 23.2777 147.609 23.6846C146.34 24.0915 145.135 24.5716 143.996 25.125L142.751 22.0488C143.955 21.4303 145.339 20.9014 146.901 20.4619C148.464 20.0225 150.108 19.8027 151.833 19.8027ZM157.253 33.8164L153.176 33.9873C149.839 34.1175 147.487 34.6628 146.12 35.623C144.753 36.5833 144.069 37.9424 144.069 39.7002C144.069 41.2301 144.533 42.3613 145.461 43.0938C146.389 43.8262 147.618 44.1924 149.147 44.1924C151.524 44.1924 153.469 43.5332 154.982 42.2148C156.496 40.8965 157.253 38.9189 157.253 36.2822V33.8164ZM186.916 39.6758C186.916 41.3848 186.485 42.8252 185.622 43.9971C184.776 45.1527 183.555 46.0234 181.96 46.6094C180.381 47.1953 178.493 47.4883 176.296 47.4883C174.424 47.4883 172.805 47.3418 171.438 47.0488C170.07 46.7559 168.874 46.3408 167.849 45.8037V42.0684C168.939 42.6055 170.241 43.0938 171.755 43.5332C173.269 43.9727 174.815 44.1924 176.394 44.1924C178.705 44.1924 180.381 43.818 181.423 43.0693C182.465 42.3206 182.985 41.3034 182.985 40.0176C182.985 39.2852 182.774 38.6423 182.351 38.0889C181.944 37.5192 181.252 36.974 180.275 36.4531C179.299 35.916 177.948 35.3301 176.223 34.6953C174.514 34.0443 173.033 33.4014 171.779 32.7666C170.542 32.1156 169.582 31.3262 168.898 30.3984C168.231 29.4707 167.897 28.2663 167.897 26.7852C167.897 24.5228 168.809 22.7894 170.632 21.585C172.471 20.3643 174.88 19.7539 177.858 19.7539C179.47 19.7539 180.975 19.9167 182.375 20.2422C183.791 20.5514 185.109 20.9746 186.33 21.5117L184.963 24.7588C183.856 24.2868 182.676 23.888 181.423 23.5625C180.17 23.237 178.892 23.0742 177.59 23.0742C175.718 23.0742 174.278 23.3835 173.269 24.002C172.276 24.6204 171.779 25.4668 171.779 26.541C171.779 27.3711 172.007 28.0547 172.463 28.5918C172.935 29.1289 173.684 29.6335 174.709 30.1055C175.734 30.5775 177.085 31.1309 178.762 31.7656C180.438 32.3841 181.887 33.027 183.107 33.6943C184.328 34.3454 185.264 35.1429 185.915 36.0869C186.582 37.0146 186.916 38.2109 186.916 39.6758ZM203.444 19.8027C206.634 19.8027 209.003 20.5189 210.549 21.9512C212.095 23.3835 212.868 25.6702 212.868 28.8115V47H209.914L209.133 43.0449H208.938C208.189 44.0215 207.408 44.8434 206.594 45.5107C205.78 46.1618 204.836 46.6582 203.762 47C202.704 47.3255 201.402 47.4883 199.855 47.4883C198.228 47.4883 196.779 47.2035 195.51 46.6338C194.257 46.0641 193.264 45.2015 192.531 44.0459C191.815 42.8903 191.457 41.4255 191.457 39.6514C191.457 36.9821 192.515 34.9313 194.631 33.499C196.747 32.0667 199.969 31.2855 204.299 31.1553L208.913 30.96V29.3242C208.913 27.013 208.417 25.3936 207.424 24.4658C206.431 23.5381 205.031 23.0742 203.225 23.0742C201.825 23.0742 200.49 23.2777 199.221 23.6846C197.951 24.0915 196.747 24.5716 195.607 25.125L194.362 22.0488C195.567 21.4303 196.95 20.9014 198.513 20.4619C200.075 20.0225 201.719 19.8027 203.444 19.8027ZM208.864 33.8164L204.787 33.9873C201.451 34.1175 199.099 34.6628 197.731 35.623C196.364 36.5833 195.681 37.9424 195.681 39.7002C195.681 41.2301 196.145 42.3613 197.072 43.0938C198 43.8262 199.229 44.1924 200.759 44.1924C203.135 44.1924 205.08 43.5332 206.594 42.2148C208.107 40.8965 208.864 38.9189 208.864 36.2822V33.8164ZM225.271 20.2422V47H221.218V20.2422H225.271ZM223.293 10.2324C223.96 10.2324 224.53 10.4521 225.002 10.8916C225.49 11.3148 225.734 11.9821 225.734 12.8936C225.734 13.7887 225.49 14.4561 225.002 14.8955C224.53 15.335 223.96 15.5547 223.293 15.5547C222.593 15.5547 222.007 15.335 221.535 14.8955C221.079 14.4561 220.852 13.7887 220.852 12.8936C220.852 11.9821 221.079 11.3148 221.535 10.8916C222.007 10.4521 222.593 10.2324 223.293 10.2324ZM251.174 39.6758C251.174 41.3848 250.743 42.8252 249.88 43.9971C249.034 45.1527 247.813 46.0234 246.218 46.6094C244.639 47.1953 242.751 47.4883 240.554 47.4883C238.682 47.4883 237.062 47.3418 235.695 47.0488C234.328 46.7559 233.132 46.3408 232.106 45.8037V42.0684C233.197 42.6055 234.499 43.0938 236.013 43.5332C237.526 43.9727 239.073 44.1924 240.651 44.1924C242.963 44.1924 244.639 43.818 245.681 43.0693C246.722 42.3206 247.243 41.3034 247.243 40.0176C247.243 39.2852 247.032 38.6423 246.608 38.0889C246.201 37.5192 245.51 36.974 244.533 36.4531C243.557 35.916 242.206 35.3301 240.48 34.6953C238.771 34.0443 237.29 33.4014 236.037 32.7666C234.8 32.1156 233.84 31.3262 233.156 30.3984C232.489 29.4707 232.155 28.2663 232.155 26.7852C232.155 24.5228 233.067 22.7894 234.89 21.585C236.729 20.3643 239.138 19.7539 242.116 19.7539C243.728 19.7539 245.233 19.9167 246.633 20.2422C248.049 20.5514 249.367 20.9746 250.588 21.5117L249.221 24.7588C248.114 24.2868 246.934 23.888 245.681 23.5625C244.427 23.237 243.15 23.0742 241.848 23.0742C239.976 23.0742 238.535 23.3835 237.526 24.002C236.534 24.6204 236.037 25.4668 236.037 26.541C236.037 27.3711 236.265 28.0547 236.721 28.5918C237.193 29.1289 237.941 29.6335 238.967 30.1055C239.992 30.5775 241.343 31.1309 243.02 31.7656C244.696 32.3841 246.145 33.027 247.365 33.6943C248.586 34.3454 249.522 35.1429 250.173 36.0869C250.84 37.0146 251.174 38.2109 251.174 39.6758ZM281.398 47.4883C278.99 47.4883 276.866 46.9919 275.026 45.999C273.187 45.0062 271.755 43.4925 270.729 41.458C269.704 39.4235 269.191 36.86 269.191 33.7676C269.191 30.5286 269.729 27.8838 270.803 25.833C271.893 23.766 273.391 22.236 275.295 21.2432C277.199 20.2503 279.364 19.7539 281.789 19.7539C283.124 19.7539 284.41 19.8923 285.646 20.1689C286.9 20.4294 287.925 20.763 288.723 21.1699L287.502 24.5635C286.688 24.238 285.744 23.945 284.67 23.6846C283.612 23.4242 282.619 23.2939 281.691 23.2939C279.836 23.2939 278.29 23.6927 277.053 24.4902C275.832 25.2878 274.912 26.4596 274.294 28.0059C273.692 29.5521 273.391 31.4564 273.391 33.7188C273.391 35.8835 273.684 37.7308 274.27 39.2607C274.872 40.7907 275.759 41.9626 276.931 42.7764C278.119 43.5739 279.6 43.9727 281.374 43.9727C282.79 43.9727 284.068 43.8262 285.207 43.5332C286.346 43.224 287.38 42.8659 288.308 42.459V46.0723C287.412 46.528 286.411 46.8779 285.305 47.1221C284.214 47.3662 282.912 47.4883 281.398 47.4883ZM317.727 33.5723C317.727 35.7695 317.442 37.7308 316.872 39.4561C316.302 41.1813 315.48 42.638 314.406 43.8262C313.332 45.0143 312.03 45.9258 310.5 46.5605C308.986 47.179 307.269 47.4883 305.349 47.4883C303.558 47.4883 301.914 47.179 300.417 46.5605C298.936 45.9258 297.65 45.0143 296.56 43.8262C295.485 42.638 294.647 41.1813 294.045 39.4561C293.459 37.7308 293.166 35.7695 293.166 33.5723C293.166 30.6426 293.662 28.1523 294.655 26.1016C295.648 24.0345 297.064 22.4639 298.903 21.3896C300.759 20.2992 302.964 19.7539 305.52 19.7539C307.961 19.7539 310.093 20.2992 311.916 21.3896C313.755 22.4801 315.179 24.0589 316.188 26.126C317.214 28.1768 317.727 30.6589 317.727 33.5723ZM297.365 33.5723C297.365 35.7207 297.65 37.5843 298.22 39.1631C298.789 40.7419 299.668 41.9626 300.856 42.8252C302.045 43.6878 303.575 44.1191 305.446 44.1191C307.302 44.1191 308.824 43.6878 310.012 42.8252C311.216 41.9626 312.103 40.7419 312.673 39.1631C313.243 37.5843 313.527 35.7207 313.527 33.5723C313.527 31.4401 313.243 29.6009 312.673 28.0547C312.103 26.4922 311.224 25.2878 310.036 24.4414C308.848 23.5951 307.31 23.1719 305.422 23.1719C302.639 23.1719 300.596 24.0915 299.294 25.9307C298.008 27.7699 297.365 30.3171 297.365 33.5723ZM337.404 19.7539C340.578 19.7539 342.979 20.5352 344.606 22.0977C346.234 23.6439 347.048 26.1341 347.048 29.5684V47H343.044V29.8369C343.044 27.6071 342.531 25.9388 341.506 24.832C340.497 23.7253 338.942 23.1719 336.843 23.1719C333.881 23.1719 331.797 24.0101 330.593 25.6865C329.388 27.363 328.786 29.7962 328.786 32.9863V47H324.733V20.2422H328.005L328.615 24.0996H328.835C329.405 23.1556 330.129 22.3662 331.008 21.7314C331.887 21.0804 332.871 20.5921 333.962 20.2666C335.052 19.9248 336.2 19.7539 337.404 19.7539ZM361.281 47L351.125 20.2422H355.471L361.354 36.4287C361.761 37.5355 362.176 38.7562 362.6 40.0908C363.023 41.4255 363.316 42.4997 363.479 43.3135H363.649C363.845 42.4997 364.17 41.4255 364.626 40.0908C365.082 38.7399 365.497 37.5192 365.871 36.4287L371.755 20.2422H376.101L365.92 47H361.281ZM384.45 20.2422V47H380.397V20.2422H384.45ZM382.473 10.2324C383.14 10.2324 383.71 10.4521 384.182 10.8916C384.67 11.3148 384.914 11.9821 384.914 12.8936C384.914 13.7887 384.67 14.4561 384.182 14.8955C383.71 15.335 383.14 15.5547 382.473 15.5547C381.773 15.5547 381.187 15.335 380.715 14.8955C380.259 14.4561 380.031 13.7887 380.031 12.8936C380.031 11.9821 380.259 11.3148 380.715 10.8916C381.187 10.4521 381.773 10.2324 382.473 10.2324ZM402.565 47.4883C399.18 47.4883 396.494 46.3327 394.509 44.0215C392.539 41.7103 391.555 38.276 391.555 33.7188C391.555 29.1126 392.564 25.6377 394.582 23.2939C396.6 20.9339 399.286 19.7539 402.639 19.7539C404.055 19.7539 405.292 19.9411 406.35 20.3154C407.408 20.6898 408.319 21.1943 409.084 21.8291C409.849 22.4476 410.492 23.1556 411.013 23.9531H411.306C411.241 23.4486 411.175 22.7568 411.11 21.8779C411.045 20.999 411.013 20.2829 411.013 19.7295V9.01172H415.065V47H411.794L411.184 43.1914H411.013C410.508 43.9889 409.865 44.7132 409.084 45.3643C408.319 46.0153 407.399 46.5361 406.325 46.9268C405.267 47.3011 404.014 47.4883 402.565 47.4883ZM403.2 44.1191C406.065 44.1191 408.091 43.3053 409.279 41.6777C410.467 40.0501 411.062 37.6331 411.062 34.4268V33.6943C411.062 30.2926 410.492 27.6803 409.353 25.8574C408.229 24.0345 406.179 23.123 403.2 23.123C400.71 23.123 398.846 24.0833 397.609 26.0039C396.372 27.9082 395.754 30.5124 395.754 33.8164C395.754 37.1042 396.364 39.6432 397.585 41.4336C398.822 43.224 400.694 44.1191 403.2 44.1191ZM433.669 19.8027C436.859 19.8027 439.227 20.5189 440.773 21.9512C442.32 23.3835 443.093 25.6702 443.093 28.8115V47H440.139L439.357 43.0449H439.162C438.413 44.0215 437.632 44.8434 436.818 45.5107C436.005 46.1618 435.061 46.6582 433.986 47C432.928 47.3255 431.626 47.4883 430.08 47.4883C428.452 47.4883 427.004 47.2035 425.734 46.6338C424.481 46.0641 423.488 45.2015 422.756 44.0459C422.04 42.8903 421.682 41.4255 421.682 39.6514C421.682 36.9821 422.74 34.9313 424.855 33.499C426.971 32.0667 430.194 31.2855 434.523 31.1553L439.138 30.96V29.3242C439.138 27.013 438.641 25.3936 437.648 24.4658C436.656 23.5381 435.256 23.0742 433.449 23.0742C432.049 23.0742 430.715 23.2777 429.445 23.6846C428.176 24.0915 426.971 24.5716 425.832 25.125L424.587 22.0488C425.791 21.4303 427.175 20.9014 428.737 20.4619C430.3 20.0225 431.944 19.8027 433.669 19.8027ZM439.089 33.8164L435.012 33.9873C431.675 34.1175 429.323 34.6628 427.956 35.623C426.589 36.5833 425.905 37.9424 425.905 39.7002C425.905 41.2301 426.369 42.3613 427.297 43.0938C428.225 43.8262 429.453 44.1924 430.983 44.1924C433.36 44.1924 435.305 43.5332 436.818 42.2148C438.332 40.8965 439.089 38.9189 439.089 36.2822V33.8164ZM460.964 47.4883C457.578 47.4883 454.893 46.3327 452.907 44.0215C450.938 41.7103 449.953 38.276 449.953 33.7188C449.953 29.1126 450.962 25.6377 452.98 23.2939C454.999 20.9339 457.684 19.7539 461.037 19.7539C462.453 19.7539 463.69 19.9411 464.748 20.3154C465.806 20.6898 466.717 21.1943 467.482 21.8291C468.247 22.4476 468.89 23.1556 469.411 23.9531H469.704C469.639 23.4486 469.574 22.7568 469.509 21.8779C469.444 20.999 469.411 20.2829 469.411 19.7295V9.01172H473.464V47H470.192L469.582 43.1914H469.411C468.907 43.9889 468.264 44.7132 467.482 45.3643C466.717 46.0153 465.798 46.5361 464.724 46.9268C463.666 47.3011 462.412 47.4883 460.964 47.4883ZM461.599 44.1191C464.463 44.1191 466.49 43.3053 467.678 41.6777C468.866 40.0501 469.46 37.6331 469.46 34.4268V33.6943C469.46 30.2926 468.89 27.6803 467.751 25.8574C466.628 24.0345 464.577 23.123 461.599 23.123C459.108 23.123 457.245 24.0833 456.008 26.0039C454.771 27.9082 454.152 30.5124 454.152 33.8164C454.152 37.1042 454.763 39.6432 455.983 41.4336C457.22 43.224 459.092 44.1191 461.599 44.1191ZM505.129 33.5723C505.129 35.7695 504.844 37.7308 504.274 39.4561C503.705 41.1813 502.883 42.638 501.809 43.8262C500.734 45.0143 499.432 45.9258 497.902 46.5605C496.389 47.179 494.672 47.4883 492.751 47.4883C490.961 47.4883 489.317 47.179 487.819 46.5605C486.338 45.9258 485.052 45.0143 483.962 43.8262C482.888 42.638 482.049 41.1813 481.447 39.4561C480.861 37.7308 480.568 35.7695 480.568 33.5723C480.568 30.6426 481.065 28.1523 482.058 26.1016C483.05 24.0345 484.466 22.4639 486.306 21.3896C488.161 20.2992 490.367 19.7539 492.922 19.7539C495.363 19.7539 497.495 20.2992 499.318 21.3896C501.158 22.4801 502.582 24.0589 503.591 26.126C504.616 28.1768 505.129 30.6589 505.129 33.5723ZM484.768 33.5723C484.768 35.7207 485.052 37.5843 485.622 39.1631C486.192 40.7419 487.071 41.9626 488.259 42.8252C489.447 43.6878 490.977 44.1191 492.849 44.1191C494.704 44.1191 496.226 43.6878 497.414 42.8252C498.618 41.9626 499.506 40.7419 500.075 39.1631C500.645 37.5843 500.93 35.7207 500.93 33.5723C500.93 31.4401 500.645 29.6009 500.075 28.0547C499.506 26.4922 498.627 25.2878 497.438 24.4414C496.25 23.5951 494.712 23.1719 492.824 23.1719C490.041 23.1719 487.998 24.0915 486.696 25.9307C485.41 27.7699 484.768 30.3171 484.768 33.5723ZM529.445 39.6758C529.445 41.3848 529.014 42.8252 528.151 43.9971C527.305 45.1527 526.084 46.0234 524.489 46.6094C522.91 47.1953 521.022 47.4883 518.825 47.4883C516.953 47.4883 515.334 47.3418 513.967 47.0488C512.6 46.7559 511.403 46.3408 510.378 45.8037V42.0684C511.468 42.6055 512.771 43.0938 514.284 43.5332C515.798 43.9727 517.344 44.1924 518.923 44.1924C521.234 44.1924 522.91 43.818 523.952 43.0693C524.994 42.3206 525.515 41.3034 525.515 40.0176C525.515 39.2852 525.303 38.6423 524.88 38.0889C524.473 37.5192 523.781 36.974 522.805 36.4531C521.828 35.916 520.477 35.3301 518.752 34.6953C517.043 34.0443 515.562 33.4014 514.309 32.7666C513.072 32.1156 512.111 31.3262 511.428 30.3984C510.76 29.4707 510.427 28.2663 510.427 26.7852C510.427 24.5228 511.338 22.7894 513.161 21.585C515 20.3643 517.409 19.7539 520.388 19.7539C521.999 19.7539 523.505 19.9167 524.904 20.2422C526.32 20.5514 527.639 20.9746 528.859 21.5117L527.492 24.7588C526.385 24.2868 525.205 23.888 523.952 23.5625C522.699 23.237 521.421 23.0742 520.119 23.0742C518.247 23.0742 516.807 23.3835 515.798 24.002C514.805 24.6204 514.309 25.4668 514.309 26.541C514.309 27.3711 514.536 28.0547 514.992 28.5918C515.464 29.1289 516.213 29.6335 517.238 30.1055C518.264 30.5775 519.615 31.1309 521.291 31.7656C522.967 32.3841 524.416 33.027 525.637 33.6943C526.857 34.3454 527.793 35.1429 528.444 36.0869C529.112 37.0146 529.445 38.2109 529.445 39.6758ZM559.255 19.7539C561.534 19.7539 563.487 20.2585 565.114 21.2676C566.742 22.2767 567.987 23.6927 568.85 25.5156C569.712 27.3223 570.144 29.4382 570.144 31.8633V34.3779H551.662C551.711 37.5192 552.492 39.9118 554.006 41.5557C555.52 43.1995 557.652 44.0215 560.402 44.0215C562.095 44.0215 563.592 43.8669 564.895 43.5576C566.197 43.2484 567.548 42.7926 568.947 42.1904V45.7549C567.596 46.3571 566.254 46.7965 564.919 47.0732C563.601 47.3499 562.038 47.4883 560.231 47.4883C557.66 47.4883 555.414 46.9674 553.493 45.9258C551.589 44.8678 550.108 43.3216 549.05 41.2871C547.992 39.2526 547.463 36.7624 547.463 33.8164C547.463 30.9355 547.943 28.4453 548.903 26.3457C549.88 24.2298 551.247 22.6022 553.005 21.4629C554.779 20.3236 556.862 19.7539 559.255 19.7539ZM559.206 23.0742C557.041 23.0742 555.316 23.7822 554.03 25.1982C552.744 26.6143 551.979 28.5918 551.735 31.1309H565.896C565.879 29.5358 565.627 28.1361 565.139 26.9316C564.667 25.7109 563.942 24.7669 562.966 24.0996C561.989 23.416 560.736 23.0742 559.206 23.0742ZM600.319 19.7539C602.598 19.7539 604.551 20.2585 606.179 21.2676C607.806 22.2767 609.051 23.6927 609.914 25.5156C610.777 27.3223 611.208 29.4382 611.208 31.8633V34.3779H592.727C592.775 37.5192 593.557 39.9118 595.07 41.5557C596.584 43.1995 598.716 44.0215 601.467 44.0215C603.16 44.0215 604.657 43.8669 605.959 43.5576C607.261 43.2484 608.612 42.7926 610.012 42.1904V45.7549C608.661 46.3571 607.318 46.7965 605.983 47.0732C604.665 47.3499 603.103 47.4883 601.296 47.4883C598.724 47.4883 596.478 46.9674 594.558 45.9258C592.653 44.8678 591.172 43.3216 590.114 41.2871C589.056 39.2526 588.527 36.7624 588.527 33.8164C588.527 30.9355 589.007 28.4453 589.968 26.3457C590.944 24.2298 592.312 22.6022 594.069 21.4629C595.843 20.3236 597.927 19.7539 600.319 19.7539ZM600.271 23.0742C598.106 23.0742 596.381 23.7822 595.095 25.1982C593.809 26.6143 593.044 28.5918 592.8 31.1309H606.96C606.944 29.5358 606.691 28.1361 606.203 26.9316C605.731 25.7109 605.007 24.7669 604.03 24.0996C603.054 23.416 601.8 23.0742 600.271 23.0742ZM635.402 39.6758C635.402 41.3848 634.971 42.8252 634.108 43.9971C633.262 45.1527 632.041 46.0234 630.446 46.6094C628.868 47.1953 626.979 47.4883 624.782 47.4883C622.91 47.4883 621.291 47.3418 619.924 47.0488C618.557 46.7559 617.36 46.3408 616.335 45.8037V42.0684C617.425 42.6055 618.728 43.0938 620.241 43.5332C621.755 43.9727 623.301 44.1924 624.88 44.1924C627.191 44.1924 628.868 43.818 629.909 43.0693C630.951 42.3206 631.472 41.3034 631.472 40.0176C631.472 39.2852 631.26 38.6423 630.837 38.0889C630.43 37.5192 629.738 36.974 628.762 36.4531C627.785 35.916 626.434 35.3301 624.709 34.6953C623 34.0443 621.519 33.4014 620.266 32.7666C619.029 32.1156 618.068 31.3262 617.385 30.3984C616.717 29.4707 616.384 28.2663 616.384 26.7852C616.384 24.5228 617.295 22.7894 619.118 21.585C620.957 20.3643 623.366 19.7539 626.345 19.7539C627.956 19.7539 629.462 19.9167 630.861 20.2422C632.277 20.5514 633.596 20.9746 634.816 21.5117L633.449 24.7588C632.342 24.2868 631.162 23.888 629.909 23.5625C628.656 23.237 627.378 23.0742 626.076 23.0742C624.204 23.0742 622.764 23.3835 621.755 24.002C620.762 24.6204 620.266 25.4668 620.266 26.541C620.266 27.3711 620.493 28.0547 620.949 28.5918C621.421 29.1289 622.17 29.6335 623.195 30.1055C624.221 30.5775 625.572 31.1309 627.248 31.7656C628.924 32.3841 630.373 33.027 631.594 33.6943C632.814 34.3454 633.75 35.1429 634.401 36.0869C635.069 37.0146 635.402 38.2109 635.402 39.6758ZM654.494 19.7539C657.831 19.7539 660.492 20.9014 662.478 23.1963C664.463 25.4912 665.456 28.9417 665.456 33.5479C665.456 36.5915 665 39.1468 664.089 41.2139C663.177 43.2809 661.892 44.8434 660.231 45.9014C658.588 46.9593 656.643 47.4883 654.396 47.4883C652.98 47.4883 651.735 47.3011 650.661 46.9268C649.587 46.5524 648.667 46.0479 647.902 45.4131C647.137 44.7783 646.503 44.0866 645.998 43.3379H645.705C645.754 43.9727 645.811 44.7376 645.876 45.6328C645.957 46.528 645.998 47.3092 645.998 47.9766V58.9629H641.921V20.2422H645.266L645.803 24.1973H645.998C646.519 23.3835 647.154 22.6429 647.902 21.9756C648.651 21.292 649.562 20.7549 650.637 20.3643C651.727 19.9574 653.013 19.7539 654.494 19.7539ZM653.786 23.1719C651.931 23.1719 650.433 23.5299 649.294 24.2461C648.171 24.9622 647.349 26.0365 646.828 27.4688C646.307 28.8848 646.031 30.667 645.998 32.8154V33.5967C645.998 35.859 646.242 37.7715 646.73 39.334C647.235 40.8965 648.057 42.0846 649.196 42.8984C650.352 43.7122 651.898 44.1191 653.835 44.1191C655.495 44.1191 656.879 43.6715 657.985 42.7764C659.092 41.8812 659.914 40.6361 660.451 39.041C661.005 37.4297 661.281 35.5824 661.281 33.499C661.281 30.3415 660.663 27.835 659.426 25.9795C658.205 24.1077 656.325 23.1719 653.786 23.1719ZM682.839 19.7539C685.118 19.7539 687.071 20.2585 688.698 21.2676C690.326 22.2767 691.571 23.6927 692.434 25.5156C693.296 27.3223 693.728 29.4382 693.728 31.8633V34.3779H675.246C675.295 37.5192 676.076 39.9118 677.59 41.5557C679.104 43.1995 681.236 44.0215 683.986 44.0215C685.679 44.0215 687.176 43.8669 688.479 43.5576C689.781 43.2484 691.132 42.7926 692.531 42.1904V45.7549C691.18 46.3571 689.838 46.7965 688.503 47.0732C687.185 47.3499 685.622 47.4883 683.815 47.4883C681.244 47.4883 678.998 46.9674 677.077 45.9258C675.173 44.8678 673.692 43.3216 672.634 41.2871C671.576 39.2526 671.047 36.7624 671.047 33.8164C671.047 30.9355 671.527 28.4453 672.487 26.3457C673.464 24.2298 674.831 22.6022 676.589 21.4629C678.363 20.3236 680.446 19.7539 682.839 19.7539ZM682.79 23.0742C680.625 23.0742 678.9 23.7822 677.614 25.1982C676.328 26.6143 675.563 28.5918 675.319 31.1309H689.479C689.463 29.5358 689.211 28.1361 688.723 26.9316C688.251 25.7109 687.526 24.7669 686.55 24.0996C685.573 23.416 684.32 23.0742 682.79 23.0742ZM711.33 47.4883C708.921 47.4883 706.797 46.9919 704.958 45.999C703.119 45.0062 701.687 43.4925 700.661 41.458C699.636 39.4235 699.123 36.86 699.123 33.7676C699.123 30.5286 699.66 27.8838 700.734 25.833C701.825 23.766 703.322 22.236 705.227 21.2432C707.131 20.2503 709.296 19.7539 711.721 19.7539C713.055 19.7539 714.341 19.8923 715.578 20.1689C716.831 20.4294 717.857 20.763 718.654 21.1699L717.434 24.5635C716.62 24.238 715.676 23.945 714.602 23.6846C713.544 23.4242 712.551 23.2939 711.623 23.2939C709.768 23.2939 708.221 23.6927 706.984 24.4902C705.764 25.2878 704.844 26.4596 704.226 28.0059C703.623 29.5521 703.322 31.4564 703.322 33.7188C703.322 35.8835 703.615 37.7308 704.201 39.2607C704.803 40.7907 705.69 41.9626 706.862 42.7764C708.05 43.5739 709.532 43.9727 711.306 43.9727C712.722 43.9727 713.999 43.8262 715.139 43.5332C716.278 43.224 717.312 42.8659 718.239 42.459V46.0723C717.344 46.528 716.343 46.8779 715.236 47.1221C714.146 47.3662 712.844 47.4883 711.33 47.4883ZM728.64 20.2422V47H724.587V20.2422H728.64ZM726.662 10.2324C727.329 10.2324 727.899 10.4521 728.371 10.8916C728.859 11.3148 729.104 11.9821 729.104 12.8936C729.104 13.7887 728.859 14.4561 728.371 14.8955C727.899 15.335 727.329 15.5547 726.662 15.5547C725.962 15.5547 725.376 15.335 724.904 14.8955C724.449 14.4561 724.221 13.7887 724.221 12.8936C724.221 11.9821 724.449 11.3148 724.904 10.8916C725.376 10.4521 725.962 10.2324 726.662 10.2324ZM747.243 19.8027C750.433 19.8027 752.801 20.5189 754.348 21.9512C755.894 23.3835 756.667 25.6702 756.667 28.8115V47H753.713L752.932 43.0449H752.736C751.988 44.0215 751.206 44.8434 750.393 45.5107C749.579 46.1618 748.635 46.6582 747.561 47C746.503 47.3255 745.201 47.4883 743.654 47.4883C742.027 47.4883 740.578 47.2035 739.309 46.6338C738.055 46.0641 737.062 45.2015 736.33 44.0459C735.614 42.8903 735.256 41.4255 735.256 39.6514C735.256 36.9821 736.314 34.9313 738.43 33.499C740.546 32.0667 743.768 31.2855 748.098 31.1553L752.712 30.96V29.3242C752.712 27.013 752.215 25.3936 751.223 24.4658C750.23 23.5381 748.83 23.0742 747.023 23.0742C745.624 23.0742 744.289 23.2777 743.02 23.6846C741.75 24.0915 740.546 24.5716 739.406 25.125L738.161 22.0488C739.366 21.4303 740.749 20.9014 742.312 20.4619C743.874 20.0225 745.518 19.8027 747.243 19.8027ZM752.663 33.8164L748.586 33.9873C745.249 34.1175 742.897 34.6628 741.53 35.623C740.163 36.5833 739.479 37.9424 739.479 39.7002C739.479 41.2301 739.943 42.3613 740.871 43.0938C741.799 43.8262 743.028 44.1924 744.558 44.1924C746.934 44.1924 748.879 43.5332 750.393 42.2148C751.906 40.8965 752.663 38.9189 752.663 36.2822V33.8164ZM769.094 47H765.017V9.01172H769.094V47ZM781.716 20.2422V47H777.663V20.2422H781.716ZM779.738 10.2324C780.406 10.2324 780.975 10.4521 781.447 10.8916C781.936 11.3148 782.18 11.9821 782.18 12.8936C782.18 13.7887 781.936 14.4561 781.447 14.8955C780.975 15.335 780.406 15.5547 779.738 15.5547C779.038 15.5547 778.452 15.335 777.98 14.8955C777.525 14.4561 777.297 13.7887 777.297 12.8936C777.297 11.9821 777.525 11.3148 777.98 10.8916C778.452 10.4521 779.038 10.2324 779.738 10.2324ZM807.619 39.6758C807.619 41.3848 807.188 42.8252 806.325 43.9971C805.479 45.1527 804.258 46.0234 802.663 46.6094C801.084 47.1953 799.196 47.4883 796.999 47.4883C795.127 47.4883 793.508 47.3418 792.141 47.0488C790.773 46.7559 789.577 46.3408 788.552 45.8037V42.0684C789.642 42.6055 790.944 43.0938 792.458 43.5332C793.972 43.9727 795.518 44.1924 797.097 44.1924C799.408 44.1924 801.084 43.818 802.126 43.0693C803.168 42.3206 803.688 41.3034 803.688 40.0176C803.688 39.2852 803.477 38.6423 803.054 38.0889C802.647 37.5192 801.955 36.974 800.979 36.4531C800.002 35.916 798.651 35.3301 796.926 34.6953C795.217 34.0443 793.736 33.4014 792.482 32.7666C791.245 32.1156 790.285 31.3262 789.602 30.3984C788.934 29.4707 788.601 28.2663 788.601 26.7852C788.601 24.5228 789.512 22.7894 791.335 21.585C793.174 20.3643 795.583 19.7539 798.562 19.7539C800.173 19.7539 801.678 19.9167 803.078 20.2422C804.494 20.5514 805.812 20.9746 807.033 21.5117L805.666 24.7588C804.559 24.2868 803.379 23.888 802.126 23.5625C800.873 23.237 799.595 23.0742 798.293 23.0742C796.421 23.0742 794.981 23.3835 793.972 24.002C792.979 24.6204 792.482 25.4668 792.482 26.541C792.482 27.3711 792.71 28.0547 793.166 28.5918C793.638 29.1289 794.387 29.6335 795.412 30.1055C796.438 30.5775 797.788 31.1309 799.465 31.7656C801.141 32.3841 802.59 33.027 803.811 33.6943C805.031 34.3454 805.967 35.1429 806.618 36.0869C807.285 37.0146 807.619 38.2109 807.619 39.6758ZM822.78 44.168C823.448 44.168 824.131 44.111 824.831 43.9971C825.531 43.8831 826.101 43.7448 826.54 43.582V46.7314C826.068 46.943 825.409 47.1221 824.562 47.2686C823.732 47.415 822.919 47.4883 822.121 47.4883C820.705 47.4883 819.419 47.2441 818.264 46.7559C817.108 46.2513 816.18 45.4049 815.48 44.2168C814.797 43.0286 814.455 41.3848 814.455 39.2852V23.416H810.646V21.4385L814.479 19.8516L816.091 14.041H818.532V20.2422H826.369V23.416H818.532V39.1631C818.532 40.8395 818.915 42.0928 819.68 42.9229C820.461 43.7529 821.494 44.168 822.78 44.168ZM841.97 19.8027C845.16 19.8027 847.528 20.5189 849.074 21.9512C850.62 23.3835 851.394 25.6702 851.394 28.8115V47H848.439L847.658 43.0449H847.463C846.714 44.0215 845.933 44.8434 845.119 45.5107C844.305 46.1618 843.361 46.6582 842.287 47C841.229 47.3255 839.927 47.4883 838.381 47.4883C836.753 47.4883 835.305 47.2035 834.035 46.6338C832.782 46.0641 831.789 45.2015 831.057 44.0459C830.34 42.8903 829.982 41.4255 829.982 39.6514C829.982 36.9821 831.04 34.9313 833.156 33.499C835.272 32.0667 838.495 31.2855 842.824 31.1553L847.438 30.96V29.3242C847.438 27.013 846.942 25.3936 845.949 24.4658C844.956 23.5381 843.557 23.0742 841.75 23.0742C840.35 23.0742 839.016 23.2777 837.746 23.6846C836.477 24.0915 835.272 24.5716 834.133 25.125L832.888 22.0488C834.092 21.4303 835.476 20.9014 837.038 20.4619C838.601 20.0225 840.244 19.8027 841.97 19.8027ZM847.39 33.8164L843.312 33.9873C839.976 34.1175 837.624 34.6628 836.257 35.623C834.89 36.5833 834.206 37.9424 834.206 39.7002C834.206 41.2301 834.67 42.3613 835.598 43.0938C836.525 43.8262 837.754 44.1924 839.284 44.1924C841.66 44.1924 843.605 43.5332 845.119 42.2148C846.633 40.8965 847.39 38.9189 847.39 36.2822V33.8164ZM877.053 39.6758C877.053 41.3848 876.621 42.8252 875.759 43.9971C874.912 45.1527 873.692 46.0234 872.097 46.6094C870.518 47.1953 868.63 47.4883 866.433 47.4883C864.561 47.4883 862.941 47.3418 861.574 47.0488C860.207 46.7559 859.011 46.3408 857.985 45.8037V42.0684C859.076 42.6055 860.378 43.0938 861.892 43.5332C863.405 43.9727 864.951 44.1924 866.53 44.1924C868.841 44.1924 870.518 43.818 871.56 43.0693C872.601 42.3206 873.122 41.3034 873.122 40.0176C873.122 39.2852 872.91 38.6423 872.487 38.0889C872.08 37.5192 871.389 36.974 870.412 36.4531C869.436 35.916 868.085 35.3301 866.359 34.6953C864.65 34.0443 863.169 33.4014 861.916 32.7666C860.679 32.1156 859.719 31.3262 859.035 30.3984C858.368 29.4707 858.034 28.2663 858.034 26.7852C858.034 24.5228 858.946 22.7894 860.769 21.585C862.608 20.3643 865.017 19.7539 867.995 19.7539C869.606 19.7539 871.112 19.9167 872.512 20.2422C873.928 20.5514 875.246 20.9746 876.467 21.5117L875.1 24.7588C873.993 24.2868 872.813 23.888 871.56 23.5625C870.306 23.237 869.029 23.0742 867.727 23.0742C865.855 23.0742 864.414 23.3835 863.405 24.002C862.412 24.6204 861.916 25.4668 861.916 26.541C861.916 27.3711 862.144 28.0547 862.6 28.5918C863.072 29.1289 863.82 29.6335 864.846 30.1055C865.871 30.5775 867.222 31.1309 868.898 31.7656C870.575 32.3841 872.023 33.027 873.244 33.6943C874.465 34.3454 875.401 35.1429 876.052 36.0869C876.719 37.0146 877.053 38.2109 877.053 39.6758ZM909.133 19.7539C912.469 19.7539 915.131 20.9014 917.116 23.1963C919.102 25.4912 920.095 28.9417 920.095 33.5479C920.095 36.5915 919.639 39.1468 918.728 41.2139C917.816 43.2809 916.53 44.8434 914.87 45.9014C913.226 46.9593 911.281 47.4883 909.035 47.4883C907.619 47.4883 906.374 47.3011 905.3 46.9268C904.226 46.5524 903.306 46.0479 902.541 45.4131C901.776 44.7783 901.141 44.0866 900.637 43.3379H900.344C900.393 43.9727 900.45 44.7376 900.515 45.6328C900.596 46.528 900.637 47.3092 900.637 47.9766V58.9629H896.56V20.2422H899.904L900.441 24.1973H900.637C901.158 23.3835 901.792 22.6429 902.541 21.9756C903.29 21.292 904.201 20.7549 905.275 20.3643C906.366 19.9574 907.652 19.7539 909.133 19.7539ZM908.425 23.1719C906.569 23.1719 905.072 23.5299 903.933 24.2461C902.81 24.9622 901.988 26.0365 901.467 27.4688C900.946 28.8848 900.669 30.667 900.637 32.8154V33.5967C900.637 35.859 900.881 37.7715 901.369 39.334C901.874 40.8965 902.696 42.0846 903.835 42.8984C904.991 43.7122 906.537 44.1191 908.474 44.1191C910.134 44.1191 911.517 43.6715 912.624 42.7764C913.731 41.8812 914.553 40.6361 915.09 39.041C915.643 37.4297 915.92 35.5824 915.92 33.499C915.92 30.3415 915.301 27.835 914.064 25.9795C912.844 24.1077 910.964 23.1719 908.425 23.1719ZM937.185 19.8027C940.375 19.8027 942.743 20.5189 944.289 21.9512C945.835 23.3835 946.608 25.6702 946.608 28.8115V47H943.654L942.873 43.0449H942.678C941.929 44.0215 941.148 44.8434 940.334 45.5107C939.52 46.1618 938.576 46.6582 937.502 47C936.444 47.3255 935.142 47.4883 933.596 47.4883C931.968 47.4883 930.52 47.2035 929.25 46.6338C927.997 46.0641 927.004 45.2015 926.271 44.0459C925.555 42.8903 925.197 41.4255 925.197 39.6514C925.197 36.9821 926.255 34.9313 928.371 33.499C930.487 32.0667 933.71 31.2855 938.039 31.1553L942.653 30.96V29.3242C942.653 27.013 942.157 25.3936 941.164 24.4658C940.171 23.5381 938.771 23.0742 936.965 23.0742C935.565 23.0742 934.23 23.2777 932.961 23.6846C931.691 24.0915 930.487 24.5716 929.348 25.125L928.103 22.0488C929.307 21.4303 930.69 20.9014 932.253 20.4619C933.815 20.0225 935.459 19.8027 937.185 19.8027ZM942.604 33.8164L938.527 33.9873C935.191 34.1175 932.839 34.6628 931.472 35.623C930.104 36.5833 929.421 37.9424 929.421 39.7002C929.421 41.2301 929.885 42.3613 930.812 43.0938C931.74 43.8262 932.969 44.1924 934.499 44.1924C936.875 44.1924 938.82 43.5332 940.334 42.2148C941.848 40.8965 942.604 38.9189 942.604 36.2822V33.8164ZM967.116 19.7539C967.653 19.7539 968.215 19.7865 968.801 19.8516C969.387 19.9004 969.908 19.9736 970.363 20.0713L969.851 23.8311C969.411 23.7171 968.923 23.6276 968.386 23.5625C967.849 23.4974 967.344 23.4648 966.872 23.4648C965.798 23.4648 964.781 23.6846 963.82 24.124C962.876 24.5472 962.046 25.1657 961.33 25.9795C960.614 26.777 960.052 27.7454 959.646 28.8848C959.239 30.0078 959.035 31.2611 959.035 32.6445V47H954.958V20.2422H958.327L958.767 25.1738H958.938C959.491 24.181 960.158 23.2777 960.939 22.4639C961.721 21.6338 962.624 20.9746 963.649 20.4863C964.691 19.998 965.847 19.7539 967.116 19.7539ZM985.427 19.8027C988.617 19.8027 990.985 20.5189 992.531 21.9512C994.077 23.3835 994.851 25.6702 994.851 28.8115V47H991.896L991.115 43.0449H990.92C990.171 44.0215 989.39 44.8434 988.576 45.5107C987.762 46.1618 986.818 46.6582 985.744 47C984.686 47.3255 983.384 47.4883 981.838 47.4883C980.21 47.4883 978.762 47.2035 977.492 46.6338C976.239 46.0641 975.246 45.2015 974.514 44.0459C973.798 42.8903 973.439 41.4255 973.439 39.6514C973.439 36.9821 974.497 34.9313 976.613 33.499C978.729 32.0667 981.952 31.2855 986.281 31.1553L990.896 30.96V29.3242C990.896 27.013 990.399 25.3936 989.406 24.4658C988.413 23.5381 987.014 23.0742 985.207 23.0742C983.807 23.0742 982.473 23.2777 981.203 23.6846C979.934 24.0915 978.729 24.5716 977.59 25.125L976.345 22.0488C977.549 21.4303 978.933 20.9014 980.495 20.4619C982.058 20.0225 983.701 19.8027 985.427 19.8027ZM990.847 33.8164L986.77 33.9873C983.433 34.1175 981.081 34.6628 979.714 35.623C978.347 36.5833 977.663 37.9424 977.663 39.7002C977.663 41.2301 978.127 42.3613 979.055 43.0938C979.982 43.8262 981.211 44.1924 982.741 44.1924C985.118 44.1924 987.062 43.5332 988.576 42.2148C990.09 40.8965 990.847 38.9189 990.847 36.2822V33.8164ZM1028.35 19.7539C1028.88 19.7539 1029.45 19.7865 1030.03 19.8516C1030.62 19.9004 1031.14 19.9736 1031.59 20.0713L1031.08 23.8311C1030.64 23.7171 1030.15 23.6276 1029.62 23.5625C1029.08 23.4974 1028.57 23.4648 1028.1 23.4648C1027.03 23.4648 1026.01 23.6846 1025.05 24.124C1024.11 24.5472 1023.28 25.1657 1022.56 25.9795C1021.84 26.777 1021.28 27.7454 1020.88 28.8848C1020.47 30.0078 1020.27 31.2611 1020.27 32.6445V47H1016.19V20.2422H1019.56L1020 25.1738H1020.17C1020.72 24.181 1021.39 23.2777 1022.17 22.4639C1022.95 21.6338 1023.85 20.9746 1024.88 20.4863C1025.92 19.998 1027.08 19.7539 1028.35 19.7539ZM1046.95 19.7539C1049.23 19.7539 1051.18 20.2585 1052.81 21.2676C1054.44 22.2767 1055.68 23.6927 1056.54 25.5156C1057.41 27.3223 1057.84 29.4382 1057.84 31.8633V34.3779H1039.36C1039.41 37.5192 1040.19 39.9118 1041.7 41.5557C1043.21 43.1995 1045.35 44.0215 1048.1 44.0215C1049.79 44.0215 1051.29 43.8669 1052.59 43.5576C1053.89 43.2484 1055.24 42.7926 1056.64 42.1904V45.7549C1055.29 46.3571 1053.95 46.7965 1052.61 47.0732C1051.3 47.3499 1049.73 47.4883 1047.93 47.4883C1045.36 47.4883 1043.11 46.9674 1041.19 45.9258C1039.28 44.8678 1037.8 43.3216 1036.75 41.2871C1035.69 39.2526 1035.16 36.7624 1035.16 33.8164C1035.16 30.9355 1035.64 28.4453 1036.6 26.3457C1037.58 24.2298 1038.94 22.6022 1040.7 21.4629C1042.47 20.3236 1044.56 19.7539 1046.95 19.7539ZM1046.9 23.0742C1044.74 23.0742 1043.01 23.7822 1041.73 25.1982C1040.44 26.6143 1039.67 28.5918 1039.43 31.1309H1053.59C1053.57 29.5358 1053.32 28.1361 1052.83 26.9316C1052.36 25.7109 1051.64 24.7669 1050.66 24.0996C1049.68 23.416 1048.43 23.0742 1046.9 23.0742ZM1082.03 39.6758C1082.03 41.3848 1081.6 42.8252 1080.74 43.9971C1079.89 45.1527 1078.67 46.0234 1077.08 46.6094C1075.5 47.1953 1073.61 47.4883 1071.41 47.4883C1069.54 47.4883 1067.92 47.3418 1066.55 47.0488C1065.19 46.7559 1063.99 46.3408 1062.97 45.8037V42.0684C1064.06 42.6055 1065.36 43.0938 1066.87 43.5332C1068.39 43.9727 1069.93 44.1924 1071.51 44.1924C1073.82 44.1924 1075.5 43.818 1076.54 43.0693C1077.58 42.3206 1078.1 41.3034 1078.1 40.0176C1078.1 39.2852 1077.89 38.6423 1077.47 38.0889C1077.06 37.5192 1076.37 36.974 1075.39 36.4531C1074.42 35.916 1073.07 35.3301 1071.34 34.6953C1069.63 34.0443 1068.15 33.4014 1066.9 32.7666C1065.66 32.1156 1064.7 31.3262 1064.02 30.3984C1063.35 29.4707 1063.01 28.2663 1063.01 26.7852C1063.01 24.5228 1063.93 22.7894 1065.75 21.585C1067.59 20.3643 1070 19.7539 1072.98 19.7539C1074.59 19.7539 1076.09 19.9167 1077.49 20.2422C1078.91 20.5514 1080.23 20.9746 1081.45 21.5117L1080.08 24.7588C1078.97 24.2868 1077.79 23.888 1076.54 23.5625C1075.29 23.237 1074.01 23.0742 1072.71 23.0742C1070.84 23.0742 1069.39 23.3835 1068.39 24.002C1067.39 24.6204 1066.9 25.4668 1066.9 26.541C1066.9 27.3711 1067.12 28.0547 1067.58 28.5918C1068.05 29.1289 1068.8 29.6335 1069.83 30.1055C1070.85 30.5775 1072.2 31.1309 1073.88 31.7656C1075.56 32.3841 1077 33.027 1078.22 33.6943C1079.45 34.3454 1080.38 35.1429 1081.03 36.0869C1081.7 37.0146 1082.03 38.2109 1082.03 39.6758ZM1101.12 19.7539C1104.46 19.7539 1107.12 20.9014 1109.11 23.1963C1111.09 25.4912 1112.09 28.9417 1112.09 33.5479C1112.09 36.5915 1111.63 39.1468 1110.72 41.2139C1109.81 43.2809 1108.52 44.8434 1106.86 45.9014C1105.22 46.9593 1103.27 47.4883 1101.03 47.4883C1099.61 47.4883 1098.37 47.3011 1097.29 46.9268C1096.22 46.5524 1095.3 46.0479 1094.53 45.4131C1093.77 44.7783 1093.13 44.0866 1092.63 43.3379H1092.34C1092.38 43.9727 1092.44 44.7376 1092.51 45.6328C1092.59 46.528 1092.63 47.3092 1092.63 47.9766V58.9629H1088.55V20.2422H1091.9L1092.43 24.1973H1092.63C1093.15 23.3835 1093.78 22.6429 1094.53 21.9756C1095.28 21.292 1096.19 20.7549 1097.27 20.3643C1098.36 19.9574 1099.64 19.7539 1101.12 19.7539ZM1100.42 23.1719C1098.56 23.1719 1097.06 23.5299 1095.92 24.2461C1094.8 24.9622 1093.98 26.0365 1093.46 27.4688C1092.94 28.8848 1092.66 30.667 1092.63 32.8154V33.5967C1092.63 35.859 1092.87 37.7715 1093.36 39.334C1093.87 40.8965 1094.69 42.0846 1095.83 42.8984C1096.98 43.7122 1098.53 44.1191 1100.47 44.1191C1102.13 44.1191 1103.51 43.6715 1104.62 42.7764C1105.72 41.8812 1106.54 40.6361 1107.08 39.041C1107.64 37.4297 1107.91 35.5824 1107.91 33.499C1107.91 30.3415 1107.29 27.835 1106.06 25.9795C1104.84 24.1077 1102.96 23.1719 1100.42 23.1719ZM1142.24 33.5723C1142.24 35.7695 1141.95 37.7308 1141.38 39.4561C1140.81 41.1813 1139.99 42.638 1138.92 43.8262C1137.84 45.0143 1136.54 45.9258 1135.01 46.5605C1133.5 47.179 1131.78 47.4883 1129.86 47.4883C1128.07 47.4883 1126.43 47.179 1124.93 46.5605C1123.45 45.9258 1122.16 45.0143 1121.07 43.8262C1120 42.638 1119.16 41.1813 1118.56 39.4561C1117.97 37.7308 1117.68 35.7695 1117.68 33.5723C1117.68 30.6426 1118.17 28.1523 1119.17 26.1016C1120.16 24.0345 1121.58 22.4639 1123.42 21.3896C1125.27 20.2992 1127.48 19.7539 1130.03 19.7539C1132.47 19.7539 1134.6 20.2992 1136.43 21.3896C1138.27 22.4801 1139.69 24.0589 1140.7 26.126C1141.73 28.1768 1142.24 30.6589 1142.24 33.5723ZM1121.88 33.5723C1121.88 35.7207 1122.16 37.5843 1122.73 39.1631C1123.3 40.7419 1124.18 41.9626 1125.37 42.8252C1126.56 43.6878 1128.09 44.1191 1129.96 44.1191C1131.81 44.1191 1133.34 43.6878 1134.52 42.8252C1135.73 41.9626 1136.61 40.7419 1137.18 39.1631C1137.75 37.5843 1138.04 35.7207 1138.04 33.5723C1138.04 31.4401 1137.75 29.6009 1137.18 28.0547C1136.61 26.4922 1135.74 25.2878 1134.55 24.4414C1133.36 23.5951 1131.82 23.1719 1129.93 23.1719C1127.15 23.1719 1125.11 24.0915 1123.81 25.9307C1122.52 27.7699 1121.88 30.3171 1121.88 33.5723ZM1161.92 19.7539C1165.09 19.7539 1167.49 20.5352 1169.12 22.0977C1170.75 23.6439 1171.56 26.1341 1171.56 29.5684V47H1167.56V29.8369C1167.56 27.6071 1167.04 25.9388 1166.02 24.832C1165.01 23.7253 1163.45 23.1719 1161.35 23.1719C1158.39 23.1719 1156.31 24.0101 1155.1 25.6865C1153.9 27.363 1153.3 29.7962 1153.3 32.9863V47H1149.25V20.2422H1152.52L1153.13 24.0996H1153.35C1153.92 23.1556 1154.64 22.3662 1155.52 21.7314C1156.4 21.0804 1157.38 20.5921 1158.47 20.2666C1159.56 19.9248 1160.71 19.7539 1161.92 19.7539ZM1189.43 47.4883C1186.05 47.4883 1183.36 46.3327 1181.37 44.0215C1179.4 41.7103 1178.42 38.276 1178.42 33.7188C1178.42 29.1126 1179.43 25.6377 1181.45 23.2939C1183.47 20.9339 1186.15 19.7539 1189.5 19.7539C1190.92 19.7539 1192.16 19.9411 1193.21 20.3154C1194.27 20.6898 1195.18 21.1943 1195.95 21.8291C1196.71 22.4476 1197.36 23.1556 1197.88 23.9531H1198.17C1198.11 23.4486 1198.04 22.7568 1197.98 21.8779C1197.91 20.999 1197.88 20.2829 1197.88 19.7295V9.01172H1201.93V47H1198.66L1198.05 43.1914H1197.88C1197.37 43.9889 1196.73 44.7132 1195.95 45.3643C1195.18 46.0153 1194.26 46.5361 1193.19 46.9268C1192.13 47.3011 1190.88 47.4883 1189.43 47.4883ZM1190.07 44.1191C1192.93 44.1191 1194.96 43.3053 1196.14 41.6777C1197.33 40.0501 1197.93 37.6331 1197.93 34.4268V33.6943C1197.93 30.2926 1197.36 27.6803 1196.22 25.8574C1195.09 24.0345 1193.04 23.123 1190.07 23.123C1187.58 23.123 1185.71 24.0833 1184.47 26.0039C1183.24 27.9082 1182.62 30.5124 1182.62 33.8164C1182.62 37.1042 1183.23 39.6432 1184.45 41.4336C1185.69 43.224 1187.56 44.1191 1190.07 44.1191ZM1220.83 19.7539C1223.11 19.7539 1225.06 20.2585 1226.69 21.2676C1228.31 22.2767 1229.56 23.6927 1230.42 25.5156C1231.28 27.3223 1231.72 29.4382 1231.72 31.8633V34.3779H1213.23C1213.28 37.5192 1214.06 39.9118 1215.58 41.5557C1217.09 43.1995 1219.22 44.0215 1221.97 44.0215C1223.67 44.0215 1225.16 43.8669 1226.47 43.5576C1227.77 43.2484 1229.12 42.7926 1230.52 42.1904V45.7549C1229.17 46.3571 1227.83 46.7965 1226.49 47.0732C1225.17 47.3499 1223.61 47.4883 1221.8 47.4883C1219.23 47.4883 1216.99 46.9674 1215.07 45.9258C1213.16 44.8678 1211.68 43.3216 1210.62 41.2871C1209.56 39.2526 1209.04 36.7624 1209.04 33.8164C1209.04 30.9355 1209.52 28.4453 1210.48 26.3457C1211.45 24.2298 1212.82 22.6022 1214.58 21.4629C1216.35 20.3236 1218.43 19.7539 1220.83 19.7539ZM1220.78 23.0742C1218.61 23.0742 1216.89 23.7822 1215.6 25.1982C1214.32 26.6143 1213.55 28.5918 1213.31 31.1309H1227.47C1227.45 29.5358 1227.2 28.1361 1226.71 26.9316C1226.24 25.7109 1225.51 24.7669 1224.54 24.0996C1223.56 23.416 1222.31 23.0742 1220.78 23.0742ZM1250.76 19.7539C1251.3 19.7539 1251.86 19.7865 1252.44 19.8516C1253.03 19.9004 1253.55 19.9736 1254.01 20.0713L1253.49 23.8311C1253.05 23.7171 1252.57 23.6276 1252.03 23.5625C1251.49 23.4974 1250.99 23.4648 1250.51 23.4648C1249.44 23.4648 1248.42 23.6846 1247.46 24.124C1246.52 24.5472 1245.69 25.1657 1244.97 25.9795C1244.26 26.777 1243.69 27.7454 1243.29 28.8848C1242.88 30.0078 1242.68 31.2611 1242.68 32.6445V47H1238.6V20.2422H1241.97L1242.41 25.1738H1242.58C1243.13 24.181 1243.8 23.2777 1244.58 22.4639C1245.36 21.6338 1246.27 20.9746 1247.29 20.4863C1248.33 19.998 1249.49 19.7539 1250.76 19.7539ZM1282.06 19.8027C1285.25 19.8027 1287.62 20.5189 1289.16 21.9512C1290.71 23.3835 1291.48 25.6702 1291.48 28.8115V47H1288.53L1287.75 43.0449H1287.55C1286.8 44.0215 1286.02 44.8434 1285.21 45.5107C1284.39 46.1618 1283.45 46.6582 1282.38 47C1281.32 47.3255 1280.01 47.4883 1278.47 47.4883C1276.84 47.4883 1275.39 47.2035 1274.12 46.6338C1272.87 46.0641 1271.88 45.2015 1271.14 44.0459C1270.43 42.8903 1270.07 41.4255 1270.07 39.6514C1270.07 36.9821 1271.13 34.9313 1273.24 33.499C1275.36 32.0667 1278.58 31.2855 1282.91 31.1553L1287.53 30.96V29.3242C1287.53 27.013 1287.03 25.3936 1286.04 24.4658C1285.04 23.5381 1283.64 23.0742 1281.84 23.0742C1280.44 23.0742 1279.1 23.2777 1277.83 23.6846C1276.56 24.0915 1275.36 24.5716 1274.22 25.125L1272.98 22.0488C1274.18 21.4303 1275.56 20.9014 1277.13 20.4619C1278.69 20.0225 1280.33 19.8027 1282.06 19.8027ZM1287.48 33.8164L1283.4 33.9873C1280.06 34.1175 1277.71 34.6628 1276.34 35.623C1274.98 36.5833 1274.29 37.9424 1274.29 39.7002C1274.29 41.2301 1274.76 42.3613 1275.69 43.0938C1276.61 43.8262 1277.84 44.1924 1279.37 44.1924C1281.75 44.1924 1283.69 43.5332 1285.21 42.2148C1286.72 40.8965 1287.48 38.9189 1287.48 36.2822V33.8164ZM1279.98 8.69434C1280.37 9.44303 1280.85 10.2812 1281.42 11.209C1282.01 12.1204 1282.62 13.0156 1283.25 13.8945C1283.9 14.7572 1284.5 15.4977 1285.04 16.1162V16.7021H1282.28C1281.69 16.2301 1281.05 15.6686 1280.35 15.0176C1279.67 14.3665 1278.98 13.6829 1278.3 12.9668C1277.61 12.2344 1277 11.5426 1276.44 10.8916C1275.89 10.2243 1275.46 9.65462 1275.15 9.18262V8.69434H1279.98ZM1317.14 39.6758C1317.14 41.3848 1316.71 42.8252 1315.85 43.9971C1315 45.1527 1313.78 46.0234 1312.18 46.6094C1310.61 47.1953 1308.72 47.4883 1306.52 47.4883C1304.65 47.4883 1303.03 47.3418 1301.66 47.0488C1300.29 46.7559 1299.1 46.3408 1298.07 45.8037V42.0684C1299.16 42.6055 1300.47 43.0938 1301.98 43.5332C1303.49 43.9727 1305.04 44.1924 1306.62 44.1924C1308.93 44.1924 1310.61 43.818 1311.65 43.0693C1312.69 42.3206 1313.21 41.3034 1313.21 40.0176C1313.21 39.2852 1313 38.6423 1312.58 38.0889C1312.17 37.5192 1311.48 36.974 1310.5 36.4531C1309.52 35.916 1308.17 35.3301 1306.45 34.6953C1304.74 34.0443 1303.26 33.4014 1302 32.7666C1300.77 32.1156 1299.81 31.3262 1299.12 30.3984C1298.46 29.4707 1298.12 28.2663 1298.12 26.7852C1298.12 24.5228 1299.03 22.7894 1300.86 21.585C1302.7 20.3643 1305.1 19.7539 1308.08 19.7539C1309.69 19.7539 1311.2 19.9167 1312.6 20.2422C1314.02 20.5514 1315.33 20.9746 1316.55 21.5117L1315.19 24.7588C1314.08 24.2868 1312.9 23.888 1311.65 23.5625C1310.39 23.237 1309.12 23.0742 1307.81 23.0742C1305.94 23.0742 1304.5 23.3835 1303.49 24.002C1302.5 24.6204 1302 25.4668 1302 26.541C1302 27.3711 1302.23 28.0547 1302.69 28.5918C1303.16 29.1289 1303.91 29.6335 1304.93 30.1055C1305.96 30.5775 1307.31 31.1309 1308.99 31.7656C1310.66 32.3841 1312.11 33.027 1313.33 33.6943C1314.55 34.3454 1315.49 35.1429 1316.14 36.0869C1316.81 37.0146 1317.14 38.2109 1317.14 39.6758ZM1345.29 44.168C1345.96 44.168 1346.64 44.111 1347.34 43.9971C1348.04 43.8831 1348.61 43.7448 1349.05 43.582V46.7314C1348.58 46.943 1347.92 47.1221 1347.07 47.2686C1346.24 47.415 1345.43 47.4883 1344.63 47.4883C1343.21 47.4883 1341.93 47.2441 1340.77 46.7559C1339.62 46.2513 1338.69 45.4049 1337.99 44.2168C1337.31 43.0286 1336.96 41.3848 1336.96 39.2852V23.416H1333.16V21.4385L1336.99 19.8516L1338.6 14.041H1341.04V20.2422H1348.88V23.416H1341.04V39.1631C1341.04 40.8395 1341.42 42.0928 1342.19 42.9229C1342.97 43.7529 1344 44.168 1345.29 44.168ZM1376.56 20.2422V47H1373.24L1372.66 43.2402H1372.44C1371.89 44.168 1371.17 44.9492 1370.29 45.584C1369.41 46.2188 1368.42 46.6908 1367.31 47C1366.22 47.3255 1365.06 47.4883 1363.82 47.4883C1361.7 47.4883 1359.93 47.1465 1358.5 46.4629C1357.07 45.7793 1355.98 44.7214 1355.25 43.2891C1354.53 41.8568 1354.18 40.0176 1354.18 37.7715V20.2422H1358.28V37.4785C1358.28 39.7083 1358.78 41.3766 1359.79 42.4834C1360.8 43.5739 1362.34 44.1191 1364.41 44.1191C1366.39 44.1191 1367.97 43.7448 1369.14 42.9961C1370.33 42.2474 1371.19 41.1488 1371.71 39.7002C1372.23 38.2354 1372.49 36.445 1372.49 34.3291V20.2422H1376.56ZM1395.14 19.8027C1398.33 19.8027 1400.7 20.5189 1402.25 21.9512C1403.79 23.3835 1404.57 25.6702 1404.57 28.8115V47H1401.61L1400.83 43.0449H1400.64C1399.89 44.0215 1399.11 44.8434 1398.29 45.5107C1397.48 46.1618 1396.54 46.6582 1395.46 47C1394.4 47.3255 1393.1 47.4883 1391.55 47.4883C1389.93 47.4883 1388.48 47.2035 1387.21 46.6338C1385.96 46.0641 1384.96 45.2015 1384.23 44.0459C1383.51 42.8903 1383.16 41.4255 1383.16 39.6514C1383.16 36.9821 1384.21 34.9313 1386.33 33.499C1388.45 32.0667 1391.67 31.2855 1396 31.1553L1400.61 30.96V29.3242C1400.61 27.013 1400.12 25.3936 1399.12 24.4658C1398.13 23.5381 1396.73 23.0742 1394.92 23.0742C1393.52 23.0742 1392.19 23.2777 1390.92 23.6846C1389.65 24.0915 1388.45 24.5716 1387.31 25.125L1386.06 22.0488C1387.27 21.4303 1388.65 20.9014 1390.21 20.4619C1391.77 20.0225 1393.42 19.8027 1395.14 19.8027ZM1400.56 33.8164L1396.49 33.9873C1393.15 34.1175 1390.8 34.6628 1389.43 35.623C1388.06 36.5833 1387.38 37.9424 1387.38 39.7002C1387.38 41.2301 1387.84 42.3613 1388.77 43.0938C1389.7 43.8262 1390.93 44.1924 1392.46 44.1924C1394.83 44.1924 1396.78 43.5332 1398.29 42.2148C1399.81 40.8965 1400.56 38.9189 1400.56 36.2822V33.8164ZM1430.23 39.6758C1430.23 41.3848 1429.8 42.8252 1428.93 43.9971C1428.09 45.1527 1426.87 46.0234 1425.27 46.6094C1423.69 47.1953 1421.8 47.4883 1419.61 47.4883C1417.73 47.4883 1416.12 47.3418 1414.75 47.0488C1413.38 46.7559 1412.18 46.3408 1411.16 45.8037V42.0684C1412.25 42.6055 1413.55 43.0938 1415.07 43.5332C1416.58 43.9727 1418.13 44.1924 1419.7 44.1924C1422.02 44.1924 1423.69 43.818 1424.73 43.0693C1425.78 42.3206 1426.3 41.3034 1426.3 40.0176C1426.3 39.2852 1426.08 38.6423 1425.66 38.0889C1425.25 37.5192 1424.56 36.974 1423.59 36.4531C1422.61 35.916 1421.26 35.3301 1419.53 34.6953C1417.82 34.0443 1416.34 33.4014 1415.09 32.7666C1413.85 32.1156 1412.89 31.3262 1412.21 30.3984C1411.54 29.4707 1411.21 28.2663 1411.21 26.7852C1411.21 24.5228 1412.12 22.7894 1413.94 21.585C1415.78 20.3643 1418.19 19.7539 1421.17 19.7539C1422.78 19.7539 1424.29 19.9167 1425.69 20.2422C1427.1 20.5514 1428.42 20.9746 1429.64 21.5117L1428.27 24.7588C1427.17 24.2868 1425.99 23.888 1424.73 23.5625C1423.48 23.237 1422.2 23.0742 1420.9 23.0742C1419.03 23.0742 1417.59 23.3835 1416.58 24.002C1415.59 24.6204 1415.09 25.4668 1415.09 26.541C1415.09 27.3711 1415.32 28.0547 1415.77 28.5918C1416.25 29.1289 1416.99 29.6335 1418.02 30.1055C1419.04 30.5775 1420.4 31.1309 1422.07 31.7656C1423.75 32.3841 1425.2 33.027 1426.42 33.6943C1427.64 34.3454 1428.57 35.1429 1429.23 36.0869C1429.89 37.0146 1430.23 38.2109 1430.23 39.6758ZM1462.31 19.7539C1465.64 19.7539 1468.3 20.9014 1470.29 23.1963C1472.28 25.4912 1473.27 28.9417 1473.27 33.5479C1473.27 36.5915 1472.81 39.1468 1471.9 41.2139C1470.99 43.2809 1469.7 44.8434 1468.04 45.9014C1466.4 46.9593 1464.46 47.4883 1462.21 47.4883C1460.79 47.4883 1459.55 47.3011 1458.47 46.9268C1457.4 46.5524 1456.48 46.0479 1455.71 45.4131C1454.95 44.7783 1454.32 44.0866 1453.81 43.3379H1453.52C1453.57 43.9727 1453.62 44.7376 1453.69 45.6328C1453.77 46.528 1453.81 47.3092 1453.81 47.9766V58.9629H1449.73V20.2422H1453.08L1453.62 24.1973H1453.81C1454.33 23.3835 1454.97 22.6429 1455.71 21.9756C1456.46 21.292 1457.38 20.7549 1458.45 20.3643C1459.54 19.9574 1460.83 19.7539 1462.31 19.7539ZM1461.6 23.1719C1459.74 23.1719 1458.25 23.5299 1457.11 24.2461C1455.98 24.9622 1455.16 26.0365 1454.64 27.4688C1454.12 28.8848 1453.84 30.667 1453.81 32.8154V33.5967C1453.81 35.859 1454.05 37.7715 1454.54 39.334C1455.05 40.8965 1455.87 42.0846 1457.01 42.8984C1458.16 43.7122 1459.71 44.1191 1461.65 44.1191C1463.31 44.1191 1464.69 43.6715 1465.8 42.7764C1466.9 41.8812 1467.73 40.6361 1468.26 39.041C1468.82 37.4297 1469.09 35.5824 1469.09 33.499C1469.09 30.3415 1468.48 27.835 1467.24 25.9795C1466.02 24.1077 1464.14 23.1719 1461.6 23.1719ZM1490.65 19.7539C1492.93 19.7539 1494.88 20.2585 1496.51 21.2676C1498.14 22.2767 1499.38 23.6927 1500.25 25.5156C1501.11 27.3223 1501.54 29.4382 1501.54 31.8633V34.3779H1483.06C1483.11 37.5192 1483.89 39.9118 1485.4 41.5557C1486.92 43.1995 1489.05 44.0215 1491.8 44.0215C1493.49 44.0215 1494.99 43.8669 1496.29 43.5576C1497.59 43.2484 1498.94 42.7926 1500.34 42.1904V45.7549C1498.99 46.3571 1497.65 46.7965 1496.32 47.0732C1495 47.3499 1493.43 47.4883 1491.63 47.4883C1489.06 47.4883 1486.81 46.9674 1484.89 45.9258C1482.99 44.8678 1481.5 43.3216 1480.45 41.2871C1479.39 39.2526 1478.86 36.7624 1478.86 33.8164C1478.86 30.9355 1479.34 28.4453 1480.3 26.3457C1481.28 24.2298 1482.64 22.6022 1484.4 21.4629C1486.18 20.3236 1488.26 19.7539 1490.65 19.7539ZM1490.6 23.0742C1488.44 23.0742 1486.71 23.7822 1485.43 25.1982C1484.14 26.6143 1483.38 28.5918 1483.13 31.1309H1497.29C1497.28 29.5358 1497.02 28.1361 1496.54 26.9316C1496.06 25.7109 1495.34 24.7669 1494.36 24.0996C1493.39 23.416 1492.13 23.0742 1490.6 23.0742ZM1520.58 19.7539C1521.12 19.7539 1521.68 19.7865 1522.27 19.8516C1522.85 19.9004 1523.37 19.9736 1523.83 20.0713L1523.32 23.8311C1522.88 23.7171 1522.39 23.6276 1521.85 23.5625C1521.32 23.4974 1520.81 23.4648 1520.34 23.4648C1519.26 23.4648 1518.25 23.6846 1517.29 24.124C1516.34 24.5472 1515.51 25.1657 1514.8 25.9795C1514.08 26.777 1513.52 27.7454 1513.11 28.8848C1512.71 30.0078 1512.5 31.2611 1512.5 32.6445V47H1508.42V20.2422H1511.79L1512.23 25.1738H1512.4C1512.96 24.181 1513.62 23.2777 1514.41 22.4639C1515.19 21.6338 1516.09 20.9746 1517.12 20.4863C1518.16 19.998 1519.31 19.7539 1520.58 19.7539ZM1536.35 59.0117C1532.84 59.0117 1530.13 58.3525 1528.22 57.0342C1526.32 55.7321 1525.37 53.901 1525.37 51.541C1525.37 49.8646 1525.9 48.4323 1526.96 47.2441C1528.03 46.056 1529.51 45.2666 1531.4 44.876C1530.7 44.5505 1530.1 44.0622 1529.59 43.4111C1529.1 42.7601 1528.86 42.0114 1528.86 41.165C1528.86 40.1885 1529.13 39.334 1529.67 38.6016C1530.22 37.8529 1531.06 37.1367 1532.18 36.4531C1530.78 35.8835 1529.64 34.9232 1528.76 33.5723C1527.9 32.2051 1527.47 30.6182 1527.47 28.8115C1527.47 26.891 1527.87 25.2552 1528.66 23.9043C1529.46 22.5371 1530.62 21.4954 1532.13 20.7793C1533.64 20.0632 1535.48 19.7051 1537.62 19.7051C1538.1 19.7051 1538.57 19.7295 1539.04 19.7783C1539.53 19.8109 1539.99 19.8678 1540.43 19.9492C1540.87 20.0143 1541.25 20.0957 1541.58 20.1934H1550.76V22.8057L1545.83 23.416C1546.32 24.0508 1546.72 24.8158 1547.05 25.7109C1547.37 26.6061 1547.54 27.599 1547.54 28.6895C1547.54 31.3587 1546.63 33.4827 1544.83 35.0615C1543.02 36.624 1540.54 37.4053 1537.38 37.4053C1536.63 37.4053 1535.87 37.3402 1535.08 37.21C1534.29 37.6494 1533.68 38.1377 1533.25 38.6748C1532.85 39.2119 1532.64 39.8304 1532.64 40.5303C1532.64 41.0511 1532.8 41.4661 1533.11 41.7754C1533.43 42.0846 1533.9 42.3125 1534.5 42.459C1535.1 42.5892 1535.83 42.6543 1536.67 42.6543H1541.38C1544.3 42.6543 1546.53 43.2646 1548.07 44.4854C1549.64 45.7061 1550.42 47.4883 1550.42 49.832C1550.42 52.7943 1549.21 55.0648 1546.8 56.6436C1544.39 58.2223 1540.91 59.0117 1536.35 59.0117ZM1536.48 55.8379C1538.69 55.8379 1540.52 55.61 1541.97 55.1543C1543.43 54.7148 1544.53 54.0719 1545.24 53.2256C1545.97 52.3955 1546.34 51.4027 1546.34 50.2471C1546.34 49.1729 1546.1 48.359 1545.61 47.8057C1545.12 47.2686 1544.4 46.9105 1543.46 46.7314C1542.51 46.5361 1541.36 46.4385 1539.99 46.4385H1535.35C1534.15 46.4385 1533.1 46.6257 1532.2 47C1531.31 47.3743 1530.62 47.9277 1530.13 48.6602C1529.66 49.3926 1529.42 50.304 1529.42 51.3945C1529.42 52.8431 1530.03 53.9417 1531.25 54.6904C1532.47 55.4554 1534.21 55.8379 1536.48 55.8379ZM1537.53 34.4512C1539.46 34.4512 1540.92 33.9629 1541.9 32.9863C1542.87 32.0098 1543.36 30.5856 1543.36 28.7139C1543.36 26.7119 1542.86 25.2145 1541.87 24.2217C1540.88 23.2126 1539.41 22.708 1537.48 22.708C1535.62 22.708 1534.19 23.2288 1533.18 24.2705C1532.19 25.2959 1531.69 26.8014 1531.69 28.7871C1531.69 30.61 1532.2 32.0098 1533.21 32.9863C1534.21 33.9629 1535.65 34.4512 1537.53 34.4512ZM1578.13 20.2422V47H1574.81L1574.22 43.2402H1574C1573.45 44.168 1572.73 44.9492 1571.85 45.584C1570.97 46.2188 1569.98 46.6908 1568.87 47C1567.78 47.3255 1566.62 47.4883 1565.38 47.4883C1563.27 47.4883 1561.49 47.1465 1560.06 46.4629C1558.63 45.7793 1557.55 44.7214 1556.81 43.2891C1556.1 41.8568 1555.74 40.0176 1555.74 37.7715V20.2422H1559.84V37.4785C1559.84 39.7083 1560.35 41.3766 1561.35 42.4834C1562.36 43.5739 1563.9 44.1191 1565.97 44.1191C1567.95 44.1191 1569.53 43.7448 1570.71 42.9961C1571.89 42.2474 1572.75 41.1488 1573.27 39.7002C1573.79 38.2354 1574.05 36.445 1574.05 34.3291V20.2422H1578.13ZM1599.37 19.7539C1602.54 19.7539 1604.94 20.5352 1606.57 22.0977C1608.2 23.6439 1609.01 26.1341 1609.01 29.5684V47H1605.01V29.8369C1605.01 27.6071 1604.49 25.9388 1603.47 24.832C1602.46 23.7253 1600.91 23.1719 1598.81 23.1719C1595.84 23.1719 1593.76 24.0101 1592.56 25.6865C1591.35 27.363 1590.75 29.7962 1590.75 32.9863V47H1586.7V20.2422H1589.97L1590.58 24.0996H1590.8C1591.37 23.1556 1592.09 22.3662 1592.97 21.7314C1593.85 21.0804 1594.83 20.5921 1595.92 20.2666C1597.02 19.9248 1598.16 19.7539 1599.37 19.7539ZM1626 44.168C1626.67 44.168 1627.35 44.111 1628.05 43.9971C1628.75 43.8831 1629.32 43.7448 1629.76 43.582V46.7314C1629.29 46.943 1628.63 47.1221 1627.79 47.2686C1626.96 47.415 1626.14 47.4883 1625.34 47.4883C1623.93 47.4883 1622.64 47.2441 1621.49 46.7559C1620.33 46.2513 1619.4 45.4049 1618.7 44.2168C1618.02 43.0286 1617.68 41.3848 1617.68 39.2852V23.416H1613.87V21.4385L1617.7 19.8516L1619.31 14.041H1621.75V20.2422H1629.59V23.416H1621.75V39.1631C1621.75 40.8395 1622.14 42.0928 1622.9 42.9229C1623.68 43.7529 1624.72 44.168 1626 44.168ZM1645.19 19.8027C1648.38 19.8027 1650.75 20.5189 1652.3 21.9512C1653.84 23.3835 1654.62 25.6702 1654.62 28.8115V47H1651.66L1650.88 43.0449H1650.69C1649.94 44.0215 1649.16 44.8434 1648.34 45.5107C1647.53 46.1618 1646.58 46.6582 1645.51 47C1644.45 47.3255 1643.15 47.4883 1641.6 47.4883C1639.98 47.4883 1638.53 47.2035 1637.26 46.6338C1636 46.0641 1635.01 45.2015 1634.28 44.0459C1633.56 42.8903 1633.21 41.4255 1633.21 39.6514C1633.21 36.9821 1634.26 34.9313 1636.38 33.499C1638.49 32.0667 1641.72 31.2855 1646.05 31.1553L1650.66 30.96V29.3242C1650.66 27.013 1650.16 25.3936 1649.17 24.4658C1648.18 23.5381 1646.78 23.0742 1644.97 23.0742C1643.57 23.0742 1642.24 23.2777 1640.97 23.6846C1639.7 24.0915 1638.49 24.5716 1637.36 25.125L1636.11 22.0488C1637.31 21.4303 1638.7 20.9014 1640.26 20.4619C1641.82 20.0225 1643.47 19.8027 1645.19 19.8027ZM1650.61 33.8164L1646.54 33.9873C1643.2 34.1175 1640.85 34.6628 1639.48 35.623C1638.11 36.5833 1637.43 37.9424 1637.43 39.7002C1637.43 41.2301 1637.89 42.3613 1638.82 43.0938C1639.75 43.8262 1640.98 44.1924 1642.51 44.1924C1644.88 44.1924 1646.83 43.5332 1648.34 42.2148C1649.86 40.8965 1650.61 38.9189 1650.61 36.2822V33.8164ZM1680.28 39.6758C1680.28 41.3848 1679.84 42.8252 1678.98 43.9971C1678.14 45.1527 1676.91 46.0234 1675.32 46.6094C1673.74 47.1953 1671.85 47.4883 1669.66 47.4883C1667.78 47.4883 1666.16 47.3418 1664.8 47.0488C1663.43 46.7559 1662.23 46.3408 1661.21 45.8037V42.0684C1662.3 42.6055 1663.6 43.0938 1665.11 43.5332C1666.63 43.9727 1668.17 44.1924 1669.75 44.1924C1672.06 44.1924 1673.74 43.818 1674.78 43.0693C1675.82 42.3206 1676.34 41.3034 1676.34 40.0176C1676.34 39.2852 1676.13 38.6423 1675.71 38.0889C1675.3 37.5192 1674.61 36.974 1673.63 36.4531C1672.66 35.916 1671.31 35.3301 1669.58 34.6953C1667.87 34.0443 1666.39 33.4014 1665.14 32.7666C1663.9 32.1156 1662.94 31.3262 1662.26 30.3984C1661.59 29.4707 1661.26 28.2663 1661.26 26.7852C1661.26 24.5228 1662.17 22.7894 1663.99 21.585C1665.83 20.3643 1668.24 19.7539 1671.22 19.7539C1672.83 19.7539 1674.33 19.9167 1675.73 20.2422C1677.15 20.5514 1678.47 20.9746 1679.69 21.5117L1678.32 24.7588C1677.22 24.2868 1676.04 23.888 1674.78 23.5625C1673.53 23.237 1672.25 23.0742 1670.95 23.0742C1669.08 23.0742 1667.64 23.3835 1666.63 24.002C1665.64 24.6204 1665.14 25.4668 1665.14 26.541C1665.14 27.3711 1665.37 28.0547 1665.82 28.5918C1666.29 29.1289 1667.04 29.6335 1668.07 30.1055C1669.09 30.5775 1670.44 31.1309 1672.12 31.7656C1673.8 32.3841 1675.25 33.027 1676.47 33.6943C1677.69 34.3454 1678.62 35.1429 1679.27 36.0869C1679.94 37.0146 1680.28 38.2109 1680.28 39.6758ZM1690.46 37.0879H1687.79L1686.67 11.3066H1691.58L1690.46 37.0879ZM1686.18 44.4609C1686.18 43.3216 1686.46 42.516 1687.01 42.0439C1687.57 41.5557 1688.26 41.3115 1689.09 41.3115C1689.9 41.3115 1690.59 41.5557 1691.14 42.0439C1691.71 42.516 1691.99 43.3216 1691.99 44.4609C1691.99 45.584 1691.71 46.4059 1691.14 46.9268C1690.59 47.4313 1689.9 47.6836 1689.09 47.6836C1688.26 47.6836 1687.57 47.4313 1687.01 46.9268C1686.46 46.4059 1686.18 45.584 1686.18 44.4609Z" fill="#BD4747"/>
</svg>
