<svg width="1249" height="115" viewBox="0 0 1249 115" fill="none" xmlns="http://www.w3.org/2000/svg">
<path id="Cursos para jovens" d="M42.24 100.2C34.72 100.2 28.32 98.96 23.04 96.48C17.84 93.92 13.8 90.24 10.92 85.44C8.04 80.56 6.44 74.64 6.12 67.68C6.04 64.4 6 60.88 6 57.12C6 53.36 6.04 49.76 6.12 46.32C6.44 39.44 8.04 33.6 10.92 28.8C13.88 23.92 18 20.2 23.28 17.64C28.56 15.08 34.88 13.8 42.24 13.8C47.6 13.8 52.48 14.48 56.88 15.84C61.28 17.2 65.08 19.16 68.28 21.72C71.48 24.28 73.96 27.28 75.72 30.72C77.48 34.16 78.44 38 78.6 42.24C78.6 42.96 78.32 43.56 77.76 44.04C77.28 44.52 76.68 44.76 75.96 44.76H62.28C61.32 44.76 60.56 44.52 60 44.04C59.44 43.56 59 42.76 58.68 41.64C57.48 36.92 55.48 33.68 52.68 31.92C49.88 30.16 46.4 29.28 42.24 29.28C37.28 29.28 33.36 30.64 30.48 33.36C27.6 36.08 26.04 40.6 25.8 46.92C25.56 53.48 25.56 60.2 25.8 67.08C26.04 73.4 27.6 77.92 30.48 80.64C33.36 83.36 37.28 84.72 42.24 84.72C46.4 84.72 49.88 83.84 52.68 82.08C55.56 80.24 57.56 77 58.68 72.36C59 71.16 59.44 70.36 60 69.96C60.56 69.48 61.32 69.24 62.28 69.24H75.96C76.68 69.24 77.28 69.48 77.76 69.96C78.32 70.44 78.6 71.04 78.6 71.76C78.44 76 77.48 79.84 75.72 83.28C73.96 86.72 71.48 89.72 68.28 92.28C65.08 94.84 61.28 96.8 56.88 98.16C52.48 99.52 47.6 100.2 42.24 100.2ZM113.683 100.2C109.043 100.2 104.923 99.16 101.323 97.08C97.8031 94.92 95.0431 91.84 93.0431 87.84C91.1231 83.76 90.1631 78.84 90.1631 73.08V39.6C90.1631 38.72 90.4431 38 91.0031 37.44C91.5631 36.88 92.2431 36.6 93.0431 36.6H105.763C106.643 36.6 107.363 36.88 107.923 37.44C108.483 38 108.763 38.72 108.763 39.6V72.36C108.763 81.32 112.683 85.8 120.523 85.8C124.283 85.8 127.243 84.64 129.403 82.32C131.643 79.92 132.763 76.6 132.763 72.36V39.6C132.763 38.72 133.043 38 133.603 37.44C134.163 36.88 134.883 36.6 135.763 36.6H148.483C149.283 36.6 149.963 36.88 150.523 37.44C151.083 38 151.363 38.72 151.363 39.6V96C151.363 96.88 151.083 97.6 150.523 98.16C149.963 98.72 149.283 99 148.483 99H136.723C135.843 99 135.123 98.72 134.563 98.16C134.003 97.6 133.723 96.88 133.723 96V91.32C131.643 94.2 128.963 96.4 125.683 97.92C122.403 99.44 118.403 100.2 113.683 100.2ZM169.346 99C168.546 99 167.866 98.72 167.306 98.16C166.746 97.6 166.466 96.88 166.466 96V39.6C166.466 38.8 166.746 38.12 167.306 37.56C167.866 36.92 168.546 36.6 169.346 36.6H181.106C181.906 36.6 182.586 36.92 183.146 37.56C183.786 38.12 184.106 38.8 184.106 39.6V44.4C186.106 41.92 188.546 40 191.426 38.64C194.386 37.28 197.786 36.6 201.626 36.6H206.786C207.586 36.6 208.266 36.88 208.826 37.44C209.386 38 209.666 38.72 209.666 39.6V49.92C209.666 50.8 209.386 51.52 208.826 52.08C208.266 52.64 207.586 52.92 206.786 52.92H196.226C192.706 52.92 189.946 53.92 187.946 55.92C185.946 57.84 184.946 60.6 184.946 64.2V96C184.946 96.88 184.666 97.6 184.106 98.16C183.546 98.72 182.826 99 181.946 99H169.346ZM243.215 100.2C238.255 100.2 233.975 99.64 230.375 98.52C226.855 97.32 223.975 95.88 221.735 94.2C219.575 92.52 217.935 90.84 216.815 89.16C215.775 87.4 215.215 85.92 215.135 84.72C215.055 83.84 215.335 83.12 215.975 82.56C216.615 82 217.255 81.72 217.895 81.72H229.535C229.775 81.72 230.015 81.76 230.255 81.84C230.495 81.92 230.735 82.12 230.975 82.44C232.015 83.16 233.095 84 234.215 84.96C235.335 85.84 236.615 86.6 238.055 87.24C239.575 87.88 241.455 88.2 243.695 88.2C246.335 88.2 248.575 87.68 250.415 86.64C252.255 85.52 253.175 83.96 253.175 81.96C253.175 80.52 252.735 79.32 251.855 78.36C251.055 77.4 249.495 76.52 247.175 75.72C244.855 74.92 241.415 74.04 236.855 73.08C232.535 72.12 228.855 70.84 225.815 69.24C222.775 67.64 220.495 65.64 218.975 63.24C217.455 60.76 216.695 57.8 216.695 54.36C216.695 51.24 217.655 48.24 219.575 45.36C221.575 42.48 224.495 40.12 228.335 38.28C232.175 36.36 236.975 35.4 242.735 35.4C247.135 35.4 250.975 35.96 254.255 37.08C257.615 38.12 260.415 39.48 262.655 41.16C264.895 42.76 266.575 44.44 267.695 46.2C268.895 47.88 269.535 49.36 269.615 50.64C269.695 51.44 269.455 52.12 268.895 52.68C268.335 53.24 267.695 53.52 266.975 53.52H256.295C255.895 53.52 255.535 53.48 255.215 53.4C254.895 53.24 254.615 53.04 254.375 52.8C253.415 52.16 252.415 51.44 251.375 50.64C250.415 49.76 249.255 49 247.895 48.36C246.535 47.72 244.775 47.4 242.615 47.4C239.975 47.4 237.935 48 236.495 49.2C235.135 50.32 234.455 51.76 234.455 53.52C234.455 54.64 234.815 55.68 235.535 56.64C236.255 57.6 237.735 58.48 239.975 59.28C242.215 60.08 245.615 60.92 250.175 61.8C255.615 62.76 259.935 64.2 263.135 66.12C266.335 68.04 268.615 70.28 269.975 72.84C271.415 75.32 272.135 78 272.135 80.88C272.135 84.64 271.015 88 268.775 90.96C266.535 93.84 263.255 96.12 258.935 97.8C254.695 99.4 249.455 100.2 243.215 100.2ZM312.214 100.2C305.574 100.2 300.014 99.12 295.534 96.96C291.054 94.72 287.614 91.56 285.214 87.48C282.894 83.4 281.614 78.64 281.374 73.2C281.294 71.6 281.254 69.8 281.254 67.8C281.254 65.72 281.294 63.92 281.374 62.4C281.614 56.88 282.974 52.12 285.454 48.12C287.934 44.04 291.414 40.92 295.894 38.76C300.374 36.52 305.814 35.4 312.214 35.4C318.534 35.4 323.934 36.52 328.414 38.76C332.894 40.92 336.374 44.04 338.854 48.12C341.334 52.12 342.694 56.88 342.934 62.4C343.094 63.92 343.174 65.72 343.174 67.8C343.174 69.8 343.094 71.6 342.934 73.2C342.694 78.64 341.374 83.4 338.974 87.48C336.654 91.56 333.254 94.72 328.774 96.96C324.294 99.12 318.774 100.2 312.214 100.2ZM312.214 87C316.134 87 319.094 85.8 321.094 83.4C323.094 80.92 324.174 77.32 324.334 72.6C324.414 71.4 324.454 69.8 324.454 67.8C324.454 65.8 324.414 64.2 324.334 63C324.174 58.36 323.094 54.8 321.094 52.32C319.094 49.84 316.134 48.6 312.214 48.6C308.294 48.6 305.294 49.84 303.214 52.32C301.214 54.8 300.134 58.36 299.974 63C299.894 64.2 299.854 65.8 299.854 67.8C299.854 69.8 299.894 71.4 299.974 72.6C300.134 77.32 301.214 80.92 303.214 83.4C305.294 85.8 308.294 87 312.214 87ZM380.324 100.2C375.364 100.2 371.084 99.64 367.484 98.52C363.964 97.32 361.084 95.88 358.844 94.2C356.684 92.52 355.044 90.84 353.924 89.16C352.884 87.4 352.324 85.92 352.244 84.72C352.164 83.84 352.444 83.12 353.084 82.56C353.724 82 354.364 81.72 355.004 81.72H366.644C366.884 81.72 367.124 81.76 367.364 81.84C367.604 81.92 367.844 82.12 368.084 82.44C369.124 83.16 370.204 84 371.324 84.96C372.444 85.84 373.724 86.6 375.164 87.24C376.684 87.88 378.564 88.2 380.804 88.2C383.444 88.2 385.684 87.68 387.524 86.64C389.364 85.52 390.284 83.96 390.284 81.96C390.284 80.52 389.844 79.32 388.964 78.36C388.164 77.4 386.604 76.52 384.284 75.72C381.964 74.92 378.524 74.04 373.964 73.08C369.644 72.12 365.964 70.84 362.924 69.24C359.884 67.64 357.604 65.64 356.084 63.24C354.564 60.76 353.804 57.8 353.804 54.36C353.804 51.24 354.764 48.24 356.684 45.36C358.684 42.48 361.604 40.12 365.444 38.28C369.284 36.36 374.084 35.4 379.844 35.4C384.244 35.4 388.084 35.96 391.364 37.08C394.724 38.12 397.524 39.48 399.764 41.16C402.004 42.76 403.684 44.44 404.804 46.2C406.004 47.88 406.644 49.36 406.724 50.64C406.804 51.44 406.564 52.12 406.004 52.68C405.444 53.24 404.804 53.52 404.084 53.52H393.404C393.004 53.52 392.644 53.48 392.324 53.4C392.004 53.24 391.724 53.04 391.484 52.8C390.524 52.16 389.524 51.44 388.484 50.64C387.524 49.76 386.364 49 385.004 48.36C383.644 47.72 381.884 47.4 379.724 47.4C377.084 47.4 375.044 48 373.604 49.2C372.244 50.32 371.564 51.76 371.564 53.52C371.564 54.64 371.924 55.68 372.644 56.64C373.364 57.6 374.844 58.48 377.084 59.28C379.324 60.08 382.724 60.92 387.284 61.8C392.724 62.76 397.044 64.2 400.244 66.12C403.444 68.04 405.724 70.28 407.084 72.84C408.524 75.32 409.244 78 409.244 80.88C409.244 84.64 408.124 88 405.884 90.96C403.644 93.84 400.364 96.12 396.044 97.8C391.804 99.4 386.564 100.2 380.324 100.2ZM450.248 121.8C449.368 121.8 448.648 121.52 448.088 120.96C447.528 120.4 447.248 119.68 447.248 118.8V39.6C447.248 38.72 447.528 38 448.088 37.44C448.648 36.88 449.368 36.6 450.248 36.6H461.648C462.528 36.6 463.248 36.88 463.808 37.44C464.368 38 464.648 38.72 464.648 39.6V44.16C466.568 41.6 469.048 39.52 472.088 37.92C475.128 36.24 478.928 35.4 483.488 35.4C487.648 35.4 491.248 36.08 494.288 37.44C497.408 38.72 500.008 40.6 502.088 43.08C504.248 45.48 505.888 48.4 507.008 51.84C508.208 55.28 508.888 59.16 509.048 63.48C509.128 65 509.168 66.44 509.168 67.8C509.168 69.16 509.128 70.64 509.048 72.24C508.968 76.32 508.328 80.08 507.128 83.52C506.008 86.96 504.368 89.92 502.208 92.4C500.048 94.88 497.408 96.8 494.288 98.16C491.248 99.52 487.648 100.2 483.488 100.2C479.408 100.2 475.848 99.48 472.808 98.04C469.848 96.52 467.408 94.48 465.488 91.92V118.8C465.488 119.68 465.208 120.4 464.648 120.96C464.088 121.52 463.408 121.8 462.608 121.8H450.248ZM478.088 85.8C481.128 85.8 483.528 85.16 485.288 83.88C487.048 82.52 488.288 80.76 489.008 78.6C489.808 76.44 490.288 74.08 490.448 71.52C490.608 69.04 490.608 66.56 490.448 64.08C490.288 61.52 489.808 59.16 489.008 57C488.288 54.84 487.048 53.12 485.288 51.84C483.528 50.48 481.128 49.8 478.088 49.8C475.128 49.8 472.728 50.48 470.888 51.84C469.048 53.2 467.728 54.92 466.928 57C466.128 59.08 465.648 61.32 465.488 63.72C465.408 65.16 465.368 66.64 465.368 68.16C465.368 69.68 465.408 71.2 465.488 72.72C465.568 74.96 466.048 77.08 466.928 79.08C467.888 81 469.248 82.6 471.008 83.88C472.848 85.16 475.208 85.8 478.088 85.8ZM540.256 100.2C536.016 100.2 532.216 99.4 528.856 97.8C525.496 96.12 522.816 93.88 520.816 91.08C518.816 88.28 517.816 85.16 517.816 81.72C517.816 76.04 520.096 71.56 524.656 68.28C529.296 65 535.376 62.76 542.896 61.56L558.616 59.28V57.12C558.616 54 557.896 51.6 556.456 49.92C555.016 48.24 552.496 47.4 548.896 47.4C546.256 47.4 544.136 47.92 542.536 48.96C540.936 50 539.696 51.36 538.816 53.04C538.176 54.08 537.256 54.6 536.056 54.6H524.656C523.776 54.6 523.096 54.36 522.616 53.88C522.136 53.32 521.936 52.68 522.016 51.96C522.016 50.6 522.536 49 523.576 47.16C524.616 45.32 526.216 43.52 528.376 41.76C530.536 39.92 533.296 38.4 536.656 37.2C540.016 36 544.136 35.4 549.016 35.4C554.056 35.4 558.376 36 561.976 37.2C565.576 38.4 568.456 40.08 570.616 42.24C572.776 44.4 574.376 46.92 575.416 49.8C576.456 52.6 576.976 55.64 576.976 58.92V96C576.976 96.88 576.696 97.6 576.136 98.16C575.576 98.72 574.856 99 573.976 99H562.216C561.416 99 560.736 98.72 560.176 98.16C559.616 97.6 559.336 96.88 559.336 96V91.56C558.296 93.08 556.896 94.52 555.136 95.88C553.376 97.16 551.256 98.2 548.776 99C546.376 99.8 543.536 100.2 540.256 100.2ZM545.056 87.72C547.696 87.72 550.056 87.16 552.136 86.04C554.216 84.92 555.856 83.2 557.056 80.88C558.256 78.56 558.856 75.64 558.856 72.12V70.08L547.696 71.88C543.376 72.6 540.216 73.68 538.216 75.12C536.216 76.56 535.216 78.32 535.216 80.4C535.216 81.92 535.656 83.24 536.536 84.36C537.496 85.48 538.736 86.32 540.256 86.88C541.776 87.44 543.376 87.72 545.056 87.72ZM594.385 99C593.585 99 592.905 98.72 592.345 98.16C591.785 97.6 591.505 96.88 591.505 96V39.6C591.505 38.8 591.785 38.12 592.345 37.56C592.905 36.92 593.585 36.6 594.385 36.6H606.145C606.945 36.6 607.625 36.92 608.185 37.56C608.825 38.12 609.145 38.8 609.145 39.6V44.4C611.145 41.92 613.585 40 616.465 38.64C619.425 37.28 622.825 36.6 626.665 36.6H631.825C632.625 36.6 633.305 36.88 633.865 37.44C634.425 38 634.705 38.72 634.705 39.6V49.92C634.705 50.8 634.425 51.52 633.865 52.08C633.305 52.64 632.625 52.92 631.825 52.92H621.265C617.745 52.92 614.985 53.92 612.985 55.92C610.985 57.84 609.985 60.6 609.985 64.2V96C609.985 96.88 609.705 97.6 609.145 98.16C608.585 98.72 607.865 99 606.985 99H594.385ZM660.959 100.2C656.719 100.2 652.919 99.4 649.559 97.8C646.199 96.12 643.519 93.88 641.519 91.08C639.519 88.28 638.519 85.16 638.519 81.72C638.519 76.04 640.799 71.56 645.359 68.28C649.999 65 656.079 62.76 663.599 61.56L679.319 59.28V57.12C679.319 54 678.599 51.6 677.159 49.92C675.719 48.24 673.199 47.4 669.599 47.4C666.959 47.4 664.839 47.92 663.239 48.96C661.639 50 660.399 51.36 659.519 53.04C658.879 54.08 657.959 54.6 656.759 54.6H645.359C644.479 54.6 643.799 54.36 643.319 53.88C642.839 53.32 642.639 52.68 642.719 51.96C642.719 50.6 643.239 49 644.279 47.16C645.319 45.32 646.919 43.52 649.079 41.76C651.239 39.92 653.999 38.4 657.359 37.2C660.719 36 664.839 35.4 669.719 35.4C674.759 35.4 679.079 36 682.679 37.2C686.279 38.4 689.159 40.08 691.319 42.24C693.479 44.4 695.079 46.92 696.119 49.8C697.159 52.6 697.679 55.64 697.679 58.92V96C697.679 96.88 697.399 97.6 696.839 98.16C696.279 98.72 695.559 99 694.679 99H682.919C682.119 99 681.439 98.72 680.879 98.16C680.319 97.6 680.039 96.88 680.039 96V91.56C678.999 93.08 677.599 94.52 675.839 95.88C674.079 97.16 671.959 98.2 669.479 99C667.079 99.8 664.239 100.2 660.959 100.2ZM665.759 87.72C668.399 87.72 670.759 87.16 672.839 86.04C674.919 84.92 676.559 83.2 677.759 80.88C678.959 78.56 679.559 75.64 679.559 72.12V70.08L668.399 71.88C664.079 72.6 660.919 73.68 658.919 75.12C656.919 76.56 655.919 78.32 655.919 80.4C655.919 81.92 656.359 83.24 657.239 84.36C658.199 85.48 659.439 86.32 660.959 86.88C662.479 87.44 664.079 87.72 665.759 87.72ZM728.253 121.8C727.373 121.8 726.653 121.52 726.093 120.96C725.533 120.4 725.253 119.68 725.253 118.8V110.64C725.253 109.76 725.533 109.04 726.093 108.48C726.653 107.92 727.373 107.64 728.253 107.64H732.093C734.253 107.64 735.893 107.2 737.013 106.32C738.213 105.52 739.013 104.4 739.413 102.96C739.813 101.52 740.013 99.92 740.013 98.16V39.6C740.013 38.72 740.293 38 740.853 37.44C741.413 36.88 742.093 36.6 742.893 36.6H755.493C756.293 36.6 756.973 36.88 757.533 37.44C758.093 38 758.373 38.72 758.373 39.6V98.52C758.373 103.4 757.453 107.56 755.613 111C753.773 114.52 751.013 117.2 747.333 119.04C743.733 120.88 739.253 121.8 733.893 121.8H728.253ZM742.533 27C741.733 27 741.053 26.72 740.493 26.16C739.933 25.6 739.653 24.88 739.653 24V14.4C739.653 13.52 739.933 12.8 740.493 12.24C741.053 11.6 741.733 11.28 742.533 11.28H755.733C756.613 11.28 757.333 11.6 757.893 12.24C758.453 12.8 758.733 13.52 758.733 14.4V24C758.733 24.88 758.453 25.6 757.893 26.16C757.333 26.72 756.613 27 755.733 27H742.533ZM802.058 100.2C795.418 100.2 789.858 99.12 785.378 96.96C780.898 94.72 777.458 91.56 775.058 87.48C772.738 83.4 771.458 78.64 771.218 73.2C771.138 71.6 771.098 69.8 771.098 67.8C771.098 65.72 771.138 63.92 771.218 62.4C771.458 56.88 772.818 52.12 775.298 48.12C777.778 44.04 781.258 40.92 785.738 38.76C790.218 36.52 795.658 35.4 802.058 35.4C808.378 35.4 813.778 36.52 818.258 38.76C822.738 40.92 826.218 44.04 828.698 48.12C831.178 52.12 832.538 56.88 832.778 62.4C832.938 63.92 833.018 65.72 833.018 67.8C833.018 69.8 832.938 71.6 832.778 73.2C832.538 78.64 831.218 83.4 828.818 87.48C826.498 91.56 823.098 94.72 818.618 96.96C814.138 99.12 808.618 100.2 802.058 100.2ZM802.058 87C805.978 87 808.938 85.8 810.938 83.4C812.938 80.92 814.018 77.32 814.178 72.6C814.258 71.4 814.298 69.8 814.298 67.8C814.298 65.8 814.258 64.2 814.178 63C814.018 58.36 812.938 54.8 810.938 52.32C808.938 49.84 805.978 48.6 802.058 48.6C798.138 48.6 795.138 49.84 793.058 52.32C791.058 54.8 789.978 58.36 789.818 63C789.738 64.2 789.698 65.8 789.698 67.8C789.698 69.8 789.738 71.4 789.818 72.6C789.978 77.32 791.058 80.92 793.058 83.4C795.138 85.8 798.138 87 802.058 87ZM865.304 99C864.104 99 863.184 98.72 862.544 98.16C861.984 97.52 861.504 96.8 861.104 96L838.544 40.32C838.384 40 838.304 39.64 838.304 39.24C838.304 38.52 838.544 37.92 839.024 37.44C839.584 36.88 840.224 36.6 840.944 36.6H852.584C853.624 36.6 854.384 36.88 854.864 37.44C855.424 38 855.784 38.52 855.944 39L870.704 78.6L885.464 39C885.704 38.52 886.064 38 886.544 37.44C887.104 36.88 887.864 36.6 888.824 36.6H900.464C901.184 36.6 901.784 36.88 902.264 37.44C902.824 37.92 903.104 38.52 903.104 39.24C903.104 39.64 903.064 40 902.984 40.32L880.304 96C879.984 96.8 879.504 97.52 878.864 98.16C878.224 98.72 877.304 99 876.104 99H865.304ZM938.798 100.2C929.598 100.2 922.278 97.64 916.838 92.52C911.478 87.4 908.638 79.96 908.318 70.2C908.318 69.56 908.318 68.72 908.318 67.68C908.318 66.56 908.318 65.68 908.318 65.04C908.638 58.88 910.038 53.6 912.518 49.2C914.998 44.72 918.478 41.32 922.958 39C927.438 36.6 932.678 35.4 938.678 35.4C945.398 35.4 950.998 36.8 955.478 39.6C960.038 42.32 963.438 46.08 965.678 50.88C967.998 55.6 969.158 61.04 969.158 67.2V69.96C969.158 70.76 968.838 71.44 968.198 72C967.638 72.56 966.958 72.84 966.158 72.84H926.918C926.918 72.92 926.918 73.08 926.918 73.32C926.918 73.48 926.918 73.64 926.918 73.8C926.998 76.36 927.478 78.72 928.358 80.88C929.318 82.96 930.638 84.64 932.318 85.92C934.078 87.2 936.158 87.84 938.558 87.84C940.558 87.84 942.198 87.56 943.478 87C944.758 86.44 945.798 85.76 946.598 84.96C947.478 84.16 948.118 83.48 948.518 82.92C949.238 82.12 949.798 81.64 950.198 81.48C950.678 81.24 951.398 81.12 952.358 81.12H964.838C965.638 81.12 966.278 81.36 966.758 81.84C967.318 82.24 967.558 82.84 967.478 83.64C967.398 84.92 966.718 86.52 965.438 88.44C964.238 90.28 962.438 92.12 960.038 93.96C957.638 95.72 954.638 97.2 951.038 98.4C947.518 99.6 943.438 100.2 938.798 100.2ZM926.918 61.92H950.438V61.68C950.438 58.8 949.958 56.32 948.998 54.24C948.118 52.08 946.798 50.4 945.038 49.2C943.278 48 941.158 47.4 938.678 47.4C936.198 47.4 934.078 48 932.318 49.2C930.558 50.4 929.198 52.08 928.238 54.24C927.358 56.32 926.918 58.8 926.918 61.68V61.92ZM984.034 99C983.234 99 982.554 98.72 981.994 98.16C981.434 97.6 981.154 96.88 981.154 96V39.6C981.154 38.72 981.434 38 981.994 37.44C982.554 36.88 983.234 36.6 984.034 36.6H995.794C996.674 36.6 997.394 36.88 997.954 37.44C998.514 38 998.794 38.72 998.794 39.6V44.28C1000.87 41.72 1003.55 39.6 1006.83 37.92C1010.11 36.24 1014.11 35.4 1018.83 35.4C1023.55 35.4 1027.67 36.48 1031.19 38.64C1034.79 40.72 1037.59 43.8 1039.59 47.88C1041.67 51.88 1042.71 56.76 1042.71 62.52V96C1042.71 96.88 1042.39 97.6 1041.75 98.16C1041.19 98.72 1040.51 99 1039.71 99H1026.99C1026.11 99 1025.39 98.72 1024.83 98.16C1024.27 97.6 1023.99 96.88 1023.99 96V63.24C1023.99 59 1022.95 55.72 1020.87 53.4C1018.87 51 1015.91 49.8 1011.99 49.8C1008.23 49.8 1005.23 51 1002.99 53.4C1000.75 55.72 999.634 59 999.634 63.24V96C999.634 96.88 999.354 97.6 998.794 98.16C998.234 98.72 997.554 99 996.754 99H984.034ZM1081.69 100.2C1076.73 100.2 1072.45 99.64 1068.85 98.52C1065.33 97.32 1062.45 95.88 1060.21 94.2C1058.05 92.52 1056.41 90.84 1055.29 89.16C1054.25 87.4 1053.69 85.92 1053.61 84.72C1053.53 83.84 1053.81 83.12 1054.45 82.56C1055.09 82 1055.73 81.72 1056.37 81.72H1068.01C1068.25 81.72 1068.49 81.76 1068.73 81.84C1068.97 81.92 1069.21 82.12 1069.45 82.44C1070.49 83.16 1071.57 84 1072.69 84.96C1073.81 85.84 1075.09 86.6 1076.53 87.24C1078.05 87.88 1079.93 88.2 1082.17 88.2C1084.81 88.2 1087.05 87.68 1088.89 86.64C1090.73 85.52 1091.65 83.96 1091.65 81.96C1091.65 80.52 1091.21 79.32 1090.33 78.36C1089.53 77.4 1087.97 76.52 1085.65 75.72C1083.33 74.92 1079.89 74.04 1075.33 73.08C1071.01 72.12 1067.33 70.84 1064.29 69.24C1061.25 67.64 1058.97 65.64 1057.45 63.24C1055.93 60.76 1055.17 57.8 1055.17 54.36C1055.17 51.24 1056.13 48.24 1058.05 45.36C1060.05 42.48 1062.97 40.12 1066.81 38.28C1070.65 36.36 1075.45 35.4 1081.21 35.4C1085.61 35.4 1089.45 35.96 1092.73 37.08C1096.09 38.12 1098.89 39.48 1101.13 41.16C1103.37 42.76 1105.05 44.44 1106.17 46.2C1107.37 47.88 1108.01 49.36 1108.09 50.64C1108.17 51.44 1107.93 52.12 1107.37 52.68C1106.81 53.24 1106.17 53.52 1105.45 53.52H1094.77C1094.37 53.52 1094.01 53.48 1093.69 53.4C1093.37 53.24 1093.09 53.04 1092.85 52.8C1091.89 52.16 1090.89 51.44 1089.85 50.64C1088.89 49.76 1087.73 49 1086.37 48.36C1085.01 47.72 1083.25 47.4 1081.09 47.4C1078.45 47.4 1076.41 48 1074.97 49.2C1073.61 50.32 1072.93 51.76 1072.93 53.52C1072.93 54.64 1073.29 55.68 1074.01 56.64C1074.73 57.6 1076.21 58.48 1078.45 59.28C1080.69 60.08 1084.09 60.92 1088.65 61.8C1094.09 62.76 1098.41 64.2 1101.61 66.12C1104.81 68.04 1107.09 70.28 1108.45 72.84C1109.89 75.32 1110.61 78 1110.61 80.88C1110.61 84.64 1109.49 88 1107.25 90.96C1105.01 93.84 1101.73 96.12 1097.41 97.8C1093.17 99.4 1087.93 100.2 1081.69 100.2Z" fill="#6D2E46"/>
</svg>
