<svg width="147" height="44" viewBox="0 0 147 44" fill="none" xmlns="http://www.w3.org/2000/svg">
<path id="eventos" d="M11.7422 16.2031C13.5651 16.2031 15.1276 16.6068 16.4297 17.4141C17.7318 18.2214 18.7279 19.3542 19.418 20.8125C20.1081 22.2578 20.4531 23.9505 20.4531 25.8906V27.9023H5.66797C5.70703 30.4154 6.33203 32.3294 7.54297 33.6445C8.75391 34.9596 10.4596 35.6172 12.6602 35.6172C14.0143 35.6172 15.2122 35.4935 16.2539 35.2461C17.2956 34.9987 18.3763 34.6341 19.4961 34.1523V37.0039C18.4154 37.4857 17.3411 37.8372 16.2734 38.0586C15.2188 38.2799 13.9688 38.3906 12.5234 38.3906C10.4661 38.3906 8.66927 37.974 7.13281 37.1406C5.60938 36.2943 4.42448 35.0573 3.57812 33.4297C2.73177 31.8021 2.30859 29.8099 2.30859 27.4531C2.30859 25.1484 2.69271 23.1562 3.46094 21.4766C4.24219 19.7839 5.33594 18.4818 6.74219 17.5703C8.16146 16.6589 9.82812 16.2031 11.7422 16.2031ZM11.7031 18.8594C9.97135 18.8594 8.59115 19.4258 7.5625 20.5586C6.53385 21.6914 5.92188 23.2734 5.72656 25.3047H17.0547C17.0417 24.0286 16.8398 22.9089 16.4492 21.9453C16.0716 20.9688 15.4922 20.2135 14.7109 19.6797C13.9297 19.1328 12.9271 18.8594 11.7031 18.8594ZM30.668 38L22.543 16.5938H26.0195L30.7266 29.543C31.0521 30.4284 31.3841 31.4049 31.7227 32.4727C32.0612 33.5404 32.2956 34.3997 32.4258 35.0508H32.5625C32.7188 34.3997 32.9792 33.5404 33.3438 32.4727C33.7083 31.3919 34.0404 30.4154 34.3398 29.543L39.0469 16.5938H42.5234L34.3789 38H30.668ZM54.2031 16.2031C56.026 16.2031 57.5885 16.6068 58.8906 17.4141C60.1927 18.2214 61.1888 19.3542 61.8789 20.8125C62.569 22.2578 62.9141 23.9505 62.9141 25.8906V27.9023H48.1289C48.168 30.4154 48.793 32.3294 50.0039 33.6445C51.2148 34.9596 52.9206 35.6172 55.1211 35.6172C56.4753 35.6172 57.6732 35.4935 58.7148 35.2461C59.7565 34.9987 60.8372 34.6341 61.957 34.1523V37.0039C60.8763 37.4857 59.8021 37.8372 58.7344 38.0586C57.6797 38.2799 56.4297 38.3906 54.9844 38.3906C52.9271 38.3906 51.1302 37.974 49.5938 37.1406C48.0703 36.2943 46.8854 35.0573 46.0391 33.4297C45.1927 31.8021 44.7695 29.8099 44.7695 27.4531C44.7695 25.1484 45.1536 23.1562 45.9219 21.4766C46.7031 19.7839 47.7969 18.4818 49.2031 17.5703C50.6224 16.6589 52.2891 16.2031 54.2031 16.2031ZM54.1641 18.8594C52.4323 18.8594 51.0521 19.4258 50.0234 20.5586C48.9948 21.6914 48.3828 23.2734 48.1875 25.3047H59.5156C59.5026 24.0286 59.3008 22.9089 58.9102 21.9453C58.5326 20.9688 57.9531 20.2135 57.1719 19.6797C56.3906 19.1328 55.388 18.8594 54.1641 18.8594ZM78.5586 16.2031C81.0977 16.2031 83.0182 16.8281 84.3203 18.0781C85.6224 19.3151 86.2734 21.3073 86.2734 24.0547V38H83.0703V24.2695C83.0703 22.4857 82.6602 21.151 81.8398 20.2656C81.0326 19.3802 79.7891 18.9375 78.1094 18.9375C75.7396 18.9375 74.0729 19.6081 73.1094 20.9492C72.1458 22.2904 71.6641 24.237 71.6641 26.7891V38H68.4219V16.5938H71.0391L71.5273 19.6797H71.7031C72.1589 18.9245 72.7383 18.293 73.4414 17.7852C74.1445 17.2643 74.9323 16.8737 75.8047 16.6133C76.6771 16.3398 77.5951 16.2031 78.5586 16.2031ZM99.8672 35.7344C100.401 35.7344 100.948 35.6888 101.508 35.5977C102.068 35.5065 102.523 35.3958 102.875 35.2656V37.7852C102.497 37.9544 101.97 38.0977 101.293 38.2148C100.629 38.332 99.9779 38.3906 99.3398 38.3906C98.207 38.3906 97.1784 38.1953 96.2539 37.8047C95.3294 37.401 94.5872 36.724 94.0273 35.7734C93.4805 34.8229 93.207 33.5078 93.207 31.8281V19.1328H90.1602V17.5508L93.2266 16.2812L94.5156 11.6328H96.4688V16.5938H102.738V19.1328H96.4688V31.7305C96.4688 33.0716 96.7747 34.0742 97.3867 34.7383C98.0117 35.4023 98.8385 35.7344 99.8672 35.7344ZM125.668 27.2578C125.668 29.0156 125.44 30.5846 124.984 31.9648C124.529 33.3451 123.871 34.5104 123.012 35.4609C122.152 36.4115 121.111 37.1406 119.887 37.6484C118.676 38.1432 117.302 38.3906 115.766 38.3906C114.333 38.3906 113.018 38.1432 111.82 37.6484C110.635 37.1406 109.607 36.4115 108.734 35.4609C107.875 34.5104 107.204 33.3451 106.723 31.9648C106.254 30.5846 106.02 29.0156 106.02 27.2578C106.02 24.9141 106.417 22.9219 107.211 21.2812C108.005 19.6276 109.138 18.3711 110.609 17.5117C112.094 16.6393 113.858 16.2031 115.902 16.2031C117.855 16.2031 119.561 16.6393 121.02 17.5117C122.491 18.3841 123.63 19.6471 124.438 21.3008C125.258 22.9414 125.668 24.9271 125.668 27.2578ZM109.379 27.2578C109.379 28.9766 109.607 30.4674 110.062 31.7305C110.518 32.9935 111.221 33.9701 112.172 34.6602C113.122 35.3503 114.346 35.6953 115.844 35.6953C117.328 35.6953 118.546 35.3503 119.496 34.6602C120.46 33.9701 121.169 32.9935 121.625 31.7305C122.081 30.4674 122.309 28.9766 122.309 27.2578C122.309 25.5521 122.081 24.0807 121.625 22.8438C121.169 21.5938 120.466 20.6302 119.516 19.9531C118.565 19.276 117.335 18.9375 115.824 18.9375C113.598 18.9375 111.964 19.6732 110.922 21.1445C109.893 22.6159 109.379 24.6536 109.379 27.2578ZM145.121 32.1406C145.121 33.5078 144.776 34.6602 144.086 35.5977C143.409 36.5221 142.432 37.2188 141.156 37.6875C139.893 38.1562 138.383 38.3906 136.625 38.3906C135.128 38.3906 133.832 38.2734 132.738 38.0391C131.645 37.8047 130.688 37.4727 129.867 37.043V34.0547C130.74 34.4844 131.781 34.875 132.992 35.2266C134.203 35.5781 135.44 35.7539 136.703 35.7539C138.552 35.7539 139.893 35.4544 140.727 34.8555C141.56 34.2565 141.977 33.4427 141.977 32.4141C141.977 31.8281 141.807 31.3138 141.469 30.8711C141.143 30.4154 140.59 29.9792 139.809 29.5625C139.027 29.1328 137.947 28.6641 136.566 28.1562C135.199 27.6354 134.014 27.1211 133.012 26.6133C132.022 26.0924 131.254 25.4609 130.707 24.7188C130.173 23.9766 129.906 23.013 129.906 21.8281C129.906 20.0182 130.635 18.6315 132.094 17.668C133.565 16.6914 135.492 16.2031 137.875 16.2031C139.164 16.2031 140.368 16.3333 141.488 16.5938C142.621 16.8411 143.676 17.1797 144.652 17.6094L143.559 20.207C142.673 19.8294 141.729 19.5104 140.727 19.25C139.724 18.9896 138.702 18.8594 137.66 18.8594C136.163 18.8594 135.01 19.1068 134.203 19.6016C133.409 20.0964 133.012 20.7734 133.012 21.6328C133.012 22.2969 133.194 22.8438 133.559 23.2734C133.936 23.7031 134.535 24.1068 135.355 24.4844C136.176 24.862 137.257 25.3047 138.598 25.8125C139.939 26.3073 141.098 26.8216 142.074 27.3555C143.051 27.8763 143.799 28.5143 144.32 29.2695C144.854 30.0117 145.121 30.9688 145.121 32.1406Z" fill="#BD4747"/>
</svg>
