<svg width="1249" height="115" viewBox="0 0 1249 115" fill="none" xmlns="http://www.w3.org/2000/svg">
<path id="Eventos ao vivo" d="M11.88 99C11 99 10.28 98.72 9.72 98.16C9.16 97.6 8.88 96.88 8.88 96V18C8.88 17.12 9.16 16.4 9.72 15.84C10.28 15.28 11 15 11.88 15H66.24C67.12 15 67.84 15.28 68.4 15.84C68.96 16.4 69.24 17.12 69.24 18V27.6C69.24 28.4 68.96 29.08 68.4 29.64C67.84 30.2 67.12 30.48 66.24 30.48H27.36V49.32H63.6C64.48 49.32 65.2 49.6 65.76 50.16C66.32 50.72 66.6 51.44 66.6 52.32V61.2C66.6 62 66.32 62.68 65.76 63.24C65.2 63.8 64.48 64.08 63.6 64.08H27.36V83.52H67.2C68.08 83.52 68.8 83.8 69.36 84.36C69.92 84.92 70.2 85.64 70.2 86.52V96C70.2 96.88 69.92 97.6 69.36 98.16C68.8 98.72 68.08 99 67.2 99H11.88ZM104.171 99C102.971 99 102.051 98.72 101.411 98.16C100.851 97.52 100.371 96.8 99.9713 96L77.4113 40.32C77.2513 40 77.1713 39.64 77.1713 39.24C77.1713 38.52 77.4113 37.92 77.8913 37.44C78.4513 36.88 79.0913 36.6 79.8113 36.6H91.4513C92.4913 36.6 93.2513 36.88 93.7313 37.44C94.2913 38 94.6513 38.52 94.8113 39L109.571 78.6L124.331 39C124.571 38.52 124.931 38 125.411 37.44C125.971 36.88 126.731 36.6 127.691 36.6H139.331C140.051 36.6 140.651 36.88 141.131 37.44C141.691 37.92 141.971 38.52 141.971 39.24C141.971 39.64 141.931 40 141.851 40.32L119.171 96C118.851 96.8 118.371 97.52 117.731 98.16C117.091 98.72 116.171 99 114.971 99H104.171ZM177.666 100.2C168.466 100.2 161.146 97.64 155.706 92.52C150.346 87.4 147.506 79.96 147.186 70.2C147.186 69.56 147.186 68.72 147.186 67.68C147.186 66.56 147.186 65.68 147.186 65.04C147.506 58.88 148.906 53.6 151.386 49.2C153.866 44.72 157.346 41.32 161.826 39C166.306 36.6 171.546 35.4 177.546 35.4C184.266 35.4 189.866 36.8 194.346 39.6C198.906 42.32 202.306 46.08 204.546 50.88C206.866 55.6 208.026 61.04 208.026 67.2V69.96C208.026 70.76 207.706 71.44 207.066 72C206.506 72.56 205.826 72.84 205.026 72.84H165.786C165.786 72.92 165.786 73.08 165.786 73.32C165.786 73.48 165.786 73.64 165.786 73.8C165.866 76.36 166.346 78.72 167.226 80.88C168.186 82.96 169.506 84.64 171.186 85.92C172.946 87.2 175.026 87.84 177.426 87.84C179.426 87.84 181.066 87.56 182.346 87C183.626 86.44 184.666 85.76 185.466 84.96C186.346 84.16 186.986 83.48 187.386 82.92C188.106 82.12 188.666 81.64 189.066 81.48C189.546 81.24 190.266 81.12 191.226 81.12H203.706C204.506 81.12 205.146 81.36 205.626 81.84C206.186 82.24 206.426 82.84 206.346 83.64C206.266 84.92 205.586 86.52 204.306 88.44C203.106 90.28 201.306 92.12 198.906 93.96C196.506 95.72 193.506 97.2 189.906 98.4C186.386 99.6 182.306 100.2 177.666 100.2ZM165.786 61.92H189.306V61.68C189.306 58.8 188.826 56.32 187.866 54.24C186.986 52.08 185.666 50.4 183.906 49.2C182.146 48 180.026 47.4 177.546 47.4C175.066 47.4 172.946 48 171.186 49.2C169.426 50.4 168.066 52.08 167.106 54.24C166.226 56.32 165.786 58.8 165.786 61.68V61.92ZM222.901 99C222.101 99 221.421 98.72 220.861 98.16C220.301 97.6 220.021 96.88 220.021 96V39.6C220.021 38.72 220.301 38 220.861 37.44C221.421 36.88 222.101 36.6 222.901 36.6H234.661C235.541 36.6 236.261 36.88 236.821 37.44C237.381 38 237.661 38.72 237.661 39.6V44.28C239.741 41.72 242.421 39.6 245.701 37.92C248.981 36.24 252.981 35.4 257.701 35.4C262.421 35.4 266.541 36.48 270.061 38.64C273.661 40.72 276.461 43.8 278.461 47.88C280.541 51.88 281.581 56.76 281.581 62.52V96C281.581 96.88 281.261 97.6 280.621 98.16C280.061 98.72 279.381 99 278.581 99H265.861C264.981 99 264.261 98.72 263.701 98.16C263.141 97.6 262.861 96.88 262.861 96V63.24C262.861 59 261.821 55.72 259.741 53.4C257.741 51 254.781 49.8 250.861 49.8C247.101 49.8 244.101 51 241.861 53.4C239.621 55.72 238.501 59 238.501 63.24V96C238.501 96.88 238.221 97.6 237.661 98.16C237.101 98.72 236.421 99 235.621 99H222.901ZM325.255 99C320.295 99 316.055 98.2 312.535 96.6C309.015 94.92 306.335 92.36 304.495 88.92C302.735 85.48 301.855 81.16 301.855 75.96V50.76H292.495C291.615 50.76 290.895 50.48 290.335 49.92C289.775 49.36 289.495 48.64 289.495 47.76V39.6C289.495 38.72 289.775 38 290.335 37.44C290.895 36.88 291.615 36.6 292.495 36.6H301.855V16.8C301.855 15.92 302.135 15.2 302.695 14.64C303.335 14.08 304.055 13.8 304.855 13.8H316.615C317.495 13.8 318.215 14.08 318.775 14.64C319.335 15.2 319.615 15.92 319.615 16.8V36.6H334.615C335.415 36.6 336.095 36.88 336.655 37.44C337.215 38 337.495 38.72 337.495 39.6V47.76C337.495 48.64 337.215 49.36 336.655 49.92C336.095 50.48 335.415 50.76 334.615 50.76H319.615V74.52C319.615 77.56 320.135 79.96 321.175 81.72C322.295 83.4 324.215 84.24 326.935 84.24H335.695C336.495 84.24 337.175 84.52 337.735 85.08C338.295 85.64 338.575 86.32 338.575 87.12V96C338.575 96.88 338.295 97.6 337.735 98.16C337.175 98.72 336.495 99 335.695 99H325.255ZM377.604 100.2C370.964 100.2 365.404 99.12 360.924 96.96C356.444 94.72 353.004 91.56 350.604 87.48C348.284 83.4 347.004 78.64 346.764 73.2C346.684 71.6 346.644 69.8 346.644 67.8C346.644 65.72 346.684 63.92 346.764 62.4C347.004 56.88 348.364 52.12 350.844 48.12C353.324 44.04 356.804 40.92 361.284 38.76C365.764 36.52 371.204 35.4 377.604 35.4C383.924 35.4 389.324 36.52 393.804 38.76C398.284 40.92 401.764 44.04 404.244 48.12C406.724 52.12 408.084 56.88 408.324 62.4C408.484 63.92 408.564 65.72 408.564 67.8C408.564 69.8 408.484 71.6 408.324 73.2C408.084 78.64 406.764 83.4 404.364 87.48C402.044 91.56 398.644 94.72 394.164 96.96C389.684 99.12 384.164 100.2 377.604 100.2ZM377.604 87C381.524 87 384.484 85.8 386.484 83.4C388.484 80.92 389.564 77.32 389.724 72.6C389.804 71.4 389.844 69.8 389.844 67.8C389.844 65.8 389.804 64.2 389.724 63C389.564 58.36 388.484 54.8 386.484 52.32C384.484 49.84 381.524 48.6 377.604 48.6C373.684 48.6 370.684 49.84 368.604 52.32C366.604 54.8 365.524 58.36 365.364 63C365.284 64.2 365.244 65.8 365.244 67.8C365.244 69.8 365.284 71.4 365.364 72.6C365.524 77.32 366.604 80.92 368.604 83.4C370.684 85.8 373.684 87 377.604 87ZM445.715 100.2C440.755 100.2 436.475 99.64 432.875 98.52C429.355 97.32 426.475 95.88 424.235 94.2C422.075 92.52 420.435 90.84 419.315 89.16C418.275 87.4 417.715 85.92 417.635 84.72C417.555 83.84 417.835 83.12 418.475 82.56C419.115 82 419.755 81.72 420.395 81.72H432.035C432.275 81.72 432.515 81.76 432.755 81.84C432.995 81.92 433.235 82.12 433.475 82.44C434.515 83.16 435.595 84 436.715 84.96C437.835 85.84 439.115 86.6 440.555 87.24C442.075 87.88 443.955 88.2 446.195 88.2C448.835 88.2 451.075 87.68 452.915 86.64C454.755 85.52 455.675 83.96 455.675 81.96C455.675 80.52 455.235 79.32 454.355 78.36C453.555 77.4 451.995 76.52 449.675 75.72C447.355 74.92 443.915 74.04 439.355 73.08C435.035 72.12 431.355 70.84 428.315 69.24C425.275 67.64 422.995 65.64 421.475 63.24C419.955 60.76 419.195 57.8 419.195 54.36C419.195 51.24 420.155 48.24 422.075 45.36C424.075 42.48 426.995 40.12 430.835 38.28C434.675 36.36 439.475 35.4 445.235 35.4C449.635 35.4 453.475 35.96 456.755 37.08C460.115 38.12 462.915 39.48 465.155 41.16C467.395 42.76 469.075 44.44 470.195 46.2C471.395 47.88 472.035 49.36 472.115 50.64C472.195 51.44 471.955 52.12 471.395 52.68C470.835 53.24 470.195 53.52 469.475 53.52H458.795C458.395 53.52 458.035 53.48 457.715 53.4C457.395 53.24 457.115 53.04 456.875 52.8C455.915 52.16 454.915 51.44 453.875 50.64C452.915 49.76 451.755 49 450.395 48.36C449.035 47.72 447.275 47.4 445.115 47.4C442.475 47.4 440.435 48 438.995 49.2C437.635 50.32 436.955 51.76 436.955 53.52C436.955 54.64 437.315 55.68 438.035 56.64C438.755 57.6 440.235 58.48 442.475 59.28C444.715 60.08 448.115 60.92 452.675 61.8C458.115 62.76 462.435 64.2 465.635 66.12C468.835 68.04 471.115 70.28 472.475 72.84C473.915 75.32 474.635 78 474.635 80.88C474.635 84.64 473.515 88 471.275 90.96C469.035 93.84 465.755 96.12 461.435 97.8C457.195 99.4 451.955 100.2 445.715 100.2ZM530.998 100.2C526.758 100.2 522.958 99.4 519.598 97.8C516.238 96.12 513.558 93.88 511.558 91.08C509.558 88.28 508.558 85.16 508.558 81.72C508.558 76.04 510.838 71.56 515.398 68.28C520.038 65 526.118 62.76 533.638 61.56L549.358 59.28V57.12C549.358 54 548.638 51.6 547.198 49.92C545.758 48.24 543.238 47.4 539.638 47.4C536.998 47.4 534.878 47.92 533.278 48.96C531.678 50 530.438 51.36 529.558 53.04C528.918 54.08 527.998 54.6 526.798 54.6H515.398C514.518 54.6 513.838 54.36 513.358 53.88C512.878 53.32 512.678 52.68 512.758 51.96C512.758 50.6 513.278 49 514.318 47.16C515.358 45.32 516.958 43.52 519.118 41.76C521.278 39.92 524.038 38.4 527.398 37.2C530.758 36 534.878 35.4 539.758 35.4C544.798 35.4 549.118 36 552.718 37.2C556.318 38.4 559.198 40.08 561.358 42.24C563.518 44.4 565.118 46.92 566.158 49.8C567.198 52.6 567.718 55.64 567.718 58.92V96C567.718 96.88 567.438 97.6 566.878 98.16C566.318 98.72 565.598 99 564.718 99H552.958C552.158 99 551.478 98.72 550.918 98.16C550.358 97.6 550.078 96.88 550.078 96V91.56C549.038 93.08 547.638 94.52 545.878 95.88C544.118 97.16 541.998 98.2 539.518 99C537.118 99.8 534.278 100.2 530.998 100.2ZM535.798 87.72C538.438 87.72 540.798 87.16 542.878 86.04C544.958 84.92 546.598 83.2 547.798 80.88C548.998 78.56 549.598 75.64 549.598 72.12V70.08L538.438 71.88C534.118 72.6 530.958 73.68 528.958 75.12C526.958 76.56 525.958 78.32 525.958 80.4C525.958 81.92 526.398 83.24 527.278 84.36C528.238 85.48 529.478 86.32 530.998 86.88C532.518 87.44 534.118 87.72 535.798 87.72ZM610.808 100.2C604.168 100.2 598.608 99.12 594.128 96.96C589.648 94.72 586.208 91.56 583.808 87.48C581.488 83.4 580.208 78.64 579.968 73.2C579.888 71.6 579.848 69.8 579.848 67.8C579.848 65.72 579.888 63.92 579.968 62.4C580.208 56.88 581.568 52.12 584.048 48.12C586.528 44.04 590.008 40.92 594.488 38.76C598.968 36.52 604.408 35.4 610.808 35.4C617.128 35.4 622.528 36.52 627.008 38.76C631.488 40.92 634.968 44.04 637.448 48.12C639.928 52.12 641.288 56.88 641.528 62.4C641.688 63.92 641.768 65.72 641.768 67.8C641.768 69.8 641.688 71.6 641.528 73.2C641.288 78.64 639.968 83.4 637.568 87.48C635.248 91.56 631.848 94.72 627.368 96.96C622.888 99.12 617.368 100.2 610.808 100.2ZM610.808 87C614.728 87 617.688 85.8 619.688 83.4C621.688 80.92 622.768 77.32 622.928 72.6C623.008 71.4 623.048 69.8 623.048 67.8C623.048 65.8 623.008 64.2 622.928 63C622.768 58.36 621.688 54.8 619.688 52.32C617.688 49.84 614.728 48.6 610.808 48.6C606.888 48.6 603.888 49.84 601.808 52.32C599.808 54.8 598.728 58.36 598.568 63C598.488 64.2 598.448 65.8 598.448 67.8C598.448 69.8 598.488 71.4 598.568 72.6C598.728 77.32 599.808 80.92 601.808 83.4C603.888 85.8 606.888 87 610.808 87ZM699.835 99C698.635 99 697.715 98.72 697.075 98.16C696.515 97.52 696.035 96.8 695.635 96L673.075 40.32C672.915 40 672.835 39.64 672.835 39.24C672.835 38.52 673.075 37.92 673.555 37.44C674.115 36.88 674.755 36.6 675.475 36.6H687.115C688.155 36.6 688.915 36.88 689.395 37.44C689.955 38 690.315 38.52 690.475 39L705.235 78.6L719.995 39C720.235 38.52 720.595 38 721.075 37.44C721.635 36.88 722.395 36.6 723.355 36.6H734.995C735.715 36.6 736.315 36.88 736.795 37.44C737.355 37.92 737.635 38.52 737.635 39.24C737.635 39.64 737.595 40 737.515 40.32L714.835 96C714.515 96.8 714.035 97.52 713.395 98.16C712.755 98.72 711.835 99 710.635 99H699.835ZM750.713 99C749.913 99 749.233 98.72 748.673 98.16C748.113 97.6 747.833 96.88 747.833 96V39.6C747.833 38.72 748.113 38 748.673 37.44C749.233 36.88 749.913 36.6 750.713 36.6H762.713C763.593 36.6 764.313 36.88 764.873 37.44C765.433 38 765.713 38.72 765.713 39.6V96C765.713 96.88 765.433 97.6 764.873 98.16C764.313 98.72 763.593 99 762.713 99H750.713ZM750.353 27C749.553 27 748.873 26.72 748.313 26.16C747.753 25.6 747.473 24.88 747.473 24V14.4C747.473 13.52 747.753 12.8 748.313 12.24C748.873 11.6 749.553 11.28 750.353 11.28H762.953C763.833 11.28 764.553 11.6 765.113 12.24C765.753 12.8 766.073 13.52 766.073 14.4V24C766.073 24.88 765.753 25.6 765.113 26.16C764.553 26.72 763.833 27 762.953 27H750.353ZM802.843 99C801.643 99 800.723 98.72 800.083 98.16C799.523 97.52 799.043 96.8 798.643 96L776.083 40.32C775.923 40 775.843 39.64 775.843 39.24C775.843 38.52 776.083 37.92 776.563 37.44C777.123 36.88 777.763 36.6 778.483 36.6H790.123C791.163 36.6 791.923 36.88 792.403 37.44C792.963 38 793.323 38.52 793.483 39L808.243 78.6L823.003 39C823.243 38.52 823.603 38 824.083 37.44C824.643 36.88 825.403 36.6 826.363 36.6H838.003C838.723 36.6 839.323 36.88 839.803 37.44C840.363 37.92 840.643 38.52 840.643 39.24C840.643 39.64 840.603 40 840.523 40.32L817.843 96C817.523 96.8 817.043 97.52 816.403 98.16C815.763 98.72 814.843 99 813.643 99H802.843ZM877.058 100.2C870.418 100.2 864.858 99.12 860.378 96.96C855.898 94.72 852.458 91.56 850.058 87.48C847.738 83.4 846.458 78.64 846.218 73.2C846.138 71.6 846.098 69.8 846.098 67.8C846.098 65.72 846.138 63.92 846.218 62.4C846.458 56.88 847.818 52.12 850.298 48.12C852.778 44.04 856.258 40.92 860.738 38.76C865.218 36.52 870.658 35.4 877.058 35.4C883.378 35.4 888.778 36.52 893.258 38.76C897.738 40.92 901.218 44.04 903.698 48.12C906.178 52.12 907.538 56.88 907.778 62.4C907.938 63.92 908.018 65.72 908.018 67.8C908.018 69.8 907.938 71.6 907.778 73.2C907.538 78.64 906.218 83.4 903.818 87.48C901.498 91.56 898.098 94.72 893.618 96.96C889.138 99.12 883.618 100.2 877.058 100.2ZM877.058 87C880.978 87 883.938 85.8 885.938 83.4C887.938 80.92 889.018 77.32 889.178 72.6C889.258 71.4 889.298 69.8 889.298 67.8C889.298 65.8 889.258 64.2 889.178 63C889.018 58.36 887.938 54.8 885.938 52.32C883.938 49.84 880.978 48.6 877.058 48.6C873.138 48.6 870.138 49.84 868.058 52.32C866.058 54.8 864.978 58.36 864.818 63C864.738 64.2 864.698 65.8 864.698 67.8C864.698 69.8 864.738 71.4 864.818 72.6C864.978 77.32 866.058 80.92 868.058 83.4C870.138 85.8 873.138 87 877.058 87Z" fill="#6D2E46"/>
</svg>
