<svg width="962" height="346" viewBox="0 0 962 346" fill="none" xmlns="http://www.w3.org/2000/svg">
<g id="Foste feito para amar.">
<path d="M21.2223 148C19.9023 148 18.8223 147.58 17.9823 146.74C17.1423 145.9 16.7223 144.82 16.7223 143.5V26.5C16.7223 25.18 17.1423 24.1 17.9823 23.26C18.8223 22.42 19.9023 22 21.2223 22H101.502C102.822 22 103.902 22.42 104.742 23.26C105.582 24.1 106.002 25.18 106.002 26.5V41.8C106.002 43.12 105.582 44.2 104.742 45.04C103.902 45.88 102.822 46.3 101.502 46.3H44.8023V76.72H97.9024C99.2223 76.72 100.302 77.14 101.142 77.98C101.982 78.82 102.402 79.9 102.402 81.22V96.52C102.402 97.72 101.982 98.74 101.142 99.58C100.302 100.42 99.2223 100.84 97.9024 100.84H44.8023V143.5C44.8023 144.82 44.3823 145.9 43.5423 146.74C42.7023 147.58 41.6223 148 40.3023 148H21.2223ZM165.512 149.8C155.552 149.8 147.212 148.18 140.492 144.94C133.772 141.58 128.612 136.84 125.012 130.72C121.532 124.6 119.612 117.46 119.252 109.3C119.132 106.9 119.072 104.2 119.072 101.2C119.072 98.08 119.132 95.38 119.252 93.1C119.612 84.82 121.652 77.68 125.372 71.68C129.092 65.56 134.312 60.88 141.032 57.64C147.752 54.28 155.912 52.6 165.512 52.6C174.992 52.6 183.092 54.28 189.812 57.64C196.532 60.88 201.752 65.56 205.472 71.68C209.192 77.68 211.232 84.82 211.592 93.1C211.832 95.38 211.952 98.08 211.952 101.2C211.952 104.2 211.832 106.9 211.592 109.3C211.232 117.46 209.252 124.6 205.652 130.72C202.172 136.84 197.072 141.58 190.352 144.94C183.632 148.18 175.352 149.8 165.512 149.8ZM165.512 130C171.392 130 175.832 128.2 178.832 124.6C181.832 120.88 183.452 115.48 183.692 108.4C183.812 106.6 183.872 104.2 183.872 101.2C183.872 98.2 183.812 95.8 183.692 94C183.452 87.04 181.832 81.7 178.832 77.98C175.832 74.26 171.392 72.4 165.512 72.4C159.632 72.4 155.132 74.26 152.012 77.98C149.012 81.7 147.392 87.04 147.152 94C147.032 95.8 146.972 98.2 146.972 101.2C146.972 104.2 147.032 106.6 147.152 108.4C147.392 115.48 149.012 120.88 152.012 124.6C155.132 128.2 159.632 130 165.512 130ZM267.678 149.8C260.238 149.8 253.818 148.96 248.418 147.28C243.138 145.48 238.818 143.32 235.458 140.8C232.218 138.28 229.758 135.76 228.078 133.24C226.518 130.6 225.678 128.38 225.558 126.58C225.438 125.26 225.858 124.18 226.818 123.34C227.778 122.5 228.738 122.08 229.698 122.08H247.158C247.518 122.08 247.878 122.14 248.238 122.26C248.598 122.38 248.958 122.68 249.318 123.16C250.878 124.24 252.498 125.5 254.178 126.94C255.858 128.26 257.778 129.4 259.938 130.36C262.218 131.32 265.038 131.8 268.398 131.8C272.358 131.8 275.718 131.02 278.478 129.46C281.238 127.78 282.618 125.44 282.618 122.44C282.618 120.28 281.958 118.48 280.638 117.04C279.438 115.6 277.098 114.28 273.618 113.08C270.138 111.88 264.978 110.56 258.138 109.12C251.658 107.68 246.138 105.76 241.578 103.36C237.018 100.96 233.598 97.96 231.317 94.36C229.038 90.64 227.898 86.2 227.898 81.04C227.898 76.36 229.338 71.86 232.218 67.54C235.218 63.22 239.598 59.68 245.358 56.92C251.118 54.04 258.318 52.6 266.957 52.6C273.558 52.6 279.318 53.44 284.238 55.12C289.278 56.68 293.478 58.72 296.838 61.24C300.198 63.64 302.718 66.16 304.398 68.8C306.198 71.32 307.158 73.54 307.278 75.46C307.398 76.66 307.038 77.68 306.198 78.52C305.358 79.36 304.398 79.78 303.318 79.78H287.298C286.698 79.78 286.158 79.72 285.678 79.6C285.198 79.36 284.778 79.06 284.418 78.7C282.978 77.74 281.478 76.66 279.918 75.46C278.478 74.14 276.738 73 274.698 72.04C272.658 71.08 270.018 70.6 266.778 70.6C262.818 70.6 259.758 71.5 257.598 73.3C255.558 74.98 254.538 77.14 254.538 79.78C254.538 81.46 255.078 83.02 256.158 84.46C257.238 85.9 259.458 87.22 262.818 88.42C266.178 89.62 271.278 90.88 278.118 92.2C286.278 93.64 292.758 95.8 297.558 98.68C302.358 101.56 305.778 104.92 307.818 108.76C309.978 112.48 311.058 116.5 311.058 120.82C311.058 126.46 309.378 131.5 306.018 135.94C302.658 140.26 297.738 143.68 291.258 146.2C284.898 148.6 277.038 149.8 267.678 149.8ZM372.985 148C365.545 148 359.185 146.8 353.905 144.4C348.625 141.88 344.605 138.04 341.845 132.88C339.205 127.72 337.885 121.24 337.885 113.44V75.64H323.845C322.525 75.64 321.445 75.22 320.605 74.38C319.765 73.54 319.345 72.46 319.345 71.14V58.9C319.345 57.58 319.765 56.5 320.605 55.66C321.445 54.82 322.525 54.4 323.845 54.4H337.885V24.7C337.885 23.38 338.305 22.3 339.145 21.46C340.105 20.62 341.185 20.2 342.385 20.2H360.025C361.345 20.2 362.425 20.62 363.265 21.46C364.105 22.3 364.525 23.38 364.525 24.7V54.4H387.025C388.225 54.4 389.245 54.82 390.085 55.66C390.925 56.5 391.345 57.58 391.345 58.9V71.14C391.345 72.46 390.925 73.54 390.085 74.38C389.245 75.22 388.225 75.64 387.025 75.64H364.525V111.28C364.525 115.84 365.305 119.44 366.865 122.08C368.545 124.6 371.425 125.86 375.505 125.86H388.645C389.845 125.86 390.865 126.28 391.705 127.12C392.545 127.96 392.965 128.98 392.965 130.18V143.5C392.965 144.82 392.545 145.9 391.705 146.74C390.865 147.58 389.845 148 388.645 148H372.985ZM450.428 149.8C436.628 149.8 425.648 145.96 417.488 138.28C409.448 130.6 405.188 119.44 404.708 104.8C404.708 103.84 404.708 102.58 404.708 101.02C404.708 99.34 404.708 98.02 404.708 97.06C405.188 87.82 407.288 79.9 411.008 73.3C414.728 66.58 419.948 61.48 426.668 58C433.388 54.4 441.248 52.6 450.248 52.6C460.328 52.6 468.728 54.7 475.448 58.9C482.288 62.98 487.388 68.62 490.748 75.82C494.228 82.9 495.968 91.06 495.968 100.3V104.44C495.968 105.64 495.488 106.66 494.528 107.5C493.688 108.34 492.668 108.76 491.468 108.76H432.608C432.608 108.88 432.608 109.12 432.608 109.48C432.608 109.72 432.608 109.96 432.608 110.2C432.728 114.04 433.448 117.58 434.768 120.82C436.208 123.94 438.188 126.46 440.708 128.38C443.348 130.3 446.468 131.26 450.068 131.26C453.068 131.26 455.528 130.84 457.448 130C459.368 129.16 460.928 128.14 462.128 126.94C463.448 125.74 464.408 124.72 465.008 123.88C466.088 122.68 466.928 121.96 467.528 121.72C468.248 121.36 469.328 121.18 470.768 121.18H489.488C490.688 121.18 491.648 121.54 492.368 122.26C493.208 122.86 493.568 123.76 493.448 124.96C493.328 126.88 492.308 129.28 490.388 132.16C488.588 134.92 485.888 137.68 482.288 140.44C478.688 143.08 474.188 145.3 468.788 147.1C463.508 148.9 457.388 149.8 450.428 149.8ZM432.608 92.38H467.888V92.02C467.888 87.7 467.168 83.98 465.728 80.86C464.408 77.62 462.428 75.1 459.788 73.3C457.148 71.5 453.968 70.6 450.248 70.6C446.528 70.6 443.348 71.5 440.708 73.3C438.068 75.1 436.028 77.62 434.588 80.86C433.268 83.98 432.608 87.7 432.608 92.02V92.38ZM565.459 148C564.139 148 563.059 147.58 562.219 146.74C561.379 145.9 560.959 144.82 560.959 143.5V75.64H546.919C545.599 75.64 544.519 75.22 543.679 74.38C542.839 73.54 542.419 72.46 542.419 71.14V58.9C542.419 57.58 542.839 56.5 543.679 55.66C544.519 54.82 545.599 54.4 546.919 54.4H560.959V47.92C560.959 40.24 562.399 33.94 565.279 29.02C568.159 24.1 572.359 20.5 577.879 18.22C583.399 15.94 590.179 14.8 598.219 14.8H611.359C612.679 14.8 613.759 15.22 614.599 16.06C615.439 16.9 615.859 17.98 615.859 19.3V31.54C615.859 32.86 615.439 33.94 614.599 34.78C613.759 35.62 612.679 36.04 611.359 36.04H599.299C594.859 36.04 591.739 37.12 589.939 39.28C588.259 41.44 587.419 44.62 587.419 48.82V54.4H609.559C610.879 54.4 611.959 54.82 612.799 55.66C613.639 56.5 614.059 57.58 614.059 58.9V71.14C614.059 72.46 613.639 73.54 612.799 74.38C611.959 75.22 610.879 75.64 609.559 75.64H587.419V143.5C587.419 144.82 586.999 145.9 586.159 146.74C585.319 147.58 584.299 148 583.099 148H565.459ZM668.221 149.8C654.421 149.8 643.441 145.96 635.281 138.28C627.241 130.6 622.981 119.44 622.501 104.8C622.501 103.84 622.501 102.58 622.501 101.02C622.501 99.34 622.501 98.02 622.501 97.06C622.981 87.82 625.081 79.9 628.801 73.3C632.521 66.58 637.741 61.48 644.461 58C651.181 54.4 659.041 52.6 668.041 52.6C678.121 52.6 686.521 54.7 693.241 58.9C700.081 62.98 705.181 68.62 708.541 75.82C712.021 82.9 713.761 91.06 713.761 100.3V104.44C713.761 105.64 713.281 106.66 712.321 107.5C711.481 108.34 710.461 108.76 709.261 108.76H650.401C650.401 108.88 650.401 109.12 650.401 109.48C650.401 109.72 650.401 109.96 650.401 110.2C650.521 114.04 651.241 117.58 652.561 120.82C654.001 123.94 655.981 126.46 658.501 128.38C661.141 130.3 664.261 131.26 667.861 131.26C670.861 131.26 673.321 130.84 675.241 130C677.161 129.16 678.721 128.14 679.921 126.94C681.241 125.74 682.201 124.72 682.801 123.88C683.881 122.68 684.721 121.96 685.321 121.72C686.041 121.36 687.121 121.18 688.561 121.18H707.281C708.481 121.18 709.441 121.54 710.161 122.26C711.001 122.86 711.361 123.76 711.241 124.96C711.121 126.88 710.101 129.28 708.181 132.16C706.381 134.92 703.681 137.68 700.081 140.44C696.481 143.08 691.981 145.3 686.581 147.1C681.301 148.9 675.181 149.8 668.221 149.8ZM650.401 92.38H685.681V92.02C685.681 87.7 684.961 83.98 683.521 80.86C682.201 77.62 680.221 75.1 677.581 73.3C674.941 71.5 671.761 70.6 668.041 70.6C664.321 70.6 661.141 71.5 658.501 73.3C655.861 75.1 653.821 77.62 652.381 80.86C651.061 83.98 650.401 87.7 650.401 92.02V92.38ZM736.074 148C734.874 148 733.854 147.58 733.014 146.74C732.174 145.9 731.754 144.82 731.754 143.5V58.9C731.754 57.58 732.174 56.5 733.014 55.66C733.854 54.82 734.874 54.4 736.074 54.4H754.074C755.394 54.4 756.474 54.82 757.314 55.66C758.154 56.5 758.574 57.58 758.574 58.9V143.5C758.574 144.82 758.154 145.9 757.314 146.74C756.474 147.58 755.394 148 754.074 148H736.074ZM735.534 40C734.334 40 733.314 39.58 732.474 38.74C731.634 37.9 731.214 36.82 731.214 35.5V21.1C731.214 19.78 731.634 18.7 732.474 17.86C733.314 16.9 734.334 16.42 735.534 16.42H754.434C755.754 16.42 756.834 16.9 757.674 17.86C758.634 18.7 759.114 19.78 759.114 21.1V35.5C759.114 36.82 758.634 37.9 757.674 38.74C756.834 39.58 755.754 40 754.434 40H735.534ZM826.149 148C818.709 148 812.349 146.8 807.069 144.4C801.789 141.88 797.769 138.04 795.009 132.88C792.369 127.72 791.049 121.24 791.049 113.44V75.64H777.009C775.689 75.64 774.609 75.22 773.769 74.38C772.929 73.54 772.509 72.46 772.509 71.14V58.9C772.509 57.58 772.929 56.5 773.769 55.66C774.609 54.82 775.689 54.4 777.009 54.4H791.049V24.7C791.049 23.38 791.469 22.3 792.309 21.46C793.269 20.62 794.349 20.2 795.549 20.2H813.189C814.509 20.2 815.589 20.62 816.429 21.46C817.269 22.3 817.689 23.38 817.689 24.7V54.4H840.189C841.389 54.4 842.409 54.82 843.249 55.66C844.089 56.5 844.509 57.58 844.509 58.9V71.14C844.509 72.46 844.089 73.54 843.249 74.38C842.409 75.22 841.389 75.64 840.189 75.64H817.689V111.28C817.689 115.84 818.469 119.44 820.029 122.08C821.709 124.6 824.589 125.86 828.669 125.86H841.809C843.009 125.86 844.029 126.28 844.869 127.12C845.709 127.96 846.129 128.98 846.129 130.18V143.5C846.129 144.82 845.709 145.9 844.869 146.74C844.029 147.58 843.009 148 841.809 148H826.149ZM904.672 149.8C894.712 149.8 886.372 148.18 879.652 144.94C872.932 141.58 867.772 136.84 864.172 130.72C860.692 124.6 858.772 117.46 858.412 109.3C858.292 106.9 858.232 104.2 858.232 101.2C858.232 98.08 858.292 95.38 858.412 93.1C858.772 84.82 860.812 77.68 864.532 71.68C868.252 65.56 873.472 60.88 880.192 57.64C886.912 54.28 895.072 52.6 904.672 52.6C914.152 52.6 922.252 54.28 928.972 57.64C935.692 60.88 940.912 65.56 944.632 71.68C948.352 77.68 950.392 84.82 950.752 93.1C950.992 95.38 951.112 98.08 951.112 101.2C951.112 104.2 950.992 106.9 950.752 109.3C950.392 117.46 948.412 124.6 944.812 130.72C941.332 136.84 936.232 141.58 929.512 144.94C922.792 148.18 914.512 149.8 904.672 149.8ZM904.672 130C910.552 130 914.992 128.2 917.992 124.6C920.992 120.88 922.612 115.48 922.852 108.4C922.972 106.6 923.032 104.2 923.032 101.2C923.032 98.2 922.972 95.8 922.852 94C922.612 87.04 920.992 81.7 917.992 77.98C914.992 74.26 910.552 72.4 904.672 72.4C898.792 72.4 894.292 74.26 891.172 77.98C888.172 81.7 886.552 87.04 886.312 94C886.192 95.8 886.132 98.2 886.132 101.2C886.132 104.2 886.192 106.6 886.312 108.4C886.552 115.48 888.172 120.88 891.172 124.6C894.292 128.2 898.792 130 904.672 130ZM32.7775 355.2C31.4575 355.2 30.3775 354.78 29.5375 353.94C28.6975 353.1 28.2775 352.02 28.2775 350.7V231.9C28.2775 230.58 28.6975 229.5 29.5375 228.66C30.3775 227.82 31.4575 227.4 32.7775 227.4H49.8775C51.1975 227.4 52.2775 227.82 53.1175 228.66C53.9575 229.5 54.3775 230.58 54.3775 231.9V238.74C57.2575 234.9 60.9775 231.78 65.5375 229.38C70.0975 226.86 75.7975 225.6 82.6375 225.6C88.8775 225.6 94.2775 226.62 98.8375 228.66C103.518 230.58 107.418 233.4 110.538 237.12C113.778 240.72 116.238 245.1 117.918 250.26C119.718 255.42 120.738 261.24 120.978 267.72C121.098 270 121.158 272.16 121.158 274.2C121.158 276.24 121.098 278.46 120.978 280.86C120.858 286.98 119.898 292.62 118.098 297.78C116.418 302.94 113.958 307.38 110.718 311.1C107.478 314.82 103.518 317.7 98.8375 319.74C94.2775 321.78 88.8775 322.8 82.6375 322.8C76.5175 322.8 71.1775 321.72 66.6175 319.56C62.1775 317.28 58.5175 314.22 55.6375 310.38V350.7C55.6375 352.02 55.2175 353.1 54.3775 353.94C53.5375 354.78 52.5175 355.2 51.3175 355.2H32.7775ZM74.5375 301.2C79.0975 301.2 82.6975 300.24 85.3375 298.32C87.9775 296.28 89.8375 293.64 90.9175 290.4C92.1175 287.16 92.8375 283.62 93.0775 279.78C93.3175 276.06 93.3175 272.34 93.0775 268.62C92.8375 264.78 92.1175 261.24 90.9175 258C89.8375 254.76 87.9775 252.18 85.3375 250.26C82.6975 248.22 79.0975 247.2 74.5375 247.2C70.0975 247.2 66.4975 248.22 63.7375 250.26C60.9775 252.3 58.9975 254.88 57.7975 258C56.5975 261.12 55.8775 264.48 55.6375 268.08C55.5175 270.24 55.4575 272.46 55.4575 274.74C55.4575 277.02 55.5175 279.3 55.6375 281.58C55.7575 284.94 56.4775 288.12 57.7975 291.12C59.2375 294 61.2775 296.4 63.9175 298.32C66.6775 300.24 70.2175 301.2 74.5375 301.2ZM167.79 322.8C161.43 322.8 155.73 321.6 150.69 319.2C145.65 316.68 141.63 313.32 138.63 309.12C135.63 304.92 134.13 300.24 134.13 295.08C134.13 286.56 137.55 279.84 144.39 274.92C151.35 270 160.47 266.64 171.75 264.84L195.33 261.42V258.18C195.33 253.5 194.25 249.9 192.09 247.38C189.93 244.86 186.15 243.6 180.75 243.6C176.79 243.6 173.61 244.38 171.21 245.94C168.81 247.5 166.95 249.54 165.63 252.06C164.67 253.62 163.29 254.4 161.49 254.4H144.39C143.07 254.4 142.05 254.04 141.33 253.32C140.61 252.48 140.31 251.52 140.43 250.44C140.43 248.4 141.21 246 142.77 243.24C144.33 240.48 146.73 237.78 149.97 235.14C153.21 232.38 157.35 230.1 162.39 228.3C167.43 226.5 173.61 225.6 180.93 225.6C188.49 225.6 194.97 226.5 200.37 228.3C205.77 230.1 210.09 232.62 213.33 235.86C216.57 239.1 218.97 242.88 220.53 247.2C222.09 251.4 222.87 255.96 222.87 260.88V316.5C222.87 317.82 222.45 318.9 221.61 319.74C220.77 320.58 219.69 321 218.37 321H200.73C199.53 321 198.51 320.58 197.67 319.74C196.83 318.9 196.41 317.82 196.41 316.5V309.84C194.85 312.12 192.75 314.28 190.11 316.32C187.47 318.24 184.29 319.8 180.57 321C176.97 322.2 172.71 322.8 167.79 322.8ZM174.99 304.08C178.95 304.08 182.49 303.24 185.61 301.56C188.73 299.88 191.19 297.3 192.99 293.82C194.79 290.34 195.69 285.96 195.69 280.68V277.62L178.95 280.32C172.47 281.4 167.73 283.02 164.73 285.18C161.73 287.34 160.23 289.98 160.23 293.1C160.23 295.38 160.89 297.36 162.21 299.04C163.65 300.72 165.51 301.98 167.79 302.82C170.07 303.66 172.47 304.08 174.99 304.08ZM248.984 321C247.784 321 246.764 320.58 245.924 319.74C245.084 318.9 244.664 317.82 244.664 316.5V231.9C244.664 230.7 245.084 229.68 245.924 228.84C246.764 227.88 247.784 227.4 248.984 227.4H266.624C267.824 227.4 268.844 227.88 269.684 228.84C270.644 229.68 271.124 230.7 271.124 231.9V239.1C274.124 235.38 277.784 232.5 282.104 230.46C286.544 228.42 291.644 227.4 297.404 227.4H305.144C306.344 227.4 307.364 227.82 308.204 228.66C309.044 229.5 309.464 230.58 309.464 231.9V247.38C309.464 248.7 309.044 249.78 308.204 250.62C307.364 251.46 306.344 251.88 305.144 251.88H289.304C284.024 251.88 279.884 253.38 276.884 256.38C273.884 259.26 272.384 263.4 272.384 268.8V316.5C272.384 317.82 271.964 318.9 271.124 319.74C270.284 320.58 269.204 321 267.884 321H248.984ZM348.845 322.8C342.485 322.8 336.785 321.6 331.745 319.2C326.705 316.68 322.685 313.32 319.685 309.12C316.685 304.92 315.185 300.24 315.185 295.08C315.185 286.56 318.605 279.84 325.445 274.92C332.405 270 341.525 266.64 352.805 264.84L376.385 261.42V258.18C376.385 253.5 375.305 249.9 373.145 247.38C370.985 244.86 367.205 243.6 361.805 243.6C357.845 243.6 354.665 244.38 352.265 245.94C349.865 247.5 348.005 249.54 346.685 252.06C345.725 253.62 344.345 254.4 342.545 254.4H325.445C324.125 254.4 323.105 254.04 322.385 253.32C321.665 252.48 321.365 251.52 321.485 250.44C321.485 248.4 322.265 246 323.825 243.24C325.385 240.48 327.785 237.78 331.025 235.14C334.265 232.38 338.405 230.1 343.445 228.3C348.485 226.5 354.665 225.6 361.985 225.6C369.545 225.6 376.025 226.5 381.425 228.3C386.825 230.1 391.145 232.62 394.385 235.86C397.625 239.1 400.025 242.88 401.585 247.2C403.145 251.4 403.925 255.96 403.925 260.88V316.5C403.925 317.82 403.505 318.9 402.665 319.74C401.825 320.58 400.745 321 399.425 321H381.785C380.585 321 379.565 320.58 378.725 319.74C377.885 318.9 377.465 317.82 377.465 316.5V309.84C375.905 312.12 373.805 314.28 371.165 316.32C368.525 318.24 365.345 319.8 361.625 321C358.025 322.2 353.765 322.8 348.845 322.8ZM356.045 304.08C360.005 304.08 363.545 303.24 366.665 301.56C369.785 299.88 372.245 297.3 374.045 293.82C375.845 290.34 376.745 285.96 376.745 280.68V277.62L360.005 280.32C353.525 281.4 348.785 283.02 345.785 285.18C342.785 287.34 341.285 289.98 341.285 293.1C341.285 295.38 341.945 297.36 343.265 299.04C344.705 300.72 346.565 301.98 348.845 302.82C351.125 303.66 353.525 304.08 356.045 304.08Z" fill="#6D2E46"/>
<path d="M492.985 322.8C486.625 322.8 480.925 321.6 475.885 319.2C470.845 316.68 466.825 313.32 463.825 309.12C460.825 304.92 459.325 300.24 459.325 295.08C459.325 286.56 462.745 279.84 469.585 274.92C476.545 270 485.665 266.64 496.945 264.84L520.525 261.42V258.18C520.525 253.5 519.445 249.9 517.285 247.38C515.125 244.86 511.345 243.6 505.945 243.6C501.985 243.6 498.805 244.38 496.405 245.94C494.005 247.5 492.145 249.54 490.825 252.06C489.865 253.62 488.485 254.4 486.685 254.4H469.585C468.265 254.4 467.245 254.04 466.525 253.32C465.805 252.48 465.505 251.52 465.625 250.44C465.625 248.4 466.405 246 467.965 243.24C469.525 240.48 471.925 237.78 475.165 235.14C478.405 232.38 482.545 230.1 487.585 228.3C492.625 226.5 498.805 225.6 506.125 225.6C513.685 225.6 520.165 226.5 525.565 228.3C530.965 230.1 535.285 232.62 538.525 235.86C541.765 239.1 544.165 242.88 545.725 247.2C547.285 251.4 548.065 255.96 548.065 260.88V316.5C548.065 317.82 547.645 318.9 546.805 319.74C545.965 320.58 544.885 321 543.565 321H525.925C524.725 321 523.705 320.58 522.865 319.74C522.025 318.9 521.605 317.82 521.605 316.5V309.84C520.045 312.12 517.945 314.28 515.305 316.32C512.665 318.24 509.485 319.8 505.765 321C502.165 322.2 497.905 322.8 492.985 322.8ZM500.185 304.08C504.145 304.08 507.685 303.24 510.805 301.56C513.925 299.88 516.385 297.3 518.185 293.82C519.985 290.34 520.885 285.96 520.885 280.68V277.62L504.145 280.32C497.665 281.4 492.925 283.02 489.925 285.18C486.925 287.34 485.425 289.98 485.425 293.1C485.425 295.38 486.085 297.36 487.405 299.04C488.845 300.72 490.705 301.98 492.985 302.82C495.265 303.66 497.665 304.08 500.185 304.08ZM574.18 321C572.98 321 571.96 320.58 571.12 319.74C570.28 318.9 569.86 317.82 569.86 316.5V231.9C569.86 230.58 570.28 229.5 571.12 228.66C571.96 227.82 572.98 227.4 574.18 227.4H590.92C592.12 227.4 593.14 227.82 593.98 228.66C594.94 229.5 595.42 230.58 595.42 231.9V238.02C597.82 234.66 601.12 231.78 605.32 229.38C609.64 226.98 614.74 225.72 620.62 225.6C634.54 225.36 644.08 230.64 649.24 241.44C652 236.76 655.96 232.98 661.12 230.1C666.4 227.1 672.16 225.6 678.4 225.6C684.64 225.6 690.28 227.04 695.32 229.92C700.36 232.68 704.32 237 707.2 242.88C710.2 248.64 711.7 256.08 711.7 265.2V316.5C711.7 317.82 711.28 318.9 710.44 319.74C709.6 320.58 708.58 321 707.38 321H689.56C688.36 321 687.34 320.58 686.5 319.74C685.66 318.9 685.24 317.82 685.24 316.5V266.64C685.24 261.72 684.52 257.88 683.08 255.12C681.64 252.24 679.72 250.2 677.32 249C675.04 247.8 672.46 247.2 669.58 247.2C667.06 247.2 664.6 247.8 662.2 249C659.92 250.2 658 252.24 656.44 255.12C655 257.88 654.28 261.72 654.28 266.64V316.5C654.28 317.82 653.86 318.9 653.02 319.74C652.18 320.58 651.1 321 649.78 321H632.14C630.82 321 629.74 320.58 628.9 319.74C628.06 318.9 627.64 317.82 627.64 316.5V266.64C627.64 261.72 626.92 257.88 625.48 255.12C624.04 252.24 622.12 250.2 619.72 249C617.44 247.8 614.92 247.2 612.16 247.2C609.64 247.2 607.18 247.86 604.78 249.18C602.38 250.38 600.4 252.36 598.84 255.12C597.4 257.88 596.68 261.66 596.68 266.46V316.5C596.68 317.82 596.26 318.9 595.42 319.74C594.58 320.58 593.56 321 592.36 321H574.18ZM761.052 322.8C754.692 322.8 748.992 321.6 743.952 319.2C738.912 316.68 734.892 313.32 731.892 309.12C728.892 304.92 727.392 300.24 727.392 295.08C727.392 286.56 730.812 279.84 737.652 274.92C744.612 270 753.732 266.64 765.012 264.84L788.592 261.42V258.18C788.592 253.5 787.512 249.9 785.352 247.38C783.192 244.86 779.412 243.6 774.012 243.6C770.052 243.6 766.872 244.38 764.472 245.94C762.072 247.5 760.212 249.54 758.892 252.06C757.932 253.62 756.552 254.4 754.752 254.4H737.652C736.332 254.4 735.312 254.04 734.592 253.32C733.872 252.48 733.572 251.52 733.692 250.44C733.692 248.4 734.472 246 736.032 243.24C737.592 240.48 739.992 237.78 743.232 235.14C746.472 232.38 750.612 230.1 755.652 228.3C760.692 226.5 766.872 225.6 774.192 225.6C781.752 225.6 788.232 226.5 793.632 228.3C799.032 230.1 803.352 232.62 806.592 235.86C809.832 239.1 812.232 242.88 813.792 247.2C815.352 251.4 816.132 255.96 816.132 260.88V316.5C816.132 317.82 815.712 318.9 814.872 319.74C814.032 320.58 812.952 321 811.632 321H793.992C792.792 321 791.772 320.58 790.932 319.74C790.092 318.9 789.672 317.82 789.672 316.5V309.84C788.112 312.12 786.012 314.28 783.372 316.32C780.732 318.24 777.552 319.8 773.832 321C770.232 322.2 765.972 322.8 761.052 322.8ZM768.252 304.08C772.212 304.08 775.752 303.24 778.872 301.56C781.992 299.88 784.452 297.3 786.252 293.82C788.052 290.34 788.952 285.96 788.952 280.68V277.62L772.212 280.32C765.732 281.4 760.992 283.02 757.992 285.18C754.992 287.34 753.492 289.98 753.492 293.1C753.492 295.38 754.152 297.36 755.472 299.04C756.912 300.72 758.772 301.98 761.052 302.82C763.332 303.66 765.732 304.08 768.252 304.08ZM842.246 321C841.046 321 840.026 320.58 839.186 319.74C838.346 318.9 837.926 317.82 837.926 316.5V231.9C837.926 230.7 838.346 229.68 839.186 228.84C840.026 227.88 841.046 227.4 842.246 227.4H859.886C861.086 227.4 862.106 227.88 862.946 228.84C863.906 229.68 864.386 230.7 864.386 231.9V239.1C867.386 235.38 871.046 232.5 875.366 230.46C879.806 228.42 884.906 227.4 890.666 227.4H898.406C899.606 227.4 900.626 227.82 901.466 228.66C902.306 229.5 902.726 230.58 902.726 231.9V247.38C902.726 248.7 902.306 249.78 901.466 250.62C900.626 251.46 899.606 251.88 898.406 251.88H882.566C877.286 251.88 873.146 253.38 870.146 256.38C867.146 259.26 865.646 263.4 865.646 268.8V316.5C865.646 317.82 865.226 318.9 864.386 319.74C863.546 320.58 862.466 321 861.146 321H842.246ZM910.076 321C908.756 321 907.676 320.58 906.836 319.74C905.996 318.9 905.576 317.82 905.576 316.5V296.34C905.576 295.02 905.996 293.94 906.836 293.1C907.676 292.26 908.756 291.84 910.076 291.84H930.236C931.556 291.84 932.636 292.26 933.476 293.1C934.316 293.94 934.736 295.02 934.736 296.34V316.5C934.736 317.82 934.316 318.9 933.476 319.74C932.636 320.58 931.556 321 930.236 321H910.076Z" fill="#BD4747"/>
</g>
</svg>
