<svg width="405" height="90" viewBox="0 0 405 90" fill="none" xmlns="http://www.w3.org/2000/svg">
<g id="Frame" clip-path="url(#clip0_3347_477)">
<path id="Vector" d="M405.262 51.0454C404.803 50.7406 404.345 50.5883 403.733 50.7406C401.898 51.1978 399.758 51.5025 397.159 51.5025C394.407 51.5025 391.808 51.0454 389.514 50.4359C389.209 49.2169 388.597 48.1503 387.833 47.3884C387.068 46.6265 386.151 46.1694 385.234 46.1694C384.622 46.1694 384.163 46.4742 383.705 46.9313C383.246 47.3884 383.093 47.8455 383.093 48.455C383.093 49.9788 383.858 51.3501 385.386 52.4168V53.331C385.386 55.4642 384.928 57.9022 383.858 60.645C382.787 63.3877 381.564 65.8257 380.188 67.8066C378.812 69.7874 377.436 70.854 376.213 71.0064C376.06 71.0064 375.907 71.0064 375.602 70.854C375.296 70.7017 375.143 70.0922 374.837 69.1779C374.531 68.2637 374.531 67.1971 374.531 65.9781C374.531 61.1021 375.449 56.5309 377.436 52.4168C379.424 48.3027 381.411 45.5599 383.552 44.3409H383.705C383.858 44.3409 384.163 44.4933 384.469 44.4933C385.081 44.4933 385.539 44.3409 385.845 43.8838C386.304 43.579 386.457 43.1219 386.457 42.6648C386.457 41.9029 385.998 41.1411 384.928 40.5316C383.858 39.9221 382.634 39.6173 381.258 39.6173C379.883 39.6173 378.201 40.2268 376.672 41.2934C374.99 42.3601 373.614 43.8838 372.238 45.7123C369.486 49.5216 367.957 54.0929 367.499 59.1212C364.899 64.1496 362.148 69.0256 359.548 73.5968C355.573 80.4536 352.363 84.4154 350.222 85.3296C349.764 85.482 349.458 85.482 349.305 85.1772C348.846 84.7201 348.54 83.5011 348.082 81.6726C347.776 79.6918 347.47 77.7109 347.47 75.5777C347.47 72.2254 347.929 68.2637 348.693 63.6925C349.458 59.1212 350.375 55.0071 351.445 51.1978C352.516 47.3884 353.892 42.8172 355.573 37.6365C357.255 32.4557 358.631 28.494 359.701 25.7513C360.772 23.0085 361.995 19.5039 363.676 15.3898C363.982 14.6279 364.441 13.5613 364.9 12.0376C365.511 10.5138 365.817 9.59958 366.123 8.99008C366.428 8.22821 366.275 7.46634 365.97 6.70447C365.511 6.09497 364.899 5.48548 364.288 5.18073C362.912 4.57123 361.842 4.57123 361.077 5.48547C360.924 5.63785 360.924 5.63785 360.924 5.79022C360.924 5.79022 360.772 5.9426 360.772 6.09497C360.772 6.24735 360.619 6.24735 360.619 6.39972V6.5521C358.937 9.29483 355.115 17.0659 349.305 29.8654C345.788 37.7888 343.648 42.2077 343.189 43.2743C342.425 42.3601 341.202 41.5982 339.826 40.9887C338.45 40.3792 336.921 40.0744 335.392 40.0744C332.946 40.0744 330.5 41.1411 328.359 43.2743C326.066 45.4075 324.384 48.1503 323.008 51.3501C322.55 52.5691 322.244 53.6358 321.938 54.8547C314.752 63.5401 309.707 67.8066 306.649 67.8066C304.967 67.8066 304.203 66.1304 304.203 62.6258C304.203 58.3594 305.12 53.331 306.802 47.5408C306.955 46.7789 306.802 46.017 306.343 45.5599C305.732 44.6457 304.815 44.1885 303.591 44.1885H303.286C301.298 42.0553 298.699 40.9887 295.488 40.9887C292.278 40.9887 289.373 42.2077 286.621 44.4933C283.869 46.7789 281.728 49.8264 280.352 53.331C279.894 54.2453 279.588 55.1595 279.282 56.0737C275.46 61.7116 271.485 66.7399 267.357 71.0064C262.159 76.4919 258.49 79.2346 256.349 79.2346C255.585 79.2346 254.82 78.3204 254.056 76.4919C253.444 74.6634 252.986 72.3778 252.986 69.6351C252.986 64.1496 253.903 58.207 255.738 51.8073C260.018 49.9788 264.452 46.1694 269.039 40.6839C273.625 35.1985 277.295 29.2559 280.047 22.8561C282.952 16.4564 284.328 11.1233 284.328 6.70447C284.328 4.7236 283.869 3.19986 283.104 1.98087C282.34 0.761871 281.27 0.304749 279.741 0.304749C277.6 0.304749 274.696 2.43799 271.026 6.70447C267.357 10.971 263.535 16.3041 260.018 23.0085C255.738 30.7796 252.374 38.3983 250.081 46.1694C249.622 47.9979 249.01 49.674 248.705 51.3501C245.953 52.8739 243.659 54.0929 241.366 55.3119C238.461 56.8356 237.085 57.4451 235.556 58.0546C232.499 59.2736 230.664 59.8831 229.747 60.1879C227.3 60.9497 225.466 61.1021 223.784 61.1021C221.338 61.1021 220.42 60.645 219.962 60.3402C218.892 59.5784 218.586 58.3594 218.433 57.9022C217.516 54.3976 219.962 49.0645 220.268 47.5408C220.42 46.9313 220.268 46.4742 219.962 46.1694C219.503 45.5599 218.892 45.2552 218.127 45.2552H217.974C216.598 43.8838 214.764 43.1219 212.623 43.1219C210.483 43.1219 208.342 43.8838 206.508 45.5599C205.285 46.6265 204.214 47.8455 203.297 49.3693C198.252 50.7406 191.372 51.8073 183.422 51.1978C180.67 51.0454 178.07 50.5883 175.777 50.1311C175.471 48.9122 174.86 47.8455 174.095 47.0837C173.331 46.3218 172.414 45.8647 171.496 45.8647C170.885 45.8647 170.426 46.1694 169.967 46.6265C169.509 47.0837 169.356 47.5408 169.356 48.1503C169.356 49.674 170.12 51.0454 171.649 52.112V53.1786C171.649 55.3119 171.191 57.7499 170.12 60.4926C169.05 63.2353 167.827 65.6733 166.451 67.6542C165.075 69.6351 163.699 70.7017 162.476 70.854C162.323 70.854 162.17 70.854 161.864 70.7017C161.559 70.5493 161.406 69.9398 161.1 69.0256C160.794 68.1113 160.794 67.0447 160.794 65.8257C160.794 60.9497 161.711 56.3785 163.699 52.2644C165.687 48.1503 167.674 45.4075 169.815 44.1885H169.967C170.12 44.1885 170.426 44.3409 170.732 44.3409C171.343 44.3409 171.802 44.1885 172.108 43.7314C172.567 43.4267 172.719 42.9696 172.719 42.5124C172.719 41.7506 172.261 40.9887 171.191 40.3792C170.12 39.7697 168.897 39.4649 167.521 39.4649C166.145 39.4649 164.463 40.0744 162.935 41.1411C161.253 42.2077 159.877 43.7314 158.501 45.5599C155.749 49.3693 154.22 53.9405 153.761 58.9689C151.162 63.9972 148.41 68.8732 145.811 73.4444C141.836 80.3013 138.625 84.263 136.485 85.1772C136.026 85.3296 135.721 85.3296 135.568 85.0249C135.109 84.5677 134.803 83.3487 134.345 81.5203C134.039 79.5394 133.733 77.5585 133.733 75.4253C133.733 72.073 134.192 68.1113 134.956 63.5401C135.721 58.9689 136.638 54.8547 137.708 51.0454C138.778 47.236 140.154 42.6648 141.836 37.4841C143.518 32.3034 144.894 28.3416 145.964 25.5989C147.034 22.8561 148.257 19.3515 149.939 15.2374C150.245 14.4756 150.704 13.4089 151.162 11.8852C151.774 10.3615 152.08 9.44721 152.385 8.83771C152.691 8.07584 152.538 7.31397 152.232 6.5521C151.774 5.9426 151.162 5.3331 150.551 5.02835C149.175 4.41885 148.104 4.41885 147.34 5.3331C147.187 5.48548 147.187 5.48548 147.187 5.63785C147.187 5.63785 147.034 5.79022 147.034 5.9426C147.034 6.09497 146.576 6.09497 146.576 6.09497V6.24735C144.894 8.99008 141.072 16.7612 135.262 29.5606C131.745 37.4841 129.605 41.9029 129.146 42.9696C128.382 42.0553 127.159 41.2934 125.783 40.6839C124.407 40.0744 122.878 39.7697 121.349 39.7697C118.903 39.7697 116.457 40.8363 114.316 42.9696C112.023 45.1028 110.341 47.8455 108.965 51.0454C108.506 52.2644 108.201 53.331 107.895 54.55C100.709 63.2353 95.6639 67.5018 92.6062 67.5018C90.9244 67.5018 90.16 65.8257 90.16 62.3211C90.16 58.0546 91.0773 53.0263 92.759 47.236C92.9119 46.4742 92.759 45.7123 92.3004 45.2552C91.6888 44.3409 90.7715 43.8838 89.5484 43.8838H89.2426C87.2551 41.7506 84.656 40.6839 81.4453 40.6839C78.2347 40.6839 75.3298 41.9029 72.5779 44.1885C69.8259 46.4742 67.6854 49.5216 66.3094 53.0263C65.8508 53.9405 65.545 54.8547 65.2392 55.769C61.417 61.4068 57.4419 66.4352 53.314 70.7017C48.1158 76.1872 44.4465 78.9299 42.306 78.9299C41.5416 78.9299 40.7772 78.0156 40.0127 76.1871C39.4012 74.3587 38.9425 72.073 38.9425 69.3303C38.9425 63.8448 39.8598 57.9022 41.6945 51.5025C45.9754 49.674 50.4091 45.8647 54.9957 40.3792C59.5824 34.8937 63.2517 28.9511 66.0037 22.5514C68.9085 16.1517 70.2845 10.8186 70.2845 6.39972C70.2845 4.41885 69.8259 2.89511 69.0614 1.67612C68.297 0.609497 67.0739 0 65.6979 0C63.5575 0 60.6526 2.13324 56.9833 6.39972C53.314 10.6662 49.4918 15.9993 45.9754 22.7038C41.6945 30.3225 38.331 38.0936 36.0376 45.7123C35.579 47.5408 34.9674 49.2169 34.6617 50.893C32.3683 52.2644 30.6866 53.331 27.323 55.1595C25.3355 56.2261 24.2653 56.8356 22.5835 57.4451C21.3604 57.9022 18.4555 59.1212 14.6333 60.0355C14.3276 60.0355 12.4929 60.4926 9.89381 60.645C7.44761 60.7973 6.53028 60.645 5.91873 60.0355C4.23696 58.8165 4.54274 57.4451 3.47252 56.6832C2.86097 56.2261 1.79076 56.2261 1.33209 56.6832C0.414766 57.5975 1.48498 60.645 3.47252 62.3211C4.84851 63.3877 6.37739 63.6925 7.90627 63.8448C10.0467 64.1496 11.5756 63.8448 12.34 63.8448C15.3978 63.5401 18.9142 62.6258 24.5711 60.4926C26.7115 59.5784 28.2404 58.8165 29.4635 58.207C30.9923 57.4451 32.5212 56.6832 33.7443 55.9214C32.9799 59.7307 32.6741 63.3877 32.6741 66.8923C32.6741 72.3778 33.5914 76.3395 35.579 78.9299C37.5665 81.5202 39.8598 82.7392 42.6118 82.7392C44.4465 82.7392 46.5869 81.9774 48.8802 80.4536C51.1735 78.9299 53.4669 76.949 55.6073 74.6634C57.7477 72.3778 60.041 69.7874 62.1815 66.8923C62.793 65.9781 63.5575 65.2162 64.169 64.302C64.169 66.8923 64.7806 69.0256 66.0037 70.5493C67.2268 72.2254 68.7556 72.9873 70.4374 72.9873C71.9663 72.9873 73.6481 71.9207 75.6356 69.6351C77.6231 67.3494 80.528 63.5401 84.5031 57.9022V59.1212C84.5031 62.9306 85.2675 65.9781 86.7964 68.1113C88.3253 70.2446 90.4657 71.4636 93.0648 71.4636C95.9697 71.4636 99.4861 69.3303 103.767 65.2162C104.837 64.1496 105.907 62.9306 106.978 61.864C107.131 64.7591 107.895 67.0447 109.118 68.8732C110.494 71.0064 112.482 72.073 114.928 72.073C115.998 72.073 117.068 71.6159 118.138 70.854C119.209 70.0922 120.279 69.0256 121.196 67.8066C122.114 66.5876 123.184 64.9115 124.407 62.9306C125.63 60.9497 126.547 58.9689 127.465 57.1404C128.382 55.3119 129.452 53.0263 130.675 50.4359C128.688 59.1212 127.617 66.4352 127.617 72.2254C127.617 83.3487 130.522 88.9866 136.332 88.9866C138.014 88.9866 140.154 87.7676 142.448 85.1772C144.741 82.5869 147.187 79.387 149.48 75.4253C151.162 72.5302 152.691 69.7874 154.067 67.0447C154.526 68.7208 155.137 70.0922 155.902 71.3112C157.584 73.7492 159.724 74.9682 162.476 74.9682C164.769 74.9682 166.91 73.7492 168.897 71.4636C170.885 69.1779 172.567 66.4352 173.79 63.2353C175.013 60.0355 175.624 56.988 175.93 53.9405C178.529 54.55 181.128 54.8547 183.727 54.8547C187.702 54.8547 196.723 54.0929 201.462 52.8739C200.851 54.8548 200.392 56.8356 200.392 58.8165C200.392 60.7973 200.851 62.3211 201.768 63.3877C202.685 64.4543 203.603 65.0638 204.826 65.0638C205.896 65.0638 206.966 64.302 208.342 62.7782C209.718 61.2545 211.706 58.6641 214.458 54.7024V55.6166C214.305 56.0737 213.846 59.426 216.14 61.864C217.821 63.6925 220.115 64.1496 221.338 64.302C221.644 64.302 222.867 64.4543 226.077 63.9972C230.052 63.3877 233.416 62.4735 238.308 60.645C240.296 59.8831 243.048 58.5117 247.634 56.2261C246.87 60.1879 246.564 63.8448 246.564 67.3494C246.564 72.8349 247.482 76.7966 249.469 79.387C251.457 81.9774 253.75 83.1964 256.502 83.1964C258.337 83.1964 260.477 82.4345 262.77 80.9108C265.064 79.387 267.357 77.4061 269.497 75.1205C271.638 72.8349 273.931 70.2446 276.072 67.3494C276.683 66.4352 277.448 65.6733 278.059 64.7591C278.059 67.3494 278.671 69.4827 279.894 71.0064C281.117 72.6825 282.646 73.4444 284.328 73.4444C285.856 73.4444 287.538 72.3778 289.526 70.0922C291.513 67.8066 294.418 63.9972 298.393 58.3594V59.5784C298.393 63.3877 299.158 66.4352 300.687 68.5684C302.215 70.7017 304.356 71.9207 306.955 71.9207C309.86 71.9207 313.376 69.7874 317.657 65.6733C318.727 64.6067 319.798 63.3877 320.868 62.3211C321.021 65.2162 321.785 67.5018 323.008 69.3303C324.384 71.4635 326.372 72.5302 328.818 72.5302C329.888 72.5302 330.958 72.073 332.029 71.3112C333.099 70.5493 334.169 69.4827 335.086 68.2637C336.004 67.0447 337.074 65.3686 338.297 63.3877C339.52 61.4068 340.437 59.426 341.355 57.5975C342.272 55.769 343.342 53.4834 344.565 50.893C342.578 59.5784 341.508 66.8923 341.508 72.6825C341.508 83.8059 344.413 89.4437 350.222 89.4437C351.904 89.4437 354.044 88.2247 356.338 85.6344C358.631 83.044 361.077 79.8441 363.371 75.8824C365.052 72.9873 366.581 70.2446 367.957 67.5018C368.416 69.1779 369.027 70.5493 369.792 71.7683C371.474 74.2063 373.614 75.4253 376.366 75.4253C378.659 75.4253 380.8 74.2063 382.787 71.9207C384.775 69.6351 386.457 66.8923 387.68 63.6925C388.903 60.4926 389.514 57.4451 389.82 54.3976C392.419 55.0071 395.018 55.3119 397.617 55.3119C403.121 55.3119 405.873 54.3976 405.873 52.5691C405.873 51.8073 405.721 51.3501 405.262 51.0454ZM54.3842 21.6372C58.9708 13.8661 62.793 8.53296 66.0037 5.63785C66.3094 9.14246 65.3921 13.7137 62.9459 19.1992C60.6526 24.6846 57.5948 29.8654 53.9255 34.7413C50.2562 39.6173 46.7398 43.4267 43.2234 46.017C46.2811 37.4841 49.9504 29.4082 54.3842 21.6372ZM84.8089 48.455C84.3502 49.2169 83.8915 49.8264 83.5858 50.1311C77.0116 59.8831 72.8836 65.521 70.8961 67.0447C71.049 63.6925 71.9663 60.3402 73.4952 56.988C75.024 53.6358 76.8587 50.893 78.8462 48.9121C80.8338 46.9313 82.8213 45.8647 84.5031 45.8647C85.1147 45.8647 85.5733 46.3218 85.7262 46.9313C85.7262 47.0837 85.4204 47.6932 84.8089 48.455ZM114.775 67.6542C114.622 67.8066 114.469 67.8066 114.469 67.6542C114.01 67.1971 113.858 65.8257 113.858 63.5401C113.858 60.645 114.469 57.7499 115.692 54.7024C116.915 51.6549 118.291 49.2169 119.82 47.236C121.349 45.4075 122.725 44.3409 123.948 44.3409C124.56 44.3409 125.018 44.4933 125.324 44.798C125.783 45.1028 126.089 45.4075 126.241 45.7123C126.394 46.017 126.7 46.3218 127.006 46.9313C127.006 46.9313 127.006 46.9313 127.006 47.0837C120.89 59.8831 116.762 66.7399 114.775 67.6542ZM214.764 48.1503C214.458 48.6074 214.152 49.0645 213.999 49.3693C209.413 56.0737 206.508 59.8831 205.285 60.9497C205.437 58.6641 206.049 56.3785 207.119 54.0929C208.189 51.8073 209.413 49.9788 210.789 48.6074C212.164 47.236 213.54 46.4742 214.611 46.4742C215.069 46.4742 215.375 46.7789 215.528 47.236C215.375 47.236 215.222 47.6932 214.764 48.1503ZM268.274 21.9419C272.861 14.1708 276.683 8.83771 279.894 5.9426C280.2 9.44721 279.282 14.0184 276.836 19.5039C274.543 24.9894 271.485 30.1701 267.816 35.0461C264.146 39.9221 260.63 43.7314 257.114 46.3218C260.018 37.7888 263.841 29.713 268.274 21.9419ZM298.699 48.7598C298.24 49.5216 297.782 50.1311 297.476 50.4359C290.902 60.1878 286.621 65.8257 284.786 67.3494C284.939 63.9972 285.856 60.645 287.385 57.2927C288.914 53.9405 290.749 51.1978 292.736 49.2169C294.724 47.236 296.711 46.1694 298.393 46.1694C299.005 46.1694 299.463 46.6265 299.616 47.236C299.616 47.3884 299.311 47.9979 298.699 48.7598ZM328.512 67.9589C328.359 68.1113 328.206 68.1113 328.206 67.9589C327.748 67.5018 327.595 66.1304 327.595 63.8448C327.595 60.9497 328.206 58.0546 329.429 55.0071C330.653 51.9596 332.029 49.5216 333.557 47.5408C335.086 45.7123 336.462 44.6457 337.685 44.6457C338.297 44.6457 338.756 44.798 339.061 45.1028C339.52 45.4075 339.826 45.7123 339.979 46.017C340.132 46.3218 340.437 46.6265 340.743 47.236C340.743 47.236 340.743 47.236 340.743 47.3884C334.781 60.3402 330.653 67.0447 328.512 67.9589Z" fill="black"/>
</g>
<defs>
<clipPath id="clip0_3347_477">
<rect width="405" height="89.2913" fill="white"/>
</clipPath>
</defs>
</svg>
