<svg width="420" height="104" viewBox="0 0 420 104" fill="none" xmlns="http://www.w3.org/2000/svg">
<g id="Frame 56" filter="url(#filter0_d_3347_438)">
<rect x="2.5" y="2.5" width="415" height="99" rx="49.5" stroke="#BD4747" stroke-width="5" shape-rendering="crispEdges"/>
<path id="reserva gr&#195;&#161;tis aqui" d="M82.4525 68L82.4525 36.5L87.245 36.5L87.245 68L82.4525 68ZM75.635 68L75.635 63.7025L94.085 63.7025L94.085 68L75.635 68ZM75.635 40.775L75.635 36.5L94.085 36.5L94.085 40.775L75.635 40.775ZM102.487 68L102.487 36.5L107.324 36.5L111.937 54.365C112.072 54.92 112.207 55.4825 112.342 56.0525C112.492 56.6075 112.597 57.1025 112.657 57.5375C112.732 57.1025 112.837 56.6075 112.972 56.0525C113.107 55.4825 113.249 54.92 113.399 54.365L118.102 36.5L122.692 36.5L122.692 68L118.462 68L118.462 49.8875C118.462 49.5575 118.462 49.1225 118.462 48.5825C118.477 48.0275 118.507 47.5625 118.552 47.1875C118.432 47.6075 118.297 48.0575 118.147 48.5375C118.012 49.0025 117.884 49.4525 117.764 49.8875L112.859 68L112.342 68L107.414 49.8875C107.294 49.4525 107.159 48.995 107.009 48.515C106.874 48.035 106.747 47.5925 106.627 47.1875C106.657 47.5625 106.679 48.0275 106.694 48.5825C106.709 49.1225 106.717 49.5575 106.717 49.8875L106.717 68L102.487 68ZM130.216 68L130.216 36.5L140.814 36.5C143.394 36.5 145.441 36.9725 146.956 37.9175C148.471 38.8625 149.559 40.0775 150.219 41.5625C150.879 43.0325 151.209 44.555 151.209 46.13C151.209 47.24 151.014 48.365 150.624 49.505C150.249 50.63 149.641 51.665 148.801 52.61C147.976 53.555 146.904 54.32 145.584 54.905C144.279 55.475 142.689 55.76 140.814 55.76L135.031 55.76L135.031 68L130.216 68ZM135.031 51.2825L141.084 51.2825C142.374 51.2825 143.401 51.0275 144.166 50.5175C144.946 49.9925 145.509 49.34 145.854 48.56C146.199 47.765 146.371 46.955 146.371 46.13C146.371 45.395 146.214 44.63 145.899 43.835C145.599 43.04 145.066 42.365 144.301 41.81C143.536 41.255 142.464 40.9775 141.084 40.9775L135.031 40.9775L135.031 51.2825ZM168.048 68.54C166.113 68.54 164.358 68.1425 162.783 67.3475C161.208 66.5375 159.948 65.2175 159.003 63.3875C158.073 61.5575 157.608 59.0975 157.608 56.0075L157.608 36.5L162.378 36.5L162.378 56.0075C162.378 58.1075 162.626 59.735 163.121 60.89C163.631 62.045 164.313 62.855 165.168 63.32C166.023 63.785 166.983 64.0175 168.048 64.0175C169.098 64.0175 170.051 63.785 170.906 63.32C171.776 62.855 172.458 62.045 172.953 60.89C173.463 59.735 173.718 58.1075 173.718 56.0075L173.718 36.5L178.533 36.5L178.533 56.0075C178.533 59.0675 178.068 61.5125 177.138 63.3425C176.208 65.1725 174.948 66.5 173.358 67.325C171.768 68.135 169.998 68.54 168.048 68.54ZM185.675 68L185.675 36.5L190.49 36.5L190.49 63.3875L205.183 63.3875L205.183 68L185.675 68ZM223.822 68.54C222.142 68.54 220.582 68.2175 219.142 67.5725C217.702 66.9125 216.45 66.0125 215.385 64.8725C214.335 63.7175 213.555 62.3825 213.045 60.8675L217.432 59.2475C218.077 60.6725 219 61.8275 220.2 62.7125C221.4 63.5975 222.72 64.04 224.16 64.04C225.615 64.04 226.792 63.6575 227.692 62.8925C228.592 62.1275 229.042 61.0175 229.042 59.5625C229.042 58.6025 228.742 57.755 228.142 57.02C227.542 56.285 226.755 55.6325 225.78 55.0625C224.805 54.4775 223.755 53.93 222.63 53.42C221.625 53 220.62 52.52 219.615 51.98C218.625 51.44 217.71 50.81 216.87 50.09C216.045 49.355 215.377 48.4925 214.867 47.5025C214.357 46.5125 214.102 45.3575 214.102 44.0375C214.102 42.5675 214.477 41.225 215.227 40.01C215.992 38.78 217.072 37.7975 218.467 37.0625C219.877 36.3275 221.542 35.96 223.462 35.96C225.757 35.96 227.715 36.56 229.335 37.76C230.97 38.945 232.042 40.4375 232.552 42.2375L228.21 43.7C227.79 42.785 227.16 42.0125 226.32 41.3825C225.48 40.7525 224.445 40.4375 223.215 40.4375C221.985 40.4375 220.965 40.7525 220.155 41.3825C219.36 42.0125 218.962 42.8675 218.962 43.9475C218.962 44.7425 219.202 45.4325 219.682 46.0175C220.177 46.5875 220.867 47.12 221.752 47.615C222.637 48.11 223.695 48.6425 224.925 49.2125C225.915 49.6775 226.935 50.2025 227.985 50.7875C229.035 51.3725 230.01 52.0625 230.91 52.8575C231.81 53.6375 232.53 54.56 233.07 55.625C233.625 56.69 233.902 57.9275 233.902 59.3375C233.902 61.3025 233.445 62.9675 232.53 64.3325C231.615 65.6975 230.392 66.74 228.862 67.46C227.332 68.18 225.652 68.54 223.822 68.54ZM248.829 68L248.829 36.5L253.622 36.5L253.622 68L248.829 68ZM242.012 68L242.012 63.7025L260.462 63.7025L260.462 68L242.012 68ZM242.012 40.775L242.012 36.5L260.462 36.5L260.462 40.775L242.012 40.775ZM278.966 68.54C276.911 68.54 275.156 68.09 273.701 67.19C272.246 66.275 271.061 65.045 270.146 63.5C269.231 61.955 268.556 60.215 268.121 58.28C267.701 56.33 267.491 54.32 267.491 52.25C267.491 50.18 267.701 48.1775 268.121 46.2425C268.556 44.2925 269.231 42.545 270.146 41C271.061 39.455 272.246 38.2325 273.701 37.3325C275.156 36.4175 276.911 35.96 278.966 35.96C281.021 35.96 282.776 36.4175 284.231 37.3325C285.701 38.2325 286.894 39.455 287.809 41C288.724 42.545 289.399 44.2925 289.834 46.2425C290.269 48.1775 290.486 50.18 290.486 52.25C290.486 54.32 290.269 56.33 289.834 58.28C289.399 60.215 288.724 61.955 287.809 63.5C286.894 65.045 285.701 66.275 284.231 67.19C282.776 68.09 281.021 68.54 278.966 68.54ZM278.966 64.0175C280.121 64.0175 281.111 63.68 281.936 63.005C282.761 62.33 283.429 61.43 283.939 60.305C284.464 59.18 284.846 57.92 285.086 56.525C285.341 55.115 285.469 53.69 285.469 52.25C285.469 50.69 285.341 49.2125 285.086 47.8175C284.846 46.4075 284.471 45.155 283.961 44.06C283.451 42.95 282.784 42.08 281.959 41.45C281.134 40.805 280.136 40.4825 278.966 40.4825C277.811 40.4825 276.821 40.82 275.996 41.495C275.171 42.155 274.496 43.0475 273.971 44.1725C273.461 45.2975 273.079 46.565 272.824 47.975C272.584 49.37 272.464 50.795 272.464 52.25C272.464 53.795 272.584 55.2725 272.824 56.6825C273.079 58.0775 273.461 59.33 273.971 60.44C274.496 61.55 275.171 62.4275 275.996 63.0725C276.821 63.7025 277.811 64.0175 278.966 64.0175ZM296.593 68L296.593 36.5L301.206 36.5L311.376 56.93C311.496 57.155 311.661 57.47 311.871 57.875C312.081 58.28 312.253 58.625 312.388 58.91C312.373 58.505 312.351 58.1375 312.321 57.8075C312.306 57.4625 312.298 57.1625 312.298 56.9075L312.298 36.5L316.798 36.5L316.798 68L312.366 68L302.061 47.615C301.941 47.36 301.768 47.03 301.543 46.625C301.333 46.22 301.161 45.8825 301.026 45.6125C301.086 45.9425 301.116 46.2875 301.116 46.6475C301.131 47.0075 301.138 47.3225 301.138 47.5925L301.138 68L296.593 68ZM321.893 68L332.22 36.5L336.608 36.5L346.958 68L341.85 68L335.213 46.2425C335.153 46.0325 335.07 45.7325 334.965 45.3425C334.86 44.9375 334.755 44.5175 334.65 44.0825C334.545 43.6475 334.47 43.2575 334.425 42.9125C334.35 43.2575 334.26 43.6475 334.155 44.0825C334.065 44.5175 333.968 44.9375 333.863 45.3425C333.773 45.7325 333.698 46.0325 333.638 46.2425L327.045 68L321.893 68ZM328.08 60.755L329.408 56.4125L339.443 56.4125L340.77 60.755L328.08 60.755Z" fill="#BD4747"/>
</g>
<defs>
<filter id="filter0_d_3347_438" x="-4" y="8.31642e-09" width="428" height="112" filterUnits="userSpaceOnUse" color-interpolation-filters="sRGB">
<feFlood flood-opacity="0" result="BackgroundImageFix"/>
<feColorMatrix in="SourceAlpha" type="matrix" values="0 0 0 0 0 0 0 0 0 0 0 0 0 0 0 0 0 0 127 0" result="hardAlpha"/>
<feOffset dy="4"/>
<feGaussianBlur stdDeviation="2"/>
<feComposite in2="hardAlpha" operator="out"/>
<feColorMatrix type="matrix" values="0 0 0 0 0 0 0 0 0 0 0 0 0 0 0 0 0 0 0.25 0"/>
<feBlend mode="normal" in2="BackgroundImageFix" result="effect1_dropShadow_3347_438"/>
<feBlend mode="normal" in="SourceGraphic" in2="effect1_dropShadow_3347_438" result="shape"/>
</filter>
</defs>
</svg>
