<svg width="420" height="104" viewBox="0 0 420 104" fill="none" xmlns="http://www.w3.org/2000/svg">
<g id="Frame 57" filter="url(#filter0_d_3347_439)">
<rect x="2.5" y="2.5" width="415" height="99" rx="49.5" stroke="#BD4747" stroke-width="5" shape-rendering="crispEdges"/>
<path id="reserva gr&#195;&#161;tis aqui" d="M58.125 68.495C55.89 68.495 53.9925 68.03 52.4325 67.1C50.8725 66.17 49.6125 64.925 48.6525 63.365C47.6925 61.805 46.9875 60.0575 46.5375 58.1225C46.1025 56.1875 45.885 54.23 45.885 52.25C45.885 50.3 46.11 48.365 46.56 46.445C47.025 44.51 47.745 42.755 48.72 41.18C49.695 39.605 50.955 38.345 52.5 37.4C54.06 36.455 55.935 35.9825 58.125 35.9825C59.835 35.9825 61.305 36.2825 62.535 36.8825C63.765 37.4825 64.785 38.2625 65.595 39.2225C66.405 40.1675 67.0275 41.1575 67.4625 42.1925L63.1875 44.3075C62.6025 43.1825 61.9275 42.2675 61.1625 41.5625C60.3975 40.8575 59.385 40.505 58.125 40.505C56.79 40.505 55.6575 40.865 54.7275 41.585C53.7975 42.29 53.0475 43.2275 52.4775 44.3975C51.9075 45.5525 51.495 46.82 51.24 48.2C50.985 49.565 50.8575 50.915 50.8575 52.25C50.8575 53.675 51 55.085 51.285 56.48C51.57 57.875 52.005 59.135 52.59 60.26C53.19 61.385 53.9475 62.285 54.8625 62.96C55.7775 63.635 56.865 63.9725 58.125 63.9725C59.4 63.9725 60.4425 63.5975 61.2525 62.8475C62.0775 62.0975 62.7675 61.13 63.3225 59.945L67.665 61.5875C67.14 62.8775 66.45 64.0475 65.595 65.0975C64.74 66.1475 63.69 66.98 62.445 67.595C61.215 68.195 59.775 68.495 58.125 68.495ZM72.557 68L82.8845 36.5L87.272 36.5L97.622 68L92.5145 68L85.877 46.2425C85.817 46.0325 85.7345 45.7325 85.6295 45.3425C85.5245 44.9375 85.4195 44.5175 85.3145 44.0825C85.2095 43.6475 85.1345 43.2575 85.0895 42.9125C85.0145 43.2575 84.9245 43.6475 84.8195 44.0825C84.7295 44.5175 84.632 44.9375 84.527 45.3425C84.437 45.7325 84.362 46.0325 84.302 46.2425L77.7095 68L72.557 68ZM78.7445 60.755L80.072 56.4125L90.107 56.4125L91.4345 60.755L78.7445 60.755ZM102.716 68L102.716 36.5L107.329 36.5L117.499 56.93C117.619 57.155 117.784 57.47 117.994 57.875C118.204 58.28 118.376 58.625 118.511 58.91C118.496 58.505 118.474 58.1375 118.444 57.8075C118.429 57.4625 118.421 57.1625 118.421 56.9075L118.421 36.5L122.921 36.5L122.921 68L118.489 68L108.184 47.615C108.064 47.36 107.891 47.03 107.666 46.625C107.456 46.22 107.284 45.8825 107.149 45.6125C107.209 45.9425 107.239 46.2875 107.239 46.6475C107.254 47.0075 107.261 47.3225 107.261 47.5925L107.261 68L102.716 68ZM130.446 68L130.446 36.5L138.163 36.5C140.713 36.5 142.866 36.95 144.621 37.85C146.391 38.735 147.823 39.935 148.918 41.45C150.013 42.95 150.808 44.6375 151.303 46.5125C151.813 48.3725 152.068 50.285 152.068 52.25C152.068 54.05 151.828 55.8725 151.348 57.7175C150.883 59.5625 150.111 61.265 149.031 62.825C147.951 64.385 146.511 65.6375 144.711 66.5825C142.911 67.5275 140.668 68 137.983 68L130.446 68ZM135.238 63.5L138.388 63.5C140.023 63.5 141.396 63.17 142.506 62.51C143.631 61.835 144.523 60.95 145.183 59.855C145.843 58.745 146.316 57.53 146.601 56.21C146.901 54.89 147.051 53.57 147.051 52.25C147.051 50.84 146.893 49.4675 146.578 48.1325C146.278 46.7975 145.798 45.59 145.138 44.51C144.493 43.43 143.653 42.575 142.618 41.945C141.583 41.3 140.338 40.9775 138.883 40.9775L135.238 40.9775L135.238 63.5ZM165.87 68L165.87 36.5L170.663 36.5L170.663 68L165.87 68ZM159.053 68L159.053 63.7025L177.503 63.7025L177.503 68L159.053 68ZM159.053 40.775L159.053 36.5L177.503 36.5L177.503 40.775L159.053 40.775ZM185.905 68L185.905 36.5L193.622 36.5C196.172 36.5 198.325 36.95 200.08 37.85C201.85 38.735 203.282 39.935 204.377 41.45C205.472 42.95 206.267 44.6375 206.762 46.5125C207.272 48.3725 207.527 50.285 207.527 52.25C207.527 54.05 207.287 55.8725 206.807 57.7175C206.342 59.5625 205.57 61.265 204.49 62.825C203.41 64.385 201.97 65.6375 200.17 66.5825C198.37 67.5275 196.127 68 193.442 68L185.905 68ZM190.697 63.5L193.847 63.5C195.482 63.5 196.855 63.17 197.965 62.51C199.09 61.835 199.982 60.95 200.642 59.855C201.302 58.745 201.775 57.53 202.06 56.21C202.36 54.89 202.51 53.57 202.51 52.25C202.51 50.84 202.352 49.4675 202.037 48.1325C201.737 46.7975 201.257 45.59 200.597 44.51C199.952 43.43 199.112 42.575 198.077 41.945C197.042 41.3 195.797 40.9775 194.342 40.9775L190.697 40.9775L190.697 63.5ZM211.204 68L221.532 36.5L225.919 36.5L236.269 68L231.162 68L224.524 46.2425C224.464 46.0325 224.382 45.7325 224.277 45.3425C224.172 44.9375 224.067 44.5175 223.962 44.0825C223.857 43.6475 223.782 43.2575 223.737 42.9125C223.662 43.2575 223.572 43.6475 223.467 44.0825C223.377 44.5175 223.279 44.9375 223.174 45.3425C223.084 45.7325 223.009 46.0325 222.949 46.2425L216.357 68L211.204 68ZM217.392 60.755L218.719 56.4125L228.754 56.4125L230.082 60.755L217.392 60.755ZM249.059 68L249.059 41.09L239.946 41.09L239.946 36.5L262.986 36.5L262.986 41.09L253.851 41.09L253.851 68L249.059 68ZM266.663 68L276.991 36.5L281.378 36.5L291.728 68L286.621 68L279.983 46.2425C279.923 46.0325 279.841 45.7325 279.736 45.3425C279.631 44.9375 279.526 44.5175 279.421 44.0825C279.316 43.6475 279.241 43.2575 279.196 42.9125C279.121 43.2575 279.031 43.6475 278.926 44.0825C278.836 44.5175 278.738 44.9375 278.633 45.3425C278.543 45.7325 278.468 46.0325 278.408 46.2425L271.816 68L266.663 68ZM272.851 60.755L274.178 56.4125L284.213 56.4125L285.541 60.755L272.851 60.755ZM296.35 56.885L296.35 52.385L317.5 52.385L317.5 56.885L296.35 56.885ZM332.247 68L332.247 41.09L323.135 41.09L323.135 36.5L346.175 36.5L346.175 41.09L337.04 41.09L337.04 68L332.247 68ZM352.282 68L352.282 36.5L371.834 36.5L371.834 41.0675L357.097 41.0675L357.097 49.4375L366.862 49.4375L366.862 54.005L357.097 54.005L357.097 63.4325L372.779 63.4325L372.779 68L352.282 68Z" fill="#BD4747"/>
</g>
<defs>
<filter id="filter0_d_3347_439" x="-4" y="8.31642e-09" width="428" height="112" filterUnits="userSpaceOnUse" color-interpolation-filters="sRGB">
<feFlood flood-opacity="0" result="BackgroundImageFix"/>
<feColorMatrix in="SourceAlpha" type="matrix" values="0 0 0 0 0 0 0 0 0 0 0 0 0 0 0 0 0 0 127 0" result="hardAlpha"/>
<feOffset dy="4"/>
<feGaussianBlur stdDeviation="2"/>
<feComposite in2="hardAlpha" operator="out"/>
<feColorMatrix type="matrix" values="0 0 0 0 0 0 0 0 0 0 0 0 0 0 0 0 0 0 0.25 0"/>
<feBlend mode="normal" in2="BackgroundImageFix" result="effect1_dropShadow_3347_439"/>
<feBlend mode="normal" in="SourceGraphic" in2="effect1_dropShadow_3347_439" result="shape"/>
</filter>
</defs>
</svg>
