<svg width="420" height="104" viewBox="0 0 420 104" fill="none" xmlns="http://www.w3.org/2000/svg">
<g id="Frame 62" filter="url(#filter0_d_3347_488)">
<rect x="2.5" y="2.5" width="415" height="99" rx="49.5" stroke="#FFE57D" stroke-width="5" shape-rendering="crispEdges"/>
<path id="reserva gr&#195;&#161;tis aqui" d="M33.2575 68L33.2575 36.5L40.975 36.5C43.525 36.5 45.6775 36.95 47.4325 37.85C49.2025 38.735 50.635 39.935 51.73 41.45C52.825 42.95 53.62 44.6375 54.115 46.5125C54.625 48.3725 54.88 50.285 54.88 52.25C54.88 54.05 54.64 55.8725 54.16 57.7175C53.695 59.5625 52.9225 61.265 51.8425 62.825C50.7625 64.385 49.3225 65.6375 47.5225 66.5825C45.7225 67.5275 43.48 68 40.795 68L33.2575 68ZM38.05 63.5L41.2 63.5C42.835 63.5 44.2075 63.17 45.3175 62.51C46.4425 61.835 47.335 60.95 47.995 59.855C48.655 58.745 49.1275 57.53 49.4125 56.21C49.7125 54.89 49.8625 53.57 49.8625 52.25C49.8625 50.84 49.705 49.4675 49.39 48.1325C49.09 46.7975 48.61 45.59 47.95 44.51C47.305 43.43 46.465 42.575 45.43 41.945C44.395 41.3 43.15 40.9775 41.695 40.9775L38.05 40.9775L38.05 63.5ZM60.987 68L60.987 36.5L80.5395 36.5L80.5395 41.0675L65.802 41.0675L65.802 49.4375L75.567 49.4375L75.567 54.005L65.802 54.005L65.802 63.4325L81.4845 63.4325L81.4845 68L60.987 68ZM99.134 68.54C97.454 68.54 95.894 68.2175 94.454 67.5725C93.014 66.9125 91.7615 66.0125 90.6965 64.8725C89.6465 63.7175 88.8665 62.3825 88.3565 60.8675L92.744 59.2475C93.389 60.6725 94.3115 61.8275 95.5115 62.7125C96.7115 63.5975 98.0315 64.04 99.4715 64.04C100.926 64.04 102.104 63.6575 103.004 62.8925C103.904 62.1275 104.354 61.0175 104.354 59.5625C104.354 58.6025 104.054 57.755 103.454 57.02C102.854 56.285 102.066 55.6325 101.091 55.0625C100.116 54.4775 99.0665 53.93 97.9415 53.42C96.9365 53 95.9315 52.52 94.9265 51.98C93.9365 51.44 93.0215 50.81 92.1815 50.09C91.3565 49.355 90.689 48.4925 90.179 47.5025C89.669 46.5125 89.414 45.3575 89.414 44.0375C89.414 42.5675 89.789 41.225 90.539 40.01C91.304 38.78 92.384 37.7975 93.779 37.0625C95.189 36.3275 96.854 35.96 98.774 35.96C101.069 35.96 103.026 36.56 104.646 37.76C106.281 38.945 107.354 40.4375 107.864 42.2375L103.521 43.7C103.101 42.785 102.471 42.0125 101.631 41.3825C100.791 40.7525 99.7565 40.4375 98.5265 40.4375C97.2965 40.4375 96.2765 40.7525 95.4665 41.3825C94.6715 42.0125 94.274 42.8675 94.274 43.9475C94.274 44.7425 94.514 45.4325 94.994 46.0175C95.489 46.5875 96.179 47.12 97.064 47.615C97.949 48.11 99.0065 48.6425 100.236 49.2125C101.226 49.6775 102.246 50.2025 103.296 50.7875C104.346 51.3725 105.321 52.0625 106.221 52.8575C107.121 53.6375 107.841 54.56 108.381 55.625C108.936 56.69 109.214 57.9275 109.214 59.3375C109.214 61.3025 108.756 62.9675 107.841 64.3325C106.926 65.6975 105.704 66.74 104.174 67.46C102.644 68.18 100.964 68.54 99.134 68.54ZM127.313 68.495C125.078 68.495 123.181 68.03 121.621 67.1C120.061 66.17 118.801 64.925 117.841 63.365C116.881 61.805 116.176 60.0575 115.726 58.1225C115.291 56.1875 115.073 54.23 115.073 52.25C115.073 50.3 115.298 48.365 115.748 46.445C116.213 44.51 116.933 42.755 117.908 41.18C118.883 39.605 120.143 38.345 121.688 37.4C123.248 36.455 125.123 35.9825 127.313 35.9825C129.023 35.9825 130.493 36.2825 131.723 36.8825C132.953 37.4825 133.973 38.2625 134.783 39.2225C135.593 40.1675 136.216 41.1575 136.651 42.1925L132.376 44.3075C131.791 43.1825 131.116 42.2675 130.351 41.5625C129.586 40.8575 128.573 40.505 127.313 40.505C125.978 40.505 124.846 40.865 123.916 41.585C122.986 42.29 122.236 43.2275 121.666 44.3975C121.096 45.5525 120.683 46.82 120.428 48.2C120.173 49.565 120.046 50.915 120.046 52.25C120.046 53.675 120.188 55.085 120.473 56.48C120.758 57.875 121.193 59.135 121.778 60.26C122.378 61.385 123.136 62.285 124.051 62.96C124.966 63.635 126.053 63.9725 127.313 63.9725C128.588 63.9725 129.631 63.5975 130.441 62.8475C131.266 62.0975 131.956 61.13 132.511 59.945L136.853 61.5875C136.328 62.8775 135.638 64.0475 134.783 65.0975C133.928 66.1475 132.878 66.98 131.633 67.595C130.403 68.195 128.963 68.495 127.313 68.495ZM154.278 68.54C152.223 68.54 150.468 68.09 149.013 67.19C147.558 66.275 146.373 65.045 145.458 63.5C144.543 61.955 143.868 60.215 143.433 58.28C143.013 56.33 142.803 54.32 142.803 52.25C142.803 50.18 143.013 48.1775 143.433 46.2425C143.868 44.2925 144.543 42.545 145.458 41C146.373 39.455 147.558 38.2325 149.013 37.3325C150.468 36.4175 152.223 35.96 154.278 35.96C156.333 35.96 158.088 36.4175 159.543 37.3325C161.013 38.2325 162.205 39.455 163.12 41C164.035 42.545 164.71 44.2925 165.145 46.2425C165.58 48.1775 165.798 50.18 165.798 52.25C165.798 54.32 165.58 56.33 165.145 58.28C164.71 60.215 164.035 61.955 163.12 63.5C162.205 65.045 161.013 66.275 159.543 67.19C158.088 68.09 156.333 68.54 154.278 68.54ZM154.278 64.0175C155.433 64.0175 156.423 63.68 157.248 63.005C158.073 62.33 158.74 61.43 159.25 60.305C159.775 59.18 160.158 57.92 160.398 56.525C160.653 55.115 160.78 53.69 160.78 52.25C160.78 50.69 160.653 49.2125 160.398 47.8175C160.158 46.4075 159.783 45.155 159.273 44.06C158.763 42.95 158.095 42.08 157.27 41.45C156.445 40.805 155.448 40.4825 154.278 40.4825C153.123 40.4825 152.133 40.82 151.308 41.495C150.483 42.155 149.808 43.0475 149.283 44.1725C148.773 45.2975 148.39 46.565 148.135 47.975C147.895 49.37 147.775 50.795 147.775 52.25C147.775 53.795 147.895 55.2725 148.135 56.6825C148.39 58.0775 148.773 59.33 149.283 60.44C149.808 61.55 150.483 62.4275 151.308 63.0725C152.133 63.7025 153.123 64.0175 154.278 64.0175ZM171.905 68L171.905 36.5L181.94 36.5C184.46 36.5 186.447 36.905 187.902 37.715C189.357 38.525 190.385 39.575 190.985 40.865C191.6 42.14 191.907 43.475 191.907 44.87C191.907 46.31 191.54 47.6075 190.805 48.7625C190.085 49.9025 189.012 50.78 187.587 51.395C189.327 51.935 190.662 52.8875 191.592 54.2525C192.522 55.6175 192.987 57.155 192.987 58.865C192.987 59.96 192.807 61.0475 192.447 62.1275C192.102 63.2075 191.525 64.19 190.715 65.075C189.92 65.96 188.862 66.6725 187.542 67.2125C186.222 67.7375 184.58 68 182.615 68L171.905 68ZM176.72 63.5675L183.02 63.5675C184.385 63.5675 185.442 63.3425 186.192 62.8925C186.957 62.4275 187.49 61.8425 187.79 61.1375C188.09 60.4325 188.24 59.7125 188.24 58.9775C188.24 58.1075 188.06 57.2825 187.7 56.5025C187.355 55.7225 186.702 55.085 185.742 54.59C184.797 54.095 183.44 53.8475 181.67 53.8475L176.72 53.8475L176.72 63.5675ZM176.72 49.4825L181.197 49.4825C183.207 49.4825 184.7 49.085 185.675 48.29C186.665 47.495 187.16 46.4375 187.16 45.1175C187.16 44.4425 187.025 43.7825 186.755 43.1375C186.5 42.4925 186.005 41.96 185.27 41.54C184.55 41.12 183.492 40.91 182.097 40.91L176.72 40.91L176.72 49.4825ZM199.634 68L199.634 36.5L210.074 36.5C212.639 36.5 214.657 36.9425 216.127 37.8275C217.612 38.7125 218.662 39.8675 219.277 41.2925C219.907 42.7175 220.222 44.225 220.222 45.815C220.222 46.94 220.034 48.05 219.659 49.145C219.299 50.225 218.729 51.2075 217.949 52.0925C217.184 52.9775 216.202 53.6975 215.002 54.2525C213.802 54.8075 212.377 55.13 210.727 55.22L204.449 55.22L204.449 68L199.634 68ZM214.822 68L208.229 54.59L213.337 54.1175L220.154 68L214.822 68ZM204.449 50.7425L210.164 50.7425C211.484 50.7425 212.519 50.51 213.269 50.045C214.034 49.565 214.574 48.9575 214.889 48.2225C215.204 47.4875 215.362 46.7075 215.362 45.8825C215.362 45.1475 215.212 44.405 214.912 43.655C214.612 42.89 214.087 42.2525 213.337 41.7425C212.587 41.2325 211.529 40.9775 210.164 40.9775L204.449 40.9775L204.449 50.7425ZM227.364 68L227.364 36.5L246.916 36.5L246.916 41.0675L232.179 41.0675L232.179 49.4375L241.944 49.4375L241.944 54.005L232.179 54.005L232.179 63.4325L247.861 63.4325L247.861 68L227.364 68ZM293.69 68.495C291.455 68.495 289.558 68.03 287.998 67.1C286.438 66.17 285.178 64.925 284.218 63.365C283.258 61.805 282.553 60.0575 282.103 58.1225C281.668 56.1875 281.45 54.23 281.45 52.25C281.45 50.3 281.675 48.365 282.125 46.445C282.59 44.51 283.31 42.755 284.285 41.18C285.26 39.605 286.52 38.345 288.065 37.4C289.625 36.455 291.5 35.9825 293.69 35.9825C295.4 35.9825 296.87 36.2825 298.1 36.8825C299.33 37.4825 300.35 38.2625 301.16 39.2225C301.97 40.1675 302.593 41.1575 303.028 42.1925L298.753 44.3075C298.168 43.1825 297.493 42.2675 296.728 41.5625C295.963 40.8575 294.95 40.505 293.69 40.505C292.355 40.505 291.223 40.865 290.293 41.585C289.363 42.29 288.613 43.2275 288.043 44.3975C287.473 45.5525 287.06 46.82 286.805 48.2C286.55 49.565 286.423 50.915 286.423 52.25C286.423 53.675 286.565 55.085 286.85 56.48C287.135 57.875 287.57 59.135 288.155 60.26C288.755 61.385 289.513 62.285 290.428 62.96C291.343 63.635 292.43 63.9725 293.69 63.9725C294.965 63.9725 296.008 63.5975 296.818 62.8475C297.643 62.0975 298.333 61.13 298.888 59.945L303.23 61.5875C302.705 62.8775 302.015 64.0475 301.16 65.0975C300.305 66.1475 299.255 66.98 298.01 67.595C296.78 68.195 295.34 68.495 293.69 68.495ZM320.655 68.54C318.6 68.54 316.845 68.09 315.39 67.19C313.935 66.275 312.75 65.045 311.835 63.5C310.92 61.955 310.245 60.215 309.81 58.28C309.39 56.33 309.18 54.32 309.18 52.25C309.18 50.18 309.39 48.1775 309.81 46.2425C310.245 44.2925 310.92 42.545 311.835 41C312.75 39.455 313.935 38.2325 315.39 37.3325C316.845 36.4175 318.6 35.96 320.655 35.96C322.71 35.96 324.465 36.4175 325.92 37.3325C327.39 38.2325 328.582 39.455 329.497 41C330.412 42.545 331.087 44.2925 331.522 46.2425C331.957 48.1775 332.175 50.18 332.175 52.25C332.175 54.32 331.957 56.33 331.522 58.28C331.087 60.215 330.412 61.955 329.497 63.5C328.582 65.045 327.39 66.275 325.92 67.19C324.465 68.09 322.71 68.54 320.655 68.54ZM320.655 64.0175C321.81 64.0175 322.8 63.68 323.625 63.005C324.45 62.33 325.117 61.43 325.627 60.305C326.152 59.18 326.535 57.92 326.775 56.525C327.03 55.115 327.157 53.69 327.157 52.25C327.157 50.69 327.03 49.2125 326.775 47.8175C326.535 46.4075 326.16 45.155 325.65 44.06C325.14 42.95 324.472 42.08 323.647 41.45C322.822 40.805 321.825 40.4825 320.655 40.4825C319.5 40.4825 318.51 40.82 317.685 41.495C316.86 42.155 316.185 43.0475 315.66 44.1725C315.15 45.2975 314.767 46.565 314.512 47.975C314.272 49.37 314.152 50.795 314.152 52.25C314.152 53.795 314.272 55.2725 314.512 56.6825C314.767 58.0775 315.15 59.33 315.66 60.44C316.185 61.55 316.86 62.4275 317.685 63.0725C318.51 63.7025 319.5 64.0175 320.655 64.0175ZM338.282 68L338.282 36.5L343.119 36.5L347.732 54.365C347.867 54.92 348.002 55.4825 348.137 56.0525C348.287 56.6075 348.392 57.1025 348.452 57.5375C348.527 57.1025 348.632 56.6075 348.767 56.0525C348.902 55.4825 349.044 54.92 349.194 54.365L353.897 36.5L358.487 36.5L358.487 68L354.257 68L354.257 49.8875C354.257 49.5575 354.257 49.1225 354.257 48.5825C354.272 48.0275 354.302 47.5625 354.347 47.1875C354.227 47.6075 354.092 48.0575 353.942 48.5375C353.807 49.0025 353.679 49.4525 353.559 49.8875L348.654 68L348.137 68L343.209 49.8875C343.089 49.4525 342.954 48.995 342.804 48.515C342.669 48.035 342.542 47.5925 342.422 47.1875C342.452 47.5625 342.474 48.0275 342.489 48.5825C342.504 49.1225 342.512 49.5575 342.512 49.8875L342.512 68L338.282 68ZM376.114 68.54C374.059 68.54 372.304 68.09 370.849 67.19C369.394 66.275 368.209 65.045 367.294 63.5C366.379 61.955 365.704 60.215 365.269 58.28C364.849 56.33 364.639 54.32 364.639 52.25C364.639 50.18 364.849 48.1775 365.269 46.2425C365.704 44.2925 366.379 42.545 367.294 41C368.209 39.455 369.394 38.2325 370.849 37.3325C372.304 36.4175 374.059 35.96 376.114 35.96C378.169 35.96 379.924 36.4175 381.379 37.3325C382.849 38.2325 384.041 39.455 384.956 41C385.871 42.545 386.546 44.2925 386.981 46.2425C387.416 48.1775 387.634 50.18 387.634 52.25C387.634 54.32 387.416 56.33 386.981 58.28C386.546 60.215 385.871 61.955 384.956 63.5C384.041 65.045 382.849 66.275 381.379 67.19C379.924 68.09 378.169 68.54 376.114 68.54ZM376.114 64.0175C377.269 64.0175 378.259 63.68 379.084 63.005C379.909 62.33 380.576 61.43 381.086 60.305C381.611 59.18 381.994 57.92 382.234 56.525C382.489 55.115 382.616 53.69 382.616 52.25C382.616 50.69 382.489 49.2125 382.234 47.8175C381.994 46.4075 381.619 45.155 381.109 44.06C380.599 42.95 379.931 42.08 379.106 41.45C378.281 40.805 377.284 40.4825 376.114 40.4825C374.959 40.4825 373.969 40.82 373.144 41.495C372.319 42.155 371.644 43.0475 371.119 44.1725C370.609 45.2975 370.226 46.565 369.971 47.975C369.731 49.37 369.611 50.795 369.611 52.25C369.611 53.795 369.731 55.2725 369.971 56.6825C370.226 58.0775 370.609 59.33 371.119 60.44C371.644 61.55 372.319 62.4275 373.144 63.0725C373.969 63.7025 374.959 64.0175 376.114 64.0175Z" fill="#BD4747"/>
</g>
<defs>
<filter id="filter0_d_3347_488" x="-4" y="8.31642e-09" width="428" height="112" filterUnits="userSpaceOnUse" color-interpolation-filters="sRGB">
<feFlood flood-opacity="0" result="BackgroundImageFix"/>
<feColorMatrix in="SourceAlpha" type="matrix" values="0 0 0 0 0 0 0 0 0 0 0 0 0 0 0 0 0 0 127 0" result="hardAlpha"/>
<feOffset dy="4"/>
<feGaussianBlur stdDeviation="2"/>
<feComposite in2="hardAlpha" operator="out"/>
<feColorMatrix type="matrix" values="0 0 0 0 0 0 0 0 0 0 0 0 0 0 0 0 0 0 0.25 0"/>
<feBlend mode="normal" in2="BackgroundImageFix" result="effect1_dropShadow_3347_488"/>
<feBlend mode="normal" in="SourceGraphic" in2="effect1_dropShadow_3347_488" result="shape"/>
</filter>
</defs>
</svg>
