<svg width="420" height="104" viewBox="0 0 420 104" fill="none" xmlns="http://www.w3.org/2000/svg">
<g id="Frame 63" filter="url(#filter0_d_3347_516)">
<rect x="2.5" y="2.5" width="415" height="99" rx="49.5" stroke="#BD4747" stroke-width="5" shape-rendering="crispEdges"/>
<path id="reserva gr&#195;&#161;tis aqui" d="M47.2575 68L47.2575 36.5L57.6975 36.5C60.2625 36.5 62.28 36.9425 63.75 37.8275C65.235 38.7125 66.285 39.8675 66.9 41.2925C67.53 42.7175 67.845 44.225 67.845 45.815C67.845 46.94 67.6575 48.05 67.2825 49.145C66.9225 50.225 66.3525 51.2075 65.5725 52.0925C64.8075 52.9775 63.825 53.6975 62.625 54.2525C61.425 54.8075 60 55.13 58.35 55.22L52.0725 55.22L52.0725 68L47.2575 68ZM62.445 68L55.8525 54.59L60.96 54.1175L67.7775 68L62.445 68ZM52.0725 50.7425L57.7875 50.7425C59.1075 50.7425 60.1425 50.51 60.8925 50.045C61.6575 49.565 62.1975 48.9575 62.5125 48.2225C62.8275 47.4875 62.985 46.7075 62.985 45.8825C62.985 45.1475 62.835 44.405 62.535 43.655C62.235 42.89 61.71 42.2525 60.96 41.7425C60.21 41.2325 59.1525 40.9775 57.7875 40.9775L52.0725 40.9775L52.0725 50.7425ZM74.987 68L74.987 36.5L94.5395 36.5L94.5395 41.0675L79.802 41.0675L79.802 49.4375L89.567 49.4375L89.567 54.005L79.802 54.005L79.802 63.4325L95.4845 63.4325L95.4845 68L74.987 68ZM113.134 68.54C111.454 68.54 109.894 68.2175 108.454 67.5725C107.014 66.9125 105.761 66.0125 104.696 64.8725C103.646 63.7175 102.866 62.3825 102.356 60.8675L106.744 59.2475C107.389 60.6725 108.311 61.8275 109.511 62.7125C110.711 63.5975 112.031 64.04 113.471 64.04C114.926 64.04 116.104 63.6575 117.004 62.8925C117.904 62.1275 118.354 61.0175 118.354 59.5625C118.354 58.6025 118.054 57.755 117.454 57.02C116.854 56.285 116.066 55.6325 115.091 55.0625C114.116 54.4775 113.066 53.93 111.941 53.42C110.936 53 109.931 52.52 108.926 51.98C107.936 51.44 107.021 50.81 106.181 50.09C105.356 49.355 104.689 48.4925 104.179 47.5025C103.669 46.5125 103.414 45.3575 103.414 44.0375C103.414 42.5675 103.789 41.225 104.539 40.01C105.304 38.78 106.384 37.7975 107.779 37.0625C109.189 36.3275 110.854 35.96 112.774 35.96C115.069 35.96 117.026 36.56 118.646 37.76C120.281 38.945 121.354 40.4375 121.864 42.2375L117.521 43.7C117.101 42.785 116.471 42.0125 115.631 41.3825C114.791 40.7525 113.756 40.4375 112.526 40.4375C111.296 40.4375 110.276 40.7525 109.466 41.3825C108.671 42.0125 108.274 42.8675 108.274 43.9475C108.274 44.7425 108.514 45.4325 108.994 46.0175C109.489 46.5875 110.179 47.12 111.064 47.615C111.949 48.11 113.006 48.6425 114.236 49.2125C115.226 49.6775 116.246 50.2025 117.296 50.7875C118.346 51.3725 119.321 52.0625 120.221 52.8575C121.121 53.6375 121.841 54.56 122.381 55.625C122.936 56.69 123.214 57.9275 123.214 59.3375C123.214 61.3025 122.756 62.9675 121.841 64.3325C120.926 65.6975 119.704 66.74 118.174 67.46C116.644 68.18 114.964 68.54 113.134 68.54ZM130.446 68L130.446 36.5L149.998 36.5L149.998 41.0675L135.261 41.0675L135.261 49.4375L145.026 49.4375L145.026 54.005L135.261 54.005L135.261 63.4325L150.943 63.4325L150.943 68L130.446 68ZM158.175 68L158.175 36.5L168.615 36.5C171.18 36.5 173.198 36.9425 174.668 37.8275C176.153 38.7125 177.203 39.8675 177.818 41.2925C178.448 42.7175 178.763 44.225 178.763 45.815C178.763 46.94 178.575 48.05 178.2 49.145C177.84 50.225 177.27 51.2075 176.49 52.0925C175.725 52.9775 174.743 53.6975 173.543 54.2525C172.343 54.8075 170.918 55.13 169.268 55.22L162.99 55.22L162.99 68L158.175 68ZM173.363 68L166.77 54.59L171.878 54.1175L178.695 68L173.363 68ZM162.99 50.7425L168.705 50.7425C170.025 50.7425 171.06 50.51 171.81 50.045C172.575 49.565 173.115 48.9575 173.43 48.2225C173.745 47.4875 173.903 46.7075 173.903 45.8825C173.903 45.1475 173.753 44.405 173.453 43.655C173.153 42.89 172.628 42.2525 171.878 41.7425C171.128 41.2325 170.07 40.9775 168.705 40.9775L162.99 40.9775L162.99 50.7425ZM193.802 68L183.497 36.5L188.762 36.5L195.4 58.6625C195.52 59.0375 195.632 59.495 195.737 60.035C195.857 60.56 195.947 61.025 196.007 61.43C196.082 61.025 196.172 60.5675 196.277 60.0575C196.382 59.5325 196.487 59.0825 196.592 58.7075L203.297 36.5L208.54 36.5L198.212 68L193.802 68ZM211.204 68L221.532 36.5L225.919 36.5L236.269 68L231.162 68L224.524 46.2425C224.464 46.0325 224.382 45.7325 224.277 45.3425C224.172 44.9375 224.067 44.5175 223.962 44.0825C223.857 43.6475 223.782 43.2575 223.737 42.9125C223.662 43.2575 223.572 43.6475 223.467 44.0825C223.377 44.5175 223.279 44.9375 223.174 45.3425C223.084 45.7325 223.009 46.0325 222.949 46.2425L216.357 68L211.204 68ZM217.392 60.755L218.719 56.4125L228.754 56.4125L230.082 60.755L217.392 60.755ZM266.663 68L276.991 36.5L281.378 36.5L291.728 68L286.621 68L279.983 46.2425C279.923 46.0325 279.841 45.7325 279.736 45.3425C279.631 44.9375 279.526 44.5175 279.421 44.0825C279.316 43.6475 279.241 43.2575 279.196 42.9125C279.121 43.2575 279.031 43.6475 278.926 44.0825C278.836 44.5175 278.738 44.9375 278.633 45.3425C278.543 45.7325 278.468 46.0325 278.408 46.2425L271.816 68L266.663 68ZM272.851 60.755L274.178 56.4125L284.213 56.4125L285.541 60.755L272.851 60.755ZM312.888 71.6225L305.553 60.6875L309.108 58.325L316.375 69.26L312.888 71.6225ZM306.925 68.54C304.87 68.54 303.115 68.09 301.66 67.19C300.205 66.275 299.02 65.045 298.105 63.5C297.19 61.955 296.515 60.215 296.08 58.28C295.66 56.33 295.45 54.32 295.45 52.25C295.45 50.18 295.66 48.1775 296.08 46.2425C296.515 44.2925 297.19 42.545 298.105 41C299.02 39.455 300.205 38.2325 301.66 37.3325C303.115 36.4175 304.87 35.96 306.925 35.96C308.98 35.96 310.735 36.4175 312.19 37.3325C313.66 38.2325 314.853 39.455 315.768 41C316.683 42.545 317.358 44.2925 317.793 46.2425C318.228 48.1775 318.445 50.18 318.445 52.25C318.445 54.32 318.228 56.33 317.793 58.28C317.358 60.215 316.683 61.955 315.768 63.5C314.853 65.045 313.66 66.275 312.19 67.19C310.735 68.09 308.98 68.54 306.925 68.54ZM306.925 64.0175C308.08 64.0175 309.07 63.68 309.895 63.005C310.72 62.33 311.388 61.43 311.898 60.305C312.423 59.18 312.805 57.92 313.045 56.525C313.3 55.115 313.428 53.69 313.428 52.25C313.428 50.69 313.3 49.2125 313.045 47.8175C312.805 46.4075 312.43 45.155 311.92 44.06C311.41 42.95 310.743 42.08 309.918 41.45C309.093 40.805 308.095 40.4825 306.925 40.4825C305.77 40.4825 304.78 40.82 303.955 41.495C303.13 42.155 302.455 43.0475 301.93 44.1725C301.42 45.2975 301.038 46.565 300.783 47.975C300.543 49.37 300.423 50.795 300.423 52.25C300.423 53.795 300.543 55.2725 300.783 56.6825C301.038 58.0775 301.42 59.33 301.93 60.44C302.455 61.55 303.13 62.4275 303.955 63.0725C304.78 63.7025 305.77 64.0175 306.925 64.0175ZM334.655 68.54C332.72 68.54 330.965 68.1425 329.39 67.3475C327.815 66.5375 326.555 65.2175 325.61 63.3875C324.68 61.5575 324.215 59.0975 324.215 56.0075L324.215 36.5L328.985 36.5L328.985 56.0075C328.985 58.1075 329.232 59.735 329.727 60.89C330.237 62.045 330.92 62.855 331.775 63.32C332.63 63.785 333.59 64.0175 334.655 64.0175C335.705 64.0175 336.657 63.785 337.512 63.32C338.382 62.855 339.065 62.045 339.56 60.89C340.07 59.735 340.325 58.1075 340.325 56.0075L340.325 36.5L345.14 36.5L345.14 56.0075C345.14 59.0675 344.675 61.5125 343.745 63.3425C342.815 65.1725 341.555 66.5 339.965 67.325C338.375 68.135 336.605 68.54 334.655 68.54ZM359.977 68L359.977 36.5L364.769 36.5L364.769 68L359.977 68ZM353.159 68L353.159 63.7025L371.609 63.7025L371.609 68L353.159 68ZM353.159 40.775L353.159 36.5L371.609 36.5L371.609 40.775L353.159 40.775Z" fill="#BD4747"/>
</g>
<defs>
<filter id="filter0_d_3347_516" x="-4" y="8.31642e-09" width="428" height="112" filterUnits="userSpaceOnUse" color-interpolation-filters="sRGB">
<feFlood flood-opacity="0" result="BackgroundImageFix"/>
<feColorMatrix in="SourceAlpha" type="matrix" values="0 0 0 0 0 0 0 0 0 0 0 0 0 0 0 0 0 0 127 0" result="hardAlpha"/>
<feOffset dy="4"/>
<feGaussianBlur stdDeviation="2"/>
<feComposite in2="hardAlpha" operator="out"/>
<feColorMatrix type="matrix" values="0 0 0 0 0 0 0 0 0 0 0 0 0 0 0 0 0 0 0.25 0"/>
<feBlend mode="normal" in2="BackgroundImageFix" result="effect1_dropShadow_3347_516"/>
<feBlend mode="normal" in="SourceGraphic" in2="effect1_dropShadow_3347_516" result="shape"/>
</filter>
</defs>
</svg>
