<svg width="1057" height="28" viewBox="0 0 1057 28" fill="none" xmlns="http://www.w3.org/2000/svg">
<g id="Frame 58">
<path id="Home" d="M3.34 28V-1.90735e-06H7.62V11.52H17.04V-1.90735e-06H21.3V28H17.04V15.54H7.62V28H3.34ZM36.9684 28.48C34.9951 28.48 33.2818 28.0533 31.8284 27.2C30.3751 26.3333 29.2484 25.1067 28.4484 23.52C27.6618 21.92 27.2684 20.0133 27.2684 17.8C27.2684 15.6133 27.6618 13.72 28.4484 12.12C29.2484 10.5067 30.3751 9.26667 31.8284 8.4C33.2818 7.52 34.9951 7.08 36.9684 7.08C38.9551 7.08 40.6751 7.51333 42.1284 8.38C43.5951 9.23333 44.7218 10.4667 45.5084 12.08C46.2951 13.68 46.6884 15.58 46.6884 17.78C46.6884 19.98 46.2951 21.88 45.5084 23.48C44.7218 25.08 43.5951 26.3133 42.1284 27.18C40.6751 28.0467 38.9551 28.48 36.9684 28.48ZM36.9684 24.54C38.7418 24.54 40.1018 23.9333 41.0484 22.72C41.9951 21.4933 42.4684 19.8467 42.4684 17.78C42.4684 15.7133 42.0018 14.0667 41.0684 12.84C40.1484 11.6 38.7818 10.98 36.9684 10.98C35.1951 10.98 33.8351 11.5933 32.8884 12.82C31.9418 14.0333 31.4684 15.6933 31.4684 17.8C31.4684 19.8533 31.9418 21.4933 32.8884 22.72C33.8351 23.9333 35.1951 24.54 36.9684 24.54ZM51.1569 28V7.56H55.0169V12.18L54.3769 11.8C54.6302 10.32 55.1235 9.16667 55.8569 8.34C56.6035 7.5 57.5502 7.08 58.6969 7.08C59.7769 7.08 60.6302 7.4 61.2569 8.04C61.8835 8.68 62.3169 9.36667 62.5569 10.1C63.0235 9.31333 63.6302 8.61333 64.3769 8C65.1369 7.38667 66.0702 7.08 67.1769 7.08C68.8035 7.08 70.0302 7.64667 70.8569 8.78C71.6835 9.91333 72.0969 11.8467 72.0969 14.58V28H68.2169V15.5C68.2169 13.9667 68.0835 12.84 67.8169 12.12C67.5502 11.3867 66.9969 11.02 66.1569 11.02C65.5969 11.02 65.1302 11.2133 64.7569 11.6C64.3835 11.9733 64.1035 12.5067 63.9169 13.2C63.7302 13.88 63.6369 14.68 63.6369 15.6V28H59.7569V15.28C59.7569 14.44 59.6902 13.7 59.5569 13.06C59.4369 12.42 59.2302 11.92 58.9369 11.56C58.6435 11.2 58.2302 11.02 57.6969 11.02C57.1369 11.02 56.6569 11.2133 56.2569 11.6C55.8569 11.9733 55.5502 12.5067 55.3369 13.2C55.1235 13.88 55.0169 14.68 55.0169 15.6V28H51.1569ZM86.7053 28.48C84.692 28.48 82.9653 28.0267 81.5253 27.12C80.0986 26.2 78.9986 24.9333 78.2253 23.32C77.4653 21.7067 77.0853 19.8533 77.0853 17.76C77.0853 15.5333 77.4786 13.6267 78.2653 12.04C79.0653 10.44 80.1786 9.21333 81.6053 8.36C83.0453 7.50667 84.7453 7.08 86.7053 7.08C88.3053 7.08 89.7653 7.42667 91.0853 8.12C92.4186 8.81333 93.4786 9.88 94.2653 11.32C95.052 12.7467 95.4453 14.5733 95.4453 16.8C95.4453 17.1333 95.4386 17.5267 95.4253 17.98C95.412 18.42 95.372 18.8933 95.3053 19.4H80.2853V15.82H91.3453C91.2786 14.58 91.0053 13.5867 90.5253 12.84C90.0586 12.0933 89.4853 11.56 88.8053 11.24C88.1253 10.9067 87.4253 10.74 86.7053 10.74C84.7586 10.74 83.3453 11.3533 82.4653 12.58C81.5853 13.7933 81.1453 15.44 81.1453 17.52C81.1453 19.72 81.6386 21.48 82.6253 22.8C83.612 24.1067 84.992 24.76 86.7653 24.76C87.632 24.76 88.4453 24.6133 89.2053 24.32C89.9653 24.0133 90.6853 23.5267 91.3653 22.86L93.8253 25.52C92.972 26.3867 91.9453 27.1 90.7453 27.66C89.5453 28.2067 88.1986 28.48 86.7053 28.48Z" fill="black"/>
<path id="Sobre" d="M208.6 28.48C207.107 28.48 205.72 28.1933 204.44 27.62C203.16 27.0333 202.047 26.2333 201.1 25.22C200.167 24.1933 199.473 23.0067 199.02 21.66L202.92 20.22C203.493 21.4867 204.313 22.5133 205.38 23.3C206.447 24.0867 207.62 24.48 208.9 24.48C210.193 24.48 211.24 24.14 212.04 23.46C212.84 22.78 213.24 21.7933 213.24 20.5C213.24 19.6467 212.973 18.8933 212.44 18.24C211.907 17.5867 211.207 17.0067 210.34 16.5C209.473 15.98 208.54 15.4933 207.54 15.04C206.647 14.6667 205.753 14.24 204.86 13.76C203.98 13.28 203.167 12.72 202.42 12.08C201.687 11.4267 201.093 10.66 200.64 9.78C200.187 8.9 199.96 7.87333 199.96 6.7C199.96 5.39333 200.293 4.2 200.96 3.12C201.64 2.02666 202.6 1.15333 203.84 0.499998C205.093 -0.153334 206.573 -0.48 208.28 -0.48C210.32 -0.48 212.06 0.0533323 213.5 1.12C214.953 2.17333 215.907 3.5 216.36 5.1L212.5 6.4C212.127 5.58667 211.567 4.9 210.82 4.34C210.073 3.78 209.153 3.5 208.06 3.5C206.967 3.5 206.06 3.78 205.34 4.34C204.633 4.9 204.28 5.66 204.28 6.62C204.28 7.32667 204.493 7.94 204.92 8.46C205.36 8.96667 205.973 9.44 206.76 9.88C207.547 10.32 208.487 10.7933 209.58 11.3C210.46 11.7133 211.367 12.18 212.3 12.7C213.233 13.22 214.1 13.8333 214.9 14.54C215.7 15.2333 216.34 16.0533 216.82 17C217.313 17.9467 217.56 19.0467 217.56 20.3C217.56 22.0467 217.153 23.5267 216.34 24.74C215.527 25.9533 214.44 26.88 213.08 27.52C211.72 28.16 210.227 28.48 208.6 28.48ZM232.968 28.48C230.995 28.48 229.282 28.0533 227.828 27.2C226.375 26.3333 225.248 25.1067 224.448 23.52C223.662 21.92 223.268 20.0133 223.268 17.8C223.268 15.6133 223.662 13.72 224.448 12.12C225.248 10.5067 226.375 9.26667 227.828 8.4C229.282 7.52 230.995 7.08 232.968 7.08C234.955 7.08 236.675 7.51333 238.128 8.38C239.595 9.23333 240.722 10.4667 241.508 12.08C242.295 13.68 242.688 15.58 242.688 17.78C242.688 19.98 242.295 21.88 241.508 23.48C240.722 25.08 239.595 26.3133 238.128 27.18C236.675 28.0467 234.955 28.48 232.968 28.48ZM232.968 24.54C234.742 24.54 236.102 23.9333 237.048 22.72C237.995 21.4933 238.468 19.8467 238.468 17.78C238.468 15.7133 238.002 14.0667 237.068 12.84C236.148 11.6 234.782 10.98 232.968 10.98C231.195 10.98 229.835 11.5933 228.888 12.82C227.942 14.0333 227.468 15.6933 227.468 17.8C227.468 19.8533 227.942 21.4933 228.888 22.72C229.835 23.9333 231.195 24.54 232.968 24.54ZM258.577 28.48C257.27 28.48 256.19 28.28 255.337 27.88C254.497 27.4667 253.784 26.96 253.197 26.36V28H249.037V1.06L253.197 -0.880002V9.26C253.784 8.60667 254.57 8.08 255.557 7.68C256.544 7.28 257.55 7.08 258.577 7.08C260.284 7.08 261.784 7.50667 263.077 8.36C264.384 9.21333 265.404 10.44 266.137 12.04C266.87 13.6267 267.237 15.5333 267.237 17.76C267.237 21.2133 266.457 23.8667 264.897 25.72C263.35 27.56 261.244 28.48 258.577 28.48ZM257.937 24.54C259.657 24.54 260.937 23.9333 261.777 22.72C262.617 21.4933 263.037 19.84 263.037 17.76C263.037 15.5733 262.604 13.9 261.737 12.74C260.884 11.5667 259.617 10.98 257.937 10.98C257.15 10.98 256.437 11.1067 255.797 11.36C255.17 11.6 254.637 11.9 254.197 12.26C253.757 12.6067 253.424 12.9467 253.197 13.28V22.24C253.69 22.96 254.344 23.5267 255.157 23.94C255.97 24.34 256.897 24.54 257.937 24.54ZM271.985 28V24.34H276.285V11.22H271.985V7.56H280.185V12.1L279.945 11.5C280.252 10.6333 280.779 9.86667 281.525 9.2C282.285 8.53333 283.185 8.01333 284.225 7.64C285.265 7.26667 286.379 7.08 287.565 7.08C288.592 7.08 289.492 7.18667 290.265 7.4C291.039 7.6 291.672 7.84 292.165 8.12V15.5H288.085V9.34L289.725 11.2C289.352 11.12 288.985 11.0667 288.625 11.04C288.279 11 287.959 10.98 287.665 10.98C286.092 10.98 284.772 11.22 283.705 11.7C282.639 12.1667 281.832 12.8467 281.285 13.74C280.739 14.6333 280.465 15.7 280.465 16.94V24.34H286.285V28H271.985ZM307.354 28.48C305.34 28.48 303.614 28.0267 302.174 27.12C300.747 26.2 299.647 24.9333 298.874 23.32C298.114 21.7067 297.734 19.8533 297.734 17.76C297.734 15.5333 298.127 13.6267 298.914 12.04C299.714 10.44 300.827 9.21333 302.254 8.36C303.694 7.50667 305.394 7.08 307.354 7.08C308.954 7.08 310.414 7.42667 311.734 8.12C313.067 8.81333 314.127 9.88 314.914 11.32C315.7 12.7467 316.094 14.5733 316.094 16.8C316.094 17.1333 316.087 17.5267 316.074 17.98C316.06 18.42 316.02 18.8933 315.954 19.4H300.934V15.82H311.994C311.927 14.58 311.654 13.5867 311.174 12.84C310.707 12.0933 310.134 11.56 309.454 11.24C308.774 10.9067 308.074 10.74 307.354 10.74C305.407 10.74 303.994 11.3533 303.114 12.58C302.234 13.7933 301.794 15.44 301.794 17.52C301.794 19.72 302.287 21.48 303.274 22.8C304.26 24.1067 305.64 24.76 307.414 24.76C308.28 24.76 309.094 24.6133 309.854 24.32C310.614 24.0133 311.334 23.5267 312.014 22.86L314.474 25.52C313.62 26.3867 312.594 27.1 311.394 27.66C310.194 28.2067 308.847 28.48 307.354 28.48Z" fill="black"/>
<path id="O que fazemos" d="M429.32 28.48C427.493 28.48 425.933 28.08 424.64 27.28C423.347 26.4667 422.293 25.3733 421.48 24C420.667 22.6267 420.067 21.08 419.68 19.36C419.307 17.6267 419.12 15.84 419.12 14C419.12 12.16 419.307 10.38 419.68 8.66C420.067 6.92667 420.667 5.37333 421.48 4C422.293 2.62667 423.347 1.54 424.64 0.739999C425.933 -0.0733339 427.493 -0.48 429.32 -0.48C431.147 -0.48 432.707 -0.0733339 434 0.739999C435.307 1.54 436.367 2.62667 437.18 4C437.993 5.37333 438.593 6.92667 438.98 8.66C439.367 10.38 439.56 12.16 439.56 14C439.56 15.84 439.367 17.6267 438.98 19.36C438.593 21.08 437.993 22.6267 437.18 24C436.367 25.3733 435.307 26.4667 434 27.28C432.707 28.08 431.147 28.48 429.32 28.48ZM429.32 24.46C430.347 24.46 431.227 24.16 431.96 23.56C432.693 22.96 433.287 22.16 433.74 21.16C434.207 20.16 434.547 19.04 434.76 17.8C434.987 16.5467 435.1 15.28 435.1 14C435.1 12.6133 434.987 11.3 434.76 10.06C434.547 8.80667 434.213 7.69333 433.76 6.72C433.307 5.73333 432.713 4.96 431.98 4.4C431.247 3.82667 430.36 3.54 429.32 3.54C428.293 3.54 427.413 3.84 426.68 4.44C425.947 5.02667 425.347 5.82 424.88 6.82C424.427 7.82 424.087 8.94667 423.86 10.2C423.647 11.44 423.54 12.7067 423.54 14C423.54 15.3733 423.647 16.6867 423.86 17.94C424.087 19.18 424.427 20.2933 424.88 21.28C425.347 22.2667 425.947 23.0467 426.68 23.62C427.413 24.18 428.293 24.46 429.32 24.46ZM483.077 36V26.24C482.517 26.8933 481.837 27.4333 481.037 27.86C480.25 28.2733 479.204 28.48 477.897 28.48C476.137 28.48 474.584 28.06 473.237 27.22C471.904 26.3667 470.857 25.1467 470.097 23.56C469.35 21.96 468.977 20.04 468.977 17.8C468.977 15.56 469.344 13.64 470.077 12.04C470.824 10.44 471.87 9.21333 473.217 8.36C474.564 7.50667 476.157 7.08 477.997 7.08C479.25 7.08 480.284 7.30667 481.097 7.76C481.924 8.2 482.584 8.67333 483.077 9.18V7.56H487.237V34.12L483.077 36ZM478.377 24.54C479.217 24.54 479.937 24.42 480.537 24.18C481.15 23.94 481.664 23.64 482.077 23.28C482.49 22.92 482.824 22.56 483.077 22.2V13.3C482.597 12.5267 481.977 11.9467 481.217 11.56C480.47 11.1733 479.57 10.98 478.517 10.98C477.37 10.98 476.397 11.2733 475.597 11.86C474.81 12.4467 474.21 13.26 473.797 14.3C473.397 15.3267 473.197 16.4933 473.197 17.8C473.197 19.9733 473.637 21.64 474.517 22.8C475.397 23.96 476.684 24.54 478.377 24.54ZM502.205 28.48C500.699 28.48 499.372 28.2 498.225 27.64C497.079 27.0667 496.179 26.1333 495.525 24.84C494.885 23.5467 494.565 21.82 494.565 19.66V7.56H498.725V19.18C498.725 21.1533 499.145 22.54 499.985 23.34C500.839 24.1267 501.879 24.52 503.105 24.52C503.945 24.52 504.719 24.3667 505.425 24.06C506.145 23.74 506.719 23.2 507.145 22.44C507.585 21.6667 507.805 20.6067 507.805 19.26V7.56H511.965V28H507.805V26.02C507.192 26.78 506.405 27.38 505.445 27.82C504.485 28.26 503.405 28.48 502.205 28.48ZM528.354 28.48C526.34 28.48 524.614 28.0267 523.174 27.12C521.747 26.2 520.647 24.9333 519.874 23.32C519.114 21.7067 518.734 19.8533 518.734 17.76C518.734 15.5333 519.127 13.6267 519.914 12.04C520.714 10.44 521.827 9.21333 523.254 8.36C524.694 7.50667 526.394 7.08 528.354 7.08C529.954 7.08 531.414 7.42667 532.734 8.12C534.067 8.81333 535.127 9.88 535.914 11.32C536.7 12.7467 537.094 14.5733 537.094 16.8C537.094 17.1333 537.087 17.5267 537.074 17.98C537.06 18.42 537.02 18.8933 536.954 19.4H521.934V15.82H532.994C532.927 14.58 532.654 13.5867 532.174 12.84C531.707 12.0933 531.134 11.56 530.454 11.24C529.774 10.9067 529.074 10.74 528.354 10.74C526.407 10.74 524.994 11.3533 524.114 12.58C523.234 13.7933 522.794 15.44 522.794 17.52C522.794 19.72 523.287 21.48 524.274 22.8C525.26 24.1067 526.64 24.76 528.414 24.76C529.28 24.76 530.094 24.6133 530.854 24.32C531.614 24.0133 532.334 23.5267 533.014 22.86L535.474 25.52C534.62 26.3867 533.594 27.1 532.394 27.66C531.194 28.2067 529.847 28.48 528.354 28.48ZM574.211 28V11.22H569.851V7.56H574.211V4.68C574.211 3.65333 574.404 2.80667 574.791 2.14C575.191 1.46 575.717 0.933331 576.371 0.559998C577.024 0.173332 577.737 -0.093334 578.511 -0.240001C579.284 -0.400001 580.057 -0.48 580.831 -0.48C581.844 -0.48 582.717 -0.393334 583.451 -0.22C584.197 -0.0600007 584.897 0.179999 585.551 0.499998V3.98C584.884 3.68667 584.231 3.48667 583.591 3.38C582.964 3.27333 582.317 3.22 581.651 3.22C580.944 3.22 580.344 3.30667 579.851 3.48C579.371 3.65333 579.004 3.90667 578.751 4.24C578.497 4.57333 578.371 4.98 578.371 5.46V7.56H584.891V11.22H578.371V28H574.211ZM569.851 28V24.34H583.811V28H569.851ZM600.379 28.48C598.952 28.48 597.672 28.2267 596.539 27.72C595.419 27.2133 594.532 26.4533 593.879 25.44C593.226 24.4267 592.899 23.16 592.899 21.64C592.899 20.0667 593.286 18.7867 594.059 17.8C594.846 16.8 595.852 16.0667 597.079 15.6C598.306 15.12 599.592 14.88 600.939 14.88C601.966 14.88 602.899 14.9733 603.739 15.16C604.579 15.3467 605.399 15.6467 606.199 16.06V14.72C606.199 13.7067 606.026 12.9067 605.679 12.32C605.332 11.7333 604.846 11.32 604.219 11.08C603.592 10.84 602.866 10.72 602.039 10.72C600.919 10.72 599.792 10.92 598.659 11.32C597.526 11.72 596.492 12.22 595.559 12.82L594.319 9.4C595.266 8.8 596.446 8.26667 597.859 7.8C599.286 7.32 600.806 7.08 602.419 7.08C603.272 7.08 604.152 7.17333 605.059 7.36C605.979 7.54667 606.826 7.9 607.599 8.42C608.386 8.94 609.012 9.7 609.479 10.7C609.959 11.6867 610.199 12.9867 610.199 14.6V28H606.199V26.3C605.572 26.8867 604.779 27.4 603.819 27.84C602.872 28.2667 601.726 28.48 600.379 28.48ZM601.079 24.84C602.252 24.84 603.259 24.6 604.099 24.12C604.952 23.64 605.652 23.1067 606.199 22.52V19.54C605.612 19.22 604.912 18.96 604.099 18.76C603.286 18.5467 602.439 18.44 601.559 18.44C600.319 18.44 599.226 18.6933 598.279 19.2C597.346 19.7067 596.879 20.52 596.879 21.64C596.879 22.5867 597.246 23.36 597.979 23.96C598.712 24.5467 599.746 24.84 601.079 24.84ZM618.388 28V24.96L629.308 11.28H619.148V7.56H634.648V10.52L623.708 24.28H634.608V28H618.388ZM651.596 28.48C649.583 28.48 647.856 28.0267 646.416 27.12C644.989 26.2 643.889 24.9333 643.116 23.32C642.356 21.7067 641.976 19.8533 641.976 17.76C641.976 15.5333 642.369 13.6267 643.156 12.04C643.956 10.44 645.069 9.21333 646.496 8.36C647.936 7.50667 649.636 7.08 651.596 7.08C653.196 7.08 654.656 7.42667 655.976 8.12C657.309 8.81333 658.369 9.88 659.156 11.32C659.943 12.7467 660.336 14.5733 660.336 16.8C660.336 17.1333 660.329 17.5267 660.316 17.98C660.303 18.42 660.263 18.8933 660.196 19.4H645.176V15.82H656.236C656.169 14.58 655.896 13.5867 655.416 12.84C654.949 12.0933 654.376 11.56 653.696 11.24C653.016 10.9067 652.316 10.74 651.596 10.74C649.649 10.74 648.236 11.3533 647.356 12.58C646.476 13.7933 646.036 15.44 646.036 17.52C646.036 19.72 646.529 21.48 647.516 22.8C648.503 24.1067 649.883 24.76 651.656 24.76C652.523 24.76 653.336 24.6133 654.096 24.32C654.856 24.0133 655.576 23.5267 656.256 22.86L658.716 25.52C657.863 26.3867 656.836 27.1 655.636 27.66C654.436 28.2067 653.089 28.48 651.596 28.48ZM665.344 28V7.56H669.204V12.18L668.564 11.8C668.818 10.32 669.311 9.16667 670.044 8.34C670.791 7.5 671.738 7.08 672.884 7.08C673.964 7.08 674.818 7.4 675.444 8.04C676.071 8.68 676.504 9.36667 676.744 10.1C677.211 9.31333 677.818 8.61333 678.564 8C679.324 7.38667 680.258 7.08 681.364 7.08C682.991 7.08 684.218 7.64667 685.044 8.78C685.871 9.91333 686.284 11.8467 686.284 14.58V28H682.404V15.5C682.404 13.9667 682.271 12.84 682.004 12.12C681.738 11.3867 681.184 11.02 680.344 11.02C679.784 11.02 679.318 11.2133 678.944 11.6C678.571 11.9733 678.291 12.5067 678.104 13.2C677.918 13.88 677.824 14.68 677.824 15.6V28H673.944V15.28C673.944 14.44 673.878 13.7 673.744 13.06C673.624 12.42 673.418 11.92 673.124 11.56C672.831 11.2 672.418 11.02 671.884 11.02C671.324 11.02 670.844 11.2133 670.444 11.6C670.044 11.9733 669.738 12.5067 669.524 13.2C669.311 13.88 669.204 14.68 669.204 15.6V28H665.344ZM700.453 28.48C698.479 28.48 696.766 28.0533 695.313 27.2C693.859 26.3333 692.733 25.1067 691.933 23.52C691.146 21.92 690.753 20.0133 690.753 17.8C690.753 15.6133 691.146 13.72 691.933 12.12C692.733 10.5067 693.859 9.26667 695.313 8.4C696.766 7.52 698.479 7.08 700.453 7.08C702.439 7.08 704.159 7.51333 705.613 8.38C707.079 9.23333 708.206 10.4667 708.993 12.08C709.779 13.68 710.173 15.58 710.173 17.78C710.173 19.98 709.779 21.88 708.993 23.48C708.206 25.08 707.079 26.3133 705.613 27.18C704.159 28.0467 702.439 28.48 700.453 28.48ZM700.453 24.54C702.226 24.54 703.586 23.9333 704.533 22.72C705.479 21.4933 705.953 19.8467 705.953 17.78C705.953 15.7133 705.486 14.0667 704.553 12.84C703.633 11.6 702.266 10.98 700.453 10.98C698.679 10.98 697.319 11.5933 696.373 12.82C695.426 14.0333 694.953 15.6933 694.953 17.8C694.953 19.8533 695.426 21.4933 696.373 22.72C697.319 23.9333 698.679 24.54 700.453 24.54ZM725.141 28.48C723.461 28.48 721.915 28.1467 720.501 27.48C719.088 26.8 717.948 25.9267 717.081 24.86L719.861 22.36C720.435 22.96 721.188 23.5267 722.121 24.06C723.068 24.5933 724.155 24.86 725.381 24.86C726.368 24.86 727.188 24.68 727.841 24.32C728.508 23.96 728.841 23.3933 728.841 22.62C728.841 22.0733 728.635 21.6067 728.221 21.22C727.808 20.8333 727.228 20.48 726.481 20.16C725.748 19.8267 724.881 19.4733 723.881 19.1C722.628 18.6333 721.515 18.1267 720.541 17.58C719.568 17.0333 718.801 16.3667 718.241 15.58C717.681 14.78 717.401 13.78 717.401 12.58C717.401 11.4333 717.735 10.4533 718.401 9.64C719.081 8.81333 719.995 8.18 721.141 7.74C722.301 7.3 723.595 7.08 725.021 7.08C726.701 7.08 728.161 7.38667 729.401 8C730.641 8.6 731.668 9.36 732.481 10.28L729.681 12.6C729.148 12.12 728.481 11.6867 727.681 11.3C726.881 10.9 725.901 10.7 724.741 10.7C723.768 10.7 722.968 10.86 722.341 11.18C721.728 11.5 721.421 11.98 721.421 12.62C721.421 13.1 721.628 13.52 722.041 13.88C722.455 14.2267 723.001 14.5467 723.681 14.84C724.375 15.1333 725.135 15.4333 725.961 15.74C727.095 16.1533 728.188 16.6267 729.241 17.16C730.308 17.6933 731.175 18.38 731.841 19.22C732.521 20.06 732.861 21.1667 732.861 22.54C732.861 24.4067 732.161 25.8667 730.761 26.92C729.361 27.96 727.488 28.48 725.141 28.48Z" fill="black"/>
<path id="Contactos" d="M848 28.44C846.013 28.44 844.327 28.0267 842.94 27.2C841.553 26.3733 840.433 25.2667 839.58 23.88C838.727 22.4933 838.1 20.94 837.7 19.22C837.313 17.5 837.12 15.76 837.12 14C837.12 12.2667 837.32 10.5467 837.72 8.84C838.133 7.12 838.773 5.56 839.64 4.16C840.507 2.76 841.627 1.64 843 0.8C844.387 -0.0400014 846.053 -0.460002 848 -0.460002C849.52 -0.460002 850.827 -0.193335 851.92 0.34C853.013 0.873333 853.92 1.56667 854.64 2.42C855.36 3.26 855.913 4.14 856.3 5.06L852.5 6.94C851.98 5.94 851.38 5.12667 850.7 4.5C850.02 3.87333 849.12 3.56 848 3.56C846.813 3.56 845.807 3.88 844.98 4.52C844.153 5.14667 843.487 5.98 842.98 7.02C842.473 8.04667 842.107 9.17333 841.88 10.4C841.653 11.6133 841.54 12.8133 841.54 14C841.54 15.2667 841.667 16.52 841.92 17.76C842.173 19 842.56 20.12 843.08 21.12C843.613 22.12 844.287 22.92 845.1 23.52C845.913 24.12 846.88 24.42 848 24.42C849.133 24.42 850.06 24.0867 850.78 23.42C851.513 22.7533 852.127 21.8933 852.62 20.84L856.48 22.3C856.013 23.4467 855.4 24.4867 854.64 25.42C853.88 26.3533 852.947 27.0933 851.84 27.64C850.747 28.1733 849.467 28.44 848 28.44ZM871.968 28.48C869.995 28.48 868.282 28.0533 866.828 27.2C865.375 26.3333 864.248 25.1067 863.448 23.52C862.662 21.92 862.268 20.0133 862.268 17.8C862.268 15.6133 862.662 13.72 863.448 12.12C864.248 10.5067 865.375 9.26667 866.828 8.4C868.282 7.52 869.995 7.08 871.968 7.08C873.955 7.08 875.675 7.51333 877.128 8.38C878.595 9.23333 879.722 10.4667 880.508 12.08C881.295 13.68 881.688 15.58 881.688 17.78C881.688 19.98 881.295 21.88 880.508 23.48C879.722 25.08 878.595 26.3133 877.128 27.18C875.675 28.0467 873.955 28.48 871.968 28.48ZM871.968 24.54C873.742 24.54 875.102 23.9333 876.048 22.72C876.995 21.4933 877.468 19.8467 877.468 17.78C877.468 15.7133 877.002 14.0667 876.068 12.84C875.148 11.6 873.782 10.98 871.968 10.98C870.195 10.98 868.835 11.5933 867.888 12.82C866.942 14.0333 866.468 15.6933 866.468 17.8C866.468 19.8533 866.942 21.4933 867.888 22.72C868.835 23.9333 870.195 24.54 871.968 24.54ZM887.917 28V7.56H892.077V12.06L891.497 10.92C891.604 10.2667 891.944 9.65333 892.517 9.08C893.104 8.49333 893.85 8.01333 894.757 7.64C895.664 7.26667 896.677 7.08 897.797 7.08C899.25 7.08 900.544 7.36667 901.677 7.94C902.824 8.5 903.724 9.42 904.377 10.7C905.03 11.9667 905.357 13.6667 905.357 15.8V28H901.217V16.24C901.217 14.2933 900.784 12.9333 899.917 12.16C899.05 11.3733 898.004 10.98 896.777 10.98C895.91 10.98 895.117 11.14 894.397 11.46C893.69 11.7667 893.124 12.3 892.697 13.06C892.284 13.8067 892.077 14.84 892.077 16.16V28H887.917ZM923.145 28.48C921.105 28.48 919.639 28.0067 918.745 27.06C917.865 26.1 917.425 24.7733 917.425 23.08V11.22H913.005V7.56H917.425V1.12L921.585 -0.880002V7.56H928.505V11.22H921.585V22.12C921.585 22.6667 921.672 23.14 921.845 23.54C922.019 23.9267 922.312 24.2267 922.725 24.44C923.152 24.6533 923.739 24.76 924.485 24.76C925.259 24.76 925.932 24.66 926.505 24.46C927.079 24.2467 927.612 24.0067 928.105 23.74L927.605 27.56C927.045 27.8533 926.412 28.08 925.705 28.24C924.999 28.4 924.145 28.48 923.145 28.48ZM944.434 28.48C943.007 28.48 941.727 28.2267 940.594 27.72C939.474 27.2133 938.587 26.4533 937.934 25.44C937.28 24.4267 936.954 23.16 936.954 21.64C936.954 20.0667 937.34 18.7867 938.114 17.8C938.9 16.8 939.907 16.0667 941.134 15.6C942.36 15.12 943.647 14.88 944.994 14.88C946.02 14.88 946.954 14.9733 947.794 15.16C948.634 15.3467 949.454 15.6467 950.254 16.06V14.72C950.254 13.7067 950.08 12.9067 949.734 12.32C949.387 11.7333 948.9 11.32 948.274 11.08C947.647 10.84 946.92 10.72 946.094 10.72C944.974 10.72 943.847 10.92 942.714 11.32C941.58 11.72 940.547 12.22 939.614 12.82L938.374 9.4C939.32 8.8 940.5 8.26667 941.914 7.8C943.34 7.32 944.86 7.08 946.474 7.08C947.327 7.08 948.207 7.17333 949.114 7.36C950.034 7.54667 950.88 7.9 951.654 8.42C952.44 8.94 953.067 9.7 953.534 10.7C954.014 11.6867 954.254 12.9867 954.254 14.6V28H950.254V26.3C949.627 26.8867 948.834 27.4 947.874 27.84C946.927 28.2667 945.78 28.48 944.434 28.48ZM945.134 24.84C946.307 24.84 947.314 24.6 948.154 24.12C949.007 23.64 949.707 23.1067 950.254 22.52V19.54C949.667 19.22 948.967 18.96 948.154 18.76C947.34 18.5467 946.494 18.44 945.614 18.44C944.374 18.44 943.28 18.6933 942.334 19.2C941.4 19.7067 940.934 20.52 940.934 21.64C940.934 22.5867 941.3 23.36 942.034 23.96C942.767 24.5467 943.8 24.84 945.134 24.84ZM970.982 28.48C968.196 28.48 965.982 27.5467 964.342 25.68C962.702 23.8 961.882 21.1733 961.882 17.8C961.882 15.5733 962.262 13.66 963.022 12.06C963.782 10.46 964.849 9.23333 966.222 8.38C967.609 7.51333 969.242 7.08 971.122 7.08C973.109 7.08 974.782 7.51333 976.142 8.38C977.502 9.23333 978.496 10.5467 979.122 12.32L975.222 13.68C974.916 12.8933 974.429 12.2467 973.762 11.74C973.109 11.2333 972.229 10.98 971.122 10.98C969.469 10.98 968.222 11.6 967.382 12.84C966.542 14.08 966.122 15.7333 966.122 17.8C966.122 19.8933 966.542 21.54 967.382 22.74C968.236 23.94 969.456 24.54 971.042 24.54C972.162 24.54 973.082 24.28 973.802 23.76C974.522 23.2267 975.049 22.48 975.382 21.52L979.282 22.78C978.709 24.62 977.722 26.0333 976.322 27.02C974.922 27.9933 973.142 28.48 970.982 28.48ZM997.091 28.48C995.051 28.48 993.584 28.0067 992.691 27.06C991.811 26.1 991.371 24.7733 991.371 23.08V11.22H986.951V7.56H991.371V1.12L995.531 -0.880002V7.56H1002.45V11.22H995.531V22.12C995.531 22.6667 995.617 23.14 995.791 23.54C995.964 23.9267 996.257 24.2267 996.671 24.44C997.097 24.6533 997.684 24.76 998.431 24.76C999.204 24.76 999.877 24.66 1000.45 24.46C1001.02 24.2467 1001.56 24.0067 1002.05 23.74L1001.55 27.56C1000.99 27.8533 1000.36 28.08 999.651 28.24C998.944 28.4 998.091 28.48 997.091 28.48ZM1019.86 28.48C1017.89 28.48 1016.17 28.0533 1014.72 27.2C1013.27 26.3333 1012.14 25.1067 1011.34 23.52C1010.55 21.92 1010.16 20.0133 1010.16 17.8C1010.16 15.6133 1010.55 13.72 1011.34 12.12C1012.14 10.5067 1013.27 9.26667 1014.72 8.4C1016.17 7.52 1017.89 7.08 1019.86 7.08C1021.85 7.08 1023.57 7.51333 1025.02 8.38C1026.49 9.23333 1027.61 10.4667 1028.4 12.08C1029.19 13.68 1029.58 15.58 1029.58 17.78C1029.58 19.98 1029.19 21.88 1028.4 23.48C1027.61 25.08 1026.49 26.3133 1025.02 27.18C1023.57 28.0467 1021.85 28.48 1019.86 28.48ZM1019.86 24.54C1021.63 24.54 1022.99 23.9333 1023.94 22.72C1024.89 21.4933 1025.36 19.8467 1025.36 17.78C1025.36 15.7133 1024.89 14.0667 1023.96 12.84C1023.04 11.6 1021.67 10.98 1019.86 10.98C1018.09 10.98 1016.73 11.5933 1015.78 12.82C1014.83 14.0333 1014.36 15.6933 1014.36 17.8C1014.36 19.8533 1014.83 21.4933 1015.78 22.72C1016.73 23.9333 1018.09 24.54 1019.86 24.54ZM1044.55 28.48C1042.87 28.48 1041.32 28.1467 1039.91 27.48C1038.49 26.8 1037.35 25.9267 1036.49 24.86L1039.27 22.36C1039.84 22.96 1040.59 23.5267 1041.53 24.06C1042.47 24.5933 1043.56 24.86 1044.79 24.86C1045.77 24.86 1046.59 24.68 1047.25 24.32C1047.91 23.96 1048.25 23.3933 1048.25 22.62C1048.25 22.0733 1048.04 21.6067 1047.63 21.22C1047.21 20.8333 1046.63 20.48 1045.89 20.16C1045.15 19.8267 1044.29 19.4733 1043.29 19.1C1042.03 18.6333 1040.92 18.1267 1039.95 17.58C1038.97 17.0333 1038.21 16.3667 1037.65 15.58C1037.09 14.78 1036.81 13.78 1036.81 12.58C1036.81 11.4333 1037.14 10.4533 1037.81 9.64C1038.49 8.81333 1039.4 8.18 1040.55 7.74C1041.71 7.3 1043 7.08 1044.43 7.08C1046.11 7.08 1047.57 7.38667 1048.81 8C1050.05 8.6 1051.07 9.36 1051.89 10.28L1049.09 12.6C1048.55 12.12 1047.89 11.6867 1047.09 11.3C1046.29 10.9 1045.31 10.7 1044.15 10.7C1043.17 10.7 1042.37 10.86 1041.75 11.18C1041.13 11.5 1040.83 11.98 1040.83 12.62C1040.83 13.1 1041.03 13.52 1041.45 13.88C1041.86 14.2267 1042.41 14.5467 1043.09 14.84C1043.78 15.1333 1044.54 15.4333 1045.37 15.74C1046.5 16.1533 1047.59 16.6267 1048.65 17.16C1049.71 17.6933 1050.58 18.38 1051.25 19.22C1051.93 20.06 1052.27 21.1667 1052.27 22.54C1052.27 24.4067 1051.57 25.8667 1050.17 26.92C1048.77 27.96 1046.89 28.48 1044.55 28.48Z" fill="black"/>
</g>
</svg>
