<svg width="393" height="104" viewBox="0 0 393 104" fill="none" xmlns="http://www.w3.org/2000/svg">
<g id="Frame 59" filter="url(#filter0_d_3347_485)">
<rect x="2.5" y="2.5" width="388" height="99" rx="49.5" stroke="#BD4747" stroke-width="5" shape-rendering="crispEdges"/>
<path id="reserva gr&#195;&#161;tis aqui" d="M102.758 68L102.758 36.5L113.355 36.5C115.935 36.5 117.983 36.9725 119.498 37.9175C121.013 38.8625 122.1 40.0775 122.76 41.5625C123.42 43.0325 123.75 44.555 123.75 46.13C123.75 47.24 123.555 48.365 123.165 49.505C122.79 50.63 122.183 51.665 121.343 52.61C120.518 53.555 119.445 54.32 118.125 54.905C116.82 55.475 115.23 55.76 113.355 55.76L107.573 55.76L107.573 68L102.758 68ZM107.573 51.2825L113.625 51.2825C114.915 51.2825 115.943 51.0275 116.708 50.5175C117.488 49.9925 118.05 49.34 118.395 48.56C118.74 47.765 118.913 46.955 118.913 46.13C118.913 45.395 118.755 44.63 118.44 43.835C118.14 43.04 117.608 42.365 116.843 41.81C116.078 41.255 115.005 40.9775 113.625 40.9775L107.573 40.9775L107.573 51.2825ZM140.589 68.54C138.534 68.54 136.779 68.09 135.324 67.19C133.869 66.275 132.684 65.045 131.769 63.5C130.854 61.955 130.179 60.215 129.744 58.28C129.324 56.33 129.114 54.32 129.114 52.25C129.114 50.18 129.324 48.1775 129.744 46.2425C130.179 44.2925 130.854 42.545 131.769 41C132.684 39.455 133.869 38.2325 135.324 37.3325C136.779 36.4175 138.534 35.96 140.589 35.96C142.644 35.96 144.399 36.4175 145.854 37.3325C147.324 38.2325 148.517 39.455 149.432 41C150.347 42.545 151.022 44.2925 151.457 46.2425C151.892 48.1775 152.109 50.18 152.109 52.25C152.109 54.32 151.892 56.33 151.457 58.28C151.022 60.215 150.347 61.955 149.432 63.5C148.517 65.045 147.324 66.275 145.854 67.19C144.399 68.09 142.644 68.54 140.589 68.54ZM140.589 64.0175C141.744 64.0175 142.734 63.68 143.559 63.005C144.384 62.33 145.052 61.43 145.562 60.305C146.087 59.18 146.469 57.92 146.709 56.525C146.964 55.115 147.092 53.69 147.092 52.25C147.092 50.69 146.964 49.2125 146.709 47.8175C146.469 46.4075 146.094 45.155 145.584 44.06C145.074 42.95 144.407 42.08 143.582 41.45C142.757 40.805 141.759 40.4825 140.589 40.4825C139.434 40.4825 138.444 40.82 137.619 41.495C136.794 42.155 136.119 43.0475 135.594 44.1725C135.084 45.2975 134.702 46.565 134.447 47.975C134.207 49.37 134.087 50.795 134.087 52.25C134.087 53.795 134.207 55.2725 134.447 56.6825C134.702 58.0775 135.084 59.33 135.594 60.44C136.119 61.55 136.794 62.4275 137.619 63.0725C138.444 63.7025 139.434 64.0175 140.589 64.0175ZM158.216 68L158.216 36.5L165.934 36.5C168.484 36.5 170.636 36.95 172.391 37.85C174.161 38.735 175.594 39.935 176.689 41.45C177.784 42.95 178.579 44.6375 179.074 46.5125C179.584 48.3725 179.839 50.285 179.839 52.25C179.839 54.05 179.599 55.8725 179.119 57.7175C178.654 59.5625 177.881 61.265 176.801 62.825C175.721 64.385 174.281 65.6375 172.481 66.5825C170.681 67.5275 168.439 68 165.754 68L158.216 68ZM163.009 63.5L166.159 63.5C167.794 63.5 169.166 63.17 170.276 62.51C171.401 61.835 172.294 60.95 172.954 59.855C173.614 58.745 174.086 57.53 174.371 56.21C174.671 54.89 174.821 53.57 174.821 52.25C174.821 50.84 174.664 49.4675 174.349 48.1325C174.049 46.7975 173.569 45.59 172.909 44.51C172.264 43.43 171.424 42.575 170.389 41.945C169.354 41.3 168.109 40.9775 166.654 40.9775L163.009 40.9775L163.009 63.5ZM196.813 68.495C194.578 68.495 192.681 68.03 191.121 67.1C189.561 66.17 188.301 64.925 187.341 63.365C186.381 61.805 185.676 60.0575 185.226 58.1225C184.791 56.1875 184.573 54.23 184.573 52.25C184.573 50.3 184.798 48.365 185.248 46.445C185.713 44.51 186.433 42.755 187.408 41.18C188.383 39.605 189.643 38.345 191.188 37.4C192.748 36.455 194.623 35.9825 196.813 35.9825C198.523 35.9825 199.993 36.2825 201.223 36.8825C202.453 37.4825 203.473 38.2625 204.283 39.2225C205.093 40.1675 205.716 41.1575 206.151 42.1925L201.876 44.3075C201.291 43.1825 200.616 42.2675 199.851 41.5625C199.086 40.8575 198.073 40.505 196.813 40.505C195.478 40.505 194.346 40.865 193.416 41.585C192.486 42.29 191.736 43.2275 191.166 44.3975C190.596 45.5525 190.183 46.82 189.928 48.2C189.673 49.565 189.546 50.915 189.546 52.25C189.546 53.675 189.688 55.085 189.973 56.48C190.258 57.875 190.693 59.135 191.278 60.26C191.878 61.385 192.636 62.285 193.551 62.96C194.466 63.635 195.553 63.9725 196.813 63.9725C198.088 63.9725 199.131 63.5975 199.941 62.8475C200.766 62.0975 201.456 61.13 202.011 59.945L206.353 61.5875C205.828 62.8775 205.138 64.0475 204.283 65.0975C203.428 66.1475 202.378 66.98 201.133 67.595C199.903 68.195 198.463 68.495 196.813 68.495ZM211.245 68L221.573 36.5L225.96 36.5L236.31 68L231.203 68L224.565 46.2425C224.505 46.0325 224.423 45.7325 224.318 45.3425C224.213 44.9375 224.108 44.5175 224.003 44.0825C223.898 43.6475 223.823 43.2575 223.778 42.9125C223.703 43.2575 223.613 43.6475 223.508 44.0825C223.418 44.5175 223.32 44.9375 223.215 45.3425C223.125 45.7325 223.05 46.0325 222.99 46.2425L216.398 68L211.245 68ZM217.433 60.755L218.76 56.4125L228.795 56.4125L230.123 60.755L217.433 60.755ZM251.822 68.54C250.142 68.54 248.582 68.2175 247.142 67.5725C245.702 66.9125 244.45 66.0125 243.385 64.8725C242.335 63.7175 241.555 62.3825 241.045 60.8675L245.432 59.2475C246.077 60.6725 247 61.8275 248.2 62.7125C249.4 63.5975 250.72 64.04 252.16 64.04C253.615 64.04 254.792 63.6575 255.692 62.8925C256.592 62.1275 257.042 61.0175 257.042 59.5625C257.042 58.6025 256.742 57.755 256.142 57.02C255.542 56.285 254.755 55.6325 253.78 55.0625C252.805 54.4775 251.755 53.93 250.63 53.42C249.625 53 248.62 52.52 247.615 51.98C246.625 51.44 245.71 50.81 244.87 50.09C244.045 49.355 243.377 48.4925 242.867 47.5025C242.357 46.5125 242.102 45.3575 242.102 44.0375C242.102 42.5675 242.477 41.225 243.227 40.01C243.992 38.78 245.072 37.7975 246.467 37.0625C247.877 36.3275 249.542 35.96 251.462 35.96C253.757 35.96 255.715 36.56 257.335 37.76C258.97 38.945 260.042 40.4375 260.552 42.2375L256.21 43.7C255.79 42.785 255.16 42.0125 254.32 41.3825C253.48 40.7525 252.445 40.4375 251.215 40.4375C249.985 40.4375 248.965 40.7525 248.155 41.3825C247.36 42.0125 246.962 42.8675 246.962 43.9475C246.962 44.7425 247.202 45.4325 247.682 46.0175C248.177 46.5875 248.867 47.12 249.752 47.615C250.637 48.11 251.695 48.6425 252.925 49.2125C253.915 49.6775 254.935 50.2025 255.985 50.7875C257.035 51.3725 258.01 52.0625 258.91 52.8575C259.81 53.6375 260.53 54.56 261.07 55.625C261.625 56.69 261.902 57.9275 261.902 59.3375C261.902 61.3025 261.445 62.9675 260.53 64.3325C259.615 65.6975 258.392 66.74 256.862 67.46C255.332 68.18 253.652 68.54 251.822 68.54ZM276.829 68L276.829 41.09L267.717 41.09L267.717 36.5L290.757 36.5L290.757 41.09L281.622 41.09L281.622 68L276.829 68Z" fill="#BD4747"/>
</g>
<defs>
<filter id="filter0_d_3347_485" x="-4" y="7.778e-09" width="401" height="112" filterUnits="userSpaceOnUse" color-interpolation-filters="sRGB">
<feFlood flood-opacity="0" result="BackgroundImageFix"/>
<feColorMatrix in="SourceAlpha" type="matrix" values="0 0 0 0 0 0 0 0 0 0 0 0 0 0 0 0 0 0 127 0" result="hardAlpha"/>
<feOffset dy="4"/>
<feGaussianBlur stdDeviation="2"/>
<feComposite in2="hardAlpha" operator="out"/>
<feColorMatrix type="matrix" values="0 0 0 0 0 0 0 0 0 0 0 0 0 0 0 0 0 0 0.25 0"/>
<feBlend mode="normal" in2="BackgroundImageFix" result="effect1_dropShadow_3347_485"/>
<feBlend mode="normal" in="SourceGraphic" in2="effect1_dropShadow_3347_485" result="shape"/>
</filter>
</defs>
</svg>
