<svg width="392" height="104" viewBox="0 0 392 104" fill="none" xmlns="http://www.w3.org/2000/svg">
<g id="Frame 61" filter="url(#filter0_d_3347_487)">
<rect x="2.5" y="2.5" width="387" height="99" rx="49.5" stroke="#BD4747" stroke-width="5" shape-rendering="crispEdges"/>
<path id="reserva gr&#195;&#161;tis aqui" d="M127.125 68.495C124.89 68.495 122.993 68.03 121.433 67.1C119.873 66.17 118.613 64.925 117.653 63.365C116.693 61.805 115.988 60.0575 115.538 58.1225C115.103 56.1875 114.885 54.23 114.885 52.25C114.885 50.3 115.11 48.365 115.56 46.445C116.025 44.51 116.745 42.755 117.72 41.18C118.695 39.605 119.955 38.345 121.5 37.4C123.06 36.455 124.935 35.9825 127.125 35.9825C128.835 35.9825 130.305 36.2825 131.535 36.8825C132.765 37.4825 133.785 38.2625 134.595 39.2225C135.405 40.1675 136.028 41.1575 136.463 42.1925L132.188 44.3075C131.603 43.1825 130.928 42.2675 130.163 41.5625C129.398 40.8575 128.385 40.505 127.125 40.505C125.79 40.505 124.658 40.865 123.728 41.585C122.798 42.29 122.048 43.2275 121.478 44.3975C120.908 45.5525 120.495 46.82 120.24 48.2C119.985 49.565 119.858 50.915 119.858 52.25C119.858 53.675 120 55.085 120.285 56.48C120.57 57.875 121.005 59.135 121.59 60.26C122.19 61.385 122.948 62.285 123.862 62.96C124.778 63.635 125.865 63.9725 127.125 63.9725C128.4 63.9725 129.443 63.5975 130.253 62.8475C131.078 62.0975 131.768 61.13 132.323 59.945L136.665 61.5875C136.14 62.8775 135.45 64.0475 134.595 65.0975C133.74 66.1475 132.69 66.98 131.445 67.595C130.215 68.195 128.775 68.495 127.125 68.495ZM141.557 68L151.884 36.5L156.272 36.5L166.622 68L161.514 68L154.877 46.2425C154.817 46.0325 154.734 45.7325 154.629 45.3425C154.524 44.9375 154.419 44.5175 154.314 44.0825C154.209 43.6475 154.134 43.2575 154.089 42.9125C154.014 43.2575 153.924 43.6475 153.819 44.0825C153.729 44.5175 153.632 44.9375 153.527 45.3425C153.437 45.7325 153.362 46.0325 153.302 46.2425L146.709 68L141.557 68ZM147.744 60.755L149.072 56.4125L159.107 56.4125L160.434 60.755L147.744 60.755ZM171.716 68L171.716 36.5L176.554 36.5L181.166 54.365C181.301 54.92 181.436 55.4825 181.571 56.0525C181.721 56.6075 181.826 57.1025 181.886 57.5375C181.961 57.1025 182.066 56.6075 182.201 56.0525C182.336 55.4825 182.479 54.92 182.629 54.365L187.331 36.5L191.921 36.5L191.921 68L187.691 68L187.691 49.8875C187.691 49.5575 187.691 49.1225 187.691 48.5825C187.706 48.0275 187.736 47.5625 187.781 47.1875C187.661 47.6075 187.526 48.0575 187.376 48.5375C187.241 49.0025 187.114 49.4525 186.994 49.8875L182.089 68L181.571 68L176.644 49.8875C176.524 49.4525 176.389 48.995 176.239 48.515C176.104 48.035 175.976 47.5925 175.856 47.1875C175.886 47.5625 175.909 48.0275 175.924 48.5825C175.939 49.1225 175.946 49.5575 175.946 49.8875L175.946 68L171.716 68ZM199.446 68L199.446 36.5L210.043 36.5C212.623 36.5 214.671 36.9725 216.186 37.9175C217.701 38.8625 218.788 40.0775 219.448 41.5625C220.108 43.0325 220.438 44.555 220.438 46.13C220.438 47.24 220.243 48.365 219.853 49.505C219.478 50.63 218.871 51.665 218.031 52.61C217.206 53.555 216.133 54.32 214.813 54.905C213.508 55.475 211.918 55.76 210.043 55.76L204.261 55.76L204.261 68L199.446 68ZM204.261 51.2825L210.313 51.2825C211.603 51.2825 212.631 51.0275 213.396 50.5175C214.176 49.9925 214.738 49.34 215.083 48.56C215.428 47.765 215.601 46.955 215.601 46.13C215.601 45.395 215.443 44.63 215.128 43.835C214.828 43.04 214.296 42.365 213.531 41.81C212.766 41.255 211.693 40.9775 210.313 40.9775L204.261 40.9775L204.261 51.2825ZM237.278 68.54C235.223 68.54 233.468 68.09 232.013 67.19C230.558 66.275 229.373 65.045 228.458 63.5C227.543 61.955 226.868 60.215 226.433 58.28C226.013 56.33 225.803 54.32 225.803 52.25C225.803 50.18 226.013 48.1775 226.433 46.2425C226.868 44.2925 227.543 42.545 228.458 41C229.373 39.455 230.558 38.2325 232.013 37.3325C233.468 36.4175 235.223 35.96 237.278 35.96C239.333 35.96 241.088 36.4175 242.543 37.3325C244.013 38.2325 245.205 39.455 246.12 41C247.035 42.545 247.71 44.2925 248.145 46.2425C248.58 48.1775 248.798 50.18 248.798 52.25C248.798 54.32 248.58 56.33 248.145 58.28C247.71 60.215 247.035 61.955 246.12 63.5C245.205 65.045 244.013 66.275 242.543 67.19C241.088 68.09 239.333 68.54 237.278 68.54ZM237.278 64.0175C238.433 64.0175 239.423 63.68 240.248 63.005C241.073 62.33 241.74 61.43 242.25 60.305C242.775 59.18 243.158 57.92 243.398 56.525C243.653 55.115 243.78 53.69 243.78 52.25C243.78 50.69 243.653 49.2125 243.398 47.8175C243.158 46.4075 242.783 45.155 242.273 44.06C241.763 42.95 241.095 42.08 240.27 41.45C239.445 40.805 238.448 40.4825 237.278 40.4825C236.123 40.4825 235.133 40.82 234.308 41.495C233.483 42.155 232.808 43.0475 232.283 44.1725C231.773 45.2975 231.39 46.565 231.135 47.975C230.895 49.37 230.775 50.795 230.775 52.25C230.775 53.795 230.895 55.2725 231.135 56.6825C231.39 58.0775 231.773 59.33 232.283 60.44C232.808 61.55 233.483 62.4275 234.308 63.0725C235.133 63.7025 236.123 64.0175 237.278 64.0175ZM265.322 68.54C263.642 68.54 262.082 68.2175 260.642 67.5725C259.202 66.9125 257.95 66.0125 256.885 64.8725C255.835 63.7175 255.055 62.3825 254.545 60.8675L258.932 59.2475C259.577 60.6725 260.5 61.8275 261.7 62.7125C262.9 63.5975 264.22 64.04 265.66 64.04C267.115 64.04 268.292 63.6575 269.192 62.8925C270.092 62.1275 270.542 61.0175 270.542 59.5625C270.542 58.6025 270.242 57.755 269.642 57.02C269.042 56.285 268.255 55.6325 267.28 55.0625C266.305 54.4775 265.255 53.93 264.13 53.42C263.125 53 262.12 52.52 261.115 51.98C260.125 51.44 259.21 50.81 258.37 50.09C257.545 49.355 256.877 48.4925 256.367 47.5025C255.857 46.5125 255.602 45.3575 255.602 44.0375C255.602 42.5675 255.977 41.225 256.727 40.01C257.492 38.78 258.572 37.7975 259.967 37.0625C261.377 36.3275 263.042 35.96 264.962 35.96C267.257 35.96 269.215 36.56 270.835 37.76C272.47 38.945 273.542 40.4375 274.052 42.2375L269.71 43.7C269.29 42.785 268.66 42.0125 267.82 41.3825C266.98 40.7525 265.945 40.4375 264.715 40.4375C263.485 40.4375 262.465 40.7525 261.655 41.3825C260.86 42.0125 260.462 42.8675 260.462 43.9475C260.462 44.7425 260.702 45.4325 261.182 46.0175C261.677 46.5875 262.367 47.12 263.252 47.615C264.137 48.11 265.195 48.6425 266.425 49.2125C267.415 49.6775 268.435 50.2025 269.485 50.7875C270.535 51.3725 271.51 52.0625 272.41 52.8575C273.31 53.6375 274.03 54.56 274.57 55.625C275.125 56.69 275.402 57.9275 275.402 59.3375C275.402 61.3025 274.945 62.9675 274.03 64.3325C273.115 65.6975 271.892 66.74 270.362 67.46C268.832 68.18 267.152 68.54 265.322 68.54Z" fill="#BD4747"/>
</g>
<defs>
<filter id="filter0_d_3347_487" x="-4" y="7.76345e-09" width="400" height="112" filterUnits="userSpaceOnUse" color-interpolation-filters="sRGB">
<feFlood flood-opacity="0" result="BackgroundImageFix"/>
<feColorMatrix in="SourceAlpha" type="matrix" values="0 0 0 0 0 0 0 0 0 0 0 0 0 0 0 0 0 0 127 0" result="hardAlpha"/>
<feOffset dy="4"/>
<feGaussianBlur stdDeviation="2"/>
<feComposite in2="hardAlpha" operator="out"/>
<feColorMatrix type="matrix" values="0 0 0 0 0 0 0 0 0 0 0 0 0 0 0 0 0 0 0.25 0"/>
<feBlend mode="normal" in2="BackgroundImageFix" result="effect1_dropShadow_3347_487"/>
<feBlend mode="normal" in="SourceGraphic" in2="effect1_dropShadow_3347_487" result="shape"/>
</filter>
</defs>
</svg>
