<svg width="392" height="104" viewBox="0 0 392 104" fill="none" xmlns="http://www.w3.org/2000/svg">
<g id="Frame 60" filter="url(#filter0_d_3347_486)">
<rect x="2.5" y="2.5" width="387" height="99" rx="49.5" stroke="#BD4747" stroke-width="5" shape-rendering="crispEdges"/>
<path id="reserva gr&#195;&#161;tis aqui" d="M127.125 68.495C124.89 68.495 122.993 68.03 121.433 67.1C119.873 66.17 118.613 64.925 117.653 63.365C116.693 61.805 115.988 60.0575 115.538 58.1225C115.103 56.1875 114.885 54.23 114.885 52.25C114.885 50.3 115.11 48.365 115.56 46.445C116.025 44.51 116.745 42.755 117.72 41.18C118.695 39.605 119.955 38.345 121.5 37.4C123.06 36.455 124.935 35.9825 127.125 35.9825C128.835 35.9825 130.305 36.2825 131.535 36.8825C132.765 37.4825 133.785 38.2625 134.595 39.2225C135.405 40.1675 136.028 41.1575 136.463 42.1925L132.188 44.3075C131.603 43.1825 130.928 42.2675 130.163 41.5625C129.398 40.8575 128.385 40.505 127.125 40.505C125.79 40.505 124.658 40.865 123.728 41.585C122.798 42.29 122.048 43.2275 121.478 44.3975C120.908 45.5525 120.495 46.82 120.24 48.2C119.985 49.565 119.858 50.915 119.858 52.25C119.858 53.675 120 55.085 120.285 56.48C120.57 57.875 121.005 59.135 121.59 60.26C122.19 61.385 122.948 62.285 123.862 62.96C124.778 63.635 125.865 63.9725 127.125 63.9725C128.4 63.9725 129.443 63.5975 130.253 62.8475C131.078 62.0975 131.768 61.13 132.323 59.945L136.665 61.5875C136.14 62.8775 135.45 64.0475 134.595 65.0975C133.74 66.1475 132.69 66.98 131.445 67.595C130.215 68.195 128.775 68.495 127.125 68.495ZM154.089 68.54C152.154 68.54 150.399 68.1425 148.824 67.3475C147.249 66.5375 145.989 65.2175 145.044 63.3875C144.114 61.5575 143.649 59.0975 143.649 56.0075L143.649 36.5L148.419 36.5L148.419 56.0075C148.419 58.1075 148.667 59.735 149.162 60.89C149.672 62.045 150.354 62.855 151.209 63.32C152.064 63.785 153.024 64.0175 154.089 64.0175C155.139 64.0175 156.092 63.785 156.947 63.32C157.817 62.855 158.499 62.045 158.994 60.89C159.504 59.735 159.759 58.1075 159.759 56.0075L159.759 36.5L164.574 36.5L164.574 56.0075C164.574 59.0675 164.109 61.5125 163.179 63.3425C162.249 65.1725 160.989 66.5 159.399 67.325C157.809 68.135 156.039 68.54 154.089 68.54ZM171.716 68L171.716 36.5L182.156 36.5C184.721 36.5 186.739 36.9425 188.209 37.8275C189.694 38.7125 190.744 39.8675 191.359 41.2925C191.989 42.7175 192.304 44.225 192.304 45.815C192.304 46.94 192.116 48.05 191.741 49.145C191.381 50.225 190.811 51.2075 190.031 52.0925C189.266 52.9775 188.284 53.6975 187.084 54.2525C185.884 54.8075 184.459 55.13 182.809 55.22L176.531 55.22L176.531 68L171.716 68ZM186.904 68L180.311 54.59L185.419 54.1175L192.236 68L186.904 68ZM176.531 50.7425L182.246 50.7425C183.566 50.7425 184.601 50.51 185.351 50.045C186.116 49.565 186.656 48.9575 186.971 48.2225C187.286 47.4875 187.444 46.7075 187.444 45.8825C187.444 45.1475 187.294 44.405 186.994 43.655C186.694 42.89 186.169 42.2525 185.419 41.7425C184.669 41.2325 183.611 40.9775 182.246 40.9775L176.531 40.9775L176.531 50.7425ZM209.863 68.54C208.183 68.54 206.623 68.2175 205.183 67.5725C203.743 66.9125 202.491 66.0125 201.426 64.8725C200.376 63.7175 199.596 62.3825 199.086 60.8675L203.473 59.2475C204.118 60.6725 205.041 61.8275 206.241 62.7125C207.441 63.5975 208.761 64.04 210.201 64.04C211.656 64.04 212.833 63.6575 213.733 62.8925C214.633 62.1275 215.083 61.0175 215.083 59.5625C215.083 58.6025 214.783 57.755 214.183 57.02C213.583 56.285 212.796 55.6325 211.821 55.0625C210.846 54.4775 209.796 53.93 208.671 53.42C207.666 53 206.661 52.52 205.656 51.98C204.666 51.44 203.751 50.81 202.911 50.09C202.086 49.355 201.418 48.4925 200.908 47.5025C200.398 46.5125 200.143 45.3575 200.143 44.0375C200.143 42.5675 200.518 41.225 201.268 40.01C202.033 38.78 203.113 37.7975 204.508 37.0625C205.918 36.3275 207.583 35.96 209.503 35.96C211.798 35.96 213.756 36.56 215.376 37.76C217.011 38.945 218.083 40.4375 218.593 42.2375L214.251 43.7C213.831 42.785 213.201 42.0125 212.361 41.3825C211.521 40.7525 210.486 40.4375 209.256 40.4375C208.026 40.4375 207.006 40.7525 206.196 41.3825C205.401 42.0125 205.003 42.8675 205.003 43.9475C205.003 44.7425 205.243 45.4325 205.723 46.0175C206.218 46.5875 206.908 47.12 207.793 47.615C208.678 48.11 209.736 48.6425 210.966 49.2125C211.956 49.6775 212.976 50.2025 214.026 50.7875C215.076 51.3725 216.051 52.0625 216.951 52.8575C217.851 53.6375 218.571 54.56 219.111 55.625C219.666 56.69 219.943 57.9275 219.943 59.3375C219.943 61.3025 219.486 62.9675 218.571 64.3325C217.656 65.6975 216.433 66.74 214.903 67.46C213.373 68.18 211.693 68.54 209.863 68.54ZM237.278 68.54C235.223 68.54 233.468 68.09 232.013 67.19C230.558 66.275 229.373 65.045 228.458 63.5C227.543 61.955 226.868 60.215 226.433 58.28C226.013 56.33 225.803 54.32 225.803 52.25C225.803 50.18 226.013 48.1775 226.433 46.2425C226.868 44.2925 227.543 42.545 228.458 41C229.373 39.455 230.558 38.2325 232.013 37.3325C233.468 36.4175 235.223 35.96 237.278 35.96C239.333 35.96 241.088 36.4175 242.543 37.3325C244.013 38.2325 245.205 39.455 246.12 41C247.035 42.545 247.71 44.2925 248.145 46.2425C248.58 48.1775 248.798 50.18 248.798 52.25C248.798 54.32 248.58 56.33 248.145 58.28C247.71 60.215 247.035 61.955 246.12 63.5C245.205 65.045 244.013 66.275 242.543 67.19C241.088 68.09 239.333 68.54 237.278 68.54ZM237.278 64.0175C238.433 64.0175 239.423 63.68 240.248 63.005C241.073 62.33 241.74 61.43 242.25 60.305C242.775 59.18 243.158 57.92 243.398 56.525C243.653 55.115 243.78 53.69 243.78 52.25C243.78 50.69 243.653 49.2125 243.398 47.8175C243.158 46.4075 242.783 45.155 242.273 44.06C241.763 42.95 241.095 42.08 240.27 41.45C239.445 40.805 238.448 40.4825 237.278 40.4825C236.123 40.4825 235.133 40.82 234.308 41.495C233.483 42.155 232.808 43.0475 232.283 44.1725C231.773 45.2975 231.39 46.565 231.135 47.975C230.895 49.37 230.775 50.795 230.775 52.25C230.775 53.795 230.895 55.2725 231.135 56.6825C231.39 58.0775 231.773 59.33 232.283 60.44C232.808 61.55 233.483 62.4275 234.308 63.0725C235.133 63.7025 236.123 64.0175 237.278 64.0175ZM265.322 68.54C263.642 68.54 262.082 68.2175 260.642 67.5725C259.202 66.9125 257.95 66.0125 256.885 64.8725C255.835 63.7175 255.055 62.3825 254.545 60.8675L258.932 59.2475C259.577 60.6725 260.5 61.8275 261.7 62.7125C262.9 63.5975 264.22 64.04 265.66 64.04C267.115 64.04 268.292 63.6575 269.192 62.8925C270.092 62.1275 270.542 61.0175 270.542 59.5625C270.542 58.6025 270.242 57.755 269.642 57.02C269.042 56.285 268.255 55.6325 267.28 55.0625C266.305 54.4775 265.255 53.93 264.13 53.42C263.125 53 262.12 52.52 261.115 51.98C260.125 51.44 259.21 50.81 258.37 50.09C257.545 49.355 256.877 48.4925 256.367 47.5025C255.857 46.5125 255.602 45.3575 255.602 44.0375C255.602 42.5675 255.977 41.225 256.727 40.01C257.492 38.78 258.572 37.7975 259.967 37.0625C261.377 36.3275 263.042 35.96 264.962 35.96C267.257 35.96 269.215 36.56 270.835 37.76C272.47 38.945 273.542 40.4375 274.052 42.2375L269.71 43.7C269.29 42.785 268.66 42.0125 267.82 41.3825C266.98 40.7525 265.945 40.4375 264.715 40.4375C263.485 40.4375 262.465 40.7525 261.655 41.3825C260.86 42.0125 260.462 42.8675 260.462 43.9475C260.462 44.7425 260.702 45.4325 261.182 46.0175C261.677 46.5875 262.367 47.12 263.252 47.615C264.137 48.11 265.195 48.6425 266.425 49.2125C267.415 49.6775 268.435 50.2025 269.485 50.7875C270.535 51.3725 271.51 52.0625 272.41 52.8575C273.31 53.6375 274.03 54.56 274.57 55.625C275.125 56.69 275.402 57.9275 275.402 59.3375C275.402 61.3025 274.945 62.9675 274.03 64.3325C273.115 65.6975 271.892 66.74 270.362 67.46C268.832 68.18 267.152 68.54 265.322 68.54Z" fill="#BD4747"/>
</g>
<defs>
<filter id="filter0_d_3347_486" x="-4" y="7.76345e-09" width="400" height="112" filterUnits="userSpaceOnUse" color-interpolation-filters="sRGB">
<feFlood flood-opacity="0" result="BackgroundImageFix"/>
<feColorMatrix in="SourceAlpha" type="matrix" values="0 0 0 0 0 0 0 0 0 0 0 0 0 0 0 0 0 0 127 0" result="hardAlpha"/>
<feOffset dy="4"/>
<feGaussianBlur stdDeviation="2"/>
<feComposite in2="hardAlpha" operator="out"/>
<feColorMatrix type="matrix" values="0 0 0 0 0 0 0 0 0 0 0 0 0 0 0 0 0 0 0.25 0"/>
<feBlend mode="normal" in2="BackgroundImageFix" result="effect1_dropShadow_3347_486"/>
<feBlend mode="normal" in="SourceGraphic" in2="effect1_dropShadow_3347_486" result="shape"/>
</filter>
</defs>
</svg>
