<svg width="456" height="423" viewBox="0 0 456 423" fill="none" xmlns="http://www.w3.org/2000/svg">
<g id="Group 378">
<g id="Group 33">
<rect id="Rectangle 4" x="114" width="227" height="227" rx="113.5" fill="#BD4747"/>
<g id="Group 16">
<path id="Jo&#195;&#163;o Silva" d="M120.867 420.448C119.988 420.448 119.219 420.397 118.56 420.294C117.886 420.207 117.314 420.097 116.846 419.965V414.296C117.314 414.398 117.82 414.494 118.362 414.582C118.889 414.684 119.453 414.735 120.054 414.735C120.845 414.735 121.555 414.582 122.185 414.274C122.815 413.981 123.313 413.417 123.679 412.582C124.045 411.747 124.229 410.546 124.229 408.979V378.876H131.04V408.935C131.04 411.688 130.608 413.908 129.744 415.592C128.894 417.292 127.7 418.522 126.162 419.284C124.639 420.06 122.874 420.448 120.867 420.448ZM160.923 398.673C160.923 400.724 160.645 402.541 160.088 404.123C159.546 405.705 158.748 407.045 157.693 408.144C156.653 409.228 155.393 410.048 153.914 410.604C152.449 411.161 150.793 411.439 148.948 411.439C147.219 411.439 145.63 411.161 144.18 410.604C142.744 410.048 141.492 409.228 140.422 408.144C139.368 407.045 138.547 405.705 137.961 404.123C137.39 402.541 137.104 400.724 137.104 398.673C137.104 395.949 137.588 393.642 138.555 391.752C139.521 389.862 140.898 388.427 142.686 387.445C144.473 386.464 146.604 385.973 149.08 385.973C151.379 385.973 153.416 386.464 155.188 387.445C156.975 388.427 158.374 389.862 159.385 391.752C160.41 393.642 160.923 395.949 160.923 398.673ZM143.938 398.673C143.938 400.285 144.114 401.64 144.465 402.738C144.817 403.837 145.366 404.665 146.113 405.221C146.86 405.778 147.834 406.056 149.036 406.056C150.222 406.056 151.182 405.778 151.914 405.221C152.661 404.665 153.203 403.837 153.54 402.738C153.892 401.64 154.067 400.285 154.067 398.673C154.067 397.047 153.892 395.7 153.54 394.63C153.203 393.546 152.661 392.733 151.914 392.191C151.167 391.649 150.193 391.378 148.992 391.378C147.219 391.378 145.93 391.986 145.125 393.202C144.333 394.418 143.938 396.242 143.938 398.673ZM176.523 385.929C179.819 385.929 182.346 386.647 184.104 388.083C185.862 389.518 186.741 391.701 186.741 394.63V411H182.061L180.764 407.66H180.588C179.885 408.539 179.167 409.257 178.435 409.813C177.703 410.37 176.86 410.78 175.908 411.044C174.956 411.308 173.799 411.439 172.437 411.439C170.986 411.439 169.683 411.161 168.525 410.604C167.383 410.048 166.482 409.198 165.823 408.056C165.164 406.898 164.834 405.434 164.834 403.661C164.834 401.054 165.75 399.135 167.581 397.904C169.412 396.659 172.158 395.971 175.82 395.839L180.083 395.707V394.63C180.083 393.341 179.746 392.396 179.072 391.796C178.398 391.195 177.461 390.895 176.26 390.895C175.073 390.895 173.909 391.063 172.766 391.4C171.624 391.737 170.481 392.162 169.338 392.675L167.119 388.148C168.423 387.46 169.88 386.918 171.492 386.522C173.118 386.127 174.795 385.929 176.523 385.929ZM180.083 399.618L177.49 399.706C175.322 399.765 173.813 400.153 172.964 400.871C172.129 401.588 171.711 402.533 171.711 403.705C171.711 404.73 172.012 405.463 172.612 405.902C173.213 406.327 173.997 406.54 174.963 406.54C176.399 406.54 177.607 406.115 178.589 405.265C179.585 404.416 180.083 403.207 180.083 401.64V399.618ZM167.405 383.776C167.493 382.604 167.705 381.593 168.042 380.744C168.379 379.879 168.818 379.176 169.36 378.634C169.902 378.078 170.51 377.667 171.184 377.404C171.873 377.125 172.605 376.986 173.381 376.986C173.982 376.986 174.568 377.104 175.139 377.338C175.725 377.558 176.296 377.821 176.853 378.129C177.424 378.437 177.981 378.708 178.523 378.942C179.08 379.162 179.622 379.271 180.149 379.271C180.588 379.271 181.013 379.081 181.423 378.7C181.848 378.305 182.156 377.719 182.346 376.942H185.62C185.444 379.257 184.785 380.971 183.643 382.084C182.5 383.183 181.167 383.732 179.644 383.732C179.043 383.732 178.45 383.615 177.864 383.38C177.292 383.146 176.721 382.882 176.15 382.589C175.593 382.282 175.044 382.011 174.502 381.776C173.96 381.542 173.425 381.425 172.898 381.425C172.444 381.425 172.004 381.623 171.58 382.018C171.169 382.399 170.869 382.985 170.679 383.776H167.405ZM215.986 398.673C215.986 400.724 215.708 402.541 215.151 404.123C214.609 405.705 213.811 407.045 212.756 408.144C211.716 409.228 210.457 410.048 208.977 410.604C207.512 411.161 205.857 411.439 204.011 411.439C202.283 411.439 200.693 411.161 199.243 410.604C197.808 410.048 196.555 409.228 195.486 408.144C194.431 407.045 193.611 405.705 193.025 404.123C192.454 402.541 192.168 400.724 192.168 398.673C192.168 395.949 192.651 393.642 193.618 391.752C194.585 389.862 195.962 388.427 197.749 387.445C199.536 386.464 201.667 385.973 204.143 385.973C206.443 385.973 208.479 386.464 210.251 387.445C212.039 388.427 213.438 389.862 214.448 391.752C215.474 393.642 215.986 395.949 215.986 398.673ZM199.001 398.673C199.001 400.285 199.177 401.64 199.529 402.738C199.88 403.837 200.43 404.665 201.177 405.221C201.924 405.778 202.898 406.056 204.099 406.056C205.286 406.056 206.245 405.778 206.978 405.221C207.725 404.665 208.267 403.837 208.604 402.738C208.955 401.64 209.131 400.285 209.131 398.673C209.131 397.047 208.955 395.7 208.604 394.63C208.267 393.546 207.725 392.733 206.978 392.191C206.23 391.649 205.256 391.378 204.055 391.378C202.283 391.378 200.994 391.986 200.188 393.202C199.397 394.418 199.001 396.242 199.001 398.673ZM252.703 402.079C252.703 403.983 252.241 405.639 251.318 407.045C250.396 408.451 249.048 409.535 247.275 410.297C245.518 411.059 243.379 411.439 240.859 411.439C239.746 411.439 238.655 411.366 237.585 411.22C236.531 411.073 235.513 410.861 234.531 410.583C233.564 410.29 232.642 409.931 231.763 409.506V403.178C233.286 403.852 234.868 404.459 236.509 405.001C238.149 405.543 239.775 405.814 241.387 405.814C242.5 405.814 243.394 405.668 244.067 405.375C244.756 405.082 245.254 404.679 245.562 404.167C245.869 403.654 246.023 403.068 246.023 402.409C246.023 401.603 245.752 400.915 245.21 400.343C244.668 399.772 243.921 399.237 242.969 398.739C242.031 398.241 240.969 397.707 239.783 397.135C239.036 396.784 238.223 396.359 237.344 395.861C236.465 395.348 235.63 394.726 234.839 393.993C234.048 393.261 233.396 392.375 232.883 391.334C232.385 390.28 232.136 389.02 232.136 387.555C232.136 385.636 232.576 383.996 233.455 382.633C234.333 381.271 235.586 380.231 237.212 379.513C238.853 378.781 240.786 378.415 243.013 378.415C244.683 378.415 246.272 378.612 247.781 379.008C249.304 379.389 250.894 379.945 252.549 380.678L250.352 385.973C248.872 385.373 247.546 384.911 246.375 384.589C245.203 384.252 244.009 384.083 242.793 384.083C241.943 384.083 241.218 384.223 240.618 384.501C240.017 384.765 239.563 385.146 239.255 385.644C238.948 386.127 238.794 386.691 238.794 387.335C238.794 388.097 239.014 388.742 239.453 389.269C239.907 389.782 240.581 390.28 241.475 390.763C242.383 391.247 243.511 391.811 244.858 392.455C246.499 393.231 247.898 394.044 249.055 394.894C250.227 395.729 251.128 396.718 251.758 397.86C252.388 398.988 252.703 400.395 252.703 402.079ZM264.7 386.435V411H257.998V386.435H264.7ZM261.36 376.811C262.356 376.811 263.213 377.045 263.931 377.514C264.648 377.968 265.007 378.825 265.007 380.084C265.007 381.33 264.648 382.194 263.931 382.677C263.213 383.146 262.356 383.38 261.36 383.38C260.349 383.38 259.485 383.146 258.767 382.677C258.064 382.194 257.712 381.33 257.712 380.084C257.712 378.825 258.064 377.968 258.767 377.514C259.485 377.045 260.349 376.811 261.36 376.811ZM278.455 411H271.753V376.811H278.455V411ZM291.353 411L281.992 386.435H289.001L293.748 400.431C294.011 401.251 294.216 402.116 294.363 403.024C294.524 403.932 294.634 404.745 294.692 405.463H294.868C294.912 404.687 295.015 403.859 295.176 402.98C295.352 402.101 295.579 401.251 295.857 400.431L300.581 386.435H307.59L298.23 411H291.353ZM321.191 385.929C324.487 385.929 327.014 386.647 328.772 388.083C330.53 389.518 331.409 391.701 331.409 394.63V411H326.729L325.432 407.66H325.256C324.553 408.539 323.835 409.257 323.103 409.813C322.371 410.37 321.528 410.78 320.576 411.044C319.624 411.308 318.467 411.439 317.104 411.439C315.654 411.439 314.351 411.161 313.193 410.604C312.051 410.048 311.15 409.198 310.491 408.056C309.832 406.898 309.502 405.434 309.502 403.661C309.502 401.054 310.417 399.135 312.249 397.904C314.08 396.659 316.826 395.971 320.488 395.839L324.751 395.707V394.63C324.751 393.341 324.414 392.396 323.74 391.796C323.066 391.195 322.129 390.895 320.928 390.895C319.741 390.895 318.577 391.063 317.434 391.4C316.292 391.737 315.149 392.162 314.006 392.675L311.787 388.148C313.091 387.46 314.548 386.918 316.16 386.522C317.786 386.127 319.463 385.929 321.191 385.929ZM324.751 399.618L322.158 399.706C319.99 399.765 318.481 400.153 317.632 400.871C316.797 401.588 316.379 402.533 316.379 403.705C316.379 404.73 316.68 405.463 317.28 405.902C317.881 406.327 318.665 406.54 319.631 406.54C321.067 406.54 322.275 406.115 323.257 405.265C324.253 404.416 324.751 403.207 324.751 401.64V399.618Z" fill="black"/>
<path id="&#226;&#128;&#156;Transformou a forma como vivo as minhas rela&#195;&#167;&#195;&#181;es&#226;&#128;&#157;" d="M7.28 266.03C7.11667 266.03 6.98833 265.972 6.895 265.855C6.80167 265.738 6.755 265.61 6.755 265.47C6.755 265.26 6.80167 265.05 6.895 264.84L8.4 260.885C8.51667 260.652 8.63333 260.477 8.75 260.36C8.86667 260.22 9.05333 260.15 9.31 260.15H9.905C10.0917 260.15 10.2317 260.22 10.325 260.36C10.4183 260.5 10.4417 260.675 10.395 260.885L9.73 265.085C9.70667 265.365 9.625 265.598 9.485 265.785C9.345 265.948 9.135 266.03 8.855 266.03H7.28ZM2.59 266.03C2.42667 266.03 2.29833 265.972 2.205 265.855C2.11167 265.738 2.065 265.61 2.065 265.47C2.065 265.26 2.11167 265.05 2.205 264.84L3.71 260.885C3.82667 260.652 3.94333 260.477 4.06 260.36C4.17667 260.22 4.36333 260.15 4.62 260.15H5.215C5.40167 260.15 5.54167 260.22 5.635 260.36C5.72833 260.5 5.75167 260.675 5.705 260.885L5.04 265.085C5.01667 265.365 4.935 265.598 4.795 265.785C4.655 265.948 4.445 266.03 4.165 266.03H2.59ZM21.8222 285C21.5889 285 21.4022 284.93 21.2622 284.79C21.1222 284.65 21.0522 284.463 21.0522 284.23V262.6H14.1222C13.8889 262.6 13.7022 262.53 13.5622 262.39C13.4222 262.25 13.3522 262.063 13.3522 261.83V261.305C13.3522 261.048 13.4222 260.85 13.5622 260.71C13.7022 260.57 13.8889 260.5 14.1222 260.5H30.1522C30.4089 260.5 30.6072 260.57 30.7472 260.71C30.8872 260.85 30.9572 261.048 30.9572 261.305V261.83C30.9572 262.063 30.8872 262.25 30.7472 262.39C30.6072 262.53 30.4089 262.6 30.1522 262.6H23.2572V284.23C23.2572 284.463 23.1872 284.65 23.0472 284.79C22.9072 284.93 22.7089 285 22.4522 285H21.8222ZM32.2134 285C31.9801 285 31.7934 284.93 31.6534 284.79C31.5134 284.65 31.4434 284.463 31.4434 284.23V267.605C31.4434 267.372 31.5134 267.185 31.6534 267.045C31.7934 266.882 31.9801 266.8 32.2134 266.8H32.7734C33.0067 266.8 33.1934 266.882 33.3334 267.045C33.4967 267.185 33.5784 267.372 33.5784 267.605V269.215C33.9984 268.398 34.6051 267.792 35.3984 267.395C36.1917 266.998 37.1717 266.8 38.3384 266.8H39.6334C39.8667 266.8 40.0534 266.87 40.1934 267.01C40.3334 267.15 40.4034 267.337 40.4034 267.57V268.06C40.4034 268.293 40.3334 268.48 40.1934 268.62C40.0534 268.76 39.8667 268.83 39.6334 268.83H38.1284C36.7284 268.83 35.6201 269.238 34.8034 270.055C33.9867 270.872 33.5784 271.98 33.5784 273.38V284.23C33.5784 284.463 33.4967 284.65 33.3334 284.79C33.1934 284.93 33.0067 285 32.7734 285H32.2134ZM48.2379 285.35C47.1179 285.35 46.0796 285.117 45.1229 284.65C44.1896 284.183 43.4313 283.565 42.8479 282.795C42.2646 282.002 41.9729 281.115 41.9729 280.135C41.9729 278.548 42.6146 277.277 43.8979 276.32C45.1813 275.363 46.8496 274.745 48.9029 274.465L54.4329 273.695V272.47C54.4329 271.233 54.0479 270.265 53.2779 269.565C52.5313 268.842 51.3296 268.48 49.6729 268.48C48.4596 268.48 47.4796 268.725 46.7329 269.215C45.9863 269.682 45.4729 270.3 45.1929 271.07C45.0763 271.42 44.8546 271.595 44.5279 271.595H43.9679C43.6879 271.595 43.4896 271.525 43.3729 271.385C43.2563 271.222 43.1979 271.035 43.1979 270.825C43.1979 270.498 43.3146 270.09 43.5479 269.6C43.8046 269.11 44.1896 268.632 44.7029 268.165C45.2163 267.675 45.8813 267.267 46.6979 266.94C47.5146 266.613 48.5063 266.45 49.6729 266.45C51.0496 266.45 52.1813 266.637 53.0679 267.01C53.9779 267.383 54.6779 267.873 55.1679 268.48C55.6813 269.063 56.0429 269.717 56.2529 270.44C56.4629 271.163 56.5679 271.875 56.5679 272.575V284.23C56.5679 284.463 56.4979 284.65 56.3579 284.79C56.2179 284.93 56.0313 285 55.7979 285H55.2029C54.9696 285 54.7829 284.93 54.6429 284.79C54.5029 284.65 54.4329 284.463 54.4329 284.23V282.585C54.1529 283.005 53.7563 283.425 53.2429 283.845C52.7296 284.265 52.0646 284.627 51.2479 284.93C50.4546 285.21 49.4513 285.35 48.2379 285.35ZM48.5879 283.32C49.6613 283.32 50.6413 283.087 51.5279 282.62C52.4146 282.153 53.1146 281.442 53.6279 280.485C54.1646 279.505 54.4329 278.28 54.4329 276.81V275.62L49.9179 276.25C48.0046 276.507 46.5579 276.95 45.5779 277.58C44.5979 278.21 44.1079 279.003 44.1079 279.96C44.1079 280.73 44.3296 281.36 44.7729 281.85C45.2163 282.34 45.7763 282.713 46.4529 282.97C47.1529 283.203 47.8646 283.32 48.5879 283.32ZM62.8726 285C62.6392 285 62.4526 284.93 62.3126 284.79C62.1726 284.65 62.1026 284.463 62.1026 284.23V267.57C62.1026 267.337 62.1726 267.15 62.3126 267.01C62.4526 266.87 62.6392 266.8 62.8726 266.8H63.4676C63.7009 266.8 63.8876 266.87 64.0276 267.01C64.1676 267.15 64.2376 267.337 64.2376 267.57V269.215C64.8676 268.398 65.6259 267.733 66.5126 267.22C67.4226 266.707 68.6242 266.45 70.1176 266.45C71.7042 266.45 73.0226 266.8 74.0726 267.5C75.1459 268.177 75.9392 269.11 76.4526 270.3C76.9892 271.467 77.2576 272.797 77.2576 274.29V284.23C77.2576 284.463 77.1876 284.65 77.0476 284.79C76.9076 284.93 76.7209 285 76.4876 285H75.8926C75.6592 285 75.4726 284.93 75.3326 284.79C75.1926 284.65 75.1226 284.463 75.1226 284.23V274.465C75.1226 272.598 74.6676 271.14 73.7576 270.09C72.8476 269.017 71.5176 268.48 69.7676 268.48C68.1109 268.48 66.7692 269.017 65.7426 270.09C64.7392 271.14 64.2376 272.598 64.2376 274.465V284.23C64.2376 284.463 64.1676 284.65 64.0276 284.79C63.8876 284.93 63.7009 285 63.4676 285H62.8726ZM88.5221 285.35C87.3088 285.35 86.2588 285.187 85.3721 284.86C84.5088 284.533 83.7971 284.148 83.2371 283.705C82.6771 283.238 82.2571 282.783 81.9771 282.34C81.7204 281.897 81.5804 281.558 81.5571 281.325C81.5338 281.068 81.6154 280.882 81.8021 280.765C81.9888 280.625 82.1638 280.555 82.3271 280.555H82.8521C82.9921 280.555 83.1088 280.578 83.2021 280.625C83.3188 280.672 83.4588 280.8 83.6221 281.01C83.9254 281.407 84.2754 281.792 84.6721 282.165C85.0688 282.515 85.5704 282.795 86.1771 283.005C86.8071 283.215 87.5888 283.32 88.5221 283.32C89.9221 283.32 91.0771 283.052 91.9871 282.515C92.8971 281.978 93.3521 281.185 93.3521 280.135C93.3521 279.482 93.1654 278.957 92.7921 278.56C92.4421 278.163 91.8354 277.813 90.9721 277.51C90.1088 277.207 88.9421 276.892 87.4721 276.565C86.0021 276.215 84.8704 275.795 84.0771 275.305C83.3071 274.815 82.7821 274.255 82.5021 273.625C82.2221 272.972 82.0821 272.272 82.0821 271.525C82.0821 270.708 82.3154 269.915 82.7821 269.145C83.2488 268.352 83.9371 267.71 84.8471 267.22C85.7804 266.707 86.9471 266.45 88.3471 266.45C89.4904 266.45 90.4588 266.602 91.2521 266.905C92.0688 267.208 92.7338 267.582 93.2471 268.025C93.7604 268.445 94.1338 268.865 94.3671 269.285C94.6238 269.705 94.7638 270.043 94.7871 270.3C94.8104 270.533 94.7404 270.72 94.5771 270.86C94.4138 271 94.2271 271.07 94.0171 271.07H93.4921C93.3054 271.07 93.1538 271.035 93.0371 270.965C92.9204 270.872 92.8154 270.755 92.7221 270.615C92.4888 270.242 92.2088 269.892 91.8821 269.565C91.5554 269.238 91.1121 268.982 90.5521 268.795C90.0154 268.585 89.2804 268.48 88.3471 268.48C86.9471 268.48 85.9088 268.772 85.2321 269.355C84.5554 269.915 84.2171 270.638 84.2171 271.525C84.2171 272.038 84.3571 272.493 84.6371 272.89C84.9171 273.263 85.4421 273.613 86.2121 273.94C86.9821 274.243 88.1021 274.57 89.5721 274.92C91.0654 275.247 92.2438 275.655 93.1071 276.145C93.9704 276.612 94.5771 277.172 94.9271 277.825C95.3004 278.478 95.4871 279.248 95.4871 280.135C95.4871 281.068 95.2188 281.932 94.6821 282.725C94.1688 283.518 93.3871 284.16 92.3371 284.65C91.3104 285.117 90.0388 285.35 88.5221 285.35ZM102.459 285C102.225 285 102.039 284.93 101.899 284.79C101.759 284.65 101.689 284.463 101.689 284.23V268.83H98.5737C98.3403 268.83 98.1537 268.76 98.0137 268.62C97.8737 268.48 97.8037 268.293 97.8037 268.06V267.57C97.8037 267.337 97.8737 267.15 98.0137 267.01C98.1537 266.87 98.3403 266.8 98.5737 266.8H101.689V264.805C101.689 263.755 101.829 262.798 102.109 261.935C102.412 261.072 102.937 260.383 103.684 259.87C104.454 259.357 105.55 259.1 106.974 259.1H108.794C109.027 259.1 109.214 259.17 109.354 259.31C109.494 259.45 109.564 259.637 109.564 259.87V260.36C109.564 260.593 109.494 260.78 109.354 260.92C109.214 261.06 109.027 261.13 108.794 261.13H106.974C105.737 261.13 104.897 261.468 104.454 262.145C104.034 262.798 103.824 263.743 103.824 264.98V266.8H108.444C108.677 266.8 108.864 266.87 109.004 267.01C109.144 267.15 109.214 267.337 109.214 267.57V268.06C109.214 268.293 109.144 268.48 109.004 268.62C108.864 268.76 108.677 268.83 108.444 268.83H103.824V284.23C103.824 284.463 103.754 284.65 103.614 284.79C103.474 284.93 103.287 285 103.054 285H102.459ZM119.14 285.35C117.46 285.35 116.048 285 114.905 284.3C113.785 283.6 112.922 282.643 112.315 281.43C111.732 280.217 111.417 278.863 111.37 277.37C111.347 277.02 111.335 276.53 111.335 275.9C111.335 275.27 111.347 274.78 111.37 274.43C111.417 272.913 111.732 271.56 112.315 270.37C112.922 269.157 113.785 268.2 114.905 267.5C116.048 266.8 117.46 266.45 119.14 266.45C120.82 266.45 122.22 266.8 123.34 267.5C124.483 268.2 125.347 269.157 125.93 270.37C126.537 271.56 126.863 272.913 126.91 274.43C126.933 274.78 126.945 275.27 126.945 275.9C126.945 276.53 126.933 277.02 126.91 277.37C126.863 278.863 126.537 280.217 125.93 281.43C125.347 282.643 124.483 283.6 123.34 284.3C122.22 285 120.82 285.35 119.14 285.35ZM119.14 283.32C120.773 283.32 122.103 282.795 123.13 281.745C124.157 280.695 124.705 279.178 124.775 277.195C124.798 276.845 124.81 276.413 124.81 275.9C124.81 275.387 124.798 274.955 124.775 274.605C124.705 272.598 124.157 271.082 123.13 270.055C122.103 269.005 120.773 268.48 119.14 268.48C117.507 268.48 116.177 269.005 115.15 270.055C114.123 271.082 113.575 272.598 113.505 274.605C113.482 274.955 113.47 275.387 113.47 275.9C113.47 276.413 113.482 276.845 113.505 277.195C113.575 279.178 114.123 280.695 115.15 281.745C116.177 282.795 117.507 283.32 119.14 283.32ZM132.497 285C132.263 285 132.077 284.93 131.937 284.79C131.797 284.65 131.727 284.463 131.727 284.23V267.605C131.727 267.372 131.797 267.185 131.937 267.045C132.077 266.882 132.263 266.8 132.497 266.8H133.057C133.29 266.8 133.477 266.882 133.617 267.045C133.78 267.185 133.862 267.372 133.862 267.605V269.215C134.282 268.398 134.888 267.792 135.682 267.395C136.475 266.998 137.455 266.8 138.622 266.8H139.917C140.15 266.8 140.337 266.87 140.477 267.01C140.617 267.15 140.687 267.337 140.687 267.57V268.06C140.687 268.293 140.617 268.48 140.477 268.62C140.337 268.76 140.15 268.83 139.917 268.83H138.412C137.012 268.83 135.903 269.238 135.087 270.055C134.27 270.872 133.862 271.98 133.862 273.38V284.23C133.862 284.463 133.78 284.65 133.617 284.79C133.477 284.93 133.29 285 133.057 285H132.497ZM144.665 285C144.431 285 144.245 284.93 144.105 284.79C143.965 284.65 143.895 284.463 143.895 284.23V267.57C143.895 267.337 143.965 267.15 144.105 267.01C144.245 266.87 144.431 266.8 144.665 266.8H145.26C145.493 266.8 145.68 266.87 145.82 267.01C145.96 267.15 146.03 267.337 146.03 267.57V268.795C146.613 268.048 147.301 267.477 148.095 267.08C148.911 266.66 149.891 266.45 151.035 266.45C153.648 266.45 155.515 267.547 156.635 269.74C157.171 268.737 157.953 267.943 158.98 267.36C160.03 266.753 161.231 266.45 162.585 266.45C163.821 266.45 164.93 266.742 165.91 267.325C166.913 267.885 167.695 268.725 168.255 269.845C168.838 270.965 169.13 272.365 169.13 274.045V284.23C169.13 284.463 169.06 284.65 168.92 284.79C168.78 284.93 168.593 285 168.36 285H167.765C167.531 285 167.345 284.93 167.205 284.79C167.065 284.65 166.995 284.463 166.995 284.23V274.395C166.995 272.855 166.773 271.665 166.33 270.825C165.886 269.962 165.303 269.355 164.58 269.005C163.856 268.655 163.075 268.48 162.235 268.48C161.535 268.48 160.823 268.655 160.1 269.005C159.376 269.355 158.77 269.962 158.28 270.825C157.813 271.665 157.58 272.855 157.58 274.395V284.23C157.58 284.463 157.51 284.65 157.37 284.79C157.23 284.93 157.043 285 156.81 285H156.215C155.981 285 155.795 284.93 155.655 284.79C155.515 284.65 155.445 284.463 155.445 284.23V274.395C155.445 272.855 155.211 271.665 154.745 270.825C154.278 269.962 153.683 269.355 152.96 269.005C152.236 268.655 151.478 268.48 150.685 268.48C149.985 268.48 149.273 268.655 148.55 269.005C147.826 269.355 147.22 269.962 146.73 270.825C146.263 271.665 146.03 272.843 146.03 274.36V284.23C146.03 284.463 145.96 284.65 145.82 284.79C145.68 284.93 145.493 285 145.26 285H144.665ZM181.552 285.35C179.872 285.35 178.46 285 177.317 284.3C176.197 283.6 175.334 282.643 174.727 281.43C174.144 280.217 173.829 278.863 173.782 277.37C173.759 277.02 173.747 276.53 173.747 275.9C173.747 275.27 173.759 274.78 173.782 274.43C173.829 272.913 174.144 271.56 174.727 270.37C175.334 269.157 176.197 268.2 177.317 267.5C178.46 266.8 179.872 266.45 181.552 266.45C183.232 266.45 184.632 266.8 185.752 267.5C186.895 268.2 187.759 269.157 188.342 270.37C188.949 271.56 189.275 272.913 189.322 274.43C189.345 274.78 189.357 275.27 189.357 275.9C189.357 276.53 189.345 277.02 189.322 277.37C189.275 278.863 188.949 280.217 188.342 281.43C187.759 282.643 186.895 283.6 185.752 284.3C184.632 285 183.232 285.35 181.552 285.35ZM181.552 283.32C183.185 283.32 184.515 282.795 185.542 281.745C186.569 280.695 187.117 279.178 187.187 277.195C187.21 276.845 187.222 276.413 187.222 275.9C187.222 275.387 187.21 274.955 187.187 274.605C187.117 272.598 186.569 271.082 185.542 270.055C184.515 269.005 183.185 268.48 181.552 268.48C179.919 268.48 178.589 269.005 177.562 270.055C176.535 271.082 175.987 272.598 175.917 274.605C175.894 274.955 175.882 275.387 175.882 275.9C175.882 276.413 175.894 276.845 175.917 277.195C175.987 279.178 176.535 280.695 177.562 281.745C178.589 282.795 179.919 283.32 181.552 283.32ZM200.964 285.35C199.377 285.35 198.059 285.012 197.009 284.335C195.982 283.635 195.212 282.69 194.699 281.5C194.209 280.31 193.964 278.98 193.964 277.51V267.57C193.964 267.337 194.034 267.15 194.174 267.01C194.314 266.87 194.5 266.8 194.734 266.8H195.329C195.562 266.8 195.749 266.87 195.889 267.01C196.029 267.15 196.099 267.337 196.099 267.57V277.335C196.099 281.325 197.837 283.32 201.314 283.32C202.97 283.32 204.3 282.795 205.304 281.745C206.307 280.672 206.809 279.202 206.809 277.335V267.57C206.809 267.337 206.879 267.15 207.019 267.01C207.159 266.87 207.345 266.8 207.579 266.8H208.174C208.407 266.8 208.594 266.87 208.734 267.01C208.874 267.15 208.944 267.337 208.944 267.57V284.23C208.944 284.463 208.874 284.65 208.734 284.79C208.594 284.93 208.407 285 208.174 285H207.579C207.345 285 207.159 284.93 207.019 284.79C206.879 284.65 206.809 284.463 206.809 284.23V282.585C206.179 283.402 205.42 284.067 204.534 284.58C203.67 285.093 202.48 285.35 200.964 285.35ZM228.536 285.35C227.416 285.35 226.377 285.117 225.421 284.65C224.487 284.183 223.729 283.565 223.146 282.795C222.562 282.002 222.271 281.115 222.271 280.135C222.271 278.548 222.912 277.277 224.196 276.32C225.479 275.363 227.147 274.745 229.201 274.465L234.731 273.695V272.47C234.731 271.233 234.346 270.265 233.576 269.565C232.829 268.842 231.627 268.48 229.971 268.48C228.757 268.48 227.777 268.725 227.031 269.215C226.284 269.682 225.771 270.3 225.491 271.07C225.374 271.42 225.152 271.595 224.826 271.595H224.266C223.986 271.595 223.787 271.525 223.671 271.385C223.554 271.222 223.496 271.035 223.496 270.825C223.496 270.498 223.612 270.09 223.846 269.6C224.102 269.11 224.487 268.632 225.001 268.165C225.514 267.675 226.179 267.267 226.996 266.94C227.812 266.613 228.804 266.45 229.971 266.45C231.347 266.45 232.479 266.637 233.366 267.01C234.276 267.383 234.976 267.873 235.466 268.48C235.979 269.063 236.341 269.717 236.551 270.44C236.761 271.163 236.866 271.875 236.866 272.575V284.23C236.866 284.463 236.796 284.65 236.656 284.79C236.516 284.93 236.329 285 236.096 285H235.501C235.267 285 235.081 284.93 234.941 284.79C234.801 284.65 234.731 284.463 234.731 284.23V282.585C234.451 283.005 234.054 283.425 233.541 283.845C233.027 284.265 232.362 284.627 231.546 284.93C230.752 285.21 229.749 285.35 228.536 285.35ZM228.886 283.32C229.959 283.32 230.939 283.087 231.826 282.62C232.712 282.153 233.412 281.442 233.926 280.485C234.462 279.505 234.731 278.28 234.731 276.81V275.62L230.216 276.25C228.302 276.507 226.856 276.95 225.876 277.58C224.896 278.21 224.406 279.003 224.406 279.96C224.406 280.73 224.627 281.36 225.071 281.85C225.514 282.34 226.074 282.713 226.751 282.97C227.451 283.203 228.162 283.32 228.886 283.32ZM253.225 285C252.992 285 252.805 284.93 252.665 284.79C252.525 284.65 252.455 284.463 252.455 284.23V268.83H249.34C249.107 268.83 248.92 268.76 248.78 268.62C248.64 268.48 248.57 268.293 248.57 268.06V267.57C248.57 267.337 248.64 267.15 248.78 267.01C248.92 266.87 249.107 266.8 249.34 266.8H252.455V264.805C252.455 263.755 252.595 262.798 252.875 261.935C253.179 261.072 253.704 260.383 254.45 259.87C255.22 259.357 256.317 259.1 257.74 259.1H259.56C259.794 259.1 259.98 259.17 260.12 259.31C260.26 259.45 260.33 259.637 260.33 259.87V260.36C260.33 260.593 260.26 260.78 260.12 260.92C259.98 261.06 259.794 261.13 259.56 261.13H257.74C256.504 261.13 255.664 261.468 255.22 262.145C254.8 262.798 254.59 263.743 254.59 264.98V266.8H259.21C259.444 266.8 259.63 266.87 259.77 267.01C259.91 267.15 259.98 267.337 259.98 267.57V268.06C259.98 268.293 259.91 268.48 259.77 268.62C259.63 268.76 259.444 268.83 259.21 268.83H254.59V284.23C254.59 284.463 254.52 284.65 254.38 284.79C254.24 284.93 254.054 285 253.82 285H253.225ZM269.907 285.35C268.227 285.35 266.815 285 265.672 284.3C264.552 283.6 263.688 282.643 263.082 281.43C262.498 280.217 262.183 278.863 262.137 277.37C262.113 277.02 262.102 276.53 262.102 275.9C262.102 275.27 262.113 274.78 262.137 274.43C262.183 272.913 262.498 271.56 263.082 270.37C263.688 269.157 264.552 268.2 265.672 267.5C266.815 266.8 268.227 266.45 269.907 266.45C271.587 266.45 272.987 266.8 274.107 267.5C275.25 268.2 276.113 269.157 276.697 270.37C277.303 271.56 277.63 272.913 277.677 274.43C277.7 274.78 277.712 275.27 277.712 275.9C277.712 276.53 277.7 277.02 277.677 277.37C277.63 278.863 277.303 280.217 276.697 281.43C276.113 282.643 275.25 283.6 274.107 284.3C272.987 285 271.587 285.35 269.907 285.35ZM269.907 283.32C271.54 283.32 272.87 282.795 273.897 281.745C274.923 280.695 275.472 279.178 275.542 277.195C275.565 276.845 275.577 276.413 275.577 275.9C275.577 275.387 275.565 274.955 275.542 274.605C275.472 272.598 274.923 271.082 273.897 270.055C272.87 269.005 271.54 268.48 269.907 268.48C268.273 268.48 266.943 269.005 265.917 270.055C264.89 271.082 264.342 272.598 264.272 274.605C264.248 274.955 264.237 275.387 264.237 275.9C264.237 276.413 264.248 276.845 264.272 277.195C264.342 279.178 264.89 280.695 265.917 281.745C266.943 282.795 268.273 283.32 269.907 283.32ZM283.263 285C283.03 285 282.843 284.93 282.703 284.79C282.563 284.65 282.493 284.463 282.493 284.23V267.605C282.493 267.372 282.563 267.185 282.703 267.045C282.843 266.882 283.03 266.8 283.263 266.8H283.823C284.057 266.8 284.243 266.882 284.383 267.045C284.547 267.185 284.628 267.372 284.628 267.605V269.215C285.048 268.398 285.655 267.792 286.448 267.395C287.242 266.998 288.222 266.8 289.388 266.8H290.683C290.917 266.8 291.103 266.87 291.243 267.01C291.383 267.15 291.453 267.337 291.453 267.57V268.06C291.453 268.293 291.383 268.48 291.243 268.62C291.103 268.76 290.917 268.83 290.683 268.83H289.178C287.778 268.83 286.67 269.238 285.853 270.055C285.037 270.872 284.628 271.98 284.628 273.38V284.23C284.628 284.463 284.547 284.65 284.383 284.79C284.243 284.93 284.057 285 283.823 285H283.263ZM295.431 285C295.198 285 295.011 284.93 294.871 284.79C294.731 284.65 294.661 284.463 294.661 284.23V267.57C294.661 267.337 294.731 267.15 294.871 267.01C295.011 266.87 295.198 266.8 295.431 266.8H296.026C296.26 266.8 296.446 266.87 296.586 267.01C296.726 267.15 296.796 267.337 296.796 267.57V268.795C297.38 268.048 298.068 267.477 298.861 267.08C299.678 266.66 300.658 266.45 301.801 266.45C304.415 266.45 306.281 267.547 307.401 269.74C307.938 268.737 308.72 267.943 309.746 267.36C310.796 266.753 311.998 266.45 313.351 266.45C314.588 266.45 315.696 266.742 316.676 267.325C317.68 267.885 318.461 268.725 319.021 269.845C319.605 270.965 319.896 272.365 319.896 274.045V284.23C319.896 284.463 319.826 284.65 319.686 284.79C319.546 284.93 319.36 285 319.126 285H318.531C318.298 285 318.111 284.93 317.971 284.79C317.831 284.65 317.761 284.463 317.761 284.23V274.395C317.761 272.855 317.54 271.665 317.096 270.825C316.653 269.962 316.07 269.355 315.346 269.005C314.623 268.655 313.841 268.48 313.001 268.48C312.301 268.48 311.59 268.655 310.866 269.005C310.143 269.355 309.536 269.962 309.046 270.825C308.58 271.665 308.346 272.855 308.346 274.395V284.23C308.346 284.463 308.276 284.65 308.136 284.79C307.996 284.93 307.81 285 307.576 285H306.981C306.748 285 306.561 284.93 306.421 284.79C306.281 284.65 306.211 284.463 306.211 284.23V274.395C306.211 272.855 305.978 271.665 305.511 270.825C305.045 269.962 304.45 269.355 303.726 269.005C303.003 268.655 302.245 268.48 301.451 268.48C300.751 268.48 300.04 268.655 299.316 269.005C298.593 269.355 297.986 269.962 297.496 270.825C297.03 271.665 296.796 272.843 296.796 274.36V284.23C296.796 284.463 296.726 284.65 296.586 284.79C296.446 284.93 296.26 285 296.026 285H295.431ZM330.289 285.35C329.169 285.35 328.13 285.117 327.174 284.65C326.24 284.183 325.482 283.565 324.899 282.795C324.315 282.002 324.024 281.115 324.024 280.135C324.024 278.548 324.665 277.277 325.949 276.32C327.232 275.363 328.9 274.745 330.954 274.465L336.484 273.695V272.47C336.484 271.233 336.099 270.265 335.329 269.565C334.582 268.842 333.38 268.48 331.724 268.48C330.51 268.48 329.53 268.725 328.784 269.215C328.037 269.682 327.524 270.3 327.244 271.07C327.127 271.42 326.905 271.595 326.579 271.595H326.019C325.739 271.595 325.54 271.525 325.424 271.385C325.307 271.222 325.249 271.035 325.249 270.825C325.249 270.498 325.365 270.09 325.599 269.6C325.855 269.11 326.24 268.632 326.754 268.165C327.267 267.675 327.932 267.267 328.749 266.94C329.565 266.613 330.557 266.45 331.724 266.45C333.1 266.45 334.232 266.637 335.119 267.01C336.029 267.383 336.729 267.873 337.219 268.48C337.732 269.063 338.094 269.717 338.304 270.44C338.514 271.163 338.619 271.875 338.619 272.575V284.23C338.619 284.463 338.549 284.65 338.409 284.79C338.269 284.93 338.082 285 337.849 285H337.254C337.02 285 336.834 284.93 336.694 284.79C336.554 284.65 336.484 284.463 336.484 284.23V282.585C336.204 283.005 335.807 283.425 335.294 283.845C334.78 284.265 334.115 284.627 333.299 284.93C332.505 285.21 331.502 285.35 330.289 285.35ZM330.639 283.32C331.712 283.32 332.692 283.087 333.579 282.62C334.465 282.153 335.165 281.442 335.679 280.485C336.215 279.505 336.484 278.28 336.484 276.81V275.62L331.969 276.25C330.055 276.507 328.609 276.95 327.629 277.58C326.649 278.21 326.159 279.003 326.159 279.96C326.159 280.73 326.38 281.36 326.824 281.85C327.267 282.34 327.827 282.713 328.504 282.97C329.204 283.203 329.915 283.32 330.639 283.32ZM360.072 285.35C358.438 285.35 357.05 285.035 355.907 284.405C354.763 283.752 353.888 282.818 353.282 281.605C352.698 280.392 352.383 278.957 352.337 277.3C352.313 276.95 352.302 276.483 352.302 275.9C352.302 275.317 352.313 274.85 352.337 274.5C352.383 272.82 352.698 271.385 353.282 270.195C353.888 268.982 354.763 268.06 355.907 267.43C357.05 266.777 358.438 266.45 360.072 266.45C361.308 266.45 362.37 266.625 363.257 266.975C364.167 267.302 364.913 267.745 365.497 268.305C366.08 268.842 366.523 269.437 366.827 270.09C367.13 270.743 367.293 271.385 367.317 272.015C367.34 272.248 367.27 272.435 367.107 272.575C366.943 272.715 366.757 272.785 366.547 272.785H366.057C365.823 272.785 365.648 272.738 365.532 272.645C365.438 272.528 365.333 272.33 365.217 272.05C364.727 270.72 364.05 269.798 363.187 269.285C362.347 268.748 361.308 268.48 360.072 268.48C358.485 268.48 357.167 268.97 356.117 269.95C355.09 270.907 354.542 272.482 354.472 274.675C354.425 275.492 354.425 276.308 354.472 277.125C354.542 279.318 355.09 280.905 356.117 281.885C357.167 282.842 358.485 283.32 360.072 283.32C361.308 283.32 362.347 283.063 363.187 282.55C364.05 282.013 364.727 281.08 365.217 279.75C365.333 279.47 365.438 279.283 365.532 279.19C365.648 279.073 365.823 279.015 366.057 279.015H366.547C366.757 279.015 366.943 279.085 367.107 279.225C367.27 279.365 367.34 279.552 367.317 279.785C367.293 280.298 367.188 280.812 367.002 281.325C366.815 281.838 366.523 282.34 366.127 282.83C365.753 283.32 365.287 283.752 364.727 284.125C364.167 284.498 363.49 284.79 362.697 285C361.927 285.233 361.052 285.35 360.072 285.35ZM378.871 285.35C377.191 285.35 375.78 285 374.636 284.3C373.516 283.6 372.653 282.643 372.046 281.43C371.463 280.217 371.148 278.863 371.101 277.37C371.078 277.02 371.066 276.53 371.066 275.9C371.066 275.27 371.078 274.78 371.101 274.43C371.148 272.913 371.463 271.56 372.046 270.37C372.653 269.157 373.516 268.2 374.636 267.5C375.78 266.8 377.191 266.45 378.871 266.45C380.551 266.45 381.951 266.8 383.071 267.5C384.215 268.2 385.078 269.157 385.661 270.37C386.268 271.56 386.595 272.913 386.641 274.43C386.665 274.78 386.676 275.27 386.676 275.9C386.676 276.53 386.665 277.02 386.641 277.37C386.595 278.863 386.268 280.217 385.661 281.43C385.078 282.643 384.215 283.6 383.071 284.3C381.951 285 380.551 285.35 378.871 285.35ZM378.871 283.32C380.505 283.32 381.835 282.795 382.861 281.745C383.888 280.695 384.436 279.178 384.506 277.195C384.53 276.845 384.541 276.413 384.541 275.9C384.541 275.387 384.53 274.955 384.506 274.605C384.436 272.598 383.888 271.082 382.861 270.055C381.835 269.005 380.505 268.48 378.871 268.48C377.238 268.48 375.908 269.005 374.881 270.055C373.855 271.082 373.306 272.598 373.236 274.605C373.213 274.955 373.201 275.387 373.201 275.9C373.201 276.413 373.213 276.845 373.236 277.195C373.306 279.178 373.855 280.695 374.881 281.745C375.908 282.795 377.238 283.32 378.871 283.32ZM392.228 285C391.995 285 391.808 284.93 391.668 284.79C391.528 284.65 391.458 284.463 391.458 284.23V267.57C391.458 267.337 391.528 267.15 391.668 267.01C391.808 266.87 391.995 266.8 392.228 266.8H392.823C393.056 266.8 393.243 266.87 393.383 267.01C393.523 267.15 393.593 267.337 393.593 267.57V268.795C394.176 268.048 394.865 267.477 395.658 267.08C396.475 266.66 397.455 266.45 398.598 266.45C401.211 266.45 403.078 267.547 404.198 269.74C404.735 268.737 405.516 267.943 406.543 267.36C407.593 266.753 408.795 266.45 410.148 266.45C411.385 266.45 412.493 266.742 413.473 267.325C414.476 267.885 415.258 268.725 415.818 269.845C416.401 270.965 416.693 272.365 416.693 274.045V284.23C416.693 284.463 416.623 284.65 416.483 284.79C416.343 284.93 416.156 285 415.923 285H415.328C415.095 285 414.908 284.93 414.768 284.79C414.628 284.65 414.558 284.463 414.558 284.23V274.395C414.558 272.855 414.336 271.665 413.893 270.825C413.45 269.962 412.866 269.355 412.143 269.005C411.42 268.655 410.638 268.48 409.798 268.48C409.098 268.48 408.386 268.655 407.663 269.005C406.94 269.355 406.333 269.962 405.843 270.825C405.376 271.665 405.143 272.855 405.143 274.395V284.23C405.143 284.463 405.073 284.65 404.933 284.79C404.793 284.93 404.606 285 404.373 285H403.778C403.545 285 403.358 284.93 403.218 284.79C403.078 284.65 403.008 284.463 403.008 284.23V274.395C403.008 272.855 402.775 271.665 402.308 270.825C401.841 269.962 401.246 269.355 400.523 269.005C399.8 268.655 399.041 268.48 398.248 268.48C397.548 268.48 396.836 268.655 396.113 269.005C395.39 269.355 394.783 269.962 394.293 270.825C393.826 271.665 393.593 272.843 393.593 274.36V284.23C393.593 284.463 393.523 284.65 393.383 284.79C393.243 284.93 393.056 285 392.823 285H392.228ZM429.116 285.35C427.436 285.35 426.024 285 424.881 284.3C423.761 283.6 422.897 282.643 422.291 281.43C421.707 280.217 421.392 278.863 421.346 277.37C421.322 277.02 421.311 276.53 421.311 275.9C421.311 275.27 421.322 274.78 421.346 274.43C421.392 272.913 421.707 271.56 422.291 270.37C422.897 269.157 423.761 268.2 424.881 267.5C426.024 266.8 427.436 266.45 429.116 266.45C430.796 266.45 432.196 266.8 433.316 267.5C434.459 268.2 435.322 269.157 435.906 270.37C436.512 271.56 436.839 272.913 436.886 274.43C436.909 274.78 436.921 275.27 436.921 275.9C436.921 276.53 436.909 277.02 436.886 277.37C436.839 278.863 436.512 280.217 435.906 281.43C435.322 282.643 434.459 283.6 433.316 284.3C432.196 285 430.796 285.35 429.116 285.35ZM429.116 283.32C430.749 283.32 432.079 282.795 433.106 281.745C434.132 280.695 434.681 279.178 434.751 277.195C434.774 276.845 434.786 276.413 434.786 275.9C434.786 275.387 434.774 274.955 434.751 274.605C434.681 272.598 434.132 271.082 433.106 270.055C432.079 269.005 430.749 268.48 429.116 268.48C427.482 268.48 426.152 269.005 425.126 270.055C424.099 271.082 423.551 272.598 423.481 274.605C423.457 274.955 423.446 275.387 423.446 275.9C423.446 276.413 423.457 276.845 423.481 277.195C423.551 279.178 424.099 280.695 425.126 281.745C426.152 282.795 427.482 283.32 429.116 283.32ZM9.1 334C8.72667 334 8.435 333.918 8.225 333.755C8.03833 333.592 7.88667 333.382 7.77 333.125L1.33 316.885C1.28333 316.745 1.26 316.617 1.26 316.5C1.26 316.313 1.33 316.15 1.47 316.01C1.61 315.87 1.77333 315.8 1.96 315.8H2.695C2.92833 315.8 3.10333 315.87 3.22 316.01C3.36 316.127 3.44167 316.232 3.465 316.325L9.38 331.445L15.295 316.325C15.3417 316.232 15.4233 316.127 15.54 316.01C15.6567 315.87 15.8317 315.8 16.065 315.8H16.8C16.9867 315.8 17.15 315.87 17.29 316.01C17.43 316.15 17.5 316.313 17.5 316.5C17.5 316.617 17.4767 316.745 17.43 316.885L10.99 333.125C10.8967 333.382 10.745 333.592 10.535 333.755C10.325 333.918 10.0333 334 9.66 334H9.1ZM22.3696 334C22.1363 334 21.9496 333.93 21.8096 333.79C21.6696 333.65 21.5996 333.463 21.5996 333.23V316.57C21.5996 316.337 21.6696 316.15 21.8096 316.01C21.9496 315.87 22.1363 315.8 22.3696 315.8H22.9646C23.198 315.8 23.3846 315.87 23.5246 316.01C23.6646 316.15 23.7346 316.337 23.7346 316.57V333.23C23.7346 333.463 23.6646 333.65 23.5246 333.79C23.3846 333.93 23.198 334 22.9646 334H22.3696ZM21.9846 312.055C21.7513 312.055 21.5646 311.985 21.4246 311.845C21.2846 311.705 21.2146 311.518 21.2146 311.285V309.955C21.2146 309.722 21.2846 309.535 21.4246 309.395C21.5646 309.232 21.7513 309.15 21.9846 309.15H23.3146C23.548 309.15 23.7346 309.232 23.8746 309.395C24.038 309.535 24.1196 309.722 24.1196 309.955V311.285C24.1196 311.518 24.038 311.705 23.8746 311.845C23.7346 311.985 23.548 312.055 23.3146 312.055H21.9846ZM35.6576 334C35.2843 334 34.9926 333.918 34.7826 333.755C34.596 333.592 34.4443 333.382 34.3276 333.125L27.8876 316.885C27.841 316.745 27.8176 316.617 27.8176 316.5C27.8176 316.313 27.8876 316.15 28.0276 316.01C28.1676 315.87 28.331 315.8 28.5176 315.8H29.2526C29.486 315.8 29.661 315.87 29.7776 316.01C29.9176 316.127 29.9993 316.232 30.0226 316.325L35.9376 331.445L41.8526 316.325C41.8993 316.232 41.981 316.127 42.0976 316.01C42.2143 315.87 42.3893 315.8 42.6226 315.8H43.3576C43.5443 315.8 43.7076 315.87 43.8476 316.01C43.9876 316.15 44.0576 316.313 44.0576 316.5C44.0576 316.617 44.0343 316.745 43.9876 316.885L37.5476 333.125C37.4543 333.382 37.3026 333.592 37.0926 333.755C36.8826 333.918 36.591 334 36.2176 334H35.6576ZM54.472 334.35C52.792 334.35 51.3804 334 50.237 333.3C49.117 332.6 48.2537 331.643 47.647 330.43C47.0637 329.217 46.7487 327.863 46.702 326.37C46.6787 326.02 46.667 325.53 46.667 324.9C46.667 324.27 46.6787 323.78 46.702 323.43C46.7487 321.913 47.0637 320.56 47.647 319.37C48.2537 318.157 49.117 317.2 50.237 316.5C51.3804 315.8 52.792 315.45 54.472 315.45C56.152 315.45 57.552 315.8 58.672 316.5C59.8154 317.2 60.6787 318.157 61.262 319.37C61.8687 320.56 62.1954 321.913 62.242 323.43C62.2654 323.78 62.277 324.27 62.277 324.9C62.277 325.53 62.2654 326.02 62.242 326.37C62.1954 327.863 61.8687 329.217 61.262 330.43C60.6787 331.643 59.8154 332.6 58.672 333.3C57.552 334 56.152 334.35 54.472 334.35ZM54.472 332.32C56.1054 332.32 57.4354 331.795 58.462 330.745C59.4887 329.695 60.037 328.178 60.107 326.195C60.1304 325.845 60.142 325.413 60.142 324.9C60.142 324.387 60.1304 323.955 60.107 323.605C60.037 321.598 59.4887 320.082 58.462 319.055C57.4354 318.005 56.1054 317.48 54.472 317.48C52.8387 317.48 51.5087 318.005 50.482 319.055C49.4554 320.082 48.907 321.598 48.837 323.605C48.8137 323.955 48.802 324.387 48.802 324.9C48.802 325.413 48.8137 325.845 48.837 326.195C48.907 328.178 49.4554 329.695 50.482 330.745C51.5087 331.795 52.8387 332.32 54.472 332.32ZM80.9821 334.35C79.8621 334.35 78.8237 334.117 77.8671 333.65C76.9337 333.183 76.1754 332.565 75.5921 331.795C75.0087 331.002 74.7171 330.115 74.7171 329.135C74.7171 327.548 75.3587 326.277 76.6421 325.32C77.9254 324.363 79.5937 323.745 81.6471 323.465L87.1771 322.695V321.47C87.1771 320.233 86.7921 319.265 86.0221 318.565C85.2754 317.842 84.0737 317.48 82.4171 317.48C81.2037 317.48 80.2237 317.725 79.4771 318.215C78.7304 318.682 78.2171 319.3 77.9371 320.07C77.8204 320.42 77.5987 320.595 77.2721 320.595H76.7121C76.4321 320.595 76.2337 320.525 76.1171 320.385C76.0004 320.222 75.9421 320.035 75.9421 319.825C75.9421 319.498 76.0587 319.09 76.2921 318.6C76.5487 318.11 76.9337 317.632 77.4471 317.165C77.9604 316.675 78.6254 316.267 79.4421 315.94C80.2587 315.613 81.2504 315.45 82.4171 315.45C83.7937 315.45 84.9254 315.637 85.8121 316.01C86.7221 316.383 87.4221 316.873 87.9121 317.48C88.4254 318.063 88.7871 318.717 88.9971 319.44C89.2071 320.163 89.3121 320.875 89.3121 321.575V333.23C89.3121 333.463 89.2421 333.65 89.1021 333.79C88.9621 333.93 88.7754 334 88.5421 334H87.9471C87.7137 334 87.5271 333.93 87.3871 333.79C87.2471 333.65 87.1771 333.463 87.1771 333.23V331.585C86.8971 332.005 86.5004 332.425 85.9871 332.845C85.4737 333.265 84.8087 333.627 83.9921 333.93C83.1987 334.21 82.1954 334.35 80.9821 334.35ZM81.3321 332.32C82.4054 332.32 83.3854 332.087 84.2721 331.62C85.1587 331.153 85.8587 330.442 86.3721 329.485C86.9087 328.505 87.1771 327.28 87.1771 325.81V324.62L82.6621 325.25C80.7487 325.507 79.3021 325.95 78.3221 326.58C77.3421 327.21 76.8521 328.003 76.8521 328.96C76.8521 329.73 77.0737 330.36 77.5171 330.85C77.9604 331.34 78.5204 331.713 79.1971 331.97C79.8971 332.203 80.6087 332.32 81.3321 332.32ZM100.622 334.35C99.4084 334.35 98.3584 334.187 97.4717 333.86C96.6084 333.533 95.8967 333.148 95.3367 332.705C94.7767 332.238 94.3567 331.783 94.0767 331.34C93.8201 330.897 93.6801 330.558 93.6567 330.325C93.6334 330.068 93.7151 329.882 93.9017 329.765C94.0884 329.625 94.2634 329.555 94.4267 329.555H94.9517C95.0917 329.555 95.2084 329.578 95.3017 329.625C95.4184 329.672 95.5584 329.8 95.7217 330.01C96.0251 330.407 96.3751 330.792 96.7717 331.165C97.1684 331.515 97.6701 331.795 98.2767 332.005C98.9067 332.215 99.6884 332.32 100.622 332.32C102.022 332.32 103.177 332.052 104.087 331.515C104.997 330.978 105.452 330.185 105.452 329.135C105.452 328.482 105.265 327.957 104.892 327.56C104.542 327.163 103.935 326.813 103.072 326.51C102.208 326.207 101.042 325.892 99.5717 325.565C98.1017 325.215 96.9701 324.795 96.1767 324.305C95.4067 323.815 94.8817 323.255 94.6017 322.625C94.3217 321.972 94.1817 321.272 94.1817 320.525C94.1817 319.708 94.4151 318.915 94.8817 318.145C95.3484 317.352 96.0367 316.71 96.9467 316.22C97.8801 315.707 99.0467 315.45 100.447 315.45C101.59 315.45 102.558 315.602 103.352 315.905C104.168 316.208 104.833 316.582 105.347 317.025C105.86 317.445 106.233 317.865 106.467 318.285C106.723 318.705 106.863 319.043 106.887 319.3C106.91 319.533 106.84 319.72 106.677 319.86C106.513 320 106.327 320.07 106.117 320.07H105.592C105.405 320.07 105.253 320.035 105.137 319.965C105.02 319.872 104.915 319.755 104.822 319.615C104.588 319.242 104.308 318.892 103.982 318.565C103.655 318.238 103.212 317.982 102.652 317.795C102.115 317.585 101.38 317.48 100.447 317.48C99.0467 317.48 98.0084 317.772 97.3317 318.355C96.6551 318.915 96.3167 319.638 96.3167 320.525C96.3167 321.038 96.4567 321.493 96.7367 321.89C97.0167 322.263 97.5417 322.613 98.3117 322.94C99.0817 323.243 100.202 323.57 101.672 323.92C103.165 324.247 104.343 324.655 105.207 325.145C106.07 325.612 106.677 326.172 107.027 326.825C107.4 327.478 107.587 328.248 107.587 329.135C107.587 330.068 107.318 330.932 106.782 331.725C106.268 332.518 105.487 333.16 104.437 333.65C103.41 334.117 102.138 334.35 100.622 334.35ZM121.867 334C121.633 334 121.447 333.93 121.307 333.79C121.167 333.65 121.097 333.463 121.097 333.23V316.57C121.097 316.337 121.167 316.15 121.307 316.01C121.447 315.87 121.633 315.8 121.867 315.8H122.462C122.695 315.8 122.882 315.87 123.022 316.01C123.162 316.15 123.232 316.337 123.232 316.57V317.795C123.815 317.048 124.503 316.477 125.297 316.08C126.113 315.66 127.093 315.45 128.237 315.45C130.85 315.45 132.717 316.547 133.837 318.74C134.373 317.737 135.155 316.943 136.182 316.36C137.232 315.753 138.433 315.45 139.787 315.45C141.023 315.45 142.132 315.742 143.112 316.325C144.115 316.885 144.897 317.725 145.457 318.845C146.04 319.965 146.332 321.365 146.332 323.045V333.23C146.332 333.463 146.262 333.65 146.122 333.79C145.982 333.93 145.795 334 145.562 334H144.967C144.733 334 144.547 333.93 144.407 333.79C144.267 333.65 144.197 333.463 144.197 333.23V323.395C144.197 321.855 143.975 320.665 143.532 319.825C143.088 318.962 142.505 318.355 141.782 318.005C141.058 317.655 140.277 317.48 139.437 317.48C138.737 317.48 138.025 317.655 137.302 318.005C136.578 318.355 135.972 318.962 135.482 319.825C135.015 320.665 134.782 321.855 134.782 323.395V333.23C134.782 333.463 134.712 333.65 134.572 333.79C134.432 333.93 134.245 334 134.012 334H133.417C133.183 334 132.997 333.93 132.857 333.79C132.717 333.65 132.647 333.463 132.647 333.23V323.395C132.647 321.855 132.413 320.665 131.947 319.825C131.48 318.962 130.885 318.355 130.162 318.005C129.438 317.655 128.68 317.48 127.887 317.48C127.187 317.48 126.475 317.655 125.752 318.005C125.028 318.355 124.422 318.962 123.932 319.825C123.465 320.665 123.232 321.843 123.232 323.36V333.23C123.232 333.463 123.162 333.65 123.022 333.79C122.882 333.93 122.695 334 122.462 334H121.867ZM152.594 334C152.361 334 152.174 333.93 152.034 333.79C151.894 333.65 151.824 333.463 151.824 333.23V316.57C151.824 316.337 151.894 316.15 152.034 316.01C152.174 315.87 152.361 315.8 152.594 315.8H153.189C153.423 315.8 153.609 315.87 153.749 316.01C153.889 316.15 153.959 316.337 153.959 316.57V333.23C153.959 333.463 153.889 333.65 153.749 333.79C153.609 333.93 153.423 334 153.189 334H152.594ZM152.209 312.055C151.976 312.055 151.789 311.985 151.649 311.845C151.509 311.705 151.439 311.518 151.439 311.285V309.955C151.439 309.722 151.509 309.535 151.649 309.395C151.789 309.232 151.976 309.15 152.209 309.15H153.539C153.773 309.15 153.959 309.232 154.099 309.395C154.263 309.535 154.344 309.722 154.344 309.955V311.285C154.344 311.518 154.263 311.705 154.099 311.845C153.959 311.985 153.773 312.055 153.539 312.055H152.209ZM160.387 334C160.154 334 159.967 333.93 159.827 333.79C159.687 333.65 159.617 333.463 159.617 333.23V316.57C159.617 316.337 159.687 316.15 159.827 316.01C159.967 315.87 160.154 315.8 160.387 315.8H160.982C161.216 315.8 161.402 315.87 161.542 316.01C161.682 316.15 161.752 316.337 161.752 316.57V318.215C162.382 317.398 163.141 316.733 164.027 316.22C164.937 315.707 166.139 315.45 167.632 315.45C169.219 315.45 170.537 315.8 171.587 316.5C172.661 317.177 173.454 318.11 173.967 319.3C174.504 320.467 174.772 321.797 174.772 323.29V333.23C174.772 333.463 174.702 333.65 174.562 333.79C174.422 333.93 174.236 334 174.002 334H173.407C173.174 334 172.987 333.93 172.847 333.79C172.707 333.65 172.637 333.463 172.637 333.23V323.465C172.637 321.598 172.182 320.14 171.272 319.09C170.362 318.017 169.032 317.48 167.282 317.48C165.626 317.48 164.284 318.017 163.257 319.09C162.254 320.14 161.752 321.598 161.752 323.465V333.23C161.752 333.463 161.682 333.65 161.542 333.79C161.402 333.93 161.216 334 160.982 334H160.387ZM181.067 334C180.833 334 180.647 333.93 180.507 333.79C180.367 333.65 180.297 333.463 180.297 333.23V309.92C180.297 309.687 180.367 309.5 180.507 309.36C180.647 309.22 180.833 309.15 181.067 309.15H181.662C181.895 309.15 182.082 309.22 182.222 309.36C182.362 309.5 182.432 309.687 182.432 309.92V318.215C183.062 317.398 183.82 316.733 184.707 316.22C185.617 315.707 186.818 315.45 188.312 315.45C189.898 315.45 191.217 315.8 192.267 316.5C193.34 317.177 194.133 318.11 194.647 319.3C195.183 320.467 195.452 321.797 195.452 323.29V333.23C195.452 333.463 195.382 333.65 195.242 333.79C195.102 333.93 194.915 334 194.682 334H194.087C193.853 334 193.667 333.93 193.527 333.79C193.387 333.65 193.317 333.463 193.317 333.23V323.465C193.317 321.598 192.862 320.14 191.952 319.09C191.042 318.017 189.712 317.48 187.962 317.48C186.305 317.48 184.963 318.017 183.937 319.09C182.933 320.14 182.432 321.598 182.432 323.465V333.23C182.432 333.463 182.362 333.65 182.222 333.79C182.082 333.93 181.895 334 181.662 334H181.067ZM205.84 334.35C204.72 334.35 203.682 334.117 202.725 333.65C201.792 333.183 201.034 332.565 200.45 331.795C199.867 331.002 199.575 330.115 199.575 329.135C199.575 327.548 200.217 326.277 201.5 325.32C202.784 324.363 204.452 323.745 206.505 323.465L212.035 322.695V321.47C212.035 320.233 211.65 319.265 210.88 318.565C210.134 317.842 208.932 317.48 207.275 317.48C206.062 317.48 205.082 317.725 204.335 318.215C203.589 318.682 203.075 319.3 202.795 320.07C202.679 320.42 202.457 320.595 202.13 320.595H201.57C201.29 320.595 201.092 320.525 200.975 320.385C200.859 320.222 200.8 320.035 200.8 319.825C200.8 319.498 200.917 319.09 201.15 318.6C201.407 318.11 201.792 317.632 202.305 317.165C202.819 316.675 203.484 316.267 204.3 315.94C205.117 315.613 206.109 315.45 207.275 315.45C208.652 315.45 209.784 315.637 210.67 316.01C211.58 316.383 212.28 316.873 212.77 317.48C213.284 318.063 213.645 318.717 213.855 319.44C214.065 320.163 214.17 320.875 214.17 321.575V333.23C214.17 333.463 214.1 333.65 213.96 333.79C213.82 333.93 213.634 334 213.4 334H212.805C212.572 334 212.385 333.93 212.245 333.79C212.105 333.65 212.035 333.463 212.035 333.23V331.585C211.755 332.005 211.359 332.425 210.845 332.845C210.332 333.265 209.667 333.627 208.85 333.93C208.057 334.21 207.054 334.35 205.84 334.35ZM206.19 332.32C207.264 332.32 208.244 332.087 209.13 331.62C210.017 331.153 210.717 330.442 211.23 329.485C211.767 328.505 212.035 327.28 212.035 325.81V324.62L207.52 325.25C205.607 325.507 204.16 325.95 203.18 326.58C202.2 327.21 201.71 328.003 201.71 328.96C201.71 329.73 201.932 330.36 202.375 330.85C202.819 331.34 203.379 331.713 204.055 331.97C204.755 332.203 205.467 332.32 206.19 332.32ZM225.48 334.35C224.267 334.35 223.217 334.187 222.33 333.86C221.467 333.533 220.755 333.148 220.195 332.705C219.635 332.238 219.215 331.783 218.935 331.34C218.678 330.897 218.538 330.558 218.515 330.325C218.492 330.068 218.573 329.882 218.76 329.765C218.947 329.625 219.122 329.555 219.285 329.555H219.81C219.95 329.555 220.067 329.578 220.16 329.625C220.277 329.672 220.417 329.8 220.58 330.01C220.883 330.407 221.233 330.792 221.63 331.165C222.027 331.515 222.528 331.795 223.135 332.005C223.765 332.215 224.547 332.32 225.48 332.32C226.88 332.32 228.035 332.052 228.945 331.515C229.855 330.978 230.31 330.185 230.31 329.135C230.31 328.482 230.123 327.957 229.75 327.56C229.4 327.163 228.793 326.813 227.93 326.51C227.067 326.207 225.9 325.892 224.43 325.565C222.96 325.215 221.828 324.795 221.035 324.305C220.265 323.815 219.74 323.255 219.46 322.625C219.18 321.972 219.04 321.272 219.04 320.525C219.04 319.708 219.273 318.915 219.74 318.145C220.207 317.352 220.895 316.71 221.805 316.22C222.738 315.707 223.905 315.45 225.305 315.45C226.448 315.45 227.417 315.602 228.21 315.905C229.027 316.208 229.692 316.582 230.205 317.025C230.718 317.445 231.092 317.865 231.325 318.285C231.582 318.705 231.722 319.043 231.745 319.3C231.768 319.533 231.698 319.72 231.535 319.86C231.372 320 231.185 320.07 230.975 320.07H230.45C230.263 320.07 230.112 320.035 229.995 319.965C229.878 319.872 229.773 319.755 229.68 319.615C229.447 319.242 229.167 318.892 228.84 318.565C228.513 318.238 228.07 317.982 227.51 317.795C226.973 317.585 226.238 317.48 225.305 317.48C223.905 317.48 222.867 317.772 222.19 318.355C221.513 318.915 221.175 319.638 221.175 320.525C221.175 321.038 221.315 321.493 221.595 321.89C221.875 322.263 222.4 322.613 223.17 322.94C223.94 323.243 225.06 323.57 226.53 323.92C228.023 324.247 229.202 324.655 230.065 325.145C230.928 325.612 231.535 326.172 231.885 326.825C232.258 327.478 232.445 328.248 232.445 329.135C232.445 330.068 232.177 330.932 231.64 331.725C231.127 332.518 230.345 333.16 229.295 333.65C228.268 334.117 226.997 334.35 225.48 334.35ZM246.725 334C246.492 334 246.305 333.93 246.165 333.79C246.025 333.65 245.955 333.463 245.955 333.23V316.605C245.955 316.372 246.025 316.185 246.165 316.045C246.305 315.882 246.492 315.8 246.725 315.8H247.285C247.518 315.8 247.705 315.882 247.845 316.045C248.008 316.185 248.09 316.372 248.09 316.605V318.215C248.51 317.398 249.117 316.792 249.91 316.395C250.703 315.998 251.683 315.8 252.85 315.8H254.145C254.378 315.8 254.565 315.87 254.705 316.01C254.845 316.15 254.915 316.337 254.915 316.57V317.06C254.915 317.293 254.845 317.48 254.705 317.62C254.565 317.76 254.378 317.83 254.145 317.83H252.64C251.24 317.83 250.132 318.238 249.315 319.055C248.498 319.872 248.09 320.98 248.09 322.38V333.23C248.09 333.463 248.008 333.65 247.845 333.79C247.705 333.93 247.518 334 247.285 334H246.725ZM264.468 334.35C262.205 334.35 260.408 333.615 259.078 332.145C257.748 330.652 256.99 328.703 256.803 326.3C256.78 325.95 256.768 325.483 256.768 324.9C256.768 324.317 256.78 323.85 256.803 323.5C256.92 321.913 257.293 320.513 257.923 319.3C258.553 318.087 259.416 317.142 260.513 316.465C261.633 315.788 262.951 315.45 264.468 315.45C266.101 315.45 267.49 315.812 268.633 316.535C269.776 317.258 270.651 318.297 271.258 319.65C271.888 321.003 272.203 322.613 272.203 324.48V325.005C272.203 325.238 272.121 325.425 271.958 325.565C271.818 325.705 271.631 325.775 271.398 325.775H258.938C258.938 325.775 258.938 325.822 258.938 325.915C258.938 326.008 258.938 326.078 258.938 326.125C258.985 327.175 259.23 328.178 259.673 329.135C260.116 330.068 260.746 330.838 261.563 331.445C262.38 332.028 263.348 332.32 264.468 332.32C265.471 332.32 266.3 332.168 266.953 331.865C267.63 331.562 268.166 331.235 268.563 330.885C268.96 330.512 269.216 330.232 269.333 330.045C269.543 329.742 269.706 329.567 269.823 329.52C269.94 329.45 270.126 329.415 270.383 329.415H270.943C271.153 329.415 271.328 329.485 271.468 329.625C271.631 329.742 271.701 329.905 271.678 330.115C271.655 330.442 271.468 330.85 271.118 331.34C270.791 331.807 270.313 332.273 269.683 332.74C269.076 333.207 268.33 333.592 267.443 333.895C266.556 334.198 265.565 334.35 264.468 334.35ZM258.938 323.815H270.068V323.675C270.068 322.508 269.846 321.458 269.403 320.525C268.96 319.592 268.318 318.857 267.478 318.32C266.638 317.76 265.635 317.48 264.468 317.48C263.301 317.48 262.298 317.76 261.458 318.32C260.641 318.857 260.011 319.592 259.568 320.525C259.148 321.458 258.938 322.508 258.938 323.675V323.815ZM277.624 334C277.391 334 277.204 333.93 277.064 333.79C276.924 333.65 276.854 333.463 276.854 333.23V309.92C276.854 309.687 276.924 309.5 277.064 309.36C277.204 309.22 277.391 309.15 277.624 309.15H278.219C278.453 309.15 278.639 309.22 278.779 309.36C278.919 309.5 278.989 309.687 278.989 309.92V333.23C278.989 333.463 278.919 333.65 278.779 333.79C278.639 333.93 278.453 334 278.219 334H277.624ZM289.581 334.35C288.461 334.35 287.422 334.117 286.466 333.65C285.532 333.183 284.774 332.565 284.191 331.795C283.607 331.002 283.316 330.115 283.316 329.135C283.316 327.548 283.957 326.277 285.241 325.32C286.524 324.363 288.192 323.745 290.246 323.465L295.776 322.695V321.47C295.776 320.233 295.391 319.265 294.621 318.565C293.874 317.842 292.672 317.48 291.016 317.48C289.802 317.48 288.822 317.725 288.076 318.215C287.329 318.682 286.816 319.3 286.536 320.07C286.419 320.42 286.197 320.595 285.871 320.595H285.311C285.031 320.595 284.832 320.525 284.716 320.385C284.599 320.222 284.541 320.035 284.541 319.825C284.541 319.498 284.657 319.09 284.891 318.6C285.147 318.11 285.532 317.632 286.046 317.165C286.559 316.675 287.224 316.267 288.041 315.94C288.857 315.613 289.849 315.45 291.016 315.45C292.392 315.45 293.524 315.637 294.411 316.01C295.321 316.383 296.021 316.873 296.511 317.48C297.024 318.063 297.386 318.717 297.596 319.44C297.806 320.163 297.911 320.875 297.911 321.575V333.23C297.911 333.463 297.841 333.65 297.701 333.79C297.561 333.93 297.374 334 297.141 334H296.546C296.312 334 296.126 333.93 295.986 333.79C295.846 333.65 295.776 333.463 295.776 333.23V331.585C295.496 332.005 295.099 332.425 294.586 332.845C294.072 333.265 293.407 333.627 292.591 333.93C291.797 334.21 290.794 334.35 289.581 334.35ZM289.931 332.32C291.004 332.32 291.984 332.087 292.871 331.62C293.757 331.153 294.457 330.442 294.971 329.485C295.507 328.505 295.776 327.28 295.776 325.81V324.62L291.261 325.25C289.347 325.507 287.901 325.95 286.921 326.58C285.941 327.21 285.451 328.003 285.451 328.96C285.451 329.73 285.672 330.36 286.116 330.85C286.559 331.34 287.119 331.713 287.796 331.97C288.496 332.203 289.207 332.32 289.931 332.32ZM310.235 341.7C309.582 341.677 308.999 341.548 308.485 341.315C307.995 341.105 307.634 340.86 307.4 340.58C307.19 340.3 307.179 340.078 307.365 339.915L307.855 339.46C308.065 339.273 308.252 339.238 308.415 339.355C308.579 339.472 308.789 339.623 309.045 339.81C309.325 339.997 309.722 340.09 310.235 340.09C310.632 340.09 310.982 339.962 311.285 339.705C311.589 339.472 311.74 339.133 311.74 338.69C311.74 338.27 311.589 337.943 311.285 337.71C310.982 337.477 310.632 337.36 310.235 337.36C309.862 337.36 309.547 337.407 309.29 337.5C309.057 337.617 308.847 337.687 308.66 337.71C308.497 337.757 308.322 337.687 308.135 337.5L307.575 336.905C307.459 336.765 307.435 336.59 307.505 336.38C307.599 336.193 307.68 336.018 307.75 335.855L308.485 334.175C306.619 333.848 305.184 332.997 304.18 331.62C303.177 330.243 302.652 328.47 302.605 326.3C302.582 325.95 302.57 325.483 302.57 324.9C302.57 324.317 302.582 323.85 302.605 323.5C302.652 321.82 302.967 320.385 303.55 319.195C304.157 317.982 305.032 317.06 306.175 316.43C307.319 315.777 308.707 315.45 310.34 315.45C311.577 315.45 312.639 315.625 313.525 315.975C314.435 316.302 315.182 316.745 315.765 317.305C316.349 317.842 316.792 318.437 317.095 319.09C317.399 319.743 317.562 320.385 317.585 321.015C317.609 321.248 317.539 321.435 317.375 321.575C317.212 321.715 317.025 321.785 316.815 321.785H316.325C316.092 321.785 315.917 321.738 315.8 321.645C315.707 321.528 315.602 321.33 315.485 321.05C314.995 319.72 314.319 318.798 313.455 318.285C312.615 317.748 311.577 317.48 310.34 317.48C308.754 317.48 307.435 317.97 306.385 318.95C305.359 319.907 304.81 321.482 304.74 323.675C304.694 324.492 304.694 325.308 304.74 326.125C304.81 328.318 305.359 329.905 306.385 330.885C307.435 331.842 308.754 332.32 310.34 332.32C311.577 332.32 312.615 332.063 313.455 331.55C314.319 331.013 314.995 330.08 315.485 328.75C315.602 328.47 315.707 328.283 315.8 328.19C315.917 328.073 316.092 328.015 316.325 328.015H316.815C317.025 328.015 317.212 328.085 317.375 328.225C317.539 328.365 317.609 328.552 317.585 328.785C317.562 329.415 317.399 330.057 317.095 330.71C316.792 331.363 316.349 331.97 315.765 332.53C315.182 333.067 314.435 333.51 313.525 333.86C312.639 334.187 311.577 334.35 310.34 334.35L309.535 336.03C309.675 335.937 309.862 335.867 310.095 335.82C310.352 335.773 310.609 335.75 310.865 335.75C311.635 335.75 312.265 336.018 312.755 336.555C313.269 337.092 313.525 337.78 313.525 338.62C313.525 339.46 313.245 340.183 312.685 340.79C312.149 341.42 311.332 341.723 310.235 341.7ZM329.14 334.35C327.46 334.35 326.048 334 324.905 333.3C323.785 332.6 322.922 331.643 322.315 330.43C321.732 329.217 321.417 327.863 321.37 326.37C321.347 326.02 321.335 325.53 321.335 324.9C321.335 324.27 321.347 323.78 321.37 323.43C321.417 321.913 321.732 320.56 322.315 319.37C322.922 318.157 323.785 317.2 324.905 316.5C326.048 315.8 327.46 315.45 329.14 315.45C330.82 315.45 332.22 315.8 333.34 316.5C334.483 317.2 335.347 318.157 335.93 319.37C336.537 320.56 336.863 321.913 336.91 323.43C336.933 323.78 336.945 324.27 336.945 324.9C336.945 325.53 336.933 326.02 336.91 326.37C336.863 327.863 336.537 329.217 335.93 330.43C335.347 331.643 334.483 332.6 333.34 333.3C332.22 334 330.82 334.35 329.14 334.35ZM329.14 332.32C330.773 332.32 332.103 331.795 333.13 330.745C334.157 329.695 334.705 328.178 334.775 326.195C334.798 325.845 334.81 325.413 334.81 324.9C334.81 324.387 334.798 323.955 334.775 323.605C334.705 321.598 334.157 320.082 333.13 319.055C332.103 318.005 330.773 317.48 329.14 317.48C327.507 317.48 326.177 318.005 325.15 319.055C324.123 320.082 323.575 321.598 323.505 323.605C323.482 323.955 323.47 324.387 323.47 324.9C323.47 325.413 323.482 325.845 323.505 326.195C323.575 328.178 324.123 329.695 325.15 330.745C326.177 331.795 327.507 332.32 329.14 332.32ZM330.785 313.35C330.248 313.35 329.805 313.257 329.455 313.07C329.128 312.86 328.825 312.662 328.545 312.475C328.265 312.265 327.962 312.16 327.635 312.16C327.378 312.16 327.192 312.242 327.075 312.405C326.958 312.568 326.842 312.743 326.725 312.93C326.632 313.093 326.457 313.175 326.2 313.175H325.5C325.337 313.175 325.197 313.117 325.08 313C324.987 312.883 324.94 312.755 324.94 312.615C324.94 312.288 324.998 311.973 325.115 311.67C325.255 311.367 325.43 311.098 325.64 310.865C325.873 310.608 326.142 310.41 326.445 310.27C326.748 310.13 327.075 310.06 327.425 310.06C327.985 310.06 328.428 310.165 328.755 310.375C329.105 310.562 329.42 310.76 329.7 310.97C329.98 311.157 330.283 311.25 330.61 311.25C330.89 311.25 331.077 311.168 331.17 311.005C331.287 310.818 331.392 310.643 331.485 310.48C331.602 310.293 331.788 310.2 332.045 310.2H332.745C332.932 310.2 333.072 310.258 333.165 310.375C333.258 310.492 333.305 310.62 333.305 310.76C333.305 311.087 333.235 311.413 333.095 311.74C332.978 312.043 332.803 312.323 332.57 312.58C332.337 312.813 332.068 313 331.765 313.14C331.462 313.28 331.135 313.35 330.785 313.35ZM348.482 334.35C346.218 334.35 344.422 333.615 343.092 332.145C341.762 330.652 341.003 328.703 340.817 326.3C340.793 325.95 340.782 325.483 340.782 324.9C340.782 324.317 340.793 323.85 340.817 323.5C340.933 321.913 341.307 320.513 341.937 319.3C342.567 318.087 343.43 317.142 344.527 316.465C345.647 315.788 346.965 315.45 348.482 315.45C350.115 315.45 351.503 315.812 352.647 316.535C353.79 317.258 354.665 318.297 355.272 319.65C355.902 321.003 356.217 322.613 356.217 324.48V325.005C356.217 325.238 356.135 325.425 355.972 325.565C355.832 325.705 355.645 325.775 355.412 325.775H342.952C342.952 325.775 342.952 325.822 342.952 325.915C342.952 326.008 342.952 326.078 342.952 326.125C342.998 327.175 343.243 328.178 343.687 329.135C344.13 330.068 344.76 330.838 345.577 331.445C346.393 332.028 347.362 332.32 348.482 332.32C349.485 332.32 350.313 332.168 350.967 331.865C351.643 331.562 352.18 331.235 352.577 330.885C352.973 330.512 353.23 330.232 353.347 330.045C353.557 329.742 353.72 329.567 353.837 329.52C353.953 329.45 354.14 329.415 354.397 329.415H354.957C355.167 329.415 355.342 329.485 355.482 329.625C355.645 329.742 355.715 329.905 355.692 330.115C355.668 330.442 355.482 330.85 355.132 331.34C354.805 331.807 354.327 332.273 353.697 332.74C353.09 333.207 352.343 333.592 351.457 333.895C350.57 334.198 349.578 334.35 348.482 334.35ZM342.952 323.815H354.082V323.675C354.082 322.508 353.86 321.458 353.417 320.525C352.973 319.592 352.332 318.857 351.492 318.32C350.652 317.76 349.648 317.48 348.482 317.48C347.315 317.48 346.312 317.76 345.472 318.32C344.655 318.857 344.025 319.592 343.582 320.525C343.162 321.458 342.952 322.508 342.952 323.675V323.815ZM366.608 334.35C365.395 334.35 364.345 334.187 363.458 333.86C362.595 333.533 361.883 333.148 361.323 332.705C360.763 332.238 360.343 331.783 360.063 331.34C359.806 330.897 359.666 330.558 359.643 330.325C359.62 330.068 359.701 329.882 359.888 329.765C360.075 329.625 360.25 329.555 360.413 329.555H360.938C361.078 329.555 361.195 329.578 361.288 329.625C361.405 329.672 361.545 329.8 361.708 330.01C362.011 330.407 362.361 330.792 362.758 331.165C363.155 331.515 363.656 331.795 364.263 332.005C364.893 332.215 365.675 332.32 366.608 332.32C368.008 332.32 369.163 332.052 370.073 331.515C370.983 330.978 371.438 330.185 371.438 329.135C371.438 328.482 371.251 327.957 370.878 327.56C370.528 327.163 369.921 326.813 369.058 326.51C368.195 326.207 367.028 325.892 365.558 325.565C364.088 325.215 362.956 324.795 362.163 324.305C361.393 323.815 360.868 323.255 360.588 322.625C360.308 321.972 360.168 321.272 360.168 320.525C360.168 319.708 360.401 318.915 360.868 318.145C361.335 317.352 362.023 316.71 362.933 316.22C363.866 315.707 365.033 315.45 366.433 315.45C367.576 315.45 368.545 315.602 369.338 315.905C370.155 316.208 370.82 316.582 371.333 317.025C371.846 317.445 372.22 317.865 372.453 318.285C372.71 318.705 372.85 319.043 372.873 319.3C372.896 319.533 372.826 319.72 372.663 319.86C372.5 320 372.313 320.07 372.103 320.07H371.578C371.391 320.07 371.24 320.035 371.123 319.965C371.006 319.872 370.901 319.755 370.808 319.615C370.575 319.242 370.295 318.892 369.968 318.565C369.641 318.238 369.198 317.982 368.638 317.795C368.101 317.585 367.366 317.48 366.433 317.48C365.033 317.48 363.995 317.772 363.318 318.355C362.641 318.915 362.303 319.638 362.303 320.525C362.303 321.038 362.443 321.493 362.723 321.89C363.003 322.263 363.528 322.613 364.298 322.94C365.068 323.243 366.188 323.57 367.658 323.92C369.151 324.247 370.33 324.655 371.193 325.145C372.056 325.612 372.663 326.172 373.013 326.825C373.386 327.478 373.573 328.248 373.573 329.135C373.573 330.068 373.305 330.932 372.768 331.725C372.255 332.518 371.473 333.16 370.423 333.65C369.396 334.117 368.125 334.35 366.608 334.35ZM381.585 315.03C381.398 315.03 381.258 314.96 381.165 314.82C381.095 314.68 381.072 314.505 381.095 314.295L381.76 310.095C381.807 309.815 381.888 309.593 382.005 309.43C382.145 309.243 382.355 309.15 382.635 309.15H384.21C384.373 309.15 384.502 309.208 384.595 309.325C384.688 309.442 384.735 309.57 384.735 309.71C384.735 309.92 384.688 310.13 384.595 310.34L383.09 314.295C382.997 314.528 382.88 314.715 382.74 314.855C382.623 314.972 382.437 315.03 382.18 315.03H381.585ZM376.895 315.03C376.708 315.03 376.568 314.96 376.475 314.82C376.405 314.68 376.382 314.505 376.405 314.295L377.07 310.095C377.117 309.815 377.198 309.593 377.315 309.43C377.455 309.243 377.665 309.15 377.945 309.15H379.52C379.683 309.15 379.812 309.208 379.905 309.325C379.998 309.442 380.045 309.57 380.045 309.71C380.045 309.92 379.998 310.13 379.905 310.34L378.4 314.295C378.307 314.528 378.19 314.715 378.05 314.855C377.933 314.972 377.747 315.03 377.49 315.03H376.895Z" fill="black"/>
</g>
</g>
</g>
</svg>
