<svg width="320" height="89" viewBox="0 0 320 89" fill="none" xmlns="http://www.w3.org/2000/svg">
<g id="Group 386">
<g id="Group">
<path id="Vector" d="M22.6537 57.8468C22.6537 57.8468 43.0418 53.3968 63.4299 62.2968M20.3884 44.4968C20.3884 44.4968 47.5725 37.8218 70.226 51.1718M18.123 31.1468C31.7151 28.9218 54.3685 26.6968 77.022 40.0468" stroke="#6D2E46" stroke-width="4.2" stroke-linecap="round" stroke-linejoin="round"/>
<path id="Vector_2" d="M45.3069 89C20.2839 89 0 69.0773 0 44.5C0 19.9227 20.2839 0 45.3069 0C70.3299 0 90.6137 19.9227 90.6137 44.5C90.6137 69.0773 70.3299 89 45.3069 89Z" stroke="#6D2E46" stroke-width="4.2" stroke-linecap="round" stroke-linejoin="round"/>
</g>
<g id="Group 110">
<path id="Vector_3" d="M264.357 3.67578C264.926 3.67578 272.116 3.65019 281.313 4.44238C290.521 5.23548 301.696 6.84496 310.255 10.0996V10.0986C311.821 10.7017 313.219 11.6615 314.333 12.8975C315.447 14.1337 316.245 15.6117 316.664 17.209L316.665 17.2109C317.966 22.0714 319.5 30.9865 319.5 45.8877C319.5 60.7885 317.961 69.7142 316.685 74.5664V74.5674C316.266 76.1645 315.467 77.6418 314.353 78.8779C313.239 80.1137 311.842 81.0728 310.275 81.6758C302.136 84.7701 291.63 86.3796 282.695 87.2129C273.77 88.0453 266.455 88.0996 264.717 88.0996H264.357C263.784 88.0996 256.596 88.1261 247.4 87.334C238.481 86.5657 227.715 85.0309 219.27 81.9766L218.46 81.6758C216.894 81.0727 215.497 80.1137 214.383 78.8779C213.269 77.6418 212.469 76.1646 212.051 74.5674V74.5664C210.774 69.704 209.235 60.7534 209.235 45.8877C209.235 31.0218 210.774 22.0713 212.051 17.209V17.208C212.467 15.6128 213.263 14.1363 214.374 12.9004C215.485 11.6644 216.879 10.7041 218.442 10.0986L218.441 10.0977C227.011 6.84341 238.19 5.23541 247.399 4.44238C256.598 3.65029 263.787 3.67578 264.357 3.67578ZM264.236 8.63574C263.159 8.63574 256.102 8.66788 247.358 9.43945C238.626 10.2101 228.164 11.7218 220.3 14.6973L220.295 14.6992C219.478 15.0189 218.748 15.5251 218.168 16.1768C217.588 16.8276 217.174 17.6051 216.959 18.4453C215.742 23.0752 214.304 31.5623 214.304 45.8877C214.304 60.2126 215.742 68.7009 216.975 73.3174C217.19 74.157 217.604 74.9336 218.184 75.584C218.764 76.2356 219.493 76.7419 220.31 77.0615L220.314 77.0635C228.484 80.1613 239.436 81.6761 248.349 82.4199C257.27 83.1644 264.2 83.1406 264.357 83.1406C264.509 83.1406 271.451 83.1635 280.382 82.4199C289.301 81.6774 300.256 80.1659 308.415 77.0781L308.421 77.0762C309.238 76.7565 309.967 76.2502 310.547 75.5986C311.126 74.9479 311.541 74.171 311.756 73.3311C312.973 68.7009 314.396 60.2433 314.396 45.9033C314.396 32.4592 313.132 24.159 311.971 19.3711L311.741 18.46C311.526 17.6198 311.112 16.8422 310.532 16.1914C309.952 15.5398 309.222 15.0335 308.405 14.7139L308.4 14.7129L307.627 14.4268C299.549 11.5207 288.996 10.0761 280.359 9.35547C271.432 8.61066 264.499 8.63574 264.357 8.63574H264.236ZM258.801 57.1387L259.575 56.6318L275.342 46.3066L275.98 45.8877L275.342 45.4697L259.575 35.1445L258.801 34.6377V57.1387ZM253.733 29.9941C253.733 29.5468 253.855 29.1069 254.09 28.7217C254.324 28.3364 254.662 28.0199 255.067 27.8066C255.473 27.5935 255.93 27.4919 256.39 27.5137C256.85 27.5355 257.295 27.6794 257.677 27.9297L281.948 43.8232H281.949C282.298 44.0504 282.583 44.3586 282.78 44.7188C282.977 45.0787 283.079 45.4803 283.079 45.8877C283.079 46.2953 282.977 46.6975 282.78 47.0576C282.583 47.4177 282.298 47.725 281.949 47.9521L281.948 47.9531L257.677 63.8457C257.295 64.0961 256.85 64.2409 256.39 64.2627C255.93 64.2845 255.472 64.1828 255.067 63.9697C254.662 63.7565 254.324 63.439 254.09 63.0537C253.856 62.6685 253.733 62.2286 253.733 61.7812V29.9941Z" fill="#6D2E46" stroke="#6D2E46"/>
<path id="Vector 12" d="M257.885 59.3968L255.458 32.3789L278.921 45.8878L257.885 59.3968Z" fill="#6D2E46" stroke="#6D2E46"/>
</g>
</g>
</svg>
