<svg width="2880" height="349" viewBox="0 0 2880 349" fill="none" xmlns="http://www.w3.org/2000/svg">
<g id="Group 381">
<rect id="Rectangle 8" width="2880" height="349" fill="#FFE57D"/>
<path id="Vector" d="M674.262 181.045C673.803 180.741 673.345 180.588 672.733 180.741C670.898 181.198 668.758 181.503 666.159 181.503C663.407 181.503 660.808 181.045 658.514 180.436C658.209 179.217 657.597 178.15 656.833 177.388C656.068 176.627 655.151 176.169 654.234 176.169C653.622 176.169 653.163 176.474 652.705 176.931C652.246 177.388 652.093 177.846 652.093 178.455C652.093 179.979 652.858 181.35 654.386 182.417V183.331C654.386 185.464 653.928 187.902 652.858 190.645C651.787 193.388 650.564 195.826 649.188 197.807C647.812 199.787 646.436 200.854 645.213 201.006C645.06 201.006 644.907 201.006 644.602 200.854C644.296 200.702 644.143 200.092 643.837 199.178C643.531 198.264 643.531 197.197 643.531 195.978C643.531 191.102 644.449 186.531 646.436 182.417C648.424 178.303 650.411 175.56 652.552 174.341H652.705C652.858 174.341 653.163 174.493 653.469 174.493C654.081 174.493 654.539 174.341 654.845 173.884C655.304 173.579 655.457 173.122 655.457 172.665C655.457 171.903 654.998 171.141 653.928 170.532C652.858 169.922 651.634 169.617 650.258 169.617C648.883 169.617 647.201 170.227 645.672 171.293C643.99 172.36 642.614 173.884 641.238 175.712C638.486 179.522 636.957 184.093 636.499 189.121C633.899 194.15 631.148 199.026 628.548 203.597C624.573 210.454 621.363 214.415 619.222 215.33C618.764 215.482 618.458 215.482 618.305 215.177C617.846 214.72 617.54 213.501 617.082 211.673C616.776 209.692 616.47 207.711 616.47 205.578C616.47 202.225 616.929 198.264 617.693 193.692C618.458 189.121 619.375 185.007 620.445 181.198C621.516 177.388 622.892 172.817 624.573 167.636C626.255 162.456 627.631 158.494 628.701 155.751C629.772 153.009 630.995 149.504 632.676 145.39C632.982 144.628 633.441 143.561 633.899 142.038C634.511 140.514 634.817 139.6 635.123 138.99C635.428 138.228 635.275 137.466 634.97 136.704C634.511 136.095 633.899 135.485 633.288 135.181C631.912 134.571 630.842 134.571 630.077 135.485C629.924 135.638 629.924 135.638 629.924 135.79C629.924 135.79 629.772 135.943 629.772 136.095C629.772 136.247 629.619 136.247 629.619 136.4V136.552C627.937 139.295 624.115 147.066 618.305 159.865C614.788 167.789 612.648 172.208 612.189 173.274C611.425 172.36 610.202 171.598 608.826 170.989C607.45 170.379 605.921 170.074 604.392 170.074C601.946 170.074 599.5 171.141 597.359 173.274C595.066 175.408 593.384 178.15 592.008 181.35C591.55 182.569 591.244 183.636 590.938 184.855C583.752 193.54 578.707 197.807 575.649 197.807C573.967 197.807 573.203 196.13 573.203 192.626C573.203 188.359 574.12 183.331 575.802 177.541C575.955 176.779 575.802 176.017 575.343 175.56C574.732 174.646 573.815 174.189 572.591 174.189H572.286C570.298 172.055 567.699 170.989 564.488 170.989C561.278 170.989 558.373 172.208 555.621 174.493C552.869 176.779 550.728 179.826 549.352 183.331C548.894 184.245 548.588 185.159 548.282 186.074C544.46 191.712 540.485 196.74 536.357 201.006C531.159 206.492 527.49 209.235 525.349 209.235C524.585 209.235 523.82 208.32 523.056 206.492C522.444 204.663 521.986 202.378 521.986 199.635C521.986 194.15 522.903 188.207 524.738 181.807C529.018 179.979 533.452 176.169 538.039 170.684C542.625 165.198 546.295 159.256 549.047 152.856C551.952 146.456 553.328 141.123 553.328 136.704C553.328 134.724 552.869 133.2 552.104 131.981C551.34 130.762 550.27 130.305 548.741 130.305C546.6 130.305 543.696 132.438 540.026 136.704C536.357 140.971 532.535 146.304 529.018 153.009C524.738 160.78 521.374 168.398 519.081 176.169C518.622 177.998 518.01 179.674 517.705 181.35C514.953 182.874 512.659 184.093 510.366 185.312C507.461 186.836 506.085 187.445 504.556 188.055C501.499 189.274 499.664 189.883 498.747 190.188C496.3 190.95 494.466 191.102 492.784 191.102C490.338 191.102 489.42 190.645 488.962 190.34C487.892 189.578 487.586 188.359 487.433 187.902C486.516 184.398 488.962 179.065 489.268 177.541C489.42 176.931 489.268 176.474 488.962 176.169C488.503 175.56 487.892 175.255 487.127 175.255H486.974C485.598 173.884 483.764 173.122 481.623 173.122C479.483 173.122 477.342 173.884 475.508 175.56C474.285 176.627 473.214 177.846 472.297 179.369C467.252 180.741 460.372 181.807 452.422 181.198C449.67 181.045 447.07 180.588 444.777 180.131C444.471 178.912 443.86 177.846 443.095 177.084C442.331 176.322 441.414 175.865 440.496 175.865C439.885 175.865 439.426 176.169 438.967 176.627C438.509 177.084 438.356 177.541 438.356 178.15C438.356 179.674 439.12 181.045 440.649 182.112V183.179C440.649 185.312 440.191 187.75 439.12 190.493C438.05 193.235 436.827 195.673 435.451 197.654C434.075 199.635 432.699 200.702 431.476 200.854C431.323 200.854 431.17 200.854 430.864 200.702C430.559 200.549 430.406 199.94 430.1 199.026C429.794 198.111 429.794 197.045 429.794 195.826C429.794 190.95 430.711 186.378 432.699 182.264C434.687 178.15 436.674 175.408 438.815 174.189H438.967C439.12 174.189 439.426 174.341 439.732 174.341C440.343 174.341 440.802 174.189 441.108 173.731C441.567 173.427 441.719 172.97 441.719 172.512C441.719 171.751 441.261 170.989 440.191 170.379C439.12 169.77 437.897 169.465 436.521 169.465C435.145 169.465 433.463 170.074 431.935 171.141C430.253 172.208 428.877 173.731 427.501 175.56C424.749 179.369 423.22 183.941 422.761 188.969C420.162 193.997 417.41 198.873 414.811 203.444C410.836 210.301 407.625 214.263 405.485 215.177C405.026 215.33 404.721 215.33 404.568 215.025C404.109 214.568 403.803 213.349 403.345 211.52C403.039 209.539 402.733 207.559 402.733 205.425C402.733 202.073 403.192 198.111 403.956 193.54C404.721 188.969 405.638 184.855 406.708 181.045C407.778 177.236 409.154 172.665 410.836 167.484C412.518 162.303 413.894 158.342 414.964 155.599C416.034 152.856 417.257 149.352 418.939 145.237C419.245 144.476 419.704 143.409 420.162 141.885C420.774 140.361 421.08 139.447 421.385 138.838C421.691 138.076 421.538 137.314 421.232 136.552C420.774 135.943 420.162 135.333 419.551 135.028C418.175 134.419 417.104 134.419 416.34 135.333C416.187 135.485 416.187 135.485 416.187 135.638C416.187 135.638 416.034 135.79 416.034 135.943C416.034 136.095 415.576 136.095 415.576 136.095V136.247C413.894 138.99 410.072 146.761 404.262 159.561C400.745 167.484 398.605 171.903 398.146 172.97C397.382 172.055 396.159 171.293 394.783 170.684C393.407 170.074 391.878 169.77 390.349 169.77C387.903 169.77 385.457 170.836 383.316 172.97C381.023 175.103 379.341 177.846 377.965 181.045C377.506 182.264 377.201 183.331 376.895 184.55C369.709 193.235 364.664 197.502 361.606 197.502C359.924 197.502 359.16 195.826 359.16 192.321C359.16 188.055 360.077 183.026 361.759 177.236C361.912 176.474 361.759 175.712 361.3 175.255C360.689 174.341 359.772 173.884 358.548 173.884H358.243C356.255 171.751 353.656 170.684 350.445 170.684C347.235 170.684 344.33 171.903 341.578 174.189C338.826 176.474 336.685 179.522 335.309 183.026C334.851 183.941 334.545 184.855 334.239 185.769C330.417 191.407 326.442 196.435 322.314 200.702C317.116 206.187 313.446 208.93 311.306 208.93C310.542 208.93 309.777 208.016 309.013 206.187C308.401 204.359 307.943 202.073 307.943 199.33C307.943 193.845 308.86 187.902 310.694 181.503C314.975 179.674 319.409 175.865 323.996 170.379C328.582 164.894 332.252 158.951 335.004 152.551C337.909 146.152 339.285 140.819 339.285 136.4C339.285 134.419 338.826 132.895 338.061 131.676C337.297 130.609 336.074 130 334.698 130C332.557 130 329.653 132.133 325.983 136.4C322.314 140.666 318.492 145.999 314.975 152.704C310.694 160.322 307.331 168.094 305.038 175.712C304.579 177.541 303.967 179.217 303.662 180.893C301.368 182.264 299.687 183.331 296.323 185.159C294.335 186.226 293.265 186.836 291.584 187.445C290.36 187.902 287.456 189.121 283.633 190.035C283.328 190.035 281.493 190.493 278.894 190.645C276.448 190.797 275.53 190.645 274.919 190.035C273.237 188.816 273.543 187.445 272.473 186.683C271.861 186.226 270.791 186.226 270.332 186.683C269.415 187.597 270.485 190.645 272.473 192.321C273.849 193.388 275.377 193.692 276.906 193.845C279.047 194.15 280.576 193.845 281.34 193.845C284.398 193.54 287.914 192.626 293.571 190.493C295.711 189.578 297.24 188.816 298.463 188.207C299.992 187.445 301.521 186.683 302.744 185.921C301.98 189.731 301.674 193.388 301.674 196.892C301.674 202.378 302.591 206.34 304.579 208.93C306.567 211.52 308.86 212.739 311.612 212.739C313.446 212.739 315.587 211.977 317.88 210.454C320.174 208.93 322.467 206.949 324.607 204.663C326.748 202.378 329.041 199.787 331.181 196.892C331.793 195.978 332.557 195.216 333.169 194.302C333.169 196.892 333.781 199.026 335.004 200.549C336.227 202.225 337.756 202.987 339.437 202.987C340.966 202.987 342.648 201.921 344.636 199.635C346.623 197.349 349.528 193.54 353.503 187.902V189.121C353.503 192.931 354.268 195.978 355.796 198.111C357.325 200.245 359.466 201.464 362.065 201.464C364.97 201.464 368.486 199.33 372.767 195.216C373.837 194.15 374.907 192.931 375.978 191.864C376.131 194.759 376.895 197.045 378.118 198.873C379.494 201.006 381.482 202.073 383.928 202.073C384.998 202.073 386.068 201.616 387.138 200.854C388.209 200.092 389.279 199.026 390.196 197.807C391.114 196.588 392.184 194.911 393.407 192.931C394.63 190.95 395.547 188.969 396.465 187.14C397.382 185.312 398.452 183.026 399.675 180.436C397.688 189.121 396.617 196.435 396.617 202.225C396.617 213.349 399.522 218.987 405.332 218.987C407.014 218.987 409.154 217.768 411.448 215.177C413.741 212.587 416.187 209.387 418.48 205.425C420.162 202.53 421.691 199.787 423.067 197.045C423.526 198.721 424.137 200.092 424.902 201.311C426.584 203.749 428.724 204.968 431.476 204.968C433.769 204.968 435.91 203.749 437.897 201.464C439.885 199.178 441.567 196.435 442.79 193.235C444.013 190.035 444.624 186.988 444.93 183.941C447.529 184.55 450.128 184.855 452.727 184.855C456.702 184.855 465.723 184.093 470.462 182.874C469.851 184.855 469.392 186.836 469.392 188.816C469.392 190.797 469.851 192.321 470.768 193.388C471.685 194.454 472.603 195.064 473.826 195.064C474.896 195.064 475.966 194.302 477.342 192.778C478.718 191.254 480.706 188.664 483.458 184.702V185.617C483.305 186.074 482.846 189.426 485.14 191.864C486.821 193.692 489.115 194.15 490.338 194.302C490.644 194.302 491.867 194.454 495.077 193.997C499.052 193.388 502.416 192.473 507.308 190.645C509.296 189.883 512.048 188.512 516.634 186.226C515.87 190.188 515.564 193.845 515.564 197.349C515.564 202.835 516.482 206.797 518.469 209.387C520.457 211.977 522.75 213.196 525.502 213.196C527.337 213.196 529.477 212.434 531.77 210.911C534.064 209.387 536.357 207.406 538.497 205.121C540.638 202.835 542.931 200.245 545.072 197.349C545.683 196.435 546.448 195.673 547.059 194.759C547.059 197.349 547.671 199.483 548.894 201.006C550.117 202.683 551.646 203.444 553.328 203.444C554.856 203.444 556.538 202.378 558.526 200.092C560.513 197.807 563.418 193.997 567.393 188.359V189.578C567.393 193.388 568.158 196.435 569.687 198.568C571.215 200.702 573.356 201.921 575.955 201.921C578.86 201.921 582.376 199.787 586.657 195.673C587.727 194.607 588.798 193.388 589.868 192.321C590.021 195.216 590.785 197.502 592.008 199.33C593.384 201.464 595.372 202.53 597.818 202.53C598.888 202.53 599.958 202.073 601.029 201.311C602.099 200.549 603.169 199.483 604.086 198.264C605.004 197.045 606.074 195.369 607.297 193.388C608.52 191.407 609.437 189.426 610.355 187.597C611.272 185.769 612.342 183.483 613.565 180.893C611.578 189.578 610.508 196.892 610.508 202.683C610.508 213.806 613.413 219.444 619.222 219.444C620.904 219.444 623.044 218.225 625.338 215.634C627.631 213.044 630.077 209.844 632.371 205.882C634.052 202.987 635.581 200.245 636.957 197.502C637.416 199.178 638.027 200.549 638.792 201.768C640.474 204.206 642.614 205.425 645.366 205.425C647.659 205.425 649.8 204.206 651.787 201.921C653.775 199.635 655.457 196.892 656.68 193.692C657.903 190.493 658.514 187.445 658.82 184.398C661.419 185.007 664.018 185.312 666.617 185.312C672.121 185.312 674.873 184.398 674.873 182.569C674.873 181.807 674.721 181.35 674.262 181.045ZM323.384 151.637C327.971 143.866 331.793 138.533 335.004 135.638C335.309 139.142 334.392 143.714 331.946 149.199C329.653 154.685 326.595 159.865 322.926 164.741C319.256 169.617 315.74 173.427 312.223 176.017C315.281 167.484 318.95 159.408 323.384 151.637ZM353.809 178.455C353.35 179.217 352.892 179.826 352.586 180.131C346.012 189.883 341.884 195.521 339.896 197.045C340.049 193.692 340.966 190.34 342.495 186.988C344.024 183.636 345.859 180.893 347.846 178.912C349.834 176.931 351.821 175.865 353.503 175.865C354.115 175.865 354.573 176.322 354.726 176.931C354.726 177.084 354.42 177.693 353.809 178.455ZM383.775 197.654C383.622 197.807 383.469 197.807 383.469 197.654C383.01 197.197 382.858 195.826 382.858 193.54C382.858 190.645 383.469 187.75 384.692 184.702C385.915 181.655 387.291 179.217 388.82 177.236C390.349 175.408 391.725 174.341 392.948 174.341C393.56 174.341 394.018 174.493 394.324 174.798C394.783 175.103 395.089 175.408 395.241 175.712C395.394 176.017 395.7 176.322 396.006 176.931C396.006 176.931 396.006 176.931 396.006 177.084C389.89 189.883 385.762 196.74 383.775 197.654ZM483.764 178.15C483.458 178.607 483.152 179.065 482.999 179.369C478.413 186.074 475.508 189.883 474.285 190.95C474.437 188.664 475.049 186.378 476.119 184.093C477.189 181.807 478.413 179.979 479.789 178.607C481.164 177.236 482.54 176.474 483.611 176.474C484.069 176.474 484.375 176.779 484.528 177.236C484.375 177.236 484.222 177.693 483.764 178.15ZM537.274 151.942C541.861 144.171 545.683 138.838 548.894 135.943C549.2 139.447 548.282 144.018 545.836 149.504C543.543 154.989 540.485 160.17 536.816 165.046C533.146 169.922 529.63 173.731 526.114 176.322C529.018 167.789 532.841 159.713 537.274 151.942ZM567.699 178.76C567.24 179.522 566.782 180.131 566.476 180.436C559.902 190.188 555.621 195.826 553.786 197.349C553.939 193.997 554.856 190.645 556.385 187.293C557.914 183.941 559.749 181.198 561.736 179.217C563.724 177.236 565.711 176.169 567.393 176.169C568.005 176.169 568.463 176.627 568.616 177.236C568.616 177.388 568.311 177.998 567.699 178.76ZM597.512 197.959C597.359 198.111 597.206 198.111 597.206 197.959C596.748 197.502 596.595 196.13 596.595 193.845C596.595 190.95 597.206 188.055 598.429 185.007C599.653 181.96 601.029 179.522 602.557 177.541C604.086 175.712 605.462 174.646 606.685 174.646C607.297 174.646 607.756 174.798 608.061 175.103C608.52 175.408 608.826 175.712 608.979 176.017C609.132 176.322 609.437 176.627 609.743 177.236C609.743 177.236 609.743 177.236 609.743 177.388C603.781 190.34 599.653 197.045 597.512 197.959Z" fill="black"/>
<path id="2025" d="M1396.88 188C1396.61 188 1396.39 187.92 1396.2 187.76C1396.04 187.573 1395.96 187.347 1395.96 187.08V185.8C1395.96 185.56 1396.03 185.293 1396.16 185C1396.29 184.707 1396.56 184.387 1396.96 184.04L1405.44 175.56C1406.8 174.413 1407.87 173.44 1408.64 172.64C1409.44 171.813 1410 171.027 1410.32 170.28C1410.67 169.533 1410.84 168.76 1410.84 167.96C1410.84 166.44 1410.41 165.24 1409.56 164.36C1408.71 163.453 1407.44 163 1405.76 163C1404.69 163 1403.77 163.227 1403 163.68C1402.23 164.107 1401.61 164.707 1401.16 165.48C1400.73 166.227 1400.45 167.08 1400.32 168.04C1400.27 168.387 1400.12 168.627 1399.88 168.76C1399.67 168.893 1399.47 168.96 1399.28 168.96H1397.2C1396.96 168.96 1396.76 168.893 1396.6 168.76C1396.44 168.6 1396.36 168.413 1396.36 168.2C1396.39 167.187 1396.6 166.173 1397 165.16C1397.4 164.12 1397.99 163.187 1398.76 162.36C1399.56 161.533 1400.53 160.867 1401.68 160.36C1402.85 159.827 1404.21 159.56 1405.76 159.56C1407.87 159.56 1409.59 159.947 1410.92 160.72C1412.28 161.467 1413.28 162.467 1413.92 163.72C1414.56 164.973 1414.88 166.347 1414.88 167.84C1414.88 169.013 1414.68 170.093 1414.28 171.08C1413.88 172.04 1413.29 172.987 1412.52 173.92C1411.77 174.827 1410.84 175.76 1409.72 176.72L1402.04 184.52H1414.52C1414.81 184.52 1415.04 184.6 1415.2 184.76C1415.39 184.92 1415.48 185.147 1415.48 185.44V187.08C1415.48 187.347 1415.39 187.573 1415.2 187.76C1415.04 187.92 1414.81 188 1414.52 188H1396.88ZM1430.16 188.4C1428.32 188.4 1426.76 188.12 1425.48 187.56C1424.22 186.973 1423.2 186.173 1422.4 185.16C1421.6 184.147 1421.01 182.987 1420.64 181.68C1420.29 180.373 1420.09 178.987 1420.04 177.52C1420.01 176.8 1419.98 176.04 1419.96 175.24C1419.96 174.44 1419.96 173.64 1419.96 172.84C1419.98 172.013 1420.01 171.227 1420.04 170.48C1420.06 169.013 1420.26 167.627 1420.64 166.32C1421.04 164.987 1421.62 163.827 1422.4 162.84C1423.2 161.827 1424.24 161.04 1425.52 160.48C1426.8 159.893 1428.34 159.6 1430.16 159.6C1432 159.6 1433.54 159.893 1434.8 160.48C1436.08 161.04 1437.12 161.827 1437.92 162.84C1438.72 163.827 1439.3 164.987 1439.68 166.32C1440.08 167.627 1440.29 169.013 1440.32 170.48C1440.34 171.227 1440.36 172.013 1440.36 172.84C1440.38 173.64 1440.38 174.44 1440.36 175.24C1440.36 176.04 1440.34 176.8 1440.32 177.52C1440.29 178.987 1440.08 180.373 1439.68 181.68C1439.3 182.987 1438.72 184.147 1437.92 185.16C1437.14 186.173 1436.12 186.973 1434.84 187.56C1433.58 188.12 1432.02 188.4 1430.16 188.4ZM1430.16 185C1432.24 185 1433.77 184.32 1434.76 182.96C1435.77 181.573 1436.29 179.693 1436.32 177.32C1436.37 176.547 1436.4 175.8 1436.4 175.08C1436.4 174.333 1436.4 173.6 1436.4 172.88C1436.4 172.133 1436.37 171.4 1436.32 170.68C1436.29 168.36 1435.77 166.507 1434.76 165.12C1433.77 163.707 1432.24 163 1430.16 163C1428.1 163 1426.57 163.707 1425.56 165.12C1424.57 166.507 1424.05 168.36 1424 170.68C1424 171.4 1423.98 172.133 1423.96 172.88C1423.96 173.6 1423.96 174.333 1423.96 175.08C1423.98 175.8 1424 176.547 1424 177.32C1424.05 179.693 1424.58 181.573 1425.6 182.96C1426.61 184.32 1428.13 185 1430.16 185ZM1445.75 188C1445.48 188 1445.25 187.92 1445.07 187.76C1444.91 187.573 1444.83 187.347 1444.83 187.08V185.8C1444.83 185.56 1444.89 185.293 1445.03 185C1445.16 184.707 1445.43 184.387 1445.83 184.04L1454.31 175.56C1455.67 174.413 1456.73 173.44 1457.51 172.64C1458.31 171.813 1458.87 171.027 1459.19 170.28C1459.53 169.533 1459.71 168.76 1459.71 167.96C1459.71 166.44 1459.28 165.24 1458.43 164.36C1457.57 163.453 1456.31 163 1454.63 163C1453.56 163 1452.64 163.227 1451.87 163.68C1451.09 164.107 1450.48 164.707 1450.03 165.48C1449.6 166.227 1449.32 167.08 1449.19 168.04C1449.13 168.387 1448.99 168.627 1448.75 168.76C1448.53 168.893 1448.33 168.96 1448.15 168.96H1446.07C1445.83 168.96 1445.63 168.893 1445.47 168.76C1445.31 168.6 1445.23 168.413 1445.23 168.2C1445.25 167.187 1445.47 166.173 1445.87 165.16C1446.27 164.12 1446.85 163.187 1447.63 162.36C1448.43 161.533 1449.4 160.867 1450.55 160.36C1451.72 159.827 1453.08 159.56 1454.63 159.56C1456.73 159.56 1458.45 159.947 1459.79 160.72C1461.15 161.467 1462.15 162.467 1462.79 163.72C1463.43 164.973 1463.75 166.347 1463.75 167.84C1463.75 169.013 1463.55 170.093 1463.15 171.08C1462.75 172.04 1462.16 172.987 1461.39 173.92C1460.64 174.827 1459.71 175.76 1458.59 176.72L1450.91 184.52H1463.39C1463.68 184.52 1463.91 184.6 1464.07 184.76C1464.25 184.92 1464.35 185.147 1464.35 185.44V187.08C1464.35 187.347 1464.25 187.573 1464.07 187.76C1463.91 187.92 1463.68 188 1463.39 188H1445.75ZM1478.02 188.4C1475.92 188.4 1474.13 188.04 1472.66 187.32C1471.22 186.573 1470.12 185.613 1469.34 184.44C1468.6 183.267 1468.2 182.027 1468.14 180.72C1468.12 180.48 1468.18 180.293 1468.34 180.16C1468.5 180.027 1468.7 179.96 1468.94 179.96H1471.1C1471.34 179.96 1471.56 180.013 1471.74 180.12C1471.93 180.227 1472.08 180.453 1472.18 180.8C1472.45 181.787 1472.88 182.6 1473.46 183.24C1474.08 183.853 1474.77 184.307 1475.54 184.6C1476.34 184.867 1477.17 185 1478.02 185C1479.17 185 1480.21 184.773 1481.14 184.32C1482.1 183.84 1482.86 183.147 1483.42 182.24C1483.98 181.307 1484.26 180.187 1484.26 178.88C1484.26 177.68 1483.98 176.653 1483.42 175.8C1482.89 174.92 1482.14 174.253 1481.18 173.8C1480.25 173.32 1479.2 173.08 1478.02 173.08C1477.14 173.08 1476.42 173.187 1475.86 173.4C1475.3 173.613 1474.82 173.867 1474.42 174.16C1474.05 174.453 1473.7 174.707 1473.38 174.92C1473.09 175.133 1472.76 175.24 1472.38 175.24H1470.3C1470.06 175.24 1469.85 175.16 1469.66 175C1469.48 174.813 1469.4 174.6 1469.42 174.36L1470.7 161C1470.73 160.68 1470.82 160.44 1470.98 160.28C1471.17 160.093 1471.41 160 1471.7 160H1485.66C1485.93 160 1486.14 160.093 1486.3 160.28C1486.49 160.44 1486.58 160.653 1486.58 160.92V162.48C1486.58 162.773 1486.49 163 1486.3 163.16C1486.14 163.32 1485.93 163.4 1485.66 163.4H1474.14L1473.38 171.28C1473.76 171.04 1474.36 170.76 1475.18 170.44C1476.01 170.093 1477.14 169.92 1478.58 169.92C1479.89 169.92 1481.12 170.12 1482.26 170.52C1483.44 170.92 1484.48 171.507 1485.38 172.28C1486.29 173.053 1487 174 1487.5 175.12C1488.01 176.213 1488.26 177.48 1488.26 178.92C1488.26 180.947 1487.81 182.667 1486.9 184.08C1486.02 185.493 1484.81 186.573 1483.26 187.32C1481.74 188.04 1480 188.4 1478.02 188.4Z" fill="black"/>
<g id="Group 111">
<g id="Group">
<path id="Vector_2" d="M2596.76 149H2570.76C2563.58 149 2557.76 154.82 2557.76 162V188C2557.76 195.18 2563.58 201 2570.76 201H2596.76C2603.94 201 2609.76 195.18 2609.76 188V162C2609.76 154.82 2603.94 149 2596.76 149Z" stroke="black" stroke-width="5.28667" stroke-linecap="round" stroke-linejoin="round"/>
<path id="Vector_3" d="M2598.06 160.699H2598.09M2594.16 173.361C2594.48 175.525 2594.11 177.735 2593.11 179.677C2592.1 181.618 2590.5 183.193 2588.55 184.176C2586.6 185.16 2584.38 185.502 2582.22 185.155C2580.06 184.807 2578.07 183.787 2576.52 182.241C2574.97 180.694 2573.95 178.699 2573.61 176.539C2573.26 174.379 2573.6 172.165 2574.59 170.211C2575.57 168.257 2577.14 166.663 2579.08 165.655C2581.03 164.648 2583.24 164.278 2585.4 164.599C2587.61 164.927 2589.65 165.955 2591.23 167.533C2592.81 169.111 2593.84 171.154 2594.16 173.361Z" stroke="black" stroke-width="5.28667" stroke-linecap="round" stroke-linejoin="round"/>
</g>
<g id="Group_2">
<path id="Vector_4" d="M2301 181.397C2301 181.397 2313.6 178.597 2326.2 184.197M2299.6 172.997C2299.6 172.997 2316.4 168.797 2330.4 177.197M2298.2 164.597C2306.6 163.197 2320.6 161.797 2334.6 170.197" stroke="black" stroke-width="4.2" stroke-linecap="round" stroke-linejoin="round"/>
<path id="Vector_5" d="M2315 201C2299.54 201 2287 188.464 2287 173C2287 157.536 2299.54 145 2315 145C2330.46 145 2343 157.536 2343 173C2343 188.464 2330.46 201 2315 201Z" stroke="black" stroke-width="4.2" stroke-linecap="round" stroke-linejoin="round"/>
</g>
<g id="Group 110">
<path id="Vector_6" d="M2461.42 172.313L2446.42 162.313C2446.13 162.124 2445.8 162.016 2445.47 161.999C2445.13 161.983 2444.79 162.059 2444.49 162.22C2444.19 162.38 2443.94 162.619 2443.77 162.91C2443.59 163.202 2443.5 163.535 2443.5 163.875V183.875C2443.5 184.215 2443.59 184.548 2443.77 184.84C2443.94 185.131 2444.19 185.37 2444.49 185.53C2444.79 185.691 2445.13 185.767 2445.47 185.751C2445.8 185.734 2446.13 185.626 2446.42 185.438L2461.42 175.438C2461.67 175.267 2461.88 175.034 2462.03 174.762C2462.18 174.489 2462.25 174.184 2462.25 173.875C2462.25 173.566 2462.18 173.261 2462.03 172.988C2461.88 172.716 2461.67 172.484 2461.42 172.313ZM2447.25 180.372V167.378L2456.99 173.875L2447.25 180.372ZM2483 155.75C2482.73 154.696 2482.21 153.721 2481.49 152.907C2480.77 152.092 2479.86 151.46 2478.85 151.063C2468.19 146.934 2451.08 147 2450.38 147C2449.67 147 2432.56 146.934 2421.89 151.063C2420.88 151.461 2419.97 152.094 2419.26 152.909C2418.54 153.724 2418.02 154.697 2417.75 155.75C2416.95 158.841 2416 164.5 2416 173.875C2416 183.25 2416.95 188.909 2417.75 192C2418.02 193.054 2418.54 194.029 2419.26 194.844C2419.98 195.659 2420.89 196.291 2421.9 196.688C2432.56 200.816 2449.66 200.75 2450.38 200.75H2450.6C2452.76 200.75 2468.72 200.613 2478.86 196.688C2479.88 196.291 2480.78 195.659 2481.5 194.844C2482.22 194.029 2482.74 193.054 2483.01 192C2483.81 188.916 2484.76 183.272 2484.76 173.875C2484.76 164.478 2483.81 158.841 2483 155.75ZM2479.37 191.063C2479.25 191.543 2479.02 191.988 2478.69 192.36C2478.36 192.733 2477.95 193.023 2477.49 193.206C2467.49 197.059 2450.56 197 2450.38 197C2450.19 197 2433.28 197.063 2423.27 193.197C2422.81 193.014 2422.4 192.724 2422.07 192.351C2421.74 191.978 2421.51 191.534 2421.39 191.053C2420.64 188.181 2419.75 182.869 2419.75 173.875C2419.75 164.881 2420.64 159.569 2421.38 156.688C2421.5 156.207 2421.73 155.762 2422.06 155.39C2422.39 155.017 2422.8 154.727 2423.26 154.544C2432.89 150.831 2448.98 150.75 2450.3 150.75H2450.38C2450.54 150.75 2467.47 150.688 2477.48 154.553C2477.94 154.736 2478.35 155.026 2478.68 155.399C2479.01 155.772 2479.24 156.217 2479.36 156.697C2480.1 159.569 2480.99 164.881 2480.99 173.884C2480.99 182.888 2480.11 188.181 2479.37 191.063Z" fill="black"/>
<path id="Vector 12" d="M2446.38 182.375L2444.88 165.375L2459.38 173.875L2446.38 182.375Z" fill="black"/>
</g>
</g>
</g>
</svg>
