<svg width="456" height="98" viewBox="0 0 456 98" fill="none" xmlns="http://www.w3.org/2000/svg">
<g id="Group 379">
<path id="mar&#195;&#167;o - F&#195;&#161;tima 19 de junho - Lisboa" d="M26.2521 29C25.6221 29 25.0387 28.8483 24.5021 28.545C23.9654 28.2183 23.5337 27.7867 23.2071 27.25C22.9037 26.7133 22.7521 26.13 22.7521 25.5C22.7521 24.8467 22.9037 24.2633 23.2071 23.75C23.5337 23.2133 23.9654 22.7933 24.5021 22.49C25.0387 22.1633 25.6221 22 26.2521 22C26.9054 22 27.4887 22.1633 28.0021 22.49C28.5387 22.7933 28.9587 23.2133 29.2621 23.75C29.5887 24.2633 29.7521 24.8467 29.7521 25.5C29.7521 26.13 29.5887 26.7133 29.2621 27.25C28.9587 27.7867 28.5387 28.2183 28.0021 28.545C27.4887 28.8483 26.9054 29 26.2521 29ZM56.105 36C55.8717 36 55.685 35.93 55.545 35.79C55.405 35.65 55.335 35.4633 55.335 35.23V18.57C55.335 18.3367 55.405 18.15 55.545 18.01C55.685 17.87 55.8717 17.8 56.105 17.8H56.7C56.9333 17.8 57.12 17.87 57.26 18.01C57.4 18.15 57.47 18.3367 57.47 18.57V19.795C58.0533 19.0483 58.7417 18.4767 59.535 18.08C60.3517 17.66 61.3317 17.45 62.475 17.45C65.0883 17.45 66.955 18.5467 68.075 20.74C68.6117 19.7367 69.3933 18.9433 70.42 18.36C71.47 17.7533 72.6717 17.45 74.025 17.45C75.2617 17.45 76.37 17.7417 77.35 18.325C78.3533 18.885 79.135 19.725 79.695 20.845C80.2783 21.965 80.57 23.365 80.57 25.045V35.23C80.57 35.4633 80.5 35.65 80.36 35.79C80.22 35.93 80.0333 36 79.8 36H79.205C78.9717 36 78.785 35.93 78.645 35.79C78.505 35.65 78.435 35.4633 78.435 35.23V25.395C78.435 23.855 78.2133 22.665 77.77 21.825C77.3267 20.9617 76.7433 20.355 76.02 20.005C75.2967 19.655 74.515 19.48 73.675 19.48C72.975 19.48 72.2633 19.655 71.54 20.005C70.8167 20.355 70.21 20.9617 69.72 21.825C69.2533 22.665 69.02 23.855 69.02 25.395V35.23C69.02 35.4633 68.95 35.65 68.81 35.79C68.67 35.93 68.4833 36 68.25 36H67.655C67.4217 36 67.235 35.93 67.095 35.79C66.955 35.65 66.885 35.4633 66.885 35.23V25.395C66.885 23.855 66.6517 22.665 66.185 21.825C65.7183 20.9617 65.1233 20.355 64.4 20.005C63.6767 19.655 62.9183 19.48 62.125 19.48C61.425 19.48 60.7133 19.655 59.99 20.005C59.2667 20.355 58.66 20.9617 58.17 21.825C57.7033 22.665 57.47 23.8433 57.47 25.36V35.23C57.47 35.4633 57.4 35.65 57.26 35.79C57.12 35.93 56.9333 36 56.7 36H56.105ZM90.9625 36.35C89.8425 36.35 88.8042 36.1167 87.8475 35.65C86.9142 35.1833 86.1559 34.565 85.5725 33.795C84.9892 33.0017 84.6975 32.115 84.6975 31.135C84.6975 29.5483 85.3392 28.2767 86.6225 27.32C87.9059 26.3633 89.5742 25.745 91.6275 25.465L97.1575 24.695V23.47C97.1575 22.2333 96.7725 21.265 96.0025 20.565C95.2559 19.8417 94.0542 19.48 92.3975 19.48C91.1842 19.48 90.2042 19.725 89.4575 20.215C88.7109 20.6817 88.1975 21.3 87.9175 22.07C87.8009 22.42 87.5792 22.595 87.2525 22.595H86.6925C86.4125 22.595 86.2142 22.525 86.0975 22.385C85.9809 22.2217 85.9225 22.035 85.9225 21.825C85.9225 21.4983 86.0392 21.09 86.2725 20.6C86.5292 20.11 86.9142 19.6317 87.4275 19.165C87.9409 18.675 88.6059 18.2667 89.4225 17.94C90.2392 17.6133 91.2309 17.45 92.3975 17.45C93.7742 17.45 94.9059 17.6367 95.7925 18.01C96.7025 18.3833 97.4025 18.8733 97.8925 19.48C98.4059 20.0633 98.7675 20.7167 98.9775 21.44C99.1875 22.1633 99.2925 22.875 99.2925 23.575V35.23C99.2925 35.4633 99.2225 35.65 99.0825 35.79C98.9425 35.93 98.7559 36 98.5225 36H97.9275C97.6942 36 97.5075 35.93 97.3675 35.79C97.2275 35.65 97.1575 35.4633 97.1575 35.23V33.585C96.8775 34.005 96.4809 34.425 95.9675 34.845C95.4542 35.265 94.7892 35.6267 93.9725 35.93C93.1792 36.21 92.1759 36.35 90.9625 36.35ZM91.3125 34.32C92.3859 34.32 93.3659 34.0867 94.2525 33.62C95.1392 33.1533 95.8392 32.4417 96.3525 31.485C96.8892 30.505 97.1575 29.28 97.1575 27.81V26.62L92.6425 27.25C90.7292 27.5067 89.2825 27.95 88.3025 28.58C87.3225 29.21 86.8325 30.0033 86.8325 30.96C86.8325 31.73 87.0542 32.36 87.4975 32.85C87.9409 33.34 88.5009 33.7133 89.1775 33.97C89.8775 34.2033 90.5892 34.32 91.3125 34.32ZM105.597 36C105.364 36 105.177 35.93 105.037 35.79C104.897 35.65 104.827 35.4633 104.827 35.23V18.605C104.827 18.3717 104.897 18.185 105.037 18.045C105.177 17.8817 105.364 17.8 105.597 17.8H106.157C106.391 17.8 106.577 17.8817 106.717 18.045C106.881 18.185 106.962 18.3717 106.962 18.605V20.215C107.382 19.3983 107.989 18.7917 108.782 18.395C109.576 17.9983 110.556 17.8 111.722 17.8H113.017C113.251 17.8 113.437 17.87 113.577 18.01C113.717 18.15 113.787 18.3367 113.787 18.57V19.06C113.787 19.2933 113.717 19.48 113.577 19.62C113.437 19.76 113.251 19.83 113.017 19.83H111.512C110.112 19.83 109.004 20.2383 108.187 21.055C107.371 21.8717 106.962 22.98 106.962 24.38V35.23C106.962 35.4633 106.881 35.65 106.717 35.79C106.577 35.93 106.391 36 106.157 36H105.597ZM123.375 43.7C122.722 43.6767 122.138 43.5483 121.625 43.315C121.135 43.105 120.773 42.86 120.54 42.58C120.33 42.3 120.318 42.0783 120.505 41.915L120.995 41.46C121.205 41.2733 121.392 41.2383 121.555 41.355C121.718 41.4717 121.928 41.6233 122.185 41.81C122.465 41.9967 122.862 42.09 123.375 42.09C123.772 42.09 124.122 41.9617 124.425 41.705C124.728 41.4717 124.88 41.1333 124.88 40.69C124.88 40.27 124.728 39.9433 124.425 39.71C124.122 39.4767 123.772 39.36 123.375 39.36C123.002 39.36 122.687 39.4067 122.43 39.5C122.197 39.6167 121.987 39.6867 121.8 39.71C121.637 39.7567 121.462 39.6867 121.275 39.5L120.715 38.905C120.598 38.765 120.575 38.59 120.645 38.38C120.738 38.1933 120.82 38.0183 120.89 37.855L121.625 36.175C119.758 35.8483 118.323 34.9967 117.32 33.62C116.317 32.2433 115.792 30.47 115.745 28.3C115.722 27.95 115.71 27.4833 115.71 26.9C115.71 26.3167 115.722 25.85 115.745 25.5C115.792 23.82 116.107 22.385 116.69 21.195C117.297 19.9817 118.172 19.06 119.315 18.43C120.458 17.7767 121.847 17.45 123.48 17.45C124.717 17.45 125.778 17.625 126.665 17.975C127.575 18.3017 128.322 18.745 128.905 19.305C129.488 19.8417 129.932 20.4367 130.235 21.09C130.538 21.7433 130.702 22.385 130.725 23.015C130.748 23.2483 130.678 23.435 130.515 23.575C130.352 23.715 130.165 23.785 129.955 23.785H129.465C129.232 23.785 129.057 23.7383 128.94 23.645C128.847 23.5283 128.742 23.33 128.625 23.05C128.135 21.72 127.458 20.7983 126.595 20.285C125.755 19.7483 124.717 19.48 123.48 19.48C121.893 19.48 120.575 19.97 119.525 20.95C118.498 21.9067 117.95 23.4817 117.88 25.675C117.833 26.4917 117.833 27.3083 117.88 28.125C117.95 30.3183 118.498 31.905 119.525 32.885C120.575 33.8417 121.893 34.32 123.48 34.32C124.717 34.32 125.755 34.0633 126.595 33.55C127.458 33.0133 128.135 32.08 128.625 30.75C128.742 30.47 128.847 30.2833 128.94 30.19C129.057 30.0733 129.232 30.015 129.465 30.015H129.955C130.165 30.015 130.352 30.085 130.515 30.225C130.678 30.365 130.748 30.5517 130.725 30.785C130.702 31.415 130.538 32.0567 130.235 32.71C129.932 33.3633 129.488 33.97 128.905 34.53C128.322 35.0667 127.575 35.51 126.665 35.86C125.778 36.1867 124.717 36.35 123.48 36.35L122.675 38.03C122.815 37.9367 123.002 37.8667 123.235 37.82C123.492 37.7733 123.748 37.75 124.005 37.75C124.775 37.75 125.405 38.0183 125.895 38.555C126.408 39.0917 126.665 39.78 126.665 40.62C126.665 41.46 126.385 42.1833 125.825 42.79C125.288 43.42 124.472 43.7233 123.375 43.7ZM142.28 36.35C140.6 36.35 139.188 36 138.045 35.3C136.925 34.6 136.061 33.6433 135.455 32.43C134.871 31.2167 134.556 29.8633 134.51 28.37C134.486 28.02 134.475 27.53 134.475 26.9C134.475 26.27 134.486 25.78 134.51 25.43C134.556 23.9133 134.871 22.56 135.455 21.37C136.061 20.1567 136.925 19.2 138.045 18.5C139.188 17.8 140.6 17.45 142.28 17.45C143.96 17.45 145.36 17.8 146.48 18.5C147.623 19.2 148.486 20.1567 149.07 21.37C149.676 22.56 150.003 23.9133 150.05 25.43C150.073 25.78 150.085 26.27 150.085 26.9C150.085 27.53 150.073 28.02 150.05 28.37C150.003 29.8633 149.676 31.2167 149.07 32.43C148.486 33.6433 147.623 34.6 146.48 35.3C145.36 36 143.96 36.35 142.28 36.35ZM142.28 34.32C143.913 34.32 145.243 33.795 146.27 32.745C147.296 31.695 147.845 30.1783 147.915 28.195C147.938 27.845 147.95 27.4133 147.95 26.9C147.95 26.3867 147.938 25.955 147.915 25.605C147.845 23.5983 147.296 22.0817 146.27 21.055C145.243 20.005 143.913 19.48 142.28 19.48C140.646 19.48 139.316 20.005 138.29 21.055C137.263 22.0817 136.715 23.5983 136.645 25.605C136.621 25.955 136.61 26.3867 136.61 26.9C136.61 27.4133 136.621 27.845 136.645 28.195C136.715 30.1783 137.263 31.695 138.29 32.745C139.316 33.795 140.646 34.32 142.28 34.32ZM164.415 26.515C164.181 26.515 163.995 26.445 163.855 26.305C163.715 26.165 163.645 25.9783 163.645 25.745V25.255C163.645 25.0217 163.715 24.835 163.855 24.695C163.995 24.555 164.181 24.485 164.415 24.485H174.74C174.973 24.485 175.16 24.555 175.3 24.695C175.44 24.835 175.51 25.0217 175.51 25.255V25.745C175.51 25.9783 175.44 26.165 175.3 26.305C175.16 26.445 174.973 26.515 174.74 26.515H164.415ZM191.194 36C190.96 36 190.774 35.93 190.634 35.79C190.494 35.65 190.424 35.4633 190.424 35.23V12.305C190.424 12.0483 190.494 11.85 190.634 11.71C190.774 11.57 190.96 11.5 191.194 11.5H204.704C204.96 11.5 205.159 11.57 205.299 11.71C205.439 11.85 205.509 12.0483 205.509 12.305V12.83C205.509 13.0633 205.439 13.25 205.299 13.39C205.159 13.53 204.96 13.6 204.704 13.6H192.629V23.015H204.004C204.26 23.015 204.459 23.085 204.599 23.225C204.739 23.365 204.809 23.5633 204.809 23.82V24.345C204.809 24.5783 204.739 24.765 204.599 24.905C204.459 25.045 204.26 25.115 204.004 25.115H192.629V35.23C192.629 35.4633 192.559 35.65 192.419 35.79C192.279 35.93 192.08 36 191.824 36H191.194ZM213.702 36.35C212.582 36.35 211.543 36.1167 210.587 35.65C209.653 35.1833 208.895 34.565 208.312 33.795C207.728 33.0017 207.437 32.115 207.437 31.135C207.437 29.5483 208.078 28.2767 209.362 27.32C210.645 26.3633 212.313 25.745 214.367 25.465L219.897 24.695V23.47C219.897 22.2333 219.512 21.265 218.742 20.565C217.995 19.8417 216.793 19.48 215.137 19.48C213.923 19.48 212.943 19.725 212.197 20.215C211.45 20.6817 210.937 21.3 210.657 22.07C210.54 22.42 210.318 22.595 209.992 22.595H209.432C209.152 22.595 208.953 22.525 208.837 22.385C208.72 22.2217 208.662 22.035 208.662 21.825C208.662 21.4983 208.778 21.09 209.012 20.6C209.268 20.11 209.653 19.6317 210.167 19.165C210.68 18.675 211.345 18.2667 212.162 17.94C212.978 17.6133 213.97 17.45 215.137 17.45C216.513 17.45 217.645 17.6367 218.532 18.01C219.442 18.3833 220.142 18.8733 220.632 19.48C221.145 20.0633 221.507 20.7167 221.717 21.44C221.927 22.1633 222.032 22.875 222.032 23.575V35.23C222.032 35.4633 221.962 35.65 221.822 35.79C221.682 35.93 221.495 36 221.262 36H220.667C220.433 36 220.247 35.93 220.107 35.79C219.967 35.65 219.897 35.4633 219.897 35.23V33.585C219.617 34.005 219.22 34.425 218.707 34.845C218.193 35.265 217.528 35.6267 216.712 35.93C215.918 36.21 214.915 36.35 213.702 36.35ZM214.052 34.32C215.125 34.32 216.105 34.0867 216.992 33.62C217.878 33.1533 218.578 32.4417 219.092 31.485C219.628 30.505 219.897 29.28 219.897 27.81V26.62L215.382 27.25C213.468 27.5067 212.022 27.95 211.042 28.58C210.062 29.21 209.572 30.0033 209.572 30.96C209.572 31.73 209.793 32.36 210.237 32.85C210.68 33.34 211.24 33.7133 211.917 33.97C212.617 34.2033 213.328 34.32 214.052 34.32ZM214.752 15.175C214.378 15.175 214.192 14.9883 214.192 14.615C214.192 14.4283 214.25 14.2767 214.367 14.16L216.782 11.255C216.968 11.0217 217.143 10.8583 217.307 10.765C217.47 10.6717 217.727 10.625 218.077 10.625H219.512C219.955 10.625 220.177 10.8467 220.177 11.29C220.177 11.4533 220.118 11.5933 220.002 11.71L216.187 14.825C216 14.9883 215.825 15.0933 215.662 15.14C215.522 15.1633 215.335 15.175 215.102 15.175H214.752ZM233.521 36C232.307 36 231.351 35.7433 230.651 35.23C229.951 34.7167 229.461 34.0167 229.181 33.13C228.901 32.2433 228.761 31.2517 228.761 30.155V19.83H226.031C225.797 19.83 225.611 19.76 225.471 19.62C225.331 19.48 225.261 19.2933 225.261 19.06V18.57C225.261 18.3367 225.331 18.15 225.471 18.01C225.611 17.87 225.797 17.8 226.031 17.8H228.761V11.92C228.761 11.6867 228.831 11.5 228.971 11.36C229.111 11.22 229.297 11.15 229.531 11.15H230.126C230.359 11.15 230.546 11.22 230.686 11.36C230.826 11.5 230.896 11.6867 230.896 11.92V17.8H235.236C235.469 17.8 235.656 17.87 235.796 18.01C235.936 18.15 236.006 18.3367 236.006 18.57V19.06C236.006 19.2933 235.936 19.48 235.796 19.62C235.656 19.76 235.469 19.83 235.236 19.83H230.896V30.015C230.896 31.2517 231.094 32.22 231.491 32.92C231.911 33.62 232.646 33.97 233.696 33.97H235.586C235.819 33.97 236.006 34.04 236.146 34.18C236.286 34.32 236.356 34.5067 236.356 34.74V35.23C236.356 35.4633 236.286 35.65 236.146 35.79C236.006 35.93 235.819 36 235.586 36H233.521ZM240.744 36C240.51 36 240.324 35.93 240.184 35.79C240.044 35.65 239.974 35.4633 239.974 35.23V18.57C239.974 18.3367 240.044 18.15 240.184 18.01C240.324 17.87 240.51 17.8 240.744 17.8H241.339C241.572 17.8 241.759 17.87 241.899 18.01C242.039 18.15 242.109 18.3367 242.109 18.57V35.23C242.109 35.4633 242.039 35.65 241.899 35.79C241.759 35.93 241.572 36 241.339 36H240.744ZM240.359 14.055C240.125 14.055 239.939 13.985 239.799 13.845C239.659 13.705 239.589 13.5183 239.589 13.285V11.955C239.589 11.7217 239.659 11.535 239.799 11.395C239.939 11.2317 240.125 11.15 240.359 11.15H241.689C241.922 11.15 242.109 11.2317 242.249 11.395C242.412 11.535 242.494 11.7217 242.494 11.955V13.285C242.494 13.5183 242.412 13.705 242.249 13.845C242.109 13.985 241.922 14.055 241.689 14.055H240.359ZM248.537 36C248.303 36 248.117 35.93 247.977 35.79C247.837 35.65 247.767 35.4633 247.767 35.23V18.57C247.767 18.3367 247.837 18.15 247.977 18.01C248.117 17.87 248.303 17.8 248.537 17.8H249.132C249.365 17.8 249.552 17.87 249.692 18.01C249.832 18.15 249.902 18.3367 249.902 18.57V19.795C250.485 19.0483 251.173 18.4767 251.967 18.08C252.783 17.66 253.763 17.45 254.907 17.45C257.52 17.45 259.387 18.5467 260.507 20.74C261.043 19.7367 261.825 18.9433 262.852 18.36C263.902 17.7533 265.103 17.45 266.457 17.45C267.693 17.45 268.802 17.7417 269.782 18.325C270.785 18.885 271.567 19.725 272.127 20.845C272.71 21.965 273.002 23.365 273.002 25.045V35.23C273.002 35.4633 272.932 35.65 272.792 35.79C272.652 35.93 272.465 36 272.232 36H271.637C271.403 36 271.217 35.93 271.077 35.79C270.937 35.65 270.867 35.4633 270.867 35.23V25.395C270.867 23.855 270.645 22.665 270.202 21.825C269.758 20.9617 269.175 20.355 268.452 20.005C267.728 19.655 266.947 19.48 266.107 19.48C265.407 19.48 264.695 19.655 263.972 20.005C263.248 20.355 262.642 20.9617 262.152 21.825C261.685 22.665 261.452 23.855 261.452 25.395V35.23C261.452 35.4633 261.382 35.65 261.242 35.79C261.102 35.93 260.915 36 260.682 36H260.087C259.853 36 259.667 35.93 259.527 35.79C259.387 35.65 259.317 35.4633 259.317 35.23V25.395C259.317 23.855 259.083 22.665 258.617 21.825C258.15 20.9617 257.555 20.355 256.832 20.005C256.108 19.655 255.35 19.48 254.557 19.48C253.857 19.48 253.145 19.655 252.422 20.005C251.698 20.355 251.092 20.9617 250.602 21.825C250.135 22.665 249.902 23.8433 249.902 25.36V35.23C249.902 35.4633 249.832 35.65 249.692 35.79C249.552 35.93 249.365 36 249.132 36H248.537ZM283.394 36.35C282.274 36.35 281.236 36.1167 280.279 35.65C279.346 35.1833 278.588 34.565 278.004 33.795C277.421 33.0017 277.129 32.115 277.129 31.135C277.129 29.5483 277.771 28.2767 279.054 27.32C280.338 26.3633 282.006 25.745 284.059 25.465L289.589 24.695V23.47C289.589 22.2333 289.204 21.265 288.434 20.565C287.688 19.8417 286.486 19.48 284.829 19.48C283.616 19.48 282.636 19.725 281.889 20.215C281.143 20.6817 280.629 21.3 280.349 22.07C280.233 22.42 280.011 22.595 279.684 22.595H279.124C278.844 22.595 278.646 22.525 278.529 22.385C278.413 22.2217 278.354 22.035 278.354 21.825C278.354 21.4983 278.471 21.09 278.704 20.6C278.961 20.11 279.346 19.6317 279.859 19.165C280.373 18.675 281.038 18.2667 281.854 17.94C282.671 17.6133 283.663 17.45 284.829 17.45C286.206 17.45 287.338 17.6367 288.224 18.01C289.134 18.3833 289.834 18.8733 290.324 19.48C290.838 20.0633 291.199 20.7167 291.409 21.44C291.619 22.1633 291.724 22.875 291.724 23.575V35.23C291.724 35.4633 291.654 35.65 291.514 35.79C291.374 35.93 291.188 36 290.954 36H290.359C290.126 36 289.939 35.93 289.799 35.79C289.659 35.65 289.589 35.4633 289.589 35.23V33.585C289.309 34.005 288.913 34.425 288.399 34.845C287.886 35.265 287.221 35.6267 286.404 35.93C285.611 36.21 284.608 36.35 283.394 36.35ZM283.744 34.32C284.818 34.32 285.798 34.0867 286.684 33.62C287.571 33.1533 288.271 32.4417 288.784 31.485C289.321 30.505 289.589 29.28 289.589 27.81V26.62L285.074 27.25C283.161 27.5067 281.714 27.95 280.734 28.58C279.754 29.21 279.264 30.0033 279.264 30.96C279.264 31.73 279.486 32.36 279.929 32.85C280.373 33.34 280.933 33.7133 281.609 33.97C282.309 34.2033 283.021 34.32 283.744 34.32ZM26.2521 78C25.6221 78 25.0387 77.8483 24.5021 77.545C23.9654 77.2183 23.5337 76.7867 23.2071 76.25C22.9037 75.7133 22.7521 75.13 22.7521 74.5C22.7521 73.8467 22.9037 73.2633 23.2071 72.75C23.5337 72.2133 23.9654 71.7933 24.5021 71.49C25.0387 71.1633 25.6221 71 26.2521 71C26.9054 71 27.4887 71.1633 28.0021 71.49C28.5387 71.7933 28.9587 72.2133 29.2621 72.75C29.5887 73.2633 29.7521 73.8467 29.7521 74.5C29.7521 75.13 29.5887 75.7133 29.2621 76.25C28.9587 76.7867 28.5387 77.2183 28.0021 77.545C27.4887 77.8483 26.9054 78 26.2521 78ZM62.16 85C61.9267 85 61.74 84.93 61.6 84.79C61.46 84.65 61.39 84.4633 61.39 84.23V63.37L55.125 68.2C54.9383 68.34 54.74 68.3983 54.53 68.375C54.3433 68.3517 54.18 68.2467 54.04 68.06L53.655 67.57C53.515 67.3833 53.4567 67.1967 53.48 67.01C53.5033 66.8 53.6083 66.625 53.795 66.485L61.25 60.745C61.4133 60.6283 61.565 60.5583 61.705 60.535C61.845 60.5117 61.9967 60.5 62.16 60.5H62.825C63.0583 60.5 63.245 60.57 63.385 60.71C63.525 60.85 63.595 61.0367 63.595 61.27V84.23C63.595 84.4633 63.525 84.65 63.385 84.79C63.245 84.93 63.0583 85 62.825 85H62.16ZM73.4803 85C73.2703 85 73.0953 84.93 72.9553 84.79C72.8386 84.6267 72.7803 84.44 72.7803 84.23C72.7803 84.1133 72.8036 84.02 72.8503 83.95C72.897 83.88 72.932 83.8217 72.9553 83.775L78.4853 76.005C77.7853 76.1917 77.027 76.285 76.2103 76.285C74.8103 76.285 73.5853 76.0517 72.5353 75.585C71.5086 75.1183 70.6453 74.5 69.9453 73.73C69.2686 72.9367 68.7553 72.0733 68.4053 71.14C68.0786 70.1833 67.9153 69.215 67.9153 68.235C67.9153 67.255 68.0786 66.2867 68.4053 65.33C68.7553 64.3733 69.2686 63.51 69.9453 62.74C70.6453 61.9467 71.5086 61.3167 72.5353 60.85C73.5853 60.3833 74.8103 60.15 76.2103 60.15C77.6103 60.15 78.8236 60.3833 79.8503 60.85C80.9003 61.3167 81.7753 61.9467 82.4753 62.74C83.1753 63.51 83.6886 64.3733 84.0153 65.33C84.3653 66.2867 84.5403 67.255 84.5403 68.235C84.5403 69.145 84.4236 69.9733 84.1903 70.72C83.957 71.4667 83.677 72.12 83.3503 72.68C83.047 73.24 82.7553 73.7183 82.4753 74.115L75.2653 84.3C75.172 84.4167 75.0436 84.5683 74.8803 84.755C74.7403 84.9183 74.507 85 74.1803 85H73.4803ZM76.2103 74.185C77.307 74.185 78.322 73.94 79.2553 73.45C80.1886 72.96 80.9353 72.2717 81.4953 71.385C82.0553 70.4983 82.3353 69.4483 82.3353 68.235C82.3353 66.9983 82.0553 65.9367 81.4953 65.05C80.9353 64.1633 80.1886 63.475 79.2553 62.985C78.322 62.495 77.307 62.25 76.2103 62.25C75.1136 62.25 74.0986 62.495 73.1653 62.985C72.2553 63.475 71.5203 64.1633 70.9603 65.05C70.4003 65.9367 70.1203 66.9983 70.1203 68.235C70.1203 69.4483 70.4003 70.4983 70.9603 71.385C71.5203 72.2717 72.2553 72.96 73.1653 73.45C74.0986 73.94 75.1136 74.185 76.2103 74.185ZM104.913 85.35C103.56 85.35 102.405 85.105 101.448 84.615C100.515 84.125 99.7564 83.4717 99.173 82.655C98.5897 81.8383 98.158 80.9283 97.878 79.925C97.6214 78.9217 97.4697 77.9067 97.423 76.88C97.3997 76.53 97.388 76.2033 97.388 75.9C97.388 75.5967 97.3997 75.27 97.423 74.92C97.4697 73.8933 97.6214 72.8783 97.878 71.875C98.158 70.8717 98.5897 69.9617 99.173 69.145C99.7564 68.3283 100.515 67.675 101.448 67.185C102.405 66.695 103.56 66.45 104.913 66.45C106.36 66.45 107.55 66.7183 108.483 67.255C109.44 67.7917 110.21 68.445 110.793 69.215V60.92C110.793 60.6867 110.863 60.5 111.003 60.36C111.143 60.22 111.33 60.15 111.563 60.15H112.158C112.391 60.15 112.578 60.22 112.718 60.36C112.858 60.5 112.928 60.6867 112.928 60.92V84.23C112.928 84.4633 112.858 84.65 112.718 84.79C112.578 84.93 112.391 85 112.158 85H111.563C111.33 85 111.143 84.93 111.003 84.79C110.863 84.65 110.793 84.4633 110.793 84.23V82.585C110.21 83.3783 109.44 84.0433 108.483 84.58C107.55 85.0933 106.36 85.35 104.913 85.35ZM105.123 83.32C106.453 83.32 107.526 83.005 108.343 82.375C109.16 81.745 109.766 80.9633 110.163 80.03C110.56 79.0733 110.77 78.1167 110.793 77.16C110.816 76.81 110.828 76.355 110.828 75.795C110.828 75.235 110.816 74.78 110.793 74.43C110.77 73.4967 110.548 72.575 110.128 71.665C109.731 70.755 109.125 69.9967 108.308 69.39C107.491 68.7833 106.43 68.48 105.123 68.48C103.77 68.48 102.685 68.7833 101.868 69.39C101.075 69.9967 100.503 70.79 100.153 71.77C99.803 72.75 99.6047 73.8 99.558 74.92C99.5347 75.5733 99.5347 76.2267 99.558 76.88C99.6047 78 99.803 79.05 100.153 80.03C100.503 81.01 101.075 81.8033 101.868 82.41C102.685 83.0167 103.77 83.32 105.123 83.32ZM125.391 85.35C123.127 85.35 121.331 84.615 120.001 83.145C118.671 81.6517 117.912 79.7033 117.726 77.3C117.702 76.95 117.691 76.4833 117.691 75.9C117.691 75.3167 117.702 74.85 117.726 74.5C117.842 72.9133 118.216 71.5133 118.846 70.3C119.476 69.0867 120.339 68.1417 121.436 67.465C122.556 66.7883 123.874 66.45 125.391 66.45C127.024 66.45 128.412 66.8117 129.556 67.535C130.699 68.2583 131.574 69.2967 132.181 70.65C132.811 72.0033 133.126 73.6133 133.126 75.48V76.005C133.126 76.2383 133.044 76.425 132.881 76.565C132.741 76.705 132.554 76.775 132.321 76.775H119.861C119.861 76.775 119.861 76.8217 119.861 76.915C119.861 77.0083 119.861 77.0783 119.861 77.125C119.907 78.175 120.152 79.1783 120.596 80.135C121.039 81.0683 121.669 81.8383 122.486 82.445C123.302 83.0283 124.271 83.32 125.391 83.32C126.394 83.32 127.222 83.1683 127.876 82.865C128.552 82.5617 129.089 82.235 129.486 81.885C129.882 81.5117 130.139 81.2317 130.256 81.045C130.466 80.7417 130.629 80.5667 130.746 80.52C130.862 80.45 131.049 80.415 131.306 80.415H131.866C132.076 80.415 132.251 80.485 132.391 80.625C132.554 80.7417 132.624 80.905 132.601 81.115C132.577 81.4417 132.391 81.85 132.041 82.34C131.714 82.8067 131.236 83.2733 130.606 83.74C129.999 84.2067 129.252 84.5917 128.366 84.895C127.479 85.1983 126.487 85.35 125.391 85.35ZM119.861 74.815H130.991V74.675C130.991 73.5083 130.769 72.4583 130.326 71.525C129.882 70.5917 129.241 69.8567 128.401 69.32C127.561 68.76 126.557 68.48 125.391 68.48C124.224 68.48 123.221 68.76 122.381 69.32C121.564 69.8567 120.934 70.5917 120.491 71.525C120.071 72.4583 119.861 73.5083 119.861 74.675V74.815ZM143.791 91.65C143.557 91.65 143.371 91.58 143.231 91.44C143.091 91.3 143.021 91.1133 143.021 90.88V90.39C143.021 90.1567 143.091 89.97 143.231 89.83C143.371 89.69 143.557 89.62 143.791 89.62H143.931C144.887 89.62 145.587 89.445 146.031 89.095C146.474 88.745 146.754 88.2783 146.871 87.695C147.011 87.1117 147.081 86.47 147.081 85.77V67.57C147.081 67.3367 147.151 67.15 147.291 67.01C147.431 66.87 147.617 66.8 147.851 66.8H148.446C148.679 66.8 148.866 66.87 149.006 67.01C149.146 67.15 149.216 67.3367 149.216 67.57V85.77C149.216 86.8667 149.064 87.8583 148.761 88.745C148.481 89.6317 147.956 90.3317 147.186 90.845C146.439 91.3817 145.354 91.65 143.931 91.65H143.791ZM147.466 63.055C147.232 63.055 147.046 62.985 146.906 62.845C146.766 62.705 146.696 62.5183 146.696 62.285V60.955C146.696 60.7217 146.766 60.535 146.906 60.395C147.046 60.2317 147.232 60.15 147.466 60.15H148.796C149.029 60.15 149.216 60.2317 149.356 60.395C149.519 60.535 149.601 60.7217 149.601 60.955V62.285C149.601 62.5183 149.519 62.705 149.356 62.845C149.216 62.985 149.029 63.055 148.796 63.055H147.466ZM161.76 85.35C160.173 85.35 158.855 85.0117 157.805 84.335C156.778 83.635 156.008 82.69 155.495 81.5C155.005 80.31 154.76 78.98 154.76 77.51V67.57C154.76 67.3367 154.83 67.15 154.97 67.01C155.11 66.87 155.296 66.8 155.53 66.8H156.125C156.358 66.8 156.545 66.87 156.685 67.01C156.825 67.15 156.895 67.3367 156.895 67.57V77.335C156.895 81.325 158.633 83.32 162.11 83.32C163.766 83.32 165.096 82.795 166.1 81.745C167.103 80.6717 167.605 79.2017 167.605 77.335V67.57C167.605 67.3367 167.675 67.15 167.815 67.01C167.955 66.87 168.141 66.8 168.375 66.8H168.97C169.203 66.8 169.39 66.87 169.53 67.01C169.67 67.15 169.74 67.3367 169.74 67.57V84.23C169.74 84.4633 169.67 84.65 169.53 84.79C169.39 84.93 169.203 85 168.97 85H168.375C168.141 85 167.955 84.93 167.815 84.79C167.675 84.65 167.605 84.4633 167.605 84.23V82.585C166.975 83.4017 166.216 84.0667 165.33 84.58C164.466 85.0933 163.276 85.35 161.76 85.35ZM176.178 85C175.945 85 175.758 84.93 175.618 84.79C175.478 84.65 175.408 84.4633 175.408 84.23V67.57C175.408 67.3367 175.478 67.15 175.618 67.01C175.758 66.87 175.945 66.8 176.178 66.8H176.773C177.007 66.8 177.193 66.87 177.333 67.01C177.473 67.15 177.543 67.3367 177.543 67.57V69.215C178.173 68.3983 178.932 67.7333 179.818 67.22C180.728 66.7067 181.93 66.45 183.423 66.45C185.01 66.45 186.328 66.8 187.378 67.5C188.452 68.1767 189.245 69.11 189.758 70.3C190.295 71.4667 190.563 72.7967 190.563 74.29V84.23C190.563 84.4633 190.493 84.65 190.353 84.79C190.213 84.93 190.027 85 189.793 85H189.198C188.965 85 188.778 84.93 188.638 84.79C188.498 84.65 188.428 84.4633 188.428 84.23V74.465C188.428 72.5983 187.973 71.14 187.063 70.09C186.153 69.0167 184.823 68.48 183.073 68.48C181.417 68.48 180.075 69.0167 179.048 70.09C178.045 71.14 177.543 72.5983 177.543 74.465V84.23C177.543 84.4633 177.473 84.65 177.333 84.79C177.193 84.93 177.007 85 176.773 85H176.178ZM196.858 85C196.624 85 196.438 84.93 196.298 84.79C196.158 84.65 196.088 84.4633 196.088 84.23V60.92C196.088 60.6867 196.158 60.5 196.298 60.36C196.438 60.22 196.624 60.15 196.858 60.15H197.453C197.686 60.15 197.873 60.22 198.013 60.36C198.153 60.5 198.223 60.6867 198.223 60.92V69.215C198.853 68.3983 199.611 67.7333 200.498 67.22C201.408 66.7067 202.609 66.45 204.103 66.45C205.689 66.45 207.008 66.8 208.058 67.5C209.131 68.1767 209.924 69.11 210.438 70.3C210.974 71.4667 211.243 72.7967 211.243 74.29V84.23C211.243 84.4633 211.173 84.65 211.033 84.79C210.893 84.93 210.706 85 210.473 85H209.878C209.644 85 209.458 84.93 209.318 84.79C209.178 84.65 209.108 84.4633 209.108 84.23V74.465C209.108 72.5983 208.653 71.14 207.743 70.09C206.833 69.0167 205.503 68.48 203.753 68.48C202.096 68.48 200.754 69.0167 199.728 70.09C198.724 71.14 198.223 72.5983 198.223 74.465V84.23C198.223 84.4633 198.153 84.65 198.013 84.79C197.873 84.93 197.686 85 197.453 85H196.858ZM223.661 85.35C221.981 85.35 220.57 85 219.426 84.3C218.306 83.6 217.443 82.6433 216.836 81.43C216.253 80.2167 215.938 78.8633 215.891 77.37C215.868 77.02 215.856 76.53 215.856 75.9C215.856 75.27 215.868 74.78 215.891 74.43C215.938 72.9133 216.253 71.56 216.836 70.37C217.443 69.1567 218.306 68.2 219.426 67.5C220.57 66.8 221.981 66.45 223.661 66.45C225.341 66.45 226.741 66.8 227.861 67.5C229.005 68.2 229.868 69.1567 230.451 70.37C231.058 71.56 231.385 72.9133 231.431 74.43C231.455 74.78 231.466 75.27 231.466 75.9C231.466 76.53 231.455 77.02 231.431 77.37C231.385 78.8633 231.058 80.2167 230.451 81.43C229.868 82.6433 229.005 83.6 227.861 84.3C226.741 85 225.341 85.35 223.661 85.35ZM223.661 83.32C225.295 83.32 226.625 82.795 227.651 81.745C228.678 80.695 229.226 79.1783 229.296 77.195C229.32 76.845 229.331 76.4133 229.331 75.9C229.331 75.3867 229.32 74.955 229.296 74.605C229.226 72.5983 228.678 71.0817 227.651 70.055C226.625 69.005 225.295 68.48 223.661 68.48C222.028 68.48 220.698 69.005 219.671 70.055C218.645 71.0817 218.096 72.5983 218.026 74.605C218.003 74.955 217.991 75.3867 217.991 75.9C217.991 76.4133 218.003 76.845 218.026 77.195C218.096 79.1783 218.645 80.695 219.671 81.745C220.698 82.795 222.028 83.32 223.661 83.32ZM245.797 75.515C245.563 75.515 245.377 75.445 245.237 75.305C245.097 75.165 245.027 74.9783 245.027 74.745V74.255C245.027 74.0217 245.097 73.835 245.237 73.695C245.377 73.555 245.563 73.485 245.797 73.485H256.122C256.355 73.485 256.542 73.555 256.682 73.695C256.822 73.835 256.892 74.0217 256.892 74.255V74.745C256.892 74.9783 256.822 75.165 256.682 75.305C256.542 75.445 256.355 75.515 256.122 75.515H245.797ZM272.576 85C272.342 85 272.156 84.93 272.016 84.79C271.876 84.65 271.806 84.4633 271.806 84.23V61.27C271.806 61.0367 271.876 60.85 272.016 60.71C272.156 60.57 272.342 60.5 272.576 60.5H273.241C273.474 60.5 273.661 60.57 273.801 60.71C273.941 60.85 274.011 61.0367 274.011 61.27V82.9H286.086C286.342 82.9 286.541 82.97 286.681 83.11C286.821 83.25 286.891 83.4483 286.891 83.705V84.23C286.891 84.4633 286.821 84.65 286.681 84.79C286.541 84.93 286.342 85 286.086 85H272.576ZM291.295 85C291.062 85 290.875 84.93 290.735 84.79C290.595 84.65 290.525 84.4633 290.525 84.23V67.57C290.525 67.3367 290.595 67.15 290.735 67.01C290.875 66.87 291.062 66.8 291.295 66.8H291.89C292.124 66.8 292.31 66.87 292.45 67.01C292.59 67.15 292.66 67.3367 292.66 67.57V84.23C292.66 84.4633 292.59 84.65 292.45 84.79C292.31 84.93 292.124 85 291.89 85H291.295ZM290.91 63.055C290.677 63.055 290.49 62.985 290.35 62.845C290.21 62.705 290.14 62.5183 290.14 62.285V60.955C290.14 60.7217 290.21 60.535 290.35 60.395C290.49 60.2317 290.677 60.15 290.91 60.15H292.24C292.474 60.15 292.66 60.2317 292.8 60.395C292.964 60.535 293.045 60.7217 293.045 60.955V62.285C293.045 62.5183 292.964 62.705 292.8 62.845C292.66 62.985 292.474 63.055 292.24 63.055H290.91ZM304.093 85.35C302.88 85.35 301.83 85.1867 300.943 84.86C300.08 84.5333 299.368 84.1483 298.808 83.705C298.248 83.2383 297.828 82.7833 297.548 82.34C297.292 81.8967 297.152 81.5583 297.128 81.325C297.105 81.0683 297.187 80.8817 297.373 80.765C297.56 80.625 297.735 80.555 297.898 80.555H298.423C298.563 80.555 298.68 80.5783 298.773 80.625C298.89 80.6717 299.03 80.8 299.193 81.01C299.497 81.4067 299.847 81.7917 300.243 82.165C300.64 82.515 301.142 82.795 301.748 83.005C302.378 83.215 303.16 83.32 304.093 83.32C305.493 83.32 306.648 83.0517 307.558 82.515C308.468 81.9783 308.923 81.185 308.923 80.135C308.923 79.4817 308.737 78.9567 308.363 78.56C308.013 78.1633 307.407 77.8133 306.543 77.51C305.68 77.2067 304.513 76.8917 303.043 76.565C301.573 76.215 300.442 75.795 299.648 75.305C298.878 74.815 298.353 74.255 298.073 73.625C297.793 72.9717 297.653 72.2717 297.653 71.525C297.653 70.7083 297.887 69.915 298.353 69.145C298.82 68.3517 299.508 67.71 300.418 67.22C301.352 66.7067 302.518 66.45 303.918 66.45C305.062 66.45 306.03 66.6017 306.823 66.905C307.64 67.2083 308.305 67.5817 308.818 68.025C309.332 68.445 309.705 68.865 309.938 69.285C310.195 69.705 310.335 70.0433 310.358 70.3C310.382 70.5333 310.312 70.72 310.148 70.86C309.985 71 309.798 71.07 309.588 71.07H309.063C308.877 71.07 308.725 71.035 308.608 70.965C308.492 70.8717 308.387 70.755 308.293 70.615C308.06 70.2417 307.78 69.8917 307.453 69.565C307.127 69.2383 306.683 68.9817 306.123 68.795C305.587 68.585 304.852 68.48 303.918 68.48C302.518 68.48 301.48 68.7717 300.803 69.355C300.127 69.915 299.788 70.6383 299.788 71.525C299.788 72.0383 299.928 72.4933 300.208 72.89C300.488 73.2633 301.013 73.6133 301.783 73.94C302.553 74.2433 303.673 74.57 305.143 74.92C306.637 75.2467 307.815 75.655 308.678 76.145C309.542 76.6117 310.148 77.1717 310.498 77.825C310.872 78.4783 311.058 79.2483 311.058 80.135C311.058 81.0683 310.79 81.9317 310.253 82.725C309.74 83.5183 308.958 84.16 307.908 84.65C306.882 85.1167 305.61 85.35 304.093 85.35ZM323.595 85.35C322.148 85.35 320.947 85.0933 319.99 84.58C319.057 84.0433 318.298 83.3783 317.715 82.585V84.23C317.715 84.4633 317.645 84.65 317.505 84.79C317.365 84.93 317.178 85 316.945 85H316.35C316.117 85 315.93 84.93 315.79 84.79C315.65 84.65 315.58 84.4633 315.58 84.23V60.92C315.58 60.6867 315.65 60.5 315.79 60.36C315.93 60.22 316.117 60.15 316.35 60.15H316.945C317.178 60.15 317.365 60.22 317.505 60.36C317.645 60.5 317.715 60.6867 317.715 60.92V69.215C318.298 68.445 319.057 67.7917 319.99 67.255C320.947 66.7183 322.148 66.45 323.595 66.45C324.972 66.45 326.127 66.695 327.06 67.185C327.993 67.675 328.752 68.3283 329.335 69.145C329.918 69.9617 330.35 70.8717 330.63 71.875C330.91 72.8783 331.062 73.8933 331.085 74.92C331.108 75.27 331.12 75.5967 331.12 75.9C331.12 76.2033 331.108 76.53 331.085 76.88C331.062 77.9067 330.91 78.9217 330.63 79.925C330.35 80.9283 329.918 81.8383 329.335 82.655C328.752 83.4717 327.993 84.125 327.06 84.615C326.127 85.105 324.972 85.35 323.595 85.35ZM323.385 83.32C324.762 83.32 325.847 83.0167 326.64 82.41C327.433 81.8033 328.005 81.01 328.355 80.03C328.705 79.05 328.903 78 328.95 76.88C328.973 76.2267 328.973 75.5733 328.95 74.92C328.903 73.8 328.705 72.75 328.355 71.77C328.005 70.79 327.433 69.9967 326.64 69.39C325.847 68.7833 324.762 68.48 323.385 68.48C322.102 68.48 321.04 68.7833 320.2 69.39C319.383 69.9967 318.765 70.755 318.345 71.665C317.948 72.575 317.738 73.4967 317.715 74.43C317.692 74.78 317.68 75.235 317.68 75.795C317.68 76.355 317.692 76.81 317.715 77.16C317.762 78.1167 317.972 79.0733 318.345 80.03C318.742 80.9633 319.348 81.745 320.165 82.375C320.982 83.005 322.055 83.32 323.385 83.32ZM342.778 85.35C341.098 85.35 339.686 85 338.543 84.3C337.423 83.6 336.559 82.6433 335.953 81.43C335.369 80.2167 335.054 78.8633 335.008 77.37C334.984 77.02 334.973 76.53 334.973 75.9C334.973 75.27 334.984 74.78 335.008 74.43C335.054 72.9133 335.369 71.56 335.953 70.37C336.559 69.1567 337.423 68.2 338.543 67.5C339.686 66.8 341.098 66.45 342.778 66.45C344.458 66.45 345.858 66.8 346.978 67.5C348.121 68.2 348.984 69.1567 349.568 70.37C350.174 71.56 350.501 72.9133 350.548 74.43C350.571 74.78 350.583 75.27 350.583 75.9C350.583 76.53 350.571 77.02 350.548 77.37C350.501 78.8633 350.174 80.2167 349.568 81.43C348.984 82.6433 348.121 83.6 346.978 84.3C345.858 85 344.458 85.35 342.778 85.35ZM342.778 83.32C344.411 83.32 345.741 82.795 346.768 81.745C347.794 80.695 348.343 79.1783 348.413 77.195C348.436 76.845 348.448 76.4133 348.448 75.9C348.448 75.3867 348.436 74.955 348.413 74.605C348.343 72.5983 347.794 71.0817 346.768 70.055C345.741 69.005 344.411 68.48 342.778 68.48C341.144 68.48 339.814 69.005 338.788 70.055C337.761 71.0817 337.213 72.5983 337.143 74.605C337.119 74.955 337.108 75.3867 337.108 75.9C337.108 76.4133 337.119 76.845 337.143 77.195C337.213 79.1783 337.761 80.695 338.788 81.745C339.814 82.795 341.144 83.32 342.778 83.32ZM360.264 85.35C359.144 85.35 358.106 85.1167 357.149 84.65C356.216 84.1833 355.458 83.565 354.874 82.795C354.291 82.0017 353.999 81.115 353.999 80.135C353.999 78.5483 354.641 77.2767 355.924 76.32C357.208 75.3633 358.876 74.745 360.929 74.465L366.459 73.695V72.47C366.459 71.2333 366.074 70.265 365.304 69.565C364.558 68.8417 363.356 68.48 361.699 68.48C360.486 68.48 359.506 68.725 358.759 69.215C358.013 69.6817 357.499 70.3 357.219 71.07C357.103 71.42 356.881 71.595 356.554 71.595H355.994C355.714 71.595 355.516 71.525 355.399 71.385C355.283 71.2217 355.224 71.035 355.224 70.825C355.224 70.4983 355.341 70.09 355.574 69.6C355.831 69.11 356.216 68.6317 356.729 68.165C357.243 67.675 357.908 67.2667 358.724 66.94C359.541 66.6133 360.533 66.45 361.699 66.45C363.076 66.45 364.208 66.6367 365.094 67.01C366.004 67.3833 366.704 67.8733 367.194 68.48C367.708 69.0633 368.069 69.7167 368.279 70.44C368.489 71.1633 368.594 71.875 368.594 72.575V84.23C368.594 84.4633 368.524 84.65 368.384 84.79C368.244 84.93 368.058 85 367.824 85H367.229C366.996 85 366.809 84.93 366.669 84.79C366.529 84.65 366.459 84.4633 366.459 84.23V82.585C366.179 83.005 365.783 83.425 365.269 83.845C364.756 84.265 364.091 84.6267 363.274 84.93C362.481 85.21 361.478 85.35 360.264 85.35ZM360.614 83.32C361.688 83.32 362.668 83.0867 363.554 82.62C364.441 82.1533 365.141 81.4417 365.654 80.485C366.191 79.505 366.459 78.28 366.459 76.81V75.62L361.944 76.25C360.031 76.5067 358.584 76.95 357.604 77.58C356.624 78.21 356.134 79.0033 356.134 79.96C356.134 80.73 356.356 81.36 356.799 81.85C357.243 82.34 357.803 82.7133 358.479 82.97C359.179 83.2033 359.891 83.32 360.614 83.32Z" fill="black"/>
</g>
</svg>
