<svg width="522" height="98" viewBox="0 0 522 98" fill="none" xmlns="http://www.w3.org/2000/svg">
<g id="Group 384">
<path id="fim de semana - TBD 1 semana agosto 2026 - TBD" d="M26.2521 29C25.6221 29 25.0387 28.8483 24.5021 28.545C23.9654 28.2183 23.5337 27.7867 23.2071 27.25C22.9037 26.7133 22.7521 26.13 22.7521 25.5C22.7521 24.8467 22.9037 24.2633 23.2071 23.75C23.5337 23.2133 23.9654 22.7933 24.5021 22.49C25.0387 22.1633 25.6221 22 26.2521 22C26.9054 22 27.4887 22.1633 28.0021 22.49C28.5387 22.7933 28.9587 23.2133 29.2621 23.75C29.5887 24.2633 29.7521 24.8467 29.7521 25.5C29.7521 26.13 29.5887 26.7133 29.2621 27.25C28.9587 27.7867 28.5387 28.2183 28.0021 28.545C27.4887 28.8483 26.9054 29 26.2521 29ZM57.82 36C57.5867 36 57.4 35.93 57.26 35.79C57.12 35.65 57.05 35.4633 57.05 35.23V19.83H53.935C53.7017 19.83 53.515 19.76 53.375 19.62C53.235 19.48 53.165 19.2933 53.165 19.06V18.57C53.165 18.3367 53.235 18.15 53.375 18.01C53.515 17.87 53.7017 17.8 53.935 17.8H57.05V15.805C57.05 14.755 57.19 13.7983 57.47 12.935C57.7733 12.0717 58.2983 11.3833 59.045 10.87C59.815 10.3567 60.9117 10.1 62.335 10.1H66.22C66.4533 10.1 66.64 10.17 66.78 10.31C66.92 10.45 66.99 10.6367 66.99 10.87V11.36C66.99 11.5933 66.92 11.78 66.78 11.92C66.64 12.06 66.4533 12.13 66.22 12.13H62.335C61.0983 12.13 60.2583 12.4683 59.815 13.145C59.395 13.7983 59.185 14.7433 59.185 15.98V17.8H66.22C66.4533 17.8 66.64 17.87 66.78 18.01C66.92 18.15 66.99 18.3367 66.99 18.57V35.23C66.99 35.4633 66.92 35.65 66.78 35.79C66.64 35.93 66.4533 36 66.22 36H65.625C65.3917 36 65.205 35.93 65.065 35.79C64.925 35.65 64.855 35.4633 64.855 35.23V19.83H59.185V35.23C59.185 35.4633 59.115 35.65 58.975 35.79C58.835 35.93 58.6483 36 58.415 36H57.82ZM73.4341 36C73.2008 36 73.0141 35.93 72.8741 35.79C72.7341 35.65 72.6641 35.4633 72.6641 35.23V18.57C72.6641 18.3367 72.7341 18.15 72.8741 18.01C73.0141 17.87 73.2008 17.8 73.4341 17.8H74.0291C74.2624 17.8 74.4491 17.87 74.5891 18.01C74.7291 18.15 74.7991 18.3367 74.7991 18.57V19.795C75.3824 19.0483 76.0708 18.4767 76.8641 18.08C77.6808 17.66 78.6608 17.45 79.8041 17.45C82.4174 17.45 84.2841 18.5467 85.4041 20.74C85.9408 19.7367 86.7224 18.9433 87.7491 18.36C88.7991 17.7533 90.0008 17.45 91.3541 17.45C92.5908 17.45 93.6991 17.7417 94.6791 18.325C95.6824 18.885 96.4641 19.725 97.0241 20.845C97.6074 21.965 97.8991 23.365 97.8991 25.045V35.23C97.8991 35.4633 97.8291 35.65 97.6891 35.79C97.5491 35.93 97.3624 36 97.1291 36H96.5341C96.3008 36 96.1141 35.93 95.9741 35.79C95.8341 35.65 95.7641 35.4633 95.7641 35.23V25.395C95.7641 23.855 95.5424 22.665 95.0991 21.825C94.6558 20.9617 94.0724 20.355 93.3491 20.005C92.6258 19.655 91.8441 19.48 91.0041 19.48C90.3041 19.48 89.5924 19.655 88.8691 20.005C88.1458 20.355 87.5391 20.9617 87.0491 21.825C86.5824 22.665 86.3491 23.855 86.3491 25.395V35.23C86.3491 35.4633 86.2791 35.65 86.1391 35.79C85.9991 35.93 85.8124 36 85.5791 36H84.9841C84.7508 36 84.5641 35.93 84.4241 35.79C84.2841 35.65 84.2141 35.4633 84.2141 35.23V25.395C84.2141 23.855 83.9808 22.665 83.5141 21.825C83.0474 20.9617 82.4524 20.355 81.7291 20.005C81.0058 19.655 80.2474 19.48 79.4541 19.48C78.7541 19.48 78.0424 19.655 77.3191 20.005C76.5958 20.355 75.9891 20.9617 75.4991 21.825C75.0324 22.665 74.7991 23.8433 74.7991 25.36V35.23C74.7991 35.4633 74.7291 35.65 74.5891 35.79C74.4491 35.93 74.2624 36 74.0291 36H73.4341ZM118.995 36.35C117.642 36.35 116.487 36.105 115.53 35.615C114.597 35.125 113.838 34.4717 113.255 33.655C112.672 32.8383 112.24 31.9283 111.96 30.925C111.703 29.9217 111.552 28.9067 111.505 27.88C111.482 27.53 111.47 27.2033 111.47 26.9C111.47 26.5967 111.482 26.27 111.505 25.92C111.552 24.8933 111.703 23.8783 111.96 22.875C112.24 21.8717 112.672 20.9617 113.255 20.145C113.838 19.3283 114.597 18.675 115.53 18.185C116.487 17.695 117.642 17.45 118.995 17.45C120.442 17.45 121.632 17.7183 122.565 18.255C123.522 18.7917 124.292 19.445 124.875 20.215V11.92C124.875 11.6867 124.945 11.5 125.085 11.36C125.225 11.22 125.412 11.15 125.645 11.15H126.24C126.473 11.15 126.66 11.22 126.8 11.36C126.94 11.5 127.01 11.6867 127.01 11.92V35.23C127.01 35.4633 126.94 35.65 126.8 35.79C126.66 35.93 126.473 36 126.24 36H125.645C125.412 36 125.225 35.93 125.085 35.79C124.945 35.65 124.875 35.4633 124.875 35.23V33.585C124.292 34.3783 123.522 35.0433 122.565 35.58C121.632 36.0933 120.442 36.35 118.995 36.35ZM119.205 34.32C120.535 34.32 121.608 34.005 122.425 33.375C123.242 32.745 123.848 31.9633 124.245 31.03C124.642 30.0733 124.852 29.1167 124.875 28.16C124.898 27.81 124.91 27.355 124.91 26.795C124.91 26.235 124.898 25.78 124.875 25.43C124.852 24.4967 124.63 23.575 124.21 22.665C123.813 21.755 123.207 20.9967 122.39 20.39C121.573 19.7833 120.512 19.48 119.205 19.48C117.852 19.48 116.767 19.7833 115.95 20.39C115.157 20.9967 114.585 21.79 114.235 22.77C113.885 23.75 113.687 24.8 113.64 25.92C113.617 26.5733 113.617 27.2267 113.64 27.88C113.687 29 113.885 30.05 114.235 31.03C114.585 32.01 115.157 32.8033 115.95 33.41C116.767 34.0167 117.852 34.32 119.205 34.32ZM139.473 36.35C137.209 36.35 135.413 35.615 134.083 34.145C132.753 32.6517 131.994 30.7033 131.808 28.3C131.784 27.95 131.773 27.4833 131.773 26.9C131.773 26.3167 131.784 25.85 131.808 25.5C131.924 23.9133 132.298 22.5133 132.928 21.3C133.558 20.0867 134.421 19.1417 135.518 18.465C136.638 17.7883 137.956 17.45 139.473 17.45C141.106 17.45 142.494 17.8117 143.638 18.535C144.781 19.2583 145.656 20.2967 146.263 21.65C146.893 23.0033 147.208 24.6133 147.208 26.48V27.005C147.208 27.2383 147.126 27.425 146.963 27.565C146.823 27.705 146.636 27.775 146.403 27.775H133.943C133.943 27.775 133.943 27.8217 133.943 27.915C133.943 28.0083 133.943 28.0783 133.943 28.125C133.989 29.175 134.234 30.1783 134.678 31.135C135.121 32.0683 135.751 32.8383 136.568 33.445C137.384 34.0283 138.353 34.32 139.473 34.32C140.476 34.32 141.304 34.1683 141.958 33.865C142.634 33.5617 143.171 33.235 143.568 32.885C143.964 32.5117 144.221 32.2317 144.338 32.045C144.548 31.7417 144.711 31.5667 144.828 31.52C144.944 31.45 145.131 31.415 145.388 31.415H145.948C146.158 31.415 146.333 31.485 146.473 31.625C146.636 31.7417 146.706 31.905 146.683 32.115C146.659 32.4417 146.473 32.85 146.123 33.34C145.796 33.8067 145.318 34.2733 144.688 34.74C144.081 35.2067 143.334 35.5917 142.448 35.895C141.561 36.1983 140.569 36.35 139.473 36.35ZM133.943 25.815H145.073V25.675C145.073 24.5083 144.851 23.4583 144.408 22.525C143.964 21.5917 143.323 20.8567 142.483 20.32C141.643 19.76 140.639 19.48 139.473 19.48C138.306 19.48 137.303 19.76 136.463 20.32C135.646 20.8567 135.016 21.5917 134.573 22.525C134.153 23.4583 133.943 24.5083 133.943 25.675V25.815ZM166.623 36.35C165.409 36.35 164.359 36.1867 163.473 35.86C162.609 35.5333 161.898 35.1483 161.338 34.705C160.778 34.2383 160.358 33.7833 160.078 33.34C159.821 32.8967 159.681 32.5583 159.658 32.325C159.634 32.0683 159.716 31.8817 159.903 31.765C160.089 31.625 160.264 31.555 160.428 31.555H160.953C161.093 31.555 161.209 31.5783 161.303 31.625C161.419 31.6717 161.559 31.8 161.723 32.01C162.026 32.4067 162.376 32.7917 162.773 33.165C163.169 33.515 163.671 33.795 164.278 34.005C164.908 34.215 165.689 34.32 166.623 34.32C168.023 34.32 169.178 34.0517 170.088 33.515C170.998 32.9783 171.453 32.185 171.453 31.135C171.453 30.4817 171.266 29.9567 170.893 29.56C170.543 29.1633 169.936 28.8133 169.073 28.51C168.209 28.2067 167.043 27.8917 165.573 27.565C164.103 27.215 162.971 26.795 162.178 26.305C161.408 25.815 160.883 25.255 160.603 24.625C160.323 23.9717 160.183 23.2717 160.183 22.525C160.183 21.7083 160.416 20.915 160.883 20.145C161.349 19.3517 162.038 18.71 162.948 18.22C163.881 17.7067 165.048 17.45 166.448 17.45C167.591 17.45 168.559 17.6017 169.353 17.905C170.169 18.2083 170.834 18.5817 171.348 19.025C171.861 19.445 172.234 19.865 172.468 20.285C172.724 20.705 172.864 21.0433 172.888 21.3C172.911 21.5333 172.841 21.72 172.678 21.86C172.514 22 172.328 22.07 172.118 22.07H171.593C171.406 22.07 171.254 22.035 171.138 21.965C171.021 21.8717 170.916 21.755 170.823 21.615C170.589 21.2417 170.309 20.8917 169.983 20.565C169.656 20.2383 169.213 19.9817 168.653 19.795C168.116 19.585 167.381 19.48 166.448 19.48C165.048 19.48 164.009 19.7717 163.333 20.355C162.656 20.915 162.318 21.6383 162.318 22.525C162.318 23.0383 162.458 23.4933 162.738 23.89C163.018 24.2633 163.543 24.6133 164.313 24.94C165.083 25.2433 166.203 25.57 167.673 25.92C169.166 26.2467 170.344 26.655 171.208 27.145C172.071 27.6117 172.678 28.1717 173.028 28.825C173.401 29.4783 173.588 30.2483 173.588 31.135C173.588 32.0683 173.319 32.9317 172.783 33.725C172.269 34.5183 171.488 35.16 170.438 35.65C169.411 36.1167 168.139 36.35 166.623 36.35ZM184.829 36.35C182.566 36.35 180.769 35.615 179.439 34.145C178.109 32.6517 177.351 30.7033 177.164 28.3C177.141 27.95 177.129 27.4833 177.129 26.9C177.129 26.3167 177.141 25.85 177.164 25.5C177.281 23.9133 177.654 22.5133 178.284 21.3C178.914 20.0867 179.778 19.1417 180.874 18.465C181.994 17.7883 183.313 17.45 184.829 17.45C186.463 17.45 187.851 17.8117 188.994 18.535C190.138 19.2583 191.013 20.2967 191.619 21.65C192.249 23.0033 192.564 24.6133 192.564 26.48V27.005C192.564 27.2383 192.483 27.425 192.319 27.565C192.179 27.705 191.993 27.775 191.759 27.775H179.299C179.299 27.775 179.299 27.8217 179.299 27.915C179.299 28.0083 179.299 28.0783 179.299 28.125C179.346 29.175 179.591 30.1783 180.034 31.135C180.478 32.0683 181.108 32.8383 181.924 33.445C182.741 34.0283 183.709 34.32 184.829 34.32C185.833 34.32 186.661 34.1683 187.314 33.865C187.991 33.5617 188.528 33.235 188.924 32.885C189.321 32.5117 189.578 32.2317 189.694 32.045C189.904 31.7417 190.068 31.5667 190.184 31.52C190.301 31.45 190.488 31.415 190.744 31.415H191.304C191.514 31.415 191.689 31.485 191.829 31.625C191.993 31.7417 192.063 31.905 192.039 32.115C192.016 32.4417 191.829 32.85 191.479 33.34C191.153 33.8067 190.674 34.2733 190.044 34.74C189.438 35.2067 188.691 35.5917 187.804 35.895C186.918 36.1983 185.926 36.35 184.829 36.35ZM179.299 25.815H190.429V25.675C190.429 24.5083 190.208 23.4583 189.764 22.525C189.321 21.5917 188.679 20.8567 187.839 20.32C186.999 19.76 185.996 19.48 184.829 19.48C183.663 19.48 182.659 19.76 181.819 20.32C181.003 20.8567 180.373 21.5917 179.929 22.525C179.509 23.4583 179.299 24.5083 179.299 25.675V25.815ZM197.951 36C197.717 36 197.531 35.93 197.391 35.79C197.251 35.65 197.181 35.4633 197.181 35.23V18.57C197.181 18.3367 197.251 18.15 197.391 18.01C197.531 17.87 197.717 17.8 197.951 17.8H198.546C198.779 17.8 198.966 17.87 199.106 18.01C199.246 18.15 199.316 18.3367 199.316 18.57V19.795C199.899 19.0483 200.587 18.4767 201.381 18.08C202.197 17.66 203.177 17.45 204.321 17.45C206.934 17.45 208.801 18.5467 209.921 20.74C210.457 19.7367 211.239 18.9433 212.266 18.36C213.316 17.7533 214.517 17.45 215.871 17.45C217.107 17.45 218.216 17.7417 219.196 18.325C220.199 18.885 220.981 19.725 221.541 20.845C222.124 21.965 222.416 23.365 222.416 25.045V35.23C222.416 35.4633 222.346 35.65 222.206 35.79C222.066 35.93 221.879 36 221.646 36H221.051C220.817 36 220.631 35.93 220.491 35.79C220.351 35.65 220.281 35.4633 220.281 35.23V25.395C220.281 23.855 220.059 22.665 219.616 21.825C219.172 20.9617 218.589 20.355 217.866 20.005C217.142 19.655 216.361 19.48 215.521 19.48C214.821 19.48 214.109 19.655 213.386 20.005C212.662 20.355 212.056 20.9617 211.566 21.825C211.099 22.665 210.866 23.855 210.866 25.395V35.23C210.866 35.4633 210.796 35.65 210.656 35.79C210.516 35.93 210.329 36 210.096 36H209.501C209.267 36 209.081 35.93 208.941 35.79C208.801 35.65 208.731 35.4633 208.731 35.23V25.395C208.731 23.855 208.497 22.665 208.031 21.825C207.564 20.9617 206.969 20.355 206.246 20.005C205.522 19.655 204.764 19.48 203.971 19.48C203.271 19.48 202.559 19.655 201.836 20.005C201.112 20.355 200.506 20.9617 200.016 21.825C199.549 22.665 199.316 23.8433 199.316 25.36V35.23C199.316 35.4633 199.246 35.65 199.106 35.79C198.966 35.93 198.779 36 198.546 36H197.951ZM232.808 36.35C231.688 36.35 230.65 36.1167 229.693 35.65C228.76 35.1833 228.002 34.565 227.418 33.795C226.835 33.0017 226.543 32.115 226.543 31.135C226.543 29.5483 227.185 28.2767 228.468 27.32C229.752 26.3633 231.42 25.745 233.473 25.465L239.003 24.695V23.47C239.003 22.2333 238.618 21.265 237.848 20.565C237.102 19.8417 235.9 19.48 234.243 19.48C233.03 19.48 232.05 19.725 231.303 20.215C230.557 20.6817 230.043 21.3 229.763 22.07C229.647 22.42 229.425 22.595 229.098 22.595H228.538C228.258 22.595 228.06 22.525 227.943 22.385C227.827 22.2217 227.768 22.035 227.768 21.825C227.768 21.4983 227.885 21.09 228.118 20.6C228.375 20.11 228.76 19.6317 229.273 19.165C229.787 18.675 230.452 18.2667 231.268 17.94C232.085 17.6133 233.077 17.45 234.243 17.45C235.62 17.45 236.752 17.6367 237.638 18.01C238.548 18.3833 239.248 18.8733 239.738 19.48C240.252 20.0633 240.613 20.7167 240.823 21.44C241.033 22.1633 241.138 22.875 241.138 23.575V35.23C241.138 35.4633 241.068 35.65 240.928 35.79C240.788 35.93 240.602 36 240.368 36H239.773C239.54 36 239.353 35.93 239.213 35.79C239.073 35.65 239.003 35.4633 239.003 35.23V33.585C238.723 34.005 238.327 34.425 237.813 34.845C237.3 35.265 236.635 35.6267 235.818 35.93C235.025 36.21 234.022 36.35 232.808 36.35ZM233.158 34.32C234.232 34.32 235.212 34.0867 236.098 33.62C236.985 33.1533 237.685 32.4417 238.198 31.485C238.735 30.505 239.003 29.28 239.003 27.81V26.62L234.488 27.25C232.575 27.5067 231.128 27.95 230.148 28.58C229.168 29.21 228.678 30.0033 228.678 30.96C228.678 31.73 228.9 32.36 229.343 32.85C229.787 33.34 230.347 33.7133 231.023 33.97C231.723 34.2033 232.435 34.32 233.158 34.32ZM247.443 36C247.21 36 247.023 35.93 246.883 35.79C246.743 35.65 246.673 35.4633 246.673 35.23V18.57C246.673 18.3367 246.743 18.15 246.883 18.01C247.023 17.87 247.21 17.8 247.443 17.8H248.038C248.271 17.8 248.458 17.87 248.598 18.01C248.738 18.15 248.808 18.3367 248.808 18.57V20.215C249.438 19.3983 250.196 18.7333 251.083 18.22C251.993 17.7067 253.195 17.45 254.688 17.45C256.275 17.45 257.593 17.8 258.643 18.5C259.716 19.1767 260.51 20.11 261.023 21.3C261.56 22.4667 261.828 23.7967 261.828 25.29V35.23C261.828 35.4633 261.758 35.65 261.618 35.79C261.478 35.93 261.291 36 261.058 36H260.463C260.23 36 260.043 35.93 259.903 35.79C259.763 35.65 259.693 35.4633 259.693 35.23V25.465C259.693 23.5983 259.238 22.14 258.328 21.09C257.418 20.0167 256.088 19.48 254.338 19.48C252.681 19.48 251.34 20.0167 250.313 21.09C249.31 22.14 248.808 23.5983 248.808 25.465V35.23C248.808 35.4633 248.738 35.65 248.598 35.79C248.458 35.93 248.271 36 248.038 36H247.443ZM272.217 36.35C271.097 36.35 270.059 36.1167 269.102 35.65C268.169 35.1833 267.411 34.565 266.827 33.795C266.244 33.0017 265.952 32.115 265.952 31.135C265.952 29.5483 266.594 28.2767 267.877 27.32C269.161 26.3633 270.829 25.745 272.882 25.465L278.412 24.695V23.47C278.412 22.2333 278.027 21.265 277.257 20.565C276.511 19.8417 275.309 19.48 273.652 19.48C272.439 19.48 271.459 19.725 270.712 20.215C269.966 20.6817 269.452 21.3 269.172 22.07C269.056 22.42 268.834 22.595 268.507 22.595H267.947C267.667 22.595 267.469 22.525 267.352 22.385C267.236 22.2217 267.177 22.035 267.177 21.825C267.177 21.4983 267.294 21.09 267.527 20.6C267.784 20.11 268.169 19.6317 268.682 19.165C269.196 18.675 269.861 18.2667 270.677 17.94C271.494 17.6133 272.486 17.45 273.652 17.45C275.029 17.45 276.161 17.6367 277.047 18.01C277.957 18.3833 278.657 18.8733 279.147 19.48C279.661 20.0633 280.022 20.7167 280.232 21.44C280.442 22.1633 280.547 22.875 280.547 23.575V35.23C280.547 35.4633 280.477 35.65 280.337 35.79C280.197 35.93 280.011 36 279.777 36H279.182C278.949 36 278.762 35.93 278.622 35.79C278.482 35.65 278.412 35.4633 278.412 35.23V33.585C278.132 34.005 277.736 34.425 277.222 34.845C276.709 35.265 276.044 35.6267 275.227 35.93C274.434 36.21 273.431 36.35 272.217 36.35ZM272.567 34.32C273.641 34.32 274.621 34.0867 275.507 33.62C276.394 33.1533 277.094 32.4417 277.607 31.485C278.144 30.505 278.412 29.28 278.412 27.81V26.62L273.897 27.25C271.984 27.5067 270.537 27.95 269.557 28.58C268.577 29.21 268.087 30.0033 268.087 30.96C268.087 31.73 268.309 32.36 268.752 32.85C269.196 33.34 269.756 33.7133 270.432 33.97C271.132 34.2033 271.844 34.32 272.567 34.32ZM295.631 26.515C295.397 26.515 295.211 26.445 295.071 26.305C294.931 26.165 294.861 25.9783 294.861 25.745V25.255C294.861 25.0217 294.931 24.835 295.071 24.695C295.211 24.555 295.397 24.485 295.631 24.485H305.956C306.189 24.485 306.376 24.555 306.516 24.695C306.656 24.835 306.726 25.0217 306.726 25.255V25.745C306.726 25.9783 306.656 26.165 306.516 26.305C306.376 26.445 306.189 26.515 305.956 26.515H295.631ZM326.842 36C326.608 36 326.422 35.93 326.282 35.79C326.142 35.65 326.072 35.4633 326.072 35.23V13.6H319.142C318.908 13.6 318.722 13.53 318.582 13.39C318.442 13.25 318.372 13.0633 318.372 12.83V12.305C318.372 12.0483 318.442 11.85 318.582 11.71C318.722 11.57 318.908 11.5 319.142 11.5H335.172C335.428 11.5 335.627 11.57 335.767 11.71C335.907 11.85 335.977 12.0483 335.977 12.305V12.83C335.977 13.0633 335.907 13.25 335.767 13.39C335.627 13.53 335.428 13.6 335.172 13.6H328.277V35.23C328.277 35.4633 328.207 35.65 328.067 35.79C327.927 35.93 327.728 36 327.472 36H326.842ZM340.969 36C340.736 36 340.549 35.93 340.409 35.79C340.269 35.65 340.199 35.4633 340.199 35.23V12.305C340.199 12.0483 340.269 11.85 340.409 11.71C340.549 11.57 340.736 11.5 340.969 11.5H350.104C351.738 11.5 353.068 11.7917 354.094 12.375C355.144 12.9583 355.914 13.7283 356.404 14.685C356.894 15.6183 357.139 16.645 357.139 17.765C357.139 18.7683 356.976 19.6317 356.649 20.355C356.346 21.055 355.949 21.6267 355.459 22.07C354.993 22.5133 354.526 22.8517 354.059 23.085C354.993 23.5517 355.821 24.2983 356.544 25.325C357.268 26.3517 357.629 27.6 357.629 29.07C357.629 30.2367 357.349 31.3567 356.789 32.43C356.253 33.48 355.436 34.3433 354.339 35.02C353.266 35.6733 351.936 36 350.349 36H340.969ZM342.404 33.9H349.999C351.726 33.9 353.056 33.445 353.989 32.535C354.946 31.625 355.424 30.47 355.424 29.07C355.424 27.6467 354.946 26.4917 353.989 25.605C353.056 24.695 351.726 24.24 349.999 24.24H342.404V33.9ZM342.404 22.14H349.649C351.376 22.14 352.683 21.755 353.569 20.985C354.479 20.215 354.934 19.1417 354.934 17.765C354.934 16.3883 354.479 15.35 353.569 14.65C352.683 13.95 351.376 13.6 349.649 13.6H342.404V22.14ZM363.835 36C363.602 36 363.415 35.93 363.275 35.79C363.135 35.65 363.065 35.4633 363.065 35.23V12.305C363.065 12.0483 363.135 11.85 363.275 11.71C363.415 11.57 363.602 11.5 363.835 11.5H371.29C373.764 11.5 375.7 11.8617 377.1 12.585C378.5 13.3083 379.492 14.3817 380.075 15.805C380.682 17.205 380.997 18.92 381.02 20.95C381.044 22 381.055 22.9333 381.055 23.75C381.055 24.5433 381.044 25.465 381.02 26.515C380.974 28.6617 380.659 30.435 380.075 31.835C379.492 33.235 378.512 34.285 377.135 34.985C375.759 35.6617 373.869 36 371.465 36H363.835ZM365.27 33.9H371.29C373.157 33.9 374.627 33.655 375.7 33.165C376.797 32.6517 377.579 31.8467 378.045 30.75C378.535 29.63 378.792 28.16 378.815 26.34C378.839 25.64 378.85 25.0333 378.85 24.52C378.85 23.9833 378.85 23.4583 378.85 22.945C378.85 22.4317 378.839 21.825 378.815 21.125C378.769 18.5583 378.174 16.6683 377.03 15.455C375.887 14.2183 373.915 13.6 371.115 13.6H365.27V33.9ZM26.2521 78C25.6221 78 25.0387 77.8483 24.5021 77.545C23.9654 77.2183 23.5337 76.7867 23.2071 76.25C22.9037 75.7133 22.7521 75.13 22.7521 74.5C22.7521 73.8467 22.9037 73.2633 23.2071 72.75C23.5337 72.2133 23.9654 71.7933 24.5021 71.49C25.0387 71.1633 25.6221 71 26.2521 71C26.9054 71 27.4887 71.1633 28.0021 71.49C28.5387 71.7933 28.9587 72.2133 29.2621 72.75C29.5887 73.2633 29.7521 73.8467 29.7521 74.5C29.7521 75.13 29.5887 75.7133 29.2621 76.25C28.9587 76.7867 28.5387 77.2183 28.0021 77.545C27.4887 77.8483 26.9054 78 26.2521 78ZM62.16 85C61.9267 85 61.74 84.93 61.6 84.79C61.46 84.65 61.39 84.4633 61.39 84.23V63.37L55.125 68.2C54.9383 68.34 54.74 68.3983 54.53 68.375C54.3433 68.3517 54.18 68.2467 54.04 68.06L53.655 67.57C53.515 67.3833 53.4567 67.1967 53.48 67.01C53.5033 66.8 53.6083 66.625 53.795 66.485L61.25 60.745C61.4133 60.6283 61.565 60.5583 61.705 60.535C61.845 60.5117 61.9967 60.5 62.16 60.5H62.825C63.0583 60.5 63.245 60.57 63.385 60.71C63.525 60.85 63.595 61.0367 63.595 61.27V84.23C63.595 84.4633 63.525 84.65 63.385 84.79C63.245 84.93 63.0583 85 62.825 85H62.16ZM84.0788 85.35C82.8654 85.35 81.8154 85.1867 80.9288 84.86C80.0654 84.5333 79.3538 84.1483 78.7938 83.705C78.2338 83.2383 77.8138 82.7833 77.5338 82.34C77.2771 81.8967 77.1371 81.5583 77.1138 81.325C77.0904 81.0683 77.1721 80.8817 77.3588 80.765C77.5454 80.625 77.7204 80.555 77.8838 80.555H78.4088C78.5488 80.555 78.6654 80.5783 78.7588 80.625C78.8754 80.6717 79.0154 80.8 79.1788 81.01C79.4821 81.4067 79.8321 81.7917 80.2288 82.165C80.6254 82.515 81.1271 82.795 81.7338 83.005C82.3638 83.215 83.1454 83.32 84.0788 83.32C85.4788 83.32 86.6338 83.0517 87.5438 82.515C88.4538 81.9783 88.9088 81.185 88.9088 80.135C88.9088 79.4817 88.7221 78.9567 88.3488 78.56C87.9988 78.1633 87.3921 77.8133 86.5288 77.51C85.6654 77.2067 84.4988 76.8917 83.0288 76.565C81.5588 76.215 80.4271 75.795 79.6338 75.305C78.8638 74.815 78.3388 74.255 78.0588 73.625C77.7788 72.9717 77.6388 72.2717 77.6388 71.525C77.6388 70.7083 77.8721 69.915 78.3388 69.145C78.8054 68.3517 79.4938 67.71 80.4038 67.22C81.3371 66.7067 82.5038 66.45 83.9038 66.45C85.0471 66.45 86.0154 66.6017 86.8088 66.905C87.6254 67.2083 88.2904 67.5817 88.8038 68.025C89.3171 68.445 89.6904 68.865 89.9238 69.285C90.1804 69.705 90.3204 70.0433 90.3438 70.3C90.3671 70.5333 90.2971 70.72 90.1338 70.86C89.9704 71 89.7838 71.07 89.5738 71.07H89.0488C88.8621 71.07 88.7104 71.035 88.5938 70.965C88.4771 70.8717 88.3721 70.755 88.2788 70.615C88.0454 70.2417 87.7654 69.8917 87.4388 69.565C87.1121 69.2383 86.6688 68.9817 86.1088 68.795C85.5721 68.585 84.8371 68.48 83.9038 68.48C82.5038 68.48 81.4654 68.7717 80.7888 69.355C80.1121 69.915 79.7738 70.6383 79.7738 71.525C79.7738 72.0383 79.9138 72.4933 80.1938 72.89C80.4738 73.2633 80.9988 73.6133 81.7688 73.94C82.5388 74.2433 83.6588 74.57 85.1288 74.92C86.6221 75.2467 87.8004 75.655 88.6638 76.145C89.5271 76.6117 90.1338 77.1717 90.4838 77.825C90.8571 78.4783 91.0438 79.2483 91.0438 80.135C91.0438 81.0683 90.7754 81.9317 90.2388 82.725C89.7254 83.5183 88.9438 84.16 87.8938 84.65C86.8671 85.1167 85.5954 85.35 84.0788 85.35ZM102.285 85.35C100.022 85.35 98.2253 84.615 96.8953 83.145C95.5653 81.6517 94.807 79.7033 94.6203 77.3C94.597 76.95 94.5853 76.4833 94.5853 75.9C94.5853 75.3167 94.597 74.85 94.6203 74.5C94.737 72.9133 95.1103 71.5133 95.7403 70.3C96.3703 69.0867 97.2336 68.1417 98.3303 67.465C99.4503 66.7883 100.769 66.45 102.285 66.45C103.919 66.45 105.307 66.8117 106.45 67.535C107.594 68.2583 108.469 69.2967 109.075 70.65C109.705 72.0033 110.02 73.6133 110.02 75.48V76.005C110.02 76.2383 109.939 76.425 109.775 76.565C109.635 76.705 109.449 76.775 109.215 76.775H96.7553C96.7553 76.775 96.7553 76.8217 96.7553 76.915C96.7553 77.0083 96.7553 77.0783 96.7553 77.125C96.802 78.175 97.047 79.1783 97.4903 80.135C97.9336 81.0683 98.5636 81.8383 99.3803 82.445C100.197 83.0283 101.165 83.32 102.285 83.32C103.289 83.32 104.117 83.1683 104.77 82.865C105.447 82.5617 105.984 82.235 106.38 81.885C106.777 81.5117 107.034 81.2317 107.15 81.045C107.36 80.7417 107.524 80.5667 107.64 80.52C107.757 80.45 107.944 80.415 108.2 80.415H108.76C108.97 80.415 109.145 80.485 109.285 80.625C109.449 80.7417 109.519 80.905 109.495 81.115C109.472 81.4417 109.285 81.85 108.935 82.34C108.609 82.8067 108.13 83.2733 107.5 83.74C106.894 84.2067 106.147 84.5917 105.26 84.895C104.374 85.1983 103.382 85.35 102.285 85.35ZM96.7553 74.815H107.885V74.675C107.885 73.5083 107.664 72.4583 107.22 71.525C106.777 70.5917 106.135 69.8567 105.295 69.32C104.455 68.76 103.452 68.48 102.285 68.48C101.119 68.48 100.115 68.76 99.2753 69.32C98.4586 69.8567 97.8286 70.5917 97.3853 71.525C96.9653 72.4583 96.7553 73.5083 96.7553 74.675V74.815ZM115.407 85C115.173 85 114.987 84.93 114.847 84.79C114.707 84.65 114.637 84.4633 114.637 84.23V67.57C114.637 67.3367 114.707 67.15 114.847 67.01C114.987 66.87 115.173 66.8 115.407 66.8H116.002C116.235 66.8 116.422 66.87 116.562 67.01C116.702 67.15 116.772 67.3367 116.772 67.57V68.795C117.355 68.0483 118.043 67.4767 118.837 67.08C119.653 66.66 120.633 66.45 121.777 66.45C124.39 66.45 126.257 67.5467 127.377 69.74C127.913 68.7367 128.695 67.9433 129.722 67.36C130.772 66.7533 131.973 66.45 133.327 66.45C134.563 66.45 135.672 66.7417 136.652 67.325C137.655 67.885 138.437 68.725 138.997 69.845C139.58 70.965 139.872 72.365 139.872 74.045V84.23C139.872 84.4633 139.802 84.65 139.662 84.79C139.522 84.93 139.335 85 139.102 85H138.507C138.273 85 138.087 84.93 137.947 84.79C137.807 84.65 137.737 84.4633 137.737 84.23V74.395C137.737 72.855 137.515 71.665 137.072 70.825C136.628 69.9617 136.045 69.355 135.322 69.005C134.598 68.655 133.817 68.48 132.977 68.48C132.277 68.48 131.565 68.655 130.842 69.005C130.118 69.355 129.512 69.9617 129.022 70.825C128.555 71.665 128.322 72.855 128.322 74.395V84.23C128.322 84.4633 128.252 84.65 128.112 84.79C127.972 84.93 127.785 85 127.552 85H126.957C126.723 85 126.537 84.93 126.397 84.79C126.257 84.65 126.187 84.4633 126.187 84.23V74.395C126.187 72.855 125.953 71.665 125.487 70.825C125.02 69.9617 124.425 69.355 123.702 69.005C122.978 68.655 122.22 68.48 121.427 68.48C120.727 68.48 120.015 68.655 119.292 69.005C118.568 69.355 117.962 69.9617 117.472 70.825C117.005 71.665 116.772 72.8433 116.772 74.36V84.23C116.772 84.4633 116.702 84.65 116.562 84.79C116.422 84.93 116.235 85 116.002 85H115.407ZM150.264 85.35C149.144 85.35 148.106 85.1167 147.149 84.65C146.216 84.1833 145.458 83.565 144.874 82.795C144.291 82.0017 143.999 81.115 143.999 80.135C143.999 78.5483 144.641 77.2767 145.924 76.32C147.208 75.3633 148.876 74.745 150.929 74.465L156.459 73.695V72.47C156.459 71.2333 156.074 70.265 155.304 69.565C154.558 68.8417 153.356 68.48 151.699 68.48C150.486 68.48 149.506 68.725 148.759 69.215C148.013 69.6817 147.499 70.3 147.219 71.07C147.103 71.42 146.881 71.595 146.554 71.595H145.994C145.714 71.595 145.516 71.525 145.399 71.385C145.283 71.2217 145.224 71.035 145.224 70.825C145.224 70.4983 145.341 70.09 145.574 69.6C145.831 69.11 146.216 68.6317 146.729 68.165C147.243 67.675 147.908 67.2667 148.724 66.94C149.541 66.6133 150.533 66.45 151.699 66.45C153.076 66.45 154.208 66.6367 155.094 67.01C156.004 67.3833 156.704 67.8733 157.194 68.48C157.708 69.0633 158.069 69.7167 158.279 70.44C158.489 71.1633 158.594 71.875 158.594 72.575V84.23C158.594 84.4633 158.524 84.65 158.384 84.79C158.244 84.93 158.058 85 157.824 85H157.229C156.996 85 156.809 84.93 156.669 84.79C156.529 84.65 156.459 84.4633 156.459 84.23V82.585C156.179 83.005 155.783 83.425 155.269 83.845C154.756 84.265 154.091 84.6267 153.274 84.93C152.481 85.21 151.478 85.35 150.264 85.35ZM150.614 83.32C151.688 83.32 152.668 83.0867 153.554 82.62C154.441 82.1533 155.141 81.4417 155.654 80.485C156.191 79.505 156.459 78.28 156.459 76.81V75.62L151.944 76.25C150.031 76.5067 148.584 76.95 147.604 77.58C146.624 78.21 146.134 79.0033 146.134 79.96C146.134 80.73 146.356 81.36 146.799 81.85C147.243 82.34 147.803 82.7133 148.479 82.97C149.179 83.2033 149.891 83.32 150.614 83.32ZM164.899 85C164.666 85 164.479 84.93 164.339 84.79C164.199 84.65 164.129 84.4633 164.129 84.23V67.57C164.129 67.3367 164.199 67.15 164.339 67.01C164.479 66.87 164.666 66.8 164.899 66.8H165.494C165.727 66.8 165.914 66.87 166.054 67.01C166.194 67.15 166.264 67.3367 166.264 67.57V69.215C166.894 68.3983 167.652 67.7333 168.539 67.22C169.449 66.7067 170.651 66.45 172.144 66.45C173.731 66.45 175.049 66.8 176.099 67.5C177.172 68.1767 177.966 69.11 178.479 70.3C179.016 71.4667 179.284 72.7967 179.284 74.29V84.23C179.284 84.4633 179.214 84.65 179.074 84.79C178.934 84.93 178.747 85 178.514 85H177.919C177.686 85 177.499 84.93 177.359 84.79C177.219 84.65 177.149 84.4633 177.149 84.23V74.465C177.149 72.5983 176.694 71.14 175.784 70.09C174.874 69.0167 173.544 68.48 171.794 68.48C170.137 68.48 168.796 69.0167 167.769 70.09C166.766 71.14 166.264 72.5983 166.264 74.465V84.23C166.264 84.4633 166.194 84.65 166.054 84.79C165.914 84.93 165.727 85 165.494 85H164.899ZM189.673 85.35C188.553 85.35 187.515 85.1167 186.558 84.65C185.625 84.1833 184.867 83.565 184.283 82.795C183.7 82.0017 183.408 81.115 183.408 80.135C183.408 78.5483 184.05 77.2767 185.333 76.32C186.617 75.3633 188.285 74.745 190.338 74.465L195.868 73.695V72.47C195.868 71.2333 195.483 70.265 194.713 69.565C193.967 68.8417 192.765 68.48 191.108 68.48C189.895 68.48 188.915 68.725 188.168 69.215C187.422 69.6817 186.908 70.3 186.628 71.07C186.512 71.42 186.29 71.595 185.963 71.595H185.403C185.123 71.595 184.925 71.525 184.808 71.385C184.692 71.2217 184.633 71.035 184.633 70.825C184.633 70.4983 184.75 70.09 184.983 69.6C185.24 69.11 185.625 68.6317 186.138 68.165C186.652 67.675 187.317 67.2667 188.133 66.94C188.95 66.6133 189.942 66.45 191.108 66.45C192.485 66.45 193.617 66.6367 194.503 67.01C195.413 67.3833 196.113 67.8733 196.603 68.48C197.117 69.0633 197.478 69.7167 197.688 70.44C197.898 71.1633 198.003 71.875 198.003 72.575V84.23C198.003 84.4633 197.933 84.65 197.793 84.79C197.653 84.93 197.467 85 197.233 85H196.638C196.405 85 196.218 84.93 196.078 84.79C195.938 84.65 195.868 84.4633 195.868 84.23V82.585C195.588 83.005 195.192 83.425 194.678 83.845C194.165 84.265 193.5 84.6267 192.683 84.93C191.89 85.21 190.887 85.35 189.673 85.35ZM190.023 83.32C191.097 83.32 192.077 83.0867 192.963 82.62C193.85 82.1533 194.55 81.4417 195.063 80.485C195.6 79.505 195.868 78.28 195.868 76.81V75.62L191.353 76.25C189.44 76.5067 187.993 76.95 187.013 77.58C186.033 78.21 185.543 79.0033 185.543 79.96C185.543 80.73 185.765 81.36 186.208 81.85C186.652 82.34 187.212 82.7133 187.888 82.97C188.588 83.2033 189.3 83.32 190.023 83.32ZM217.462 85.35C216.342 85.35 215.303 85.1167 214.347 84.65C213.413 84.1833 212.655 83.565 212.072 82.795C211.488 82.0017 211.197 81.115 211.197 80.135C211.197 78.5483 211.838 77.2767 213.122 76.32C214.405 75.3633 216.073 74.745 218.127 74.465L223.657 73.695V72.47C223.657 71.2333 223.272 70.265 222.502 69.565C221.755 68.8417 220.553 68.48 218.897 68.48C217.683 68.48 216.703 68.725 215.957 69.215C215.21 69.6817 214.697 70.3 214.417 71.07C214.3 71.42 214.078 71.595 213.752 71.595H213.192C212.912 71.595 212.713 71.525 212.597 71.385C212.48 71.2217 212.422 71.035 212.422 70.825C212.422 70.4983 212.538 70.09 212.772 69.6C213.028 69.11 213.413 68.6317 213.927 68.165C214.44 67.675 215.105 67.2667 215.922 66.94C216.738 66.6133 217.73 66.45 218.897 66.45C220.273 66.45 221.405 66.6367 222.292 67.01C223.202 67.3833 223.902 67.8733 224.392 68.48C224.905 69.0633 225.267 69.7167 225.477 70.44C225.687 71.1633 225.792 71.875 225.792 72.575V84.23C225.792 84.4633 225.722 84.65 225.582 84.79C225.442 84.93 225.255 85 225.022 85H224.427C224.193 85 224.007 84.93 223.867 84.79C223.727 84.65 223.657 84.4633 223.657 84.23V82.585C223.377 83.005 222.98 83.425 222.467 83.845C221.953 84.265 221.288 84.6267 220.472 84.93C219.678 85.21 218.675 85.35 217.462 85.35ZM217.812 83.32C218.885 83.32 219.865 83.0867 220.752 82.62C221.638 82.1533 222.338 81.4417 222.852 80.485C223.388 79.505 223.657 78.28 223.657 76.81V75.62L219.142 76.25C217.228 76.5067 215.782 76.95 214.802 77.58C213.822 78.21 213.332 79.0033 213.332 79.96C213.332 80.73 213.553 81.36 213.997 81.85C214.44 82.34 215 82.7133 215.677 82.97C216.377 83.2033 217.088 83.32 217.812 83.32ZM238.116 92.7C236.623 92.7 235.398 92.5017 234.441 92.105C233.508 91.7083 232.773 91.2183 232.236 90.635C231.723 90.075 231.361 89.5033 231.151 88.92C230.941 88.36 230.825 87.905 230.801 87.555C230.778 87.3217 230.848 87.1233 231.011 86.96C231.175 86.82 231.361 86.75 231.571 86.75H232.061C232.248 86.75 232.411 86.785 232.551 86.855C232.691 86.9483 232.808 87.1583 232.901 87.485C233.041 87.8583 233.263 88.29 233.566 88.78C233.893 89.2933 234.395 89.7367 235.071 90.11C235.771 90.4833 236.728 90.67 237.941 90.67C239.225 90.67 240.298 90.5067 241.161 90.18C242.025 89.8533 242.678 89.27 243.121 88.43C243.588 87.6133 243.821 86.47 243.821 85V82.585C243.238 83.3783 242.468 84.0433 241.511 84.58C240.578 85.0933 239.388 85.35 237.941 85.35C236.588 85.35 235.433 85.105 234.476 84.615C233.543 84.125 232.785 83.4717 232.201 82.655C231.618 81.8383 231.186 80.9283 230.906 79.925C230.626 78.9217 230.475 77.9067 230.451 76.88C230.428 76.2267 230.428 75.5733 230.451 74.92C230.475 73.8933 230.626 72.8783 230.906 71.875C231.186 70.8717 231.618 69.9617 232.201 69.145C232.785 68.3283 233.543 67.675 234.476 67.185C235.433 66.695 236.588 66.45 237.941 66.45C239.388 66.45 240.578 66.7183 241.511 67.255C242.468 67.7917 243.238 68.445 243.821 69.215V67.605C243.821 67.3717 243.891 67.185 244.031 67.045C244.171 66.8817 244.358 66.8 244.591 66.8H245.151C245.385 66.8 245.571 66.8817 245.711 67.045C245.875 67.185 245.956 67.3717 245.956 67.605V84.65C245.956 86.1433 245.735 87.4967 245.291 88.71C244.848 89.9233 244.055 90.8917 242.911 91.615C241.791 92.3383 240.193 92.7 238.116 92.7ZM238.151 83.32C239.481 83.32 240.555 83.005 241.371 82.375C242.188 81.745 242.783 80.9633 243.156 80.03C243.553 79.0733 243.775 78.1167 243.821 77.16C243.845 76.81 243.856 76.39 243.856 75.9C243.856 75.41 243.845 74.99 243.821 74.64C243.775 73.6833 243.553 72.7383 243.156 71.805C242.783 70.8483 242.188 70.055 241.371 69.425C240.555 68.795 239.481 68.48 238.151 68.48C236.798 68.48 235.713 68.7833 234.896 69.39C234.103 69.9967 233.531 70.79 233.181 71.77C232.831 72.75 232.633 73.8 232.586 74.92C232.563 75.5733 232.563 76.2267 232.586 76.88C232.633 78 232.831 79.05 233.181 80.03C233.531 81.01 234.103 81.8033 234.896 82.41C235.713 83.0167 236.798 83.32 238.151 83.32ZM258.593 85.35C256.913 85.35 255.501 85 254.358 84.3C253.238 83.6 252.375 82.6433 251.768 81.43C251.185 80.2167 250.87 78.8633 250.823 77.37C250.8 77.02 250.788 76.53 250.788 75.9C250.788 75.27 250.8 74.78 250.823 74.43C250.87 72.9133 251.185 71.56 251.768 70.37C252.375 69.1567 253.238 68.2 254.358 67.5C255.501 66.8 256.913 66.45 258.593 66.45C260.273 66.45 261.673 66.8 262.793 67.5C263.936 68.2 264.8 69.1567 265.383 70.37C265.99 71.56 266.316 72.9133 266.363 74.43C266.386 74.78 266.398 75.27 266.398 75.9C266.398 76.53 266.386 77.02 266.363 77.37C266.316 78.8633 265.99 80.2167 265.383 81.43C264.8 82.6433 263.936 83.6 262.793 84.3C261.673 85 260.273 85.35 258.593 85.35ZM258.593 83.32C260.226 83.32 261.556 82.795 262.583 81.745C263.61 80.695 264.158 79.1783 264.228 77.195C264.251 76.845 264.263 76.4133 264.263 75.9C264.263 75.3867 264.251 74.955 264.228 74.605C264.158 72.5983 263.61 71.0817 262.583 70.055C261.556 69.005 260.226 68.48 258.593 68.48C256.96 68.48 255.63 69.005 254.603 70.055C253.576 71.0817 253.028 72.5983 252.958 74.605C252.935 74.955 252.923 75.3867 252.923 75.9C252.923 76.4133 252.935 76.845 252.958 77.195C253.028 79.1783 253.576 80.695 254.603 81.745C255.63 82.795 256.96 83.32 258.593 83.32ZM276.955 85.35C275.741 85.35 274.691 85.1867 273.805 84.86C272.941 84.5333 272.23 84.1483 271.67 83.705C271.11 83.2383 270.69 82.7833 270.41 82.34C270.153 81.8967 270.013 81.5583 269.99 81.325C269.966 81.0683 270.048 80.8817 270.235 80.765C270.421 80.625 270.596 80.555 270.76 80.555H271.285C271.425 80.555 271.541 80.5783 271.635 80.625C271.751 80.6717 271.891 80.8 272.055 81.01C272.358 81.4067 272.708 81.7917 273.105 82.165C273.501 82.515 274.003 82.795 274.61 83.005C275.24 83.215 276.021 83.32 276.955 83.32C278.355 83.32 279.51 83.0517 280.42 82.515C281.33 81.9783 281.785 81.185 281.785 80.135C281.785 79.4817 281.598 78.9567 281.225 78.56C280.875 78.1633 280.268 77.8133 279.405 77.51C278.541 77.2067 277.375 76.8917 275.905 76.565C274.435 76.215 273.303 75.795 272.51 75.305C271.74 74.815 271.215 74.255 270.935 73.625C270.655 72.9717 270.515 72.2717 270.515 71.525C270.515 70.7083 270.748 69.915 271.215 69.145C271.681 68.3517 272.37 67.71 273.28 67.22C274.213 66.7067 275.38 66.45 276.78 66.45C277.923 66.45 278.891 66.6017 279.685 66.905C280.501 67.2083 281.166 67.5817 281.68 68.025C282.193 68.445 282.566 68.865 282.8 69.285C283.056 69.705 283.196 70.0433 283.22 70.3C283.243 70.5333 283.173 70.72 283.01 70.86C282.846 71 282.66 71.07 282.45 71.07H281.925C281.738 71.07 281.586 71.035 281.47 70.965C281.353 70.8717 281.248 70.755 281.155 70.615C280.921 70.2417 280.641 69.8917 280.315 69.565C279.988 69.2383 279.545 68.9817 278.985 68.795C278.448 68.585 277.713 68.48 276.78 68.48C275.38 68.48 274.341 68.7717 273.665 69.355C272.988 69.915 272.65 70.6383 272.65 71.525C272.65 72.0383 272.79 72.4933 273.07 72.89C273.35 73.2633 273.875 73.6133 274.645 73.94C275.415 74.2433 276.535 74.57 278.005 74.92C279.498 75.2467 280.676 75.655 281.54 76.145C282.403 76.6117 283.01 77.1717 283.36 77.825C283.733 78.4783 283.92 79.2483 283.92 80.135C283.92 81.0683 283.651 81.9317 283.115 82.725C282.601 83.5183 281.82 84.16 280.77 84.65C279.743 85.1167 278.471 85.35 276.955 85.35ZM294.531 85C293.318 85 292.361 84.7433 291.661 84.23C290.961 83.7167 290.471 83.0167 290.191 82.13C289.911 81.2433 289.771 80.2517 289.771 79.155V68.83H287.041C286.808 68.83 286.621 68.76 286.481 68.62C286.341 68.48 286.271 68.2933 286.271 68.06V67.57C286.271 67.3367 286.341 67.15 286.481 67.01C286.621 66.87 286.808 66.8 287.041 66.8H289.771V60.92C289.771 60.6867 289.841 60.5 289.981 60.36C290.121 60.22 290.308 60.15 290.541 60.15H291.136C291.37 60.15 291.556 60.22 291.696 60.36C291.836 60.5 291.906 60.6867 291.906 60.92V66.8H296.246C296.48 66.8 296.666 66.87 296.806 67.01C296.946 67.15 297.016 67.3367 297.016 67.57V68.06C297.016 68.2933 296.946 68.48 296.806 68.62C296.666 68.76 296.48 68.83 296.246 68.83H291.906V79.015C291.906 80.2517 292.105 81.22 292.501 81.92C292.921 82.62 293.656 82.97 294.706 82.97H296.596C296.83 82.97 297.016 83.04 297.156 83.18C297.296 83.32 297.366 83.5067 297.366 83.74V84.23C297.366 84.4633 297.296 84.65 297.156 84.79C297.016 84.93 296.83 85 296.596 85H294.531ZM307.914 85.35C306.234 85.35 304.823 85 303.679 84.3C302.559 83.6 301.696 82.6433 301.089 81.43C300.506 80.2167 300.191 78.8633 300.144 77.37C300.121 77.02 300.109 76.53 300.109 75.9C300.109 75.27 300.121 74.78 300.144 74.43C300.191 72.9133 300.506 71.56 301.089 70.37C301.696 69.1567 302.559 68.2 303.679 67.5C304.823 66.8 306.234 66.45 307.914 66.45C309.594 66.45 310.994 66.8 312.114 67.5C313.258 68.2 314.121 69.1567 314.704 70.37C315.311 71.56 315.638 72.9133 315.684 74.43C315.708 74.78 315.719 75.27 315.719 75.9C315.719 76.53 315.708 77.02 315.684 77.37C315.638 78.8633 315.311 80.2167 314.704 81.43C314.121 82.6433 313.258 83.6 312.114 84.3C310.994 85 309.594 85.35 307.914 85.35ZM307.914 83.32C309.548 83.32 310.878 82.795 311.904 81.745C312.931 80.695 313.479 79.1783 313.549 77.195C313.573 76.845 313.584 76.4133 313.584 75.9C313.584 75.3867 313.573 74.955 313.549 74.605C313.479 72.5983 312.931 71.0817 311.904 70.055C310.878 69.005 309.548 68.48 307.914 68.48C306.281 68.48 304.951 69.005 303.924 70.055C302.898 71.0817 302.349 72.5983 302.279 74.605C302.256 74.955 302.244 75.3867 302.244 75.9C302.244 76.4133 302.256 76.845 302.279 77.195C302.349 79.1783 302.898 80.695 303.924 81.745C304.951 82.795 306.281 83.32 307.914 83.32ZM329.279 85C329.046 85 328.859 84.93 328.719 84.79C328.579 84.65 328.509 84.4633 328.509 84.23V83.705C328.509 83.4717 328.568 83.25 328.684 83.04C328.824 82.8067 329.058 82.5383 329.384 82.235L338.449 73.17C339.336 72.3533 340.013 71.6417 340.479 71.035C340.946 70.4283 341.261 69.8333 341.424 69.25C341.611 68.6433 341.704 67.9783 341.704 67.255C341.704 65.6917 341.249 64.4667 340.339 63.58C339.453 62.6933 338.181 62.25 336.524 62.25C335.474 62.25 334.564 62.46 333.794 62.88C333.024 63.3 332.418 63.895 331.974 64.665C331.531 65.4117 331.239 66.2867 331.099 67.29C331.076 67.57 330.971 67.78 330.784 67.92C330.598 68.0367 330.434 68.095 330.294 68.095H329.594C329.361 68.095 329.174 68.0367 329.034 67.92C328.918 67.78 328.859 67.6167 328.859 67.43C328.883 66.6367 329.046 65.82 329.349 64.98C329.653 64.1167 330.108 63.3233 330.714 62.6C331.344 61.8767 332.138 61.2933 333.094 60.85C334.051 60.3833 335.194 60.15 336.524 60.15C338.298 60.15 339.721 60.4883 340.794 61.165C341.891 61.8417 342.684 62.7167 343.174 63.79C343.664 64.8633 343.909 66.0183 343.909 67.255C343.909 68.2117 343.769 69.0983 343.489 69.915C343.209 70.7083 342.789 71.49 342.229 72.26C341.669 73.0067 340.958 73.7767 340.094 74.57L331.904 82.9H343.629C343.886 82.9 344.084 82.97 344.224 83.11C344.364 83.25 344.434 83.4483 344.434 83.705V84.23C344.434 84.4633 344.364 84.65 344.224 84.79C344.084 84.93 343.886 85 343.629 85H329.279ZM357.054 85.35C355.468 85.35 354.138 85.0933 353.064 84.58C352.014 84.0667 351.163 83.3667 350.509 82.48C349.879 81.57 349.424 80.5317 349.144 79.365C348.864 78.1983 348.701 76.9733 348.654 75.69C348.654 75.06 348.643 74.4183 348.619 73.765C348.619 73.1117 348.619 72.4583 348.619 71.805C348.643 71.1283 348.654 70.4633 348.654 69.81C348.678 68.5267 348.829 67.3017 349.109 66.135C349.413 64.9683 349.879 63.9417 350.509 63.055C351.163 62.145 352.014 61.4333 353.064 60.92C354.138 60.4067 355.468 60.15 357.054 60.15C358.641 60.15 359.959 60.4067 361.009 60.92C362.083 61.4333 362.934 62.145 363.564 63.055C364.218 63.9417 364.684 64.9683 364.964 66.135C365.268 67.3017 365.431 68.5267 365.454 69.81C365.478 70.4633 365.489 71.1283 365.489 71.805C365.489 72.4583 365.489 73.1117 365.489 73.765C365.489 74.4183 365.478 75.06 365.454 75.69C365.431 76.9733 365.268 78.1983 364.964 79.365C364.684 80.5317 364.218 81.57 363.564 82.48C362.934 83.3667 362.083 84.0667 361.009 84.58C359.959 85.0933 358.641 85.35 357.054 85.35ZM357.054 83.25C359.131 83.25 360.671 82.5617 361.674 81.185C362.678 79.8083 363.203 77.9183 363.249 75.515C363.273 74.8383 363.284 74.2083 363.284 73.625C363.284 73.0183 363.284 72.4233 363.284 71.84C363.284 71.2333 363.273 70.615 363.249 69.985C363.203 67.6283 362.678 65.75 361.674 64.35C360.671 62.95 359.131 62.25 357.054 62.25C355.001 62.25 353.461 62.95 352.434 64.35C351.431 65.75 350.906 67.6283 350.859 69.985C350.859 70.615 350.848 71.2333 350.824 71.84C350.824 72.4233 350.824 73.0183 350.824 73.625C350.848 74.2083 350.859 74.8383 350.859 75.515C350.906 77.9183 351.431 79.8083 352.434 81.185C353.461 82.5617 355.001 83.25 357.054 83.25ZM370.432 85C370.198 85 370.012 84.93 369.872 84.79C369.732 84.65 369.662 84.4633 369.662 84.23V83.705C369.662 83.4717 369.72 83.25 369.837 83.04C369.977 82.8067 370.21 82.5383 370.537 82.235L379.602 73.17C380.488 72.3533 381.165 71.6417 381.632 71.035C382.098 70.4283 382.413 69.8333 382.577 69.25C382.763 68.6433 382.857 67.9783 382.857 67.255C382.857 65.6917 382.402 64.4667 381.492 63.58C380.605 62.6933 379.333 62.25 377.677 62.25C376.627 62.25 375.717 62.46 374.947 62.88C374.177 63.3 373.57 63.895 373.127 64.665C372.683 65.4117 372.392 66.2867 372.252 67.29C372.228 67.57 372.123 67.78 371.937 67.92C371.75 68.0367 371.587 68.095 371.447 68.095H370.747C370.513 68.095 370.327 68.0367 370.187 67.92C370.07 67.78 370.012 67.6167 370.012 67.43C370.035 66.6367 370.198 65.82 370.502 64.98C370.805 64.1167 371.26 63.3233 371.867 62.6C372.497 61.8767 373.29 61.2933 374.247 60.85C375.203 60.3833 376.347 60.15 377.677 60.15C379.45 60.15 380.873 60.4883 381.947 61.165C383.043 61.8417 383.837 62.7167 384.327 63.79C384.817 64.8633 385.062 66.0183 385.062 67.255C385.062 68.2117 384.922 69.0983 384.642 69.915C384.362 70.7083 383.942 71.49 383.382 72.26C382.822 73.0067 382.11 73.7767 381.247 74.57L373.057 82.9H384.782C385.038 82.9 385.237 82.97 385.377 83.11C385.517 83.25 385.587 83.4483 385.587 83.705V84.23C385.587 84.4633 385.517 84.65 385.377 84.79C385.237 84.93 385.038 85 384.782 85H370.432ZM397.857 85.35C395.99 85.35 394.427 84.9533 393.167 84.16C391.907 83.3667 390.95 82.34 390.297 81.08C389.667 79.82 389.352 78.49 389.352 77.09C389.352 76.4133 389.422 75.7717 389.562 75.165C389.725 74.535 389.923 73.9517 390.157 73.415C390.39 72.8783 390.623 72.4 390.857 71.98C391.113 71.5367 391.347 71.175 391.557 70.895L398.452 61.2C398.568 61.0833 398.697 60.9433 398.837 60.78C399 60.5933 399.233 60.5 399.537 60.5H400.202C400.412 60.5 400.575 60.5817 400.692 60.745C400.832 60.885 400.902 61.06 400.902 61.27C400.902 61.3633 400.878 61.4567 400.832 61.55C400.808 61.62 400.773 61.6783 400.727 61.725L395.477 69.145C395.803 69.0517 396.188 68.9817 396.632 68.935C397.075 68.8883 397.483 68.865 397.857 68.865C399.257 68.865 400.482 69.0983 401.532 69.565C402.605 70.0083 403.492 70.615 404.192 71.385C404.915 72.155 405.452 73.0417 405.802 74.045C406.175 75.025 406.362 76.04 406.362 77.09C406.362 78.49 406.035 79.82 405.382 81.08C404.752 82.34 403.807 83.3667 402.547 84.16C401.287 84.9533 399.723 85.35 397.857 85.35ZM397.857 83.25C398.953 83.25 399.98 83.0167 400.937 82.55C401.893 82.0833 402.663 81.395 403.247 80.485C403.853 79.5517 404.157 78.42 404.157 77.09C404.157 75.76 403.853 74.64 403.247 73.73C402.663 72.82 401.893 72.1317 400.937 71.665C399.98 71.1983 398.953 70.965 397.857 70.965C396.76 70.965 395.733 71.1983 394.777 71.665C393.82 72.1317 393.038 72.82 392.432 73.73C391.848 74.64 391.557 75.76 391.557 77.09C391.557 78.42 391.848 79.5517 392.432 80.485C393.038 81.395 393.82 82.0833 394.777 82.55C395.733 83.0167 396.76 83.25 397.857 83.25ZM420.181 75.515C419.948 75.515 419.761 75.445 419.621 75.305C419.481 75.165 419.411 74.9783 419.411 74.745V74.255C419.411 74.0217 419.481 73.835 419.621 73.695C419.761 73.555 419.948 73.485 420.181 73.485H430.506C430.74 73.485 430.926 73.555 431.066 73.695C431.206 73.835 431.276 74.0217 431.276 74.255V74.745C431.276 74.9783 431.206 75.165 431.066 75.305C430.926 75.445 430.74 75.515 430.506 75.515H420.181ZM451.393 85C451.159 85 450.973 84.93 450.833 84.79C450.693 84.65 450.623 84.4633 450.623 84.23V62.6H443.693C443.459 62.6 443.273 62.53 443.133 62.39C442.993 62.25 442.923 62.0633 442.923 61.83V61.305C442.923 61.0483 442.993 60.85 443.133 60.71C443.273 60.57 443.459 60.5 443.693 60.5H459.723C459.979 60.5 460.178 60.57 460.318 60.71C460.458 60.85 460.528 61.0483 460.528 61.305V61.83C460.528 62.0633 460.458 62.25 460.318 62.39C460.178 62.53 459.979 62.6 459.723 62.6H452.828V84.23C452.828 84.4633 452.758 84.65 452.618 84.79C452.478 84.93 452.279 85 452.023 85H451.393ZM465.52 85C465.287 85 465.1 84.93 464.96 84.79C464.82 84.65 464.75 84.4633 464.75 84.23V61.305C464.75 61.0483 464.82 60.85 464.96 60.71C465.1 60.57 465.287 60.5 465.52 60.5H474.655C476.288 60.5 477.618 60.7917 478.645 61.375C479.695 61.9583 480.465 62.7283 480.955 63.685C481.445 64.6183 481.69 65.645 481.69 66.765C481.69 67.7683 481.527 68.6317 481.2 69.355C480.897 70.055 480.5 70.6267 480.01 71.07C479.543 71.5133 479.077 71.8517 478.61 72.085C479.543 72.5517 480.372 73.2983 481.095 74.325C481.818 75.3517 482.18 76.6 482.18 78.07C482.18 79.2367 481.9 80.3567 481.34 81.43C480.803 82.48 479.987 83.3433 478.89 84.02C477.817 84.6733 476.487 85 474.9 85H465.52ZM466.955 82.9H474.55C476.277 82.9 477.607 82.445 478.54 81.535C479.497 80.625 479.975 79.47 479.975 78.07C479.975 76.6467 479.497 75.4917 478.54 74.605C477.607 73.695 476.277 73.24 474.55 73.24H466.955V82.9ZM466.955 71.14H474.2C475.927 71.14 477.233 70.755 478.12 69.985C479.03 69.215 479.485 68.1417 479.485 66.765C479.485 65.3883 479.03 64.35 478.12 63.65C477.233 62.95 475.927 62.6 474.2 62.6H466.955V71.14ZM488.386 85C488.153 85 487.966 84.93 487.826 84.79C487.686 84.65 487.616 84.4633 487.616 84.23V61.305C487.616 61.0483 487.686 60.85 487.826 60.71C487.966 60.57 488.153 60.5 488.386 60.5H495.841C498.315 60.5 500.251 60.8617 501.651 61.585C503.051 62.3083 504.043 63.3817 504.626 64.805C505.233 66.205 505.548 67.92 505.571 69.95C505.595 71 505.606 71.9333 505.606 72.75C505.606 73.5433 505.595 74.465 505.571 75.515C505.525 77.6617 505.21 79.435 504.626 80.835C504.043 82.235 503.063 83.285 501.686 83.985C500.31 84.6617 498.42 85 496.016 85H488.386ZM489.821 82.9H495.841C497.708 82.9 499.178 82.655 500.251 82.165C501.348 81.6517 502.13 80.8467 502.596 79.75C503.086 78.63 503.343 77.16 503.366 75.34C503.39 74.64 503.401 74.0333 503.401 73.52C503.401 72.9833 503.401 72.4583 503.401 71.945C503.401 71.4317 503.39 70.825 503.366 70.125C503.32 67.5583 502.725 65.6683 501.581 64.455C500.438 63.2183 498.466 62.6 495.666 62.6H489.821V82.9Z" fill="black"/>
</g>
</svg>
