<svg width="1252" height="55" viewBox="0 0 1252 55" fill="none" xmlns="http://www.w3.org/2000/svg">
<path id="Inspirar jovens a descobrir o sentido da vida no amor." d="M8.54395 20.2422V47H4.49121V20.2422H8.54395ZM6.56641 10.2324C7.23372 10.2324 7.80339 10.4521 8.27539 10.8916C8.76367 11.3148 9.00781 11.9821 9.00781 12.8936C9.00781 13.7887 8.76367 14.4561 8.27539 14.8955C7.80339 15.335 7.23372 15.5547 6.56641 15.5547C5.86654 15.5547 5.2806 15.335 4.80859 14.8955C4.35286 14.4561 4.125 13.7887 4.125 12.8936C4.125 11.9821 4.35286 11.3148 4.80859 10.8916C5.2806 10.4521 5.86654 10.2324 6.56641 10.2324ZM29.8086 19.7539C32.9824 19.7539 35.3831 20.5352 37.0107 22.0977C38.6383 23.6439 39.4521 26.1341 39.4521 29.5684V47H35.4482V29.8369C35.4482 27.6071 34.9355 25.9388 33.9102 24.832C32.901 23.7253 31.3467 23.1719 29.2471 23.1719C26.2848 23.1719 24.2015 24.0101 22.9971 25.6865C21.7926 27.363 21.1904 29.7962 21.1904 32.9863V47H17.1377V20.2422H20.4092L21.0195 24.0996H21.2393C21.8089 23.1556 22.5332 22.3662 23.4121 21.7314C24.291 21.0804 25.2757 20.5921 26.3662 20.2666C27.4567 19.9248 28.6042 19.7539 29.8086 19.7539ZM65.1113 39.6758C65.1113 41.3848 64.68 42.8252 63.8174 43.9971C62.971 45.1527 61.7503 46.0234 60.1553 46.6094C58.5765 47.1953 56.6885 47.4883 54.4912 47.4883C52.6195 47.4883 51 47.3418 49.6328 47.0488C48.2656 46.7559 47.0693 46.3408 46.0439 45.8037V42.0684C47.1344 42.6055 48.4365 43.0938 49.9502 43.5332C51.4639 43.9727 53.0101 44.1924 54.5889 44.1924C56.9001 44.1924 58.5765 43.818 59.6182 43.0693C60.6598 42.3206 61.1807 41.3034 61.1807 40.0176C61.1807 39.2852 60.9691 38.6423 60.5459 38.0889C60.139 37.5192 59.4473 36.974 58.4707 36.4531C57.4941 35.916 56.1432 35.3301 54.418 34.6953C52.709 34.0443 51.2279 33.4014 49.9746 32.7666C48.7376 32.1156 47.7773 31.3262 47.0938 30.3984C46.4264 29.4707 46.0928 28.2663 46.0928 26.7852C46.0928 24.5228 47.0042 22.7894 48.8271 21.585C50.6663 20.3643 53.0752 19.7539 56.0537 19.7539C57.665 19.7539 59.1706 19.9167 60.5703 20.2422C61.9863 20.5514 63.3047 20.9746 64.5254 21.5117L63.1582 24.7588C62.0514 24.2868 60.8714 23.888 59.6182 23.5625C58.3649 23.237 57.0872 23.0742 55.7852 23.0742C53.9134 23.0742 52.473 23.3835 51.4639 24.002C50.471 24.6204 49.9746 25.4668 49.9746 26.541C49.9746 27.3711 50.2025 28.0547 50.6582 28.5918C51.1302 29.1289 51.8789 29.6335 52.9043 30.1055C53.9297 30.5775 55.2806 31.1309 56.957 31.7656C58.6335 32.3841 60.082 33.027 61.3027 33.6943C62.5234 34.3454 63.4593 35.1429 64.1104 36.0869C64.7777 37.0146 65.1113 38.2109 65.1113 39.6758ZM84.2031 19.7539C87.5397 19.7539 90.2008 20.9014 92.1865 23.1963C94.1722 25.4912 95.165 28.9417 95.165 33.5479C95.165 36.5915 94.7093 39.1468 93.7979 41.2139C92.8864 43.2809 91.6006 44.8434 89.9404 45.9014C88.2965 46.9593 86.3516 47.4883 84.1055 47.4883C82.6895 47.4883 81.4443 47.3011 80.3701 46.9268C79.2959 46.5524 78.3763 46.0479 77.6113 45.4131C76.8464 44.7783 76.2116 44.0866 75.707 43.3379H75.4141C75.4629 43.9727 75.5199 44.7376 75.585 45.6328C75.6663 46.528 75.707 47.3092 75.707 47.9766V58.9629H71.6299V20.2422H74.9746L75.5117 24.1973H75.707C76.2279 23.3835 76.8626 22.6429 77.6113 21.9756C78.36 21.292 79.2715 20.7549 80.3457 20.3643C81.4362 19.9574 82.722 19.7539 84.2031 19.7539ZM83.4951 23.1719C81.6396 23.1719 80.1423 23.5299 79.0029 24.2461C77.8799 24.9622 77.0579 26.0365 76.5371 27.4688C76.0163 28.8848 75.7396 30.667 75.707 32.8154V33.5967C75.707 35.859 75.9512 37.7715 76.4395 39.334C76.944 40.8965 77.766 42.0846 78.9053 42.8984C80.0609 43.7122 81.6071 44.1191 83.5439 44.1191C85.2041 44.1191 86.5876 43.6715 87.6943 42.7764C88.8011 41.8812 89.623 40.6361 90.1602 39.041C90.7135 37.4297 90.9902 35.5824 90.9902 33.499C90.9902 30.3415 90.3717 27.835 89.1348 25.9795C87.9141 24.1077 86.0342 23.1719 83.4951 23.1719ZM106.298 20.2422V47H102.245V20.2422H106.298ZM104.32 10.2324C104.988 10.2324 105.557 10.4521 106.029 10.8916C106.518 11.3148 106.762 11.9821 106.762 12.8936C106.762 13.7887 106.518 14.4561 106.029 14.8955C105.557 15.335 104.988 15.5547 104.32 15.5547C103.62 15.5547 103.035 15.335 102.562 14.8955C102.107 14.4561 101.879 13.7887 101.879 12.8936C101.879 11.9821 102.107 11.3148 102.562 10.8916C103.035 10.4521 103.62 10.2324 104.32 10.2324ZM127.05 19.7539C127.587 19.7539 128.148 19.7865 128.734 19.8516C129.32 19.9004 129.841 19.9736 130.297 20.0713L129.784 23.8311C129.345 23.7171 128.856 23.6276 128.319 23.5625C127.782 23.4974 127.278 23.4648 126.806 23.4648C125.731 23.4648 124.714 23.6846 123.754 24.124C122.81 24.5472 121.98 25.1657 121.264 25.9795C120.548 26.777 119.986 27.7454 119.579 28.8848C119.172 30.0078 118.969 31.2611 118.969 32.6445V47H114.892V20.2422H118.261L118.7 25.1738H118.871C119.424 24.181 120.092 23.2777 120.873 22.4639C121.654 21.6338 122.558 20.9746 123.583 20.4863C124.625 19.998 125.78 19.7539 127.05 19.7539ZM145.36 19.8027C148.55 19.8027 150.919 20.5189 152.465 21.9512C154.011 23.3835 154.784 25.6702 154.784 28.8115V47H151.83L151.049 43.0449H150.854C150.105 44.0215 149.324 44.8434 148.51 45.5107C147.696 46.1618 146.752 46.6582 145.678 47C144.62 47.3255 143.318 47.4883 141.771 47.4883C140.144 47.4883 138.695 47.2035 137.426 46.6338C136.173 46.0641 135.18 45.2015 134.447 44.0459C133.731 42.8903 133.373 41.4255 133.373 39.6514C133.373 36.9821 134.431 34.9313 136.547 33.499C138.663 32.0667 141.885 31.2855 146.215 31.1553L150.829 30.96V29.3242C150.829 27.013 150.333 25.3936 149.34 24.4658C148.347 23.5381 146.947 23.0742 145.141 23.0742C143.741 23.0742 142.406 23.2777 141.137 23.6846C139.867 24.0915 138.663 24.5716 137.523 25.125L136.278 22.0488C137.483 21.4303 138.866 20.9014 140.429 20.4619C141.991 20.0225 143.635 19.8027 145.36 19.8027ZM150.78 33.8164L146.703 33.9873C143.367 34.1175 141.015 34.6628 139.647 35.623C138.28 36.5833 137.597 37.9424 137.597 39.7002C137.597 41.2301 138.061 42.3613 138.988 43.0938C139.916 43.8262 141.145 44.1924 142.675 44.1924C145.051 44.1924 146.996 43.5332 148.51 42.2148C150.023 40.8965 150.78 38.9189 150.78 36.2822V33.8164ZM175.292 19.7539C175.829 19.7539 176.391 19.7865 176.977 19.8516C177.562 19.9004 178.083 19.9736 178.539 20.0713L178.026 23.8311C177.587 23.7171 177.099 23.6276 176.562 23.5625C176.024 23.4974 175.52 23.4648 175.048 23.4648C173.974 23.4648 172.956 23.6846 171.996 24.124C171.052 24.5472 170.222 25.1657 169.506 25.9795C168.79 26.777 168.228 27.7454 167.821 28.8848C167.414 30.0078 167.211 31.2611 167.211 32.6445V47H163.134V20.2422H166.503L166.942 25.1738H167.113C167.667 24.181 168.334 23.2777 169.115 22.4639C169.896 21.6338 170.8 20.9746 171.825 20.4863C172.867 19.998 174.022 19.7539 175.292 19.7539ZM193.358 59.0117C192.528 59.0117 191.804 58.9466 191.186 58.8164C190.567 58.7025 190.03 58.5641 189.574 58.4014V55.1055C190.079 55.2682 190.591 55.3903 191.112 55.4717C191.633 55.5693 192.219 55.6182 192.87 55.6182C193.977 55.6182 194.872 55.3089 195.556 54.6904C196.239 54.0719 196.581 52.9489 196.581 51.3213V20.2422H200.634V51.2236C200.634 52.8512 200.373 54.2428 199.853 55.3984C199.332 56.5703 198.534 57.4655 197.46 58.084C196.386 58.7025 195.019 59.0117 193.358 59.0117ZM196.215 12.8936C196.215 11.9821 196.443 11.3148 196.898 10.8916C197.37 10.4521 197.956 10.2324 198.656 10.2324C199.324 10.2324 199.893 10.4521 200.365 10.8916C200.854 11.3148 201.098 11.9821 201.098 12.8936C201.098 13.7887 200.854 14.4561 200.365 14.8955C199.893 15.335 199.324 15.5547 198.656 15.5547C197.956 15.5547 197.37 15.335 196.898 14.8955C196.443 14.4561 196.215 13.7887 196.215 12.8936ZM232.299 33.5723C232.299 35.7695 232.014 37.7308 231.444 39.4561C230.875 41.1813 230.053 42.638 228.979 43.8262C227.904 45.0143 226.602 45.9258 225.072 46.5605C223.559 47.179 221.841 47.4883 219.921 47.4883C218.131 47.4883 216.487 47.179 214.989 46.5605C213.508 45.9258 212.222 45.0143 211.132 43.8262C210.058 42.638 209.219 41.1813 208.617 39.4561C208.031 37.7308 207.738 35.7695 207.738 33.5723C207.738 30.6426 208.235 28.1523 209.228 26.1016C210.22 24.0345 211.636 22.4639 213.476 21.3896C215.331 20.2992 217.536 19.7539 220.092 19.7539C222.533 19.7539 224.665 20.2992 226.488 21.3896C228.327 22.4801 229.752 24.0589 230.761 26.126C231.786 28.1768 232.299 30.6589 232.299 33.5723ZM211.938 33.5723C211.938 35.7207 212.222 37.5843 212.792 39.1631C213.362 40.7419 214.241 41.9626 215.429 42.8252C216.617 43.6878 218.147 44.1191 220.019 44.1191C221.874 44.1191 223.396 43.6878 224.584 42.8252C225.788 41.9626 226.675 40.7419 227.245 39.1631C227.815 37.5843 228.1 35.7207 228.1 33.5723C228.1 31.4401 227.815 29.6009 227.245 28.0547C226.675 26.4922 225.797 25.2878 224.608 24.4414C223.42 23.5951 221.882 23.1719 219.994 23.1719C217.211 23.1719 215.168 24.0915 213.866 25.9307C212.58 27.7699 211.938 30.3171 211.938 33.5723ZM245.189 47L235.033 20.2422H239.379L245.263 36.4287C245.67 37.5355 246.085 38.7562 246.508 40.0908C246.931 41.4255 247.224 42.4997 247.387 43.3135H247.558C247.753 42.4997 248.078 41.4255 248.534 40.0908C248.99 38.7399 249.405 37.5192 249.779 36.4287L255.663 20.2422H260.009L249.828 47H245.189ZM274.608 19.7539C276.887 19.7539 278.84 20.2585 280.468 21.2676C282.095 22.2767 283.34 23.6927 284.203 25.5156C285.066 27.3223 285.497 29.4382 285.497 31.8633V34.3779H267.016C267.064 37.5192 267.846 39.9118 269.359 41.5557C270.873 43.1995 273.005 44.0215 275.756 44.0215C277.449 44.0215 278.946 43.8669 280.248 43.5576C281.55 43.2484 282.901 42.7926 284.301 42.1904V45.7549C282.95 46.3571 281.607 46.7965 280.272 47.0732C278.954 47.3499 277.392 47.4883 275.585 47.4883C273.013 47.4883 270.767 46.9674 268.847 45.9258C266.942 44.8678 265.461 43.3216 264.403 41.2871C263.345 39.2526 262.816 36.7624 262.816 33.8164C262.816 30.9355 263.297 28.4453 264.257 26.3457C265.233 24.2298 266.601 22.6022 268.358 21.4629C270.132 20.3236 272.216 19.7539 274.608 19.7539ZM274.56 23.0742C272.395 23.0742 270.67 23.7822 269.384 25.1982C268.098 26.6143 267.333 28.5918 267.089 31.1309H281.249C281.233 29.5358 280.98 28.1361 280.492 26.9316C280.02 25.7109 279.296 24.7669 278.319 24.0996C277.343 23.416 276.09 23.0742 274.56 23.0742ZM305.053 19.7539C308.227 19.7539 310.627 20.5352 312.255 22.0977C313.882 23.6439 314.696 26.1341 314.696 29.5684V47H310.692V29.8369C310.692 27.6071 310.18 25.9388 309.154 24.832C308.145 23.7253 306.591 23.1719 304.491 23.1719C301.529 23.1719 299.446 24.0101 298.241 25.6865C297.037 27.363 296.435 29.7962 296.435 32.9863V47H292.382V20.2422H295.653L296.264 24.0996H296.483C297.053 23.1556 297.777 22.3662 298.656 21.7314C299.535 21.0804 300.52 20.5921 301.61 20.2666C302.701 19.9248 303.848 19.7539 305.053 19.7539ZM340.355 39.6758C340.355 41.3848 339.924 42.8252 339.062 43.9971C338.215 45.1527 336.994 46.0234 335.399 46.6094C333.821 47.1953 331.933 47.4883 329.735 47.4883C327.864 47.4883 326.244 47.3418 324.877 47.0488C323.51 46.7559 322.313 46.3408 321.288 45.8037V42.0684C322.379 42.6055 323.681 43.0938 325.194 43.5332C326.708 43.9727 328.254 44.1924 329.833 44.1924C332.144 44.1924 333.821 43.818 334.862 43.0693C335.904 42.3206 336.425 41.3034 336.425 40.0176C336.425 39.2852 336.213 38.6423 335.79 38.0889C335.383 37.5192 334.691 36.974 333.715 36.4531C332.738 35.916 331.387 35.3301 329.662 34.6953C327.953 34.0443 326.472 33.4014 325.219 32.7666C323.982 32.1156 323.021 31.3262 322.338 30.3984C321.671 29.4707 321.337 28.2663 321.337 26.7852C321.337 24.5228 322.248 22.7894 324.071 21.585C325.91 20.3643 328.319 19.7539 331.298 19.7539C332.909 19.7539 334.415 19.9167 335.814 20.2422C337.23 20.5514 338.549 20.9746 339.77 21.5117L338.402 24.7588C337.296 24.2868 336.116 23.888 334.862 23.5625C333.609 23.237 332.331 23.0742 331.029 23.0742C329.158 23.0742 327.717 23.3835 326.708 24.002C325.715 24.6204 325.219 25.4668 325.219 26.541C325.219 27.3711 325.447 28.0547 325.902 28.5918C326.374 29.1289 327.123 29.6335 328.148 30.1055C329.174 30.5775 330.525 31.1309 332.201 31.7656C333.878 32.3841 335.326 33.027 336.547 33.6943C337.768 34.3454 338.703 35.1429 339.354 36.0869C340.022 37.0146 340.355 38.2109 340.355 39.6758ZM369.872 19.8027C373.062 19.8027 375.43 20.5189 376.977 21.9512C378.523 23.3835 379.296 25.6702 379.296 28.8115V47H376.342L375.561 43.0449H375.365C374.617 44.0215 373.835 44.8434 373.021 45.5107C372.208 46.1618 371.264 46.6582 370.189 47C369.132 47.3255 367.829 47.4883 366.283 47.4883C364.656 47.4883 363.207 47.2035 361.938 46.6338C360.684 46.0641 359.691 45.2015 358.959 44.0459C358.243 42.8903 357.885 41.4255 357.885 39.6514C357.885 36.9821 358.943 34.9313 361.059 33.499C363.174 32.0667 366.397 31.2855 370.727 31.1553L375.341 30.96V29.3242C375.341 27.013 374.844 25.3936 373.852 24.4658C372.859 23.5381 371.459 23.0742 369.652 23.0742C368.253 23.0742 366.918 23.2777 365.648 23.6846C364.379 24.0915 363.174 24.5716 362.035 25.125L360.79 22.0488C361.994 21.4303 363.378 20.9014 364.94 20.4619C366.503 20.0225 368.147 19.8027 369.872 19.8027ZM375.292 33.8164L371.215 33.9873C367.878 34.1175 365.526 34.6628 364.159 35.623C362.792 36.5833 362.108 37.9424 362.108 39.7002C362.108 41.2301 362.572 42.3613 363.5 43.0938C364.428 43.8262 365.657 44.1924 367.187 44.1924C369.563 44.1924 371.508 43.5332 373.021 42.2148C374.535 40.8965 375.292 38.9189 375.292 36.2822V33.8164ZM410.155 47.4883C406.77 47.4883 404.084 46.3327 402.099 44.0215C400.129 41.7103 399.145 38.276 399.145 33.7188C399.145 29.1126 400.154 25.6377 402.172 23.2939C404.19 20.9339 406.876 19.7539 410.229 19.7539C411.645 19.7539 412.882 19.9411 413.939 20.3154C414.997 20.6898 415.909 21.1943 416.674 21.8291C417.439 22.4476 418.082 23.1556 418.603 23.9531H418.896C418.83 23.4486 418.765 22.7568 418.7 21.8779C418.635 20.999 418.603 20.2829 418.603 19.7295V9.01172H422.655V47H419.384L418.773 43.1914H418.603C418.098 43.9889 417.455 44.7132 416.674 45.3643C415.909 46.0153 414.989 46.5361 413.915 46.9268C412.857 47.3011 411.604 47.4883 410.155 47.4883ZM410.79 44.1191C413.655 44.1191 415.681 43.3053 416.869 41.6777C418.057 40.0501 418.651 37.6331 418.651 34.4268V33.6943C418.651 30.2926 418.082 27.6803 416.942 25.8574C415.819 24.0345 413.769 23.123 410.79 23.123C408.3 23.123 406.436 24.0833 405.199 26.0039C403.962 27.9082 403.344 30.5124 403.344 33.8164C403.344 37.1042 403.954 39.6432 405.175 41.4336C406.412 43.224 408.284 44.1191 410.79 44.1191ZM441.552 19.7539C443.83 19.7539 445.784 20.2585 447.411 21.2676C449.039 22.2767 450.284 23.6927 451.146 25.5156C452.009 27.3223 452.44 29.4382 452.44 31.8633V34.3779H433.959C434.008 37.5192 434.789 39.9118 436.303 41.5557C437.816 43.1995 439.949 44.0215 442.699 44.0215C444.392 44.0215 445.889 43.8669 447.191 43.5576C448.493 43.2484 449.844 42.7926 451.244 42.1904V45.7549C449.893 46.3571 448.55 46.7965 447.216 47.0732C445.897 47.3499 444.335 47.4883 442.528 47.4883C439.957 47.4883 437.711 46.9674 435.79 45.9258C433.886 44.8678 432.405 43.3216 431.347 41.2871C430.289 39.2526 429.76 36.7624 429.76 33.8164C429.76 30.9355 430.24 28.4453 431.2 26.3457C432.177 24.2298 433.544 22.6022 435.302 21.4629C437.076 20.3236 439.159 19.7539 441.552 19.7539ZM441.503 23.0742C439.338 23.0742 437.613 23.7822 436.327 25.1982C435.041 26.6143 434.276 28.5918 434.032 31.1309H448.192C448.176 29.5358 447.924 28.1361 447.436 26.9316C446.964 25.7109 446.239 24.7669 445.263 24.0996C444.286 23.416 443.033 23.0742 441.503 23.0742ZM476.635 39.6758C476.635 41.3848 476.203 42.8252 475.341 43.9971C474.494 45.1527 473.274 46.0234 471.679 46.6094C470.1 47.1953 468.212 47.4883 466.015 47.4883C464.143 47.4883 462.523 47.3418 461.156 47.0488C459.789 46.7559 458.593 46.3408 457.567 45.8037V42.0684C458.658 42.6055 459.96 43.0938 461.474 43.5332C462.987 43.9727 464.534 44.1924 466.112 44.1924C468.424 44.1924 470.1 43.818 471.142 43.0693C472.183 42.3206 472.704 41.3034 472.704 40.0176C472.704 39.2852 472.493 38.6423 472.069 38.0889C471.662 37.5192 470.971 36.974 469.994 36.4531C469.018 35.916 467.667 35.3301 465.941 34.6953C464.232 34.0443 462.751 33.4014 461.498 32.7666C460.261 32.1156 459.301 31.3262 458.617 30.3984C457.95 29.4707 457.616 28.2663 457.616 26.7852C457.616 24.5228 458.528 22.7894 460.351 21.585C462.19 20.3643 464.599 19.7539 467.577 19.7539C469.188 19.7539 470.694 19.9167 472.094 20.2422C473.51 20.5514 474.828 20.9746 476.049 21.5117L474.682 24.7588C473.575 24.2868 472.395 23.888 471.142 23.5625C469.888 23.237 468.611 23.0742 467.309 23.0742C465.437 23.0742 463.996 23.3835 462.987 24.002C461.994 24.6204 461.498 25.4668 461.498 26.541C461.498 27.3711 461.726 28.0547 462.182 28.5918C462.654 29.1289 463.402 29.6335 464.428 30.1055C465.453 30.5775 466.804 31.1309 468.48 31.7656C470.157 32.3841 471.605 33.027 472.826 33.6943C474.047 34.3454 474.983 35.1429 475.634 36.0869C476.301 37.0146 476.635 38.2109 476.635 39.6758ZM493.871 47.4883C491.462 47.4883 489.338 46.9919 487.499 45.999C485.66 45.0062 484.228 43.4925 483.202 41.458C482.177 39.4235 481.664 36.86 481.664 33.7676C481.664 30.5286 482.201 27.8838 483.275 25.833C484.366 23.766 485.863 22.236 487.768 21.2432C489.672 20.2503 491.837 19.7539 494.262 19.7539C495.596 19.7539 496.882 19.8923 498.119 20.1689C499.372 20.4294 500.398 20.763 501.195 21.1699L499.975 24.5635C499.161 24.238 498.217 23.945 497.143 23.6846C496.085 23.4242 495.092 23.2939 494.164 23.2939C492.309 23.2939 490.762 23.6927 489.525 24.4902C488.305 25.2878 487.385 26.4596 486.767 28.0059C486.164 29.5521 485.863 31.4564 485.863 33.7188C485.863 35.8835 486.156 37.7308 486.742 39.2607C487.344 40.7907 488.231 41.9626 489.403 42.7764C490.591 43.5739 492.073 43.9727 493.847 43.9727C495.263 43.9727 496.54 43.8262 497.68 43.5332C498.819 43.224 499.853 42.8659 500.78 42.459V46.0723C499.885 46.528 498.884 46.8779 497.777 47.1221C496.687 47.3662 495.385 47.4883 493.871 47.4883ZM530.199 33.5723C530.199 35.7695 529.914 37.7308 529.345 39.4561C528.775 41.1813 527.953 42.638 526.879 43.8262C525.805 45.0143 524.503 45.9258 522.973 46.5605C521.459 47.179 519.742 47.4883 517.821 47.4883C516.031 47.4883 514.387 47.179 512.89 46.5605C511.409 45.9258 510.123 45.0143 509.032 43.8262C507.958 42.638 507.12 41.1813 506.518 39.4561C505.932 37.7308 505.639 35.7695 505.639 33.5723C505.639 30.6426 506.135 28.1523 507.128 26.1016C508.121 24.0345 509.537 22.4639 511.376 21.3896C513.231 20.2992 515.437 19.7539 517.992 19.7539C520.434 19.7539 522.566 20.2992 524.389 21.3896C526.228 22.4801 527.652 24.0589 528.661 26.126C529.687 28.1768 530.199 30.6589 530.199 33.5723ZM509.838 33.5723C509.838 35.7207 510.123 37.5843 510.692 39.1631C511.262 40.7419 512.141 41.9626 513.329 42.8252C514.517 43.6878 516.047 44.1191 517.919 44.1191C519.774 44.1191 521.296 43.6878 522.484 42.8252C523.689 41.9626 524.576 40.7419 525.146 39.1631C525.715 37.5843 526 35.7207 526 33.5723C526 31.4401 525.715 29.6009 525.146 28.0547C524.576 26.4922 523.697 25.2878 522.509 24.4414C521.321 23.5951 519.783 23.1719 517.895 23.1719C515.111 23.1719 513.069 24.0915 511.767 25.9307C510.481 27.7699 509.838 30.3171 509.838 33.5723ZM541.259 9.01172V18.5088C541.259 19.5993 541.226 20.6572 541.161 21.6826C541.112 22.708 541.072 23.5055 541.039 24.0752H541.259C541.991 22.8708 543.049 21.8535 544.433 21.0234C545.816 20.1934 547.582 19.7783 549.73 19.7783C553.083 19.7783 555.753 20.9421 557.738 23.2695C559.74 25.5807 560.741 29.0231 560.741 33.5967C560.741 36.6077 560.285 39.1468 559.374 41.2139C558.463 43.2809 557.177 44.8434 555.517 45.9014C553.856 46.9593 551.895 47.4883 549.633 47.4883C547.517 47.4883 545.775 47.0977 544.408 46.3164C543.057 45.5189 542.016 44.5505 541.283 43.4111H540.966L540.136 47H537.206V9.01172H541.259ZM549.071 23.1719C547.134 23.1719 545.596 23.5544 544.457 24.3193C543.318 25.068 542.496 26.2074 541.991 27.7373C541.503 29.251 541.259 31.1715 541.259 33.499V33.7188C541.259 37.0879 541.82 39.6676 542.943 41.458C544.066 43.2321 546.109 44.1191 549.071 44.1191C551.562 44.1191 553.425 43.2077 554.662 41.3848C555.915 39.5618 556.542 36.9577 556.542 33.5723C556.542 30.1217 555.924 27.5257 554.687 25.7842C553.466 24.0426 551.594 23.1719 549.071 23.1719ZM579.979 19.7539C580.517 19.7539 581.078 19.7865 581.664 19.8516C582.25 19.9004 582.771 19.9736 583.227 20.0713L582.714 23.8311C582.274 23.7171 581.786 23.6276 581.249 23.5625C580.712 23.4974 580.207 23.4648 579.735 23.4648C578.661 23.4648 577.644 23.6846 576.684 24.124C575.74 24.5472 574.91 25.1657 574.193 25.9795C573.477 26.777 572.916 27.7454 572.509 28.8848C572.102 30.0078 571.898 31.2611 571.898 32.6445V47H567.821V20.2422H571.19L571.63 25.1738H571.801C572.354 24.181 573.021 23.2777 573.803 22.4639C574.584 21.6338 575.487 20.9746 576.513 20.4863C577.554 19.998 578.71 19.7539 579.979 19.7539ZM592.333 20.2422V47H588.28V20.2422H592.333ZM590.355 10.2324C591.023 10.2324 591.592 10.4521 592.064 10.8916C592.553 11.3148 592.797 11.9821 592.797 12.8936C592.797 13.7887 592.553 14.4561 592.064 14.8955C591.592 15.335 591.023 15.5547 590.355 15.5547C589.656 15.5547 589.07 15.335 588.598 14.8955C588.142 14.4561 587.914 13.7887 587.914 12.8936C587.914 11.9821 588.142 11.3148 588.598 10.8916C589.07 10.4521 589.656 10.2324 590.355 10.2324ZM613.085 19.7539C613.622 19.7539 614.184 19.7865 614.77 19.8516C615.355 19.9004 615.876 19.9736 616.332 20.0713L615.819 23.8311C615.38 23.7171 614.892 23.6276 614.354 23.5625C613.817 23.4974 613.313 23.4648 612.841 23.4648C611.767 23.4648 610.749 23.6846 609.789 24.124C608.845 24.5472 608.015 25.1657 607.299 25.9795C606.583 26.777 606.021 27.7454 605.614 28.8848C605.207 30.0078 605.004 31.2611 605.004 32.6445V47H600.927V20.2422H604.296L604.735 25.1738H604.906C605.46 24.181 606.127 23.2777 606.908 22.4639C607.689 21.6338 608.593 20.9746 609.618 20.4863C610.66 19.998 611.815 19.7539 613.085 19.7539ZM657.445 33.5723C657.445 35.7695 657.16 37.7308 656.591 39.4561C656.021 41.1813 655.199 42.638 654.125 43.8262C653.051 45.0143 651.749 45.9258 650.219 46.5605C648.705 47.179 646.988 47.4883 645.067 47.4883C643.277 47.4883 641.633 47.179 640.136 46.5605C638.655 45.9258 637.369 45.0143 636.278 43.8262C635.204 42.638 634.366 41.1813 633.764 39.4561C633.178 37.7308 632.885 35.7695 632.885 33.5723C632.885 30.6426 633.381 28.1523 634.374 26.1016C635.367 24.0345 636.783 22.4639 638.622 21.3896C640.478 20.2992 642.683 19.7539 645.238 19.7539C647.68 19.7539 649.812 20.2992 651.635 21.3896C653.474 22.4801 654.898 24.0589 655.907 26.126C656.933 28.1768 657.445 30.6589 657.445 33.5723ZM637.084 33.5723C637.084 35.7207 637.369 37.5843 637.938 39.1631C638.508 40.7419 639.387 41.9626 640.575 42.8252C641.763 43.6878 643.293 44.1191 645.165 44.1191C647.021 44.1191 648.542 43.6878 649.73 42.8252C650.935 41.9626 651.822 40.7419 652.392 39.1631C652.961 37.5843 653.246 35.7207 653.246 33.5723C653.246 31.4401 652.961 29.6009 652.392 28.0547C651.822 26.4922 650.943 25.2878 649.755 24.4414C648.567 23.5951 647.029 23.1719 645.141 23.1719C642.357 23.1719 640.315 24.0915 639.013 25.9307C637.727 27.7699 637.084 30.3171 637.084 33.5723ZM694.75 39.6758C694.75 41.3848 694.319 42.8252 693.456 43.9971C692.61 45.1527 691.389 46.0234 689.794 46.6094C688.215 47.1953 686.327 47.4883 684.13 47.4883C682.258 47.4883 680.639 47.3418 679.271 47.0488C677.904 46.7559 676.708 46.3408 675.683 45.8037V42.0684C676.773 42.6055 678.075 43.0938 679.589 43.5332C681.103 43.9727 682.649 44.1924 684.228 44.1924C686.539 44.1924 688.215 43.818 689.257 43.0693C690.299 42.3206 690.819 41.3034 690.819 40.0176C690.819 39.2852 690.608 38.6423 690.185 38.0889C689.778 37.5192 689.086 36.974 688.109 36.4531C687.133 35.916 685.782 35.3301 684.057 34.6953C682.348 34.0443 680.867 33.4014 679.613 32.7666C678.376 32.1156 677.416 31.3262 676.732 30.3984C676.065 29.4707 675.731 28.2663 675.731 26.7852C675.731 24.5228 676.643 22.7894 678.466 21.585C680.305 20.3643 682.714 19.7539 685.692 19.7539C687.304 19.7539 688.809 19.9167 690.209 20.2422C691.625 20.5514 692.943 20.9746 694.164 21.5117L692.797 24.7588C691.69 24.2868 690.51 23.888 689.257 23.5625C688.004 23.237 686.726 23.0742 685.424 23.0742C683.552 23.0742 682.112 23.3835 681.103 24.002C680.11 24.6204 679.613 25.4668 679.613 26.541C679.613 27.3711 679.841 28.0547 680.297 28.5918C680.769 29.1289 681.518 29.6335 682.543 30.1055C683.568 30.5775 684.919 31.1309 686.596 31.7656C688.272 32.3841 689.721 33.027 690.941 33.6943C692.162 34.3454 693.098 35.1429 693.749 36.0869C694.416 37.0146 694.75 38.2109 694.75 39.6758ZM711.571 19.7539C713.85 19.7539 715.803 20.2585 717.431 21.2676C719.058 22.2767 720.303 23.6927 721.166 25.5156C722.029 27.3223 722.46 29.4382 722.46 31.8633V34.3779H703.979C704.027 37.5192 704.809 39.9118 706.322 41.5557C707.836 43.1995 709.968 44.0215 712.719 44.0215C714.411 44.0215 715.909 43.8669 717.211 43.5576C718.513 43.2484 719.864 42.7926 721.264 42.1904V45.7549C719.913 46.3571 718.57 46.7965 717.235 47.0732C715.917 47.3499 714.354 47.4883 712.548 47.4883C709.976 47.4883 707.73 46.9674 705.81 45.9258C703.905 44.8678 702.424 43.3216 701.366 41.2871C700.308 39.2526 699.779 36.7624 699.779 33.8164C699.779 30.9355 700.259 28.4453 701.22 26.3457C702.196 24.2298 703.563 22.6022 705.321 21.4629C707.095 20.3236 709.179 19.7539 711.571 19.7539ZM711.522 23.0742C709.358 23.0742 707.632 23.7822 706.347 25.1982C705.061 26.6143 704.296 28.5918 704.052 31.1309H718.212C718.196 29.5358 717.943 28.1361 717.455 26.9316C716.983 25.7109 716.259 24.7669 715.282 24.0996C714.306 23.416 713.052 23.0742 711.522 23.0742ZM742.016 19.7539C745.189 19.7539 747.59 20.5352 749.218 22.0977C750.845 23.6439 751.659 26.1341 751.659 29.5684V47H747.655V29.8369C747.655 27.6071 747.143 25.9388 746.117 24.832C745.108 23.7253 743.554 23.1719 741.454 23.1719C738.492 23.1719 736.409 24.0101 735.204 25.6865C734 27.363 733.397 29.7962 733.397 32.9863V47H729.345V20.2422H732.616L733.227 24.0996H733.446C734.016 23.1556 734.74 22.3662 735.619 21.7314C736.498 21.0804 737.483 20.5921 738.573 20.2666C739.664 19.9248 740.811 19.7539 742.016 19.7539ZM768.651 44.168C769.319 44.168 770.002 44.111 770.702 43.9971C771.402 43.8831 771.972 43.7448 772.411 43.582V46.7314C771.939 46.943 771.28 47.1221 770.434 47.2686C769.604 47.415 768.79 47.4883 767.992 47.4883C766.576 47.4883 765.29 47.2441 764.135 46.7559C762.979 46.2513 762.051 45.4049 761.352 44.2168C760.668 43.0286 760.326 41.3848 760.326 39.2852V23.416H756.518V21.4385L760.351 19.8516L761.962 14.041H764.403V20.2422H772.24V23.416H764.403V39.1631C764.403 40.8395 764.786 42.0928 765.551 42.9229C766.332 43.7529 767.366 44.168 768.651 44.168ZM781.884 20.2422V47H777.831V20.2422H781.884ZM779.906 10.2324C780.574 10.2324 781.143 10.4521 781.615 10.8916C782.104 11.3148 782.348 11.9821 782.348 12.8936C782.348 13.7887 782.104 14.4561 781.615 14.8955C781.143 15.335 780.574 15.5547 779.906 15.5547C779.206 15.5547 778.62 15.335 778.148 14.8955C777.693 14.4561 777.465 13.7887 777.465 12.8936C777.465 11.9821 777.693 11.3148 778.148 10.8916C778.62 10.4521 779.206 10.2324 779.906 10.2324ZM799.999 47.4883C796.614 47.4883 793.928 46.3327 791.942 44.0215C789.973 41.7103 788.988 38.276 788.988 33.7188C788.988 29.1126 789.997 25.6377 792.016 23.2939C794.034 20.9339 796.719 19.7539 800.072 19.7539C801.488 19.7539 802.725 19.9411 803.783 20.3154C804.841 20.6898 805.753 21.1943 806.518 21.8291C807.283 22.4476 807.925 23.1556 808.446 23.9531H808.739C808.674 23.4486 808.609 22.7568 808.544 21.8779C808.479 20.999 808.446 20.2829 808.446 19.7295V9.01172H812.499V47H809.228L808.617 43.1914H808.446C807.942 43.9889 807.299 44.7132 806.518 45.3643C805.753 46.0153 804.833 46.5361 803.759 46.9268C802.701 47.3011 801.448 47.4883 799.999 47.4883ZM800.634 44.1191C803.498 44.1191 805.525 43.3053 806.713 41.6777C807.901 40.0501 808.495 37.6331 808.495 34.4268V33.6943C808.495 30.2926 807.925 27.6803 806.786 25.8574C805.663 24.0345 803.612 23.123 800.634 23.123C798.144 23.123 796.28 24.0833 795.043 26.0039C793.806 27.9082 793.188 30.5124 793.188 33.8164C793.188 37.1042 793.798 39.6432 795.019 41.4336C796.256 43.224 798.127 44.1191 800.634 44.1191ZM844.164 33.5723C844.164 35.7695 843.879 37.7308 843.31 39.4561C842.74 41.1813 841.918 42.638 840.844 43.8262C839.77 45.0143 838.467 45.9258 836.938 46.5605C835.424 47.179 833.707 47.4883 831.786 47.4883C829.996 47.4883 828.352 47.179 826.854 46.5605C825.373 45.9258 824.088 45.0143 822.997 43.8262C821.923 42.638 821.085 41.1813 820.482 39.4561C819.896 37.7308 819.604 35.7695 819.604 33.5723C819.604 30.6426 820.1 28.1523 821.093 26.1016C822.086 24.0345 823.502 22.4639 825.341 21.3896C827.196 20.2992 829.402 19.7539 831.957 19.7539C834.398 19.7539 836.531 20.2992 838.354 21.3896C840.193 22.4801 841.617 24.0589 842.626 26.126C843.651 28.1768 844.164 30.6589 844.164 33.5723ZM823.803 33.5723C823.803 35.7207 824.088 37.5843 824.657 39.1631C825.227 40.7419 826.106 41.9626 827.294 42.8252C828.482 43.6878 830.012 44.1191 831.884 44.1191C833.739 44.1191 835.261 43.6878 836.449 42.8252C837.654 41.9626 838.541 40.7419 839.11 39.1631C839.68 37.5843 839.965 35.7207 839.965 33.5723C839.965 31.4401 839.68 29.6009 839.11 28.0547C838.541 26.4922 837.662 25.2878 836.474 24.4414C835.285 23.5951 833.747 23.1719 831.859 23.1719C829.076 23.1719 827.034 24.0915 825.731 25.9307C824.446 27.7699 823.803 30.3171 823.803 33.5723ZM873.681 47.4883C870.295 47.4883 867.61 46.3327 865.624 44.0215C863.655 41.7103 862.67 38.276 862.67 33.7188C862.67 29.1126 863.679 25.6377 865.697 23.2939C867.715 20.9339 870.401 19.7539 873.754 19.7539C875.17 19.7539 876.407 19.9411 877.465 20.3154C878.523 20.6898 879.434 21.1943 880.199 21.8291C880.964 22.4476 881.607 23.1556 882.128 23.9531H882.421C882.356 23.4486 882.291 22.7568 882.226 21.8779C882.16 20.999 882.128 20.2829 882.128 19.7295V9.01172H886.181V47H882.909L882.299 43.1914H882.128C881.623 43.9889 880.98 44.7132 880.199 45.3643C879.434 46.0153 878.515 46.5361 877.44 46.9268C876.382 47.3011 875.129 47.4883 873.681 47.4883ZM874.315 44.1191C877.18 44.1191 879.206 43.3053 880.395 41.6777C881.583 40.0501 882.177 37.6331 882.177 34.4268V33.6943C882.177 30.2926 881.607 27.6803 880.468 25.8574C879.345 24.0345 877.294 23.123 874.315 23.123C871.825 23.123 869.962 24.0833 868.725 26.0039C867.488 27.9082 866.869 30.5124 866.869 33.8164C866.869 37.1042 867.479 39.6432 868.7 41.4336C869.937 43.224 871.809 44.1191 874.315 44.1191ZM904.784 19.8027C907.974 19.8027 910.342 20.5189 911.889 21.9512C913.435 23.3835 914.208 25.6702 914.208 28.8115V47H911.254L910.473 43.0449H910.277C909.529 44.0215 908.747 44.8434 907.934 45.5107C907.12 46.1618 906.176 46.6582 905.102 47C904.044 47.3255 902.742 47.4883 901.195 47.4883C899.568 47.4883 898.119 47.2035 896.85 46.6338C895.596 46.0641 894.604 45.2015 893.871 44.0459C893.155 42.8903 892.797 41.4255 892.797 39.6514C892.797 36.9821 893.855 34.9313 895.971 33.499C898.087 32.0667 901.309 31.2855 905.639 31.1553L910.253 30.96V29.3242C910.253 27.013 909.757 25.3936 908.764 24.4658C907.771 23.5381 906.371 23.0742 904.564 23.0742C903.165 23.0742 901.83 23.2777 900.561 23.6846C899.291 24.0915 898.087 24.5716 896.947 25.125L895.702 22.0488C896.907 21.4303 898.29 20.9014 899.853 20.4619C901.415 20.0225 903.059 19.8027 904.784 19.8027ZM910.204 33.8164L906.127 33.9873C902.79 34.1175 900.438 34.6628 899.071 35.623C897.704 36.5833 897.021 37.9424 897.021 39.7002C897.021 41.2301 897.484 42.3613 898.412 43.0938C899.34 43.8262 900.569 44.1924 902.099 44.1924C904.475 44.1924 906.42 43.5332 907.934 42.2148C909.447 40.8965 910.204 38.9189 910.204 36.2822V33.8164ZM941.43 47L931.273 20.2422H935.619L941.503 36.4287C941.91 37.5355 942.325 38.7562 942.748 40.0908C943.171 41.4255 943.464 42.4997 943.627 43.3135H943.798C943.993 42.4997 944.319 41.4255 944.774 40.0908C945.23 38.7399 945.645 37.5192 946.02 36.4287L951.903 20.2422H956.249L946.068 47H941.43ZM964.599 20.2422V47H960.546V20.2422H964.599ZM962.621 10.2324C963.288 10.2324 963.858 10.4521 964.33 10.8916C964.818 11.3148 965.062 11.9821 965.062 12.8936C965.062 13.7887 964.818 14.4561 964.33 14.8955C963.858 15.335 963.288 15.5547 962.621 15.5547C961.921 15.5547 961.335 15.335 960.863 14.8955C960.408 14.4561 960.18 13.7887 960.18 12.8936C960.18 11.9821 960.408 11.3148 960.863 10.8916C961.335 10.4521 961.921 10.2324 962.621 10.2324ZM982.714 47.4883C979.328 47.4883 976.643 46.3327 974.657 44.0215C972.688 41.7103 971.703 38.276 971.703 33.7188C971.703 29.1126 972.712 25.6377 974.73 23.2939C976.749 20.9339 979.434 19.7539 982.787 19.7539C984.203 19.7539 985.44 19.9411 986.498 20.3154C987.556 20.6898 988.467 21.1943 989.232 21.8291C989.997 22.4476 990.64 23.1556 991.161 23.9531H991.454C991.389 23.4486 991.324 22.7568 991.259 21.8779C991.194 20.999 991.161 20.2829 991.161 19.7295V9.01172H995.214V47H991.942L991.332 43.1914H991.161C990.657 43.9889 990.014 44.7132 989.232 45.3643C988.467 46.0153 987.548 46.5361 986.474 46.9268C985.416 47.3011 984.162 47.4883 982.714 47.4883ZM983.349 44.1191C986.213 44.1191 988.24 43.3053 989.428 41.6777C990.616 40.0501 991.21 37.6331 991.21 34.4268V33.6943C991.21 30.2926 990.64 27.6803 989.501 25.8574C988.378 24.0345 986.327 23.123 983.349 23.123C980.858 23.123 978.995 24.0833 977.758 26.0039C976.521 27.9082 975.902 30.5124 975.902 33.8164C975.902 37.1042 976.513 39.6432 977.733 41.4336C978.97 43.224 980.842 44.1191 983.349 44.1191ZM1013.82 19.8027C1017.01 19.8027 1019.38 20.5189 1020.92 21.9512C1022.47 23.3835 1023.24 25.6702 1023.24 28.8115V47H1020.29L1019.51 43.0449H1019.31C1018.56 44.0215 1017.78 44.8434 1016.97 45.5107C1016.15 46.1618 1015.21 46.6582 1014.13 47C1013.08 47.3255 1011.77 47.4883 1010.23 47.4883C1008.6 47.4883 1007.15 47.2035 1005.88 46.6338C1004.63 46.0641 1003.64 45.2015 1002.9 44.0459C1002.19 42.8903 1001.83 41.4255 1001.83 39.6514C1001.83 36.9821 1002.89 34.9313 1005 33.499C1007.12 32.0667 1010.34 31.2855 1014.67 31.1553L1019.29 30.96V29.3242C1019.29 27.013 1018.79 25.3936 1017.8 24.4658C1016.8 23.5381 1015.4 23.0742 1013.6 23.0742C1012.2 23.0742 1010.86 23.2777 1009.59 23.6846C1008.32 24.0915 1007.12 24.5716 1005.98 25.125L1004.74 22.0488C1005.94 21.4303 1007.32 20.9014 1008.89 20.4619C1010.45 20.0225 1012.09 19.8027 1013.82 19.8027ZM1019.24 33.8164L1015.16 33.9873C1011.82 34.1175 1009.47 34.6628 1008.1 35.623C1006.74 36.5833 1006.05 37.9424 1006.05 39.7002C1006.05 41.2301 1006.52 42.3613 1007.45 43.0938C1008.37 43.8262 1009.6 44.1924 1011.13 44.1924C1013.51 44.1924 1015.45 43.5332 1016.97 42.2148C1018.48 40.8965 1019.24 38.9189 1019.24 36.2822V33.8164ZM1057.25 19.7539C1060.42 19.7539 1062.82 20.5352 1064.45 22.0977C1066.08 23.6439 1066.89 26.1341 1066.89 29.5684V47H1062.89V29.8369C1062.89 27.6071 1062.38 25.9388 1061.35 24.832C1060.34 23.7253 1058.79 23.1719 1056.69 23.1719C1053.73 23.1719 1051.64 24.0101 1050.44 25.6865C1049.23 27.363 1048.63 29.7962 1048.63 32.9863V47H1044.58V20.2422H1047.85L1048.46 24.0996H1048.68C1049.25 23.1556 1049.97 22.3662 1050.85 21.7314C1051.73 21.0804 1052.72 20.5921 1053.81 20.2666C1054.9 19.9248 1056.05 19.7539 1057.25 19.7539ZM1098.31 33.5723C1098.31 35.7695 1098.03 37.7308 1097.46 39.4561C1096.89 41.1813 1096.07 42.638 1094.99 43.8262C1093.92 45.0143 1092.62 45.9258 1091.09 46.5605C1089.57 47.179 1087.86 47.4883 1085.94 47.4883C1084.15 47.4883 1082.5 47.179 1081 46.5605C1079.52 45.9258 1078.24 45.0143 1077.15 43.8262C1076.07 42.638 1075.24 41.1813 1074.63 39.4561C1074.05 37.7308 1073.75 35.7695 1073.75 33.5723C1073.75 30.6426 1074.25 28.1523 1075.24 26.1016C1076.24 24.0345 1077.65 22.4639 1079.49 21.3896C1081.35 20.2992 1083.55 19.7539 1086.11 19.7539C1088.55 19.7539 1090.68 20.2992 1092.5 21.3896C1094.34 22.4801 1095.77 24.0589 1096.78 26.126C1097.8 28.1768 1098.31 30.6589 1098.31 33.5723ZM1077.95 33.5723C1077.95 35.7207 1078.24 37.5843 1078.81 39.1631C1079.38 40.7419 1080.26 41.9626 1081.44 42.8252C1082.63 43.6878 1084.16 44.1191 1086.03 44.1191C1087.89 44.1191 1089.41 43.6878 1090.6 42.8252C1091.8 41.9626 1092.69 40.7419 1093.26 39.1631C1093.83 37.5843 1094.12 35.7207 1094.12 33.5723C1094.12 31.4401 1093.83 29.6009 1093.26 28.0547C1092.69 26.4922 1091.81 25.2878 1090.62 24.4414C1089.44 23.5951 1087.9 23.1719 1086.01 23.1719C1083.23 23.1719 1081.18 24.0915 1079.88 25.9307C1078.6 27.7699 1077.95 30.3171 1077.95 33.5723ZM1128.32 19.8027C1131.51 19.8027 1133.88 20.5189 1135.42 21.9512C1136.97 23.3835 1137.74 25.6702 1137.74 28.8115V47H1134.79L1134.01 43.0449H1133.81C1133.06 44.0215 1132.28 44.8434 1131.47 45.5107C1130.65 46.1618 1129.71 46.6582 1128.64 47C1127.58 47.3255 1126.28 47.4883 1124.73 47.4883C1123.1 47.4883 1121.65 47.2035 1120.38 46.6338C1119.13 46.0641 1118.14 45.2015 1117.41 44.0459C1116.69 42.8903 1116.33 41.4255 1116.33 39.6514C1116.33 36.9821 1117.39 34.9313 1119.51 33.499C1121.62 32.0667 1124.84 31.2855 1129.17 31.1553L1133.79 30.96V29.3242C1133.79 27.013 1133.29 25.3936 1132.3 24.4658C1131.31 23.5381 1129.91 23.0742 1128.1 23.0742C1126.7 23.0742 1125.37 23.2777 1124.1 23.6846C1122.83 24.0915 1121.62 24.5716 1120.48 25.125L1119.24 22.0488C1120.44 21.4303 1121.83 20.9014 1123.39 20.4619C1124.95 20.0225 1126.59 19.8027 1128.32 19.8027ZM1133.74 33.8164L1129.66 33.9873C1126.33 34.1175 1123.97 34.6628 1122.61 35.623C1121.24 36.5833 1120.56 37.9424 1120.56 39.7002C1120.56 41.2301 1121.02 42.3613 1121.95 43.0938C1122.88 43.8262 1124.1 44.1924 1125.63 44.1924C1128.01 44.1924 1129.96 43.5332 1131.47 42.2148C1132.98 40.8965 1133.74 38.9189 1133.74 36.2822V33.8164ZM1175.15 19.7539C1178.09 19.7539 1180.31 20.527 1181.81 22.0732C1183.31 23.6032 1184.06 26.069 1184.06 29.4707V47H1180.05V29.666C1180.05 27.5013 1179.58 25.8818 1178.64 24.8076C1177.71 23.7171 1176.33 23.1719 1174.49 23.1719C1171.9 23.1719 1170.02 23.9206 1168.85 25.418C1167.67 26.9154 1167.09 29.1208 1167.09 32.0342V47H1163.06V29.666C1163.06 28.2174 1162.85 27.013 1162.43 26.0527C1162.02 25.0924 1161.4 24.3763 1160.57 23.9043C1159.76 23.416 1158.72 23.1719 1157.47 23.1719C1155.7 23.1719 1154.27 23.5381 1153.2 24.2705C1152.12 25.0029 1151.34 26.0934 1150.85 27.542C1150.38 28.9743 1150.15 30.7402 1150.15 32.8398V47H1146.09V20.2422H1149.36L1149.97 24.0264H1150.19C1150.73 23.0986 1151.41 22.3174 1152.22 21.6826C1153.03 21.0479 1153.95 20.5677 1154.96 20.2422C1155.96 19.9167 1157.04 19.7539 1158.18 19.7539C1160.21 19.7539 1161.91 20.1364 1163.28 20.9014C1164.66 21.6501 1165.66 22.7975 1166.28 24.3438H1166.5C1167.38 22.7975 1168.59 21.6501 1170.12 20.9014C1171.65 20.1364 1173.32 19.7539 1175.15 19.7539ZM1215.45 33.5723C1215.45 35.7695 1215.17 37.7308 1214.6 39.4561C1214.03 41.1813 1213.21 42.638 1212.13 43.8262C1211.06 45.0143 1209.76 45.9258 1208.23 46.5605C1206.71 47.179 1205 47.4883 1203.08 47.4883C1201.28 47.4883 1199.64 47.179 1198.14 46.5605C1196.66 45.9258 1195.38 45.0143 1194.29 43.8262C1193.21 42.638 1192.37 41.1813 1191.77 39.4561C1191.19 37.7308 1190.89 35.7695 1190.89 33.5723C1190.89 30.6426 1191.39 28.1523 1192.38 26.1016C1193.37 24.0345 1194.79 22.4639 1196.63 21.3896C1198.49 20.2992 1200.69 19.7539 1203.25 19.7539C1205.69 19.7539 1207.82 20.2992 1209.64 21.3896C1211.48 22.4801 1212.91 24.0589 1213.92 26.126C1214.94 28.1768 1215.45 30.6589 1215.45 33.5723ZM1195.09 33.5723C1195.09 35.7207 1195.38 37.5843 1195.95 39.1631C1196.52 40.7419 1197.39 41.9626 1198.58 42.8252C1199.77 43.6878 1201.3 44.1191 1203.17 44.1191C1205.03 44.1191 1206.55 43.6878 1207.74 42.8252C1208.94 41.9626 1209.83 40.7419 1210.4 39.1631C1210.97 37.5843 1211.25 35.7207 1211.25 33.5723C1211.25 31.4401 1210.97 29.6009 1210.4 28.0547C1209.83 26.4922 1208.95 25.2878 1207.76 24.4414C1206.57 23.5951 1205.04 23.1719 1203.15 23.1719C1200.37 23.1719 1198.32 24.0915 1197.02 25.9307C1195.73 27.7699 1195.09 30.3171 1195.09 33.5723ZM1234.62 19.7539C1235.16 19.7539 1235.72 19.7865 1236.3 19.8516C1236.89 19.9004 1237.41 19.9736 1237.87 20.0713L1237.35 23.8311C1236.91 23.7171 1236.42 23.6276 1235.89 23.5625C1235.35 23.4974 1234.85 23.4648 1234.37 23.4648C1233.3 23.4648 1232.28 23.6846 1231.32 24.124C1230.38 24.5472 1229.55 25.1657 1228.83 25.9795C1228.12 26.777 1227.55 27.7454 1227.15 28.8848C1226.74 30.0078 1226.54 31.2611 1226.54 32.6445V47H1222.46V20.2422H1225.83L1226.27 25.1738H1226.44C1226.99 24.181 1227.66 23.2777 1228.44 22.4639C1229.22 21.6338 1230.13 20.9746 1231.15 20.4863C1232.19 19.998 1233.35 19.7539 1234.62 19.7539ZM1242.31 44.4609C1242.31 43.3216 1242.59 42.516 1243.14 42.0439C1243.69 41.5557 1244.37 41.3115 1245.17 41.3115C1246 41.3115 1246.69 41.5557 1247.26 42.0439C1247.83 42.516 1248.12 43.3216 1248.12 44.4609C1248.12 45.584 1247.83 46.4059 1247.26 46.9268C1246.69 47.4313 1246 47.6836 1245.17 47.6836C1244.37 47.6836 1243.69 47.4313 1243.14 46.9268C1242.59 46.4059 1242.31 45.584 1242.31 44.4609Z" fill="#BD4747"/>
</svg>
