<svg width="348" height="44" viewBox="0 0 348 44" fill="none" xmlns="http://www.w3.org/2000/svg">
<path id="jovens impactados" d="M0.953125 47.6094C0.289062 47.6094 -0.290365 47.5573 -0.785156 47.4531C-1.27995 47.362 -1.70964 47.2513 -2.07422 47.1211V44.4844C-1.67057 44.6146 -1.26042 44.7122 -0.84375 44.7773C-0.427083 44.8555 0.0416667 44.8945 0.5625 44.8945C1.44792 44.8945 2.16406 44.6471 2.71094 44.1523C3.25781 43.6576 3.53125 42.7591 3.53125 41.457V16.5938H6.77344V41.3789C6.77344 42.681 6.5651 43.7943 6.14844 44.7188C5.73177 45.6562 5.09375 46.3724 4.23438 46.8672C3.375 47.362 2.28125 47.6094 0.953125 47.6094ZM3.23828 10.7148C3.23828 9.98568 3.42057 9.45182 3.78516 9.11328C4.16276 8.76172 4.63151 8.58594 5.19141 8.58594C5.72526 8.58594 6.18099 8.76172 6.55859 9.11328C6.94922 9.45182 7.14453 9.98568 7.14453 10.7148C7.14453 11.431 6.94922 11.9648 6.55859 12.3164C6.18099 12.668 5.72526 12.8438 5.19141 12.8438C4.63151 12.8438 4.16276 12.668 3.78516 12.3164C3.42057 11.9648 3.23828 11.431 3.23828 10.7148ZM32.1055 27.2578C32.1055 29.0156 31.8776 30.5846 31.4219 31.9648C30.9661 33.3451 30.3086 34.5104 29.4492 35.4609C28.5898 36.4115 27.5482 37.1406 26.3242 37.6484C25.1133 38.1432 23.7396 38.3906 22.2031 38.3906C20.7708 38.3906 19.4557 38.1432 18.2578 37.6484C17.0729 37.1406 16.0443 36.4115 15.1719 35.4609C14.3125 34.5104 13.6419 33.3451 13.1602 31.9648C12.6914 30.5846 12.457 29.0156 12.457 27.2578C12.457 24.9141 12.8542 22.9219 13.6484 21.2812C14.4427 19.6276 15.5755 18.3711 17.0469 17.5117C18.5312 16.6393 20.2956 16.2031 22.3398 16.2031C24.293 16.2031 25.9987 16.6393 27.457 17.5117C28.9284 18.3841 30.0677 19.6471 30.875 21.3008C31.6953 22.9414 32.1055 24.9271 32.1055 27.2578ZM15.8164 27.2578C15.8164 28.9766 16.0443 30.4674 16.5 31.7305C16.9557 32.9935 17.6589 33.9701 18.6094 34.6602C19.5599 35.3503 20.7839 35.6953 22.2812 35.6953C23.7656 35.6953 24.9831 35.3503 25.9336 34.6602C26.8971 33.9701 27.6068 32.9935 28.0625 31.7305C28.5182 30.4674 28.7461 28.9766 28.7461 27.2578C28.7461 25.5521 28.5182 24.0807 28.0625 22.8438C27.6068 21.5938 26.9036 20.6302 25.9531 19.9531C25.0026 19.276 23.7721 18.9375 22.2617 18.9375C20.0352 18.9375 18.401 19.6732 17.3594 21.1445C16.3307 22.6159 15.8164 24.6536 15.8164 27.2578ZM42.418 38L34.293 16.5938H37.7695L42.4766 29.543C42.8021 30.4284 43.1341 31.4049 43.4727 32.4727C43.8112 33.5404 44.0456 34.3997 44.1758 35.0508H44.3125C44.4688 34.3997 44.7292 33.5404 45.0938 32.4727C45.4583 31.3919 45.7904 30.4154 46.0898 29.543L50.7969 16.5938H54.2734L46.1289 38H42.418ZM65.9531 16.2031C67.776 16.2031 69.3385 16.6068 70.6406 17.4141C71.9427 18.2214 72.9388 19.3542 73.6289 20.8125C74.319 22.2578 74.6641 23.9505 74.6641 25.8906V27.9023H59.8789C59.918 30.4154 60.543 32.3294 61.7539 33.6445C62.9648 34.9596 64.6706 35.6172 66.8711 35.6172C68.2253 35.6172 69.4232 35.4935 70.4648 35.2461C71.5065 34.9987 72.5872 34.6341 73.707 34.1523V37.0039C72.6263 37.4857 71.5521 37.8372 70.4844 38.0586C69.4297 38.2799 68.1797 38.3906 66.7344 38.3906C64.6771 38.3906 62.8802 37.974 61.3438 37.1406C59.8203 36.2943 58.6354 35.0573 57.7891 33.4297C56.9427 31.8021 56.5195 29.8099 56.5195 27.4531C56.5195 25.1484 56.9036 23.1562 57.6719 21.4766C58.4531 19.7839 59.5469 18.4818 60.9531 17.5703C62.3724 16.6589 64.0391 16.2031 65.9531 16.2031ZM65.9141 18.8594C64.1823 18.8594 62.8021 19.4258 61.7734 20.5586C60.7448 21.6914 60.1328 23.2734 59.9375 25.3047H71.2656C71.2526 24.0286 71.0508 22.9089 70.6602 21.9453C70.2826 20.9688 69.7031 20.2135 68.9219 19.6797C68.1406 19.1328 67.138 18.8594 65.9141 18.8594ZM90.3086 16.2031C92.8477 16.2031 94.7682 16.8281 96.0703 18.0781C97.3724 19.3151 98.0234 21.3073 98.0234 24.0547V38H94.8203V24.2695C94.8203 22.4857 94.4102 21.151 93.5898 20.2656C92.7826 19.3802 91.5391 18.9375 89.8594 18.9375C87.4896 18.9375 85.8229 19.6081 84.8594 20.9492C83.8958 22.2904 83.4141 24.237 83.4141 26.7891V38H80.1719V16.5938H82.7891L83.2773 19.6797H83.4531C83.9089 18.9245 84.4883 18.293 85.1914 17.7852C85.8945 17.2643 86.6823 16.8737 87.5547 16.6133C88.4271 16.3398 89.3451 16.2031 90.3086 16.2031ZM118.551 32.1406C118.551 33.5078 118.206 34.6602 117.516 35.5977C116.839 36.5221 115.862 37.2188 114.586 37.6875C113.323 38.1562 111.812 38.3906 110.055 38.3906C108.557 38.3906 107.262 38.2734 106.168 38.0391C105.074 37.8047 104.117 37.4727 103.297 37.043V34.0547C104.169 34.4844 105.211 34.875 106.422 35.2266C107.633 35.5781 108.87 35.7539 110.133 35.7539C111.982 35.7539 113.323 35.4544 114.156 34.8555C114.99 34.2565 115.406 33.4427 115.406 32.4141C115.406 31.8281 115.237 31.3138 114.898 30.8711C114.573 30.4154 114.02 29.9792 113.238 29.5625C112.457 29.1328 111.376 28.6641 109.996 28.1562C108.629 27.6354 107.444 27.1211 106.441 26.6133C105.452 26.0924 104.684 25.4609 104.137 24.7188C103.603 23.9766 103.336 23.013 103.336 21.8281C103.336 20.0182 104.065 18.6315 105.523 17.668C106.995 16.6914 108.922 16.2031 111.305 16.2031C112.594 16.2031 113.798 16.3333 114.918 16.5938C116.051 16.8411 117.105 17.1797 118.082 17.6094L116.988 20.207C116.103 19.8294 115.159 19.5104 114.156 19.25C113.154 18.9896 112.132 18.8594 111.09 18.8594C109.592 18.8594 108.44 19.1068 107.633 19.6016C106.839 20.0964 106.441 20.7734 106.441 21.6328C106.441 22.2969 106.624 22.8438 106.988 23.2734C107.366 23.7031 107.965 24.1068 108.785 24.4844C109.605 24.862 110.686 25.3047 112.027 25.8125C113.368 26.3073 114.527 26.8216 115.504 27.3555C116.48 27.8763 117.229 28.5143 117.75 29.2695C118.284 30.0117 118.551 30.9688 118.551 32.1406ZM137.398 16.5938V38H134.156V16.5938H137.398ZM135.816 8.58594C136.35 8.58594 136.806 8.76172 137.184 9.11328C137.574 9.45182 137.77 9.98568 137.77 10.7148C137.77 11.431 137.574 11.9648 137.184 12.3164C136.806 12.668 136.35 12.8438 135.816 12.8438C135.257 12.8438 134.788 12.668 134.41 12.3164C134.046 11.9648 133.863 11.431 133.863 10.7148C133.863 9.98568 134.046 9.45182 134.41 9.11328C134.788 8.76172 135.257 8.58594 135.816 8.58594ZM167.516 16.2031C169.872 16.2031 171.65 16.8216 172.848 18.0586C174.046 19.2826 174.645 21.2552 174.645 23.9766V38H171.441V24.1328C171.441 22.401 171.064 21.1055 170.309 20.2461C169.566 19.3737 168.46 18.9375 166.988 18.9375C164.918 18.9375 163.414 19.5365 162.477 20.7344C161.539 21.9323 161.07 23.6966 161.07 26.0273V38H157.848V24.1328C157.848 22.974 157.678 22.0104 157.34 21.2422C157.014 20.474 156.52 19.901 155.855 19.5234C155.204 19.1328 154.378 18.9375 153.375 18.9375C151.956 18.9375 150.816 19.2305 149.957 19.8164C149.098 20.4023 148.473 21.2747 148.082 22.4336C147.704 23.5794 147.516 24.9922 147.516 26.6719V38H144.273V16.5938H146.891L147.379 19.6211H147.555C147.984 18.8789 148.525 18.2539 149.176 17.7461C149.827 17.2383 150.556 16.8542 151.363 16.5938C152.171 16.3333 153.03 16.2031 153.941 16.2031C155.569 16.2031 156.93 16.5091 158.023 17.1211C159.13 17.7201 159.931 18.638 160.426 19.875H160.602C161.305 18.638 162.268 17.7201 163.492 17.1211C164.716 16.5091 166.057 16.2031 167.516 16.2031ZM191.363 16.2031C194.033 16.2031 196.161 17.1211 197.75 18.957C199.339 20.793 200.133 23.5534 200.133 27.2383C200.133 29.6732 199.768 31.7174 199.039 33.3711C198.31 35.0247 197.281 36.2747 195.953 37.1211C194.638 37.9674 193.082 38.3906 191.285 38.3906C190.152 38.3906 189.156 38.2409 188.297 37.9414C187.438 37.6419 186.702 37.2383 186.09 36.7305C185.478 36.2227 184.97 35.6693 184.566 35.0703H184.332C184.371 35.5781 184.417 36.1901 184.469 36.9062C184.534 37.6224 184.566 38.2474 184.566 38.7812V47.5703H181.305V16.5938H183.98L184.41 19.7578H184.566C184.983 19.1068 185.491 18.5143 186.09 17.9805C186.689 17.4336 187.418 17.0039 188.277 16.6914C189.15 16.3659 190.178 16.2031 191.363 16.2031ZM190.797 18.9375C189.312 18.9375 188.115 19.224 187.203 19.7969C186.305 20.3698 185.647 21.2292 185.23 22.375C184.814 23.5078 184.592 24.9336 184.566 26.6523V27.2773C184.566 29.0872 184.762 30.6172 185.152 31.8672C185.556 33.1172 186.214 34.0677 187.125 34.7188C188.049 35.3698 189.286 35.6953 190.836 35.6953C192.164 35.6953 193.271 35.3372 194.156 34.6211C195.042 33.9049 195.699 32.9089 196.129 31.6328C196.572 30.3438 196.793 28.8659 196.793 27.1992C196.793 24.6732 196.298 22.668 195.309 21.1836C194.332 19.6862 192.828 18.9375 190.797 18.9375ZM213.805 16.2422C216.357 16.2422 218.251 16.8151 219.488 17.9609C220.725 19.1068 221.344 20.9362 221.344 23.4492V38H218.98L218.355 34.8359H218.199C217.6 35.6172 216.975 36.2747 216.324 36.8086C215.673 37.3294 214.918 37.7266 214.059 38C213.212 38.2604 212.171 38.3906 210.934 38.3906C209.632 38.3906 208.473 38.1628 207.457 37.707C206.454 37.2513 205.66 36.5612 205.074 35.6367C204.501 34.7122 204.215 33.5404 204.215 32.1211C204.215 29.9857 205.061 28.3451 206.754 27.1992C208.447 26.0534 211.025 25.4284 214.488 25.3242L218.18 25.168V23.8594C218.18 22.0104 217.783 20.7148 216.988 19.9727C216.194 19.2305 215.074 18.8594 213.629 18.8594C212.509 18.8594 211.441 19.0221 210.426 19.3477C209.41 19.6732 208.447 20.0573 207.535 20.5L206.539 18.0391C207.503 17.5443 208.609 17.1211 209.859 16.7695C211.109 16.418 212.424 16.2422 213.805 16.2422ZM218.141 27.4531L214.879 27.5898C212.21 27.694 210.328 28.1302 209.234 28.8984C208.141 29.6667 207.594 30.7539 207.594 32.1602C207.594 33.3841 207.965 34.2891 208.707 34.875C209.449 35.4609 210.432 35.7539 211.656 35.7539C213.557 35.7539 215.113 35.2266 216.324 34.1719C217.535 33.1172 218.141 31.5352 218.141 29.4258V27.4531ZM236.598 38.3906C234.671 38.3906 232.971 37.9935 231.5 37.1992C230.029 36.4049 228.883 35.194 228.062 33.5664C227.242 31.9388 226.832 29.888 226.832 27.4141C226.832 24.8229 227.262 22.707 228.121 21.0664C228.993 19.4128 230.191 18.1888 231.715 17.3945C233.238 16.6003 234.97 16.2031 236.91 16.2031C237.978 16.2031 239.007 16.3138 239.996 16.5352C240.999 16.7435 241.819 17.0104 242.457 17.3359L241.48 20.0508C240.829 19.7904 240.074 19.556 239.215 19.3477C238.368 19.1393 237.574 19.0352 236.832 19.0352C235.348 19.0352 234.111 19.3542 233.121 19.9922C232.145 20.6302 231.409 21.5677 230.914 22.8047C230.432 24.0417 230.191 25.5651 230.191 27.375C230.191 29.1068 230.426 30.5846 230.895 31.8086C231.376 33.0326 232.086 33.9701 233.023 34.6211C233.974 35.2591 235.159 35.5781 236.578 35.5781C237.711 35.5781 238.733 35.4609 239.645 35.2266C240.556 34.9792 241.383 34.6927 242.125 34.3672V37.2578C241.409 37.6224 240.608 37.9023 239.723 38.0977C238.85 38.293 237.809 38.3906 236.598 38.3906ZM254.117 35.7344C254.651 35.7344 255.198 35.6888 255.758 35.5977C256.318 35.5065 256.773 35.3958 257.125 35.2656V37.7852C256.747 37.9544 256.22 38.0977 255.543 38.2148C254.879 38.332 254.228 38.3906 253.59 38.3906C252.457 38.3906 251.428 38.1953 250.504 37.8047C249.579 37.401 248.837 36.724 248.277 35.7734C247.73 34.8229 247.457 33.5078 247.457 31.8281V19.1328H244.41V17.5508L247.477 16.2812L248.766 11.6328H250.719V16.5938H256.988V19.1328H250.719V31.7305C250.719 33.0716 251.025 34.0742 251.637 34.7383C252.262 35.4023 253.089 35.7344 254.117 35.7344ZM269.469 16.2422C272.021 16.2422 273.915 16.8151 275.152 17.9609C276.389 19.1068 277.008 20.9362 277.008 23.4492V38H274.645L274.02 34.8359H273.863C273.264 35.6172 272.639 36.2747 271.988 36.8086C271.337 37.3294 270.582 37.7266 269.723 38C268.876 38.2604 267.835 38.3906 266.598 38.3906C265.296 38.3906 264.137 38.1628 263.121 37.707C262.118 37.2513 261.324 36.5612 260.738 35.6367C260.165 34.7122 259.879 33.5404 259.879 32.1211C259.879 29.9857 260.725 28.3451 262.418 27.1992C264.111 26.0534 266.689 25.4284 270.152 25.3242L273.844 25.168V23.8594C273.844 22.0104 273.447 20.7148 272.652 19.9727C271.858 19.2305 270.738 18.8594 269.293 18.8594C268.173 18.8594 267.105 19.0221 266.09 19.3477C265.074 19.6732 264.111 20.0573 263.199 20.5L262.203 18.0391C263.167 17.5443 264.273 17.1211 265.523 16.7695C266.773 16.418 268.089 16.2422 269.469 16.2422ZM273.805 27.4531L270.543 27.5898C267.874 27.694 265.992 28.1302 264.898 28.8984C263.805 29.6667 263.258 30.7539 263.258 32.1602C263.258 33.3841 263.629 34.2891 264.371 34.875C265.113 35.4609 266.096 35.7539 267.32 35.7539C269.221 35.7539 270.777 35.2266 271.988 34.1719C273.199 33.1172 273.805 31.5352 273.805 29.4258V27.4531ZM291.305 38.3906C288.596 38.3906 286.448 37.4661 284.859 35.6172C283.284 33.7682 282.496 31.0208 282.496 27.375C282.496 23.6901 283.303 20.9102 284.918 19.0352C286.533 17.1471 288.681 16.2031 291.363 16.2031C292.496 16.2031 293.486 16.3529 294.332 16.6523C295.178 16.9518 295.908 17.3555 296.52 17.8633C297.132 18.3581 297.646 18.9245 298.062 19.5625H298.297C298.245 19.1589 298.193 18.6055 298.141 17.9023C298.089 17.1992 298.062 16.6263 298.062 16.1836V7.60938H301.305V38H298.688L298.199 34.9531H298.062C297.659 35.5911 297.145 36.1706 296.52 36.6914C295.908 37.2122 295.172 37.6289 294.312 37.9414C293.466 38.2409 292.464 38.3906 291.305 38.3906ZM291.812 35.6953C294.104 35.6953 295.725 35.0443 296.676 33.7422C297.626 32.4401 298.102 30.5065 298.102 27.9414V27.3555C298.102 24.6341 297.646 22.5443 296.734 21.0859C295.836 19.6276 294.195 18.8984 291.812 18.8984C289.82 18.8984 288.329 19.6667 287.34 21.2031C286.35 22.7266 285.855 24.8099 285.855 27.4531C285.855 30.0833 286.344 32.1146 287.32 33.5469C288.31 34.9792 289.807 35.6953 291.812 35.6953ZM326.637 27.2578C326.637 29.0156 326.409 30.5846 325.953 31.9648C325.497 33.3451 324.84 34.5104 323.98 35.4609C323.121 36.4115 322.079 37.1406 320.855 37.6484C319.645 38.1432 318.271 38.3906 316.734 38.3906C315.302 38.3906 313.987 38.1432 312.789 37.6484C311.604 37.1406 310.576 36.4115 309.703 35.4609C308.844 34.5104 308.173 33.3451 307.691 31.9648C307.223 30.5846 306.988 29.0156 306.988 27.2578C306.988 24.9141 307.385 22.9219 308.18 21.2812C308.974 19.6276 310.107 18.3711 311.578 17.5117C313.062 16.6393 314.827 16.2031 316.871 16.2031C318.824 16.2031 320.53 16.6393 321.988 17.5117C323.46 18.3841 324.599 19.6471 325.406 21.3008C326.227 22.9414 326.637 24.9271 326.637 27.2578ZM310.348 27.2578C310.348 28.9766 310.576 30.4674 311.031 31.7305C311.487 32.9935 312.19 33.9701 313.141 34.6602C314.091 35.3503 315.315 35.6953 316.812 35.6953C318.297 35.6953 319.514 35.3503 320.465 34.6602C321.428 33.9701 322.138 32.9935 322.594 31.7305C323.049 30.4674 323.277 28.9766 323.277 27.2578C323.277 25.5521 323.049 24.0807 322.594 22.8438C322.138 21.5938 321.435 20.6302 320.484 19.9531C319.534 19.276 318.303 18.9375 316.793 18.9375C314.566 18.9375 312.932 19.6732 311.891 21.1445C310.862 22.6159 310.348 24.6536 310.348 27.2578ZM346.09 32.1406C346.09 33.5078 345.745 34.6602 345.055 35.5977C344.378 36.5221 343.401 37.2188 342.125 37.6875C340.862 38.1562 339.352 38.3906 337.594 38.3906C336.096 38.3906 334.801 38.2734 333.707 38.0391C332.613 37.8047 331.656 37.4727 330.836 37.043V34.0547C331.708 34.4844 332.75 34.875 333.961 35.2266C335.172 35.5781 336.409 35.7539 337.672 35.7539C339.521 35.7539 340.862 35.4544 341.695 34.8555C342.529 34.2565 342.945 33.4427 342.945 32.4141C342.945 31.8281 342.776 31.3138 342.438 30.8711C342.112 30.4154 341.559 29.9792 340.777 29.5625C339.996 29.1328 338.915 28.6641 337.535 28.1562C336.168 27.6354 334.983 27.1211 333.98 26.6133C332.991 26.0924 332.223 25.4609 331.676 24.7188C331.142 23.9766 330.875 23.013 330.875 21.8281C330.875 20.0182 331.604 18.6315 333.062 17.668C334.534 16.6914 336.461 16.2031 338.844 16.2031C340.133 16.2031 341.337 16.3333 342.457 16.5938C343.59 16.8411 344.645 17.1797 345.621 17.6094L344.527 20.207C343.642 19.8294 342.698 19.5104 341.695 19.25C340.693 18.9896 339.671 18.8594 338.629 18.8594C337.132 18.8594 335.979 19.1068 335.172 19.6016C334.378 20.0964 333.98 20.7734 333.98 21.6328C333.98 22.2969 334.163 22.8438 334.527 23.2734C334.905 23.7031 335.504 24.1068 336.324 24.4844C337.145 24.862 338.225 25.3047 339.566 25.8125C340.908 26.3073 342.066 26.8216 343.043 27.3555C344.02 27.8763 344.768 28.5143 345.289 29.2695C345.823 30.0117 346.09 30.9688 346.09 32.1406Z" fill="#BD4747"/>
</svg>
