<svg width="1900" height="230" viewBox="0 0 1900 230" fill="none" xmlns="http://www.w3.org/2000/svg">
<g id="Junta-te ao movimento. Vamos impactar lado a lado.">
<path d="M36.96 100.2C32.48 100.2 28.24 99.64 24.24 98.52C20.24 97.4 16.68 95.72 13.56 93.48C10.44 91.16 7.96 88.32 6.12 84.96C4.36 81.6 3.4 77.68 3.24 73.2C3.24 72.48 3.48 71.88 3.96 71.4C4.44 70.84 5.08 70.56 5.88 70.56H19.56C20.6 70.56 21.4 70.84 21.96 71.4C22.6 71.96 23.08 72.76 23.4 73.8C23.8 76.36 24.64 78.44 25.92 80.04C27.2 81.64 28.8 82.84 30.72 83.64C32.72 84.36 34.96 84.72 37.44 84.72C42 84.72 45.48 83.24 47.88 80.28C50.36 77.32 51.6 73.12 51.6 67.68V30.96H11.64C10.84 30.96 10.16 30.68 9.6 30.12C9.04 29.56 8.76 28.88 8.76 28.08V18C8.76 17.12 9.04 16.4 9.6 15.84C10.16 15.28 10.84 15 11.64 15H68.16C69.04 15 69.76 15.28 70.32 15.84C70.88 16.4 71.16 17.12 71.16 18V68.16C71.16 75.04 69.72 80.88 66.84 85.68C63.96 90.4 59.96 94 54.84 96.48C49.72 98.96 43.76 100.2 36.96 100.2ZM109.582 100.2C104.942 100.2 100.822 99.16 97.2216 97.08C93.7016 94.92 90.9416 91.84 88.9416 87.84C87.0216 83.76 86.0616 78.84 86.0616 73.08V39.6C86.0616 38.72 86.3416 38 86.9016 37.44C87.4616 36.88 88.1416 36.6 88.9416 36.6H101.662C102.542 36.6 103.262 36.88 103.822 37.44C104.382 38 104.662 38.72 104.662 39.6V72.36C104.662 81.32 108.582 85.8 116.422 85.8C120.182 85.8 123.142 84.64 125.302 82.32C127.542 79.92 128.662 76.6 128.662 72.36V39.6C128.662 38.72 128.942 38 129.502 37.44C130.062 36.88 130.782 36.6 131.662 36.6H144.382C145.182 36.6 145.862 36.88 146.422 37.44C146.982 38 147.262 38.72 147.262 39.6V96C147.262 96.88 146.982 97.6 146.422 98.16C145.862 98.72 145.182 99 144.382 99H132.622C131.742 99 131.022 98.72 130.462 98.16C129.902 97.6 129.622 96.88 129.622 96V91.32C127.542 94.2 124.862 96.4 121.582 97.92C118.302 99.44 114.302 100.2 109.582 100.2ZM165.245 99C164.445 99 163.765 98.72 163.205 98.16C162.645 97.6 162.365 96.88 162.365 96V39.6C162.365 38.72 162.645 38 163.205 37.44C163.765 36.88 164.445 36.6 165.245 36.6H177.005C177.885 36.6 178.605 36.88 179.165 37.44C179.725 38 180.005 38.72 180.005 39.6V44.28C182.085 41.72 184.765 39.6 188.045 37.92C191.325 36.24 195.325 35.4 200.045 35.4C204.765 35.4 208.885 36.48 212.405 38.64C216.005 40.72 218.805 43.8 220.805 47.88C222.885 51.88 223.925 56.76 223.925 62.52V96C223.925 96.88 223.605 97.6 222.965 98.16C222.405 98.72 221.725 99 220.925 99H208.205C207.325 99 206.605 98.72 206.045 98.16C205.485 97.6 205.205 96.88 205.205 96V63.24C205.205 59 204.165 55.72 202.085 53.4C200.085 51 197.125 49.8 193.205 49.8C189.445 49.8 186.445 51 184.205 53.4C181.965 55.72 180.845 59 180.845 63.24V96C180.845 96.88 180.565 97.6 180.005 98.16C179.445 98.72 178.765 99 177.965 99H165.245ZM267.599 99C262.639 99 258.399 98.2 254.879 96.6C251.359 94.92 248.679 92.36 246.839 88.92C245.079 85.48 244.199 81.16 244.199 75.96V50.76H234.839C233.959 50.76 233.239 50.48 232.679 49.92C232.119 49.36 231.839 48.64 231.839 47.76V39.6C231.839 38.72 232.119 38 232.679 37.44C233.239 36.88 233.959 36.6 234.839 36.6H244.199V16.8C244.199 15.92 244.479 15.2 245.039 14.64C245.679 14.08 246.399 13.8 247.199 13.8H258.959C259.839 13.8 260.559 14.08 261.119 14.64C261.679 15.2 261.959 15.92 261.959 16.8V36.6H276.959C277.759 36.6 278.439 36.88 278.999 37.44C279.559 38 279.839 38.72 279.839 39.6V47.76C279.839 48.64 279.559 49.36 278.999 49.92C278.439 50.48 277.759 50.76 276.959 50.76H261.959V74.52C261.959 77.56 262.479 79.96 263.519 81.72C264.639 83.4 266.559 84.24 269.279 84.24H278.039C278.839 84.24 279.519 84.52 280.079 85.08C280.639 85.64 280.919 86.32 280.919 87.12V96C280.919 96.88 280.639 97.6 280.079 98.16C279.519 98.72 278.839 99 278.039 99H267.599ZM309.748 100.2C305.508 100.2 301.708 99.4 298.348 97.8C294.988 96.12 292.308 93.88 290.308 91.08C288.308 88.28 287.308 85.16 287.308 81.72C287.308 76.04 289.588 71.56 294.148 68.28C298.788 65 304.868 62.76 312.388 61.56L328.108 59.28V57.12C328.108 54 327.388 51.6 325.948 49.92C324.508 48.24 321.988 47.4 318.388 47.4C315.748 47.4 313.628 47.92 312.028 48.96C310.428 50 309.188 51.36 308.308 53.04C307.668 54.08 306.748 54.6 305.548 54.6H294.148C293.268 54.6 292.588 54.36 292.108 53.88C291.628 53.32 291.428 52.68 291.508 51.96C291.508 50.6 292.028 49 293.068 47.16C294.108 45.32 295.708 43.52 297.868 41.76C300.028 39.92 302.788 38.4 306.148 37.2C309.508 36 313.628 35.4 318.508 35.4C323.548 35.4 327.868 36 331.468 37.2C335.068 38.4 337.948 40.08 340.108 42.24C342.268 44.4 343.868 46.92 344.908 49.8C345.948 52.6 346.468 55.64 346.468 58.92V96C346.468 96.88 346.188 97.6 345.628 98.16C345.068 98.72 344.348 99 343.468 99H331.708C330.908 99 330.228 98.72 329.668 98.16C329.108 97.6 328.828 96.88 328.828 96V91.56C327.788 93.08 326.388 94.52 324.628 95.88C322.868 97.16 320.748 98.2 318.268 99C315.868 99.8 313.028 100.2 309.748 100.2ZM314.548 87.72C317.188 87.72 319.548 87.16 321.628 86.04C323.708 84.92 325.348 83.2 326.548 80.88C327.748 78.56 328.348 75.64 328.348 72.12V70.08L317.188 71.88C312.868 72.6 309.708 73.68 307.708 75.12C305.708 76.56 304.708 78.32 304.708 80.4C304.708 81.92 305.148 83.24 306.028 84.36C306.988 85.48 308.228 86.32 309.748 86.88C311.268 87.44 312.868 87.72 314.548 87.72ZM363.518 70.68C362.718 70.68 362.038 70.4 361.478 69.84C360.918 69.28 360.638 68.6 360.638 67.8V58.2C360.638 57.4 360.918 56.72 361.478 56.16C362.038 55.6 362.718 55.32 363.518 55.32H400.838C401.638 55.32 402.318 55.6 402.878 56.16C403.438 56.72 403.718 57.4 403.718 58.2V67.8C403.718 68.6 403.438 69.28 402.878 69.84C402.318 70.4 401.638 70.68 400.838 70.68H363.518ZM447.365 99C442.405 99 438.165 98.2 434.645 96.6C431.125 94.92 428.445 92.36 426.605 88.92C424.845 85.48 423.965 81.16 423.965 75.96V50.76H414.605C413.725 50.76 413.005 50.48 412.445 49.92C411.885 49.36 411.605 48.64 411.605 47.76V39.6C411.605 38.72 411.885 38 412.445 37.44C413.005 36.88 413.725 36.6 414.605 36.6H423.965V16.8C423.965 15.92 424.245 15.2 424.805 14.64C425.445 14.08 426.165 13.8 426.965 13.8H438.725C439.605 13.8 440.325 14.08 440.885 14.64C441.445 15.2 441.725 15.92 441.725 16.8V36.6H456.725C457.525 36.6 458.205 36.88 458.765 37.44C459.325 38 459.605 38.72 459.605 39.6V47.76C459.605 48.64 459.325 49.36 458.765 49.92C458.205 50.48 457.525 50.76 456.725 50.76H441.725V74.52C441.725 77.56 442.245 79.96 443.285 81.72C444.405 83.4 446.325 84.24 449.045 84.24H457.805C458.605 84.24 459.285 84.52 459.845 85.08C460.405 85.64 460.685 86.32 460.685 87.12V96C460.685 96.88 460.405 97.6 459.845 98.16C459.285 98.72 458.605 99 457.805 99H447.365ZM498.994 100.2C489.794 100.2 482.474 97.64 477.034 92.52C471.674 87.4 468.834 79.96 468.514 70.2C468.514 69.56 468.514 68.72 468.514 67.68C468.514 66.56 468.514 65.68 468.514 65.04C468.834 58.88 470.234 53.6 472.714 49.2C475.194 44.72 478.674 41.32 483.154 39C487.634 36.6 492.874 35.4 498.874 35.4C505.594 35.4 511.194 36.8 515.674 39.6C520.234 42.32 523.634 46.08 525.874 50.88C528.194 55.6 529.354 61.04 529.354 67.2V69.96C529.354 70.76 529.034 71.44 528.394 72C527.834 72.56 527.154 72.84 526.354 72.84H487.114C487.114 72.92 487.114 73.08 487.114 73.32C487.114 73.48 487.114 73.64 487.114 73.8C487.194 76.36 487.674 78.72 488.554 80.88C489.514 82.96 490.834 84.64 492.514 85.92C494.274 87.2 496.354 87.84 498.754 87.84C500.754 87.84 502.394 87.56 503.674 87C504.954 86.44 505.994 85.76 506.794 84.96C507.674 84.16 508.314 83.48 508.714 82.92C509.434 82.12 509.994 81.64 510.394 81.48C510.874 81.24 511.594 81.12 512.554 81.12H525.034C525.834 81.12 526.474 81.36 526.954 81.84C527.514 82.24 527.754 82.84 527.674 83.64C527.594 84.92 526.914 86.52 525.634 88.44C524.434 90.28 522.634 92.12 520.234 93.96C517.834 95.72 514.834 97.2 511.234 98.4C507.714 99.6 503.634 100.2 498.994 100.2ZM487.114 61.92H510.634V61.68C510.634 58.8 510.154 56.32 509.194 54.24C508.314 52.08 506.994 50.4 505.234 49.2C503.474 48 501.354 47.4 498.874 47.4C496.394 47.4 494.274 48 492.514 49.2C490.754 50.4 489.394 52.08 488.434 54.24C487.554 56.32 487.114 58.8 487.114 61.68V61.92ZM586.193 100.2C581.953 100.2 578.153 99.4 574.793 97.8C571.433 96.12 568.753 93.88 566.753 91.08C564.753 88.28 563.753 85.16 563.753 81.72C563.753 76.04 566.033 71.56 570.593 68.28C575.233 65 581.313 62.76 588.833 61.56L604.553 59.28V57.12C604.553 54 603.833 51.6 602.393 49.92C600.953 48.24 598.433 47.4 594.833 47.4C592.193 47.4 590.073 47.92 588.473 48.96C586.873 50 585.633 51.36 584.753 53.04C584.113 54.08 583.193 54.6 581.993 54.6H570.593C569.713 54.6 569.033 54.36 568.553 53.88C568.073 53.32 567.873 52.68 567.953 51.96C567.953 50.6 568.473 49 569.513 47.16C570.553 45.32 572.153 43.52 574.313 41.76C576.473 39.92 579.233 38.4 582.593 37.2C585.953 36 590.073 35.4 594.953 35.4C599.993 35.4 604.313 36 607.913 37.2C611.513 38.4 614.393 40.08 616.553 42.24C618.713 44.4 620.313 46.92 621.353 49.8C622.393 52.6 622.913 55.64 622.913 58.92V96C622.913 96.88 622.633 97.6 622.073 98.16C621.513 98.72 620.793 99 619.913 99H608.153C607.353 99 606.673 98.72 606.113 98.16C605.553 97.6 605.273 96.88 605.273 96V91.56C604.233 93.08 602.833 94.52 601.073 95.88C599.313 97.16 597.193 98.2 594.713 99C592.313 99.8 589.473 100.2 586.193 100.2ZM590.993 87.72C593.633 87.72 595.993 87.16 598.073 86.04C600.153 84.92 601.793 83.2 602.993 80.88C604.193 78.56 604.793 75.64 604.793 72.12V70.08L593.633 71.88C589.313 72.6 586.153 73.68 584.153 75.12C582.153 76.56 581.153 78.32 581.153 80.4C581.153 81.92 581.593 83.24 582.473 84.36C583.433 85.48 584.673 86.32 586.193 86.88C587.713 87.44 589.313 87.72 590.993 87.72ZM666.003 100.2C659.363 100.2 653.803 99.12 649.323 96.96C644.843 94.72 641.403 91.56 639.003 87.48C636.683 83.4 635.403 78.64 635.163 73.2C635.083 71.6 635.043 69.8 635.043 67.8C635.043 65.72 635.083 63.92 635.163 62.4C635.403 56.88 636.763 52.12 639.243 48.12C641.723 44.04 645.203 40.92 649.683 38.76C654.163 36.52 659.603 35.4 666.003 35.4C672.323 35.4 677.723 36.52 682.203 38.76C686.683 40.92 690.163 44.04 692.643 48.12C695.123 52.12 696.483 56.88 696.723 62.4C696.883 63.92 696.963 65.72 696.963 67.8C696.963 69.8 696.883 71.6 696.723 73.2C696.483 78.64 695.163 83.4 692.763 87.48C690.443 91.56 687.043 94.72 682.563 96.96C678.083 99.12 672.563 100.2 666.003 100.2ZM666.003 87C669.923 87 672.883 85.8 674.883 83.4C676.883 80.92 677.963 77.32 678.123 72.6C678.203 71.4 678.243 69.8 678.243 67.8C678.243 65.8 678.203 64.2 678.123 63C677.963 58.36 676.883 54.8 674.883 52.32C672.883 49.84 669.923 48.6 666.003 48.6C662.083 48.6 659.083 49.84 657.003 52.32C655.003 54.8 653.923 58.36 653.763 63C653.683 64.2 653.643 65.8 653.643 67.8C653.643 69.8 653.683 71.4 653.763 72.6C653.923 77.32 655.003 80.92 657.003 83.4C659.083 85.8 662.083 87 666.003 87ZM738.878 99C738.078 99 737.398 98.72 736.838 98.16C736.278 97.6 735.998 96.88 735.998 96V39.6C735.998 38.72 736.278 38 736.838 37.44C737.398 36.88 738.078 36.6 738.878 36.6H750.038C750.838 36.6 751.518 36.88 752.078 37.44C752.718 38 753.038 38.72 753.038 39.6V43.68C754.638 41.44 756.838 39.52 759.638 37.92C762.518 36.32 765.918 35.48 769.838 35.4C779.118 35.24 785.478 38.76 788.918 45.96C790.758 42.84 793.398 40.32 796.838 38.4C800.358 36.4 804.198 35.4 808.358 35.4C812.518 35.4 816.278 36.36 819.638 38.28C822.998 40.12 825.638 43 827.558 46.92C829.558 50.76 830.558 55.72 830.558 61.8V96C830.558 96.88 830.278 97.6 829.718 98.16C829.158 98.72 828.478 99 827.678 99H815.798C814.998 99 814.318 98.72 813.758 98.16C813.198 97.6 812.918 96.88 812.918 96V62.76C812.918 59.48 812.438 56.92 811.478 55.08C810.518 53.16 809.238 51.8 807.638 51C806.118 50.2 804.398 49.8 802.478 49.8C800.798 49.8 799.158 50.2 797.558 51C796.038 51.8 794.758 53.16 793.718 55.08C792.758 56.92 792.278 59.48 792.278 62.76V96C792.278 96.88 791.998 97.6 791.438 98.16C790.878 98.72 790.158 99 789.278 99H777.518C776.638 99 775.918 98.72 775.358 98.16C774.798 97.6 774.518 96.88 774.518 96V62.76C774.518 59.48 774.038 56.92 773.078 55.08C772.118 53.16 770.838 51.8 769.238 51C767.718 50.2 766.038 49.8 764.198 49.8C762.518 49.8 760.878 50.24 759.277 51.12C757.678 51.92 756.358 53.24 755.318 55.08C754.358 56.92 753.878 59.44 753.878 62.64V96C753.878 96.88 753.598 97.6 753.038 98.16C752.478 98.72 751.798 99 750.998 99H738.878ZM873.659 100.2C867.019 100.2 861.459 99.12 856.979 96.96C852.499 94.72 849.059 91.56 846.659 87.48C844.339 83.4 843.059 78.64 842.819 73.2C842.739 71.6 842.699 69.8 842.699 67.8C842.699 65.72 842.739 63.92 842.819 62.4C843.059 56.88 844.419 52.12 846.899 48.12C849.379 44.04 852.859 40.92 857.339 38.76C861.819 36.52 867.259 35.4 873.659 35.4C879.979 35.4 885.379 36.52 889.859 38.76C894.339 40.92 897.819 44.04 900.299 48.12C902.779 52.12 904.139 56.88 904.379 62.4C904.539 63.92 904.619 65.72 904.619 67.8C904.619 69.8 904.539 71.6 904.379 73.2C904.139 78.64 902.819 83.4 900.419 87.48C898.099 91.56 894.699 94.72 890.219 96.96C885.739 99.12 880.219 100.2 873.659 100.2ZM873.659 87C877.579 87 880.539 85.8 882.539 83.4C884.539 80.92 885.619 77.32 885.779 72.6C885.859 71.4 885.899 69.8 885.899 67.8C885.899 65.8 885.859 64.2 885.779 63C885.619 58.36 884.539 54.8 882.539 52.32C880.539 49.84 877.579 48.6 873.659 48.6C869.739 48.6 866.739 49.84 864.659 52.32C862.659 54.8 861.579 58.36 861.419 63C861.339 64.2 861.299 65.8 861.299 67.8C861.299 69.8 861.339 71.4 861.419 72.6C861.579 77.32 862.659 80.92 864.659 83.4C866.739 85.8 869.739 87 873.659 87ZM936.906 99C935.706 99 934.786 98.72 934.146 98.16C933.586 97.52 933.106 96.8 932.706 96L910.146 40.32C909.986 40 909.906 39.64 909.906 39.24C909.906 38.52 910.146 37.92 910.626 37.44C911.186 36.88 911.826 36.6 912.546 36.6H924.186C925.226 36.6 925.986 36.88 926.466 37.44C927.026 38 927.386 38.52 927.546 39L942.306 78.6L957.066 39C957.306 38.52 957.666 38 958.146 37.44C958.706 36.88 959.466 36.6 960.426 36.6H972.066C972.786 36.6 973.386 36.88 973.866 37.44C974.426 37.92 974.706 38.52 974.706 39.24C974.706 39.64 974.666 40 974.586 40.32L951.906 96C951.586 96.8 951.106 97.52 950.466 98.16C949.826 98.72 948.906 99 947.706 99H936.906ZM987.784 99C986.984 99 986.304 98.72 985.744 98.16C985.184 97.6 984.904 96.88 984.904 96V39.6C984.904 38.72 985.184 38 985.744 37.44C986.304 36.88 986.984 36.6 987.784 36.6H999.784C1000.66 36.6 1001.38 36.88 1001.94 37.44C1002.5 38 1002.78 38.72 1002.78 39.6V96C1002.78 96.88 1002.5 97.6 1001.94 98.16C1001.38 98.72 1000.66 99 999.784 99H987.784ZM987.424 27C986.624 27 985.944 26.72 985.384 26.16C984.824 25.6 984.544 24.88 984.544 24V14.4C984.544 13.52 984.824 12.8 985.384 12.24C985.944 11.6 986.624 11.28 987.424 11.28H1000.02C1000.9 11.28 1001.62 11.6 1002.18 12.24C1002.82 12.8 1003.14 13.52 1003.14 14.4V24C1003.14 24.88 1002.82 25.6 1002.18 26.16C1001.62 26.72 1000.9 27 1000.02 27H987.424ZM1020.71 99C1019.91 99 1019.23 98.72 1018.67 98.16C1018.11 97.6 1017.83 96.88 1017.83 96V39.6C1017.83 38.72 1018.11 38 1018.67 37.44C1019.23 36.88 1019.91 36.6 1020.71 36.6H1031.87C1032.67 36.6 1033.35 36.88 1033.91 37.44C1034.55 38 1034.87 38.72 1034.87 39.6V43.68C1036.47 41.44 1038.67 39.52 1041.47 37.92C1044.35 36.32 1047.75 35.48 1051.67 35.4C1060.95 35.24 1067.31 38.76 1070.75 45.96C1072.59 42.84 1075.23 40.32 1078.67 38.4C1082.19 36.4 1086.03 35.4 1090.19 35.4C1094.35 35.4 1098.11 36.36 1101.47 38.28C1104.83 40.12 1107.47 43 1109.39 46.92C1111.39 50.76 1112.39 55.72 1112.39 61.8V96C1112.39 96.88 1112.11 97.6 1111.55 98.16C1110.99 98.72 1110.31 99 1109.51 99H1097.63C1096.83 99 1096.15 98.72 1095.59 98.16C1095.03 97.6 1094.75 96.88 1094.75 96V62.76C1094.75 59.48 1094.27 56.92 1093.31 55.08C1092.35 53.16 1091.07 51.8 1089.47 51C1087.95 50.2 1086.23 49.8 1084.31 49.8C1082.63 49.8 1080.99 50.2 1079.39 51C1077.87 51.8 1076.59 53.16 1075.55 55.08C1074.59 56.92 1074.11 59.48 1074.11 62.76V96C1074.11 96.88 1073.83 97.6 1073.27 98.16C1072.71 98.72 1071.99 99 1071.11 99H1059.35C1058.47 99 1057.75 98.72 1057.19 98.16C1056.63 97.6 1056.35 96.88 1056.35 96V62.76C1056.35 59.48 1055.87 56.92 1054.91 55.08C1053.95 53.16 1052.67 51.8 1051.07 51C1049.55 50.2 1047.87 49.8 1046.03 49.8C1044.35 49.8 1042.71 50.24 1041.11 51.12C1039.51 51.92 1038.19 53.24 1037.15 55.08C1036.19 56.92 1035.71 59.44 1035.71 62.64V96C1035.71 96.88 1035.43 97.6 1034.87 98.16C1034.31 98.72 1033.63 99 1032.83 99H1020.71ZM1154.78 100.2C1145.58 100.2 1138.26 97.64 1132.82 92.52C1127.46 87.4 1124.62 79.96 1124.3 70.2C1124.3 69.56 1124.3 68.72 1124.3 67.68C1124.3 66.56 1124.3 65.68 1124.3 65.04C1124.62 58.88 1126.02 53.6 1128.5 49.2C1130.98 44.72 1134.46 41.32 1138.94 39C1143.42 36.6 1148.66 35.4 1154.65 35.4C1161.38 35.4 1166.98 36.8 1171.46 39.6C1176.02 42.32 1179.42 46.08 1181.66 50.88C1183.98 55.6 1185.14 61.04 1185.14 67.2V69.96C1185.14 70.76 1184.82 71.44 1184.18 72C1183.62 72.56 1182.94 72.84 1182.14 72.84H1142.9C1142.9 72.92 1142.9 73.08 1142.9 73.32C1142.9 73.48 1142.9 73.64 1142.9 73.8C1142.98 76.36 1143.46 78.72 1144.34 80.88C1145.3 82.96 1146.62 84.64 1148.3 85.92C1150.06 87.2 1152.14 87.84 1154.54 87.84C1156.54 87.84 1158.18 87.56 1159.46 87C1160.74 86.44 1161.78 85.76 1162.58 84.96C1163.46 84.16 1164.1 83.48 1164.5 82.92C1165.22 82.12 1165.78 81.64 1166.18 81.48C1166.66 81.24 1167.38 81.12 1168.34 81.12H1180.82C1181.62 81.12 1182.26 81.36 1182.73 81.84C1183.3 82.24 1183.54 82.84 1183.46 83.64C1183.38 84.92 1182.7 86.52 1181.42 88.44C1180.22 90.28 1178.42 92.12 1176.02 93.96C1173.62 95.72 1170.62 97.2 1167.02 98.4C1163.5 99.6 1159.42 100.2 1154.78 100.2ZM1142.9 61.92H1166.42V61.68C1166.42 58.8 1165.94 56.32 1164.98 54.24C1164.1 52.08 1162.78 50.4 1161.02 49.2C1159.26 48 1157.14 47.4 1154.65 47.4C1152.18 47.4 1150.06 48 1148.3 49.2C1146.54 50.4 1145.18 52.08 1144.22 54.24C1143.34 56.32 1142.9 58.8 1142.9 61.68V61.92ZM1200.01 99C1199.21 99 1198.53 98.72 1197.97 98.16C1197.41 97.6 1197.13 96.88 1197.13 96V39.6C1197.13 38.72 1197.41 38 1197.97 37.44C1198.53 36.88 1199.21 36.6 1200.01 36.6H1211.77C1212.65 36.6 1213.37 36.88 1213.93 37.44C1214.49 38 1214.77 38.72 1214.77 39.6V44.28C1216.85 41.72 1219.53 39.6 1222.81 37.92C1226.09 36.24 1230.09 35.4 1234.81 35.4C1239.53 35.4 1243.65 36.48 1247.17 38.64C1250.77 40.72 1253.57 43.8 1255.57 47.88C1257.65 51.88 1258.69 56.76 1258.69 62.52V96C1258.69 96.88 1258.37 97.6 1257.73 98.16C1257.17 98.72 1256.49 99 1255.69 99H1242.97C1242.09 99 1241.37 98.72 1240.81 98.16C1240.25 97.6 1239.97 96.88 1239.97 96V63.24C1239.97 59 1238.93 55.72 1236.85 53.4C1234.85 51 1231.89 49.8 1227.97 49.8C1224.21 49.8 1221.21 51 1218.97 53.4C1216.73 55.72 1215.61 59 1215.61 63.24V96C1215.61 96.88 1215.33 97.6 1214.77 98.16C1214.21 98.72 1213.53 99 1212.73 99H1200.01ZM1302.36 99C1297.4 99 1293.16 98.2 1289.64 96.6C1286.12 94.92 1283.44 92.36 1281.6 88.92C1279.84 85.48 1278.96 81.16 1278.96 75.96V50.76H1269.6C1268.72 50.76 1268 50.48 1267.44 49.92C1266.88 49.36 1266.6 48.64 1266.6 47.76V39.6C1266.6 38.72 1266.88 38 1267.44 37.44C1268 36.88 1268.72 36.6 1269.6 36.6H1278.96V16.8C1278.96 15.92 1279.24 15.2 1279.8 14.64C1280.44 14.08 1281.16 13.8 1281.96 13.8H1293.72C1294.6 13.8 1295.32 14.08 1295.88 14.64C1296.44 15.2 1296.72 15.92 1296.72 16.8V36.6H1311.72C1312.52 36.6 1313.2 36.88 1313.76 37.44C1314.32 38 1314.6 38.72 1314.6 39.6V47.76C1314.6 48.64 1314.32 49.36 1313.76 49.92C1313.2 50.48 1312.52 50.76 1311.72 50.76H1296.72V74.52C1296.72 77.56 1297.24 79.96 1298.28 81.72C1299.4 83.4 1301.32 84.24 1304.04 84.24H1312.8C1313.6 84.24 1314.28 84.52 1314.84 85.08C1315.4 85.64 1315.68 86.32 1315.68 87.12V96C1315.68 96.88 1315.4 97.6 1314.84 98.16C1314.28 98.72 1313.6 99 1312.8 99H1302.36ZM1354.71 100.2C1348.07 100.2 1342.51 99.12 1338.03 96.96C1333.55 94.72 1330.11 91.56 1327.71 87.48C1325.39 83.4 1324.11 78.64 1323.87 73.2C1323.79 71.6 1323.75 69.8 1323.75 67.8C1323.75 65.72 1323.79 63.92 1323.87 62.4C1324.11 56.88 1325.47 52.12 1327.95 48.12C1330.43 44.04 1333.91 40.92 1338.39 38.76C1342.87 36.52 1348.31 35.4 1354.71 35.4C1361.03 35.4 1366.43 36.52 1370.91 38.76C1375.39 40.92 1378.87 44.04 1381.35 48.12C1383.83 52.12 1385.19 56.88 1385.43 62.4C1385.59 63.92 1385.67 65.72 1385.67 67.8C1385.67 69.8 1385.59 71.6 1385.43 73.2C1385.19 78.64 1383.87 83.4 1381.47 87.48C1379.15 91.56 1375.75 94.72 1371.27 96.96C1366.79 99.12 1361.27 100.2 1354.71 100.2ZM1354.71 87C1358.63 87 1361.59 85.8 1363.59 83.4C1365.59 80.92 1366.67 77.32 1366.83 72.6C1366.91 71.4 1366.95 69.8 1366.95 67.8C1366.95 65.8 1366.91 64.2 1366.83 63C1366.67 58.36 1365.59 54.8 1363.59 52.32C1361.59 49.84 1358.63 48.6 1354.71 48.6C1350.79 48.6 1347.79 49.84 1345.71 52.32C1343.71 54.8 1342.63 58.36 1342.47 63C1342.39 64.2 1342.35 65.8 1342.35 67.8C1342.35 69.8 1342.39 71.4 1342.47 72.6C1342.63 77.32 1343.71 80.92 1345.71 83.4C1347.79 85.8 1350.79 87 1354.71 87ZM1399.8 99C1398.92 99 1398.2 98.72 1397.64 98.16C1397.08 97.6 1396.8 96.88 1396.8 96V82.56C1396.8 81.68 1397.08 80.96 1397.64 80.4C1398.2 79.84 1398.92 79.56 1399.8 79.56H1413.24C1414.12 79.56 1414.84 79.84 1415.4 80.4C1415.96 80.96 1416.24 81.68 1416.24 82.56V96C1416.24 96.88 1415.96 97.6 1415.4 98.16C1414.84 98.72 1414.12 99 1413.24 99H1399.8ZM33.12 214C31.84 214 30.8 213.68 30 213.04C29.28 212.32 28.76 211.48 28.44 210.52L3.24 133.6C3.16 133.2 3.12 132.84 3.12 132.52C3.12 131.88 3.36 131.32 3.84 130.84C4.32 130.28 4.92 130 5.64 130H18.24C19.44 130 20.36 130.36 21 131.08C21.72 131.72 22.16 132.32 22.32 132.88L41.04 191.56L59.64 132.88C59.88 132.32 60.32 131.72 60.96 131.08C61.6 130.36 62.52 130 63.72 130H76.32C77.04 130 77.64 130.28 78.12 130.84C78.6 131.32 78.84 131.88 78.84 132.52C78.84 132.84 78.8 133.2 78.72 133.6L53.52 210.52C53.28 211.48 52.76 212.32 51.96 213.04C51.24 213.68 50.2 214 48.84 214H33.12ZM100.803 215.2C96.5628 215.2 92.7628 214.4 89.4028 212.8C86.0428 211.12 83.3628 208.88 81.3628 206.08C79.3628 203.28 78.3628 200.16 78.3628 196.72C78.3628 191.04 80.6428 186.56 85.2028 183.28C89.8428 180 95.9228 177.76 103.443 176.56L119.163 174.28V172.12C119.163 169 118.443 166.6 117.003 164.92C115.563 163.24 113.043 162.4 109.443 162.4C106.803 162.4 104.683 162.92 103.083 163.96C101.483 165 100.243 166.36 99.3628 168.04C98.7228 169.08 97.8028 169.6 96.6028 169.6H85.2028C84.3228 169.6 83.6428 169.36 83.1628 168.88C82.6828 168.32 82.4828 167.68 82.5628 166.96C82.5628 165.6 83.0828 164 84.1228 162.16C85.1628 160.32 86.7628 158.52 88.9228 156.76C91.0828 154.92 93.8428 153.4 97.2028 152.2C100.563 151 104.683 150.4 109.563 150.4C114.603 150.4 118.923 151 122.523 152.2C126.123 153.4 129.003 155.08 131.163 157.24C133.323 159.4 134.923 161.92 135.963 164.8C137.003 167.6 137.523 170.64 137.523 173.92V211C137.523 211.88 137.243 212.6 136.683 213.16C136.123 213.72 135.403 214 134.523 214H122.763C121.963 214 121.283 213.72 120.723 213.16C120.163 212.6 119.883 211.88 119.883 211V206.56C118.843 208.08 117.443 209.52 115.683 210.88C113.923 212.16 111.803 213.2 109.323 214C106.923 214.8 104.083 215.2 100.803 215.2ZM105.603 202.72C108.243 202.72 110.603 202.16 112.683 201.04C114.763 199.92 116.403 198.2 117.603 195.88C118.803 193.56 119.403 190.64 119.403 187.12V185.08L108.243 186.88C103.923 187.6 100.763 188.68 98.7628 190.12C96.7628 191.56 95.7628 193.32 95.7628 195.4C95.7628 196.92 96.2028 198.24 97.0828 199.36C98.0428 200.48 99.2828 201.32 100.803 201.88C102.323 202.44 103.923 202.72 105.603 202.72ZM154.932 214C154.132 214 153.452 213.72 152.892 213.16C152.332 212.6 152.052 211.88 152.052 211V154.6C152.052 153.72 152.332 153 152.892 152.44C153.452 151.88 154.132 151.6 154.932 151.6H166.092C166.892 151.6 167.572 151.88 168.132 152.44C168.772 153 169.092 153.72 169.092 154.6V158.68C170.692 156.44 172.892 154.52 175.692 152.92C178.572 151.32 181.972 150.48 185.892 150.4C195.172 150.24 201.532 153.76 204.972 160.96C206.812 157.84 209.452 155.32 212.892 153.4C216.412 151.4 220.252 150.4 224.412 150.4C228.572 150.4 232.332 151.36 235.692 153.28C239.052 155.12 241.692 158 243.612 161.92C245.612 165.76 246.612 170.72 246.612 176.8V211C246.612 211.88 246.332 212.6 245.772 213.16C245.212 213.72 244.532 214 243.732 214H231.852C231.052 214 230.372 213.72 229.812 213.16C229.252 212.6 228.972 211.88 228.972 211V177.76C228.972 174.48 228.492 171.92 227.532 170.08C226.572 168.16 225.292 166.8 223.692 166C222.172 165.2 220.452 164.8 218.532 164.8C216.852 164.8 215.212 165.2 213.612 166C212.092 166.8 210.812 168.16 209.772 170.08C208.812 171.92 208.332 174.48 208.332 177.76V211C208.332 211.88 208.052 212.6 207.492 213.16C206.932 213.72 206.212 214 205.332 214H193.572C192.692 214 191.972 213.72 191.412 213.16C190.852 212.6 190.572 211.88 190.572 211V177.76C190.572 174.48 190.092 171.92 189.132 170.08C188.172 168.16 186.892 166.8 185.292 166C183.772 165.2 182.092 164.8 180.252 164.8C178.572 164.8 176.932 165.24 175.332 166.12C173.732 166.92 172.412 168.24 171.372 170.08C170.412 171.92 169.932 174.44 169.932 177.64V211C169.932 211.88 169.652 212.6 169.092 213.16C168.532 213.72 167.852 214 167.052 214H154.932ZM289.714 215.2C283.074 215.2 277.514 214.12 273.034 211.96C268.554 209.72 265.114 206.56 262.714 202.48C260.394 198.4 259.114 193.64 258.874 188.2C258.794 186.6 258.754 184.8 258.754 182.8C258.754 180.72 258.794 178.92 258.874 177.4C259.114 171.88 260.474 167.12 262.954 163.12C265.434 159.04 268.914 155.92 273.394 153.76C277.874 151.52 283.314 150.4 289.714 150.4C296.034 150.4 301.434 151.52 305.914 153.76C310.394 155.92 313.874 159.04 316.354 163.12C318.834 167.12 320.194 171.88 320.434 177.4C320.594 178.92 320.674 180.72 320.674 182.8C320.674 184.8 320.594 186.6 320.434 188.2C320.194 193.64 318.874 198.4 316.474 202.48C314.154 206.56 310.754 209.72 306.274 211.96C301.794 214.12 296.274 215.2 289.714 215.2ZM289.714 202C293.634 202 296.594 200.8 298.594 198.4C300.594 195.92 301.674 192.32 301.834 187.6C301.914 186.4 301.954 184.8 301.954 182.8C301.954 180.8 301.914 179.2 301.834 178C301.674 173.36 300.594 169.8 298.594 167.32C296.594 164.84 293.634 163.6 289.714 163.6C285.794 163.6 282.794 164.84 280.714 167.32C278.714 169.8 277.634 173.36 277.474 178C277.394 179.2 277.354 180.8 277.354 182.8C277.354 184.8 277.394 186.4 277.474 187.6C277.634 192.32 278.714 195.92 280.714 198.4C282.794 200.8 285.794 202 289.714 202ZM357.824 215.2C352.864 215.2 348.584 214.64 344.984 213.52C341.464 212.32 338.584 210.88 336.344 209.2C334.184 207.52 332.544 205.84 331.424 204.16C330.384 202.4 329.824 200.92 329.744 199.72C329.664 198.84 329.944 198.12 330.584 197.56C331.224 197 331.864 196.72 332.504 196.72H344.144C344.384 196.72 344.624 196.76 344.864 196.84C345.104 196.92 345.344 197.12 345.584 197.44C346.624 198.16 347.704 199 348.824 199.96C349.944 200.84 351.224 201.6 352.664 202.24C354.184 202.88 356.064 203.2 358.304 203.2C360.944 203.2 363.184 202.68 365.024 201.64C366.864 200.52 367.784 198.96 367.784 196.96C367.784 195.52 367.344 194.32 366.464 193.36C365.664 192.4 364.104 191.52 361.784 190.72C359.464 189.92 356.024 189.04 351.464 188.08C347.144 187.12 343.464 185.84 340.424 184.24C337.384 182.64 335.104 180.64 333.584 178.24C332.064 175.76 331.304 172.8 331.304 169.36C331.304 166.24 332.264 163.24 334.184 160.36C336.184 157.48 339.104 155.12 342.944 153.28C346.784 151.36 351.584 150.4 357.344 150.4C361.744 150.4 365.584 150.96 368.864 152.08C372.224 153.12 375.024 154.48 377.264 156.16C379.504 157.76 381.184 159.44 382.304 161.2C383.504 162.88 384.144 164.36 384.224 165.64C384.304 166.44 384.064 167.12 383.504 167.68C382.944 168.24 382.304 168.52 381.584 168.52H370.904C370.504 168.52 370.144 168.48 369.824 168.4C369.504 168.24 369.224 168.04 368.984 167.8C368.024 167.16 367.024 166.44 365.984 165.64C365.024 164.76 363.864 164 362.504 163.36C361.144 162.72 359.384 162.4 357.224 162.4C354.584 162.4 352.544 163 351.104 164.2C349.744 165.32 349.064 166.76 349.064 168.52C349.064 169.64 349.424 170.68 350.144 171.64C350.864 172.6 352.344 173.48 354.584 174.28C356.824 175.08 360.224 175.92 364.784 176.8C370.224 177.76 374.544 179.2 377.744 181.12C380.944 183.04 383.224 185.28 384.584 187.84C386.024 190.32 386.744 193 386.744 195.88C386.744 199.64 385.624 203 383.384 205.96C381.144 208.84 377.864 211.12 373.544 212.8C369.304 214.4 364.064 215.2 357.824 215.2ZM427.628 214C426.828 214 426.148 213.72 425.588 213.16C425.028 212.6 424.748 211.88 424.748 211V154.6C424.748 153.72 425.028 153 425.588 152.44C426.148 151.88 426.828 151.6 427.628 151.6H439.628C440.508 151.6 441.228 151.88 441.788 152.44C442.348 153 442.628 153.72 442.628 154.6V211C442.628 211.88 442.348 212.6 441.788 213.16C441.228 213.72 440.508 214 439.628 214H427.628ZM427.268 142C426.468 142 425.788 141.72 425.228 141.16C424.668 140.6 424.388 139.88 424.388 139V129.4C424.388 128.52 424.668 127.8 425.228 127.24C425.788 126.6 426.468 126.28 427.268 126.28H439.868C440.748 126.28 441.468 126.6 442.028 127.24C442.668 127.8 442.988 128.52 442.988 129.4V139C442.988 139.88 442.668 140.6 442.028 141.16C441.468 141.72 440.748 142 439.868 142H427.268ZM460.557 214C459.757 214 459.077 213.72 458.517 213.16C457.957 212.6 457.677 211.88 457.677 211V154.6C457.677 153.72 457.957 153 458.517 152.44C459.077 151.88 459.757 151.6 460.557 151.6H471.717C472.517 151.6 473.197 151.88 473.757 152.44C474.397 153 474.717 153.72 474.717 154.6V158.68C476.317 156.44 478.517 154.52 481.317 152.92C484.197 151.32 487.597 150.48 491.517 150.4C500.797 150.24 507.157 153.76 510.597 160.96C512.437 157.84 515.077 155.32 518.517 153.4C522.037 151.4 525.877 150.4 530.037 150.4C534.197 150.4 537.957 151.36 541.317 153.28C544.677 155.12 547.317 158 549.237 161.92C551.237 165.76 552.237 170.72 552.237 176.8V211C552.237 211.88 551.957 212.6 551.397 213.16C550.837 213.72 550.157 214 549.357 214H537.477C536.677 214 535.997 213.72 535.437 213.16C534.877 212.6 534.597 211.88 534.597 211V177.76C534.597 174.48 534.117 171.92 533.157 170.08C532.197 168.16 530.917 166.8 529.317 166C527.797 165.2 526.077 164.8 524.157 164.8C522.477 164.8 520.837 165.2 519.237 166C517.717 166.8 516.437 168.16 515.397 170.08C514.437 171.92 513.957 174.48 513.957 177.76V211C513.957 211.88 513.677 212.6 513.117 213.16C512.557 213.72 511.837 214 510.957 214H499.197C498.317 214 497.597 213.72 497.037 213.16C496.477 212.6 496.197 211.88 496.197 211V177.76C496.197 174.48 495.717 171.92 494.757 170.08C493.797 168.16 492.517 166.8 490.917 166C489.397 165.2 487.717 164.8 485.877 164.8C484.197 164.8 482.557 165.24 480.957 166.12C479.357 166.92 478.037 168.24 476.997 170.08C476.037 171.92 475.557 174.44 475.557 177.64V211C475.557 211.88 475.277 212.6 474.717 213.16C474.157 213.72 473.477 214 472.677 214H460.557ZM569.779 236.8C568.899 236.8 568.179 236.52 567.619 235.96C567.059 235.4 566.779 234.68 566.779 233.8V154.6C566.779 153.72 567.059 153 567.619 152.44C568.179 151.88 568.899 151.6 569.779 151.6H581.179C582.059 151.6 582.779 151.88 583.339 152.44C583.899 153 584.179 153.72 584.179 154.6V159.16C586.099 156.6 588.579 154.52 591.619 152.92C594.659 151.24 598.459 150.4 603.019 150.4C607.179 150.4 610.779 151.08 613.819 152.44C616.939 153.72 619.539 155.6 621.619 158.08C623.779 160.48 625.419 163.4 626.539 166.84C627.739 170.28 628.419 174.16 628.579 178.48C628.659 180 628.699 181.44 628.699 182.8C628.699 184.16 628.659 185.64 628.579 187.24C628.499 191.32 627.859 195.08 626.659 198.52C625.539 201.96 623.899 204.92 621.739 207.4C619.579 209.88 616.939 211.8 613.819 213.16C610.779 214.52 607.179 215.2 603.019 215.2C598.939 215.2 595.379 214.48 592.339 213.04C589.379 211.52 586.939 209.48 585.019 206.92V233.8C585.019 234.68 584.739 235.4 584.179 235.96C583.619 236.52 582.939 236.8 582.139 236.8H569.779ZM597.619 200.8C600.659 200.8 603.059 200.16 604.819 198.88C606.579 197.52 607.819 195.76 608.539 193.6C609.339 191.44 609.819 189.08 609.979 186.52C610.139 184.04 610.139 181.56 609.979 179.08C609.819 176.52 609.339 174.16 608.539 172C607.819 169.84 606.579 168.12 604.819 166.84C603.059 165.48 600.659 164.8 597.619 164.8C594.659 164.8 592.259 165.48 590.419 166.84C588.579 168.2 587.259 169.92 586.459 172C585.659 174.08 585.179 176.32 585.019 178.72C584.939 180.16 584.899 181.64 584.899 183.16C584.899 184.68 584.939 186.2 585.019 187.72C585.099 189.96 585.579 192.08 586.459 194.08C587.419 196 588.779 197.6 590.539 198.88C592.379 200.16 594.739 200.8 597.619 200.8ZM659.787 215.2C655.547 215.2 651.747 214.4 648.387 212.8C645.027 211.12 642.347 208.88 640.347 206.08C638.347 203.28 637.347 200.16 637.347 196.72C637.347 191.04 639.627 186.56 644.187 183.28C648.827 180 654.907 177.76 662.427 176.56L678.147 174.28V172.12C678.147 169 677.427 166.6 675.987 164.92C674.547 163.24 672.027 162.4 668.427 162.4C665.787 162.4 663.667 162.92 662.067 163.96C660.467 165 659.227 166.36 658.347 168.04C657.707 169.08 656.787 169.6 655.587 169.6H644.187C643.307 169.6 642.627 169.36 642.147 168.88C641.667 168.32 641.467 167.68 641.547 166.96C641.547 165.6 642.067 164 643.107 162.16C644.147 160.32 645.747 158.52 647.907 156.76C650.067 154.92 652.827 153.4 656.187 152.2C659.547 151 663.667 150.4 668.547 150.4C673.587 150.4 677.907 151 681.507 152.2C685.107 153.4 687.987 155.08 690.147 157.24C692.307 159.4 693.907 161.92 694.947 164.8C695.987 167.6 696.507 170.64 696.507 173.92V211C696.507 211.88 696.227 212.6 695.667 213.16C695.107 213.72 694.387 214 693.507 214H681.747C680.947 214 680.267 213.72 679.707 213.16C679.147 212.6 678.867 211.88 678.867 211V206.56C677.827 208.08 676.427 209.52 674.667 210.88C672.907 212.16 670.787 213.2 668.307 214C665.907 214.8 663.067 215.2 659.787 215.2ZM664.587 202.72C667.227 202.72 669.587 202.16 671.667 201.04C673.747 199.92 675.387 198.2 676.587 195.88C677.787 193.56 678.387 190.64 678.387 187.12V185.08L667.227 186.88C662.907 187.6 659.747 188.68 657.747 190.12C655.747 191.56 654.747 193.32 654.747 195.4C654.747 196.92 655.187 198.24 656.067 199.36C657.027 200.48 658.267 201.32 659.787 201.88C661.307 202.44 662.907 202.72 664.587 202.72ZM738.757 215.2C732.917 215.2 727.757 214.12 723.277 211.96C718.877 209.8 715.397 206.68 712.837 202.6C710.277 198.44 708.877 193.48 708.637 187.72C708.557 186.44 708.517 184.84 708.517 182.92C708.517 180.92 708.557 179.28 708.637 178C708.877 172.16 710.237 167.2 712.717 163.12C715.277 158.96 718.797 155.8 723.277 153.64C727.757 151.48 732.917 150.4 738.757 150.4C744.117 150.4 748.677 151.16 752.437 152.68C756.197 154.12 759.277 155.96 761.677 158.2C764.077 160.44 765.837 162.8 766.957 165.28C768.157 167.68 768.797 169.8 768.877 171.64C768.957 172.44 768.677 173.16 768.037 173.8C767.477 174.36 766.797 174.64 765.997 174.64H753.157C752.357 174.64 751.717 174.44 751.237 174.04C750.837 173.56 750.437 172.92 750.037 172.12C748.917 169.32 747.477 167.32 745.717 166.12C743.957 164.92 741.757 164.32 739.117 164.32C735.517 164.32 732.677 165.48 730.597 167.8C728.517 170.12 727.397 173.72 727.237 178.6C727.157 181.72 727.157 184.56 727.237 187.12C727.477 192.08 728.597 195.68 730.597 197.92C732.677 200.16 735.517 201.28 739.117 201.28C741.917 201.28 744.157 200.68 745.837 199.48C747.517 198.28 748.917 196.28 750.037 193.48C750.357 192.68 750.757 192.08 751.237 191.68C751.717 191.2 752.357 190.96 753.157 190.96H765.997C766.797 190.96 767.477 191.28 768.037 191.92C768.677 192.48 768.957 193.16 768.877 193.96C768.797 195.32 768.397 196.92 767.677 198.76C767.037 200.6 765.957 202.48 764.437 204.4C762.997 206.32 761.117 208.12 758.797 209.8C756.477 211.4 753.637 212.72 750.277 213.76C746.997 214.72 743.157 215.2 738.757 215.2ZM810.646 214C805.686 214 801.446 213.2 797.926 211.6C794.406 209.92 791.726 207.36 789.886 203.92C788.126 200.48 787.246 196.16 787.246 190.96V165.76H777.886C777.006 165.76 776.286 165.48 775.726 164.92C775.166 164.36 774.886 163.64 774.886 162.76V154.6C774.886 153.72 775.166 153 775.726 152.44C776.286 151.88 777.006 151.6 777.886 151.6H787.246V131.8C787.246 130.92 787.526 130.2 788.086 129.64C788.726 129.08 789.446 128.8 790.246 128.8H802.006C802.886 128.8 803.606 129.08 804.166 129.64C804.726 130.2 805.006 130.92 805.006 131.8V151.6H820.006C820.806 151.6 821.486 151.88 822.046 152.44C822.606 153 822.886 153.72 822.886 154.6V162.76C822.886 163.64 822.606 164.36 822.046 164.92C821.486 165.48 820.806 165.76 820.006 165.76H805.006V189.52C805.006 192.56 805.526 194.96 806.566 196.72C807.686 198.4 809.606 199.24 812.326 199.24H821.086C821.886 199.24 822.566 199.52 823.126 200.08C823.686 200.64 823.966 201.32 823.966 202.12V211C823.966 211.88 823.686 212.6 823.126 213.16C822.566 213.72 821.886 214 821.086 214H810.646ZM852.795 215.2C848.555 215.2 844.755 214.4 841.395 212.8C838.035 211.12 835.355 208.88 833.355 206.08C831.355 203.28 830.355 200.16 830.355 196.72C830.355 191.04 832.635 186.56 837.195 183.28C841.835 180 847.915 177.76 855.435 176.56L871.155 174.28V172.12C871.155 169 870.435 166.6 868.995 164.92C867.555 163.24 865.035 162.4 861.435 162.4C858.795 162.4 856.675 162.92 855.075 163.96C853.475 165 852.235 166.36 851.355 168.04C850.715 169.08 849.795 169.6 848.595 169.6H837.195C836.315 169.6 835.635 169.36 835.155 168.88C834.675 168.32 834.475 167.68 834.555 166.96C834.555 165.6 835.075 164 836.115 162.16C837.155 160.32 838.755 158.52 840.915 156.76C843.075 154.92 845.835 153.4 849.195 152.2C852.555 151 856.675 150.4 861.555 150.4C866.595 150.4 870.915 151 874.515 152.2C878.115 153.4 880.995 155.08 883.155 157.24C885.315 159.4 886.915 161.92 887.955 164.8C888.995 167.6 889.515 170.64 889.515 173.92V211C889.515 211.88 889.235 212.6 888.675 213.16C888.115 213.72 887.395 214 886.515 214H874.755C873.955 214 873.275 213.72 872.715 213.16C872.155 212.6 871.875 211.88 871.875 211V206.56C870.835 208.08 869.435 209.52 867.675 210.88C865.915 212.16 863.795 213.2 861.315 214C858.915 214.8 856.075 215.2 852.795 215.2ZM857.595 202.72C860.235 202.72 862.595 202.16 864.675 201.04C866.755 199.92 868.395 198.2 869.595 195.88C870.795 193.56 871.395 190.64 871.395 187.12V185.08L860.235 186.88C855.915 187.6 852.755 188.68 850.755 190.12C848.755 191.56 847.755 193.32 847.755 195.4C847.755 196.92 848.195 198.24 849.075 199.36C850.035 200.48 851.275 201.32 852.795 201.88C854.315 202.44 855.915 202.72 857.595 202.72ZM906.924 214C906.124 214 905.444 213.72 904.884 213.16C904.324 212.6 904.044 211.88 904.044 211V154.6C904.044 153.8 904.324 153.12 904.884 152.56C905.444 151.92 906.124 151.6 906.924 151.6H918.684C919.484 151.6 920.164 151.92 920.724 152.56C921.364 153.12 921.684 153.8 921.684 154.6V159.4C923.684 156.92 926.124 155 929.004 153.64C931.964 152.28 935.364 151.6 939.204 151.6H944.364C945.164 151.6 945.844 151.88 946.404 152.44C946.964 153 947.244 153.72 947.244 154.6V164.92C947.244 165.8 946.964 166.52 946.404 167.08C945.844 167.64 945.164 167.92 944.364 167.92H933.804C930.284 167.92 927.524 168.92 925.524 170.92C923.524 172.84 922.524 175.6 922.524 179.2V211C922.524 211.88 922.244 212.6 921.684 213.16C921.124 213.72 920.404 214 919.524 214H906.924ZM1603.12 214C1602.24 214 1601.52 213.72 1600.96 213.16C1600.4 212.6 1600.12 211.88 1600.12 211V197.56C1600.12 196.68 1600.4 195.96 1600.96 195.4C1601.52 194.84 1602.24 194.56 1603.12 194.56H1616.56C1617.44 194.56 1618.16 194.84 1618.72 195.4C1619.28 195.96 1619.56 196.68 1619.56 197.56V211C1619.56 211.88 1619.28 212.6 1618.72 213.16C1618.16 213.72 1617.44 214 1616.56 214H1603.12Z" fill="#6D2E46"/>
<path d="M983.216 214C982.336 214 981.616 213.72 981.056 213.16C980.496 212.6 980.216 211.88 980.216 211V131.8C980.216 130.92 980.496 130.2 981.056 129.64C981.616 129.08 982.336 128.8 983.216 128.8H995.216C996.016 128.8 996.696 129.08 997.256 129.64C997.816 130.2 998.096 130.92 998.096 131.8V211C998.096 211.88 997.816 212.6 997.256 213.16C996.696 213.72 996.016 214 995.216 214H983.216ZM1031.62 215.2C1027.38 215.2 1023.58 214.4 1020.22 212.8C1016.86 211.12 1014.18 208.88 1012.18 206.08C1010.18 203.28 1009.18 200.16 1009.18 196.72C1009.18 191.04 1011.46 186.56 1016.02 183.28C1020.66 180 1026.74 177.76 1034.26 176.56L1049.98 174.28V172.12C1049.98 169 1049.26 166.6 1047.82 164.92C1046.38 163.24 1043.86 162.4 1040.26 162.4C1037.62 162.4 1035.5 162.92 1033.9 163.96C1032.3 165 1031.06 166.36 1030.18 168.04C1029.54 169.08 1028.62 169.6 1027.42 169.6H1016.02C1015.14 169.6 1014.46 169.36 1013.98 168.88C1013.5 168.32 1013.3 167.68 1013.38 166.96C1013.38 165.6 1013.9 164 1014.94 162.16C1015.98 160.32 1017.58 158.52 1019.74 156.76C1021.9 154.92 1024.66 153.4 1028.02 152.2C1031.38 151 1035.5 150.4 1040.38 150.4C1045.42 150.4 1049.74 151 1053.34 152.2C1056.94 153.4 1059.82 155.08 1061.98 157.24C1064.14 159.4 1065.74 161.92 1066.78 164.8C1067.82 167.6 1068.34 170.64 1068.34 173.92V211C1068.34 211.88 1068.06 212.6 1067.5 213.16C1066.94 213.72 1066.22 214 1065.34 214H1053.58C1052.78 214 1052.1 213.72 1051.54 213.16C1050.98 212.6 1050.7 211.88 1050.7 211V206.56C1049.66 208.08 1048.26 209.52 1046.5 210.88C1044.74 212.16 1042.62 213.2 1040.14 214C1037.74 214.8 1034.9 215.2 1031.62 215.2ZM1036.42 202.72C1039.06 202.72 1041.42 202.16 1043.5 201.04C1045.58 199.92 1047.22 198.2 1048.42 195.88C1049.62 193.56 1050.22 190.64 1050.22 187.12V185.08L1039.06 186.88C1034.74 187.6 1031.58 188.68 1029.58 190.12C1027.58 191.56 1026.58 193.32 1026.58 195.4C1026.58 196.92 1027.02 198.24 1027.9 199.36C1028.86 200.48 1030.1 201.32 1031.62 201.88C1033.14 202.44 1034.74 202.72 1036.42 202.72ZM1106.03 215.2C1102.03 215.2 1098.47 214.56 1095.35 213.28C1092.23 211.92 1089.59 210 1087.43 207.52C1085.27 204.96 1083.63 201.96 1082.51 198.52C1081.39 195 1080.71 191.12 1080.47 186.88C1080.39 185.36 1080.35 184 1080.35 182.8C1080.35 181.52 1080.39 180.16 1080.47 178.72C1080.63 174.56 1081.27 170.76 1082.39 167.32C1083.59 163.88 1085.23 160.92 1087.31 158.44C1089.47 155.88 1092.11 153.92 1095.23 152.56C1098.43 151.12 1102.03 150.4 1106.03 150.4C1110.19 150.4 1113.75 151.12 1116.71 152.56C1119.67 153.92 1122.11 155.72 1124.03 157.96V131.8C1124.03 130.92 1124.31 130.2 1124.87 129.64C1125.43 129.08 1126.15 128.8 1127.03 128.8H1139.39C1140.19 128.8 1140.87 129.08 1141.43 129.64C1141.99 130.2 1142.27 130.92 1142.27 131.8V211C1142.27 211.88 1141.99 212.6 1141.43 213.16C1140.87 213.72 1140.19 214 1139.39 214H1127.87C1127.07 214 1126.39 213.72 1125.83 213.16C1125.27 212.6 1124.99 211.88 1124.99 211V206.92C1122.99 209.32 1120.47 211.32 1117.43 212.92C1114.39 214.44 1110.59 215.2 1106.03 215.2ZM1111.55 200.8C1114.51 200.8 1116.87 200.12 1118.63 198.76C1120.47 197.4 1121.79 195.68 1122.59 193.6C1123.47 191.52 1123.95 189.28 1124.03 186.88C1124.19 185.36 1124.27 183.84 1124.27 182.32C1124.27 180.8 1124.19 179.32 1124.03 177.88C1123.95 175.64 1123.47 173.56 1122.59 171.64C1121.71 169.64 1120.35 168 1118.51 166.72C1116.75 165.44 1114.43 164.8 1111.55 164.8C1108.51 164.8 1106.11 165.48 1104.35 166.84C1102.59 168.12 1101.31 169.84 1100.51 172C1099.79 174.16 1099.35 176.52 1099.19 179.08C1098.95 181.56 1098.95 184.04 1099.19 186.52C1099.35 189.08 1099.79 191.44 1100.51 193.6C1101.31 195.76 1102.59 197.52 1104.35 198.88C1106.11 200.16 1108.51 200.8 1111.55 200.8ZM1186.08 215.2C1179.44 215.2 1173.88 214.12 1169.4 211.96C1164.92 209.72 1161.48 206.56 1159.08 202.48C1156.76 198.4 1155.48 193.64 1155.24 188.2C1155.16 186.6 1155.12 184.8 1155.12 182.8C1155.12 180.72 1155.16 178.92 1155.24 177.4C1155.48 171.88 1156.84 167.12 1159.32 163.12C1161.8 159.04 1165.28 155.92 1169.76 153.76C1174.24 151.52 1179.68 150.4 1186.08 150.4C1192.4 150.4 1197.8 151.52 1202.28 153.76C1206.76 155.92 1210.24 159.04 1212.72 163.12C1215.2 167.12 1216.56 171.88 1216.8 177.4C1216.96 178.92 1217.04 180.72 1217.04 182.8C1217.04 184.8 1216.96 186.6 1216.8 188.2C1216.56 193.64 1215.24 198.4 1212.84 202.48C1210.52 206.56 1207.12 209.72 1202.64 211.96C1198.16 214.12 1192.64 215.2 1186.08 215.2ZM1186.08 202C1190 202 1192.96 200.8 1194.96 198.4C1196.96 195.92 1198.04 192.32 1198.2 187.6C1198.28 186.4 1198.32 184.8 1198.32 182.8C1198.32 180.8 1198.28 179.2 1198.2 178C1198.04 173.36 1196.96 169.8 1194.96 167.32C1192.96 164.84 1190 163.6 1186.08 163.6C1182.16 163.6 1179.16 164.84 1177.08 167.32C1175.08 169.8 1174 173.36 1173.84 178C1173.76 179.2 1173.72 180.8 1173.72 182.8C1173.72 184.8 1173.76 186.4 1173.84 187.6C1174 192.32 1175.08 195.92 1177.08 198.4C1179.16 200.8 1182.16 202 1186.08 202ZM1274.44 215.2C1270.2 215.2 1266.4 214.4 1263.04 212.8C1259.68 211.12 1257 208.88 1255 206.08C1253 203.28 1252 200.16 1252 196.72C1252 191.04 1254.28 186.56 1258.84 183.28C1263.48 180 1269.56 177.76 1277.08 176.56L1292.8 174.28V172.12C1292.8 169 1292.08 166.6 1290.64 164.92C1289.2 163.24 1286.68 162.4 1283.08 162.4C1280.44 162.4 1278.32 162.92 1276.72 163.96C1275.12 165 1273.88 166.36 1273 168.04C1272.36 169.08 1271.44 169.6 1270.24 169.6H1258.84C1257.96 169.6 1257.28 169.36 1256.8 168.88C1256.32 168.32 1256.12 167.68 1256.2 166.96C1256.2 165.6 1256.72 164 1257.76 162.16C1258.8 160.32 1260.4 158.52 1262.56 156.76C1264.72 154.92 1267.48 153.4 1270.84 152.2C1274.2 151 1278.32 150.4 1283.2 150.4C1288.24 150.4 1292.56 151 1296.16 152.2C1299.76 153.4 1302.64 155.08 1304.8 157.24C1306.96 159.4 1308.56 161.92 1309.6 164.8C1310.64 167.6 1311.16 170.64 1311.16 173.92V211C1311.16 211.88 1310.88 212.6 1310.32 213.16C1309.76 213.72 1309.04 214 1308.16 214H1296.4C1295.6 214 1294.92 213.72 1294.36 213.16C1293.8 212.6 1293.52 211.88 1293.52 211V206.56C1292.48 208.08 1291.08 209.52 1289.32 210.88C1287.56 212.16 1285.44 213.2 1282.96 214C1280.56 214.8 1277.72 215.2 1274.44 215.2ZM1279.24 202.72C1281.88 202.72 1284.24 202.16 1286.32 201.04C1288.4 199.92 1290.04 198.2 1291.24 195.88C1292.44 193.56 1293.04 190.64 1293.04 187.12V185.08L1281.88 186.88C1277.56 187.6 1274.4 188.68 1272.4 190.12C1270.4 191.56 1269.4 193.32 1269.4 195.4C1269.4 196.92 1269.84 198.24 1270.72 199.36C1271.68 200.48 1272.92 201.32 1274.44 201.88C1275.96 202.44 1277.56 202.72 1279.24 202.72ZM1355.17 214C1354.29 214 1353.57 213.72 1353.01 213.16C1352.45 212.6 1352.17 211.88 1352.17 211V131.8C1352.17 130.92 1352.45 130.2 1353.01 129.64C1353.57 129.08 1354.29 128.8 1355.17 128.8H1367.17C1367.97 128.8 1368.65 129.08 1369.21 129.64C1369.77 130.2 1370.05 130.92 1370.05 131.8V211C1370.05 211.88 1369.77 212.6 1369.21 213.16C1368.65 213.72 1367.97 214 1367.17 214H1355.17ZM1403.58 215.2C1399.34 215.2 1395.54 214.4 1392.18 212.8C1388.82 211.12 1386.14 208.88 1384.14 206.08C1382.14 203.28 1381.14 200.16 1381.14 196.72C1381.14 191.04 1383.42 186.56 1387.98 183.28C1392.62 180 1398.7 177.76 1406.22 176.56L1421.94 174.28V172.12C1421.94 169 1421.22 166.6 1419.78 164.92C1418.34 163.24 1415.82 162.4 1412.22 162.4C1409.58 162.4 1407.46 162.92 1405.86 163.96C1404.26 165 1403.02 166.36 1402.14 168.04C1401.5 169.08 1400.58 169.6 1399.38 169.6H1387.98C1387.1 169.6 1386.42 169.36 1385.94 168.88C1385.46 168.32 1385.26 167.68 1385.34 166.96C1385.34 165.6 1385.86 164 1386.9 162.16C1387.94 160.32 1389.54 158.52 1391.7 156.76C1393.86 154.92 1396.62 153.4 1399.98 152.2C1403.34 151 1407.46 150.4 1412.34 150.4C1417.38 150.4 1421.7 151 1425.3 152.2C1428.9 153.4 1431.78 155.08 1433.94 157.24C1436.1 159.4 1437.7 161.92 1438.74 164.8C1439.78 167.6 1440.3 170.64 1440.3 173.92V211C1440.3 211.88 1440.02 212.6 1439.46 213.16C1438.9 213.72 1438.18 214 1437.3 214H1425.54C1424.74 214 1424.06 213.72 1423.5 213.16C1422.94 212.6 1422.66 211.88 1422.66 211V206.56C1421.62 208.08 1420.22 209.52 1418.46 210.88C1416.7 212.16 1414.58 213.2 1412.1 214C1409.7 214.8 1406.86 215.2 1403.58 215.2ZM1408.38 202.72C1411.02 202.72 1413.38 202.16 1415.46 201.04C1417.54 199.92 1419.18 198.2 1420.38 195.88C1421.58 193.56 1422.18 190.64 1422.18 187.12V185.08L1411.02 186.88C1406.7 187.6 1403.54 188.68 1401.54 190.12C1399.54 191.56 1398.54 193.32 1398.54 195.4C1398.54 196.92 1398.98 198.24 1399.86 199.36C1400.82 200.48 1402.06 201.32 1403.58 201.88C1405.1 202.44 1406.7 202.72 1408.38 202.72ZM1477.99 215.2C1473.99 215.2 1470.43 214.56 1467.31 213.28C1464.19 211.92 1461.55 210 1459.39 207.52C1457.23 204.96 1455.59 201.96 1454.47 198.52C1453.35 195 1452.67 191.12 1452.43 186.88C1452.35 185.36 1452.31 184 1452.31 182.8C1452.31 181.52 1452.35 180.16 1452.43 178.72C1452.59 174.56 1453.23 170.76 1454.35 167.32C1455.55 163.88 1457.19 160.92 1459.27 158.44C1461.43 155.88 1464.07 153.92 1467.19 152.56C1470.39 151.12 1473.99 150.4 1477.99 150.4C1482.15 150.4 1485.71 151.12 1488.67 152.56C1491.63 153.92 1494.07 155.72 1495.99 157.96V131.8C1495.99 130.92 1496.27 130.2 1496.83 129.64C1497.39 129.08 1498.11 128.8 1498.99 128.8H1511.35C1512.15 128.8 1512.83 129.08 1513.39 129.64C1513.95 130.2 1514.23 130.92 1514.23 131.8V211C1514.23 211.88 1513.95 212.6 1513.39 213.16C1512.83 213.72 1512.15 214 1511.35 214H1499.83C1499.03 214 1498.35 213.72 1497.79 213.16C1497.23 212.6 1496.95 211.88 1496.95 211V206.92C1494.95 209.32 1492.43 211.32 1489.39 212.92C1486.35 214.44 1482.55 215.2 1477.99 215.2ZM1483.51 200.8C1486.47 200.8 1488.83 200.12 1490.59 198.76C1492.43 197.4 1493.75 195.68 1494.55 193.6C1495.43 191.52 1495.91 189.28 1495.99 186.88C1496.15 185.36 1496.23 183.84 1496.23 182.32C1496.23 180.8 1496.15 179.32 1495.99 177.88C1495.91 175.64 1495.43 173.56 1494.55 171.64C1493.67 169.64 1492.31 168 1490.47 166.72C1488.71 165.44 1486.39 164.8 1483.51 164.8C1480.47 164.8 1478.07 165.48 1476.31 166.84C1474.55 168.12 1473.27 169.84 1472.47 172C1471.75 174.16 1471.31 176.52 1471.15 179.08C1470.91 181.56 1470.91 184.04 1471.15 186.52C1471.31 189.08 1471.75 191.44 1472.47 193.6C1473.27 195.76 1474.55 197.52 1476.31 198.88C1478.07 200.16 1480.47 200.8 1483.51 200.8ZM1558.03 215.2C1551.39 215.2 1545.83 214.12 1541.35 211.96C1536.87 209.72 1533.43 206.56 1531.03 202.48C1528.71 198.4 1527.43 193.64 1527.19 188.2C1527.11 186.6 1527.07 184.8 1527.07 182.8C1527.07 180.72 1527.11 178.92 1527.19 177.4C1527.43 171.88 1528.79 167.12 1531.27 163.12C1533.75 159.04 1537.23 155.92 1541.71 153.76C1546.19 151.52 1551.63 150.4 1558.03 150.4C1564.35 150.4 1569.75 151.52 1574.23 153.76C1578.71 155.92 1582.19 159.04 1584.67 163.12C1587.15 167.12 1588.51 171.88 1588.75 177.4C1588.91 178.92 1588.99 180.72 1588.99 182.8C1588.99 184.8 1588.91 186.6 1588.75 188.2C1588.51 193.64 1587.19 198.4 1584.79 202.48C1582.47 206.56 1579.07 209.72 1574.59 211.96C1570.11 214.12 1564.59 215.2 1558.03 215.2ZM1558.03 202C1561.95 202 1564.91 200.8 1566.91 198.4C1568.91 195.92 1569.99 192.32 1570.15 187.6C1570.23 186.4 1570.27 184.8 1570.27 182.8C1570.27 180.8 1570.23 179.2 1570.15 178C1569.99 173.36 1568.91 169.8 1566.91 167.32C1564.91 164.84 1561.95 163.6 1558.03 163.6C1554.11 163.6 1551.11 164.84 1549.03 167.32C1547.03 169.8 1545.95 173.36 1545.79 178C1545.71 179.2 1545.67 180.8 1545.67 182.8C1545.67 184.8 1545.71 186.4 1545.79 187.6C1545.95 192.32 1547.03 195.92 1549.03 198.4C1551.11 200.8 1554.11 202 1558.03 202Z" fill="#BD4747"/>
</g>
</svg>
