<svg width="1900" height="48" viewBox="0 0 1900 48" fill="none" xmlns="http://www.w3.org/2000/svg">
<path id="N&#195;&#163;o deixes escapar nada..." d="M633.246 41C632.879 41 632.579 40.8833 632.346 40.65C632.113 40.4167 631.996 40.1167 631.996 39.75V7.25C631.996 6.88333 632.113 6.58333 632.346 6.35C632.579 6.11666 632.879 6 633.246 6H637.796C638.296 6 638.663 6.11666 638.896 6.35C639.129 6.58333 639.279 6.76666 639.346 6.9L652.696 27.75V7.25C652.696 6.88333 652.813 6.58333 653.046 6.35C653.279 6.11666 653.563 6 653.896 6H658.996C659.363 6 659.663 6.11666 659.896 6.35C660.129 6.58333 660.246 6.88333 660.246 7.25V39.75C660.246 40.0833 660.129 40.3833 659.896 40.65C659.663 40.8833 659.363 41 658.996 41H654.396C653.896 41 653.529 40.8833 653.296 40.65C653.096 40.3833 652.946 40.2 652.846 40.1L639.546 19.9V39.75C639.546 40.1167 639.429 40.4167 639.196 40.65C638.963 40.8833 638.663 41 638.296 41H633.246ZM674.74 41.5C672.974 41.5 671.39 41.1667 669.99 40.5C668.59 39.8 667.474 38.8667 666.64 37.7C665.807 36.5333 665.39 35.2333 665.39 33.8C665.39 31.4333 666.34 29.5667 668.24 28.2C670.174 26.8333 672.707 25.9 675.84 25.4L682.39 24.45V23.55C682.39 22.25 682.09 21.25 681.49 20.55C680.89 19.85 679.84 19.5 678.34 19.5C677.24 19.5 676.357 19.7167 675.69 20.15C675.024 20.5833 674.507 21.15 674.14 21.85C673.874 22.2833 673.49 22.5 672.99 22.5H668.24C667.874 22.5 667.59 22.4 667.39 22.2C667.19 21.9667 667.107 21.7 667.14 21.4C667.14 20.8333 667.357 20.1667 667.79 19.4C668.224 18.6333 668.89 17.8833 669.79 17.15C670.69 16.3833 671.84 15.75 673.24 15.25C674.64 14.75 676.357 14.5 678.39 14.5C680.49 14.5 682.29 14.75 683.79 15.25C685.29 15.75 686.49 16.45 687.39 17.35C688.29 18.25 688.957 19.3 689.39 20.5C689.824 21.6667 690.04 22.9333 690.04 24.3V39.75C690.04 40.1167 689.924 40.4167 689.69 40.65C689.457 40.8833 689.157 41 688.79 41H683.89C683.557 41 683.274 40.8833 683.04 40.65C682.807 40.4167 682.69 40.1167 682.69 39.75V37.9C682.257 38.5333 681.674 39.1333 680.94 39.7C680.207 40.2333 679.324 40.6667 678.29 41C677.29 41.3333 676.107 41.5 674.74 41.5ZM676.74 36.3C677.84 36.3 678.824 36.0667 679.69 35.6C680.557 35.1333 681.24 34.4167 681.74 33.45C682.24 32.4833 682.49 31.2667 682.49 29.8V28.95L677.84 29.7C676.04 30 674.724 30.45 673.89 31.05C673.057 31.65 672.64 32.3833 672.64 33.25C672.64 33.8833 672.824 34.4333 673.19 34.9C673.59 35.3667 674.107 35.7167 674.74 35.95C675.374 36.1833 676.04 36.3 676.74 36.3ZM681.19 11.5C680.29 11.5 679.557 11.35 678.99 11.05C678.457 10.75 677.957 10.4667 677.49 10.2C677.057 9.9 676.557 9.75 675.99 9.75C675.557 9.75 675.24 9.86667 675.04 10.1C674.84 10.3333 674.657 10.5833 674.49 10.85C674.324 11.1167 674.057 11.25 673.69 11.25H671.04C670.807 11.25 670.607 11.1667 670.44 11C670.274 10.8 670.19 10.6 670.19 10.4C670.19 9.86667 670.274 9.28333 670.44 8.65C670.64 7.98333 670.94 7.35 671.34 6.75C671.774 6.11666 672.324 5.6 672.99 5.2C673.657 4.8 674.457 4.6 675.39 4.6C676.29 4.6 677.024 4.75 677.59 5.05C678.157 5.31667 678.657 5.6 679.09 5.9C679.557 6.2 680.074 6.35 680.64 6.35C681.074 6.35 681.374 6.21667 681.54 5.95C681.74 5.68333 681.924 5.43333 682.09 5.2C682.29 4.93333 682.574 4.8 682.94 4.8H685.54C685.84 4.8 686.057 4.9 686.19 5.1C686.357 5.26666 686.44 5.46666 686.44 5.7C686.44 6.23333 686.34 6.83333 686.14 7.5C685.94 8.13333 685.624 8.76667 685.19 9.4C684.79 10 684.257 10.5 683.59 10.9C682.924 11.3 682.124 11.5 681.19 11.5ZM707.994 41.5C705.228 41.5 702.911 41.05 701.044 40.15C699.178 39.2167 697.744 37.9 696.744 36.2C695.778 34.5 695.244 32.5167 695.144 30.25C695.111 29.5833 695.094 28.8333 695.094 28C695.094 27.1333 695.111 26.3833 695.144 25.75C695.244 23.45 695.811 21.4667 696.844 19.8C697.878 18.1 699.328 16.8 701.194 15.9C703.061 14.9667 705.328 14.5 707.994 14.5C710.628 14.5 712.878 14.9667 714.744 15.9C716.611 16.8 718.061 18.1 719.094 19.8C720.128 21.4667 720.694 23.45 720.794 25.75C720.861 26.3833 720.894 27.1333 720.894 28C720.894 28.8333 720.861 29.5833 720.794 30.25C720.694 32.5167 720.144 34.5 719.144 36.2C718.178 37.9 716.761 39.2167 714.894 40.15C713.028 41.05 710.728 41.5 707.994 41.5ZM707.994 36C709.628 36 710.861 35.5 711.694 34.5C712.528 33.4667 712.978 31.9667 713.044 30C713.078 29.5 713.094 28.8333 713.094 28C713.094 27.1667 713.078 26.5 713.044 26C712.978 24.0667 712.528 22.5833 711.694 21.55C710.861 20.5167 709.628 20 707.994 20C706.361 20 705.111 20.5167 704.244 21.55C703.411 22.5833 702.961 24.0667 702.894 26C702.861 26.5 702.844 27.1667 702.844 28C702.844 28.8333 702.861 29.5 702.894 30C702.961 31.9667 703.411 33.4667 704.244 34.5C705.111 35.5 706.361 36 707.994 36ZM746.809 41.5C745.142 41.5 743.659 41.2333 742.359 40.7C741.059 40.1333 739.959 39.3333 739.059 38.3C738.159 37.2333 737.475 35.9833 737.009 34.55C736.542 33.0833 736.259 31.4667 736.159 29.7C736.125 29.0667 736.109 28.5 736.109 28C736.109 27.4667 736.125 26.9 736.159 26.3C736.225 24.5667 736.492 22.9833 736.959 21.55C737.459 20.1167 738.142 18.8833 739.009 17.85C739.909 16.7833 741.009 15.9667 742.309 15.4C743.642 14.8 745.142 14.5 746.809 14.5C748.542 14.5 750.025 14.8 751.259 15.4C752.492 15.9667 753.509 16.7167 754.309 17.65V6.75C754.309 6.38333 754.425 6.08333 754.659 5.85C754.892 5.61667 755.192 5.5 755.559 5.5H760.709C761.042 5.5 761.325 5.61667 761.559 5.85C761.792 6.08333 761.909 6.38333 761.909 6.75V39.75C761.909 40.1167 761.792 40.4167 761.559 40.65C761.325 40.8833 761.042 41 760.709 41H755.909C755.575 41 755.292 40.8833 755.059 40.65C754.825 40.4167 754.709 40.1167 754.709 39.75V38.05C753.875 39.05 752.825 39.8833 751.559 40.55C750.292 41.1833 748.709 41.5 746.809 41.5ZM749.109 35.5C750.342 35.5 751.325 35.2167 752.059 34.65C752.825 34.0833 753.375 33.3667 753.709 32.5C754.075 31.6333 754.275 30.7 754.309 29.7C754.375 29.0667 754.409 28.4333 754.409 27.8C754.409 27.1667 754.375 26.55 754.309 25.95C754.275 25.0167 754.075 24.15 753.709 23.35C753.342 22.5167 752.775 21.8333 752.009 21.3C751.275 20.7667 750.309 20.5 749.109 20.5C747.842 20.5 746.842 20.7833 746.109 21.35C745.375 21.8833 744.842 22.6 744.509 23.5C744.209 24.4 744.025 25.3833 743.959 26.45C743.859 27.4833 743.859 28.5167 743.959 29.55C744.025 30.6167 744.209 31.6 744.509 32.5C744.842 33.4 745.375 34.1333 746.109 34.7C746.842 35.2333 747.842 35.5 749.109 35.5ZM779.862 41.5C776.029 41.5 772.979 40.4333 770.712 38.3C768.479 36.1667 767.296 33.0667 767.162 29C767.162 28.7333 767.162 28.3833 767.162 27.95C767.162 27.4833 767.162 27.1167 767.162 26.85C767.296 24.2833 767.879 22.0833 768.912 20.25C769.946 18.3833 771.396 16.9667 773.262 16C775.129 15 777.312 14.5 779.812 14.5C782.612 14.5 784.946 15.0833 786.812 16.25C788.712 17.3833 790.129 18.95 791.062 20.95C792.029 22.9167 792.512 25.1833 792.512 27.75V28.9C792.512 29.2333 792.379 29.5167 792.112 29.75C791.879 29.9833 791.596 30.1 791.262 30.1H774.912C774.912 30.1333 774.912 30.2 774.912 30.3C774.912 30.3667 774.912 30.4333 774.912 30.5C774.946 31.5667 775.146 32.55 775.512 33.45C775.912 34.3167 776.462 35.0167 777.162 35.55C777.896 36.0833 778.762 36.35 779.762 36.35C780.596 36.35 781.279 36.2333 781.812 36C782.346 35.7667 782.779 35.4833 783.112 35.15C783.479 34.8167 783.746 34.5333 783.912 34.3C784.212 33.9667 784.446 33.7667 784.612 33.7C784.812 33.6 785.112 33.55 785.512 33.55H790.712C791.046 33.55 791.312 33.65 791.512 33.85C791.746 34.0167 791.846 34.2667 791.812 34.6C791.779 35.1333 791.496 35.8 790.962 36.6C790.462 37.3667 789.712 38.1333 788.712 38.9C787.712 39.6333 786.462 40.25 784.962 40.75C783.496 41.25 781.796 41.5 779.862 41.5ZM774.912 25.55H784.712V25.45C784.712 24.25 784.512 23.2167 784.112 22.35C783.746 21.45 783.196 20.75 782.462 20.25C781.729 19.75 780.846 19.5 779.812 19.5C778.779 19.5 777.896 19.75 777.162 20.25C776.429 20.75 775.862 21.45 775.462 22.35C775.096 23.2167 774.912 24.25 774.912 25.45V25.55ZM798.71 41C798.377 41 798.094 40.8833 797.86 40.65C797.627 40.4167 797.51 40.1167 797.51 39.75V16.25C797.51 15.8833 797.627 15.5833 797.86 15.35C798.094 15.1167 798.377 15 798.71 15H803.71C804.077 15 804.377 15.1167 804.61 15.35C804.844 15.5833 804.96 15.8833 804.96 16.25V39.75C804.96 40.1167 804.844 40.4167 804.61 40.65C804.377 40.8833 804.077 41 803.71 41H798.71ZM798.56 11C798.227 11 797.944 10.8833 797.71 10.65C797.477 10.4167 797.36 10.1167 797.36 9.75V5.75C797.36 5.38333 797.477 5.08333 797.71 4.85C797.944 4.58333 798.227 4.45 798.56 4.45H803.81C804.177 4.45 804.477 4.58333 804.71 4.85C804.977 5.08333 805.11 5.38333 805.11 5.75V9.75C805.11 10.1167 804.977 10.4167 804.71 10.65C804.477 10.8833 804.177 11 803.81 11H798.56ZM810.131 41C809.831 41 809.564 40.9 809.331 40.7C809.131 40.4667 809.031 40.2 809.031 39.9C809.031 39.8 809.048 39.6833 809.081 39.55C809.148 39.3833 809.231 39.2333 809.331 39.1L817.781 27.65L810.031 16.9C809.931 16.7667 809.848 16.6333 809.781 16.5C809.748 16.3667 809.731 16.2333 809.731 16.1C809.731 15.8 809.831 15.55 810.031 15.35C810.264 15.1167 810.531 15 810.831 15H816.031C816.431 15 816.731 15.1 816.931 15.3C817.164 15.5 817.331 15.6833 817.431 15.85L822.581 22.85L827.731 15.9C827.864 15.7333 828.031 15.55 828.231 15.35C828.431 15.1167 828.748 15 829.181 15H834.131C834.431 15 834.681 15.1167 834.881 15.35C835.114 15.55 835.231 15.8 835.231 16.1C835.231 16.2333 835.214 16.3667 835.181 16.5C835.148 16.6333 835.064 16.7667 834.931 16.9L827.031 27.7L835.581 39.1C835.681 39.2333 835.748 39.3667 835.781 39.5C835.848 39.6333 835.881 39.7667 835.881 39.9C835.881 40.2 835.764 40.4667 835.531 40.7C835.331 40.9 835.081 41 834.781 41H829.331C828.964 41 828.681 40.9167 828.481 40.75C828.281 40.55 828.114 40.3667 827.981 40.2L822.431 32.8L816.781 40.2C816.681 40.3333 816.531 40.5 816.331 40.7C816.131 40.9 815.831 41 815.431 41H810.131ZM850.663 41.5C846.83 41.5 843.78 40.4333 841.513 38.3C839.28 36.1667 838.096 33.0667 837.963 29C837.963 28.7333 837.963 28.3833 837.963 27.95C837.963 27.4833 837.963 27.1167 837.963 26.85C838.096 24.2833 838.68 22.0833 839.713 20.25C840.746 18.3833 842.196 16.9667 844.063 16C845.93 15 848.113 14.5 850.613 14.5C853.413 14.5 855.746 15.0833 857.613 16.25C859.513 17.3833 860.93 18.95 861.863 20.95C862.83 22.9167 863.313 25.1833 863.313 27.75V28.9C863.313 29.2333 863.18 29.5167 862.913 29.75C862.68 29.9833 862.396 30.1 862.063 30.1H845.713C845.713 30.1333 845.713 30.2 845.713 30.3C845.713 30.3667 845.713 30.4333 845.713 30.5C845.746 31.5667 845.946 32.55 846.313 33.45C846.713 34.3167 847.263 35.0167 847.963 35.55C848.696 36.0833 849.563 36.35 850.563 36.35C851.396 36.35 852.08 36.2333 852.613 36C853.146 35.7667 853.58 35.4833 853.913 35.15C854.28 34.8167 854.546 34.5333 854.713 34.3C855.013 33.9667 855.246 33.7667 855.413 33.7C855.613 33.6 855.913 33.55 856.313 33.55H861.513C861.846 33.55 862.113 33.65 862.313 33.85C862.546 34.0167 862.646 34.2667 862.613 34.6C862.58 35.1333 862.296 35.8 861.763 36.6C861.263 37.3667 860.513 38.1333 859.513 38.9C858.513 39.6333 857.263 40.25 855.763 40.75C854.296 41.25 852.596 41.5 850.663 41.5ZM845.713 25.55H855.513V25.45C855.513 24.25 855.313 23.2167 854.913 22.35C854.546 21.45 853.996 20.75 853.263 20.25C852.53 19.75 851.646 19.5 850.613 19.5C849.58 19.5 848.696 19.75 847.963 20.25C847.23 20.75 846.663 21.45 846.263 22.35C845.896 23.2167 845.713 24.25 845.713 25.45V25.55ZM878.561 41.5C876.494 41.5 874.711 41.2667 873.211 40.8C871.744 40.3 870.544 39.7 869.611 39C868.711 38.3 868.028 37.6 867.561 36.9C867.128 36.1667 866.894 35.55 866.861 35.05C866.828 34.6833 866.944 34.3833 867.211 34.15C867.478 33.9167 867.744 33.8 868.011 33.8H872.861C872.961 33.8 873.061 33.8167 873.161 33.85C873.261 33.8833 873.361 33.9667 873.461 34.1C873.894 34.4 874.344 34.75 874.811 35.15C875.278 35.5167 875.811 35.8333 876.411 36.1C877.044 36.3667 877.828 36.5 878.761 36.5C879.861 36.5 880.794 36.2833 881.561 35.85C882.328 35.3833 882.711 34.7333 882.711 33.9C882.711 33.3 882.528 32.8 882.161 32.4C881.828 32 881.178 31.6333 880.211 31.3C879.244 30.9667 877.811 30.6 875.911 30.2C874.111 29.8 872.578 29.2667 871.311 28.6C870.044 27.9333 869.094 27.1 868.461 26.1C867.828 25.0667 867.511 23.8333 867.511 22.4C867.511 21.1 867.911 19.85 868.711 18.65C869.544 17.45 870.761 16.4667 872.361 15.7C873.961 14.9 875.961 14.5 878.361 14.5C880.194 14.5 881.794 14.7333 883.161 15.2C884.561 15.6333 885.728 16.2 886.661 16.9C887.594 17.5667 888.294 18.2667 888.761 19C889.261 19.7 889.528 20.3167 889.561 20.85C889.594 21.1833 889.494 21.4667 889.261 21.7C889.028 21.9333 888.761 22.05 888.461 22.05H884.011C883.844 22.05 883.694 22.0333 883.561 22C883.428 21.9333 883.311 21.85 883.211 21.75C882.811 21.4833 882.394 21.1833 881.961 20.85C881.561 20.4833 881.078 20.1667 880.511 19.9C879.944 19.6333 879.211 19.5 878.311 19.5C877.211 19.5 876.361 19.75 875.761 20.25C875.194 20.7167 874.911 21.3167 874.911 22.05C874.911 22.5167 875.061 22.95 875.361 23.35C875.661 23.75 876.278 24.1167 877.211 24.45C878.144 24.7833 879.561 25.1333 881.461 25.5C883.728 25.9 885.528 26.5 886.861 27.3C888.194 28.1 889.144 29.0333 889.711 30.1C890.311 31.1333 890.611 32.25 890.611 33.45C890.611 35.0167 890.144 36.4167 889.211 37.65C888.278 38.85 886.911 39.8 885.111 40.5C883.344 41.1667 881.161 41.5 878.561 41.5ZM918.046 41.5C914.213 41.5 911.163 40.4333 908.896 38.3C906.663 36.1667 905.479 33.0667 905.346 29C905.346 28.7333 905.346 28.3833 905.346 27.95C905.346 27.4833 905.346 27.1167 905.346 26.85C905.479 24.2833 906.063 22.0833 907.096 20.25C908.129 18.3833 909.579 16.9667 911.446 16C913.313 15 915.496 14.5 917.996 14.5C920.796 14.5 923.129 15.0833 924.996 16.25C926.896 17.3833 928.313 18.95 929.246 20.95C930.213 22.9167 930.696 25.1833 930.696 27.75V28.9C930.696 29.2333 930.563 29.5167 930.296 29.75C930.063 29.9833 929.779 30.1 929.446 30.1H913.096C913.096 30.1333 913.096 30.2 913.096 30.3C913.096 30.3667 913.096 30.4333 913.096 30.5C913.129 31.5667 913.329 32.55 913.696 33.45C914.096 34.3167 914.646 35.0167 915.346 35.55C916.079 36.0833 916.946 36.35 917.946 36.35C918.779 36.35 919.463 36.2333 919.996 36C920.529 35.7667 920.963 35.4833 921.296 35.15C921.663 34.8167 921.929 34.5333 922.096 34.3C922.396 33.9667 922.629 33.7667 922.796 33.7C922.996 33.6 923.296 33.55 923.696 33.55H928.896C929.229 33.55 929.496 33.65 929.696 33.85C929.929 34.0167 930.029 34.2667 929.996 34.6C929.963 35.1333 929.679 35.8 929.146 36.6C928.646 37.3667 927.896 38.1333 926.896 38.9C925.896 39.6333 924.646 40.25 923.146 40.75C921.679 41.25 919.979 41.5 918.046 41.5ZM913.096 25.55H922.896V25.45C922.896 24.25 922.696 23.2167 922.296 22.35C921.929 21.45 921.379 20.75 920.646 20.25C919.913 19.75 919.029 19.5 917.996 19.5C916.963 19.5 916.079 19.75 915.346 20.25C914.613 20.75 914.046 21.45 913.646 22.35C913.279 23.2167 913.096 24.25 913.096 25.45V25.55ZM945.944 41.5C943.877 41.5 942.094 41.2667 940.594 40.8C939.127 40.3 937.927 39.7 936.994 39C936.094 38.3 935.411 37.6 934.944 36.9C934.511 36.1667 934.277 35.55 934.244 35.05C934.211 34.6833 934.327 34.3833 934.594 34.15C934.861 33.9167 935.127 33.8 935.394 33.8H940.244C940.344 33.8 940.444 33.8167 940.544 33.85C940.644 33.8833 940.744 33.9667 940.844 34.1C941.277 34.4 941.727 34.75 942.194 35.15C942.661 35.5167 943.194 35.8333 943.794 36.1C944.427 36.3667 945.211 36.5 946.144 36.5C947.244 36.5 948.177 36.2833 948.944 35.85C949.711 35.3833 950.094 34.7333 950.094 33.9C950.094 33.3 949.911 32.8 949.544 32.4C949.211 32 948.561 31.6333 947.594 31.3C946.627 30.9667 945.194 30.6 943.294 30.2C941.494 29.8 939.961 29.2667 938.694 28.6C937.427 27.9333 936.477 27.1 935.844 26.1C935.211 25.0667 934.894 23.8333 934.894 22.4C934.894 21.1 935.294 19.85 936.094 18.65C936.927 17.45 938.144 16.4667 939.744 15.7C941.344 14.9 943.344 14.5 945.744 14.5C947.577 14.5 949.177 14.7333 950.544 15.2C951.944 15.6333 953.111 16.2 954.044 16.9C954.977 17.5667 955.677 18.2667 956.144 19C956.644 19.7 956.911 20.3167 956.944 20.85C956.977 21.1833 956.877 21.4667 956.644 21.7C956.411 21.9333 956.144 22.05 955.844 22.05H951.394C951.227 22.05 951.077 22.0333 950.944 22C950.811 21.9333 950.694 21.85 950.594 21.75C950.194 21.4833 949.777 21.1833 949.344 20.85C948.944 20.4833 948.461 20.1667 947.894 19.9C947.327 19.6333 946.594 19.5 945.694 19.5C944.594 19.5 943.744 19.75 943.144 20.25C942.577 20.7167 942.294 21.3167 942.294 22.05C942.294 22.5167 942.444 22.95 942.744 23.35C943.044 23.75 943.661 24.1167 944.594 24.45C945.527 24.7833 946.944 25.1333 948.844 25.5C951.111 25.9 952.911 26.5 954.244 27.3C955.577 28.1 956.527 29.0333 957.094 30.1C957.694 31.1333 957.994 32.25 957.994 33.45C957.994 35.0167 957.527 36.4167 956.594 37.65C955.661 38.85 954.294 39.8 952.494 40.5C950.727 41.1667 948.544 41.5 945.944 41.5ZM974.344 41.5C971.91 41.5 969.76 41.05 967.894 40.15C966.06 39.25 964.61 37.95 963.544 36.25C962.477 34.5167 961.894 32.45 961.794 30.05C961.76 29.5167 961.744 28.85 961.744 28.05C961.744 27.2167 961.76 26.5333 961.794 26C961.894 23.5667 962.46 21.5 963.494 19.8C964.56 18.0667 966.027 16.75 967.894 15.85C969.76 14.95 971.91 14.5 974.344 14.5C976.577 14.5 978.477 14.8167 980.044 15.45C981.61 16.05 982.894 16.8167 983.894 17.75C984.894 18.6833 985.627 19.6667 986.094 20.7C986.594 21.7 986.86 22.5833 986.894 23.35C986.927 23.6833 986.81 23.9833 986.544 24.25C986.31 24.4833 986.027 24.6 985.694 24.6H980.344C980.01 24.6 979.744 24.5167 979.544 24.35C979.377 24.15 979.21 23.8833 979.044 23.55C978.577 22.3833 977.977 21.55 977.244 21.05C976.51 20.55 975.594 20.3 974.494 20.3C972.994 20.3 971.81 20.7833 970.944 21.75C970.077 22.7167 969.61 24.2167 969.544 26.25C969.51 27.55 969.51 28.7333 969.544 29.8C969.644 31.8667 970.11 33.3667 970.944 34.3C971.81 35.2333 972.994 35.7 974.494 35.7C975.66 35.7 976.594 35.45 977.294 34.95C977.994 34.45 978.577 33.6167 979.044 32.45C979.177 32.1167 979.344 31.8667 979.544 31.7C979.744 31.5 980.01 31.4 980.344 31.4H985.694C986.027 31.4 986.31 31.5333 986.544 31.8C986.81 32.0333 986.927 32.3167 986.894 32.65C986.86 33.2167 986.694 33.8833 986.394 34.65C986.127 35.4167 985.677 36.2 985.044 37C984.444 37.8 983.66 38.55 982.694 39.25C981.727 39.9167 980.544 40.4667 979.144 40.9C977.777 41.3 976.177 41.5 974.344 41.5ZM999.447 41.5C997.681 41.5 996.097 41.1667 994.697 40.5C993.297 39.8 992.181 38.8667 991.347 37.7C990.514 36.5333 990.097 35.2333 990.097 33.8C990.097 31.4333 991.047 29.5667 992.947 28.2C994.881 26.8333 997.414 25.9 1000.55 25.4L1007.1 24.45V23.55C1007.1 22.25 1006.8 21.25 1006.2 20.55C1005.6 19.85 1004.55 19.5 1003.05 19.5C1001.95 19.5 1001.06 19.7167 1000.4 20.15C999.731 20.5833 999.214 21.15 998.847 21.85C998.581 22.2833 998.197 22.5 997.697 22.5H992.947C992.581 22.5 992.297 22.4 992.097 22.2C991.897 21.9667 991.814 21.7 991.847 21.4C991.847 20.8333 992.064 20.1667 992.497 19.4C992.931 18.6333 993.597 17.8833 994.497 17.15C995.397 16.3833 996.547 15.75 997.947 15.25C999.347 14.75 1001.06 14.5 1003.1 14.5C1005.2 14.5 1007 14.75 1008.5 15.25C1010 15.75 1011.2 16.45 1012.1 17.35C1013 18.25 1013.66 19.3 1014.1 20.5C1014.53 21.6667 1014.75 22.9333 1014.75 24.3V39.75C1014.75 40.1167 1014.63 40.4167 1014.4 40.65C1014.16 40.8833 1013.86 41 1013.5 41H1008.6C1008.26 41 1007.98 40.8833 1007.75 40.65C1007.51 40.4167 1007.4 40.1167 1007.4 39.75V37.9C1006.96 38.5333 1006.38 39.1333 1005.65 39.7C1004.91 40.2333 1004.03 40.6667 1003 41C1002 41.3333 1000.81 41.5 999.447 41.5ZM1001.45 36.3C1002.55 36.3 1003.53 36.0667 1004.4 35.6C1005.26 35.1333 1005.95 34.4167 1006.45 33.45C1006.95 32.4833 1007.2 31.2667 1007.2 29.8V28.95L1002.55 29.7C1000.75 30 999.431 30.45 998.597 31.05C997.764 31.65 997.347 32.3833 997.347 33.25C997.347 33.8833 997.531 34.4333 997.897 34.9C998.297 35.3667 998.814 35.7167 999.447 35.95C1000.08 36.1833 1000.75 36.3 1001.45 36.3ZM1022.05 50.5C1021.68 50.5 1021.38 50.3833 1021.15 50.15C1020.92 49.9167 1020.8 49.6167 1020.8 49.25V16.25C1020.8 15.8833 1020.92 15.5833 1021.15 15.35C1021.38 15.1167 1021.68 15 1022.05 15H1026.8C1027.17 15 1027.47 15.1167 1027.7 15.35C1027.93 15.5833 1028.05 15.8833 1028.05 16.25V18.15C1028.85 17.0833 1029.88 16.2167 1031.15 15.55C1032.42 14.85 1034 14.5 1035.9 14.5C1037.63 14.5 1039.13 14.7833 1040.4 15.35C1041.7 15.8833 1042.78 16.6667 1043.65 17.7C1044.55 18.7 1045.23 19.9167 1045.7 21.35C1046.2 22.7833 1046.48 24.4 1046.55 26.2C1046.58 26.8333 1046.6 27.4333 1046.6 28C1046.6 28.5667 1046.58 29.1833 1046.55 29.85C1046.52 31.55 1046.25 33.1167 1045.75 34.55C1045.28 35.9833 1044.6 37.2167 1043.7 38.25C1042.8 39.2833 1041.7 40.0833 1040.4 40.65C1039.13 41.2167 1037.63 41.5 1035.9 41.5C1034.2 41.5 1032.72 41.2 1031.45 40.6C1030.22 39.9667 1029.2 39.1167 1028.4 38.05V49.25C1028.4 49.6167 1028.28 49.9167 1028.05 50.15C1027.82 50.3833 1027.53 50.5 1027.2 50.5H1022.05ZM1033.65 35.5C1034.92 35.5 1035.92 35.2333 1036.65 34.7C1037.38 34.1333 1037.9 33.4 1038.2 32.5C1038.53 31.6 1038.73 30.6167 1038.8 29.55C1038.87 28.5167 1038.87 27.4833 1038.8 26.45C1038.73 25.3833 1038.53 24.4 1038.2 23.5C1037.9 22.6 1037.38 21.8833 1036.65 21.35C1035.92 20.7833 1034.92 20.5 1033.65 20.5C1032.42 20.5 1031.42 20.7833 1030.65 21.35C1029.88 21.9167 1029.33 22.6333 1029 23.5C1028.67 24.3667 1028.47 25.3 1028.4 26.3C1028.37 26.9 1028.35 27.5167 1028.35 28.15C1028.35 28.7833 1028.37 29.4167 1028.4 30.05C1028.43 30.9833 1028.63 31.8667 1029 32.7C1029.4 33.5 1029.97 34.1667 1030.7 34.7C1031.47 35.2333 1032.45 35.5 1033.65 35.5ZM1059.55 41.5C1057.79 41.5 1056.2 41.1667 1054.8 40.5C1053.4 39.8 1052.29 38.8667 1051.45 37.7C1050.62 36.5333 1050.2 35.2333 1050.2 33.8C1050.2 31.4333 1051.15 29.5667 1053.05 28.2C1054.99 26.8333 1057.52 25.9 1060.65 25.4L1067.2 24.45V23.55C1067.2 22.25 1066.9 21.25 1066.3 20.55C1065.7 19.85 1064.65 19.5 1063.15 19.5C1062.05 19.5 1061.17 19.7167 1060.5 20.15C1059.84 20.5833 1059.32 21.15 1058.95 21.85C1058.69 22.2833 1058.3 22.5 1057.8 22.5H1053.05C1052.69 22.5 1052.4 22.4 1052.2 22.2C1052 21.9667 1051.92 21.7 1051.95 21.4C1051.95 20.8333 1052.17 20.1667 1052.6 19.4C1053.04 18.6333 1053.7 17.8833 1054.6 17.15C1055.5 16.3833 1056.65 15.75 1058.05 15.25C1059.45 14.75 1061.17 14.5 1063.2 14.5C1065.3 14.5 1067.1 14.75 1068.6 15.25C1070.1 15.75 1071.3 16.45 1072.2 17.35C1073.1 18.25 1073.77 19.3 1074.2 20.5C1074.64 21.6667 1074.85 22.9333 1074.85 24.3V39.75C1074.85 40.1167 1074.74 40.4167 1074.5 40.65C1074.27 40.8833 1073.97 41 1073.6 41H1068.7C1068.37 41 1068.09 40.8833 1067.85 40.65C1067.62 40.4167 1067.5 40.1167 1067.5 39.75V37.9C1067.07 38.5333 1066.49 39.1333 1065.75 39.7C1065.02 40.2333 1064.14 40.6667 1063.1 41C1062.1 41.3333 1060.92 41.5 1059.55 41.5ZM1061.55 36.3C1062.65 36.3 1063.64 36.0667 1064.5 35.6C1065.37 35.1333 1066.05 34.4167 1066.55 33.45C1067.05 32.4833 1067.3 31.2667 1067.3 29.8V28.95L1062.65 29.7C1060.85 30 1059.54 30.45 1058.7 31.05C1057.87 31.65 1057.45 32.3833 1057.45 33.25C1057.45 33.8833 1057.64 34.4333 1058 34.9C1058.4 35.3667 1058.92 35.7167 1059.55 35.95C1060.19 36.1833 1060.85 36.3 1061.55 36.3ZM1082.11 41C1081.78 41 1081.49 40.8833 1081.26 40.65C1081.03 40.4167 1080.91 40.1167 1080.91 39.75V16.25C1080.91 15.9167 1081.03 15.6333 1081.26 15.4C1081.49 15.1333 1081.78 15 1082.11 15H1087.01C1087.34 15 1087.63 15.1333 1087.86 15.4C1088.13 15.6333 1088.26 15.9167 1088.26 16.25V18.25C1089.09 17.2167 1090.11 16.4167 1091.31 15.85C1092.54 15.2833 1093.96 15 1095.56 15H1097.71C1098.04 15 1098.33 15.1167 1098.56 15.35C1098.79 15.5833 1098.91 15.8833 1098.91 16.25V20.55C1098.91 20.9167 1098.79 21.2167 1098.56 21.45C1098.33 21.6833 1098.04 21.8 1097.71 21.8H1093.31C1091.84 21.8 1090.69 22.2167 1089.86 23.05C1089.03 23.85 1088.61 25 1088.61 26.5V39.75C1088.61 40.1167 1088.49 40.4167 1088.26 40.65C1088.03 40.8833 1087.73 41 1087.36 41H1082.11ZM1113.85 41C1113.51 41 1113.23 40.8833 1113 40.65C1112.76 40.4167 1112.65 40.1167 1112.65 39.75V16.25C1112.65 15.8833 1112.76 15.5833 1113 15.35C1113.23 15.1167 1113.51 15 1113.85 15H1118.75C1119.11 15 1119.41 15.1167 1119.65 15.35C1119.88 15.5833 1120 15.8833 1120 16.25V18.2C1120.86 17.1333 1121.98 16.25 1123.35 15.55C1124.71 14.85 1126.38 14.5 1128.35 14.5C1130.31 14.5 1132.03 14.95 1133.5 15.85C1135 16.7167 1136.16 18 1137 19.7C1137.86 21.3667 1138.3 23.4 1138.3 25.8V39.75C1138.3 40.1167 1138.16 40.4167 1137.9 40.65C1137.66 40.8833 1137.38 41 1137.05 41H1131.75C1131.38 41 1131.08 40.8833 1130.85 40.65C1130.61 40.4167 1130.5 40.1167 1130.5 39.75V26.1C1130.5 24.3333 1130.06 22.9667 1129.2 22C1128.36 21 1127.13 20.5 1125.5 20.5C1123.93 20.5 1122.68 21 1121.75 22C1120.81 22.9667 1120.35 24.3333 1120.35 26.1V39.75C1120.35 40.1167 1120.23 40.4167 1120 40.65C1119.76 40.8833 1119.48 41 1119.15 41H1113.85ZM1151.94 41.5C1150.17 41.5 1148.59 41.1667 1147.19 40.5C1145.79 39.8 1144.67 38.8667 1143.84 37.7C1143 36.5333 1142.59 35.2333 1142.59 33.8C1142.59 31.4333 1143.54 29.5667 1145.44 28.2C1147.37 26.8333 1149.9 25.9 1153.04 25.4L1159.59 24.45V23.55C1159.59 22.25 1159.29 21.25 1158.69 20.55C1158.09 19.85 1157.04 19.5 1155.54 19.5C1154.44 19.5 1153.55 19.7167 1152.89 20.15C1152.22 20.5833 1151.7 21.15 1151.34 21.85C1151.07 22.2833 1150.69 22.5 1150.19 22.5H1145.44C1145.07 22.5 1144.79 22.4 1144.59 22.2C1144.39 21.9667 1144.3 21.7 1144.34 21.4C1144.34 20.8333 1144.55 20.1667 1144.99 19.4C1145.42 18.6333 1146.09 17.8833 1146.99 17.15C1147.89 16.3833 1149.04 15.75 1150.44 15.25C1151.84 14.75 1153.55 14.5 1155.59 14.5C1157.69 14.5 1159.49 14.75 1160.99 15.25C1162.49 15.75 1163.69 16.45 1164.59 17.35C1165.49 18.25 1166.15 19.3 1166.59 20.5C1167.02 21.6667 1167.24 22.9333 1167.24 24.3V39.75C1167.24 40.1167 1167.12 40.4167 1166.89 40.65C1166.65 40.8833 1166.35 41 1165.99 41H1161.09C1160.75 41 1160.47 40.8833 1160.24 40.65C1160 40.4167 1159.89 40.1167 1159.89 39.75V37.9C1159.45 38.5333 1158.87 39.1333 1158.14 39.7C1157.4 40.2333 1156.52 40.6667 1155.49 41C1154.49 41.3333 1153.3 41.5 1151.94 41.5ZM1153.94 36.3C1155.04 36.3 1156.02 36.0667 1156.89 35.6C1157.75 35.1333 1158.44 34.4167 1158.94 33.45C1159.44 32.4833 1159.69 31.2667 1159.69 29.8V28.95L1155.04 29.7C1153.24 30 1151.92 30.45 1151.09 31.05C1150.25 31.65 1149.84 32.3833 1149.84 33.25C1149.84 33.8833 1150.02 34.4333 1150.39 34.9C1150.79 35.3667 1151.3 35.7167 1151.94 35.95C1152.57 36.1833 1153.24 36.3 1153.94 36.3ZM1182.94 41.5C1181.27 41.5 1179.79 41.2333 1178.49 40.7C1177.19 40.1333 1176.09 39.3333 1175.19 38.3C1174.29 37.2333 1173.61 35.9833 1173.14 34.55C1172.67 33.0833 1172.39 31.4667 1172.29 29.7C1172.26 29.0667 1172.24 28.5 1172.24 28C1172.24 27.4667 1172.26 26.9 1172.29 26.3C1172.36 24.5667 1172.62 22.9833 1173.09 21.55C1173.59 20.1167 1174.27 18.8833 1175.14 17.85C1176.04 16.7833 1177.14 15.9667 1178.44 15.4C1179.77 14.8 1181.27 14.5 1182.94 14.5C1184.67 14.5 1186.16 14.8 1187.39 15.4C1188.62 15.9667 1189.64 16.7167 1190.44 17.65V6.75C1190.44 6.38333 1190.56 6.08333 1190.79 5.85C1191.02 5.61667 1191.32 5.5 1191.69 5.5H1196.84C1197.17 5.5 1197.46 5.61667 1197.69 5.85C1197.92 6.08333 1198.04 6.38333 1198.04 6.75V39.75C1198.04 40.1167 1197.92 40.4167 1197.69 40.65C1197.46 40.8833 1197.17 41 1196.84 41H1192.04C1191.71 41 1191.42 40.8833 1191.19 40.65C1190.96 40.4167 1190.84 40.1167 1190.84 39.75V38.05C1190.01 39.05 1188.96 39.8833 1187.69 40.55C1186.42 41.1833 1184.84 41.5 1182.94 41.5ZM1185.24 35.5C1186.47 35.5 1187.46 35.2167 1188.19 34.65C1188.96 34.0833 1189.51 33.3667 1189.84 32.5C1190.21 31.6333 1190.41 30.7 1190.44 29.7C1190.51 29.0667 1190.54 28.4333 1190.54 27.8C1190.54 27.1667 1190.51 26.55 1190.44 25.95C1190.41 25.0167 1190.21 24.15 1189.84 23.35C1189.47 22.5167 1188.91 21.8333 1188.14 21.3C1187.41 20.7667 1186.44 20.5 1185.24 20.5C1183.97 20.5 1182.97 20.7833 1182.24 21.35C1181.51 21.8833 1180.97 22.6 1180.64 23.5C1180.34 24.4 1180.16 25.3833 1180.09 26.45C1179.99 27.4833 1179.99 28.5167 1180.09 29.55C1180.16 30.6167 1180.34 31.6 1180.64 32.5C1180.97 33.4 1181.51 34.1333 1182.24 34.7C1182.97 35.2333 1183.97 35.5 1185.24 35.5ZM1212.05 41.5C1210.28 41.5 1208.7 41.1667 1207.3 40.5C1205.9 39.8 1204.78 38.8667 1203.95 37.7C1203.11 36.5333 1202.7 35.2333 1202.7 33.8C1202.7 31.4333 1203.65 29.5667 1205.55 28.2C1207.48 26.8333 1210.01 25.9 1213.15 25.4L1219.7 24.45V23.55C1219.7 22.25 1219.4 21.25 1218.8 20.55C1218.2 19.85 1217.15 19.5 1215.65 19.5C1214.55 19.5 1213.66 19.7167 1213 20.15C1212.33 20.5833 1211.81 21.15 1211.45 21.85C1211.18 22.2833 1210.8 22.5 1210.3 22.5H1205.55C1205.18 22.5 1204.9 22.4 1204.7 22.2C1204.5 21.9667 1204.41 21.7 1204.45 21.4C1204.45 20.8333 1204.66 20.1667 1205.1 19.4C1205.53 18.6333 1206.2 17.8833 1207.1 17.15C1208 16.3833 1209.15 15.75 1210.55 15.25C1211.95 14.75 1213.66 14.5 1215.7 14.5C1217.8 14.5 1219.6 14.75 1221.1 15.25C1222.6 15.75 1223.8 16.45 1224.7 17.35C1225.6 18.25 1226.26 19.3 1226.7 20.5C1227.13 21.6667 1227.35 22.9333 1227.35 24.3V39.75C1227.35 40.1167 1227.23 40.4167 1227 40.65C1226.76 40.8833 1226.46 41 1226.1 41H1221.2C1220.86 41 1220.58 40.8833 1220.35 40.65C1220.11 40.4167 1220 40.1167 1220 39.75V37.9C1219.56 38.5333 1218.98 39.1333 1218.25 39.7C1217.51 40.2333 1216.63 40.6667 1215.6 41C1214.6 41.3333 1213.41 41.5 1212.05 41.5ZM1214.05 36.3C1215.15 36.3 1216.13 36.0667 1217 35.6C1217.86 35.1333 1218.55 34.4167 1219.05 33.45C1219.55 32.4833 1219.8 31.2667 1219.8 29.8V28.95L1215.15 29.7C1213.35 30 1212.03 30.45 1211.2 31.05C1210.36 31.65 1209.95 32.3833 1209.95 33.25C1209.95 33.8833 1210.13 34.4333 1210.5 34.9C1210.9 35.3667 1211.41 35.7167 1212.05 35.95C1212.68 36.1833 1213.35 36.3 1214.05 36.3ZM1234.35 41C1233.98 41 1233.68 40.8833 1233.45 40.65C1233.22 40.4167 1233.1 40.1167 1233.1 39.75V34.15C1233.1 33.7833 1233.22 33.4833 1233.45 33.25C1233.68 33.0167 1233.98 32.9 1234.35 32.9H1239.95C1240.32 32.9 1240.62 33.0167 1240.85 33.25C1241.08 33.4833 1241.2 33.7833 1241.2 34.15V39.75C1241.2 40.1167 1241.08 40.4167 1240.85 40.65C1240.62 40.8833 1240.32 41 1239.95 41H1234.35ZM1248.17 41C1247.8 41 1247.5 40.8833 1247.27 40.65C1247.03 40.4167 1246.92 40.1167 1246.92 39.75V34.15C1246.92 33.7833 1247.03 33.4833 1247.27 33.25C1247.5 33.0167 1247.8 32.9 1248.17 32.9H1253.77C1254.13 32.9 1254.43 33.0167 1254.67 33.25C1254.9 33.4833 1255.02 33.7833 1255.02 34.15V39.75C1255.02 40.1167 1254.9 40.4167 1254.67 40.65C1254.43 40.8833 1254.13 41 1253.77 41H1248.17ZM1261.99 41C1261.62 41 1261.32 40.8833 1261.09 40.65C1260.85 40.4167 1260.74 40.1167 1260.74 39.75V34.15C1260.74 33.7833 1260.85 33.4833 1261.09 33.25C1261.32 33.0167 1261.62 32.9 1261.99 32.9H1267.59C1267.95 32.9 1268.25 33.0167 1268.49 33.25C1268.72 33.4833 1268.84 33.7833 1268.84 34.15V39.75C1268.84 40.1167 1268.72 40.4167 1268.49 40.65C1268.25 40.8833 1267.95 41 1267.59 41H1261.99Z" fill="#6D2E46"/>
</svg>
