<svg width="1551" height="55" viewBox="0 0 1551 55" fill="none" xmlns="http://www.w3.org/2000/svg">
<path id="O amor n&#195;&#163;o &#195;&#169; descart&#195;&#161;vel. E as tuas meias tamb&#195;&#169;m n&#195;&#163;o." d="M132.922 33.4258C132.922 35.6719 132.629 37.6657 132.043 39.4072C131.457 41.1488 130.603 42.6217 129.479 43.8262C128.356 45.0143 127.006 45.9258 125.427 46.5605C123.848 47.179 122.066 47.4883 120.08 47.4883C118.225 47.4883 116.524 47.179 114.978 46.5605C113.431 45.9258 112.089 45.0143 110.949 43.8262C109.826 42.6217 108.955 41.1488 108.337 39.4072C107.718 37.6657 107.409 35.6719 107.409 33.4258C107.409 30.4473 107.922 27.9245 108.947 25.8574C109.989 23.7741 111.47 22.1872 113.391 21.0967C115.311 20.0062 117.598 19.4609 120.251 19.4609C122.741 19.4609 124.938 20.0062 126.843 21.0967C128.747 22.1872 130.236 23.7741 131.311 25.8574C132.385 27.9408 132.922 30.4635 132.922 33.4258ZM113.317 33.4258C113.317 35.3952 113.553 37.0798 114.025 38.4795C114.514 39.8792 115.262 40.9535 116.271 41.7021C117.281 42.4346 118.583 42.8008 120.178 42.8008C121.773 42.8008 123.075 42.4346 124.084 41.7021C125.093 40.9535 125.834 39.8792 126.306 38.4795C126.778 37.0798 127.014 35.3952 127.014 33.4258C127.014 31.4564 126.778 29.7881 126.306 28.4209C125.834 27.0374 125.093 25.9876 124.084 25.2715C123.075 24.5391 121.765 24.1729 120.153 24.1729C117.777 24.1729 116.044 24.9704 114.953 26.5654C113.863 28.1605 113.317 30.4473 113.317 33.4258ZM163.098 19.4609C166.516 19.4609 169.095 20.2178 170.837 21.7314C172.595 23.2451 173.474 25.6051 173.474 28.8115V47H169.396L168.298 43.167H168.103C167.338 44.1436 166.548 44.9492 165.734 45.584C164.921 46.2188 163.977 46.6908 162.902 47C161.844 47.3255 160.55 47.4883 159.021 47.4883C157.409 47.4883 155.969 47.1953 154.699 46.6094C153.43 46.0072 152.429 45.0957 151.696 43.875C150.964 42.6543 150.598 41.1081 150.598 39.2363C150.598 36.4531 151.631 34.3617 153.698 32.9619C155.782 31.5622 158.923 30.7891 163.122 30.6426L167.81 30.4717V29.0557C167.81 27.1839 167.37 25.8493 166.491 25.0518C165.629 24.2542 164.408 23.8555 162.829 23.8555C161.478 23.8555 160.168 24.0508 158.898 24.4414C157.629 24.832 156.392 25.3122 155.188 25.8818L153.332 21.8291C154.65 21.1292 156.148 20.5596 157.824 20.1201C159.517 19.6807 161.275 19.4609 163.098 19.4609ZM167.785 34.085L164.294 34.207C161.429 34.3047 159.419 34.793 158.264 35.6719C157.108 36.5508 156.53 37.7552 156.53 39.2852C156.53 40.6198 156.929 41.5964 157.727 42.2148C158.524 42.8171 159.574 43.1182 160.876 43.1182C162.862 43.1182 164.506 42.5566 165.808 41.4336C167.126 40.2943 167.785 38.626 167.785 36.4287V34.085ZM212.048 19.4609C215.075 19.4609 217.354 20.2422 218.884 21.8047C220.43 23.3672 221.203 25.8737 221.203 29.3242V47H215.466V30.3496C215.466 28.2988 215.067 26.7526 214.27 25.7109C213.472 24.6693 212.259 24.1484 210.632 24.1484C208.353 24.1484 206.709 24.8809 205.7 26.3457C204.707 27.7943 204.211 29.902 204.211 32.6689V47H198.474V30.3496C198.474 28.9824 198.295 27.8431 197.937 26.9316C197.595 26.0039 197.066 25.3122 196.35 24.8564C195.633 24.3844 194.73 24.1484 193.64 24.1484C192.061 24.1484 190.799 24.5065 189.855 25.2227C188.928 25.9388 188.26 26.9967 187.854 28.3965C187.447 29.7799 187.243 31.4808 187.243 33.499V47H181.506V19.9736H185.974L186.779 23.6113H187.097C187.65 22.6673 188.334 21.8942 189.147 21.292C189.978 20.6735 190.897 20.2178 191.906 19.9248C192.915 19.6156 193.965 19.4609 195.056 19.4609C197.074 19.4609 198.775 19.819 200.158 20.5352C201.542 21.235 202.575 22.3092 203.259 23.7578H203.698C204.545 22.293 205.725 21.2106 207.238 20.5107C208.752 19.8109 210.355 19.4609 212.048 19.4609ZM253.137 33.4258C253.137 35.6719 252.844 37.6657 252.258 39.4072C251.672 41.1488 250.817 42.6217 249.694 43.8262C248.571 45.0143 247.22 45.9258 245.642 46.5605C244.063 47.179 242.281 47.4883 240.295 47.4883C238.439 47.4883 236.739 47.179 235.192 46.5605C233.646 45.9258 232.303 45.0143 231.164 43.8262C230.041 42.6217 229.17 41.1488 228.552 39.4072C227.933 37.6657 227.624 35.6719 227.624 33.4258C227.624 30.4473 228.137 27.9245 229.162 25.8574C230.204 23.7741 231.685 22.1872 233.605 21.0967C235.526 20.0062 237.813 19.4609 240.466 19.4609C242.956 19.4609 245.153 20.0062 247.058 21.0967C248.962 22.1872 250.451 23.7741 251.525 25.8574C252.6 27.9408 253.137 30.4635 253.137 33.4258ZM233.532 33.4258C233.532 35.3952 233.768 37.0798 234.24 38.4795C234.729 39.8792 235.477 40.9535 236.486 41.7021C237.495 42.4346 238.798 42.8008 240.393 42.8008C241.988 42.8008 243.29 42.4346 244.299 41.7021C245.308 40.9535 246.049 39.8792 246.521 38.4795C246.993 37.0798 247.229 35.3952 247.229 33.4258C247.229 31.4564 246.993 29.7881 246.521 28.4209C246.049 27.0374 245.308 25.9876 244.299 25.2715C243.29 24.5391 241.979 24.1729 240.368 24.1729C237.992 24.1729 236.258 24.9704 235.168 26.5654C234.077 28.1605 233.532 30.4473 233.532 33.4258ZM273.425 19.4609C273.881 19.4609 274.377 19.4854 274.914 19.5342C275.451 19.583 275.915 19.6481 276.306 19.7295L275.769 25.1006C275.427 25.0029 275.004 24.9297 274.499 24.8809C274.011 24.832 273.571 24.8076 273.181 24.8076C272.155 24.8076 271.179 24.9785 270.251 25.3203C269.323 25.6458 268.501 26.1504 267.785 26.834C267.069 27.5013 266.507 28.3395 266.101 29.3486C265.694 30.3577 265.49 31.5296 265.49 32.8643V47H259.729V19.9736H264.221L265.002 24.7344H265.271C265.808 23.7741 266.475 22.8952 267.272 22.0977C268.07 21.3001 268.981 20.6654 270.007 20.1934C271.049 19.7051 272.188 19.4609 273.425 19.4609ZM308.386 19.4609C311.429 19.4609 313.798 20.2503 315.49 21.8291C317.199 23.3916 318.054 25.9062 318.054 29.373V47H312.316V30.4473C312.316 28.3477 311.885 26.777 311.022 25.7354C310.16 24.6774 308.825 24.1484 307.019 24.1484C304.398 24.1484 302.575 24.9541 301.55 26.5654C300.541 28.1768 300.036 30.5124 300.036 33.5723V47H294.299V19.9736H298.767L299.572 23.6357H299.89C300.476 22.6917 301.2 21.9186 302.062 21.3164C302.941 20.6979 303.918 20.234 304.992 19.9248C306.083 19.6156 307.214 19.4609 308.386 19.4609ZM336.682 19.4609C340.1 19.4609 342.679 20.2178 344.421 21.7314C346.179 23.2451 347.058 25.6051 347.058 28.8115V47H342.98L341.882 43.167H341.687C340.922 44.1436 340.132 44.9492 339.318 45.584C338.505 46.2188 337.561 46.6908 336.486 47C335.428 47.3255 334.134 47.4883 332.604 47.4883C330.993 47.4883 329.553 47.1953 328.283 46.6094C327.014 46.0072 326.013 45.0957 325.28 43.875C324.548 42.6543 324.182 41.1081 324.182 39.2363C324.182 36.4531 325.215 34.3617 327.282 32.9619C329.366 31.5622 332.507 30.7891 336.706 30.6426L341.394 30.4717V29.0557C341.394 27.1839 340.954 25.8493 340.075 25.0518C339.213 24.2542 337.992 23.8555 336.413 23.8555C335.062 23.8555 333.752 24.0508 332.482 24.4414C331.213 24.832 329.976 25.3122 328.771 25.8818L326.916 21.8291C328.234 21.1292 329.732 20.5596 331.408 20.1201C333.101 19.6807 334.859 19.4609 336.682 19.4609ZM341.369 34.085L337.878 34.207C335.013 34.3047 333.003 34.793 331.848 35.6719C330.692 36.5508 330.114 37.7552 330.114 39.2852C330.114 40.6198 330.513 41.5964 331.311 42.2148C332.108 42.8171 333.158 43.1182 334.46 43.1182C336.446 43.1182 338.09 42.5566 339.392 41.4336C340.71 40.2943 341.369 38.626 341.369 36.4287V34.085ZM326.794 16.6777C326.892 15.5384 327.103 14.5456 327.429 13.6992C327.754 12.8366 328.177 12.1204 328.698 11.5508C329.235 10.9648 329.846 10.5254 330.529 10.2324C331.229 9.93945 331.986 9.79297 332.8 9.79297C333.516 9.79297 334.2 9.93132 334.851 10.208C335.518 10.4847 336.161 10.8102 336.779 11.1846C337.414 11.5426 338.024 11.86 338.61 12.1367C339.213 12.4134 339.79 12.5518 340.344 12.5518C340.979 12.5518 341.516 12.3239 341.955 11.8682C342.411 11.4124 342.753 10.7044 342.98 9.74414H345.983C345.788 11.9902 345.145 13.7074 344.055 14.8955C342.964 16.0674 341.605 16.6533 339.978 16.6533C339.294 16.6533 338.618 16.515 337.951 16.2383C337.3 15.9453 336.665 15.6198 336.047 15.2617C335.428 14.9036 334.818 14.5863 334.216 14.3096C333.614 14.0329 333.028 13.8945 332.458 13.8945C331.807 13.8945 331.254 14.1224 330.798 14.5781C330.358 15.0339 330.033 15.7337 329.821 16.6777H326.794ZM379.016 33.4258C379.016 35.6719 378.723 37.6657 378.137 39.4072C377.551 41.1488 376.696 42.6217 375.573 43.8262C374.45 45.0143 373.099 45.9258 371.521 46.5605C369.942 47.179 368.16 47.4883 366.174 47.4883C364.318 47.4883 362.618 47.179 361.071 46.5605C359.525 45.9258 358.182 45.0143 357.043 43.8262C355.92 42.6217 355.049 41.1488 354.431 39.4072C353.812 37.6657 353.503 35.6719 353.503 33.4258C353.503 30.4473 354.016 27.9245 355.041 25.8574C356.083 23.7741 357.564 22.1872 359.484 21.0967C361.405 20.0062 363.692 19.4609 366.345 19.4609C368.835 19.4609 371.032 20.0062 372.937 21.0967C374.841 22.1872 376.33 23.7741 377.404 25.8574C378.479 27.9408 379.016 30.4635 379.016 33.4258ZM359.411 33.4258C359.411 35.3952 359.647 37.0798 360.119 38.4795C360.607 39.8792 361.356 40.9535 362.365 41.7021C363.374 42.4346 364.676 42.8008 366.271 42.8008C367.867 42.8008 369.169 42.4346 370.178 41.7021C371.187 40.9535 371.927 39.8792 372.399 38.4795C372.871 37.0798 373.107 35.3952 373.107 33.4258C373.107 31.4564 372.871 29.7881 372.399 28.4209C371.927 27.0374 371.187 25.9876 370.178 25.2715C369.169 24.5391 367.858 24.1729 366.247 24.1729C363.871 24.1729 362.137 24.9704 361.047 26.5654C359.956 28.1605 359.411 30.4473 359.411 33.4258ZM409.362 19.4609C411.771 19.4609 413.838 19.9574 415.563 20.9502C417.289 21.943 418.615 23.3509 419.543 25.1738C420.471 26.9967 420.935 29.1777 420.935 31.7168V34.793H402.893C402.958 37.4134 403.658 39.4316 404.992 40.8477C406.343 42.2637 408.231 42.9717 410.656 42.9717C412.382 42.9717 413.928 42.8089 415.295 42.4834C416.678 42.1416 418.103 41.6452 419.567 40.9941V45.6572C418.216 46.292 416.841 46.7559 415.441 47.0488C414.042 47.3418 412.365 47.4883 410.412 47.4883C407.759 47.4883 405.424 46.9756 403.405 45.9502C401.403 44.9085 399.833 43.3623 398.693 41.3115C397.57 39.2607 397.009 36.7135 397.009 33.6699C397.009 30.6426 397.521 28.071 398.547 25.9551C399.572 23.8392 401.013 22.2279 402.868 21.1211C404.724 20.0143 406.888 19.4609 409.362 19.4609ZM409.362 23.7822C407.556 23.7822 406.091 24.3682 404.968 25.54C403.861 26.7119 403.21 28.429 403.015 30.6914H415.319C415.303 29.3405 415.075 28.1442 414.636 27.1025C414.213 26.0609 413.562 25.2471 412.683 24.6611C411.82 24.0752 410.713 23.7822 409.362 23.7822ZM417.346 8.69434V9.18262C416.955 9.65462 416.426 10.2243 415.759 10.8916C415.091 11.5426 414.367 12.2344 413.586 12.9668C412.805 13.6829 412.032 14.3747 411.267 15.042C410.502 15.693 409.81 16.2464 409.191 16.7021H405.358V16.0674C405.896 15.4489 406.49 14.7083 407.141 13.8457C407.808 12.9831 408.459 12.096 409.094 11.1846C409.745 10.2731 410.29 9.44303 410.729 8.69434H417.346ZM449.475 47.4883C446.252 47.4883 443.664 46.3164 441.711 43.9727C439.774 41.6126 438.806 38.1377 438.806 33.5479C438.806 28.9092 439.79 25.4017 441.76 23.0254C443.745 20.6491 446.358 19.4609 449.597 19.4609C450.964 19.4609 452.16 19.6481 453.186 20.0225C454.211 20.3805 455.09 20.8688 455.822 21.4873C456.571 22.1058 457.206 22.7975 457.727 23.5625H457.995C457.914 23.0579 457.816 22.3337 457.702 21.3896C457.604 20.4294 457.556 19.5423 457.556 18.7285V9.01172H463.317V47H458.825L457.8 43.3135H457.556C457.067 44.0947 456.449 44.8027 455.7 45.4375C454.968 46.056 454.089 46.5524 453.063 46.9268C452.054 47.3011 450.858 47.4883 449.475 47.4883ZM451.086 42.8252C453.544 42.8252 455.277 42.1172 456.286 40.7012C457.295 39.2852 457.816 37.1611 457.849 34.3291V33.5723C457.849 30.5449 457.36 28.2256 456.384 26.6143C455.407 24.9867 453.625 24.1729 451.037 24.1729C448.97 24.1729 447.391 25.0111 446.301 26.6875C445.227 28.3477 444.689 30.667 444.689 33.6455C444.689 36.624 445.227 38.9027 446.301 40.4814C447.391 42.0439 448.986 42.8252 451.086 42.8252ZM482.312 19.4609C484.72 19.4609 486.787 19.9574 488.513 20.9502C490.238 21.943 491.564 23.3509 492.492 25.1738C493.42 26.9967 493.884 29.1777 493.884 31.7168V34.793H475.842C475.907 37.4134 476.607 39.4316 477.941 40.8477C479.292 42.2637 481.18 42.9717 483.605 42.9717C485.331 42.9717 486.877 42.8089 488.244 42.4834C489.628 42.1416 491.052 41.6452 492.517 40.9941V45.6572C491.166 46.292 489.79 46.7559 488.391 47.0488C486.991 47.3418 485.314 47.4883 483.361 47.4883C480.708 47.4883 478.373 46.9756 476.354 45.9502C474.353 44.9085 472.782 43.3623 471.643 41.3115C470.52 39.2607 469.958 36.7135 469.958 33.6699C469.958 30.6426 470.471 28.071 471.496 25.9551C472.521 23.8392 473.962 22.2279 475.817 21.1211C477.673 20.0143 479.838 19.4609 482.312 19.4609ZM482.312 23.7822C480.505 23.7822 479.04 24.3682 477.917 25.54C476.81 26.7119 476.159 28.429 475.964 30.6914H488.269C488.252 29.3405 488.024 28.1442 487.585 27.1025C487.162 26.0609 486.511 25.2471 485.632 24.6611C484.769 24.0752 483.662 23.7822 482.312 23.7822ZM518.518 39.2852C518.518 41.0592 518.086 42.5566 517.224 43.7773C516.361 44.998 515.1 45.9258 513.439 46.5605C511.796 47.179 509.777 47.4883 507.385 47.4883C505.497 47.4883 503.869 47.3499 502.502 47.0732C501.151 46.8128 499.873 46.4059 498.669 45.8525V40.8965C499.955 41.4987 501.395 42.0195 502.99 42.459C504.602 42.8984 506.123 43.1182 507.556 43.1182C509.444 43.1182 510.803 42.8252 511.633 42.2393C512.463 41.637 512.878 40.8395 512.878 39.8467C512.878 39.2607 512.707 38.7399 512.365 38.2842C512.04 37.8122 511.421 37.332 510.51 36.8438C509.615 36.3392 508.296 35.737 506.555 35.0371C504.846 34.3535 503.405 33.6699 502.233 32.9863C501.062 32.3027 500.174 31.4808 499.572 30.5205C498.97 29.5439 498.669 28.2988 498.669 26.7852C498.669 24.3926 499.613 22.5778 501.501 21.3408C503.405 20.0876 505.92 19.4609 509.045 19.4609C510.705 19.4609 512.268 19.6318 513.732 19.9736C515.214 20.2992 516.662 20.7793 518.078 21.4141L516.271 25.7354C515.051 25.1982 513.822 24.7588 512.585 24.417C511.364 24.0589 510.119 23.8799 508.85 23.8799C507.368 23.8799 506.237 24.1077 505.456 24.5635C504.691 25.0192 504.309 25.6702 504.309 26.5166C504.309 27.1514 504.496 27.6885 504.87 28.1279C505.244 28.5674 505.887 29.0068 506.799 29.4463C507.727 29.8857 509.012 30.431 510.656 31.082C512.268 31.7005 513.659 32.3516 514.831 33.0352C516.019 33.7025 516.931 34.5244 517.565 35.501C518.2 36.4775 518.518 37.7389 518.518 39.2852ZM535.607 47.4883C533.052 47.4883 530.839 46.9919 528.967 45.999C527.095 45.0062 525.655 43.4844 524.646 41.4336C523.636 39.3828 523.132 36.7786 523.132 33.6211C523.132 30.3333 523.685 27.6478 524.792 25.5645C525.899 23.4811 527.429 21.943 529.382 20.9502C531.351 19.9574 533.605 19.4609 536.145 19.4609C537.756 19.4609 539.213 19.6237 540.515 19.9492C541.833 20.2585 542.948 20.641 543.859 21.0967L542.15 25.6865C541.158 25.2796 540.14 24.9378 539.099 24.6611C538.057 24.3844 537.056 24.2461 536.096 24.2461C534.517 24.2461 533.199 24.596 532.141 25.2959C531.099 25.9958 530.318 27.0374 529.797 28.4209C529.292 29.8044 529.04 31.5215 529.04 33.5723C529.04 35.5579 529.3 37.2344 529.821 38.6016C530.342 39.9525 531.115 40.9779 532.141 41.6777C533.166 42.3613 534.427 42.7031 535.925 42.7031C537.406 42.7031 538.732 42.5241 539.904 42.166C541.076 41.8079 542.183 41.3441 543.225 40.7744V45.7549C542.199 46.3408 541.101 46.7721 539.929 47.0488C538.757 47.3418 537.316 47.4883 535.607 47.4883ZM560.168 19.4609C563.586 19.4609 566.166 20.2178 567.907 21.7314C569.665 23.2451 570.544 25.6051 570.544 28.8115V47H566.467L565.368 43.167H565.173C564.408 44.1436 563.618 44.9492 562.805 45.584C561.991 46.2188 561.047 46.6908 559.973 47C558.915 47.3255 557.621 47.4883 556.091 47.4883C554.479 47.4883 553.039 47.1953 551.77 46.6094C550.5 46.0072 549.499 45.0957 548.767 43.875C548.034 42.6543 547.668 41.1081 547.668 39.2363C547.668 36.4531 548.701 34.3617 550.769 32.9619C552.852 31.5622 555.993 30.7891 560.192 30.6426L564.88 30.4717V29.0557C564.88 27.1839 564.44 25.8493 563.562 25.0518C562.699 24.2542 561.478 23.8555 559.899 23.8555C558.549 23.8555 557.238 24.0508 555.969 24.4414C554.699 24.832 553.462 25.3122 552.258 25.8818L550.402 21.8291C551.721 21.1292 553.218 20.5596 554.895 20.1201C556.587 19.6807 558.345 19.4609 560.168 19.4609ZM564.855 34.085L561.364 34.207C558.5 34.3047 556.49 34.793 555.334 35.6719C554.178 36.5508 553.601 37.7552 553.601 39.2852C553.601 40.6198 553.999 41.5964 554.797 42.2148C555.594 42.8171 556.644 43.1182 557.946 43.1182C559.932 43.1182 561.576 42.5566 562.878 41.4336C564.196 40.2943 564.855 38.626 564.855 36.4287V34.085ZM592.272 19.4609C592.728 19.4609 593.225 19.4854 593.762 19.5342C594.299 19.583 594.763 19.6481 595.153 19.7295L594.616 25.1006C594.274 25.0029 593.851 24.9297 593.347 24.8809C592.858 24.832 592.419 24.8076 592.028 24.8076C591.003 24.8076 590.026 24.9785 589.099 25.3203C588.171 25.6458 587.349 26.1504 586.633 26.834C585.917 27.5013 585.355 28.3395 584.948 29.3486C584.541 30.3577 584.338 31.5296 584.338 32.8643V47H578.576V19.9736H583.068L583.85 24.7344H584.118C584.655 23.7741 585.323 22.8952 586.12 22.0977C586.918 21.3001 587.829 20.6654 588.854 20.1934C589.896 19.7051 591.035 19.4609 592.272 19.4609ZM610.217 42.8496C610.965 42.8496 611.706 42.7845 612.438 42.6543C613.171 42.5078 613.838 42.3369 614.44 42.1416V46.4873C613.806 46.764 612.984 47 611.975 47.1953C610.965 47.3906 609.916 47.4883 608.825 47.4883C607.295 47.4883 605.92 47.236 604.699 46.7314C603.479 46.2106 602.51 45.3236 601.794 44.0703C601.078 42.8171 600.72 41.0837 600.72 38.8701V24.3438H597.033V21.7803L600.988 19.7539L602.868 13.9678H606.481V19.9736H614.221V24.3438H606.481V38.7969C606.481 40.1641 606.823 41.1813 607.507 41.8486C608.19 42.516 609.094 42.8496 610.217 42.8496ZM630.529 19.4609C633.947 19.4609 636.527 20.2178 638.269 21.7314C640.026 23.2451 640.905 25.6051 640.905 28.8115V47H636.828L635.729 43.167H635.534C634.769 44.1436 633.98 44.9492 633.166 45.584C632.352 46.2188 631.408 46.6908 630.334 47C629.276 47.3255 627.982 47.4883 626.452 47.4883C624.841 47.4883 623.4 47.1953 622.131 46.6094C620.861 46.0072 619.86 45.0957 619.128 43.875C618.396 42.6543 618.029 41.1081 618.029 39.2363C618.029 36.4531 619.063 34.3617 621.13 32.9619C623.213 31.5622 626.354 30.7891 630.554 30.6426L635.241 30.4717V29.0557C635.241 27.1839 634.802 25.8493 633.923 25.0518C633.06 24.2542 631.84 23.8555 630.261 23.8555C628.91 23.8555 627.6 24.0508 626.33 24.4414C625.061 24.832 623.824 25.3122 622.619 25.8818L620.764 21.8291C622.082 21.1292 623.579 20.5596 625.256 20.1201C626.949 19.6807 628.706 19.4609 630.529 19.4609ZM635.217 34.085L631.726 34.207C628.861 34.3047 626.851 34.793 625.695 35.6719C624.54 36.5508 623.962 37.7552 623.962 39.2852C623.962 40.6198 624.361 41.5964 625.158 42.2148C625.956 42.8171 627.006 43.1182 628.308 43.1182C630.293 43.1182 631.937 42.5566 633.239 41.4336C634.558 40.2943 635.217 38.626 635.217 36.4287V34.085ZM638.659 8.69434V9.18262C638.269 9.65462 637.74 10.2243 637.072 10.8916C636.405 11.5426 635.681 12.2344 634.899 12.9668C634.118 13.6829 633.345 14.3747 632.58 15.042C631.815 15.693 631.123 16.2464 630.505 16.7021H626.672V16.0674C627.209 15.4489 627.803 14.7083 628.454 13.8457C629.121 12.9831 629.772 12.096 630.407 11.1846C631.058 10.2731 631.604 9.44303 632.043 8.69434H638.659ZM655.114 47L644.836 19.9736H650.915L656.481 35.8428C656.84 36.8519 657.165 37.9424 657.458 39.1143C657.751 40.2861 657.954 41.2708 658.068 42.0684H658.264C658.378 41.2383 658.597 40.2454 658.923 39.0898C659.248 37.918 659.582 36.8356 659.924 35.8428L665.49 19.9736H671.545L661.267 47H655.114ZM686.413 19.4609C688.822 19.4609 690.889 19.9574 692.614 20.9502C694.34 21.943 695.666 23.3509 696.594 25.1738C697.521 26.9967 697.985 29.1777 697.985 31.7168V34.793H679.943C680.008 37.4134 680.708 39.4316 682.043 40.8477C683.394 42.2637 685.282 42.9717 687.707 42.9717C689.432 42.9717 690.979 42.8089 692.346 42.4834C693.729 42.1416 695.153 41.6452 696.618 40.9941V45.6572C695.267 46.292 693.892 46.7559 692.492 47.0488C691.092 47.3418 689.416 47.4883 687.463 47.4883C684.81 47.4883 682.474 46.9756 680.456 45.9502C678.454 44.9085 676.883 43.3623 675.744 41.3115C674.621 39.2607 674.06 36.7135 674.06 33.6699C674.06 30.6426 674.572 28.071 675.598 25.9551C676.623 23.8392 678.063 22.2279 679.919 21.1211C681.774 20.0143 683.939 19.4609 686.413 19.4609ZM686.413 23.7822C684.606 23.7822 683.142 24.3682 682.019 25.54C680.912 26.7119 680.261 28.429 680.065 30.6914H692.37C692.354 29.3405 692.126 28.1442 691.687 27.1025C691.263 26.0609 690.612 25.2471 689.733 24.6611C688.871 24.0752 687.764 23.7822 686.413 23.7822ZM710.217 47H704.455V9.01172H710.217V47ZM717.59 43.9727C717.59 42.638 717.932 41.7021 718.615 41.165C719.315 40.6117 720.161 40.335 721.154 40.335C722.147 40.335 722.993 40.6117 723.693 41.165C724.41 41.7021 724.768 42.638 724.768 43.9727C724.768 45.2747 724.41 46.2188 723.693 46.8047C722.993 47.3743 722.147 47.6592 721.154 47.6592C720.161 47.6592 719.315 47.3743 718.615 46.8047C717.932 46.2188 717.59 45.2747 717.59 43.9727ZM755.896 19.4609C758.304 19.4609 760.371 19.9574 762.097 20.9502C763.822 21.943 765.148 23.3509 766.076 25.1738C767.004 26.9967 767.468 29.1777 767.468 31.7168V34.793H749.426C749.491 37.4134 750.191 39.4316 751.525 40.8477C752.876 42.2637 754.764 42.9717 757.189 42.9717C758.915 42.9717 760.461 42.8089 761.828 42.4834C763.212 42.1416 764.636 41.6452 766.101 40.9941V45.6572C764.75 46.292 763.374 46.7559 761.975 47.0488C760.575 47.3418 758.898 47.4883 756.945 47.4883C754.292 47.4883 751.957 46.9756 749.938 45.9502C747.937 44.9085 746.366 43.3623 745.227 41.3115C744.104 39.2607 743.542 36.7135 743.542 33.6699C743.542 30.6426 744.055 28.071 745.08 25.9551C746.105 23.8392 747.546 22.2279 749.401 21.1211C751.257 20.0143 753.422 19.4609 755.896 19.4609ZM755.896 23.7822C754.089 23.7822 752.624 24.3682 751.501 25.54C750.394 26.7119 749.743 28.429 749.548 30.6914H761.853C761.836 29.3405 761.608 28.1442 761.169 27.1025C760.746 26.0609 760.095 25.2471 759.216 24.6611C758.353 24.0752 757.246 23.7822 755.896 23.7822ZM797.521 19.4609C800.939 19.4609 803.519 20.2178 805.261 21.7314C807.019 23.2451 807.897 25.6051 807.897 28.8115V47H803.82L802.722 43.167H802.526C801.761 44.1436 800.972 44.9492 800.158 45.584C799.344 46.2188 798.4 46.6908 797.326 47C796.268 47.3255 794.974 47.4883 793.444 47.4883C791.833 47.4883 790.393 47.1953 789.123 46.6094C787.854 46.0072 786.853 45.0957 786.12 43.875C785.388 42.6543 785.021 41.1081 785.021 39.2363C785.021 36.4531 786.055 34.3617 788.122 32.9619C790.205 31.5622 793.347 30.7891 797.546 30.6426L802.233 30.4717V29.0557C802.233 27.1839 801.794 25.8493 800.915 25.0518C800.052 24.2542 798.832 23.8555 797.253 23.8555C795.902 23.8555 794.592 24.0508 793.322 24.4414C792.053 24.832 790.816 25.3122 789.611 25.8818L787.756 21.8291C789.074 21.1292 790.572 20.5596 792.248 20.1201C793.941 19.6807 795.699 19.4609 797.521 19.4609ZM802.209 34.085L798.718 34.207C795.853 34.3047 793.843 34.793 792.688 35.6719C791.532 36.5508 790.954 37.7552 790.954 39.2852C790.954 40.6198 791.353 41.5964 792.15 42.2148C792.948 42.8171 793.998 43.1182 795.3 43.1182C797.285 43.1182 798.929 42.5566 800.231 41.4336C801.55 40.2943 802.209 38.626 802.209 36.4287V34.085ZM834.094 39.2852C834.094 41.0592 833.662 42.5566 832.8 43.7773C831.937 44.998 830.676 45.9258 829.016 46.5605C827.372 47.179 825.354 47.4883 822.961 47.4883C821.073 47.4883 819.445 47.3499 818.078 47.0732C816.727 46.8128 815.45 46.4059 814.245 45.8525V40.8965C815.531 41.4987 816.971 42.0195 818.566 42.459C820.178 42.8984 821.7 43.1182 823.132 43.1182C825.02 43.1182 826.379 42.8252 827.209 42.2393C828.039 41.637 828.454 40.8395 828.454 39.8467C828.454 39.2607 828.283 38.7399 827.941 38.2842C827.616 37.8122 826.997 37.332 826.086 36.8438C825.191 36.3392 823.872 35.737 822.131 35.0371C820.422 34.3535 818.981 33.6699 817.81 32.9863C816.638 32.3027 815.751 31.4808 815.148 30.5205C814.546 29.5439 814.245 28.2988 814.245 26.7852C814.245 24.3926 815.189 22.5778 817.077 21.3408C818.981 20.0876 821.496 19.4609 824.621 19.4609C826.281 19.4609 827.844 19.6318 829.309 19.9736C830.79 20.2992 832.238 20.7793 833.654 21.4141L831.848 25.7354C830.627 25.1982 829.398 24.7588 828.161 24.417C826.94 24.0589 825.695 23.8799 824.426 23.8799C822.945 23.8799 821.813 24.1077 821.032 24.5635C820.267 25.0192 819.885 25.6702 819.885 26.5166C819.885 27.1514 820.072 27.6885 820.446 28.1279C820.821 28.5674 821.464 29.0068 822.375 29.4463C823.303 29.8857 824.589 30.431 826.232 31.082C827.844 31.7005 829.235 32.3516 830.407 33.0352C831.595 33.7025 832.507 34.5244 833.142 35.501C833.776 36.4775 834.094 37.7389 834.094 39.2852ZM863.342 42.8496C864.09 42.8496 864.831 42.7845 865.563 42.6543C866.296 42.5078 866.963 42.3369 867.565 42.1416V46.4873C866.931 46.764 866.109 47 865.1 47.1953C864.09 47.3906 863.041 47.4883 861.95 47.4883C860.42 47.4883 859.045 47.236 857.824 46.7314C856.604 46.2106 855.635 45.3236 854.919 44.0703C854.203 42.8171 853.845 41.0837 853.845 38.8701V24.3438H850.158V21.7803L854.113 19.7539L855.993 13.9678H859.606V19.9736H867.346V24.3438H859.606V38.7969C859.606 40.1641 859.948 41.1813 860.632 41.8486C861.315 42.516 862.219 42.8496 863.342 42.8496ZM896.618 19.9736V47H892.102L891.32 43.3623H891.003C890.433 44.29 889.709 45.0632 888.83 45.6816C887.951 46.2839 886.975 46.7314 885.9 47.0244C884.826 47.3337 883.695 47.4883 882.507 47.4883C880.472 47.4883 878.731 47.1465 877.282 46.4629C875.85 45.763 874.751 44.6888 873.986 43.2402C873.221 41.7917 872.839 39.9199 872.839 37.625V19.9736H878.601V36.5508C878.601 38.6504 879.024 40.221 879.87 41.2627C880.733 42.3044 882.067 42.8252 883.874 42.8252C885.616 42.8252 886.999 42.4671 888.024 41.751C889.05 41.0348 889.774 39.9769 890.197 38.5771C890.637 37.1774 890.856 35.4603 890.856 33.4258V19.9736H896.618ZM915.441 19.4609C918.859 19.4609 921.439 20.2178 923.181 21.7314C924.938 23.2451 925.817 25.6051 925.817 28.8115V47H921.74L920.642 43.167H920.446C919.681 44.1436 918.892 44.9492 918.078 45.584C917.264 46.2188 916.32 46.6908 915.246 47C914.188 47.3255 912.894 47.4883 911.364 47.4883C909.753 47.4883 908.312 47.1953 907.043 46.6094C905.773 46.0072 904.772 45.0957 904.04 43.875C903.308 42.6543 902.941 41.1081 902.941 39.2363C902.941 36.4531 903.975 34.3617 906.042 32.9619C908.125 31.5622 911.267 30.7891 915.466 30.6426L920.153 30.4717V29.0557C920.153 27.1839 919.714 25.8493 918.835 25.0518C917.972 24.2542 916.752 23.8555 915.173 23.8555C913.822 23.8555 912.512 24.0508 911.242 24.4414C909.973 24.832 908.736 25.3122 907.531 25.8818L905.676 21.8291C906.994 21.1292 908.492 20.5596 910.168 20.1201C911.861 19.6807 913.618 19.4609 915.441 19.4609ZM920.129 34.085L916.638 34.207C913.773 34.3047 911.763 34.793 910.607 35.6719C909.452 36.5508 908.874 37.7552 908.874 39.2852C908.874 40.6198 909.273 41.5964 910.07 42.2148C910.868 42.8171 911.918 43.1182 913.22 43.1182C915.205 43.1182 916.849 42.5566 918.151 41.4336C919.47 40.2943 920.129 38.626 920.129 36.4287V34.085ZM952.014 39.2852C952.014 41.0592 951.582 42.5566 950.72 43.7773C949.857 44.998 948.596 45.9258 946.936 46.5605C945.292 47.179 943.273 47.4883 940.881 47.4883C938.993 47.4883 937.365 47.3499 935.998 47.0732C934.647 46.8128 933.369 46.4059 932.165 45.8525V40.8965C933.451 41.4987 934.891 42.0195 936.486 42.459C938.098 42.8984 939.619 43.1182 941.052 43.1182C942.94 43.1182 944.299 42.8252 945.129 42.2393C945.959 41.637 946.374 40.8395 946.374 39.8467C946.374 39.2607 946.203 38.7399 945.861 38.2842C945.536 37.8122 944.917 37.332 944.006 36.8438C943.111 36.3392 941.792 35.737 940.051 35.0371C938.342 34.3535 936.901 33.6699 935.729 32.9863C934.558 32.3027 933.671 31.4808 933.068 30.5205C932.466 29.5439 932.165 28.2988 932.165 26.7852C932.165 24.3926 933.109 22.5778 934.997 21.3408C936.901 20.0876 939.416 19.4609 942.541 19.4609C944.201 19.4609 945.764 19.6318 947.229 19.9736C948.71 20.2992 950.158 20.7793 951.574 21.4141L949.768 25.7354C948.547 25.1982 947.318 24.7588 946.081 24.417C944.86 24.0589 943.615 23.8799 942.346 23.8799C940.865 23.8799 939.733 24.1077 938.952 24.5635C938.187 25.0192 937.805 25.6702 937.805 26.5166C937.805 27.1514 937.992 27.6885 938.366 28.1279C938.741 28.5674 939.383 29.0068 940.295 29.4463C941.223 29.8857 942.508 30.431 944.152 31.082C945.764 31.7005 947.155 32.3516 948.327 33.0352C949.515 33.7025 950.427 34.5244 951.062 35.501C951.696 36.4775 952.014 37.7389 952.014 39.2852ZM1001.75 19.4609C1004.77 19.4609 1007.05 20.2422 1008.58 21.8047C1010.13 23.3672 1010.9 25.8737 1010.9 29.3242V47H1005.16V30.3496C1005.16 28.2988 1004.76 26.7526 1003.97 25.7109C1003.17 24.6693 1001.96 24.1484 1000.33 24.1484C998.05 24.1484 996.407 24.8809 995.397 26.3457C994.405 27.7943 993.908 29.902 993.908 32.6689V47H988.171V30.3496C988.171 28.9824 987.992 27.8431 987.634 26.9316C987.292 26.0039 986.763 25.3122 986.047 24.8564C985.331 24.3844 984.427 24.1484 983.337 24.1484C981.758 24.1484 980.497 24.5065 979.553 25.2227C978.625 25.9388 977.958 26.9967 977.551 28.3965C977.144 29.7799 976.94 31.4808 976.94 33.499V47H971.203V19.9736H975.671L976.477 23.6113H976.794C977.347 22.6673 978.031 21.8942 978.845 21.292C979.675 20.6735 980.594 20.2178 981.604 19.9248C982.613 19.6156 983.662 19.4609 984.753 19.4609C986.771 19.4609 988.472 19.819 989.855 20.5352C991.239 21.235 992.272 22.3092 992.956 23.7578H993.396C994.242 22.293 995.422 21.2106 996.936 20.5107C998.449 19.8109 1000.05 19.4609 1001.75 19.4609ZM1029.67 19.4609C1032.08 19.4609 1034.15 19.9574 1035.88 20.9502C1037.6 21.943 1038.93 23.3509 1039.86 25.1738C1040.78 26.9967 1041.25 29.1777 1041.25 31.7168V34.793H1023.21C1023.27 37.4134 1023.97 39.4316 1025.3 40.8477C1026.66 42.2637 1028.54 42.9717 1030.97 42.9717C1032.69 42.9717 1034.24 42.8089 1035.61 42.4834C1036.99 42.1416 1038.42 41.6452 1039.88 40.9941V45.6572C1038.53 46.292 1037.15 46.7559 1035.75 47.0488C1034.35 47.3418 1032.68 47.4883 1030.72 47.4883C1028.07 47.4883 1025.74 46.9756 1023.72 45.9502C1021.72 44.9085 1020.15 43.3623 1019.01 41.3115C1017.88 39.2607 1017.32 36.7135 1017.32 33.6699C1017.32 30.6426 1017.83 28.071 1018.86 25.9551C1019.88 23.8392 1021.33 22.2279 1023.18 21.1211C1025.04 20.0143 1027.2 19.4609 1029.67 19.4609ZM1029.67 23.7822C1027.87 23.7822 1026.4 24.3682 1025.28 25.54C1024.17 26.7119 1023.52 28.429 1023.33 30.6914H1035.63C1035.62 29.3405 1035.39 28.1442 1034.95 27.1025C1034.53 26.0609 1033.87 25.2471 1033 24.6611C1032.13 24.0752 1031.03 23.7822 1029.67 23.7822ZM1053.45 19.9736V47H1047.72V19.9736H1053.45ZM1050.62 9.62207C1051.5 9.62207 1052.26 9.85807 1052.89 10.3301C1053.54 10.8021 1053.87 11.6159 1053.87 12.7715C1053.87 13.9108 1053.54 14.7246 1052.89 15.2129C1052.26 15.6849 1051.5 15.9209 1050.62 15.9209C1049.71 15.9209 1048.94 15.6849 1048.3 15.2129C1047.68 14.7246 1047.38 13.9108 1047.38 12.7715C1047.38 11.6159 1047.68 10.8021 1048.3 10.3301C1048.94 9.85807 1049.71 9.62207 1050.62 9.62207ZM1072.28 19.4609C1075.7 19.4609 1078.28 20.2178 1080.02 21.7314C1081.77 23.2451 1082.65 25.6051 1082.65 28.8115V47H1078.58L1077.48 43.167H1077.28C1076.52 44.1436 1075.73 44.9492 1074.91 45.584C1074.1 46.2188 1073.16 46.6908 1072.08 47C1071.02 47.3255 1069.73 47.4883 1068.2 47.4883C1066.59 47.4883 1065.15 47.1953 1063.88 46.6094C1062.61 46.0072 1061.61 45.0957 1060.88 43.875C1060.14 42.6543 1059.78 41.1081 1059.78 39.2363C1059.78 36.4531 1060.81 34.3617 1062.88 32.9619C1064.96 31.5622 1068.1 30.7891 1072.3 30.6426L1076.99 30.4717V29.0557C1076.99 27.1839 1076.55 25.8493 1075.67 25.0518C1074.81 24.2542 1073.59 23.8555 1072.01 23.8555C1070.66 23.8555 1069.35 24.0508 1068.08 24.4414C1066.81 24.832 1065.57 25.3122 1064.37 25.8818L1062.51 21.8291C1063.83 21.1292 1065.33 20.5596 1067 20.1201C1068.7 19.6807 1070.45 19.4609 1072.28 19.4609ZM1076.96 34.085L1073.47 34.207C1070.61 34.3047 1068.6 34.793 1067.44 35.6719C1066.29 36.5508 1065.71 37.7552 1065.71 39.2852C1065.71 40.6198 1066.11 41.5964 1066.91 42.2148C1067.7 42.8171 1068.75 43.1182 1070.06 43.1182C1072.04 43.1182 1073.69 42.5566 1074.99 41.4336C1076.31 40.2943 1076.96 38.626 1076.96 36.4287V34.085ZM1108.85 39.2852C1108.85 41.0592 1108.42 42.5566 1107.56 43.7773C1106.69 44.998 1105.43 45.9258 1103.77 46.5605C1102.13 47.179 1100.11 47.4883 1097.72 47.4883C1095.83 47.4883 1094.2 47.3499 1092.83 47.0732C1091.48 46.8128 1090.21 46.4059 1089 45.8525V40.8965C1090.29 41.4987 1091.73 42.0195 1093.32 42.459C1094.93 42.8984 1096.46 43.1182 1097.89 43.1182C1099.78 43.1182 1101.13 42.8252 1101.96 42.2393C1102.79 41.637 1103.21 40.8395 1103.21 39.8467C1103.21 39.2607 1103.04 38.7399 1102.7 38.2842C1102.37 37.8122 1101.75 37.332 1100.84 36.8438C1099.95 36.3392 1098.63 35.737 1096.89 35.0371C1095.18 34.3535 1093.74 33.6699 1092.57 32.9863C1091.39 32.3027 1090.51 31.4808 1089.9 30.5205C1089.3 29.5439 1089 28.2988 1089 26.7852C1089 24.3926 1089.94 22.5778 1091.83 21.3408C1093.74 20.0876 1096.25 19.4609 1099.38 19.4609C1101.04 19.4609 1102.6 19.6318 1104.06 19.9736C1105.55 20.2992 1106.99 20.7793 1108.41 21.4141L1106.6 25.7354C1105.38 25.1982 1104.15 24.7588 1102.92 24.417C1101.7 24.0589 1100.45 23.8799 1099.18 23.8799C1097.7 23.8799 1096.57 24.1077 1095.79 24.5635C1095.02 25.0192 1094.64 25.6702 1094.64 26.5166C1094.64 27.1514 1094.83 27.6885 1095.2 28.1279C1095.58 28.5674 1096.22 29.0068 1097.13 29.4463C1098.06 29.8857 1099.34 30.431 1100.99 31.082C1102.6 31.7005 1103.99 32.3516 1105.16 33.0352C1106.35 33.7025 1107.26 34.5244 1107.9 35.501C1108.53 36.4775 1108.85 37.7389 1108.85 39.2852ZM1138.1 42.8496C1138.85 42.8496 1139.59 42.7845 1140.32 42.6543C1141.05 42.5078 1141.72 42.3369 1142.32 42.1416V46.4873C1141.69 46.764 1140.86 47 1139.86 47.1953C1138.85 47.3906 1137.8 47.4883 1136.71 47.4883C1135.18 47.4883 1133.8 47.236 1132.58 46.7314C1131.36 46.2106 1130.39 45.3236 1129.67 44.0703C1128.96 42.8171 1128.6 41.0837 1128.6 38.8701V24.3438H1124.91V21.7803L1128.87 19.7539L1130.75 13.9678H1134.36V19.9736H1142.1V24.3438H1134.36V38.7969C1134.36 40.1641 1134.7 41.1813 1135.39 41.8486C1136.07 42.516 1136.97 42.8496 1138.1 42.8496ZM1158.41 19.4609C1161.83 19.4609 1164.41 20.2178 1166.15 21.7314C1167.91 23.2451 1168.79 25.6051 1168.79 28.8115V47H1164.71L1163.61 43.167H1163.42C1162.65 44.1436 1161.86 44.9492 1161.05 45.584C1160.23 46.2188 1159.29 46.6908 1158.21 47C1157.16 47.3255 1155.86 47.4883 1154.33 47.4883C1152.72 47.4883 1151.28 47.1953 1150.01 46.6094C1148.74 46.0072 1147.74 45.0957 1147.01 43.875C1146.28 42.6543 1145.91 41.1081 1145.91 39.2363C1145.91 36.4531 1146.94 34.3617 1149.01 32.9619C1151.09 31.5622 1154.24 30.7891 1158.43 30.6426L1163.12 30.4717V29.0557C1163.12 27.1839 1162.68 25.8493 1161.8 25.0518C1160.94 24.2542 1159.72 23.8555 1158.14 23.8555C1156.79 23.8555 1155.48 24.0508 1154.21 24.4414C1152.94 24.832 1151.7 25.3122 1150.5 25.8818L1148.64 21.8291C1149.96 21.1292 1151.46 20.5596 1153.14 20.1201C1154.83 19.6807 1156.59 19.4609 1158.41 19.4609ZM1163.1 34.085L1159.61 34.207C1156.74 34.3047 1154.73 34.793 1153.58 35.6719C1152.42 36.5508 1151.84 37.7552 1151.84 39.2852C1151.84 40.6198 1152.24 41.5964 1153.04 42.2148C1153.84 42.8171 1154.89 43.1182 1156.19 43.1182C1158.17 43.1182 1159.82 42.5566 1161.12 41.4336C1162.44 40.2943 1163.1 38.626 1163.1 36.4287V34.085ZM1207.36 19.4609C1210.39 19.4609 1212.67 20.2422 1214.2 21.8047C1215.74 23.3672 1216.52 25.8737 1216.52 29.3242V47H1210.78V30.3496C1210.78 28.2988 1210.38 26.7526 1209.58 25.7109C1208.78 24.6693 1207.57 24.1484 1205.94 24.1484C1203.67 24.1484 1202.02 24.8809 1201.01 26.3457C1200.02 27.7943 1199.52 29.902 1199.52 32.6689V47H1193.79V30.3496C1193.79 28.9824 1193.61 27.8431 1193.25 26.9316C1192.91 26.0039 1192.38 25.3122 1191.66 24.8564C1190.95 24.3844 1190.04 24.1484 1188.95 24.1484C1187.37 24.1484 1186.11 24.5065 1185.17 25.2227C1184.24 25.9388 1183.57 26.9967 1183.17 28.3965C1182.76 29.7799 1182.56 31.4808 1182.56 33.499V47H1176.82V19.9736H1181.29L1182.09 23.6113H1182.41C1182.96 22.6673 1183.65 21.8942 1184.46 21.292C1185.29 20.6735 1186.21 20.2178 1187.22 19.9248C1188.23 19.6156 1189.28 19.4609 1190.37 19.4609C1192.39 19.4609 1194.09 19.819 1195.47 20.5352C1196.85 21.235 1197.89 22.3092 1198.57 23.7578H1199.01C1199.86 22.293 1201.04 21.2106 1202.55 20.5107C1204.06 19.8109 1205.67 19.4609 1207.36 19.4609ZM1230.26 9.01172V18.167C1230.26 19.2249 1230.23 20.2666 1230.16 21.292C1230.11 22.3011 1230.07 23.0905 1230.02 23.6602H1230.26C1230.99 22.4883 1232.01 21.5036 1233.31 20.7061C1234.63 19.8923 1236.32 19.4854 1238.37 19.4854C1241.57 19.4854 1244.15 20.6654 1246.11 23.0254C1248.06 25.3691 1249.04 28.8441 1249.04 33.4502C1249.04 36.5101 1248.59 39.0817 1247.69 41.165C1246.8 43.2484 1245.54 44.8271 1243.91 45.9014C1242.3 46.9593 1240.4 47.4883 1238.22 47.4883C1236.17 47.4883 1234.51 47.1139 1233.24 46.3652C1231.99 45.6003 1231 44.7132 1230.29 43.7041H1229.87L1228.82 47H1224.52V9.01172H1230.26ZM1236.85 24.1484C1235.22 24.1484 1233.93 24.474 1232.97 25.125C1232.03 25.776 1231.34 26.7526 1230.92 28.0547C1230.5 29.3405 1230.28 30.9762 1230.26 32.9619V33.4746C1230.26 36.4857 1230.73 38.7887 1231.68 40.3838C1232.64 41.9788 1234.38 42.7764 1236.9 42.7764C1238.9 42.7764 1240.44 41.9707 1241.52 40.3594C1242.59 38.7318 1243.13 36.4043 1243.13 33.377C1243.13 30.3171 1242.59 28.014 1241.52 26.4678C1240.46 24.9215 1238.9 24.1484 1236.85 24.1484ZM1266.44 19.4609C1268.85 19.4609 1270.92 19.9574 1272.64 20.9502C1274.37 21.943 1275.7 23.3509 1276.62 25.1738C1277.55 26.9967 1278.01 29.1777 1278.01 31.7168V34.793H1259.97C1260.04 37.4134 1260.74 39.4316 1262.07 40.8477C1263.42 42.2637 1265.31 42.9717 1267.74 42.9717C1269.46 42.9717 1271.01 42.8089 1272.38 42.4834C1273.76 42.1416 1275.18 41.6452 1276.65 40.9941V45.6572C1275.3 46.292 1273.92 46.7559 1272.52 47.0488C1271.12 47.3418 1269.45 47.4883 1267.49 47.4883C1264.84 47.4883 1262.5 46.9756 1260.49 45.9502C1258.48 44.9085 1256.91 43.3623 1255.77 41.3115C1254.65 39.2607 1254.09 36.7135 1254.09 33.6699C1254.09 30.6426 1254.6 28.071 1255.63 25.9551C1256.65 23.8392 1258.09 22.2279 1259.95 21.1211C1261.8 20.0143 1263.97 19.4609 1266.44 19.4609ZM1266.44 23.7822C1264.64 23.7822 1263.17 24.3682 1262.05 25.54C1260.94 26.7119 1260.29 28.429 1260.09 30.6914H1272.4C1272.38 29.3405 1272.16 28.1442 1271.72 27.1025C1271.29 26.0609 1270.64 25.2471 1269.76 24.6611C1268.9 24.0752 1267.79 23.7822 1266.44 23.7822ZM1274.43 8.69434V9.18262C1274.04 9.65462 1273.51 10.2243 1272.84 10.8916C1272.17 11.5426 1271.45 12.2344 1270.67 12.9668C1269.88 13.6829 1269.11 14.3747 1268.35 15.042C1267.58 15.693 1266.89 16.2464 1266.27 16.7021H1262.44V16.0674C1262.98 15.4489 1263.57 14.7083 1264.22 13.8457C1264.89 12.9831 1265.54 12.096 1266.17 11.1846C1266.82 10.2731 1267.37 9.44303 1267.81 8.69434H1274.43ZM1315.03 19.4609C1318.05 19.4609 1320.33 20.2422 1321.86 21.8047C1323.41 23.3672 1324.18 25.8737 1324.18 29.3242V47H1318.44V30.3496C1318.44 28.2988 1318.05 26.7526 1317.25 25.7109C1316.45 24.6693 1315.24 24.1484 1313.61 24.1484C1311.33 24.1484 1309.69 24.8809 1308.68 26.3457C1307.69 27.7943 1307.19 29.902 1307.19 32.6689V47H1301.45V30.3496C1301.45 28.9824 1301.27 27.8431 1300.92 26.9316C1300.57 26.0039 1300.04 25.3122 1299.33 24.8564C1298.61 24.3844 1297.71 24.1484 1296.62 24.1484C1295.04 24.1484 1293.78 24.5065 1292.83 25.2227C1291.91 25.9388 1291.24 26.9967 1290.83 28.3965C1290.43 29.7799 1290.22 31.4808 1290.22 33.499V47H1284.48V19.9736H1288.95L1289.76 23.6113H1290.08C1290.63 22.6673 1291.31 21.8942 1292.13 21.292C1292.96 20.6735 1293.88 20.2178 1294.88 19.9248C1295.89 19.6156 1296.94 19.4609 1298.03 19.4609C1300.05 19.4609 1301.75 19.819 1303.14 20.5352C1304.52 21.235 1305.55 22.3092 1306.24 23.7578H1306.68C1307.52 22.293 1308.7 21.2106 1310.22 20.5107C1311.73 19.8109 1313.33 19.4609 1315.03 19.4609ZM1359.26 19.4609C1362.31 19.4609 1364.68 20.2503 1366.37 21.8291C1368.08 23.3916 1368.93 25.9062 1368.93 29.373V47H1363.2V30.4473C1363.2 28.3477 1362.76 26.777 1361.9 25.7354C1361.04 24.6774 1359.7 24.1484 1357.9 24.1484C1355.28 24.1484 1353.45 24.9541 1352.43 26.5654C1351.42 28.1768 1350.92 30.5124 1350.92 33.5723V47H1345.18V19.9736H1349.65L1350.45 23.6357H1350.77C1351.35 22.6917 1352.08 21.9186 1352.94 21.3164C1353.82 20.6979 1354.8 20.234 1355.87 19.9248C1356.96 19.6156 1358.09 19.4609 1359.26 19.4609ZM1387.56 19.4609C1390.98 19.4609 1393.56 20.2178 1395.3 21.7314C1397.06 23.2451 1397.94 25.6051 1397.94 28.8115V47H1393.86L1392.76 43.167H1392.57C1391.8 44.1436 1391.01 44.9492 1390.2 45.584C1389.38 46.2188 1388.44 46.6908 1387.37 47C1386.31 47.3255 1385.01 47.4883 1383.48 47.4883C1381.87 47.4883 1380.43 47.1953 1379.16 46.6094C1377.89 46.0072 1376.89 45.0957 1376.16 43.875C1375.43 42.6543 1375.06 41.1081 1375.06 39.2363C1375.06 36.4531 1376.09 34.3617 1378.16 32.9619C1380.24 31.5622 1383.39 30.7891 1387.58 30.6426L1392.27 30.4717V29.0557C1392.27 27.1839 1391.83 25.8493 1390.95 25.0518C1390.09 24.2542 1388.87 23.8555 1387.29 23.8555C1385.94 23.8555 1384.63 24.0508 1383.36 24.4414C1382.09 24.832 1380.85 25.3122 1379.65 25.8818L1377.79 21.8291C1379.11 21.1292 1380.61 20.5596 1382.29 20.1201C1383.98 19.6807 1385.74 19.4609 1387.56 19.4609ZM1392.25 34.085L1388.76 34.207C1385.89 34.3047 1383.88 34.793 1382.73 35.6719C1381.57 36.5508 1380.99 37.7552 1380.99 39.2852C1380.99 40.6198 1381.39 41.5964 1382.19 42.2148C1382.99 42.8171 1384.04 43.1182 1385.34 43.1182C1387.32 43.1182 1388.97 42.5566 1390.27 41.4336C1391.59 40.2943 1392.25 38.626 1392.25 36.4287V34.085ZM1377.67 16.6777C1377.77 15.5384 1377.98 14.5456 1378.31 13.6992C1378.63 12.8366 1379.06 12.1204 1379.58 11.5508C1380.11 10.9648 1380.72 10.5254 1381.41 10.2324C1382.11 9.93945 1382.86 9.79297 1383.68 9.79297C1384.39 9.79297 1385.08 9.93132 1385.73 10.208C1386.4 10.4847 1387.04 10.8102 1387.66 11.1846C1388.29 11.5426 1388.9 11.86 1389.49 12.1367C1390.09 12.4134 1390.67 12.5518 1391.22 12.5518C1391.86 12.5518 1392.39 12.3239 1392.83 11.8682C1393.29 11.4124 1393.63 10.7044 1393.86 9.74414H1396.86C1396.67 11.9902 1396.02 13.7074 1394.93 14.8955C1393.84 16.0674 1392.48 16.6533 1390.86 16.6533C1390.17 16.6533 1389.5 16.515 1388.83 16.2383C1388.18 15.9453 1387.54 15.6198 1386.93 15.2617C1386.31 14.9036 1385.7 14.5863 1385.09 14.3096C1384.49 14.0329 1383.91 13.8945 1383.34 13.8945C1382.69 13.8945 1382.13 14.1224 1381.68 14.5781C1381.24 15.0339 1380.91 15.7337 1380.7 16.6777H1377.67ZM1429.89 33.4258C1429.89 35.6719 1429.6 37.6657 1429.02 39.4072C1428.43 41.1488 1427.58 42.6217 1426.45 43.8262C1425.33 45.0143 1423.98 45.9258 1422.4 46.5605C1420.82 47.179 1419.04 47.4883 1417.05 47.4883C1415.2 47.4883 1413.5 47.179 1411.95 46.5605C1410.4 45.9258 1409.06 45.0143 1407.92 43.8262C1406.8 42.6217 1405.93 41.1488 1405.31 39.4072C1404.69 37.6657 1404.38 35.6719 1404.38 33.4258C1404.38 30.4473 1404.89 27.9245 1405.92 25.8574C1406.96 23.7741 1408.44 22.1872 1410.36 21.0967C1412.28 20.0062 1414.57 19.4609 1417.22 19.4609C1419.71 19.4609 1421.91 20.0062 1423.82 21.0967C1425.72 22.1872 1427.21 23.7741 1428.28 25.8574C1429.36 27.9408 1429.89 30.4635 1429.89 33.4258ZM1410.29 33.4258C1410.29 35.3952 1410.53 37.0798 1411 38.4795C1411.49 39.8792 1412.24 40.9535 1413.24 41.7021C1414.25 42.4346 1415.56 42.8008 1417.15 42.8008C1418.75 42.8008 1420.05 42.4346 1421.06 41.7021C1422.07 40.9535 1422.81 39.8792 1423.28 38.4795C1423.75 37.0798 1423.99 35.3952 1423.99 33.4258C1423.99 31.4564 1423.75 29.7881 1423.28 28.4209C1422.81 27.0374 1422.07 25.9876 1421.06 25.2715C1420.05 24.5391 1418.74 24.1729 1417.13 24.1729C1414.75 24.1729 1413.02 24.9704 1411.93 26.5654C1410.84 28.1605 1410.29 30.4473 1410.29 33.4258ZM1435.66 43.9727C1435.66 42.638 1436 41.7021 1436.68 41.165C1437.38 40.6117 1438.23 40.335 1439.22 40.335C1440.21 40.335 1441.06 40.6117 1441.76 41.165C1442.48 41.7021 1442.83 42.638 1442.83 43.9727C1442.83 45.2747 1442.48 46.2188 1441.76 46.8047C1441.06 47.3743 1440.21 47.6592 1439.22 47.6592C1438.23 47.6592 1437.38 47.3743 1436.68 46.8047C1436 46.2188 1435.66 45.2747 1435.66 43.9727Z" fill="#BD4747"/>
</svg>
