<svg width="1428" height="55" viewBox="0 0 1428 55" fill="none" xmlns="http://www.w3.org/2000/svg">
<path id="para trazer ao de cima todo o potencial do corpo e da mente!" d="M17.1982 19.7539C20.5348 19.7539 23.196 20.9014 25.1816 23.1963C27.1673 25.4912 28.1602 28.9417 28.1602 33.5479C28.1602 36.5915 27.7044 39.1468 26.793 41.2139C25.8815 43.2809 24.5957 44.8434 22.9355 45.9014C21.2917 46.9593 19.3467 47.4883 17.1006 47.4883C15.6846 47.4883 14.4395 47.3011 13.3652 46.9268C12.291 46.5524 11.3714 46.0479 10.6064 45.4131C9.84147 44.7783 9.20671 44.0866 8.70215 43.3379H8.40918C8.45801 43.9727 8.51497 44.7376 8.58008 45.6328C8.66146 46.528 8.70215 47.3092 8.70215 47.9766V58.9629H4.625V20.2422H7.96973L8.50684 24.1973H8.70215C9.22298 23.3835 9.85775 22.6429 10.6064 21.9756C11.3551 21.292 12.2666 20.7549 13.3408 20.3643C14.4313 19.9574 15.7171 19.7539 17.1982 19.7539ZM16.4902 23.1719C14.6348 23.1719 13.1374 23.5299 11.998 24.2461C10.875 24.9622 10.0531 26.0365 9.53223 27.4688C9.01139 28.8848 8.7347 30.667 8.70215 32.8154V33.5967C8.70215 35.859 8.94629 37.7715 9.43457 39.334C9.93913 40.8965 10.7611 42.0846 11.9004 42.8984C13.056 43.7122 14.6022 44.1191 16.5391 44.1191C18.1992 44.1191 19.5827 43.6715 20.6895 42.7764C21.7962 41.8812 22.6182 40.6361 23.1553 39.041C23.7087 37.4297 23.9854 35.5824 23.9854 33.499C23.9854 30.3415 23.3669 27.835 22.1299 25.9795C20.9092 24.1077 19.0293 23.1719 16.4902 23.1719ZM45.25 19.8027C48.4401 19.8027 50.8083 20.5189 52.3545 21.9512C53.9007 23.3835 54.6738 25.6702 54.6738 28.8115V47H51.7197L50.9385 43.0449H50.7432C49.9945 44.0215 49.2132 44.8434 48.3994 45.5107C47.5856 46.1618 46.6416 46.6582 45.5674 47C44.5094 47.3255 43.2074 47.4883 41.6611 47.4883C40.0335 47.4883 38.585 47.2035 37.3154 46.6338C36.0622 46.0641 35.0693 45.2015 34.3369 44.0459C33.6208 42.8903 33.2627 41.4255 33.2627 39.6514C33.2627 36.9821 34.3206 34.9313 36.4365 33.499C38.5524 32.0667 41.7751 31.2855 46.1045 31.1553L50.7188 30.96V29.3242C50.7188 27.013 50.2223 25.3936 49.2295 24.4658C48.2367 23.5381 46.8369 23.0742 45.0303 23.0742C43.6305 23.0742 42.2959 23.2777 41.0264 23.6846C39.7568 24.0915 38.5524 24.5716 37.4131 25.125L36.168 22.0488C37.3724 21.4303 38.7559 20.9014 40.3184 20.4619C41.8809 20.0225 43.5247 19.8027 45.25 19.8027ZM50.6699 33.8164L46.5928 33.9873C43.2562 34.1175 40.9043 34.6628 39.5371 35.623C38.1699 36.5833 37.4863 37.9424 37.4863 39.7002C37.4863 41.2301 37.9502 42.3613 38.8779 43.0938C39.8057 43.8262 41.0345 44.1924 42.5645 44.1924C44.9408 44.1924 46.8857 43.5332 48.3994 42.2148C49.9131 40.8965 50.6699 38.9189 50.6699 36.2822V33.8164ZM75.1816 19.7539C75.7188 19.7539 76.2803 19.7865 76.8662 19.8516C77.4521 19.9004 77.973 19.9736 78.4287 20.0713L77.916 23.8311C77.4766 23.7171 76.9883 23.6276 76.4512 23.5625C75.9141 23.4974 75.4095 23.4648 74.9375 23.4648C73.8633 23.4648 72.846 23.6846 71.8857 24.124C70.9417 24.5472 70.1117 25.1657 69.3955 25.9795C68.6794 26.777 68.1178 27.7454 67.7109 28.8848C67.304 30.0078 67.1006 31.2611 67.1006 32.6445V47H63.0234V20.2422H66.3926L66.832 25.1738H67.0029C67.5563 24.181 68.2236 23.2777 69.0049 22.4639C69.7861 21.6338 70.6895 20.9746 71.7148 20.4863C72.7565 19.998 73.9121 19.7539 75.1816 19.7539ZM93.4922 19.8027C96.6823 19.8027 99.0505 20.5189 100.597 21.9512C102.143 23.3835 102.916 25.6702 102.916 28.8115V47H99.9619L99.1807 43.0449H98.9854C98.2367 44.0215 97.4554 44.8434 96.6416 45.5107C95.8278 46.1618 94.8838 46.6582 93.8096 47C92.7516 47.3255 91.4495 47.4883 89.9033 47.4883C88.2757 47.4883 86.8271 47.2035 85.5576 46.6338C84.3044 46.0641 83.3115 45.2015 82.5791 44.0459C81.863 42.8903 81.5049 41.4255 81.5049 39.6514C81.5049 36.9821 82.5628 34.9313 84.6787 33.499C86.7946 32.0667 90.0173 31.2855 94.3467 31.1553L98.9609 30.96V29.3242C98.9609 27.013 98.4645 25.3936 97.4717 24.4658C96.4788 23.5381 95.0791 23.0742 93.2725 23.0742C91.8727 23.0742 90.5381 23.2777 89.2686 23.6846C87.999 24.0915 86.7946 24.5716 85.6553 25.125L84.4102 22.0488C85.6146 21.4303 86.998 20.9014 88.5605 20.4619C90.123 20.0225 91.7669 19.8027 93.4922 19.8027ZM98.9121 33.8164L94.835 33.9873C91.4984 34.1175 89.1465 34.6628 87.7793 35.623C86.4121 36.5833 85.7285 37.9424 85.7285 39.7002C85.7285 41.2301 86.1924 42.3613 87.1201 43.0938C88.0479 43.8262 89.2767 44.1924 90.8066 44.1924C93.1829 44.1924 95.1279 43.5332 96.6416 42.2148C98.1553 40.8965 98.9121 38.9189 98.9121 36.2822V33.8164ZM132.896 44.168C133.564 44.168 134.247 44.111 134.947 43.9971C135.647 43.8831 136.217 43.7448 136.656 43.582V46.7314C136.184 46.943 135.525 47.1221 134.679 47.2686C133.849 47.415 133.035 47.4883 132.237 47.4883C130.821 47.4883 129.535 47.2441 128.38 46.7559C127.224 46.2513 126.297 45.4049 125.597 44.2168C124.913 43.0286 124.571 41.3848 124.571 39.2852V23.416H120.763V21.4385L124.596 19.8516L126.207 14.041H128.648V20.2422H136.485V23.416H128.648V39.1631C128.648 40.8395 129.031 42.0928 129.796 42.9229C130.577 43.7529 131.611 44.168 132.896 44.168ZM154.234 19.7539C154.771 19.7539 155.333 19.7865 155.919 19.8516C156.505 19.9004 157.026 19.9736 157.481 20.0713L156.969 23.8311C156.529 23.7171 156.041 23.6276 155.504 23.5625C154.967 23.4974 154.462 23.4648 153.99 23.4648C152.916 23.4648 151.899 23.6846 150.938 24.124C149.994 24.5472 149.164 25.1657 148.448 25.9795C147.732 26.777 147.171 27.7454 146.764 28.8848C146.357 30.0078 146.153 31.2611 146.153 32.6445V47H142.076V20.2422H145.445L145.885 25.1738H146.056C146.609 24.181 147.276 23.2777 148.058 22.4639C148.839 21.6338 149.742 20.9746 150.768 20.4863C151.809 19.998 152.965 19.7539 154.234 19.7539ZM172.545 19.8027C175.735 19.8027 178.103 20.5189 179.649 21.9512C181.196 23.3835 181.969 25.6702 181.969 28.8115V47H179.015L178.233 43.0449H178.038C177.289 44.0215 176.508 44.8434 175.694 45.5107C174.881 46.1618 173.937 46.6582 172.862 47C171.804 47.3255 170.502 47.4883 168.956 47.4883C167.328 47.4883 165.88 47.2035 164.61 46.6338C163.357 46.0641 162.364 45.2015 161.632 44.0459C160.916 42.8903 160.558 41.4255 160.558 39.6514C160.558 36.9821 161.616 34.9313 163.731 33.499C165.847 32.0667 169.07 31.2855 173.399 31.1553L178.014 30.96V29.3242C178.014 27.013 177.517 25.3936 176.524 24.4658C175.532 23.5381 174.132 23.0742 172.325 23.0742C170.925 23.0742 169.591 23.2777 168.321 23.6846C167.052 24.0915 165.847 24.5716 164.708 25.125L163.463 22.0488C164.667 21.4303 166.051 20.9014 167.613 20.4619C169.176 20.0225 170.82 19.8027 172.545 19.8027ZM177.965 33.8164L173.888 33.9873C170.551 34.1175 168.199 34.6628 166.832 35.623C165.465 36.5833 164.781 37.9424 164.781 39.7002C164.781 41.2301 165.245 42.3613 166.173 43.0938C167.101 43.8262 168.329 44.1924 169.859 44.1924C172.236 44.1924 174.181 43.5332 175.694 42.2148C177.208 40.8965 177.965 38.9189 177.965 36.2822V33.8164ZM207.506 47H187.999V44.3145L202.672 23.416H188.927V20.2422H207.188V23.2451L192.711 43.8506H207.506V47ZM224.059 19.7539C226.337 19.7539 228.29 20.2585 229.918 21.2676C231.546 22.2767 232.791 23.6927 233.653 25.5156C234.516 27.3223 234.947 29.4382 234.947 31.8633V34.3779H216.466C216.515 37.5192 217.296 39.9118 218.81 41.5557C220.323 43.1995 222.455 44.0215 225.206 44.0215C226.899 44.0215 228.396 43.8669 229.698 43.5576C231 43.2484 232.351 42.7926 233.751 42.1904V45.7549C232.4 46.3571 231.057 46.7965 229.723 47.0732C228.404 47.3499 226.842 47.4883 225.035 47.4883C222.464 47.4883 220.217 46.9674 218.297 45.9258C216.393 44.8678 214.911 43.3216 213.854 41.2871C212.796 39.2526 212.267 36.7624 212.267 33.8164C212.267 30.9355 212.747 28.4453 213.707 26.3457C214.684 24.2298 216.051 22.6022 217.809 21.4629C219.583 20.3236 221.666 19.7539 224.059 19.7539ZM224.01 23.0742C221.845 23.0742 220.12 23.7822 218.834 25.1982C217.548 26.6143 216.783 28.5918 216.539 31.1309H230.699C230.683 29.5358 230.431 28.1361 229.942 26.9316C229.47 25.7109 228.746 24.7669 227.77 24.0996C226.793 23.416 225.54 23.0742 224.01 23.0742ZM253.99 19.7539C254.527 19.7539 255.089 19.7865 255.675 19.8516C256.261 19.9004 256.782 19.9736 257.237 20.0713L256.725 23.8311C256.285 23.7171 255.797 23.6276 255.26 23.5625C254.723 23.4974 254.218 23.4648 253.746 23.4648C252.672 23.4648 251.655 23.6846 250.694 24.124C249.75 24.5472 248.92 25.1657 248.204 25.9795C247.488 26.777 246.926 27.7454 246.52 28.8848C246.113 30.0078 245.909 31.2611 245.909 32.6445V47H241.832V20.2422H245.201L245.641 25.1738H245.812C246.365 24.181 247.032 23.2777 247.813 22.4639C248.595 21.6338 249.498 20.9746 250.523 20.4863C251.565 19.998 252.721 19.7539 253.99 19.7539ZM285.289 19.8027C288.479 19.8027 290.847 20.5189 292.394 21.9512C293.94 23.3835 294.713 25.6702 294.713 28.8115V47H291.759L290.978 43.0449H290.782C290.034 44.0215 289.252 44.8434 288.438 45.5107C287.625 46.1618 286.681 46.6582 285.606 47C284.549 47.3255 283.246 47.4883 281.7 47.4883C280.073 47.4883 278.624 47.2035 277.354 46.6338C276.101 46.0641 275.108 45.2015 274.376 44.0459C273.66 42.8903 273.302 41.4255 273.302 39.6514C273.302 36.9821 274.36 34.9313 276.476 33.499C278.591 32.0667 281.814 31.2855 286.144 31.1553L290.758 30.96V29.3242C290.758 27.013 290.261 25.3936 289.269 24.4658C288.276 23.5381 286.876 23.0742 285.069 23.0742C283.67 23.0742 282.335 23.2777 281.065 23.6846C279.796 24.0915 278.591 24.5716 277.452 25.125L276.207 22.0488C277.411 21.4303 278.795 20.9014 280.357 20.4619C281.92 20.0225 283.564 19.8027 285.289 19.8027ZM290.709 33.8164L286.632 33.9873C283.295 34.1175 280.943 34.6628 279.576 35.623C278.209 36.5833 277.525 37.9424 277.525 39.7002C277.525 41.2301 277.989 42.3613 278.917 43.0938C279.845 43.8262 281.074 44.1924 282.604 44.1924C284.98 44.1924 286.925 43.5332 288.438 42.2148C289.952 40.8965 290.709 38.9189 290.709 36.2822V33.8164ZM326.134 33.5723C326.134 35.7695 325.849 37.7308 325.279 39.4561C324.71 41.1813 323.888 42.638 322.813 43.8262C321.739 45.0143 320.437 45.9258 318.907 46.5605C317.394 47.179 315.676 47.4883 313.756 47.4883C311.965 47.4883 310.322 47.179 308.824 46.5605C307.343 45.9258 306.057 45.0143 304.967 43.8262C303.893 42.638 303.054 41.1813 302.452 39.4561C301.866 37.7308 301.573 35.7695 301.573 33.5723C301.573 30.6426 302.07 28.1523 303.062 26.1016C304.055 24.0345 305.471 22.4639 307.311 21.3896C309.166 20.2992 311.371 19.7539 313.927 19.7539C316.368 19.7539 318.5 20.2992 320.323 21.3896C322.162 22.4801 323.587 24.0589 324.596 26.126C325.621 28.1768 326.134 30.6589 326.134 33.5723ZM305.772 33.5723C305.772 35.7207 306.057 37.5843 306.627 39.1631C307.197 40.7419 308.076 41.9626 309.264 42.8252C310.452 43.6878 311.982 44.1191 313.854 44.1191C315.709 44.1191 317.231 43.6878 318.419 42.8252C319.623 41.9626 320.51 40.7419 321.08 39.1631C321.65 37.5843 321.935 35.7207 321.935 33.5723C321.935 31.4401 321.65 29.6009 321.08 28.0547C320.51 26.4922 319.632 25.2878 318.443 24.4414C317.255 23.5951 315.717 23.1719 313.829 23.1719C311.046 23.1719 309.003 24.0915 307.701 25.9307C306.415 27.7699 305.772 30.3171 305.772 33.5723ZM355.65 47.4883C352.265 47.4883 349.579 46.3327 347.594 44.0215C345.624 41.7103 344.64 38.276 344.64 33.7188C344.64 29.1126 345.649 25.6377 347.667 23.2939C349.685 20.9339 352.371 19.7539 355.724 19.7539C357.14 19.7539 358.377 19.9411 359.435 20.3154C360.493 20.6898 361.404 21.1943 362.169 21.8291C362.934 22.4476 363.577 23.1556 364.098 23.9531H364.391C364.326 23.4486 364.26 22.7568 364.195 21.8779C364.13 20.999 364.098 20.2829 364.098 19.7295V9.01172H368.15V47H364.879L364.269 43.1914H364.098C363.593 43.9889 362.95 44.7132 362.169 45.3643C361.404 46.0153 360.484 46.5361 359.41 46.9268C358.352 47.3011 357.099 47.4883 355.65 47.4883ZM356.285 44.1191C359.15 44.1191 361.176 43.3053 362.364 41.6777C363.552 40.0501 364.146 37.6331 364.146 34.4268V33.6943C364.146 30.2926 363.577 27.6803 362.438 25.8574C361.314 24.0345 359.264 23.123 356.285 23.123C353.795 23.123 351.931 24.0833 350.694 26.0039C349.457 27.9082 348.839 30.5124 348.839 33.8164C348.839 37.1042 349.449 39.6432 350.67 41.4336C351.907 43.224 353.779 44.1191 356.285 44.1191ZM387.047 19.7539C389.326 19.7539 391.279 20.2585 392.906 21.2676C394.534 22.2767 395.779 23.6927 396.642 25.5156C397.504 27.3223 397.936 29.4382 397.936 31.8633V34.3779H379.454C379.503 37.5192 380.284 39.9118 381.798 41.5557C383.312 43.1995 385.444 44.0215 388.194 44.0215C389.887 44.0215 391.384 43.8669 392.687 43.5576C393.989 43.2484 395.34 42.7926 396.739 42.1904V45.7549C395.388 46.3571 394.046 46.7965 392.711 47.0732C391.393 47.3499 389.83 47.4883 388.023 47.4883C385.452 47.4883 383.206 46.9674 381.285 45.9258C379.381 44.8678 377.9 43.3216 376.842 41.2871C375.784 39.2526 375.255 36.7624 375.255 33.8164C375.255 30.9355 375.735 28.4453 376.695 26.3457C377.672 24.2298 379.039 22.6022 380.797 21.4629C382.571 20.3236 384.654 19.7539 387.047 19.7539ZM386.998 23.0742C384.833 23.0742 383.108 23.7822 381.822 25.1982C380.536 26.6143 379.771 28.5918 379.527 31.1309H393.688C393.671 29.5358 393.419 28.1361 392.931 26.9316C392.459 25.7109 391.734 24.7669 390.758 24.0996C389.781 23.416 388.528 23.0742 386.998 23.0742ZM428.526 47.4883C426.118 47.4883 423.993 46.9919 422.154 45.999C420.315 45.0062 418.883 43.4925 417.857 41.458C416.832 39.4235 416.319 36.86 416.319 33.7676C416.319 30.5286 416.856 27.8838 417.931 25.833C419.021 23.766 420.519 22.236 422.423 21.2432C424.327 20.2503 426.492 19.7539 428.917 19.7539C430.252 19.7539 431.537 19.8923 432.774 20.1689C434.028 20.4294 435.053 20.763 435.851 21.1699L434.63 24.5635C433.816 24.238 432.872 23.945 431.798 23.6846C430.74 23.4242 429.747 23.2939 428.819 23.2939C426.964 23.2939 425.418 23.6927 424.181 24.4902C422.96 25.2878 422.04 26.4596 421.422 28.0059C420.82 29.5521 420.519 31.4564 420.519 33.7188C420.519 35.8835 420.812 37.7308 421.397 39.2607C422 40.7907 422.887 41.9626 424.059 42.7764C425.247 43.5739 426.728 43.9727 428.502 43.9727C429.918 43.9727 431.196 43.8262 432.335 43.5332C433.474 43.224 434.508 42.8659 435.436 42.459V46.0723C434.54 46.528 433.539 46.8779 432.433 47.1221C431.342 47.3662 430.04 47.4883 428.526 47.4883ZM445.836 20.2422V47H441.783V20.2422H445.836ZM443.858 10.2324C444.526 10.2324 445.095 10.4521 445.567 10.8916C446.056 11.3148 446.3 11.9821 446.3 12.8936C446.3 13.7887 446.056 14.4561 445.567 14.8955C445.095 15.335 444.526 15.5547 443.858 15.5547C443.159 15.5547 442.573 15.335 442.101 14.8955C441.645 14.4561 441.417 13.7887 441.417 12.8936C441.417 11.9821 441.645 11.3148 442.101 10.8916C442.573 10.4521 443.159 10.2324 443.858 10.2324ZM483.482 19.7539C486.428 19.7539 488.65 20.527 490.147 22.0732C491.645 23.6032 492.394 26.069 492.394 29.4707V47H488.39V29.666C488.39 27.5013 487.918 25.8818 486.974 24.8076C486.046 23.7171 484.662 23.1719 482.823 23.1719C480.235 23.1719 478.355 23.9206 477.184 25.418C476.012 26.9154 475.426 29.1208 475.426 32.0342V47H471.397V29.666C471.397 28.2174 471.186 27.013 470.763 26.0527C470.356 25.0924 469.737 24.3763 468.907 23.9043C468.093 23.416 467.06 23.1719 465.807 23.1719C464.033 23.1719 462.608 23.5381 461.534 24.2705C460.46 25.0029 459.679 26.0934 459.19 27.542C458.718 28.9743 458.482 30.7402 458.482 32.8398V47H454.43V20.2422H457.701L458.312 24.0264H458.531C459.068 23.0986 459.744 22.3174 460.558 21.6826C461.371 21.0479 462.283 20.5677 463.292 20.2422C464.301 19.9167 465.375 19.7539 466.515 19.7539C468.549 19.7539 470.25 20.1364 471.617 20.9014C473.001 21.6501 474.002 22.7975 474.62 24.3438H474.84C475.719 22.7975 476.923 21.6501 478.453 20.9014C479.983 20.1364 481.66 19.7539 483.482 19.7539ZM510.729 19.8027C513.919 19.8027 516.287 20.5189 517.833 21.9512C519.379 23.3835 520.152 25.6702 520.152 28.8115V47H517.198L516.417 43.0449H516.222C515.473 44.0215 514.692 44.8434 513.878 45.5107C513.064 46.1618 512.12 46.6582 511.046 47C509.988 47.3255 508.686 47.4883 507.14 47.4883C505.512 47.4883 504.063 47.2035 502.794 46.6338C501.541 46.0641 500.548 45.2015 499.815 44.0459C499.099 42.8903 498.741 41.4255 498.741 39.6514C498.741 36.9821 499.799 34.9313 501.915 33.499C504.031 32.0667 507.254 31.2855 511.583 31.1553L516.197 30.96V29.3242C516.197 27.013 515.701 25.3936 514.708 24.4658C513.715 23.5381 512.315 23.0742 510.509 23.0742C509.109 23.0742 507.774 23.2777 506.505 23.6846C505.235 24.0915 504.031 24.5716 502.892 25.125L501.646 22.0488C502.851 21.4303 504.234 20.9014 505.797 20.4619C507.359 20.0225 509.003 19.8027 510.729 19.8027ZM516.148 33.8164L512.071 33.9873C508.735 34.1175 506.383 34.6628 505.016 35.623C503.648 36.5833 502.965 37.9424 502.965 39.7002C502.965 41.2301 503.429 42.3613 504.356 43.0938C505.284 43.8262 506.513 44.1924 508.043 44.1924C510.419 44.1924 512.364 43.5332 513.878 42.2148C515.392 40.8965 516.148 38.9189 516.148 36.2822V33.8164ZM550.133 44.168C550.8 44.168 551.484 44.111 552.184 43.9971C552.883 43.8831 553.453 43.7448 553.893 43.582V46.7314C553.421 46.943 552.761 47.1221 551.915 47.2686C551.085 47.415 550.271 47.4883 549.474 47.4883C548.058 47.4883 546.772 47.2441 545.616 46.7559C544.461 46.2513 543.533 45.4049 542.833 44.2168C542.149 43.0286 541.808 41.3848 541.808 39.2852V23.416H537.999V21.4385L541.832 19.8516L543.443 14.041H545.885V20.2422H553.722V23.416H545.885V39.1631C545.885 40.8395 546.267 42.0928 547.032 42.9229C547.813 43.7529 548.847 44.168 550.133 44.168ZM582.384 33.5723C582.384 35.7695 582.099 37.7308 581.529 39.4561C580.96 41.1813 580.138 42.638 579.063 43.8262C577.989 45.0143 576.687 45.9258 575.157 46.5605C573.644 47.179 571.926 47.4883 570.006 47.4883C568.215 47.4883 566.572 47.179 565.074 46.5605C563.593 45.9258 562.307 45.0143 561.217 43.8262C560.143 42.638 559.304 41.1813 558.702 39.4561C558.116 37.7308 557.823 35.7695 557.823 33.5723C557.823 30.6426 558.32 28.1523 559.312 26.1016C560.305 24.0345 561.721 22.4639 563.561 21.3896C565.416 20.2992 567.621 19.7539 570.177 19.7539C572.618 19.7539 574.75 20.2992 576.573 21.3896C578.412 22.4801 579.837 24.0589 580.846 26.126C581.871 28.1768 582.384 30.6589 582.384 33.5723ZM562.022 33.5723C562.022 35.7207 562.307 37.5843 562.877 39.1631C563.447 40.7419 564.326 41.9626 565.514 42.8252C566.702 43.6878 568.232 44.1191 570.104 44.1191C571.959 44.1191 573.481 43.6878 574.669 42.8252C575.873 41.9626 576.76 40.7419 577.33 39.1631C577.9 37.5843 578.185 35.7207 578.185 33.5723C578.185 31.4401 577.9 29.6009 577.33 28.0547C576.76 26.4922 575.882 25.2878 574.693 24.4414C573.505 23.5951 571.967 23.1719 570.079 23.1719C567.296 23.1719 565.253 24.0915 563.951 25.9307C562.665 27.7699 562.022 30.3171 562.022 33.5723ZM598.912 47.4883C595.527 47.4883 592.841 46.3327 590.855 44.0215C588.886 41.7103 587.901 38.276 587.901 33.7188C587.901 29.1126 588.91 25.6377 590.929 23.2939C592.947 20.9339 595.632 19.7539 598.985 19.7539C600.401 19.7539 601.638 19.9411 602.696 20.3154C603.754 20.6898 604.666 21.1943 605.431 21.8291C606.196 22.4476 606.839 23.1556 607.359 23.9531H607.652C607.587 23.4486 607.522 22.7568 607.457 21.8779C607.392 20.999 607.359 20.2829 607.359 19.7295V9.01172H611.412V47H608.141L607.53 43.1914H607.359C606.855 43.9889 606.212 44.7132 605.431 45.3643C604.666 46.0153 603.746 46.5361 602.672 46.9268C601.614 47.3011 600.361 47.4883 598.912 47.4883ZM599.547 44.1191C602.411 44.1191 604.438 43.3053 605.626 41.6777C606.814 40.0501 607.408 37.6331 607.408 34.4268V33.6943C607.408 30.2926 606.839 27.6803 605.699 25.8574C604.576 24.0345 602.525 23.123 599.547 23.123C597.057 23.123 595.193 24.0833 593.956 26.0039C592.719 27.9082 592.101 30.5124 592.101 33.8164C592.101 37.1042 592.711 39.6432 593.932 41.4336C595.169 43.224 597.04 44.1191 599.547 44.1191ZM643.077 33.5723C643.077 35.7695 642.792 37.7308 642.223 39.4561C641.653 41.1813 640.831 42.638 639.757 43.8262C638.683 45.0143 637.381 45.9258 635.851 46.5605C634.337 47.179 632.62 47.4883 630.699 47.4883C628.909 47.4883 627.265 47.179 625.768 46.5605C624.286 45.9258 623.001 45.0143 621.91 43.8262C620.836 42.638 619.998 41.1813 619.396 39.4561C618.81 37.7308 618.517 35.7695 618.517 33.5723C618.517 30.6426 619.013 28.1523 620.006 26.1016C620.999 24.0345 622.415 22.4639 624.254 21.3896C626.109 20.2992 628.315 19.7539 630.87 19.7539C633.312 19.7539 635.444 20.2992 637.267 21.3896C639.106 22.4801 640.53 24.0589 641.539 26.126C642.564 28.1768 643.077 30.6589 643.077 33.5723ZM622.716 33.5723C622.716 35.7207 623.001 37.5843 623.57 39.1631C624.14 40.7419 625.019 41.9626 626.207 42.8252C627.395 43.6878 628.925 44.1191 630.797 44.1191C632.652 44.1191 634.174 43.6878 635.362 42.8252C636.567 41.9626 637.454 40.7419 638.023 39.1631C638.593 37.5843 638.878 35.7207 638.878 33.5723C638.878 31.4401 638.593 29.6009 638.023 28.0547C637.454 26.4922 636.575 25.2878 635.387 24.4414C634.199 23.5951 632.66 23.1719 630.772 23.1719C627.989 23.1719 625.947 24.0915 624.645 25.9307C623.359 27.7699 622.716 30.3171 622.716 33.5723ZM686.144 33.5723C686.144 35.7695 685.859 37.7308 685.289 39.4561C684.719 41.1813 683.897 42.638 682.823 43.8262C681.749 45.0143 680.447 45.9258 678.917 46.5605C677.403 47.179 675.686 47.4883 673.766 47.4883C671.975 47.4883 670.331 47.179 668.834 46.5605C667.353 45.9258 666.067 45.0143 664.977 43.8262C663.902 42.638 663.064 41.1813 662.462 39.4561C661.876 37.7308 661.583 35.7695 661.583 33.5723C661.583 30.6426 662.079 28.1523 663.072 26.1016C664.065 24.0345 665.481 22.4639 667.32 21.3896C669.176 20.2992 671.381 19.7539 673.937 19.7539C676.378 19.7539 678.51 20.2992 680.333 21.3896C682.172 22.4801 683.596 24.0589 684.605 26.126C685.631 28.1768 686.144 30.6589 686.144 33.5723ZM665.782 33.5723C665.782 35.7207 666.067 37.5843 666.637 39.1631C667.206 40.7419 668.085 41.9626 669.273 42.8252C670.462 43.6878 671.992 44.1191 673.863 44.1191C675.719 44.1191 677.241 43.6878 678.429 42.8252C679.633 41.9626 680.52 40.7419 681.09 39.1631C681.66 37.5843 681.944 35.7207 681.944 33.5723C681.944 31.4401 681.66 29.6009 681.09 28.0547C680.52 26.4922 679.641 25.2878 678.453 24.4414C677.265 23.5951 675.727 23.1719 673.839 23.1719C671.056 23.1719 669.013 24.0915 667.711 25.9307C666.425 27.7699 665.782 30.3171 665.782 33.5723ZM718.712 19.7539C722.049 19.7539 724.71 20.9014 726.695 23.1963C728.681 25.4912 729.674 28.9417 729.674 33.5479C729.674 36.5915 729.218 39.1468 728.307 41.2139C727.395 43.2809 726.109 44.8434 724.449 45.9014C722.805 46.9593 720.86 47.4883 718.614 47.4883C717.198 47.4883 715.953 47.3011 714.879 46.9268C713.805 46.5524 712.885 46.0479 712.12 45.4131C711.355 44.7783 710.72 44.0866 710.216 43.3379H709.923C709.972 43.9727 710.029 44.7376 710.094 45.6328C710.175 46.528 710.216 47.3092 710.216 47.9766V58.9629H706.139V20.2422H709.483L710.021 24.1973H710.216C710.737 23.3835 711.371 22.6429 712.12 21.9756C712.869 21.292 713.78 20.7549 714.854 20.3643C715.945 19.9574 717.231 19.7539 718.712 19.7539ZM718.004 23.1719C716.148 23.1719 714.651 23.5299 713.512 24.2461C712.389 24.9622 711.567 26.0365 711.046 27.4688C710.525 28.8848 710.248 30.667 710.216 32.8154V33.5967C710.216 35.859 710.46 37.7715 710.948 39.334C711.453 40.8965 712.275 42.0846 713.414 42.8984C714.57 43.7122 716.116 44.1191 718.053 44.1191C719.713 44.1191 721.096 43.6715 722.203 42.7764C723.31 41.8812 724.132 40.6361 724.669 39.041C725.222 37.4297 725.499 35.5824 725.499 33.499C725.499 30.3415 724.881 27.835 723.644 25.9795C722.423 24.1077 720.543 23.1719 718.004 23.1719ZM759.825 33.5723C759.825 35.7695 759.54 37.7308 758.971 39.4561C758.401 41.1813 757.579 42.638 756.505 43.8262C755.431 45.0143 754.129 45.9258 752.599 46.5605C751.085 47.179 749.368 47.4883 747.447 47.4883C745.657 47.4883 744.013 47.179 742.516 46.5605C741.035 45.9258 739.749 45.0143 738.658 43.8262C737.584 42.638 736.746 41.1813 736.144 39.4561C735.558 37.7308 735.265 35.7695 735.265 33.5723C735.265 30.6426 735.761 28.1523 736.754 26.1016C737.747 24.0345 739.163 22.4639 741.002 21.3896C742.857 20.2992 745.063 19.7539 747.618 19.7539C750.06 19.7539 752.192 20.2992 754.015 21.3896C755.854 22.4801 757.278 24.0589 758.287 26.126C759.312 28.1768 759.825 30.6589 759.825 33.5723ZM739.464 33.5723C739.464 35.7207 739.749 37.5843 740.318 39.1631C740.888 40.7419 741.767 41.9626 742.955 42.8252C744.143 43.6878 745.673 44.1191 747.545 44.1191C749.4 44.1191 750.922 43.6878 752.11 42.8252C753.315 41.9626 754.202 40.7419 754.771 39.1631C755.341 37.5843 755.626 35.7207 755.626 33.5723C755.626 31.4401 755.341 29.6009 754.771 28.0547C754.202 26.4922 753.323 25.2878 752.135 24.4414C750.947 23.5951 749.409 23.1719 747.521 23.1719C744.737 23.1719 742.695 24.0915 741.393 25.9307C740.107 27.7699 739.464 30.3171 739.464 33.5723ZM775.475 44.168C776.142 44.168 776.826 44.111 777.525 43.9971C778.225 43.8831 778.795 43.7448 779.234 43.582V46.7314C778.762 46.943 778.103 47.1221 777.257 47.2686C776.427 47.415 775.613 47.4883 774.815 47.4883C773.399 47.4883 772.114 47.2441 770.958 46.7559C769.802 46.2513 768.875 45.4049 768.175 44.2168C767.491 43.0286 767.149 41.3848 767.149 39.2852V23.416H763.341V21.4385L767.174 19.8516L768.785 14.041H771.227V20.2422H779.063V23.416H771.227V39.1631C771.227 40.8395 771.609 42.0928 772.374 42.9229C773.155 43.7529 774.189 44.168 775.475 44.168ZM794.957 19.7539C797.236 19.7539 799.189 20.2585 800.816 21.2676C802.444 22.2767 803.689 23.6927 804.552 25.5156C805.414 27.3223 805.846 29.4382 805.846 31.8633V34.3779H787.364C787.413 37.5192 788.194 39.9118 789.708 41.5557C791.222 43.1995 793.354 44.0215 796.104 44.0215C797.797 44.0215 799.295 43.8669 800.597 43.5576C801.899 43.2484 803.25 42.7926 804.649 42.1904V45.7549C803.299 46.3571 801.956 46.7965 800.621 47.0732C799.303 47.3499 797.74 47.4883 795.934 47.4883C793.362 47.4883 791.116 46.9674 789.195 45.9258C787.291 44.8678 785.81 43.3216 784.752 41.2871C783.694 39.2526 783.165 36.7624 783.165 33.8164C783.165 30.9355 783.645 28.4453 784.605 26.3457C785.582 24.2298 786.949 22.6022 788.707 21.4629C790.481 20.3236 792.564 19.7539 794.957 19.7539ZM794.908 23.0742C792.743 23.0742 791.018 23.7822 789.732 25.1982C788.447 26.6143 787.682 28.5918 787.438 31.1309H801.598C801.581 29.5358 801.329 28.1361 800.841 26.9316C800.369 25.7109 799.645 24.7669 798.668 24.0996C797.691 23.416 796.438 23.0742 794.908 23.0742ZM825.401 19.7539C828.575 19.7539 830.976 20.5352 832.604 22.0977C834.231 23.6439 835.045 26.1341 835.045 29.5684V47H831.041V29.8369C831.041 27.6071 830.528 25.9388 829.503 24.832C828.494 23.7253 826.939 23.1719 824.84 23.1719C821.878 23.1719 819.794 24.0101 818.59 25.6865C817.385 27.363 816.783 29.7962 816.783 32.9863V47H812.73V20.2422H816.002L816.612 24.0996H816.832C817.402 23.1556 818.126 22.3662 819.005 21.7314C819.884 21.0804 820.868 20.5921 821.959 20.2666C823.049 19.9248 824.197 19.7539 825.401 19.7539ZM854.112 47.4883C851.703 47.4883 849.579 46.9919 847.74 45.999C845.901 45.0062 844.469 43.4925 843.443 41.458C842.418 39.4235 841.905 36.86 841.905 33.7676C841.905 30.5286 842.442 27.8838 843.517 25.833C844.607 23.766 846.104 22.236 848.009 21.2432C849.913 20.2503 852.078 19.7539 854.503 19.7539C855.838 19.7539 857.123 19.8923 858.36 20.1689C859.614 20.4294 860.639 20.763 861.437 21.1699L860.216 24.5635C859.402 24.238 858.458 23.945 857.384 23.6846C856.326 23.4242 855.333 23.2939 854.405 23.2939C852.55 23.2939 851.004 23.6927 849.767 24.4902C848.546 25.2878 847.626 26.4596 847.008 28.0059C846.406 29.5521 846.104 31.4564 846.104 33.7188C846.104 35.8835 846.397 37.7308 846.983 39.2607C847.586 40.7907 848.473 41.9626 849.645 42.7764C850.833 43.5739 852.314 43.9727 854.088 43.9727C855.504 43.9727 856.782 43.8262 857.921 43.5332C859.06 43.224 860.094 42.8659 861.021 42.459V46.0723C860.126 46.528 859.125 46.8779 858.019 47.1221C856.928 47.3662 855.626 47.4883 854.112 47.4883ZM871.422 20.2422V47H867.369V20.2422H871.422ZM869.444 10.2324C870.112 10.2324 870.681 10.4521 871.153 10.8916C871.642 11.3148 871.886 11.9821 871.886 12.8936C871.886 13.7887 871.642 14.4561 871.153 14.8955C870.681 15.335 870.112 15.5547 869.444 15.5547C868.744 15.5547 868.159 15.335 867.687 14.8955C867.231 14.4561 867.003 13.7887 867.003 12.8936C867.003 11.9821 867.231 11.3148 867.687 10.8916C868.159 10.4521 868.744 10.2324 869.444 10.2324ZM890.025 19.8027C893.215 19.8027 895.584 20.5189 897.13 21.9512C898.676 23.3835 899.449 25.6702 899.449 28.8115V47H896.495L895.714 43.0449H895.519C894.77 44.0215 893.989 44.8434 893.175 45.5107C892.361 46.1618 891.417 46.6582 890.343 47C889.285 47.3255 887.983 47.4883 886.437 47.4883C884.809 47.4883 883.36 47.2035 882.091 46.6338C880.838 46.0641 879.845 45.2015 879.112 44.0459C878.396 42.8903 878.038 41.4255 878.038 39.6514C878.038 36.9821 879.096 34.9313 881.212 33.499C883.328 32.0667 886.55 31.2855 890.88 31.1553L895.494 30.96V29.3242C895.494 27.013 894.998 25.3936 894.005 24.4658C893.012 23.5381 891.612 23.0742 889.806 23.0742C888.406 23.0742 887.071 23.2777 885.802 23.6846C884.532 24.0915 883.328 24.5716 882.188 25.125L880.943 22.0488C882.148 21.4303 883.531 20.9014 885.094 20.4619C886.656 20.0225 888.3 19.8027 890.025 19.8027ZM895.445 33.8164L891.368 33.9873C888.032 34.1175 885.68 34.6628 884.312 35.623C882.945 36.5833 882.262 37.9424 882.262 39.7002C882.262 41.2301 882.726 42.3613 883.653 43.0938C884.581 43.8262 885.81 44.1924 887.34 44.1924C889.716 44.1924 891.661 43.5332 893.175 42.2148C894.688 40.8965 895.445 38.9189 895.445 36.2822V33.8164ZM911.876 47H907.799V9.01172H911.876V47ZM942.955 47.4883C939.57 47.4883 936.884 46.3327 934.898 44.0215C932.929 41.7103 931.944 38.276 931.944 33.7188C931.944 29.1126 932.953 25.6377 934.972 23.2939C936.99 20.9339 939.675 19.7539 943.028 19.7539C944.444 19.7539 945.681 19.9411 946.739 20.3154C947.797 20.6898 948.709 21.1943 949.474 21.8291C950.239 22.4476 950.882 23.1556 951.402 23.9531H951.695C951.63 23.4486 951.565 22.7568 951.5 21.8779C951.435 20.999 951.402 20.2829 951.402 19.7295V9.01172H955.455V47H952.184L951.573 43.1914H951.402C950.898 43.9889 950.255 44.7132 949.474 45.3643C948.709 46.0153 947.789 46.5361 946.715 46.9268C945.657 47.3011 944.404 47.4883 942.955 47.4883ZM943.59 44.1191C946.454 44.1191 948.481 43.3053 949.669 41.6777C950.857 40.0501 951.451 37.6331 951.451 34.4268V33.6943C951.451 30.2926 950.882 27.6803 949.742 25.8574C948.619 24.0345 946.568 23.123 943.59 23.123C941.1 23.123 939.236 24.0833 937.999 26.0039C936.762 27.9082 936.144 30.5124 936.144 33.8164C936.144 37.1042 936.754 39.6432 937.975 41.4336C939.212 43.224 941.083 44.1191 943.59 44.1191ZM987.12 33.5723C987.12 35.7695 986.835 37.7308 986.266 39.4561C985.696 41.1813 984.874 42.638 983.8 43.8262C982.726 45.0143 981.424 45.9258 979.894 46.5605C978.38 47.179 976.663 47.4883 974.742 47.4883C972.952 47.4883 971.308 47.179 969.811 46.5605C968.329 45.9258 967.044 45.0143 965.953 43.8262C964.879 42.638 964.041 41.1813 963.438 39.4561C962.853 37.7308 962.56 35.7695 962.56 33.5723C962.56 30.6426 963.056 28.1523 964.049 26.1016C965.042 24.0345 966.458 22.4639 968.297 21.3896C970.152 20.2992 972.358 19.7539 974.913 19.7539C977.354 19.7539 979.487 20.2992 981.31 21.3896C983.149 22.4801 984.573 24.0589 985.582 26.126C986.607 28.1768 987.12 30.6589 987.12 33.5723ZM966.759 33.5723C966.759 35.7207 967.044 37.5843 967.613 39.1631C968.183 40.7419 969.062 41.9626 970.25 42.8252C971.438 43.6878 972.968 44.1191 974.84 44.1191C976.695 44.1191 978.217 43.6878 979.405 42.8252C980.61 41.9626 981.497 40.7419 982.066 39.1631C982.636 37.5843 982.921 35.7207 982.921 33.5723C982.921 31.4401 982.636 29.6009 982.066 28.0547C981.497 26.4922 980.618 25.2878 979.43 24.4414C978.242 23.5951 976.703 23.1719 974.815 23.1719C972.032 23.1719 969.99 24.0915 968.688 25.9307C967.402 27.7699 966.759 30.3171 966.759 33.5723ZM1017.83 47.4883C1015.42 47.4883 1013.3 46.9919 1011.46 45.999C1009.62 45.0062 1008.19 43.4925 1007.16 41.458C1006.14 39.4235 1005.63 36.86 1005.63 33.7676C1005.63 30.5286 1006.16 27.8838 1007.24 25.833C1008.33 23.766 1009.83 22.236 1011.73 21.2432C1013.63 20.2503 1015.8 19.7539 1018.22 19.7539C1019.56 19.7539 1020.84 19.8923 1022.08 20.1689C1023.33 20.4294 1024.36 20.763 1025.16 21.1699L1023.94 24.5635C1023.12 24.238 1022.18 23.945 1021.1 23.6846C1020.05 23.4242 1019.05 23.2939 1018.13 23.2939C1016.27 23.2939 1014.72 23.6927 1013.49 24.4902C1012.27 25.2878 1011.35 26.4596 1010.73 28.0059C1010.13 29.5521 1009.83 31.4564 1009.83 33.7188C1009.83 35.8835 1010.12 37.7308 1010.7 39.2607C1011.31 40.7907 1012.19 41.9626 1013.37 42.7764C1014.55 43.5739 1016.03 43.9727 1017.81 43.9727C1019.22 43.9727 1020.5 43.8262 1021.64 43.5332C1022.78 43.224 1023.81 42.8659 1024.74 42.459V46.0723C1023.85 46.528 1022.85 46.8779 1021.74 47.1221C1020.65 47.3662 1019.35 47.4883 1017.83 47.4883ZM1054.16 33.5723C1054.16 35.7695 1053.88 37.7308 1053.31 39.4561C1052.74 41.1813 1051.92 42.638 1050.84 43.8262C1049.77 45.0143 1048.46 45.9258 1046.93 46.5605C1045.42 47.179 1043.7 47.4883 1041.78 47.4883C1039.99 47.4883 1038.35 47.179 1036.85 46.5605C1035.37 45.9258 1034.08 45.0143 1032.99 43.8262C1031.92 42.638 1031.08 41.1813 1030.48 39.4561C1029.89 37.7308 1029.6 35.7695 1029.6 33.5723C1029.6 30.6426 1030.1 28.1523 1031.09 26.1016C1032.08 24.0345 1033.5 22.4639 1035.34 21.3896C1037.19 20.2992 1039.4 19.7539 1041.95 19.7539C1044.4 19.7539 1046.53 20.2992 1048.35 21.3896C1050.19 22.4801 1051.61 24.0589 1052.62 26.126C1053.65 28.1768 1054.16 30.6589 1054.16 33.5723ZM1033.8 33.5723C1033.8 35.7207 1034.08 37.5843 1034.65 39.1631C1035.22 40.7419 1036.1 41.9626 1037.29 42.8252C1038.48 43.6878 1040.01 44.1191 1041.88 44.1191C1043.74 44.1191 1045.26 43.6878 1046.45 42.8252C1047.65 41.9626 1048.54 40.7419 1049.11 39.1631C1049.68 37.5843 1049.96 35.7207 1049.96 33.5723C1049.96 31.4401 1049.68 29.6009 1049.11 28.0547C1048.54 26.4922 1047.66 25.2878 1046.47 24.4414C1045.28 23.5951 1043.74 23.1719 1041.86 23.1719C1039.07 23.1719 1037.03 24.0915 1035.73 25.9307C1034.44 27.7699 1033.8 30.3171 1033.8 33.5723ZM1073.33 19.7539C1073.86 19.7539 1074.42 19.7865 1075.01 19.8516C1075.6 19.9004 1076.12 19.9736 1076.57 20.0713L1076.06 23.8311C1075.62 23.7171 1075.13 23.6276 1074.6 23.5625C1074.06 23.4974 1073.55 23.4648 1073.08 23.4648C1072.01 23.4648 1070.99 23.6846 1070.03 24.124C1069.09 24.5472 1068.26 25.1657 1067.54 25.9795C1066.82 26.777 1066.26 27.7454 1065.86 28.8848C1065.45 30.0078 1065.25 31.2611 1065.25 32.6445V47H1061.17V20.2422H1064.54L1064.98 25.1738H1065.15C1065.7 24.181 1066.37 23.2777 1067.15 22.4639C1067.93 21.6338 1068.83 20.9746 1069.86 20.4863C1070.9 19.998 1072.06 19.7539 1073.33 19.7539ZM1094.2 19.7539C1097.54 19.7539 1100.2 20.9014 1102.18 23.1963C1104.17 25.4912 1105.16 28.9417 1105.16 33.5479C1105.16 36.5915 1104.71 39.1468 1103.79 41.2139C1102.88 43.2809 1101.6 44.8434 1099.94 45.9014C1098.29 46.9593 1096.35 47.4883 1094.1 47.4883C1092.69 47.4883 1091.44 47.3011 1090.37 46.9268C1089.29 46.5524 1088.37 46.0479 1087.61 45.4131C1086.84 44.7783 1086.21 44.0866 1085.7 43.3379H1085.41C1085.46 43.9727 1085.52 44.7376 1085.58 45.6328C1085.66 46.528 1085.7 47.3092 1085.7 47.9766V58.9629H1081.63V20.2422H1084.97L1085.51 24.1973H1085.7C1086.22 23.3835 1086.86 22.6429 1087.61 21.9756C1088.36 21.292 1089.27 20.7549 1090.34 20.3643C1091.43 19.9574 1092.72 19.7539 1094.2 19.7539ZM1093.49 23.1719C1091.64 23.1719 1090.14 23.5299 1089 24.2461C1087.88 24.9622 1087.06 26.0365 1086.53 27.4688C1086.01 28.8848 1085.74 30.667 1085.7 32.8154V33.5967C1085.7 35.859 1085.95 37.7715 1086.44 39.334C1086.94 40.8965 1087.76 42.0846 1088.9 42.8984C1090.06 43.7122 1091.6 44.1191 1093.54 44.1191C1095.2 44.1191 1096.58 43.6715 1097.69 42.7764C1098.8 41.8812 1099.62 40.6361 1100.16 39.041C1100.71 37.4297 1100.99 35.5824 1100.99 33.499C1100.99 30.3415 1100.37 27.835 1099.13 25.9795C1097.91 24.1077 1096.03 23.1719 1093.49 23.1719ZM1135.31 33.5723C1135.31 35.7695 1135.03 37.7308 1134.46 39.4561C1133.89 41.1813 1133.07 42.638 1131.99 43.8262C1130.92 45.0143 1129.62 45.9258 1128.09 46.5605C1126.57 47.179 1124.86 47.4883 1122.94 47.4883C1121.15 47.4883 1119.5 47.179 1118 46.5605C1116.52 45.9258 1115.24 45.0143 1114.15 43.8262C1113.07 42.638 1112.23 41.1813 1111.63 39.4561C1111.05 37.7308 1110.75 35.7695 1110.75 33.5723C1110.75 30.6426 1111.25 28.1523 1112.24 26.1016C1113.24 24.0345 1114.65 22.4639 1116.49 21.3896C1118.35 20.2992 1120.55 19.7539 1123.11 19.7539C1125.55 19.7539 1127.68 20.2992 1129.5 21.3896C1131.34 22.4801 1132.77 24.0589 1133.78 26.126C1134.8 28.1768 1135.31 30.6589 1135.31 33.5723ZM1114.95 33.5723C1114.95 35.7207 1115.24 37.5843 1115.81 39.1631C1116.38 40.7419 1117.26 41.9626 1118.44 42.8252C1119.63 43.6878 1121.16 44.1191 1123.03 44.1191C1124.89 44.1191 1126.41 43.6878 1127.6 42.8252C1128.8 41.9626 1129.69 40.7419 1130.26 39.1631C1130.83 37.5843 1131.11 35.7207 1131.11 33.5723C1131.11 31.4401 1130.83 29.6009 1130.26 28.0547C1129.69 26.4922 1128.81 25.2878 1127.62 24.4414C1126.43 23.5951 1124.9 23.1719 1123.01 23.1719C1120.23 23.1719 1118.18 24.0915 1116.88 25.9307C1115.6 27.7699 1114.95 30.3171 1114.95 33.5723ZM1165.61 19.7539C1167.89 19.7539 1169.84 20.2585 1171.47 21.2676C1173.1 22.2767 1174.34 23.6927 1175.21 25.5156C1176.07 27.3223 1176.5 29.4382 1176.5 31.8633V34.3779H1158.02C1158.07 37.5192 1158.85 39.9118 1160.36 41.5557C1161.88 43.1995 1164.01 44.0215 1166.76 44.0215C1168.45 44.0215 1169.95 43.8669 1171.25 43.5576C1172.55 43.2484 1173.9 42.7926 1175.3 42.1904V45.7549C1173.95 46.3571 1172.61 46.7965 1171.28 47.0732C1169.96 47.3499 1168.39 47.4883 1166.59 47.4883C1164.02 47.4883 1161.77 46.9674 1159.85 45.9258C1157.95 44.8678 1156.46 43.3216 1155.41 41.2871C1154.35 39.2526 1153.82 36.7624 1153.82 33.8164C1153.82 30.9355 1154.3 28.4453 1155.26 26.3457C1156.24 24.2298 1157.6 22.6022 1159.36 21.4629C1161.14 20.3236 1163.22 19.7539 1165.61 19.7539ZM1165.56 23.0742C1163.4 23.0742 1161.67 23.7822 1160.39 25.1982C1159.1 26.6143 1158.34 28.5918 1158.09 31.1309H1172.25C1172.24 29.5358 1171.98 28.1361 1171.5 26.9316C1171.02 25.7109 1170.3 24.7669 1169.32 24.0996C1168.35 23.416 1167.09 23.0742 1165.56 23.0742ZM1205.89 47.4883C1202.51 47.4883 1199.82 46.3327 1197.84 44.0215C1195.87 41.7103 1194.88 38.276 1194.88 33.7188C1194.88 29.1126 1195.89 25.6377 1197.91 23.2939C1199.93 20.9339 1202.61 19.7539 1205.97 19.7539C1207.38 19.7539 1208.62 19.9411 1209.68 20.3154C1210.74 20.6898 1211.65 21.1943 1212.41 21.8291C1213.18 22.4476 1213.82 23.1556 1214.34 23.9531H1214.63C1214.57 23.4486 1214.5 22.7568 1214.44 21.8779C1214.37 20.999 1214.34 20.2829 1214.34 19.7295V9.01172H1218.39V47H1215.12L1214.51 43.1914H1214.34C1213.84 43.9889 1213.19 44.7132 1212.41 45.3643C1211.65 46.0153 1210.73 46.5361 1209.65 46.9268C1208.6 47.3011 1207.34 47.4883 1205.89 47.4883ZM1206.53 44.1191C1209.39 44.1191 1211.42 43.3053 1212.61 41.6777C1213.8 40.0501 1214.39 37.6331 1214.39 34.4268V33.6943C1214.39 30.2926 1213.82 27.6803 1212.68 25.8574C1211.56 24.0345 1209.51 23.123 1206.53 23.123C1204.04 23.123 1202.18 24.0833 1200.94 26.0039C1199.7 27.9082 1199.08 30.5124 1199.08 33.8164C1199.08 37.1042 1199.69 39.6432 1200.91 41.4336C1202.15 43.224 1204.02 44.1191 1206.53 44.1191ZM1237 19.8027C1240.19 19.8027 1242.56 20.5189 1244.1 21.9512C1245.65 23.3835 1246.42 25.6702 1246.42 28.8115V47H1243.47L1242.69 43.0449H1242.49C1241.74 44.0215 1240.96 44.8434 1240.15 45.5107C1239.33 46.1618 1238.39 46.6582 1237.32 47C1236.26 47.3255 1234.96 47.4883 1233.41 47.4883C1231.78 47.4883 1230.33 47.2035 1229.06 46.6338C1227.81 46.0641 1226.82 45.2015 1226.08 44.0459C1225.37 42.8903 1225.01 41.4255 1225.01 39.6514C1225.01 36.9821 1226.07 34.9313 1228.18 33.499C1230.3 32.0667 1233.52 31.2855 1237.85 31.1553L1242.47 30.96V29.3242C1242.47 27.013 1241.97 25.3936 1240.98 24.4658C1239.98 23.5381 1238.58 23.0742 1236.78 23.0742C1235.38 23.0742 1234.04 23.2777 1232.77 23.6846C1231.5 24.0915 1230.3 24.5716 1229.16 25.125L1227.92 22.0488C1229.12 21.4303 1230.5 20.9014 1232.07 20.4619C1233.63 20.0225 1235.27 19.8027 1237 19.8027ZM1242.42 33.8164L1238.34 33.9873C1235 34.1175 1232.65 34.6628 1231.29 35.623C1229.92 36.5833 1229.23 37.9424 1229.23 39.7002C1229.23 41.2301 1229.7 42.3613 1230.63 43.0938C1231.55 43.8262 1232.78 44.1924 1234.31 44.1924C1236.69 44.1924 1238.63 43.5332 1240.15 42.2148C1241.66 40.8965 1242.42 38.9189 1242.42 36.2822V33.8164ZM1296.81 19.7539C1299.76 19.7539 1301.98 20.527 1303.48 22.0732C1304.97 23.6032 1305.72 26.069 1305.72 29.4707V47H1301.72V29.666C1301.72 27.5013 1301.25 25.8818 1300.3 24.8076C1299.38 23.7171 1297.99 23.1719 1296.15 23.1719C1293.57 23.1719 1291.69 23.9206 1290.51 25.418C1289.34 26.9154 1288.76 29.1208 1288.76 32.0342V47H1284.73V29.666C1284.73 28.2174 1284.52 27.013 1284.09 26.0527C1283.69 25.0924 1283.07 24.3763 1282.24 23.9043C1281.42 23.416 1280.39 23.1719 1279.14 23.1719C1277.36 23.1719 1275.94 23.5381 1274.86 24.2705C1273.79 25.0029 1273.01 26.0934 1272.52 27.542C1272.05 28.9743 1271.81 30.7402 1271.81 32.8398V47H1267.76V20.2422H1271.03L1271.64 24.0264H1271.86C1272.4 23.0986 1273.07 22.3174 1273.89 21.6826C1274.7 21.0479 1275.61 20.5677 1276.62 20.2422C1277.63 19.9167 1278.71 19.7539 1279.84 19.7539C1281.88 19.7539 1283.58 20.1364 1284.95 20.9014C1286.33 21.6501 1287.33 22.7975 1287.95 24.3438H1288.17C1289.05 22.7975 1290.25 21.6501 1291.78 20.9014C1293.31 20.1364 1294.99 19.7539 1296.81 19.7539ZM1324.35 19.7539C1326.63 19.7539 1328.58 20.2585 1330.21 21.2676C1331.84 22.2767 1333.08 23.6927 1333.95 25.5156C1334.81 27.3223 1335.24 29.4382 1335.24 31.8633V34.3779H1316.76C1316.81 37.5192 1317.59 39.9118 1319.1 41.5557C1320.62 43.1995 1322.75 44.0215 1325.5 44.0215C1327.19 44.0215 1328.69 43.8669 1329.99 43.5576C1331.29 43.2484 1332.64 42.7926 1334.04 42.1904V45.7549C1332.69 46.3571 1331.35 46.7965 1330.02 47.0732C1328.7 47.3499 1327.13 47.4883 1325.33 47.4883C1322.76 47.4883 1320.51 46.9674 1318.59 45.9258C1316.69 44.8678 1315.2 43.3216 1314.15 41.2871C1313.09 39.2526 1312.56 36.7624 1312.56 33.8164C1312.56 30.9355 1313.04 28.4453 1314 26.3457C1314.98 24.2298 1316.34 22.6022 1318.1 21.4629C1319.88 20.3236 1321.96 19.7539 1324.35 19.7539ZM1324.3 23.0742C1322.14 23.0742 1320.41 23.7822 1319.13 25.1982C1317.84 26.6143 1317.08 28.5918 1316.83 31.1309H1330.99C1330.98 29.5358 1330.72 28.1361 1330.24 26.9316C1329.76 25.7109 1329.04 24.7669 1328.06 24.0996C1327.09 23.416 1325.83 23.0742 1324.3 23.0742ZM1354.8 19.7539C1357.97 19.7539 1360.37 20.5352 1362 22.0977C1363.63 23.6439 1364.44 26.1341 1364.44 29.5684V47H1360.44V29.8369C1360.44 27.6071 1359.92 25.9388 1358.9 24.832C1357.89 23.7253 1356.33 23.1719 1354.23 23.1719C1351.27 23.1719 1349.19 24.0101 1347.98 25.6865C1346.78 27.363 1346.18 29.7962 1346.18 32.9863V47H1342.12V20.2422H1345.4L1346.01 24.0996H1346.23C1346.8 23.1556 1347.52 22.3662 1348.4 21.7314C1349.28 21.0804 1350.26 20.5921 1351.35 20.2666C1352.44 19.9248 1353.59 19.7539 1354.8 19.7539ZM1381.43 44.168C1382.1 44.168 1382.78 44.111 1383.48 43.9971C1384.18 43.8831 1384.75 43.7448 1385.19 43.582V46.7314C1384.72 46.943 1384.06 47.1221 1383.21 47.2686C1382.38 47.415 1381.57 47.4883 1380.77 47.4883C1379.36 47.4883 1378.07 47.2441 1376.92 46.7559C1375.76 46.2513 1374.83 45.4049 1374.13 44.2168C1373.45 43.0286 1373.11 41.3848 1373.11 39.2852V23.416H1369.3V21.4385L1373.13 19.8516L1374.74 14.041H1377.18V20.2422H1385.02V23.416H1377.18V39.1631C1377.18 40.8395 1377.57 42.0928 1378.33 42.9229C1379.11 43.7529 1380.15 44.168 1381.43 44.168ZM1400.91 19.7539C1403.19 19.7539 1405.15 20.2585 1406.77 21.2676C1408.4 22.2767 1409.65 23.6927 1410.51 25.5156C1411.37 27.3223 1411.8 29.4382 1411.8 31.8633V34.3779H1393.32C1393.37 37.5192 1394.15 39.9118 1395.67 41.5557C1397.18 43.1995 1399.31 44.0215 1402.06 44.0215C1403.75 44.0215 1405.25 43.8669 1406.55 43.5576C1407.86 43.2484 1409.21 42.7926 1410.61 42.1904V45.7549C1409.26 46.3571 1407.91 46.7965 1406.58 47.0732C1405.26 47.3499 1403.7 47.4883 1401.89 47.4883C1399.32 47.4883 1397.07 46.9674 1395.15 45.9258C1393.25 44.8678 1391.77 43.3216 1390.71 41.2871C1389.65 39.2526 1389.12 36.7624 1389.12 33.8164C1389.12 30.9355 1389.6 28.4453 1390.56 26.3457C1391.54 24.2298 1392.91 22.6022 1394.66 21.4629C1396.44 20.3236 1398.52 19.7539 1400.91 19.7539ZM1400.87 23.0742C1398.7 23.0742 1396.98 23.7822 1395.69 25.1982C1394.4 26.6143 1393.64 28.5918 1393.39 31.1309H1407.55C1407.54 29.5358 1407.29 28.1361 1406.8 26.9316C1406.33 25.7109 1405.6 24.7669 1404.62 24.0996C1403.65 23.416 1402.4 23.0742 1400.87 23.0742ZM1422.35 37.0879H1419.69L1418.57 11.3066H1423.47L1422.35 37.0879ZM1418.08 44.4609C1418.08 43.3216 1418.35 42.516 1418.91 42.0439C1419.46 41.5557 1420.15 41.3115 1420.98 41.3115C1421.8 41.3115 1422.48 41.5557 1423.03 42.0439C1423.6 42.516 1423.89 43.3216 1423.89 44.4609C1423.89 45.584 1423.6 46.4059 1423.03 46.9268C1422.48 47.4313 1421.8 47.6836 1420.98 47.6836C1420.15 47.6836 1419.46 47.4313 1418.91 46.9268C1418.35 46.4059 1418.08 45.584 1418.08 44.4609Z" fill="#BD4747"/>
</svg>
