<svg width="1900" height="48" viewBox="0 0 1900 48" fill="none" xmlns="http://www.w3.org/2000/svg">
<path id="Parceiros" d="M838.055 41C837.689 41 837.389 40.8833 837.155 40.65C836.922 40.4167 836.805 40.1167 836.805 39.75V7.25C836.805 6.88333 836.922 6.58333 837.155 6.35C837.389 6.11666 837.689 6 838.055 6H851.705C854.405 6 856.739 6.41666 858.705 7.25C860.705 8.08333 862.255 9.35 863.355 11.05C864.489 12.7167 865.055 14.8 865.055 17.3C865.055 19.8333 864.489 21.9333 863.355 23.6C862.255 25.2333 860.705 26.45 858.705 27.25C856.739 28.05 854.405 28.45 851.705 28.45H845.005V39.75C845.005 40.1167 844.889 40.4167 844.655 40.65C844.422 40.8833 844.122 41 843.755 41H838.055ZM844.855 22.25H851.455C853.155 22.25 854.472 21.8333 855.405 21C856.372 20.1667 856.855 18.9167 856.855 17.25C856.855 15.7833 856.422 14.5833 855.555 13.65C854.722 12.7167 853.355 12.25 851.455 12.25H844.855V22.25ZM876.718 41.5C874.951 41.5 873.368 41.1667 871.968 40.5C870.568 39.8 869.451 38.8667 868.618 37.7C867.785 36.5333 867.368 35.2333 867.368 33.8C867.368 31.4333 868.318 29.5667 870.218 28.2C872.151 26.8333 874.685 25.9 877.818 25.4L884.368 24.45V23.55C884.368 22.25 884.068 21.25 883.468 20.55C882.868 19.85 881.818 19.5 880.318 19.5C879.218 19.5 878.335 19.7167 877.668 20.15C877.001 20.5833 876.485 21.15 876.118 21.85C875.851 22.2833 875.468 22.5 874.968 22.5H870.218C869.851 22.5 869.568 22.4 869.368 22.2C869.168 21.9667 869.085 21.7 869.118 21.4C869.118 20.8333 869.335 20.1667 869.768 19.4C870.201 18.6333 870.868 17.8833 871.768 17.15C872.668 16.3833 873.818 15.75 875.218 15.25C876.618 14.75 878.335 14.5 880.368 14.5C882.468 14.5 884.268 14.75 885.768 15.25C887.268 15.75 888.468 16.45 889.368 17.35C890.268 18.25 890.935 19.3 891.368 20.5C891.801 21.6667 892.018 22.9333 892.018 24.3V39.75C892.018 40.1167 891.901 40.4167 891.668 40.65C891.435 40.8833 891.135 41 890.768 41H885.868C885.535 41 885.251 40.8833 885.018 40.65C884.785 40.4167 884.668 40.1167 884.668 39.75V37.9C884.235 38.5333 883.651 39.1333 882.918 39.7C882.185 40.2333 881.301 40.6667 880.268 41C879.268 41.3333 878.085 41.5 876.718 41.5ZM878.718 36.3C879.818 36.3 880.801 36.0667 881.668 35.6C882.535 35.1333 883.218 34.4167 883.718 33.45C884.218 32.4833 884.468 31.2667 884.468 29.8V28.95L879.818 29.7C878.018 30 876.701 30.45 875.868 31.05C875.035 31.65 874.618 32.3833 874.618 33.25C874.618 33.8833 874.801 34.4333 875.168 34.9C875.568 35.3667 876.085 35.7167 876.718 35.95C877.351 36.1833 878.018 36.3 878.718 36.3ZM899.272 41C898.939 41 898.655 40.8833 898.422 40.65C898.189 40.4167 898.072 40.1167 898.072 39.75V16.25C898.072 15.9167 898.189 15.6333 898.422 15.4C898.655 15.1333 898.939 15 899.272 15H904.172C904.505 15 904.789 15.1333 905.022 15.4C905.289 15.6333 905.422 15.9167 905.422 16.25V18.25C906.255 17.2167 907.272 16.4167 908.472 15.85C909.705 15.2833 911.122 15 912.722 15H914.872C915.205 15 915.489 15.1167 915.722 15.35C915.955 15.5833 916.072 15.8833 916.072 16.25V20.55C916.072 20.9167 915.955 21.2167 915.722 21.45C915.489 21.6833 915.205 21.8 914.872 21.8H910.472C909.005 21.8 907.855 22.2167 907.022 23.05C906.189 23.85 905.772 25 905.772 26.5V39.75C905.772 40.1167 905.655 40.4167 905.422 40.65C905.189 40.8833 904.889 41 904.522 41H899.272ZM931.057 41.5C928.624 41.5 926.474 41.05 924.607 40.15C922.774 39.25 921.324 37.95 920.257 36.25C919.191 34.5167 918.607 32.45 918.507 30.05C918.474 29.5167 918.457 28.85 918.457 28.05C918.457 27.2167 918.474 26.5333 918.507 26C918.607 23.5667 919.174 21.5 920.207 19.8C921.274 18.0667 922.741 16.75 924.607 15.85C926.474 14.95 928.624 14.5 931.057 14.5C933.291 14.5 935.191 14.8167 936.757 15.45C938.324 16.05 939.607 16.8167 940.607 17.75C941.607 18.6833 942.341 19.6667 942.807 20.7C943.307 21.7 943.574 22.5833 943.607 23.35C943.641 23.6833 943.524 23.9833 943.257 24.25C943.024 24.4833 942.741 24.6 942.407 24.6H937.057C936.724 24.6 936.457 24.5167 936.257 24.35C936.091 24.15 935.924 23.8833 935.757 23.55C935.291 22.3833 934.691 21.55 933.957 21.05C933.224 20.55 932.307 20.3 931.207 20.3C929.707 20.3 928.524 20.7833 927.657 21.75C926.791 22.7167 926.324 24.2167 926.257 26.25C926.224 27.55 926.224 28.7333 926.257 29.8C926.357 31.8667 926.824 33.3667 927.657 34.3C928.524 35.2333 929.707 35.7 931.207 35.7C932.374 35.7 933.307 35.45 934.007 34.95C934.707 34.45 935.291 33.6167 935.757 32.45C935.891 32.1167 936.057 31.8667 936.257 31.7C936.457 31.5 936.724 31.4 937.057 31.4H942.407C942.741 31.4 943.024 31.5333 943.257 31.8C943.524 32.0333 943.641 32.3167 943.607 32.65C943.574 33.2167 943.407 33.8833 943.107 34.65C942.841 35.4167 942.391 36.2 941.757 37C941.157 37.8 940.374 38.55 939.407 39.25C938.441 39.9167 937.257 40.4667 935.857 40.9C934.491 41.3 932.891 41.5 931.057 41.5ZM960.111 41.5C956.278 41.5 953.228 40.4333 950.961 38.3C948.728 36.1667 947.545 33.0667 947.411 29C947.411 28.7333 947.411 28.3833 947.411 27.95C947.411 27.4833 947.411 27.1167 947.411 26.85C947.545 24.2833 948.128 22.0833 949.161 20.25C950.195 18.3833 951.645 16.9667 953.511 16C955.378 15 957.561 14.5 960.061 14.5C962.861 14.5 965.195 15.0833 967.061 16.25C968.961 17.3833 970.378 18.95 971.311 20.95C972.278 22.9167 972.761 25.1833 972.761 27.75V28.9C972.761 29.2333 972.628 29.5167 972.361 29.75C972.128 29.9833 971.845 30.1 971.511 30.1H955.161C955.161 30.1333 955.161 30.2 955.161 30.3C955.161 30.3667 955.161 30.4333 955.161 30.5C955.195 31.5667 955.395 32.55 955.761 33.45C956.161 34.3167 956.711 35.0167 957.411 35.55C958.145 36.0833 959.011 36.35 960.011 36.35C960.845 36.35 961.528 36.2333 962.061 36C962.595 35.7667 963.028 35.4833 963.361 35.15C963.728 34.8167 963.995 34.5333 964.161 34.3C964.461 33.9667 964.695 33.7667 964.861 33.7C965.061 33.6 965.361 33.55 965.761 33.55H970.961C971.295 33.55 971.561 33.65 971.761 33.85C971.995 34.0167 972.095 34.2667 972.061 34.6C972.028 35.1333 971.745 35.8 971.211 36.6C970.711 37.3667 969.961 38.1333 968.961 38.9C967.961 39.6333 966.711 40.25 965.211 40.75C963.745 41.25 962.045 41.5 960.111 41.5ZM955.161 25.55H964.961V25.45C964.961 24.25 964.761 23.2167 964.361 22.35C963.995 21.45 963.445 20.75 962.711 20.25C961.978 19.75 961.095 19.5 960.061 19.5C959.028 19.5 958.145 19.75 957.411 20.25C956.678 20.75 956.111 21.45 955.711 22.35C955.345 23.2167 955.161 24.25 955.161 25.45V25.55ZM978.959 41C978.626 41 978.343 40.8833 978.109 40.65C977.876 40.4167 977.759 40.1167 977.759 39.75V16.25C977.759 15.8833 977.876 15.5833 978.109 15.35C978.343 15.1167 978.626 15 978.959 15H983.959C984.326 15 984.626 15.1167 984.859 15.35C985.093 15.5833 985.209 15.8833 985.209 16.25V39.75C985.209 40.1167 985.093 40.4167 984.859 40.65C984.626 40.8833 984.326 41 983.959 41H978.959ZM978.809 11C978.476 11 978.193 10.8833 977.959 10.65C977.726 10.4167 977.609 10.1167 977.609 9.75V5.75C977.609 5.38333 977.726 5.08333 977.959 4.85C978.193 4.58333 978.476 4.45 978.809 4.45H984.059C984.426 4.45 984.726 4.58333 984.959 4.85C985.226 5.08333 985.359 5.38333 985.359 5.75V9.75C985.359 10.1167 985.226 10.4167 984.959 10.65C984.726 10.8833 984.426 11 984.059 11H978.809ZM992.68 41C992.347 41 992.063 40.8833 991.83 40.65C991.597 40.4167 991.48 40.1167 991.48 39.75V16.25C991.48 15.9167 991.597 15.6333 991.83 15.4C992.063 15.1333 992.347 15 992.68 15H997.58C997.913 15 998.197 15.1333 998.43 15.4C998.697 15.6333 998.83 15.9167 998.83 16.25V18.25C999.663 17.2167 1000.68 16.4167 1001.88 15.85C1003.11 15.2833 1004.53 15 1006.13 15H1008.28C1008.61 15 1008.9 15.1167 1009.13 15.35C1009.36 15.5833 1009.48 15.8833 1009.48 16.25V20.55C1009.48 20.9167 1009.36 21.2167 1009.13 21.45C1008.9 21.6833 1008.61 21.8 1008.28 21.8H1003.88C1002.41 21.8 1001.26 22.2167 1000.43 23.05C999.597 23.85 999.18 25 999.18 26.5V39.75C999.18 40.1167 999.063 40.4167 998.83 40.65C998.597 40.8833 998.297 41 997.93 41H992.68ZM1024.82 41.5C1022.05 41.5 1019.73 41.05 1017.87 40.15C1016 39.2167 1014.57 37.9 1013.57 36.2C1012.6 34.5 1012.07 32.5167 1011.97 30.25C1011.93 29.5833 1011.92 28.8333 1011.92 28C1011.92 27.1333 1011.93 26.3833 1011.97 25.75C1012.07 23.45 1012.63 21.4667 1013.67 19.8C1014.7 18.1 1016.15 16.8 1018.02 15.9C1019.88 14.9667 1022.15 14.5 1024.82 14.5C1027.45 14.5 1029.7 14.9667 1031.57 15.9C1033.43 16.8 1034.88 18.1 1035.92 19.8C1036.95 21.4667 1037.52 23.45 1037.62 25.75C1037.68 26.3833 1037.72 27.1333 1037.72 28C1037.72 28.8333 1037.68 29.5833 1037.62 30.25C1037.52 32.5167 1036.97 34.5 1035.97 36.2C1035 37.9 1033.58 39.2167 1031.72 40.15C1029.85 41.05 1027.55 41.5 1024.82 41.5ZM1024.82 36C1026.45 36 1027.68 35.5 1028.52 34.5C1029.35 33.4667 1029.8 31.9667 1029.87 30C1029.9 29.5 1029.92 28.8333 1029.92 28C1029.92 27.1667 1029.9 26.5 1029.87 26C1029.8 24.0667 1029.35 22.5833 1028.52 21.55C1027.68 20.5167 1026.45 20 1024.82 20C1023.18 20 1021.93 20.5167 1021.07 21.55C1020.23 22.5833 1019.78 24.0667 1019.72 26C1019.68 26.5 1019.67 27.1667 1019.67 28C1019.67 28.8333 1019.68 29.5 1019.72 30C1019.78 31.9667 1020.23 33.4667 1021.07 34.5C1021.93 35.5 1023.18 36 1024.82 36ZM1053.19 41.5C1051.13 41.5 1049.34 41.2667 1047.84 40.8C1046.38 40.3 1045.18 39.7 1044.24 39C1043.34 38.3 1042.66 37.6 1042.19 36.9C1041.76 36.1667 1041.53 35.55 1041.49 35.05C1041.46 34.6833 1041.58 34.3833 1041.84 34.15C1042.11 33.9167 1042.38 33.8 1042.64 33.8H1047.49C1047.59 33.8 1047.69 33.8167 1047.79 33.85C1047.89 33.8833 1047.99 33.9667 1048.09 34.1C1048.53 34.4 1048.98 34.75 1049.44 35.15C1049.91 35.5167 1050.44 35.8333 1051.04 36.1C1051.68 36.3667 1052.46 36.5 1053.39 36.5C1054.49 36.5 1055.43 36.2833 1056.19 35.85C1056.96 35.3833 1057.34 34.7333 1057.34 33.9C1057.34 33.3 1057.16 32.8 1056.79 32.4C1056.46 32 1055.81 31.6333 1054.84 31.3C1053.88 30.9667 1052.44 30.6 1050.54 30.2C1048.74 29.8 1047.21 29.2667 1045.94 28.6C1044.68 27.9333 1043.73 27.1 1043.09 26.1C1042.46 25.0667 1042.14 23.8333 1042.14 22.4C1042.14 21.1 1042.54 19.85 1043.34 18.65C1044.18 17.45 1045.39 16.4667 1046.99 15.7C1048.59 14.9 1050.59 14.5 1052.99 14.5C1054.83 14.5 1056.43 14.7333 1057.79 15.2C1059.19 15.6333 1060.36 16.2 1061.29 16.9C1062.23 17.5667 1062.93 18.2667 1063.39 19C1063.89 19.7 1064.16 20.3167 1064.19 20.85C1064.23 21.1833 1064.13 21.4667 1063.89 21.7C1063.66 21.9333 1063.39 22.05 1063.09 22.05H1058.64C1058.48 22.05 1058.33 22.0333 1058.19 22C1058.06 21.9333 1057.94 21.85 1057.84 21.75C1057.44 21.4833 1057.03 21.1833 1056.59 20.85C1056.19 20.4833 1055.71 20.1667 1055.14 19.9C1054.58 19.6333 1053.84 19.5 1052.94 19.5C1051.84 19.5 1050.99 19.75 1050.39 20.25C1049.83 20.7167 1049.54 21.3167 1049.54 22.05C1049.54 22.5167 1049.69 22.95 1049.99 23.35C1050.29 23.75 1050.91 24.1167 1051.84 24.45C1052.78 24.7833 1054.19 25.1333 1056.09 25.5C1058.36 25.9 1060.16 26.5 1061.49 27.3C1062.83 28.1 1063.78 29.0333 1064.34 30.1C1064.94 31.1333 1065.24 32.25 1065.24 33.45C1065.24 35.0167 1064.78 36.4167 1063.84 37.65C1062.91 38.85 1061.54 39.8 1059.74 40.5C1057.98 41.1667 1055.79 41.5 1053.19 41.5Z" fill="#6D2E46"/>
</svg>
