<svg width="1249" height="115" viewBox="0 0 1249 115" fill="none" xmlns="http://www.w3.org/2000/svg">
<path id="Podcast" d="M777.013 99C776.133 99 775.413 98.72 774.853 98.16C774.293 97.6 774.013 96.88 774.013 96V18C774.013 17.12 774.293 16.4 774.853 15.84C775.413 15.28 776.133 15 777.013 15H809.773C816.253 15 821.853 16 826.573 18C831.373 20 835.093 23.04 837.733 27.12C840.453 31.12 841.813 36.12 841.813 42.12C841.813 48.2 840.453 53.24 837.733 57.24C835.093 61.16 831.373 64.08 826.573 66C821.853 67.92 816.253 68.88 809.773 68.88H793.693V96C793.693 96.88 793.413 97.6 792.853 98.16C792.293 98.72 791.573 99 790.693 99H777.013ZM793.333 54H809.173C813.253 54 816.413 53 818.653 51C820.973 49 822.133 46 822.133 42C822.133 38.48 821.093 35.6 819.013 33.36C817.013 31.12 813.733 30 809.173 30H793.333V54ZM880.589 100.2C873.949 100.2 868.389 99.12 863.909 96.96C859.429 94.72 855.989 91.56 853.589 87.48C851.269 83.4 849.989 78.64 849.749 73.2C849.669 71.6 849.629 69.8 849.629 67.8C849.629 65.72 849.669 63.92 849.749 62.4C849.989 56.88 851.349 52.12 853.829 48.12C856.309 44.04 859.789 40.92 864.269 38.76C868.749 36.52 874.189 35.4 880.589 35.4C886.909 35.4 892.309 36.52 896.789 38.76C901.269 40.92 904.749 44.04 907.229 48.12C909.709 52.12 911.069 56.88 911.309 62.4C911.469 63.92 911.549 65.72 911.549 67.8C911.549 69.8 911.469 71.6 911.309 73.2C911.069 78.64 909.749 83.4 907.349 87.48C905.029 91.56 901.629 94.72 897.149 96.96C892.669 99.12 887.149 100.2 880.589 100.2ZM880.589 87C884.509 87 887.469 85.8 889.469 83.4C891.469 80.92 892.549 77.32 892.709 72.6C892.789 71.4 892.829 69.8 892.829 67.8C892.829 65.8 892.789 64.2 892.709 63C892.549 58.36 891.469 54.8 889.469 52.32C887.469 49.84 884.509 48.6 880.589 48.6C876.669 48.6 873.669 49.84 871.589 52.32C869.589 54.8 868.509 58.36 868.349 63C868.269 64.2 868.229 65.8 868.229 67.8C868.229 69.8 868.269 71.4 868.349 72.6C868.509 77.32 869.589 80.92 871.589 83.4C873.669 85.8 876.669 87 880.589 87ZM947.259 100.2C943.259 100.2 939.699 99.56 936.579 98.28C933.459 96.92 930.819 95 928.659 92.52C926.499 89.96 924.859 86.96 923.739 83.52C922.619 80 921.939 76.12 921.699 71.88C921.619 70.36 921.579 69 921.579 67.8C921.579 66.52 921.619 65.16 921.699 63.72C921.859 59.56 922.499 55.76 923.619 52.32C924.819 48.88 926.459 45.92 928.539 43.44C930.699 40.88 933.339 38.92 936.459 37.56C939.659 36.12 943.259 35.4 947.259 35.4C951.419 35.4 954.979 36.12 957.939 37.56C960.899 38.92 963.339 40.72 965.259 42.96V16.8C965.259 15.92 965.539 15.2 966.099 14.64C966.659 14.08 967.379 13.8 968.259 13.8H980.619C981.419 13.8 982.099 14.08 982.659 14.64C983.219 15.2 983.499 15.92 983.499 16.8V96C983.499 96.88 983.219 97.6 982.659 98.16C982.099 98.72 981.419 99 980.619 99H969.099C968.299 99 967.619 98.72 967.059 98.16C966.499 97.6 966.219 96.88 966.219 96V91.92C964.219 94.32 961.699 96.32 958.659 97.92C955.619 99.44 951.819 100.2 947.259 100.2ZM952.779 85.8C955.739 85.8 958.099 85.12 959.859 83.76C961.699 82.4 963.019 80.68 963.819 78.6C964.699 76.52 965.179 74.28 965.259 71.88C965.419 70.36 965.499 68.84 965.499 67.32C965.499 65.8 965.419 64.32 965.259 62.88C965.179 60.64 964.699 58.56 963.819 56.64C962.939 54.64 961.579 53 959.739 51.72C957.979 50.44 955.659 49.8 952.779 49.8C949.739 49.8 947.339 50.48 945.579 51.84C943.819 53.12 942.539 54.84 941.739 57C941.019 59.16 940.579 61.52 940.419 64.08C940.179 66.56 940.179 69.04 940.419 71.52C940.579 74.08 941.019 76.44 941.739 78.6C942.539 80.76 943.819 82.52 945.579 83.88C947.339 85.16 949.739 85.8 952.779 85.8ZM1026.47 100.2C1020.63 100.2 1015.47 99.12 1010.99 96.96C1006.59 94.8 1003.11 91.68 1000.55 87.6C997.988 83.44 996.588 78.48 996.348 72.72C996.268 71.44 996.228 69.84 996.228 67.92C996.228 65.92 996.268 64.28 996.348 63C996.588 57.16 997.948 52.2 1000.43 48.12C1002.99 43.96 1006.51 40.8 1010.99 38.64C1015.47 36.48 1020.63 35.4 1026.47 35.4C1031.83 35.4 1036.39 36.16 1040.15 37.68C1043.91 39.12 1046.99 40.96 1049.39 43.2C1051.79 45.44 1053.55 47.8 1054.67 50.28C1055.87 52.68 1056.51 54.8 1056.59 56.64C1056.67 57.44 1056.39 58.16 1055.75 58.8C1055.19 59.36 1054.51 59.64 1053.71 59.64H1040.87C1040.07 59.64 1039.43 59.44 1038.95 59.04C1038.55 58.56 1038.15 57.92 1037.75 57.12C1036.63 54.32 1035.19 52.32 1033.43 51.12C1031.67 49.92 1029.47 49.32 1026.83 49.32C1023.23 49.32 1020.39 50.48 1018.31 52.8C1016.23 55.12 1015.11 58.72 1014.95 63.6C1014.87 66.72 1014.87 69.56 1014.95 72.12C1015.19 77.08 1016.31 80.68 1018.31 82.92C1020.39 85.16 1023.23 86.28 1026.83 86.28C1029.63 86.28 1031.87 85.68 1033.55 84.48C1035.23 83.28 1036.63 81.28 1037.75 78.48C1038.07 77.68 1038.47 77.08 1038.95 76.68C1039.43 76.2 1040.07 75.96 1040.87 75.96H1053.71C1054.51 75.96 1055.19 76.28 1055.75 76.92C1056.39 77.48 1056.67 78.16 1056.59 78.96C1056.51 80.32 1056.11 81.92 1055.39 83.76C1054.75 85.6 1053.67 87.48 1052.15 89.4C1050.71 91.32 1048.83 93.12 1046.51 94.8C1044.19 96.4 1041.35 97.72 1037.99 98.76C1034.71 99.72 1030.87 100.2 1026.47 100.2ZM1086.72 100.2C1082.48 100.2 1078.68 99.4 1075.32 97.8C1071.96 96.12 1069.28 93.88 1067.28 91.08C1065.28 88.28 1064.28 85.16 1064.28 81.72C1064.28 76.04 1066.56 71.56 1071.12 68.28C1075.76 65 1081.84 62.76 1089.36 61.56L1105.08 59.28V57.12C1105.08 54 1104.36 51.6 1102.92 49.92C1101.48 48.24 1098.96 47.4 1095.36 47.4C1092.72 47.4 1090.6 47.92 1089 48.96C1087.4 50 1086.16 51.36 1085.28 53.04C1084.64 54.08 1083.72 54.6 1082.52 54.6H1071.12C1070.24 54.6 1069.56 54.36 1069.08 53.88C1068.6 53.32 1068.4 52.68 1068.48 51.96C1068.48 50.6 1069 49 1070.04 47.16C1071.08 45.32 1072.68 43.52 1074.84 41.76C1077 39.92 1079.76 38.4 1083.12 37.2C1086.48 36 1090.6 35.4 1095.48 35.4C1100.52 35.4 1104.84 36 1108.44 37.2C1112.04 38.4 1114.92 40.08 1117.08 42.24C1119.24 44.4 1120.84 46.92 1121.88 49.8C1122.92 52.6 1123.44 55.64 1123.44 58.92V96C1123.44 96.88 1123.16 97.6 1122.6 98.16C1122.04 98.72 1121.32 99 1120.44 99H1108.68C1107.88 99 1107.2 98.72 1106.64 98.16C1106.08 97.6 1105.8 96.88 1105.8 96V91.56C1104.76 93.08 1103.36 94.52 1101.6 95.88C1099.84 97.16 1097.72 98.2 1095.24 99C1092.84 99.8 1090 100.2 1086.72 100.2ZM1091.52 87.72C1094.16 87.72 1096.52 87.16 1098.6 86.04C1100.68 84.92 1102.32 83.2 1103.52 80.88C1104.72 78.56 1105.32 75.64 1105.32 72.12V70.08L1094.16 71.88C1089.84 72.6 1086.68 73.68 1084.68 75.12C1082.68 76.56 1081.68 78.32 1081.68 80.4C1081.68 81.92 1082.12 83.24 1083 84.36C1083.96 85.48 1085.2 86.32 1086.72 86.88C1088.24 87.44 1089.84 87.72 1091.52 87.72ZM1162.57 100.2C1157.61 100.2 1153.33 99.64 1149.73 98.52C1146.21 97.32 1143.33 95.88 1141.09 94.2C1138.93 92.52 1137.29 90.84 1136.17 89.16C1135.13 87.4 1134.57 85.92 1134.49 84.72C1134.41 83.84 1134.69 83.12 1135.33 82.56C1135.97 82 1136.61 81.72 1137.25 81.72H1148.89C1149.13 81.72 1149.37 81.76 1149.61 81.84C1149.85 81.92 1150.09 82.12 1150.33 82.44C1151.37 83.16 1152.45 84 1153.57 84.96C1154.69 85.84 1155.97 86.6 1157.41 87.24C1158.93 87.88 1160.81 88.2 1163.05 88.2C1165.69 88.2 1167.93 87.68 1169.77 86.64C1171.61 85.52 1172.53 83.96 1172.53 81.96C1172.53 80.52 1172.09 79.32 1171.21 78.36C1170.41 77.4 1168.85 76.52 1166.53 75.72C1164.21 74.92 1160.77 74.04 1156.21 73.08C1151.89 72.12 1148.21 70.84 1145.17 69.24C1142.13 67.64 1139.85 65.64 1138.33 63.24C1136.81 60.76 1136.05 57.8 1136.05 54.36C1136.05 51.24 1137.01 48.24 1138.93 45.36C1140.93 42.48 1143.85 40.12 1147.69 38.28C1151.53 36.36 1156.33 35.4 1162.09 35.4C1166.49 35.4 1170.33 35.96 1173.61 37.08C1176.97 38.12 1179.77 39.48 1182.01 41.16C1184.25 42.76 1185.93 44.44 1187.05 46.2C1188.25 47.88 1188.89 49.36 1188.97 50.64C1189.05 51.44 1188.81 52.12 1188.25 52.68C1187.69 53.24 1187.05 53.52 1186.33 53.52H1175.65C1175.25 53.52 1174.89 53.48 1174.57 53.4C1174.25 53.24 1173.97 53.04 1173.73 52.8C1172.77 52.16 1171.77 51.44 1170.73 50.64C1169.77 49.76 1168.61 49 1167.25 48.36C1165.89 47.72 1164.13 47.4 1161.97 47.4C1159.33 47.4 1157.29 48 1155.85 49.2C1154.49 50.32 1153.81 51.76 1153.81 53.52C1153.81 54.64 1154.17 55.68 1154.89 56.64C1155.61 57.6 1157.09 58.48 1159.33 59.28C1161.57 60.08 1164.97 60.92 1169.53 61.8C1174.97 62.76 1179.29 64.2 1182.49 66.12C1185.69 68.04 1187.97 70.28 1189.33 72.84C1190.77 75.32 1191.49 78 1191.49 80.88C1191.49 84.64 1190.37 88 1188.13 90.96C1185.89 93.84 1182.61 96.12 1178.29 97.8C1174.05 99.4 1168.81 100.2 1162.57 100.2ZM1232.77 99C1227.81 99 1223.57 98.2 1220.05 96.6C1216.53 94.92 1213.85 92.36 1212.01 88.92C1210.25 85.48 1209.37 81.16 1209.37 75.96V50.76H1200.01C1199.13 50.76 1198.41 50.48 1197.85 49.92C1197.29 49.36 1197.01 48.64 1197.01 47.76V39.6C1197.01 38.72 1197.29 38 1197.85 37.44C1198.41 36.88 1199.13 36.6 1200.01 36.6H1209.37V16.8C1209.37 15.92 1209.65 15.2 1210.21 14.64C1210.85 14.08 1211.57 13.8 1212.37 13.8H1224.13C1225.01 13.8 1225.73 14.08 1226.29 14.64C1226.85 15.2 1227.13 15.92 1227.13 16.8V36.6H1242.13C1242.93 36.6 1243.61 36.88 1244.17 37.44C1244.73 38 1245.01 38.72 1245.01 39.6V47.76C1245.01 48.64 1244.73 49.36 1244.17 49.92C1243.61 50.48 1242.93 50.76 1242.13 50.76H1227.13V74.52C1227.13 77.56 1227.65 79.96 1228.69 81.72C1229.81 83.4 1231.73 84.24 1234.45 84.24H1243.21C1244.01 84.24 1244.69 84.52 1245.25 85.08C1245.81 85.64 1246.09 86.32 1246.09 87.12V96C1246.09 96.88 1245.81 97.6 1245.25 98.16C1244.69 98.72 1244.01 99 1243.21 99H1232.77Z" fill="#6D2E46"/>
</svg>
