<svg width="527" height="48" viewBox="0 0 527 48" fill="none" xmlns="http://www.w3.org/2000/svg">
<path id="PR&#195;&#147;XIMOS CURSOS" d="M4.95 41C4.58333 41 4.28333 40.8833 4.05 40.65C3.81667 40.4167 3.7 40.1167 3.7 39.75V7.25C3.7 6.88333 3.81667 6.58333 4.05 6.35C4.28333 6.11666 4.58333 6 4.95 6H18.6C21.3 6 23.6333 6.41666 25.6 7.25C27.6 8.08333 29.15 9.35 30.25 11.05C31.3833 12.7167 31.95 14.8 31.95 17.3C31.95 19.8333 31.3833 21.9333 30.25 23.6C29.15 25.2333 27.6 26.45 25.6 27.25C23.6333 28.05 21.3 28.45 18.6 28.45H11.9V39.75C11.9 40.1167 11.7833 40.4167 11.55 40.65C11.3167 40.8833 11.0167 41 10.65 41H4.95ZM11.75 22.25H18.35C20.05 22.25 21.3667 21.8333 22.3 21C23.2667 20.1667 23.75 18.9167 23.75 17.25C23.75 15.7833 23.3167 14.5833 22.45 13.65C21.6167 12.7167 20.25 12.25 18.35 12.25H11.75V22.25ZM38.2996 41C37.9329 41 37.6329 40.8833 37.3996 40.65C37.1663 40.4167 37.0496 40.1167 37.0496 39.75V7.25C37.0496 6.88333 37.1663 6.58333 37.3996 6.35C37.6329 6.11666 37.9329 6 38.2996 6H51.5496C55.7163 6 58.9996 6.96666 61.3996 8.9C63.7996 10.8 64.9996 13.55 64.9996 17.15C64.9996 19.5833 64.4163 21.6167 63.2496 23.25C62.0829 24.8833 60.5163 26.1 58.5496 26.9L65.5996 39.4C65.6996 39.6 65.7496 39.7833 65.7496 39.95C65.7496 40.2167 65.6496 40.4667 65.4496 40.7C65.2496 40.9 64.9996 41 64.6996 41H59.1496C58.5496 41 58.0996 40.85 57.7996 40.55C57.4996 40.2167 57.2829 39.9167 57.1496 39.65L51.0496 28.2H44.9996V39.75C44.9996 40.1167 44.8829 40.4167 44.6496 40.65C44.4163 40.8833 44.1163 41 43.7496 41H38.2996ZM44.9996 21.85H51.3996C53.2329 21.85 54.5829 21.4333 55.4496 20.6C56.3496 19.7667 56.7996 18.6 56.7996 17.1C56.7996 15.6 56.3663 14.4167 55.4996 13.55C54.6329 12.6833 53.2663 12.25 51.3996 12.25H44.9996V21.85ZM84.8852 41.5C81.8518 41.5 79.2352 41 77.0352 40C74.8352 39 73.1185 37.5 71.8852 35.5C70.6518 33.4667 69.9852 30.9167 69.8852 27.85C69.8518 26.4167 69.8352 25 69.8352 23.6C69.8352 22.1667 69.8518 20.7167 69.8852 19.25C69.9852 16.25 70.6518 13.7333 71.8852 11.7C73.1518 9.63333 74.8852 8.08333 77.0852 7.05C79.3185 6.01667 81.9185 5.5 84.8852 5.5C87.8185 5.5 90.3852 6.01667 92.5852 7.05C94.8185 8.08333 96.5685 9.63333 97.8352 11.7C99.1018 13.7333 99.7685 16.25 99.8352 19.25C99.9018 20.7167 99.9352 22.1667 99.9352 23.6C99.9352 25 99.9018 26.4167 99.8352 27.85C99.7352 30.9167 99.0685 33.4667 97.8352 35.5C96.6018 37.5 94.8852 39 92.6852 40C90.4852 41 87.8852 41.5 84.8852 41.5ZM84.8852 35.05C86.8185 35.05 88.4018 34.4667 89.6352 33.3C90.9018 32.1 91.5685 30.2 91.6352 27.6C91.7018 26.1333 91.7352 24.7667 91.7352 23.5C91.7352 22.2 91.7018 20.8333 91.6352 19.4C91.6018 17.6667 91.2852 16.25 90.6852 15.15C90.0852 14.05 89.2852 13.25 88.2852 12.75C87.3185 12.2167 86.1852 11.95 84.8852 11.95C83.5852 11.95 82.4352 12.2167 81.4352 12.75C80.4352 13.25 79.6352 14.05 79.0352 15.15C78.4685 16.25 78.1518 17.6667 78.0852 19.4C78.0518 20.8333 78.0352 22.2 78.0352 23.5C78.0352 24.7667 78.0518 26.1333 78.0852 27.6C78.1852 30.2 78.8518 32.1 80.0852 33.3C81.3185 34.4667 82.9185 35.05 84.8852 35.05ZM82.1852 3.5C81.6518 3.5 81.3852 3.23333 81.3852 2.7C81.3852 2.43333 81.4685 2.21666 81.6352 2.05L85.8852 -3.1C86.1852 -3.5 86.4518 -3.75 86.6852 -3.85C86.9518 -3.98333 87.3018 -4.05 87.7352 -4.05H93.8852C94.5185 -4.05 94.8352 -3.71667 94.8352 -3.05C94.8352 -2.81667 94.7518 -2.61667 94.5852 -2.45L88.1352 2.8C87.8685 3.03333 87.6018 3.21667 87.3352 3.35C87.0685 3.45 86.7185 3.5 86.2852 3.5H82.1852ZM102.825 41C102.525 41 102.275 40.9 102.075 40.7C101.875 40.4667 101.775 40.2167 101.775 39.95C101.775 39.85 101.792 39.75 101.825 39.65C101.859 39.55 101.892 39.45 101.925 39.35L112.975 23.15L102.675 7.65C102.575 7.45 102.525 7.25 102.525 7.05C102.525 6.78333 102.625 6.55 102.825 6.35C103.025 6.11666 103.275 6 103.575 6H109.725C110.159 6 110.492 6.11666 110.725 6.35C110.992 6.58333 111.192 6.8 111.325 7L118.025 16.95L124.775 7C124.909 6.8 125.109 6.58333 125.375 6.35C125.642 6.11666 125.992 6 126.425 6H132.275C132.542 6 132.775 6.11666 132.975 6.35C133.209 6.55 133.325 6.78333 133.325 7.05C133.325 7.28333 133.259 7.48333 133.125 7.65L122.825 23.1L133.925 39.35C133.992 39.45 134.025 39.55 134.025 39.65C134.059 39.75 134.075 39.85 134.075 39.95C134.075 40.2167 133.975 40.4667 133.775 40.7C133.575 40.9 133.325 41 133.025 41H126.675C126.242 41 125.892 40.8833 125.625 40.65C125.392 40.4167 125.209 40.2167 125.075 40.05L117.775 29.55L110.525 40.05C110.425 40.2167 110.242 40.4167 109.975 40.65C109.742 40.8833 109.392 41 108.925 41H102.825ZM139.764 41C139.398 41 139.098 40.8833 138.864 40.65C138.631 40.4167 138.514 40.1167 138.514 39.75V7.25C138.514 6.88333 138.631 6.58333 138.864 6.35C139.098 6.11666 139.398 6 139.764 6H145.414C145.781 6 146.081 6.11666 146.314 6.35C146.548 6.58333 146.664 6.88333 146.664 7.25V39.75C146.664 40.1167 146.548 40.4167 146.314 40.65C146.081 40.8833 145.781 41 145.414 41H139.764ZM155.292 41C154.958 41 154.658 40.8833 154.392 40.65C154.158 40.4167 154.042 40.1167 154.042 39.75V7.25C154.042 6.88333 154.158 6.58333 154.392 6.35C154.658 6.11666 154.958 6 155.292 6H159.942C160.442 6 160.808 6.13333 161.042 6.4C161.308 6.66667 161.492 6.86667 161.592 7L170.792 23.95L180.092 7C180.158 6.86667 180.308 6.66667 180.542 6.4C180.808 6.13333 181.192 6 181.692 6H186.342C186.708 6 187.008 6.11666 187.242 6.35C187.475 6.58333 187.592 6.88333 187.592 7.25V39.75C187.592 40.1167 187.475 40.4167 187.242 40.65C187.008 40.8833 186.708 41 186.342 41H181.242C180.908 41 180.625 40.8833 180.392 40.65C180.158 40.4167 180.042 40.1167 180.042 39.75V19.55L173.692 31.45C173.525 31.75 173.308 32.0167 173.042 32.25C172.775 32.4833 172.425 32.6 171.992 32.6H169.642C169.208 32.6 168.858 32.4833 168.592 32.25C168.325 32.0167 168.108 31.75 167.942 31.45L161.592 19.55V39.75C161.592 40.1167 161.475 40.4167 161.242 40.65C161.008 40.8833 160.725 41 160.392 41H155.292ZM208.909 41.5C205.875 41.5 203.259 41 201.059 40C198.859 39 197.142 37.5 195.909 35.5C194.675 33.4667 194.009 30.9167 193.909 27.85C193.875 26.4167 193.859 25 193.859 23.6C193.859 22.1667 193.875 20.7167 193.909 19.25C194.009 16.25 194.675 13.7333 195.909 11.7C197.175 9.63333 198.909 8.08333 201.109 7.05C203.342 6.01667 205.942 5.5 208.909 5.5C211.842 5.5 214.409 6.01667 216.609 7.05C218.842 8.08333 220.592 9.63333 221.859 11.7C223.125 13.7333 223.792 16.25 223.859 19.25C223.925 20.7167 223.959 22.1667 223.959 23.6C223.959 25 223.925 26.4167 223.859 27.85C223.759 30.9167 223.092 33.4667 221.859 35.5C220.625 37.5 218.909 39 216.709 40C214.509 41 211.909 41.5 208.909 41.5ZM208.909 35.05C210.842 35.05 212.425 34.4667 213.659 33.3C214.925 32.1 215.592 30.2 215.659 27.6C215.725 26.1333 215.759 24.7667 215.759 23.5C215.759 22.2 215.725 20.8333 215.659 19.4C215.625 17.6667 215.309 16.25 214.709 15.15C214.109 14.05 213.309 13.25 212.309 12.75C211.342 12.2167 210.209 11.95 208.909 11.95C207.609 11.95 206.459 12.2167 205.459 12.75C204.459 13.25 203.659 14.05 203.059 15.15C202.492 16.25 202.175 17.6667 202.109 19.4C202.075 20.8333 202.059 22.2 202.059 23.5C202.059 24.7667 202.075 26.1333 202.109 27.6C202.209 30.2 202.875 32.1 204.109 33.3C205.342 34.4667 206.942 35.05 208.909 35.05ZM242.765 41.5C239.565 41.5 236.882 41.0333 234.715 40.1C232.582 39.1667 230.965 37.95 229.865 36.45C228.765 34.95 228.182 33.35 228.115 31.65C228.115 31.3833 228.215 31.15 228.415 30.95C228.615 30.7167 228.865 30.6 229.165 30.6H234.515C234.948 30.6 235.282 30.7 235.515 30.9C235.748 31.0667 235.965 31.2833 236.165 31.55C236.398 32.1167 236.765 32.6667 237.265 33.2C237.798 33.7333 238.515 34.1833 239.415 34.55C240.315 34.8833 241.432 35.05 242.765 35.05C244.932 35.05 246.548 34.7 247.615 34C248.715 33.3 249.265 32.35 249.265 31.15C249.265 30.2833 248.965 29.5833 248.365 29.05C247.798 28.5167 246.882 28.0333 245.615 27.6C244.382 27.1667 242.732 26.7 240.665 26.2C238.165 25.6667 236.032 24.9833 234.265 24.15C232.532 23.2833 231.215 22.1833 230.315 20.85C229.448 19.4833 229.015 17.8 229.015 15.8C229.015 13.8 229.565 12.0333 230.665 10.5C231.765 8.93333 233.315 7.71667 235.315 6.85C237.315 5.95 239.698 5.5 242.465 5.5C244.698 5.5 246.665 5.8 248.365 6.4C250.098 7 251.532 7.78333 252.665 8.75C253.832 9.71666 254.715 10.75 255.315 11.85C255.915 12.95 256.232 14.0167 256.265 15.05C256.265 15.3167 256.165 15.5667 255.965 15.8C255.765 16 255.515 16.1 255.215 16.1H249.615C249.282 16.1 248.982 16.0333 248.715 15.9C248.448 15.7667 248.232 15.5333 248.065 15.2C247.865 14.3333 247.265 13.5833 246.265 12.95C245.298 12.2833 244.032 11.95 242.465 11.95C240.832 11.95 239.532 12.25 238.565 12.85C237.632 13.45 237.165 14.3667 237.165 15.6C237.165 16.4 237.398 17.0833 237.865 17.65C238.365 18.1833 239.182 18.6667 240.315 19.1C241.482 19.5 243.015 19.95 244.915 20.45C247.848 21.05 250.232 21.7667 252.065 22.6C253.898 23.4333 255.248 24.5167 256.115 25.85C256.982 27.15 257.415 28.8 257.415 30.8C257.415 33.0333 256.782 34.95 255.515 36.55C254.282 38.15 252.565 39.3833 250.365 40.25C248.198 41.0833 245.665 41.5 242.765 41.5ZM287.717 41.5C284.584 41.5 281.917 40.9833 279.717 39.95C277.551 38.8833 275.867 37.35 274.667 35.35C273.467 33.3167 272.801 30.85 272.667 27.95C272.634 26.5833 272.617 25.1167 272.617 23.55C272.617 21.9833 272.634 20.4833 272.667 19.05C272.801 16.1833 273.467 13.75 274.667 11.75C275.901 9.71667 277.617 8.16667 279.817 7.1C282.017 6.03333 284.651 5.5 287.717 5.5C289.951 5.5 291.984 5.78333 293.817 6.35C295.651 6.91666 297.234 7.73333 298.567 8.8C299.901 9.86666 300.934 11.1167 301.667 12.55C302.401 13.9833 302.801 15.5833 302.867 17.35C302.867 17.65 302.751 17.9 302.517 18.1C302.317 18.3 302.067 18.4 301.767 18.4H296.067C295.667 18.4 295.351 18.3 295.117 18.1C294.884 17.9 294.701 17.5667 294.567 17.1C294.067 15.1333 293.234 13.7833 292.067 13.05C290.901 12.3167 289.451 11.95 287.717 11.95C285.651 11.95 284.017 12.5167 282.817 13.65C281.617 14.7833 280.967 16.6667 280.867 19.3C280.767 22.0333 280.767 24.8333 280.867 27.7C280.967 30.3333 281.617 32.2167 282.817 33.35C284.017 34.4833 285.651 35.05 287.717 35.05C289.451 35.05 290.901 34.6833 292.067 33.95C293.267 33.1833 294.101 31.8333 294.567 29.9C294.701 29.4 294.884 29.0667 295.117 28.9C295.351 28.7 295.667 28.6 296.067 28.6H301.767C302.067 28.6 302.317 28.7 302.517 28.9C302.751 29.1 302.867 29.35 302.867 29.65C302.801 31.4167 302.401 33.0167 301.667 34.45C300.934 35.8833 299.901 37.1333 298.567 38.2C297.234 39.2667 295.651 40.0833 293.817 40.65C291.984 41.2167 289.951 41.5 287.717 41.5ZM322.785 41.5C319.852 41.5 317.285 41.0167 315.085 40.05C312.885 39.05 311.185 37.5333 309.985 35.5C308.785 33.4333 308.185 30.8167 308.185 27.65V7.25C308.185 6.88333 308.302 6.58333 308.535 6.35C308.768 6.11666 309.068 6 309.435 6H314.885C315.252 6 315.552 6.11666 315.785 6.35C316.018 6.58333 316.135 6.88333 316.135 7.25V27.6C316.135 30.0667 316.718 31.9 317.885 33.1C319.052 34.3 320.685 34.9 322.785 34.9C324.852 34.9 326.468 34.3 327.635 33.1C328.802 31.9 329.385 30.0667 329.385 27.6V7.25C329.385 6.88333 329.502 6.58333 329.735 6.35C330.002 6.11666 330.302 6 330.635 6H336.135C336.468 6 336.752 6.11666 336.985 6.35C337.218 6.58333 337.335 6.88333 337.335 7.25V27.65C337.335 30.8167 336.735 33.4333 335.535 35.5C334.335 37.5333 332.652 39.05 330.485 40.05C328.318 41.0167 325.752 41.5 322.785 41.5ZM345.673 41C345.306 41 345.006 40.8833 344.773 40.65C344.539 40.4167 344.423 40.1167 344.423 39.75V7.25C344.423 6.88333 344.539 6.58333 344.773 6.35C345.006 6.11666 345.306 6 345.673 6H358.923C363.089 6 366.373 6.96666 368.773 8.9C371.173 10.8 372.373 13.55 372.373 17.15C372.373 19.5833 371.789 21.6167 370.623 23.25C369.456 24.8833 367.889 26.1 365.923 26.9L372.973 39.4C373.073 39.6 373.123 39.7833 373.123 39.95C373.123 40.2167 373.023 40.4667 372.823 40.7C372.623 40.9 372.373 41 372.073 41H366.523C365.923 41 365.473 40.85 365.173 40.55C364.873 40.2167 364.656 39.9167 364.523 39.65L358.423 28.2H352.373V39.75C352.373 40.1167 352.256 40.4167 352.023 40.65C351.789 40.8833 351.489 41 351.123 41H345.673ZM352.373 21.85H358.773C360.606 21.85 361.956 21.4333 362.823 20.6C363.723 19.7667 364.173 18.6 364.173 17.1C364.173 15.6 363.739 14.4167 362.873 13.55C362.006 12.6833 360.639 12.25 358.773 12.25H352.373V21.85ZM391.105 41.5C387.905 41.5 385.221 41.0333 383.055 40.1C380.921 39.1667 379.305 37.95 378.205 36.45C377.105 34.95 376.521 33.35 376.455 31.65C376.455 31.3833 376.555 31.15 376.755 30.95C376.955 30.7167 377.205 30.6 377.505 30.6H382.855C383.288 30.6 383.621 30.7 383.855 30.9C384.088 31.0667 384.305 31.2833 384.505 31.55C384.738 32.1167 385.105 32.6667 385.605 33.2C386.138 33.7333 386.855 34.1833 387.755 34.55C388.655 34.8833 389.771 35.05 391.105 35.05C393.271 35.05 394.888 34.7 395.955 34C397.055 33.3 397.605 32.35 397.605 31.15C397.605 30.2833 397.305 29.5833 396.705 29.05C396.138 28.5167 395.221 28.0333 393.955 27.6C392.721 27.1667 391.071 26.7 389.005 26.2C386.505 25.6667 384.371 24.9833 382.605 24.15C380.871 23.2833 379.555 22.1833 378.655 20.85C377.788 19.4833 377.355 17.8 377.355 15.8C377.355 13.8 377.905 12.0333 379.005 10.5C380.105 8.93333 381.655 7.71667 383.655 6.85C385.655 5.95 388.038 5.5 390.805 5.5C393.038 5.5 395.005 5.8 396.705 6.4C398.438 7 399.871 7.78333 401.005 8.75C402.171 9.71666 403.055 10.75 403.655 11.85C404.255 12.95 404.571 14.0167 404.605 15.05C404.605 15.3167 404.505 15.5667 404.305 15.8C404.105 16 403.855 16.1 403.555 16.1H397.955C397.621 16.1 397.321 16.0333 397.055 15.9C396.788 15.7667 396.571 15.5333 396.405 15.2C396.205 14.3333 395.605 13.5833 394.605 12.95C393.638 12.2833 392.371 11.95 390.805 11.95C389.171 11.95 387.871 12.25 386.905 12.85C385.971 13.45 385.505 14.3667 385.505 15.6C385.505 16.4 385.738 17.0833 386.205 17.65C386.705 18.1833 387.521 18.6667 388.655 19.1C389.821 19.5 391.355 19.95 393.255 20.45C396.188 21.05 398.571 21.7667 400.405 22.6C402.238 23.4333 403.588 24.5167 404.455 25.85C405.321 27.15 405.755 28.8 405.755 30.8C405.755 33.0333 405.121 34.95 403.855 36.55C402.621 38.15 400.905 39.3833 398.705 40.25C396.538 41.0833 394.005 41.5 391.105 41.5ZM425.022 41.5C421.989 41.5 419.372 41 417.172 40C414.972 39 413.255 37.5 412.022 35.5C410.789 33.4667 410.122 30.9167 410.022 27.85C409.989 26.4167 409.972 25 409.972 23.6C409.972 22.1667 409.989 20.7167 410.022 19.25C410.122 16.25 410.789 13.7333 412.022 11.7C413.289 9.63333 415.022 8.08333 417.222 7.05C419.455 6.01667 422.055 5.5 425.022 5.5C427.955 5.5 430.522 6.01667 432.722 7.05C434.955 8.08333 436.705 9.63333 437.972 11.7C439.239 13.7333 439.905 16.25 439.972 19.25C440.039 20.7167 440.072 22.1667 440.072 23.6C440.072 25 440.039 26.4167 439.972 27.85C439.872 30.9167 439.205 33.4667 437.972 35.5C436.739 37.5 435.022 39 432.822 40C430.622 41 428.022 41.5 425.022 41.5ZM425.022 35.05C426.955 35.05 428.539 34.4667 429.772 33.3C431.039 32.1 431.705 30.2 431.772 27.6C431.839 26.1333 431.872 24.7667 431.872 23.5C431.872 22.2 431.839 20.8333 431.772 19.4C431.739 17.6667 431.422 16.25 430.822 15.15C430.222 14.05 429.422 13.25 428.422 12.75C427.455 12.2167 426.322 11.95 425.022 11.95C423.722 11.95 422.572 12.2167 421.572 12.75C420.572 13.25 419.772 14.05 419.172 15.15C418.605 16.25 418.289 17.6667 418.222 19.4C418.189 20.8333 418.172 22.2 418.172 23.5C418.172 24.7667 418.189 26.1333 418.222 27.6C418.322 30.2 418.989 32.1 420.222 33.3C421.455 34.4667 423.055 35.05 425.022 35.05ZM458.878 41.5C455.678 41.5 452.995 41.0333 450.828 40.1C448.695 39.1667 447.078 37.95 445.978 36.45C444.878 34.95 444.295 33.35 444.228 31.65C444.228 31.3833 444.328 31.15 444.528 30.95C444.728 30.7167 444.978 30.6 445.278 30.6H450.628C451.061 30.6 451.395 30.7 451.628 30.9C451.861 31.0667 452.078 31.2833 452.278 31.55C452.511 32.1167 452.878 32.6667 453.378 33.2C453.911 33.7333 454.628 34.1833 455.528 34.55C456.428 34.8833 457.545 35.05 458.878 35.05C461.045 35.05 462.661 34.7 463.728 34C464.828 33.3 465.378 32.35 465.378 31.15C465.378 30.2833 465.078 29.5833 464.478 29.05C463.911 28.5167 462.995 28.0333 461.728 27.6C460.495 27.1667 458.845 26.7 456.778 26.2C454.278 25.6667 452.145 24.9833 450.378 24.15C448.645 23.2833 447.328 22.1833 446.428 20.85C445.561 19.4833 445.128 17.8 445.128 15.8C445.128 13.8 445.678 12.0333 446.778 10.5C447.878 8.93333 449.428 7.71667 451.428 6.85C453.428 5.95 455.811 5.5 458.578 5.5C460.811 5.5 462.778 5.8 464.478 6.4C466.211 7 467.645 7.78333 468.778 8.75C469.945 9.71666 470.828 10.75 471.428 11.85C472.028 12.95 472.345 14.0167 472.378 15.05C472.378 15.3167 472.278 15.5667 472.078 15.8C471.878 16 471.628 16.1 471.328 16.1H465.728C465.395 16.1 465.095 16.0333 464.828 15.9C464.561 15.7667 464.345 15.5333 464.178 15.2C463.978 14.3333 463.378 13.5833 462.378 12.95C461.411 12.2833 460.145 11.95 458.578 11.95C456.945 11.95 455.645 12.25 454.678 12.85C453.745 13.45 453.278 14.3667 453.278 15.6C453.278 16.4 453.511 17.0833 453.978 17.65C454.478 18.1833 455.295 18.6667 456.428 19.1C457.595 19.5 459.128 19.95 461.028 20.45C463.961 21.05 466.345 21.7667 468.178 22.6C470.011 23.4333 471.361 24.5167 472.228 25.85C473.095 27.15 473.528 28.8 473.528 30.8C473.528 33.0333 472.895 34.95 471.628 36.55C470.395 38.15 468.678 39.3833 466.478 40.25C464.311 41.0833 461.778 41.5 458.878 41.5Z" fill="#6D2E46"/>
</svg>
