<svg width="527" height="48" viewBox="0 0 527 48" fill="none" xmlns="http://www.w3.org/2000/svg">
<path id="PR&#195;&#147;XIMOS EVENTOS" d="M4.95 41C4.58333 41 4.28333 40.8833 4.05 40.65C3.81667 40.4167 3.7 40.1167 3.7 39.75V7.25C3.7 6.88333 3.81667 6.58333 4.05 6.35C4.28333 6.11666 4.58333 6 4.95 6H18.6C21.3 6 23.6333 6.41666 25.6 7.25C27.6 8.08333 29.15 9.35 30.25 11.05C31.3833 12.7167 31.95 14.8 31.95 17.3C31.95 19.8333 31.3833 21.9333 30.25 23.6C29.15 25.2333 27.6 26.45 25.6 27.25C23.6333 28.05 21.3 28.45 18.6 28.45H11.9V39.75C11.9 40.1167 11.7833 40.4167 11.55 40.65C11.3167 40.8833 11.0167 41 10.65 41H4.95ZM11.75 22.25H18.35C20.05 22.25 21.3667 21.8333 22.3 21C23.2667 20.1667 23.75 18.9167 23.75 17.25C23.75 15.7833 23.3167 14.5833 22.45 13.65C21.6167 12.7167 20.25 12.25 18.35 12.25H11.75V22.25ZM38.2996 41C37.9329 41 37.6329 40.8833 37.3996 40.65C37.1663 40.4167 37.0496 40.1167 37.0496 39.75V7.25C37.0496 6.88333 37.1663 6.58333 37.3996 6.35C37.6329 6.11666 37.9329 6 38.2996 6H51.5496C55.7163 6 58.9996 6.96666 61.3996 8.9C63.7996 10.8 64.9996 13.55 64.9996 17.15C64.9996 19.5833 64.4163 21.6167 63.2496 23.25C62.0829 24.8833 60.5163 26.1 58.5496 26.9L65.5996 39.4C65.6996 39.6 65.7496 39.7833 65.7496 39.95C65.7496 40.2167 65.6496 40.4667 65.4496 40.7C65.2496 40.9 64.9996 41 64.6996 41H59.1496C58.5496 41 58.0996 40.85 57.7996 40.55C57.4996 40.2167 57.2829 39.9167 57.1496 39.65L51.0496 28.2H44.9996V39.75C44.9996 40.1167 44.8829 40.4167 44.6496 40.65C44.4163 40.8833 44.1163 41 43.7496 41H38.2996ZM44.9996 21.85H51.3996C53.2329 21.85 54.5829 21.4333 55.4496 20.6C56.3496 19.7667 56.7996 18.6 56.7996 17.1C56.7996 15.6 56.3663 14.4167 55.4996 13.55C54.6329 12.6833 53.2663 12.25 51.3996 12.25H44.9996V21.85ZM84.8852 41.5C81.8518 41.5 79.2352 41 77.0352 40C74.8352 39 73.1185 37.5 71.8852 35.5C70.6518 33.4667 69.9852 30.9167 69.8852 27.85C69.8518 26.4167 69.8352 25 69.8352 23.6C69.8352 22.1667 69.8518 20.7167 69.8852 19.25C69.9852 16.25 70.6518 13.7333 71.8852 11.7C73.1518 9.63333 74.8852 8.08333 77.0852 7.05C79.3185 6.01667 81.9185 5.5 84.8852 5.5C87.8185 5.5 90.3852 6.01667 92.5852 7.05C94.8185 8.08333 96.5685 9.63333 97.8352 11.7C99.1018 13.7333 99.7685 16.25 99.8352 19.25C99.9018 20.7167 99.9352 22.1667 99.9352 23.6C99.9352 25 99.9018 26.4167 99.8352 27.85C99.7352 30.9167 99.0685 33.4667 97.8352 35.5C96.6018 37.5 94.8852 39 92.6852 40C90.4852 41 87.8852 41.5 84.8852 41.5ZM84.8852 35.05C86.8185 35.05 88.4018 34.4667 89.6352 33.3C90.9018 32.1 91.5685 30.2 91.6352 27.6C91.7018 26.1333 91.7352 24.7667 91.7352 23.5C91.7352 22.2 91.7018 20.8333 91.6352 19.4C91.6018 17.6667 91.2852 16.25 90.6852 15.15C90.0852 14.05 89.2852 13.25 88.2852 12.75C87.3185 12.2167 86.1852 11.95 84.8852 11.95C83.5852 11.95 82.4352 12.2167 81.4352 12.75C80.4352 13.25 79.6352 14.05 79.0352 15.15C78.4685 16.25 78.1518 17.6667 78.0852 19.4C78.0518 20.8333 78.0352 22.2 78.0352 23.5C78.0352 24.7667 78.0518 26.1333 78.0852 27.6C78.1852 30.2 78.8518 32.1 80.0852 33.3C81.3185 34.4667 82.9185 35.05 84.8852 35.05ZM82.1852 3.5C81.6518 3.5 81.3852 3.23333 81.3852 2.7C81.3852 2.43333 81.4685 2.21666 81.6352 2.05L85.8852 -3.1C86.1852 -3.5 86.4518 -3.75 86.6852 -3.85C86.9518 -3.98333 87.3018 -4.05 87.7352 -4.05H93.8852C94.5185 -4.05 94.8352 -3.71667 94.8352 -3.05C94.8352 -2.81667 94.7518 -2.61667 94.5852 -2.45L88.1352 2.8C87.8685 3.03333 87.6018 3.21667 87.3352 3.35C87.0685 3.45 86.7185 3.5 86.2852 3.5H82.1852ZM102.825 41C102.525 41 102.275 40.9 102.075 40.7C101.875 40.4667 101.775 40.2167 101.775 39.95C101.775 39.85 101.792 39.75 101.825 39.65C101.859 39.55 101.892 39.45 101.925 39.35L112.975 23.15L102.675 7.65C102.575 7.45 102.525 7.25 102.525 7.05C102.525 6.78333 102.625 6.55 102.825 6.35C103.025 6.11666 103.275 6 103.575 6H109.725C110.159 6 110.492 6.11666 110.725 6.35C110.992 6.58333 111.192 6.8 111.325 7L118.025 16.95L124.775 7C124.909 6.8 125.109 6.58333 125.375 6.35C125.642 6.11666 125.992 6 126.425 6H132.275C132.542 6 132.775 6.11666 132.975 6.35C133.209 6.55 133.325 6.78333 133.325 7.05C133.325 7.28333 133.259 7.48333 133.125 7.65L122.825 23.1L133.925 39.35C133.992 39.45 134.025 39.55 134.025 39.65C134.059 39.75 134.075 39.85 134.075 39.95C134.075 40.2167 133.975 40.4667 133.775 40.7C133.575 40.9 133.325 41 133.025 41H126.675C126.242 41 125.892 40.8833 125.625 40.65C125.392 40.4167 125.209 40.2167 125.075 40.05L117.775 29.55L110.525 40.05C110.425 40.2167 110.242 40.4167 109.975 40.65C109.742 40.8833 109.392 41 108.925 41H102.825ZM139.764 41C139.398 41 139.098 40.8833 138.864 40.65C138.631 40.4167 138.514 40.1167 138.514 39.75V7.25C138.514 6.88333 138.631 6.58333 138.864 6.35C139.098 6.11666 139.398 6 139.764 6H145.414C145.781 6 146.081 6.11666 146.314 6.35C146.548 6.58333 146.664 6.88333 146.664 7.25V39.75C146.664 40.1167 146.548 40.4167 146.314 40.65C146.081 40.8833 145.781 41 145.414 41H139.764ZM155.292 41C154.958 41 154.658 40.8833 154.392 40.65C154.158 40.4167 154.042 40.1167 154.042 39.75V7.25C154.042 6.88333 154.158 6.58333 154.392 6.35C154.658 6.11666 154.958 6 155.292 6H159.942C160.442 6 160.808 6.13333 161.042 6.4C161.308 6.66667 161.492 6.86667 161.592 7L170.792 23.95L180.092 7C180.158 6.86667 180.308 6.66667 180.542 6.4C180.808 6.13333 181.192 6 181.692 6H186.342C186.708 6 187.008 6.11666 187.242 6.35C187.475 6.58333 187.592 6.88333 187.592 7.25V39.75C187.592 40.1167 187.475 40.4167 187.242 40.65C187.008 40.8833 186.708 41 186.342 41H181.242C180.908 41 180.625 40.8833 180.392 40.65C180.158 40.4167 180.042 40.1167 180.042 39.75V19.55L173.692 31.45C173.525 31.75 173.308 32.0167 173.042 32.25C172.775 32.4833 172.425 32.6 171.992 32.6H169.642C169.208 32.6 168.858 32.4833 168.592 32.25C168.325 32.0167 168.108 31.75 167.942 31.45L161.592 19.55V39.75C161.592 40.1167 161.475 40.4167 161.242 40.65C161.008 40.8833 160.725 41 160.392 41H155.292ZM208.909 41.5C205.875 41.5 203.259 41 201.059 40C198.859 39 197.142 37.5 195.909 35.5C194.675 33.4667 194.009 30.9167 193.909 27.85C193.875 26.4167 193.859 25 193.859 23.6C193.859 22.1667 193.875 20.7167 193.909 19.25C194.009 16.25 194.675 13.7333 195.909 11.7C197.175 9.63333 198.909 8.08333 201.109 7.05C203.342 6.01667 205.942 5.5 208.909 5.5C211.842 5.5 214.409 6.01667 216.609 7.05C218.842 8.08333 220.592 9.63333 221.859 11.7C223.125 13.7333 223.792 16.25 223.859 19.25C223.925 20.7167 223.959 22.1667 223.959 23.6C223.959 25 223.925 26.4167 223.859 27.85C223.759 30.9167 223.092 33.4667 221.859 35.5C220.625 37.5 218.909 39 216.709 40C214.509 41 211.909 41.5 208.909 41.5ZM208.909 35.05C210.842 35.05 212.425 34.4667 213.659 33.3C214.925 32.1 215.592 30.2 215.659 27.6C215.725 26.1333 215.759 24.7667 215.759 23.5C215.759 22.2 215.725 20.8333 215.659 19.4C215.625 17.6667 215.309 16.25 214.709 15.15C214.109 14.05 213.309 13.25 212.309 12.75C211.342 12.2167 210.209 11.95 208.909 11.95C207.609 11.95 206.459 12.2167 205.459 12.75C204.459 13.25 203.659 14.05 203.059 15.15C202.492 16.25 202.175 17.6667 202.109 19.4C202.075 20.8333 202.059 22.2 202.059 23.5C202.059 24.7667 202.075 26.1333 202.109 27.6C202.209 30.2 202.875 32.1 204.109 33.3C205.342 34.4667 206.942 35.05 208.909 35.05ZM242.765 41.5C239.565 41.5 236.882 41.0333 234.715 40.1C232.582 39.1667 230.965 37.95 229.865 36.45C228.765 34.95 228.182 33.35 228.115 31.65C228.115 31.3833 228.215 31.15 228.415 30.95C228.615 30.7167 228.865 30.6 229.165 30.6H234.515C234.948 30.6 235.282 30.7 235.515 30.9C235.748 31.0667 235.965 31.2833 236.165 31.55C236.398 32.1167 236.765 32.6667 237.265 33.2C237.798 33.7333 238.515 34.1833 239.415 34.55C240.315 34.8833 241.432 35.05 242.765 35.05C244.932 35.05 246.548 34.7 247.615 34C248.715 33.3 249.265 32.35 249.265 31.15C249.265 30.2833 248.965 29.5833 248.365 29.05C247.798 28.5167 246.882 28.0333 245.615 27.6C244.382 27.1667 242.732 26.7 240.665 26.2C238.165 25.6667 236.032 24.9833 234.265 24.15C232.532 23.2833 231.215 22.1833 230.315 20.85C229.448 19.4833 229.015 17.8 229.015 15.8C229.015 13.8 229.565 12.0333 230.665 10.5C231.765 8.93333 233.315 7.71667 235.315 6.85C237.315 5.95 239.698 5.5 242.465 5.5C244.698 5.5 246.665 5.8 248.365 6.4C250.098 7 251.532 7.78333 252.665 8.75C253.832 9.71666 254.715 10.75 255.315 11.85C255.915 12.95 256.232 14.0167 256.265 15.05C256.265 15.3167 256.165 15.5667 255.965 15.8C255.765 16 255.515 16.1 255.215 16.1H249.615C249.282 16.1 248.982 16.0333 248.715 15.9C248.448 15.7667 248.232 15.5333 248.065 15.2C247.865 14.3333 247.265 13.5833 246.265 12.95C245.298 12.2833 244.032 11.95 242.465 11.95C240.832 11.95 239.532 12.25 238.565 12.85C237.632 13.45 237.165 14.3667 237.165 15.6C237.165 16.4 237.398 17.0833 237.865 17.65C238.365 18.1833 239.182 18.6667 240.315 19.1C241.482 19.5 243.015 19.95 244.915 20.45C247.848 21.05 250.232 21.7667 252.065 22.6C253.898 23.4333 255.248 24.5167 256.115 25.85C256.982 27.15 257.415 28.8 257.415 30.8C257.415 33.0333 256.782 34.95 255.515 36.55C254.282 38.15 252.565 39.3833 250.365 40.25C248.198 41.0833 245.665 41.5 242.765 41.5ZM275.067 41C274.701 41 274.401 40.8833 274.167 40.65C273.934 40.4167 273.817 40.1167 273.817 39.75V7.25C273.817 6.88333 273.934 6.58333 274.167 6.35C274.401 6.11666 274.701 6 275.067 6H297.717C298.084 6 298.384 6.11666 298.617 6.35C298.851 6.58333 298.967 6.88333 298.967 7.25V11.25C298.967 11.5833 298.851 11.8667 298.617 12.1C298.384 12.3333 298.084 12.45 297.717 12.45H281.517V20.3H296.617C296.984 20.3 297.284 20.4167 297.517 20.65C297.751 20.8833 297.867 21.1833 297.867 21.55V25.25C297.867 25.5833 297.751 25.8667 297.517 26.1C297.284 26.3333 296.984 26.45 296.617 26.45H281.517V34.55H298.117C298.484 34.55 298.784 34.6667 299.017 34.9C299.251 35.1333 299.367 35.4333 299.367 35.8V39.75C299.367 40.1167 299.251 40.4167 299.017 40.65C298.784 40.8833 298.484 41 298.117 41H275.067ZM315.167 41C314.634 41 314.201 40.8667 313.867 40.6C313.567 40.3 313.351 39.95 313.217 39.55L302.717 7.5C302.684 7.33333 302.667 7.18333 302.667 7.05C302.667 6.78333 302.767 6.55 302.967 6.35C303.167 6.11666 303.417 6 303.717 6H308.967C309.467 6 309.851 6.15 310.117 6.45C310.417 6.71666 310.601 6.96666 310.667 7.2L318.467 31.65L326.217 7.2C326.317 6.96666 326.501 6.71666 326.767 6.45C327.034 6.15 327.417 6 327.917 6H333.167C333.467 6 333.717 6.11666 333.917 6.35C334.117 6.55 334.217 6.78333 334.217 7.05C334.217 7.18333 334.201 7.33333 334.167 7.5L323.667 39.55C323.567 39.95 323.351 40.3 323.017 40.6C322.717 40.8667 322.284 41 321.717 41H315.167ZM340.448 41C340.081 41 339.781 40.8833 339.548 40.65C339.315 40.4167 339.198 40.1167 339.198 39.75V7.25C339.198 6.88333 339.315 6.58333 339.548 6.35C339.781 6.11666 340.081 6 340.448 6H363.098C363.465 6 363.765 6.11666 363.998 6.35C364.231 6.58333 364.348 6.88333 364.348 7.25V11.25C364.348 11.5833 364.231 11.8667 363.998 12.1C363.765 12.3333 363.465 12.45 363.098 12.45H346.898V20.3H361.998C362.365 20.3 362.665 20.4167 362.898 20.65C363.131 20.8833 363.248 21.1833 363.248 21.55V25.25C363.248 25.5833 363.131 25.8667 362.898 26.1C362.665 26.3333 362.365 26.45 361.998 26.45H346.898V34.55H363.498C363.865 34.55 364.165 34.6667 364.398 34.9C364.631 35.1333 364.748 35.4333 364.748 35.8V39.75C364.748 40.1167 364.631 40.4167 364.398 40.65C364.165 40.8833 363.865 41 363.498 41H340.448ZM371.942 41C371.576 41 371.276 40.8833 371.042 40.65C370.809 40.4167 370.692 40.1167 370.692 39.75V7.25C370.692 6.88333 370.809 6.58333 371.042 6.35C371.276 6.11666 371.576 6 371.942 6H376.492C376.992 6 377.359 6.11666 377.592 6.35C377.826 6.58333 377.976 6.76666 378.042 6.9L391.392 27.75V7.25C391.392 6.88333 391.509 6.58333 391.742 6.35C391.976 6.11666 392.259 6 392.592 6H397.692C398.059 6 398.359 6.11666 398.592 6.35C398.826 6.58333 398.942 6.88333 398.942 7.25V39.75C398.942 40.0833 398.826 40.3833 398.592 40.65C398.359 40.8833 398.059 41 397.692 41H393.092C392.592 41 392.226 40.8833 391.992 40.65C391.792 40.3833 391.642 40.2 391.542 40.1L378.242 19.9V39.75C378.242 40.1167 378.126 40.4167 377.892 40.65C377.659 40.8833 377.359 41 376.992 41H371.942ZM415.287 41C414.92 41 414.62 40.8833 414.387 40.65C414.153 40.4167 414.037 40.1167 414.037 39.75V12.95H404.937C404.603 12.95 404.32 12.8333 404.087 12.6C403.853 12.3667 403.737 12.0833 403.737 11.75V7.25C403.737 6.88333 403.853 6.58333 404.087 6.35C404.32 6.11666 404.603 6 404.937 6H431.137C431.503 6 431.803 6.11666 432.037 6.35C432.27 6.58333 432.387 6.88333 432.387 7.25V11.75C432.387 12.0833 432.27 12.3667 432.037 12.6C431.803 12.8333 431.503 12.95 431.137 12.95H422.087V39.75C422.087 40.1167 421.97 40.4167 421.737 40.65C421.503 40.8833 421.203 41 420.837 41H415.287ZM450.51 41.5C447.477 41.5 444.86 41 442.66 40C440.46 39 438.743 37.5 437.51 35.5C436.277 33.4667 435.61 30.9167 435.51 27.85C435.477 26.4167 435.46 25 435.46 23.6C435.46 22.1667 435.477 20.7167 435.51 19.25C435.61 16.25 436.277 13.7333 437.51 11.7C438.777 9.63333 440.51 8.08333 442.71 7.05C444.943 6.01667 447.543 5.5 450.51 5.5C453.443 5.5 456.01 6.01667 458.21 7.05C460.443 8.08333 462.193 9.63333 463.46 11.7C464.727 13.7333 465.393 16.25 465.46 19.25C465.527 20.7167 465.56 22.1667 465.56 23.6C465.56 25 465.527 26.4167 465.46 27.85C465.36 30.9167 464.693 33.4667 463.46 35.5C462.227 37.5 460.51 39 458.31 40C456.11 41 453.51 41.5 450.51 41.5ZM450.51 35.05C452.443 35.05 454.027 34.4667 455.26 33.3C456.527 32.1 457.193 30.2 457.26 27.6C457.327 26.1333 457.36 24.7667 457.36 23.5C457.36 22.2 457.327 20.8333 457.26 19.4C457.227 17.6667 456.91 16.25 456.31 15.15C455.71 14.05 454.91 13.25 453.91 12.75C452.943 12.2167 451.81 11.95 450.51 11.95C449.21 11.95 448.06 12.2167 447.06 12.75C446.06 13.25 445.26 14.05 444.66 15.15C444.093 16.25 443.777 17.6667 443.71 19.4C443.677 20.8333 443.66 22.2 443.66 23.5C443.66 24.7667 443.677 26.1333 443.71 27.6C443.81 30.2 444.477 32.1 445.71 33.3C446.943 34.4667 448.543 35.05 450.51 35.05ZM484.366 41.5C481.166 41.5 478.483 41.0333 476.316 40.1C474.183 39.1667 472.566 37.95 471.466 36.45C470.366 34.95 469.783 33.35 469.716 31.65C469.716 31.3833 469.816 31.15 470.016 30.95C470.216 30.7167 470.466 30.6 470.766 30.6H476.116C476.55 30.6 476.883 30.7 477.116 30.9C477.35 31.0667 477.566 31.2833 477.766 31.55C478 32.1167 478.366 32.6667 478.866 33.2C479.4 33.7333 480.116 34.1833 481.016 34.55C481.916 34.8833 483.033 35.05 484.366 35.05C486.533 35.05 488.15 34.7 489.216 34C490.316 33.3 490.866 32.35 490.866 31.15C490.866 30.2833 490.566 29.5833 489.966 29.05C489.4 28.5167 488.483 28.0333 487.216 27.6C485.983 27.1667 484.333 26.7 482.266 26.2C479.766 25.6667 477.633 24.9833 475.866 24.15C474.133 23.2833 472.816 22.1833 471.916 20.85C471.05 19.4833 470.616 17.8 470.616 15.8C470.616 13.8 471.166 12.0333 472.266 10.5C473.366 8.93333 474.916 7.71667 476.916 6.85C478.916 5.95 481.3 5.5 484.066 5.5C486.3 5.5 488.266 5.8 489.966 6.4C491.7 7 493.133 7.78333 494.266 8.75C495.433 9.71666 496.316 10.75 496.916 11.85C497.516 12.95 497.833 14.0167 497.866 15.05C497.866 15.3167 497.766 15.5667 497.566 15.8C497.366 16 497.116 16.1 496.816 16.1H491.216C490.883 16.1 490.583 16.0333 490.316 15.9C490.05 15.7667 489.833 15.5333 489.666 15.2C489.466 14.3333 488.866 13.5833 487.866 12.95C486.9 12.2833 485.633 11.95 484.066 11.95C482.433 11.95 481.133 12.25 480.166 12.85C479.233 13.45 478.766 14.3667 478.766 15.6C478.766 16.4 479 17.0833 479.466 17.65C479.966 18.1833 480.783 18.6667 481.916 19.1C483.083 19.5 484.616 19.95 486.516 20.45C489.45 21.05 491.833 21.7667 493.666 22.6C495.5 23.4333 496.85 24.5167 497.716 25.85C498.583 27.15 499.016 28.8 499.016 30.8C499.016 33.0333 498.383 34.95 497.116 36.55C495.883 38.15 494.166 39.3833 491.966 40.25C489.8 41.0833 487.266 41.5 484.366 41.5Z" fill="#6D2E46"/>
</svg>
