<svg width="527" height="48" viewBox="0 0 527 48" fill="none" xmlns="http://www.w3.org/2000/svg">
<path id="PR&#195;&#147;XIMOS CAMPOS" d="M4.95 41C4.58333 41 4.28333 40.8833 4.05 40.65C3.81667 40.4167 3.7 40.1167 3.7 39.75V7.25C3.7 6.88333 3.81667 6.58333 4.05 6.35C4.28333 6.11666 4.58333 6 4.95 6H18.6C21.3 6 23.6333 6.41666 25.6 7.25C27.6 8.08333 29.15 9.35 30.25 11.05C31.3833 12.7167 31.95 14.8 31.95 17.3C31.95 19.8333 31.3833 21.9333 30.25 23.6C29.15 25.2333 27.6 26.45 25.6 27.25C23.6333 28.05 21.3 28.45 18.6 28.45H11.9V39.75C11.9 40.1167 11.7833 40.4167 11.55 40.65C11.3167 40.8833 11.0167 41 10.65 41H4.95ZM11.75 22.25H18.35C20.05 22.25 21.3667 21.8333 22.3 21C23.2667 20.1667 23.75 18.9167 23.75 17.25C23.75 15.7833 23.3167 14.5833 22.45 13.65C21.6167 12.7167 20.25 12.25 18.35 12.25H11.75V22.25ZM38.2996 41C37.9329 41 37.6329 40.8833 37.3996 40.65C37.1663 40.4167 37.0496 40.1167 37.0496 39.75V7.25C37.0496 6.88333 37.1663 6.58333 37.3996 6.35C37.6329 6.11666 37.9329 6 38.2996 6H51.5496C55.7163 6 58.9996 6.96666 61.3996 8.9C63.7996 10.8 64.9996 13.55 64.9996 17.15C64.9996 19.5833 64.4163 21.6167 63.2496 23.25C62.0829 24.8833 60.5163 26.1 58.5496 26.9L65.5996 39.4C65.6996 39.6 65.7496 39.7833 65.7496 39.95C65.7496 40.2167 65.6496 40.4667 65.4496 40.7C65.2496 40.9 64.9996 41 64.6996 41H59.1496C58.5496 41 58.0996 40.85 57.7996 40.55C57.4996 40.2167 57.2829 39.9167 57.1496 39.65L51.0496 28.2H44.9996V39.75C44.9996 40.1167 44.8829 40.4167 44.6496 40.65C44.4163 40.8833 44.1163 41 43.7496 41H38.2996ZM44.9996 21.85H51.3996C53.2329 21.85 54.5829 21.4333 55.4496 20.6C56.3496 19.7667 56.7996 18.6 56.7996 17.1C56.7996 15.6 56.3663 14.4167 55.4996 13.55C54.6329 12.6833 53.2663 12.25 51.3996 12.25H44.9996V21.85ZM84.8852 41.5C81.8518 41.5 79.2352 41 77.0352 40C74.8352 39 73.1185 37.5 71.8852 35.5C70.6518 33.4667 69.9852 30.9167 69.8852 27.85C69.8518 26.4167 69.8352 25 69.8352 23.6C69.8352 22.1667 69.8518 20.7167 69.8852 19.25C69.9852 16.25 70.6518 13.7333 71.8852 11.7C73.1518 9.63333 74.8852 8.08333 77.0852 7.05C79.3185 6.01667 81.9185 5.5 84.8852 5.5C87.8185 5.5 90.3852 6.01667 92.5852 7.05C94.8185 8.08333 96.5685 9.63333 97.8352 11.7C99.1018 13.7333 99.7685 16.25 99.8352 19.25C99.9018 20.7167 99.9352 22.1667 99.9352 23.6C99.9352 25 99.9018 26.4167 99.8352 27.85C99.7352 30.9167 99.0685 33.4667 97.8352 35.5C96.6018 37.5 94.8852 39 92.6852 40C90.4852 41 87.8852 41.5 84.8852 41.5ZM84.8852 35.05C86.8185 35.05 88.4018 34.4667 89.6352 33.3C90.9018 32.1 91.5685 30.2 91.6352 27.6C91.7018 26.1333 91.7352 24.7667 91.7352 23.5C91.7352 22.2 91.7018 20.8333 91.6352 19.4C91.6018 17.6667 91.2852 16.25 90.6852 15.15C90.0852 14.05 89.2852 13.25 88.2852 12.75C87.3185 12.2167 86.1852 11.95 84.8852 11.95C83.5852 11.95 82.4352 12.2167 81.4352 12.75C80.4352 13.25 79.6352 14.05 79.0352 15.15C78.4685 16.25 78.1518 17.6667 78.0852 19.4C78.0518 20.8333 78.0352 22.2 78.0352 23.5C78.0352 24.7667 78.0518 26.1333 78.0852 27.6C78.1852 30.2 78.8518 32.1 80.0852 33.3C81.3185 34.4667 82.9185 35.05 84.8852 35.05ZM82.1852 3.5C81.6518 3.5 81.3852 3.23333 81.3852 2.7C81.3852 2.43333 81.4685 2.21666 81.6352 2.05L85.8852 -3.1C86.1852 -3.5 86.4518 -3.75 86.6852 -3.85C86.9518 -3.98333 87.3018 -4.05 87.7352 -4.05H93.8852C94.5185 -4.05 94.8352 -3.71667 94.8352 -3.05C94.8352 -2.81667 94.7518 -2.61667 94.5852 -2.45L88.1352 2.8C87.8685 3.03333 87.6018 3.21667 87.3352 3.35C87.0685 3.45 86.7185 3.5 86.2852 3.5H82.1852ZM102.825 41C102.525 41 102.275 40.9 102.075 40.7C101.875 40.4667 101.775 40.2167 101.775 39.95C101.775 39.85 101.792 39.75 101.825 39.65C101.859 39.55 101.892 39.45 101.925 39.35L112.975 23.15L102.675 7.65C102.575 7.45 102.525 7.25 102.525 7.05C102.525 6.78333 102.625 6.55 102.825 6.35C103.025 6.11666 103.275 6 103.575 6H109.725C110.159 6 110.492 6.11666 110.725 6.35C110.992 6.58333 111.192 6.8 111.325 7L118.025 16.95L124.775 7C124.909 6.8 125.109 6.58333 125.375 6.35C125.642 6.11666 125.992 6 126.425 6H132.275C132.542 6 132.775 6.11666 132.975 6.35C133.209 6.55 133.325 6.78333 133.325 7.05C133.325 7.28333 133.259 7.48333 133.125 7.65L122.825 23.1L133.925 39.35C133.992 39.45 134.025 39.55 134.025 39.65C134.059 39.75 134.075 39.85 134.075 39.95C134.075 40.2167 133.975 40.4667 133.775 40.7C133.575 40.9 133.325 41 133.025 41H126.675C126.242 41 125.892 40.8833 125.625 40.65C125.392 40.4167 125.209 40.2167 125.075 40.05L117.775 29.55L110.525 40.05C110.425 40.2167 110.242 40.4167 109.975 40.65C109.742 40.8833 109.392 41 108.925 41H102.825ZM139.764 41C139.398 41 139.098 40.8833 138.864 40.65C138.631 40.4167 138.514 40.1167 138.514 39.75V7.25C138.514 6.88333 138.631 6.58333 138.864 6.35C139.098 6.11666 139.398 6 139.764 6H145.414C145.781 6 146.081 6.11666 146.314 6.35C146.548 6.58333 146.664 6.88333 146.664 7.25V39.75C146.664 40.1167 146.548 40.4167 146.314 40.65C146.081 40.8833 145.781 41 145.414 41H139.764ZM155.292 41C154.958 41 154.658 40.8833 154.392 40.65C154.158 40.4167 154.042 40.1167 154.042 39.75V7.25C154.042 6.88333 154.158 6.58333 154.392 6.35C154.658 6.11666 154.958 6 155.292 6H159.942C160.442 6 160.808 6.13333 161.042 6.4C161.308 6.66667 161.492 6.86667 161.592 7L170.792 23.95L180.092 7C180.158 6.86667 180.308 6.66667 180.542 6.4C180.808 6.13333 181.192 6 181.692 6H186.342C186.708 6 187.008 6.11666 187.242 6.35C187.475 6.58333 187.592 6.88333 187.592 7.25V39.75C187.592 40.1167 187.475 40.4167 187.242 40.65C187.008 40.8833 186.708 41 186.342 41H181.242C180.908 41 180.625 40.8833 180.392 40.65C180.158 40.4167 180.042 40.1167 180.042 39.75V19.55L173.692 31.45C173.525 31.75 173.308 32.0167 173.042 32.25C172.775 32.4833 172.425 32.6 171.992 32.6H169.642C169.208 32.6 168.858 32.4833 168.592 32.25C168.325 32.0167 168.108 31.75 167.942 31.45L161.592 19.55V39.75C161.592 40.1167 161.475 40.4167 161.242 40.65C161.008 40.8833 160.725 41 160.392 41H155.292ZM208.909 41.5C205.875 41.5 203.259 41 201.059 40C198.859 39 197.142 37.5 195.909 35.5C194.675 33.4667 194.009 30.9167 193.909 27.85C193.875 26.4167 193.859 25 193.859 23.6C193.859 22.1667 193.875 20.7167 193.909 19.25C194.009 16.25 194.675 13.7333 195.909 11.7C197.175 9.63333 198.909 8.08333 201.109 7.05C203.342 6.01667 205.942 5.5 208.909 5.5C211.842 5.5 214.409 6.01667 216.609 7.05C218.842 8.08333 220.592 9.63333 221.859 11.7C223.125 13.7333 223.792 16.25 223.859 19.25C223.925 20.7167 223.959 22.1667 223.959 23.6C223.959 25 223.925 26.4167 223.859 27.85C223.759 30.9167 223.092 33.4667 221.859 35.5C220.625 37.5 218.909 39 216.709 40C214.509 41 211.909 41.5 208.909 41.5ZM208.909 35.05C210.842 35.05 212.425 34.4667 213.659 33.3C214.925 32.1 215.592 30.2 215.659 27.6C215.725 26.1333 215.759 24.7667 215.759 23.5C215.759 22.2 215.725 20.8333 215.659 19.4C215.625 17.6667 215.309 16.25 214.709 15.15C214.109 14.05 213.309 13.25 212.309 12.75C211.342 12.2167 210.209 11.95 208.909 11.95C207.609 11.95 206.459 12.2167 205.459 12.75C204.459 13.25 203.659 14.05 203.059 15.15C202.492 16.25 202.175 17.6667 202.109 19.4C202.075 20.8333 202.059 22.2 202.059 23.5C202.059 24.7667 202.075 26.1333 202.109 27.6C202.209 30.2 202.875 32.1 204.109 33.3C205.342 34.4667 206.942 35.05 208.909 35.05ZM242.765 41.5C239.565 41.5 236.882 41.0333 234.715 40.1C232.582 39.1667 230.965 37.95 229.865 36.45C228.765 34.95 228.182 33.35 228.115 31.65C228.115 31.3833 228.215 31.15 228.415 30.95C228.615 30.7167 228.865 30.6 229.165 30.6H234.515C234.948 30.6 235.282 30.7 235.515 30.9C235.748 31.0667 235.965 31.2833 236.165 31.55C236.398 32.1167 236.765 32.6667 237.265 33.2C237.798 33.7333 238.515 34.1833 239.415 34.55C240.315 34.8833 241.432 35.05 242.765 35.05C244.932 35.05 246.548 34.7 247.615 34C248.715 33.3 249.265 32.35 249.265 31.15C249.265 30.2833 248.965 29.5833 248.365 29.05C247.798 28.5167 246.882 28.0333 245.615 27.6C244.382 27.1667 242.732 26.7 240.665 26.2C238.165 25.6667 236.032 24.9833 234.265 24.15C232.532 23.2833 231.215 22.1833 230.315 20.85C229.448 19.4833 229.015 17.8 229.015 15.8C229.015 13.8 229.565 12.0333 230.665 10.5C231.765 8.93333 233.315 7.71667 235.315 6.85C237.315 5.95 239.698 5.5 242.465 5.5C244.698 5.5 246.665 5.8 248.365 6.4C250.098 7 251.532 7.78333 252.665 8.75C253.832 9.71666 254.715 10.75 255.315 11.85C255.915 12.95 256.232 14.0167 256.265 15.05C256.265 15.3167 256.165 15.5667 255.965 15.8C255.765 16 255.515 16.1 255.215 16.1H249.615C249.282 16.1 248.982 16.0333 248.715 15.9C248.448 15.7667 248.232 15.5333 248.065 15.2C247.865 14.3333 247.265 13.5833 246.265 12.95C245.298 12.2833 244.032 11.95 242.465 11.95C240.832 11.95 239.532 12.25 238.565 12.85C237.632 13.45 237.165 14.3667 237.165 15.6C237.165 16.4 237.398 17.0833 237.865 17.65C238.365 18.1833 239.182 18.6667 240.315 19.1C241.482 19.5 243.015 19.95 244.915 20.45C247.848 21.05 250.232 21.7667 252.065 22.6C253.898 23.4333 255.248 24.5167 256.115 25.85C256.982 27.15 257.415 28.8 257.415 30.8C257.415 33.0333 256.782 34.95 255.515 36.55C254.282 38.15 252.565 39.3833 250.365 40.25C248.198 41.0833 245.665 41.5 242.765 41.5ZM287.717 41.5C284.584 41.5 281.917 40.9833 279.717 39.95C277.551 38.8833 275.867 37.35 274.667 35.35C273.467 33.3167 272.801 30.85 272.667 27.95C272.634 26.5833 272.617 25.1167 272.617 23.55C272.617 21.9833 272.634 20.4833 272.667 19.05C272.801 16.1833 273.467 13.75 274.667 11.75C275.901 9.71667 277.617 8.16667 279.817 7.1C282.017 6.03333 284.651 5.5 287.717 5.5C289.951 5.5 291.984 5.78333 293.817 6.35C295.651 6.91666 297.234 7.73333 298.567 8.8C299.901 9.86666 300.934 11.1167 301.667 12.55C302.401 13.9833 302.801 15.5833 302.867 17.35C302.867 17.65 302.751 17.9 302.517 18.1C302.317 18.3 302.067 18.4 301.767 18.4H296.067C295.667 18.4 295.351 18.3 295.117 18.1C294.884 17.9 294.701 17.5667 294.567 17.1C294.067 15.1333 293.234 13.7833 292.067 13.05C290.901 12.3167 289.451 11.95 287.717 11.95C285.651 11.95 284.017 12.5167 282.817 13.65C281.617 14.7833 280.967 16.6667 280.867 19.3C280.767 22.0333 280.767 24.8333 280.867 27.7C280.967 30.3333 281.617 32.2167 282.817 33.35C284.017 34.4833 285.651 35.05 287.717 35.05C289.451 35.05 290.901 34.6833 292.067 33.95C293.267 33.1833 294.101 31.8333 294.567 29.9C294.701 29.4 294.884 29.0667 295.117 28.9C295.351 28.7 295.667 28.6 296.067 28.6H301.767C302.067 28.6 302.317 28.7 302.517 28.9C302.751 29.1 302.867 29.35 302.867 29.65C302.801 31.4167 302.401 33.0167 301.667 34.45C300.934 35.8833 299.901 37.1333 298.567 38.2C297.234 39.2667 295.651 40.0833 293.817 40.65C291.984 41.2167 289.951 41.5 287.717 41.5ZM305.996 41C305.696 41 305.446 40.9 305.246 40.7C305.046 40.4667 304.946 40.2167 304.946 39.95C304.946 39.7833 304.962 39.6333 304.996 39.5L316.896 7.35C316.996 6.98333 317.196 6.66667 317.496 6.4C317.796 6.13333 318.212 6 318.746 6H325.146C325.679 6 326.096 6.13333 326.396 6.4C326.696 6.66667 326.896 6.98333 326.996 7.35L338.896 39.5C338.929 39.6333 338.946 39.7833 338.946 39.95C338.946 40.2167 338.846 40.4667 338.646 40.7C338.446 40.9 338.196 41 337.896 41H332.696C332.196 41 331.829 40.8833 331.596 40.65C331.362 40.4167 331.212 40.2 331.146 40L328.996 34.4H314.896L312.746 40C312.679 40.2 312.529 40.4167 312.296 40.65C312.062 40.8833 311.696 41 311.196 41H305.996ZM316.746 27.95H327.096L321.946 13.55L316.746 27.95ZM344.501 41C344.167 41 343.867 40.8833 343.601 40.65C343.367 40.4167 343.251 40.1167 343.251 39.75V7.25C343.251 6.88333 343.367 6.58333 343.601 6.35C343.867 6.11666 344.167 6 344.501 6H349.151C349.651 6 350.017 6.13333 350.251 6.4C350.517 6.66667 350.701 6.86667 350.801 7L360.001 23.95L369.301 7C369.367 6.86667 369.517 6.66667 369.751 6.4C370.017 6.13333 370.401 6 370.901 6H375.551C375.917 6 376.217 6.11666 376.451 6.35C376.684 6.58333 376.801 6.88333 376.801 7.25V39.75C376.801 40.1167 376.684 40.4167 376.451 40.65C376.217 40.8833 375.917 41 375.551 41H370.451C370.117 41 369.834 40.8833 369.601 40.65C369.367 40.4167 369.251 40.1167 369.251 39.75V19.55L362.901 31.45C362.734 31.75 362.517 32.0167 362.251 32.25C361.984 32.4833 361.634 32.6 361.201 32.6H358.851C358.417 32.6 358.067 32.4833 357.801 32.25C357.534 32.0167 357.317 31.75 357.151 31.45L350.801 19.55V39.75C350.801 40.1167 350.684 40.4167 350.451 40.65C350.217 40.8833 349.934 41 349.601 41H344.501ZM385.468 41C385.101 41 384.801 40.8833 384.568 40.65C384.334 40.4167 384.218 40.1167 384.218 39.75V7.25C384.218 6.88333 384.334 6.58333 384.568 6.35C384.801 6.11666 385.101 6 385.468 6H399.118C401.818 6 404.151 6.41666 406.118 7.25C408.118 8.08333 409.668 9.35 410.768 11.05C411.901 12.7167 412.468 14.8 412.468 17.3C412.468 19.8333 411.901 21.9333 410.768 23.6C409.668 25.2333 408.118 26.45 406.118 27.25C404.151 28.05 401.818 28.45 399.118 28.45H392.418V39.75C392.418 40.1167 392.301 40.4167 392.068 40.65C391.834 40.8833 391.534 41 391.168 41H385.468ZM392.268 22.25H398.868C400.568 22.25 401.884 21.8333 402.818 21C403.784 20.1667 404.268 18.9167 404.268 17.25C404.268 15.7833 403.834 14.5833 402.968 13.65C402.134 12.7167 400.768 12.25 398.868 12.25H392.268V22.25ZM431.467 41.5C428.434 41.5 425.817 41 423.617 40C421.417 39 419.701 37.5 418.467 35.5C417.234 33.4667 416.567 30.9167 416.467 27.85C416.434 26.4167 416.417 25 416.417 23.6C416.417 22.1667 416.434 20.7167 416.467 19.25C416.567 16.25 417.234 13.7333 418.467 11.7C419.734 9.63333 421.467 8.08333 423.667 7.05C425.901 6.01667 428.501 5.5 431.467 5.5C434.401 5.5 436.967 6.01667 439.167 7.05C441.401 8.08333 443.151 9.63333 444.417 11.7C445.684 13.7333 446.351 16.25 446.417 19.25C446.484 20.7167 446.517 22.1667 446.517 23.6C446.517 25 446.484 26.4167 446.417 27.85C446.317 30.9167 445.651 33.4667 444.417 35.5C443.184 37.5 441.467 39 439.267 40C437.067 41 434.467 41.5 431.467 41.5ZM431.467 35.05C433.401 35.05 434.984 34.4667 436.217 33.3C437.484 32.1 438.151 30.2 438.217 27.6C438.284 26.1333 438.317 24.7667 438.317 23.5C438.317 22.2 438.284 20.8333 438.217 19.4C438.184 17.6667 437.867 16.25 437.267 15.15C436.667 14.05 435.867 13.25 434.867 12.75C433.901 12.2167 432.767 11.95 431.467 11.95C430.167 11.95 429.017 12.2167 428.017 12.75C427.017 13.25 426.217 14.05 425.617 15.15C425.051 16.25 424.734 17.6667 424.667 19.4C424.634 20.8333 424.617 22.2 424.617 23.5C424.617 24.7667 424.634 26.1333 424.667 27.6C424.767 30.2 425.434 32.1 426.667 33.3C427.901 34.4667 429.501 35.05 431.467 35.05ZM465.323 41.5C462.123 41.5 459.44 41.0333 457.273 40.1C455.14 39.1667 453.523 37.95 452.423 36.45C451.323 34.95 450.74 33.35 450.673 31.65C450.673 31.3833 450.773 31.15 450.973 30.95C451.173 30.7167 451.423 30.6 451.723 30.6H457.073C457.507 30.6 457.84 30.7 458.073 30.9C458.307 31.0667 458.523 31.2833 458.723 31.55C458.957 32.1167 459.323 32.6667 459.823 33.2C460.357 33.7333 461.073 34.1833 461.973 34.55C462.873 34.8833 463.99 35.05 465.323 35.05C467.49 35.05 469.107 34.7 470.173 34C471.273 33.3 471.823 32.35 471.823 31.15C471.823 30.2833 471.523 29.5833 470.923 29.05C470.357 28.5167 469.44 28.0333 468.173 27.6C466.94 27.1667 465.29 26.7 463.223 26.2C460.723 25.6667 458.59 24.9833 456.823 24.15C455.09 23.2833 453.773 22.1833 452.873 20.85C452.007 19.4833 451.573 17.8 451.573 15.8C451.573 13.8 452.123 12.0333 453.223 10.5C454.323 8.93333 455.873 7.71667 457.873 6.85C459.873 5.95 462.257 5.5 465.023 5.5C467.257 5.5 469.223 5.8 470.923 6.4C472.657 7 474.09 7.78333 475.223 8.75C476.39 9.71666 477.273 10.75 477.873 11.85C478.473 12.95 478.79 14.0167 478.823 15.05C478.823 15.3167 478.723 15.5667 478.523 15.8C478.323 16 478.073 16.1 477.773 16.1H472.173C471.84 16.1 471.54 16.0333 471.273 15.9C471.007 15.7667 470.79 15.5333 470.623 15.2C470.423 14.3333 469.823 13.5833 468.823 12.95C467.857 12.2833 466.59 11.95 465.023 11.95C463.39 11.95 462.09 12.25 461.123 12.85C460.19 13.45 459.723 14.3667 459.723 15.6C459.723 16.4 459.957 17.0833 460.423 17.65C460.923 18.1833 461.74 18.6667 462.873 19.1C464.04 19.5 465.573 19.95 467.473 20.45C470.407 21.05 472.79 21.7667 474.623 22.6C476.457 23.4333 477.807 24.5167 478.673 25.85C479.54 27.15 479.973 28.8 479.973 30.8C479.973 33.0333 479.34 34.95 478.073 36.55C476.84 38.15 475.123 39.3833 472.923 40.25C470.757 41.0833 468.223 41.5 465.323 41.5Z" fill="#6D2E46"/>
</svg>
