<svg width="1254" height="55" viewBox="0 0 1254 55" fill="none" xmlns="http://www.w3.org/2000/svg">
<path id="que inspiram a descobrir o porqu&#195;&#170; de estarmos vivos!" d="M22.2393 58.9629V47.4883C22.2393 46.8535 22.2555 46.1211 22.2881 45.291C22.3206 44.4609 22.3776 43.7448 22.459 43.1426H22.1904C21.4417 44.3796 20.3757 45.4131 18.9922 46.2432C17.6087 47.0732 15.8265 47.4883 13.6455 47.4883C10.374 47.4883 7.74544 46.3327 5.75977 44.0215C3.77409 41.7103 2.78125 38.2598 2.78125 33.6699C2.78125 30.6589 3.23698 28.1198 4.14844 26.0527C5.0599 23.9857 6.3457 22.4232 8.00586 21.3652C9.68229 20.291 11.6354 19.7539 13.8652 19.7539C15.9974 19.7539 17.7389 20.1771 19.0898 21.0234C20.4408 21.8535 21.4987 22.8708 22.2637 24.0752H22.459L23.0693 20.2422H26.292V58.9629H22.2393ZM14.4023 44.1191C16.2904 44.1191 17.804 43.7692 18.9434 43.0693C20.0827 42.3532 20.9128 41.279 21.4336 39.8467C21.9707 38.4144 22.2555 36.6322 22.2881 34.5V33.6455C22.2881 30.195 21.7021 27.5827 20.5303 25.8086C19.3584 24.0182 17.3158 23.123 14.4023 23.123C11.8958 23.123 10.0322 24.0833 8.81152 26.0039C7.59082 27.9082 6.98047 30.4961 6.98047 33.7676C6.98047 37.0391 7.59082 39.5863 8.81152 41.4092C10.0322 43.2158 11.8958 44.1191 14.4023 44.1191ZM57.0049 20.2422V47H53.6846L53.0986 43.2402H52.8789C52.3255 44.168 51.6094 44.9492 50.7305 45.584C49.8516 46.2188 48.8587 46.6908 47.752 47C46.6615 47.3255 45.4977 47.4883 44.2607 47.4883C42.1449 47.4883 40.3708 47.1465 38.9385 46.4629C37.5062 45.7793 36.4238 44.7214 35.6914 43.2891C34.9753 41.8568 34.6172 40.0176 34.6172 37.7715V20.2422H38.7188V37.4785C38.7188 39.7083 39.2233 41.3766 40.2324 42.4834C41.2415 43.5739 42.7796 44.1191 44.8467 44.1191C46.8324 44.1191 48.4111 43.7448 49.583 42.9961C50.7712 42.2474 51.6257 41.1488 52.1465 39.7002C52.6673 38.2354 52.9277 36.445 52.9277 34.3291V20.2422H57.0049ZM75.877 19.7539C78.1556 19.7539 80.1087 20.2585 81.7363 21.2676C83.3639 22.2767 84.609 23.6927 85.4717 25.5156C86.3343 27.3223 86.7656 29.4382 86.7656 31.8633V34.3779H68.2842C68.333 37.5192 69.1143 39.9118 70.6279 41.5557C72.1416 43.1995 74.2738 44.0215 77.0244 44.0215C78.7171 44.0215 80.2145 43.8669 81.5166 43.5576C82.8187 43.2484 84.1696 42.7926 85.5693 42.1904V45.7549C84.2184 46.3571 82.8757 46.7965 81.541 47.0732C80.2227 47.3499 78.6602 47.4883 76.8535 47.4883C74.2819 47.4883 72.0358 46.9674 70.1152 45.9258C68.2109 44.8678 66.7298 43.3216 65.6719 41.2871C64.6139 39.2526 64.085 36.7624 64.085 33.8164C64.085 30.9355 64.5651 28.4453 65.5254 26.3457C66.502 24.2298 67.8691 22.6022 69.627 21.4629C71.401 20.3236 73.4844 19.7539 75.877 19.7539ZM75.8281 23.0742C73.6634 23.0742 71.9382 23.7822 70.6523 25.1982C69.3665 26.6143 68.6016 28.5918 68.3574 31.1309H82.5176C82.5013 29.5358 82.249 28.1361 81.7607 26.9316C81.2887 25.7109 80.5645 24.7669 79.5879 24.0996C78.6113 23.416 77.3581 23.0742 75.8281 23.0742ZM110.691 20.2422V47H106.639V20.2422H110.691ZM108.714 10.2324C109.381 10.2324 109.951 10.4521 110.423 10.8916C110.911 11.3148 111.155 11.9821 111.155 12.8936C111.155 13.7887 110.911 14.4561 110.423 14.8955C109.951 15.335 109.381 15.5547 108.714 15.5547C108.014 15.5547 107.428 15.335 106.956 14.8955C106.5 14.4561 106.272 13.7887 106.272 12.8936C106.272 11.9821 106.5 11.3148 106.956 10.8916C107.428 10.4521 108.014 10.2324 108.714 10.2324ZM131.956 19.7539C135.13 19.7539 137.531 20.5352 139.158 22.0977C140.786 23.6439 141.6 26.1341 141.6 29.5684V47H137.596V29.8369C137.596 27.6071 137.083 25.9388 136.058 24.832C135.049 23.7253 133.494 23.1719 131.395 23.1719C128.432 23.1719 126.349 24.0101 125.145 25.6865C123.94 27.363 123.338 29.7962 123.338 32.9863V47H119.285V20.2422H122.557L123.167 24.0996H123.387C123.956 23.1556 124.681 22.3662 125.56 21.7314C126.438 21.0804 127.423 20.5921 128.514 20.2666C129.604 19.9248 130.752 19.7539 131.956 19.7539ZM167.259 39.6758C167.259 41.3848 166.827 42.8252 165.965 43.9971C165.118 45.1527 163.898 46.0234 162.303 46.6094C160.724 47.1953 158.836 47.4883 156.639 47.4883C154.767 47.4883 153.147 47.3418 151.78 47.0488C150.413 46.7559 149.217 46.3408 148.191 45.8037V42.0684C149.282 42.6055 150.584 43.0938 152.098 43.5332C153.611 43.9727 155.158 44.1924 156.736 44.1924C159.048 44.1924 160.724 43.818 161.766 43.0693C162.807 42.3206 163.328 41.3034 163.328 40.0176C163.328 39.2852 163.117 38.6423 162.693 38.0889C162.286 37.5192 161.595 36.974 160.618 36.4531C159.642 35.916 158.291 35.3301 156.565 34.6953C154.856 34.0443 153.375 33.4014 152.122 32.7666C150.885 32.1156 149.925 31.3262 149.241 30.3984C148.574 29.4707 148.24 28.2663 148.24 26.7852C148.24 24.5228 149.152 22.7894 150.975 21.585C152.814 20.3643 155.223 19.7539 158.201 19.7539C159.812 19.7539 161.318 19.9167 162.718 20.2422C164.134 20.5514 165.452 20.9746 166.673 21.5117L165.306 24.7588C164.199 24.2868 163.019 23.888 161.766 23.5625C160.512 23.237 159.235 23.0742 157.933 23.0742C156.061 23.0742 154.62 23.3835 153.611 24.002C152.618 24.6204 152.122 25.4668 152.122 26.541C152.122 27.3711 152.35 28.0547 152.806 28.5918C153.278 29.1289 154.026 29.6335 155.052 30.1055C156.077 30.5775 157.428 31.1309 159.104 31.7656C160.781 32.3841 162.229 33.027 163.45 33.6943C164.671 34.3454 165.607 35.1429 166.258 36.0869C166.925 37.0146 167.259 38.2109 167.259 39.6758ZM186.351 19.7539C189.687 19.7539 192.348 20.9014 194.334 23.1963C196.32 25.4912 197.312 28.9417 197.312 33.5479C197.312 36.5915 196.857 39.1468 195.945 41.2139C195.034 43.2809 193.748 44.8434 192.088 45.9014C190.444 46.9593 188.499 47.4883 186.253 47.4883C184.837 47.4883 183.592 47.3011 182.518 46.9268C181.443 46.5524 180.524 46.0479 179.759 45.4131C178.994 44.7783 178.359 44.0866 177.854 43.3379H177.562C177.61 43.9727 177.667 44.7376 177.732 45.6328C177.814 46.528 177.854 47.3092 177.854 47.9766V58.9629H173.777V20.2422H177.122L177.659 24.1973H177.854C178.375 23.3835 179.01 22.6429 179.759 21.9756C180.507 21.292 181.419 20.7549 182.493 20.3643C183.584 19.9574 184.869 19.7539 186.351 19.7539ZM185.643 23.1719C183.787 23.1719 182.29 23.5299 181.15 24.2461C180.027 24.9622 179.205 26.0365 178.685 27.4688C178.164 28.8848 177.887 30.667 177.854 32.8154V33.5967C177.854 35.859 178.099 37.7715 178.587 39.334C179.091 40.8965 179.913 42.0846 181.053 42.8984C182.208 43.7122 183.755 44.1191 185.691 44.1191C187.352 44.1191 188.735 43.6715 189.842 42.7764C190.949 41.8812 191.771 40.6361 192.308 39.041C192.861 37.4297 193.138 35.5824 193.138 33.499C193.138 30.3415 192.519 27.835 191.282 25.9795C190.062 24.1077 188.182 23.1719 185.643 23.1719ZM208.445 20.2422V47H204.393V20.2422H208.445ZM206.468 10.2324C207.135 10.2324 207.705 10.4521 208.177 10.8916C208.665 11.3148 208.909 11.9821 208.909 12.8936C208.909 13.7887 208.665 14.4561 208.177 14.8955C207.705 15.335 207.135 15.5547 206.468 15.5547C205.768 15.5547 205.182 15.335 204.71 14.8955C204.254 14.4561 204.026 13.7887 204.026 12.8936C204.026 11.9821 204.254 11.3148 204.71 10.8916C205.182 10.4521 205.768 10.2324 206.468 10.2324ZM229.197 19.7539C229.734 19.7539 230.296 19.7865 230.882 19.8516C231.468 19.9004 231.989 19.9736 232.444 20.0713L231.932 23.8311C231.492 23.7171 231.004 23.6276 230.467 23.5625C229.93 23.4974 229.425 23.4648 228.953 23.4648C227.879 23.4648 226.862 23.6846 225.901 24.124C224.957 24.5472 224.127 25.1657 223.411 25.9795C222.695 26.777 222.133 27.7454 221.727 28.8848C221.32 30.0078 221.116 31.2611 221.116 32.6445V47H217.039V20.2422H220.408L220.848 25.1738H221.019C221.572 24.181 222.239 23.2777 223.021 22.4639C223.802 21.6338 224.705 20.9746 225.73 20.4863C226.772 19.998 227.928 19.7539 229.197 19.7539ZM247.508 19.8027C250.698 19.8027 253.066 20.5189 254.612 21.9512C256.159 23.3835 256.932 25.6702 256.932 28.8115V47H253.978L253.196 43.0449H253.001C252.252 44.0215 251.471 44.8434 250.657 45.5107C249.843 46.1618 248.899 46.6582 247.825 47C246.767 47.3255 245.465 47.4883 243.919 47.4883C242.291 47.4883 240.843 47.2035 239.573 46.6338C238.32 46.0641 237.327 45.2015 236.595 44.0459C235.879 42.8903 235.521 41.4255 235.521 39.6514C235.521 36.9821 236.578 34.9313 238.694 33.499C240.81 32.0667 244.033 31.2855 248.362 31.1553L252.977 30.96V29.3242C252.977 27.013 252.48 25.3936 251.487 24.4658C250.494 23.5381 249.095 23.0742 247.288 23.0742C245.888 23.0742 244.554 23.2777 243.284 23.6846C242.015 24.0915 240.81 24.5716 239.671 25.125L238.426 22.0488C239.63 21.4303 241.014 20.9014 242.576 20.4619C244.139 20.0225 245.783 19.8027 247.508 19.8027ZM252.928 33.8164L248.851 33.9873C245.514 34.1175 243.162 34.6628 241.795 35.623C240.428 36.5833 239.744 37.9424 239.744 39.7002C239.744 41.2301 240.208 42.3613 241.136 43.0938C242.063 43.8262 243.292 44.1924 244.822 44.1924C247.199 44.1924 249.144 43.5332 250.657 42.2148C252.171 40.8965 252.928 38.9189 252.928 36.2822V33.8164ZM294.334 19.7539C297.28 19.7539 299.502 20.527 300.999 22.0732C302.496 23.6032 303.245 26.069 303.245 29.4707V47H299.241V29.666C299.241 27.5013 298.769 25.8818 297.825 24.8076C296.897 23.7171 295.514 23.1719 293.675 23.1719C291.087 23.1719 289.207 23.9206 288.035 25.418C286.863 26.9154 286.277 29.1208 286.277 32.0342V47H282.249V29.666C282.249 28.2174 282.037 27.013 281.614 26.0527C281.207 25.0924 280.589 24.3763 279.759 23.9043C278.945 23.416 277.911 23.1719 276.658 23.1719C274.884 23.1719 273.46 23.5381 272.386 24.2705C271.312 25.0029 270.53 26.0934 270.042 27.542C269.57 28.9743 269.334 30.7402 269.334 32.8398V47H265.281V20.2422H268.553L269.163 24.0264H269.383C269.92 23.0986 270.595 22.3174 271.409 21.6826C272.223 21.0479 273.134 20.5677 274.144 20.2422C275.153 19.9167 276.227 19.7539 277.366 19.7539C279.401 19.7539 281.102 20.1364 282.469 20.9014C283.852 21.6501 284.853 22.7975 285.472 24.3438H285.691C286.57 22.7975 287.775 21.6501 289.305 20.9014C290.835 20.1364 292.511 19.7539 294.334 19.7539ZM334.568 19.8027C337.758 19.8027 340.127 20.5189 341.673 21.9512C343.219 23.3835 343.992 25.6702 343.992 28.8115V47H341.038L340.257 43.0449H340.062C339.313 44.0215 338.532 44.8434 337.718 45.5107C336.904 46.1618 335.96 46.6582 334.886 47C333.828 47.3255 332.526 47.4883 330.979 47.4883C329.352 47.4883 327.903 47.2035 326.634 46.6338C325.381 46.0641 324.388 45.2015 323.655 44.0459C322.939 42.8903 322.581 41.4255 322.581 39.6514C322.581 36.9821 323.639 34.9313 325.755 33.499C327.871 32.0667 331.093 31.2855 335.423 31.1553L340.037 30.96V29.3242C340.037 27.013 339.541 25.3936 338.548 24.4658C337.555 23.5381 336.155 23.0742 334.349 23.0742C332.949 23.0742 331.614 23.2777 330.345 23.6846C329.075 24.0915 327.871 24.5716 326.731 25.125L325.486 22.0488C326.691 21.4303 328.074 20.9014 329.637 20.4619C331.199 20.0225 332.843 19.8027 334.568 19.8027ZM339.988 33.8164L335.911 33.9873C332.575 34.1175 330.223 34.6628 328.855 35.623C327.488 36.5833 326.805 37.9424 326.805 39.7002C326.805 41.2301 327.269 42.3613 328.196 43.0938C329.124 43.8262 330.353 44.1924 331.883 44.1924C334.259 44.1924 336.204 43.5332 337.718 42.2148C339.231 40.8965 339.988 38.9189 339.988 36.2822V33.8164ZM374.852 47.4883C371.466 47.4883 368.781 46.3327 366.795 44.0215C364.826 41.7103 363.841 38.276 363.841 33.7188C363.841 29.1126 364.85 25.6377 366.868 23.2939C368.886 20.9339 371.572 19.7539 374.925 19.7539C376.341 19.7539 377.578 19.9411 378.636 20.3154C379.694 20.6898 380.605 21.1943 381.37 21.8291C382.135 22.4476 382.778 23.1556 383.299 23.9531H383.592C383.527 23.4486 383.462 22.7568 383.396 21.8779C383.331 20.999 383.299 20.2829 383.299 19.7295V9.01172H387.352V47H384.08L383.47 43.1914H383.299C382.794 43.9889 382.151 44.7132 381.37 45.3643C380.605 46.0153 379.686 46.5361 378.611 46.9268C377.553 47.3011 376.3 47.4883 374.852 47.4883ZM375.486 44.1191C378.351 44.1191 380.377 43.3053 381.565 41.6777C382.754 40.0501 383.348 37.6331 383.348 34.4268V33.6943C383.348 30.2926 382.778 27.6803 381.639 25.8574C380.516 24.0345 378.465 23.123 375.486 23.123C372.996 23.123 371.132 24.0833 369.896 26.0039C368.659 27.9082 368.04 30.5124 368.04 33.8164C368.04 37.1042 368.65 39.6432 369.871 41.4336C371.108 43.224 372.98 44.1191 375.486 44.1191ZM406.248 19.7539C408.527 19.7539 410.48 20.2585 412.107 21.2676C413.735 22.2767 414.98 23.6927 415.843 25.5156C416.705 27.3223 417.137 29.4382 417.137 31.8633V34.3779H398.655C398.704 37.5192 399.485 39.9118 400.999 41.5557C402.513 43.1995 404.645 44.0215 407.396 44.0215C409.088 44.0215 410.586 43.8669 411.888 43.5576C413.19 43.2484 414.541 42.7926 415.94 42.1904V45.7549C414.59 46.3571 413.247 46.7965 411.912 47.0732C410.594 47.3499 409.031 47.4883 407.225 47.4883C404.653 47.4883 402.407 46.9674 400.486 45.9258C398.582 44.8678 397.101 43.3216 396.043 41.2871C394.985 39.2526 394.456 36.7624 394.456 33.8164C394.456 30.9355 394.936 28.4453 395.896 26.3457C396.873 24.2298 398.24 22.6022 399.998 21.4629C401.772 20.3236 403.855 19.7539 406.248 19.7539ZM406.199 23.0742C404.035 23.0742 402.309 23.7822 401.023 25.1982C399.738 26.6143 398.973 28.5918 398.729 31.1309H412.889C412.872 29.5358 412.62 28.1361 412.132 26.9316C411.66 25.7109 410.936 24.7669 409.959 24.0996C408.982 23.416 407.729 23.0742 406.199 23.0742ZM441.331 39.6758C441.331 41.3848 440.9 42.8252 440.037 43.9971C439.191 45.1527 437.97 46.0234 436.375 46.6094C434.796 47.1953 432.908 47.4883 430.711 47.4883C428.839 47.4883 427.22 47.3418 425.853 47.0488C424.485 46.7559 423.289 46.3408 422.264 45.8037V42.0684C423.354 42.6055 424.656 43.0938 426.17 43.5332C427.684 43.9727 429.23 44.1924 430.809 44.1924C433.12 44.1924 434.796 43.818 435.838 43.0693C436.88 42.3206 437.4 41.3034 437.4 40.0176C437.4 39.2852 437.189 38.6423 436.766 38.0889C436.359 37.5192 435.667 36.974 434.69 36.4531C433.714 35.916 432.363 35.3301 430.638 34.6953C428.929 34.0443 427.448 33.4014 426.194 32.7666C424.957 32.1156 423.997 31.3262 423.313 30.3984C422.646 29.4707 422.312 28.2663 422.312 26.7852C422.312 24.5228 423.224 22.7894 425.047 21.585C426.886 20.3643 429.295 19.7539 432.273 19.7539C433.885 19.7539 435.39 19.9167 436.79 20.2422C438.206 20.5514 439.524 20.9746 440.745 21.5117L439.378 24.7588C438.271 24.2868 437.091 23.888 435.838 23.5625C434.585 23.237 433.307 23.0742 432.005 23.0742C430.133 23.0742 428.693 23.3835 427.684 24.002C426.691 24.6204 426.194 25.4668 426.194 26.541C426.194 27.3711 426.422 28.0547 426.878 28.5918C427.35 29.1289 428.099 29.6335 429.124 30.1055C430.149 30.5775 431.5 31.1309 433.177 31.7656C434.853 32.3841 436.302 33.027 437.522 33.6943C438.743 34.3454 439.679 35.1429 440.33 36.0869C440.997 37.0146 441.331 38.2109 441.331 39.6758ZM458.567 47.4883C456.159 47.4883 454.035 46.9919 452.195 45.999C450.356 45.0062 448.924 43.4925 447.898 41.458C446.873 39.4235 446.36 36.86 446.36 33.7676C446.36 30.5286 446.897 27.8838 447.972 25.833C449.062 23.766 450.56 22.236 452.464 21.2432C454.368 20.2503 456.533 19.7539 458.958 19.7539C460.293 19.7539 461.578 19.8923 462.815 20.1689C464.069 20.4294 465.094 20.763 465.892 21.1699L464.671 24.5635C463.857 24.238 462.913 23.945 461.839 23.6846C460.781 23.4242 459.788 23.2939 458.86 23.2939C457.005 23.2939 455.459 23.6927 454.222 24.4902C453.001 25.2878 452.081 26.4596 451.463 28.0059C450.861 29.5521 450.56 31.4564 450.56 33.7188C450.56 35.8835 450.853 37.7308 451.438 39.2607C452.041 40.7907 452.928 41.9626 454.1 42.7764C455.288 43.5739 456.769 43.9727 458.543 43.9727C459.959 43.9727 461.237 43.8262 462.376 43.5332C463.515 43.224 464.549 42.8659 465.477 42.459V46.0723C464.581 46.528 463.58 46.8779 462.474 47.1221C461.383 47.3662 460.081 47.4883 458.567 47.4883ZM494.896 33.5723C494.896 35.7695 494.611 37.7308 494.041 39.4561C493.471 41.1813 492.649 42.638 491.575 43.8262C490.501 45.0143 489.199 45.9258 487.669 46.5605C486.155 47.179 484.438 47.4883 482.518 47.4883C480.727 47.4883 479.083 47.179 477.586 46.5605C476.105 45.9258 474.819 45.0143 473.729 43.8262C472.654 42.638 471.816 41.1813 471.214 39.4561C470.628 37.7308 470.335 35.7695 470.335 33.5723C470.335 30.6426 470.831 28.1523 471.824 26.1016C472.817 24.0345 474.233 22.4639 476.072 21.3896C477.928 20.2992 480.133 19.7539 482.688 19.7539C485.13 19.7539 487.262 20.2992 489.085 21.3896C490.924 22.4801 492.348 24.0589 493.357 26.126C494.383 28.1768 494.896 30.6589 494.896 33.5723ZM474.534 33.5723C474.534 35.7207 474.819 37.5843 475.389 39.1631C475.958 40.7419 476.837 41.9626 478.025 42.8252C479.214 43.6878 480.743 44.1191 482.615 44.1191C484.471 44.1191 485.993 43.6878 487.181 42.8252C488.385 41.9626 489.272 40.7419 489.842 39.1631C490.411 37.5843 490.696 35.7207 490.696 33.5723C490.696 31.4401 490.411 29.6009 489.842 28.0547C489.272 26.4922 488.393 25.2878 487.205 24.4414C486.017 23.5951 484.479 23.1719 482.591 23.1719C479.808 23.1719 477.765 24.0915 476.463 25.9307C475.177 27.7699 474.534 30.3171 474.534 33.5723ZM505.955 9.01172V18.5088C505.955 19.5993 505.923 20.6572 505.857 21.6826C505.809 22.708 505.768 23.5055 505.735 24.0752H505.955C506.688 22.8708 507.745 21.8535 509.129 21.0234C510.512 20.1934 512.278 19.7783 514.427 19.7783C517.78 19.7783 520.449 20.9421 522.435 23.2695C524.437 25.5807 525.438 29.0231 525.438 33.5967C525.438 36.6077 524.982 39.1468 524.07 41.2139C523.159 43.2809 521.873 44.8434 520.213 45.9014C518.553 46.9593 516.591 47.4883 514.329 47.4883C512.213 47.4883 510.472 47.0977 509.104 46.3164C507.754 45.5189 506.712 44.5505 505.979 43.4111H505.662L504.832 47H501.902V9.01172H505.955ZM513.768 23.1719C511.831 23.1719 510.293 23.5544 509.153 24.3193C508.014 25.068 507.192 26.2074 506.688 27.7373C506.199 29.251 505.955 31.1715 505.955 33.499V33.7188C505.955 37.0879 506.517 39.6676 507.64 41.458C508.763 43.2321 510.805 44.1191 513.768 44.1191C516.258 44.1191 518.121 43.2077 519.358 41.3848C520.612 39.5618 521.238 36.9577 521.238 33.5723C521.238 30.1217 520.62 27.5257 519.383 25.7842C518.162 24.0426 516.29 23.1719 513.768 23.1719ZM544.676 19.7539C545.213 19.7539 545.774 19.7865 546.36 19.8516C546.946 19.9004 547.467 19.9736 547.923 20.0713L547.41 23.8311C546.971 23.7171 546.482 23.6276 545.945 23.5625C545.408 23.4974 544.904 23.4648 544.432 23.4648C543.357 23.4648 542.34 23.6846 541.38 24.124C540.436 24.5472 539.606 25.1657 538.89 25.9795C538.174 26.777 537.612 27.7454 537.205 28.8848C536.798 30.0078 536.595 31.2611 536.595 32.6445V47H532.518V20.2422H535.887L536.326 25.1738H536.497C537.05 24.181 537.718 23.2777 538.499 22.4639C539.28 21.6338 540.184 20.9746 541.209 20.4863C542.251 19.998 543.406 19.7539 544.676 19.7539ZM557.029 20.2422V47H552.977V20.2422H557.029ZM555.052 10.2324C555.719 10.2324 556.289 10.4521 556.761 10.8916C557.249 11.3148 557.493 11.9821 557.493 12.8936C557.493 13.7887 557.249 14.4561 556.761 14.8955C556.289 15.335 555.719 15.5547 555.052 15.5547C554.352 15.5547 553.766 15.335 553.294 14.8955C552.838 14.4561 552.61 13.7887 552.61 12.8936C552.61 11.9821 552.838 11.3148 553.294 10.8916C553.766 10.4521 554.352 10.2324 555.052 10.2324ZM577.781 19.7539C578.318 19.7539 578.88 19.7865 579.466 19.8516C580.052 19.9004 580.573 19.9736 581.028 20.0713L580.516 23.8311C580.076 23.7171 579.588 23.6276 579.051 23.5625C578.514 23.4974 578.009 23.4648 577.537 23.4648C576.463 23.4648 575.446 23.6846 574.485 24.124C573.541 24.5472 572.711 25.1657 571.995 25.9795C571.279 26.777 570.717 27.7454 570.311 28.8848C569.904 30.0078 569.7 31.2611 569.7 32.6445V47H565.623V20.2422H568.992L569.432 25.1738H569.603C570.156 24.181 570.823 23.2777 571.604 22.4639C572.386 21.6338 573.289 20.9746 574.314 20.4863C575.356 19.998 576.512 19.7539 577.781 19.7539ZM622.142 33.5723C622.142 35.7695 621.857 37.7308 621.287 39.4561C620.717 41.1813 619.896 42.638 618.821 43.8262C617.747 45.0143 616.445 45.9258 614.915 46.5605C613.401 47.179 611.684 47.4883 609.764 47.4883C607.973 47.4883 606.329 47.179 604.832 46.5605C603.351 45.9258 602.065 45.0143 600.975 43.8262C599.9 42.638 599.062 41.1813 598.46 39.4561C597.874 37.7308 597.581 35.7695 597.581 33.5723C597.581 30.6426 598.077 28.1523 599.07 26.1016C600.063 24.0345 601.479 22.4639 603.318 21.3896C605.174 20.2992 607.379 19.7539 609.935 19.7539C612.376 19.7539 614.508 20.2992 616.331 21.3896C618.17 22.4801 619.594 24.0589 620.604 26.126C621.629 28.1768 622.142 30.6589 622.142 33.5723ZM601.78 33.5723C601.78 35.7207 602.065 37.5843 602.635 39.1631C603.204 40.7419 604.083 41.9626 605.271 42.8252C606.46 43.6878 607.99 44.1191 609.861 44.1191C611.717 44.1191 613.239 43.6878 614.427 42.8252C615.631 41.9626 616.518 40.7419 617.088 39.1631C617.658 37.5843 617.942 35.7207 617.942 33.5723C617.942 31.4401 617.658 29.6009 617.088 28.0547C616.518 26.4922 615.639 25.2878 614.451 24.4414C613.263 23.5951 611.725 23.1719 609.837 23.1719C607.054 23.1719 605.011 24.0915 603.709 25.9307C602.423 27.7699 601.78 30.3171 601.78 33.5723ZM654.71 19.7539C658.047 19.7539 660.708 20.9014 662.693 23.1963C664.679 25.4912 665.672 28.9417 665.672 33.5479C665.672 36.5915 665.216 39.1468 664.305 41.2139C663.393 43.2809 662.107 44.8434 660.447 45.9014C658.803 46.9593 656.858 47.4883 654.612 47.4883C653.196 47.4883 651.951 47.3011 650.877 46.9268C649.803 46.5524 648.883 46.0479 648.118 45.4131C647.353 44.7783 646.718 44.0866 646.214 43.3379H645.921C645.97 43.9727 646.027 44.7376 646.092 45.6328C646.173 46.528 646.214 47.3092 646.214 47.9766V58.9629H642.137V20.2422H645.481L646.019 24.1973H646.214C646.735 23.3835 647.369 22.6429 648.118 21.9756C648.867 21.292 649.778 20.7549 650.853 20.3643C651.943 19.9574 653.229 19.7539 654.71 19.7539ZM654.002 23.1719C652.146 23.1719 650.649 23.5299 649.51 24.2461C648.387 24.9622 647.565 26.0365 647.044 27.4688C646.523 28.8848 646.246 30.667 646.214 32.8154V33.5967C646.214 35.859 646.458 37.7715 646.946 39.334C647.451 40.8965 648.273 42.0846 649.412 42.8984C650.568 43.7122 652.114 44.1191 654.051 44.1191C655.711 44.1191 657.094 43.6715 658.201 42.7764C659.308 41.8812 660.13 40.6361 660.667 39.041C661.22 37.4297 661.497 35.5824 661.497 33.499C661.497 30.3415 660.879 27.835 659.642 25.9795C658.421 24.1077 656.541 23.1719 654.002 23.1719ZM695.823 33.5723C695.823 35.7695 695.538 37.7308 694.969 39.4561C694.399 41.1813 693.577 42.638 692.503 43.8262C691.429 45.0143 690.127 45.9258 688.597 46.5605C687.083 47.179 685.366 47.4883 683.445 47.4883C681.655 47.4883 680.011 47.179 678.514 46.5605C677.033 45.9258 675.747 45.0143 674.656 43.8262C673.582 42.638 672.744 41.1813 672.142 39.4561C671.556 37.7308 671.263 35.7695 671.263 33.5723C671.263 30.6426 671.759 28.1523 672.752 26.1016C673.745 24.0345 675.161 22.4639 677 21.3896C678.855 20.2992 681.061 19.7539 683.616 19.7539C686.058 19.7539 688.19 20.2992 690.013 21.3896C691.852 22.4801 693.276 24.0589 694.285 26.126C695.311 28.1768 695.823 30.6589 695.823 33.5723ZM675.462 33.5723C675.462 35.7207 675.747 37.5843 676.316 39.1631C676.886 40.7419 677.765 41.9626 678.953 42.8252C680.141 43.6878 681.671 44.1191 683.543 44.1191C685.398 44.1191 686.92 43.6878 688.108 42.8252C689.313 41.9626 690.2 40.7419 690.77 39.1631C691.339 37.5843 691.624 35.7207 691.624 33.5723C691.624 31.4401 691.339 29.6009 690.77 28.0547C690.2 26.4922 689.321 25.2878 688.133 24.4414C686.945 23.5951 685.407 23.1719 683.519 23.1719C680.735 23.1719 678.693 24.0915 677.391 25.9307C676.105 27.7699 675.462 30.3171 675.462 33.5723ZM714.988 19.7539C715.525 19.7539 716.087 19.7865 716.673 19.8516C717.259 19.9004 717.78 19.9736 718.235 20.0713L717.723 23.8311C717.283 23.7171 716.795 23.6276 716.258 23.5625C715.721 23.4974 715.216 23.4648 714.744 23.4648C713.67 23.4648 712.653 23.6846 711.692 24.124C710.748 24.5472 709.918 25.1657 709.202 25.9795C708.486 26.777 707.924 27.7454 707.518 28.8848C707.111 30.0078 706.907 31.2611 706.907 32.6445V47H702.83V20.2422H706.199L706.639 25.1738H706.81C707.363 24.181 708.03 23.2777 708.812 22.4639C709.593 21.6338 710.496 20.9746 711.521 20.4863C712.563 19.998 713.719 19.7539 714.988 19.7539ZM741.233 58.9629V47.4883C741.233 46.8535 741.25 46.1211 741.282 45.291C741.315 44.4609 741.372 43.7448 741.453 43.1426H741.185C740.436 44.3796 739.37 45.4131 737.986 46.2432C736.603 47.0732 734.821 47.4883 732.64 47.4883C729.368 47.4883 726.74 46.3327 724.754 44.0215C722.768 41.7103 721.775 38.2598 721.775 33.6699C721.775 30.6589 722.231 28.1198 723.143 26.0527C724.054 23.9857 725.34 22.4232 727 21.3652C728.676 20.291 730.63 19.7539 732.859 19.7539C734.992 19.7539 736.733 20.1771 738.084 21.0234C739.435 21.8535 740.493 22.8708 741.258 24.0752H741.453L742.063 20.2422H745.286V58.9629H741.233ZM733.396 44.1191C735.285 44.1191 736.798 43.7692 737.938 43.0693C739.077 42.3532 739.907 41.279 740.428 39.8467C740.965 38.4144 741.25 36.6322 741.282 34.5V33.6455C741.282 30.195 740.696 27.5827 739.524 25.8086C738.353 24.0182 736.31 23.123 733.396 23.123C730.89 23.123 729.026 24.0833 727.806 26.0039C726.585 27.9082 725.975 30.4961 725.975 33.7676C725.975 37.0391 726.585 39.5863 727.806 41.4092C729.026 43.2158 730.89 44.1191 733.396 44.1191ZM775.999 20.2422V47H772.679L772.093 43.2402H771.873C771.32 44.168 770.604 44.9492 769.725 45.584C768.846 46.2188 767.853 46.6908 766.746 47C765.656 47.3255 764.492 47.4883 763.255 47.4883C761.139 47.4883 759.365 47.1465 757.933 46.4629C756.5 45.7793 755.418 44.7214 754.686 43.2891C753.969 41.8568 753.611 40.0176 753.611 37.7715V20.2422H757.713V37.4785C757.713 39.7083 758.217 41.3766 759.227 42.4834C760.236 43.5739 761.774 44.1191 763.841 44.1191C765.826 44.1191 767.405 43.7448 768.577 42.9961C769.765 42.2474 770.62 41.1488 771.141 39.7002C771.661 38.2354 771.922 36.445 771.922 34.3291V20.2422H775.999ZM794.871 19.7539C797.15 19.7539 799.103 20.2585 800.73 21.2676C802.358 22.2767 803.603 23.6927 804.466 25.5156C805.328 27.3223 805.76 29.4382 805.76 31.8633V34.3779H787.278C787.327 37.5192 788.108 39.9118 789.622 41.5557C791.136 43.1995 793.268 44.0215 796.019 44.0215C797.711 44.0215 799.209 43.8669 800.511 43.5576C801.813 43.2484 803.164 42.7926 804.563 42.1904V45.7549C803.213 46.3571 801.87 46.7965 800.535 47.0732C799.217 47.3499 797.654 47.4883 795.848 47.4883C793.276 47.4883 791.03 46.9674 789.109 45.9258C787.205 44.8678 785.724 43.3216 784.666 41.2871C783.608 39.2526 783.079 36.7624 783.079 33.8164C783.079 30.9355 783.559 28.4453 784.52 26.3457C785.496 24.2298 786.863 22.6022 788.621 21.4629C790.395 20.3236 792.479 19.7539 794.871 19.7539ZM794.822 23.0742C792.658 23.0742 790.932 23.7822 789.646 25.1982C788.361 26.6143 787.596 28.5918 787.352 31.1309H801.512C801.495 29.5358 801.243 28.1361 800.755 26.9316C800.283 25.7109 799.559 24.7669 798.582 24.0996C797.605 23.416 796.352 23.0742 794.822 23.0742ZM796.629 8.71875C797.036 9.45117 797.605 10.2812 798.338 11.209C799.07 12.1204 799.843 13.0156 800.657 13.8945C801.471 14.7734 802.195 15.5303 802.83 16.165V16.7021H799.949C799.07 16.1325 798.167 15.4326 797.239 14.6025C796.312 13.7725 795.408 12.9098 794.529 12.0146C793.65 12.9098 792.755 13.7725 791.844 14.6025C790.949 15.4163 790.062 16.1162 789.183 16.7021H786.399V16.165C787.018 15.514 787.718 14.749 788.499 13.8701C789.297 12.9912 790.053 12.096 790.77 11.1846C791.502 10.2731 792.08 9.45117 792.503 8.71875H796.629ZM835.154 47.4883C831.769 47.4883 829.083 46.3327 827.098 44.0215C825.128 41.7103 824.144 38.276 824.144 33.7188C824.144 29.1126 825.153 25.6377 827.171 23.2939C829.189 20.9339 831.875 19.7539 835.228 19.7539C836.644 19.7539 837.881 19.9411 838.938 20.3154C839.996 20.6898 840.908 21.1943 841.673 21.8291C842.438 22.4476 843.081 23.1556 843.602 23.9531H843.895C843.829 23.4486 843.764 22.7568 843.699 21.8779C843.634 20.999 843.602 20.2829 843.602 19.7295V9.01172H847.654V47H844.383L843.772 43.1914H843.602C843.097 43.9889 842.454 44.7132 841.673 45.3643C840.908 46.0153 839.988 46.5361 838.914 46.9268C837.856 47.3011 836.603 47.4883 835.154 47.4883ZM835.789 44.1191C838.654 44.1191 840.68 43.3053 841.868 41.6777C843.056 40.0501 843.65 37.6331 843.65 34.4268V33.6943C843.65 30.2926 843.081 27.6803 841.941 25.8574C840.818 24.0345 838.768 23.123 835.789 23.123C833.299 23.123 831.435 24.0833 830.198 26.0039C828.961 27.9082 828.343 30.5124 828.343 33.8164C828.343 37.1042 828.953 39.6432 830.174 41.4336C831.411 43.224 833.283 44.1191 835.789 44.1191ZM866.551 19.7539C868.829 19.7539 870.783 20.2585 872.41 21.2676C874.038 22.2767 875.283 23.6927 876.146 25.5156C877.008 27.3223 877.439 29.4382 877.439 31.8633V34.3779H858.958C859.007 37.5192 859.788 39.9118 861.302 41.5557C862.815 43.1995 864.948 44.0215 867.698 44.0215C869.391 44.0215 870.888 43.8669 872.19 43.5576C873.493 43.2484 874.843 42.7926 876.243 42.1904V45.7549C874.892 46.3571 873.549 46.7965 872.215 47.0732C870.896 47.3499 869.334 47.4883 867.527 47.4883C864.956 47.4883 862.71 46.9674 860.789 45.9258C858.885 44.8678 857.404 43.3216 856.346 41.2871C855.288 39.2526 854.759 36.7624 854.759 33.8164C854.759 30.9355 855.239 28.4453 856.199 26.3457C857.176 24.2298 858.543 22.6022 860.301 21.4629C862.075 20.3236 864.158 19.7539 866.551 19.7539ZM866.502 23.0742C864.337 23.0742 862.612 23.7822 861.326 25.1982C860.04 26.6143 859.275 28.5918 859.031 31.1309H873.191C873.175 29.5358 872.923 28.1361 872.435 26.9316C871.963 25.7109 871.238 24.7669 870.262 24.0996C869.285 23.416 868.032 23.0742 866.502 23.0742ZM907.615 19.7539C909.894 19.7539 911.847 20.2585 913.475 21.2676C915.102 22.2767 916.347 23.6927 917.21 25.5156C918.073 27.3223 918.504 29.4382 918.504 31.8633V34.3779H900.022C900.071 37.5192 900.853 39.9118 902.366 41.5557C903.88 43.1995 906.012 44.0215 908.763 44.0215C910.455 44.0215 911.953 43.8669 913.255 43.5576C914.557 43.2484 915.908 42.7926 917.308 42.1904V45.7549C915.957 46.3571 914.614 46.7965 913.279 47.0732C911.961 47.3499 910.398 47.4883 908.592 47.4883C906.02 47.4883 903.774 46.9674 901.854 45.9258C899.949 44.8678 898.468 43.3216 897.41 41.2871C896.352 39.2526 895.823 36.7624 895.823 33.8164C895.823 30.9355 896.303 28.4453 897.264 26.3457C898.24 24.2298 899.607 22.6022 901.365 21.4629C903.139 20.3236 905.223 19.7539 907.615 19.7539ZM907.566 23.0742C905.402 23.0742 903.676 23.7822 902.391 25.1982C901.105 26.6143 900.34 28.5918 900.096 31.1309H914.256C914.24 29.5358 913.987 28.1361 913.499 26.9316C913.027 25.7109 912.303 24.7669 911.326 24.0996C910.35 23.416 909.096 23.0742 907.566 23.0742ZM942.698 39.6758C942.698 41.3848 942.267 42.8252 941.404 43.9971C940.558 45.1527 939.337 46.0234 937.742 46.6094C936.163 47.1953 934.275 47.4883 932.078 47.4883C930.206 47.4883 928.587 47.3418 927.22 47.0488C925.853 46.7559 924.656 46.3408 923.631 45.8037V42.0684C924.721 42.6055 926.023 43.0938 927.537 43.5332C929.051 43.9727 930.597 44.1924 932.176 44.1924C934.487 44.1924 936.163 43.818 937.205 43.0693C938.247 42.3206 938.768 41.3034 938.768 40.0176C938.768 39.2852 938.556 38.6423 938.133 38.0889C937.726 37.5192 937.034 36.974 936.058 36.4531C935.081 35.916 933.73 35.3301 932.005 34.6953C930.296 34.0443 928.815 33.4014 927.562 32.7666C926.325 32.1156 925.364 31.3262 924.681 30.3984C924.013 29.4707 923.68 28.2663 923.68 26.7852C923.68 24.5228 924.591 22.7894 926.414 21.585C928.253 20.3643 930.662 19.7539 933.641 19.7539C935.252 19.7539 936.757 19.9167 938.157 20.2422C939.573 20.5514 940.892 20.9746 942.112 21.5117L940.745 24.7588C939.638 24.2868 938.458 23.888 937.205 23.5625C935.952 23.237 934.674 23.0742 933.372 23.0742C931.5 23.0742 930.06 23.3835 929.051 24.002C928.058 24.6204 927.562 25.4668 927.562 26.541C927.562 27.3711 927.789 28.0547 928.245 28.5918C928.717 29.1289 929.466 29.6335 930.491 30.1055C931.517 30.5775 932.868 31.1309 934.544 31.7656C936.22 32.3841 937.669 33.027 938.89 33.6943C940.11 34.3454 941.046 35.1429 941.697 36.0869C942.365 37.0146 942.698 38.2109 942.698 39.6758ZM957.859 44.168C958.527 44.168 959.21 44.111 959.91 43.9971C960.61 43.8831 961.18 43.7448 961.619 43.582V46.7314C961.147 46.943 960.488 47.1221 959.642 47.2686C958.812 47.415 957.998 47.4883 957.2 47.4883C955.784 47.4883 954.498 47.2441 953.343 46.7559C952.187 46.2513 951.259 45.4049 950.56 44.2168C949.876 43.0286 949.534 41.3848 949.534 39.2852V23.416H945.726V21.4385L949.559 19.8516L951.17 14.041H953.611V20.2422H961.448V23.416H953.611V39.1631C953.611 40.8395 953.994 42.0928 954.759 42.9229C955.54 43.7529 956.574 44.168 957.859 44.168ZM977.049 19.8027C980.239 19.8027 982.607 20.5189 984.153 21.9512C985.7 23.3835 986.473 25.6702 986.473 28.8115V47H983.519L982.737 43.0449H982.542C981.793 44.0215 981.012 44.8434 980.198 45.5107C979.384 46.1618 978.44 46.6582 977.366 47C976.308 47.3255 975.006 47.4883 973.46 47.4883C971.832 47.4883 970.384 47.2035 969.114 46.6338C967.861 46.0641 966.868 45.2015 966.136 44.0459C965.42 42.8903 965.062 41.4255 965.062 39.6514C965.062 36.9821 966.119 34.9313 968.235 33.499C970.351 32.0667 973.574 31.2855 977.903 31.1553L982.518 30.96V29.3242C982.518 27.013 982.021 25.3936 981.028 24.4658C980.035 23.5381 978.636 23.0742 976.829 23.0742C975.429 23.0742 974.095 23.2777 972.825 23.6846C971.556 24.0915 970.351 24.5716 969.212 25.125L967.967 22.0488C969.171 21.4303 970.555 20.9014 972.117 20.4619C973.68 20.0225 975.324 19.8027 977.049 19.8027ZM982.469 33.8164L978.392 33.9873C975.055 34.1175 972.703 34.6628 971.336 35.623C969.969 36.5833 969.285 37.9424 969.285 39.7002C969.285 41.2301 969.749 42.3613 970.677 43.0938C971.604 43.8262 972.833 44.1924 974.363 44.1924C976.74 44.1924 978.685 43.5332 980.198 42.2148C981.712 40.8965 982.469 38.9189 982.469 36.2822V33.8164ZM1006.98 19.7539C1007.52 19.7539 1008.08 19.7865 1008.67 19.8516C1009.25 19.9004 1009.77 19.9736 1010.23 20.0713L1009.71 23.8311C1009.28 23.7171 1008.79 23.6276 1008.25 23.5625C1007.71 23.4974 1007.21 23.4648 1006.74 23.4648C1005.66 23.4648 1004.64 23.6846 1003.68 24.124C1002.74 24.5472 1001.91 25.1657 1001.19 25.9795C1000.48 26.777 999.917 27.7454 999.51 28.8848C999.103 30.0078 998.899 31.2611 998.899 32.6445V47H994.822V20.2422H998.191L998.631 25.1738H998.802C999.355 24.181 1000.02 23.2777 1000.8 22.4639C1001.58 21.6338 1002.49 20.9746 1003.51 20.4863C1004.56 19.998 1005.71 19.7539 1006.98 19.7539ZM1044.33 19.7539C1047.28 19.7539 1049.5 20.527 1051 22.0732C1052.5 23.6032 1053.25 26.069 1053.25 29.4707V47H1049.24V29.666C1049.24 27.5013 1048.77 25.8818 1047.83 24.8076C1046.9 23.7171 1045.51 23.1719 1043.67 23.1719C1041.09 23.1719 1039.21 23.9206 1038.04 25.418C1036.86 26.9154 1036.28 29.1208 1036.28 32.0342V47H1032.25V29.666C1032.25 28.2174 1032.04 27.013 1031.61 26.0527C1031.21 25.0924 1030.59 24.3763 1029.76 23.9043C1028.94 23.416 1027.91 23.1719 1026.66 23.1719C1024.88 23.1719 1023.46 23.5381 1022.39 24.2705C1021.31 25.0029 1020.53 26.0934 1020.04 27.542C1019.57 28.9743 1019.33 30.7402 1019.33 32.8398V47H1015.28V20.2422H1018.55L1019.16 24.0264H1019.38C1019.92 23.0986 1020.6 22.3174 1021.41 21.6826C1022.22 21.0479 1023.13 20.5677 1024.14 20.2422C1025.15 19.9167 1026.23 19.7539 1027.37 19.7539C1029.4 19.7539 1031.1 20.1364 1032.47 20.9014C1033.85 21.6501 1034.85 22.7975 1035.47 24.3438H1035.69C1036.57 22.7975 1037.77 21.6501 1039.3 20.9014C1040.83 20.1364 1042.51 19.7539 1044.33 19.7539ZM1084.64 33.5723C1084.64 35.7695 1084.36 37.7308 1083.79 39.4561C1083.22 41.1813 1082.4 42.638 1081.32 43.8262C1080.25 45.0143 1078.94 45.9258 1077.42 46.5605C1075.9 47.179 1074.18 47.4883 1072.26 47.4883C1070.47 47.4883 1068.83 47.179 1067.33 46.5605C1065.85 45.9258 1064.57 45.0143 1063.47 43.8262C1062.4 42.638 1061.56 41.1813 1060.96 39.4561C1060.37 37.7308 1060.08 35.7695 1060.08 33.5723C1060.08 30.6426 1060.58 28.1523 1061.57 26.1016C1062.56 24.0345 1063.98 22.4639 1065.82 21.3896C1067.67 20.2992 1069.88 19.7539 1072.43 19.7539C1074.88 19.7539 1077.01 20.2992 1078.83 21.3896C1080.67 22.4801 1082.09 24.0589 1083.1 26.126C1084.13 28.1768 1084.64 30.6589 1084.64 33.5723ZM1064.28 33.5723C1064.28 35.7207 1064.57 37.5843 1065.13 39.1631C1065.7 40.7419 1066.58 41.9626 1067.77 42.8252C1068.96 43.6878 1070.49 44.1191 1072.36 44.1191C1074.22 44.1191 1075.74 43.6878 1076.93 42.8252C1078.13 41.9626 1079.02 40.7419 1079.59 39.1631C1080.16 37.5843 1080.44 35.7207 1080.44 33.5723C1080.44 31.4401 1080.16 29.6009 1079.59 28.0547C1079.02 26.4922 1078.14 25.2878 1076.95 24.4414C1075.76 23.5951 1074.22 23.1719 1072.34 23.1719C1069.55 23.1719 1067.51 24.0915 1066.21 25.9307C1064.92 27.7699 1064.28 30.3171 1064.28 33.5723ZM1108.96 39.6758C1108.96 41.3848 1108.53 42.8252 1107.66 43.9971C1106.82 45.1527 1105.6 46.0234 1104 46.6094C1102.42 47.1953 1100.54 47.4883 1098.34 47.4883C1096.47 47.4883 1094.85 47.3418 1093.48 47.0488C1092.11 46.7559 1090.92 46.3408 1089.89 45.8037V42.0684C1090.98 42.6055 1092.28 43.0938 1093.8 43.5332C1095.31 43.9727 1096.86 44.1924 1098.44 44.1924C1100.75 44.1924 1102.42 43.818 1103.46 43.0693C1104.51 42.3206 1105.03 41.3034 1105.03 40.0176C1105.03 39.2852 1104.82 38.6423 1104.39 38.0889C1103.99 37.5192 1103.29 36.974 1102.32 36.4531C1101.34 35.916 1099.99 35.3301 1098.26 34.6953C1096.56 34.0443 1095.07 33.4014 1093.82 32.7666C1092.58 32.1156 1091.62 31.3262 1090.94 30.3984C1090.27 29.4707 1089.94 28.2663 1089.94 26.7852C1089.94 24.5228 1090.85 22.7894 1092.67 21.585C1094.51 20.3643 1096.92 19.7539 1099.9 19.7539C1101.51 19.7539 1103.02 19.9167 1104.42 20.2422C1105.83 20.5514 1107.15 20.9746 1108.37 21.5117L1107 24.7588C1105.9 24.2868 1104.72 23.888 1103.46 23.5625C1102.21 23.237 1100.93 23.0742 1099.63 23.0742C1097.76 23.0742 1096.32 23.3835 1095.31 24.002C1094.32 24.6204 1093.82 25.4668 1093.82 26.541C1093.82 27.3711 1094.05 28.0547 1094.5 28.5918C1094.98 29.1289 1095.73 29.6335 1096.75 30.1055C1097.78 30.5775 1099.13 31.1309 1100.8 31.7656C1102.48 32.3841 1103.93 33.027 1105.15 33.6943C1106.37 34.3454 1107.31 35.1429 1107.96 36.0869C1108.62 37.0146 1108.96 38.2109 1108.96 39.6758ZM1134.35 47L1124.19 20.2422H1128.54L1134.42 36.4287C1134.83 37.5355 1135.24 38.7562 1135.67 40.0908C1136.09 41.4255 1136.38 42.4997 1136.55 43.3135H1136.72C1136.91 42.4997 1137.24 41.4255 1137.69 40.0908C1138.15 38.7399 1138.56 37.5192 1138.94 36.4287L1144.82 20.2422H1149.17L1138.99 47H1134.35ZM1157.52 20.2422V47H1153.46V20.2422H1157.52ZM1155.54 10.2324C1156.21 10.2324 1156.78 10.4521 1157.25 10.8916C1157.74 11.3148 1157.98 11.9821 1157.98 12.8936C1157.98 13.7887 1157.74 14.4561 1157.25 14.8955C1156.78 15.335 1156.21 15.5547 1155.54 15.5547C1154.84 15.5547 1154.25 15.335 1153.78 14.8955C1153.33 14.4561 1153.1 13.7887 1153.1 12.8936C1153.1 11.9821 1153.33 11.3148 1153.78 10.8916C1154.25 10.4521 1154.84 10.2324 1155.54 10.2324ZM1172 47L1161.84 20.2422H1166.18L1172.07 36.4287C1172.48 37.5355 1172.89 38.7562 1173.31 40.0908C1173.74 41.4255 1174.03 42.4997 1174.19 43.3135H1174.36C1174.56 42.4997 1174.88 41.4255 1175.34 40.0908C1175.8 38.7399 1176.21 37.5192 1176.58 36.4287L1182.47 20.2422H1186.81L1176.63 47H1172ZM1214.18 33.5723C1214.18 35.7695 1213.9 37.7308 1213.33 39.4561C1212.76 41.1813 1211.94 42.638 1210.86 43.8262C1209.79 45.0143 1208.49 45.9258 1206.96 46.5605C1205.44 47.179 1203.73 47.4883 1201.8 47.4883C1200.01 47.4883 1198.37 47.179 1196.87 46.5605C1195.39 45.9258 1194.11 45.0143 1193.02 43.8262C1191.94 42.638 1191.1 41.1813 1190.5 39.4561C1189.92 37.7308 1189.62 35.7695 1189.62 33.5723C1189.62 30.6426 1190.12 28.1523 1191.11 26.1016C1192.1 24.0345 1193.52 22.4639 1195.36 21.3896C1197.21 20.2992 1199.42 19.7539 1201.98 19.7539C1204.42 19.7539 1206.55 20.2992 1208.37 21.3896C1210.21 22.4801 1211.64 24.0589 1212.64 26.126C1213.67 28.1768 1214.18 30.6589 1214.18 33.5723ZM1193.82 33.5723C1193.82 35.7207 1194.11 37.5843 1194.68 39.1631C1195.25 40.7419 1196.12 41.9626 1197.31 42.8252C1198.5 43.6878 1200.03 44.1191 1201.9 44.1191C1203.76 44.1191 1205.28 43.6878 1206.47 42.8252C1207.67 41.9626 1208.56 40.7419 1209.13 39.1631C1209.7 37.5843 1209.98 35.7207 1209.98 33.5723C1209.98 31.4401 1209.7 29.6009 1209.13 28.0547C1208.56 26.4922 1207.68 25.2878 1206.49 24.4414C1205.3 23.5951 1203.77 23.1719 1201.88 23.1719C1199.09 23.1719 1197.05 24.0915 1195.75 25.9307C1194.46 27.7699 1193.82 30.3171 1193.82 33.5723ZM1238.5 39.6758C1238.5 41.3848 1238.07 42.8252 1237.21 43.9971C1236.36 45.1527 1235.14 46.0234 1233.54 46.6094C1231.96 47.1953 1230.08 47.4883 1227.88 47.4883C1226.01 47.4883 1224.39 47.3418 1223.02 47.0488C1221.65 46.7559 1220.46 46.3408 1219.43 45.8037V42.0684C1220.52 42.6055 1221.82 43.0938 1223.34 43.5332C1224.85 43.9727 1226.4 44.1924 1227.98 44.1924C1230.29 44.1924 1231.96 43.818 1233.01 43.0693C1234.05 42.3206 1234.57 41.3034 1234.57 40.0176C1234.57 39.2852 1234.36 38.6423 1233.93 38.0889C1233.53 37.5192 1232.83 36.974 1231.86 36.4531C1230.88 35.916 1229.53 35.3301 1227.81 34.6953C1226.1 34.0443 1224.62 33.4014 1223.36 32.7666C1222.13 32.1156 1221.17 31.3262 1220.48 30.3984C1219.81 29.4707 1219.48 28.2663 1219.48 26.7852C1219.48 24.5228 1220.39 22.7894 1222.21 21.585C1224.05 20.3643 1226.46 19.7539 1229.44 19.7539C1231.05 19.7539 1232.56 19.9167 1233.96 20.2422C1235.37 20.5514 1236.69 20.9746 1237.91 21.5117L1236.55 24.7588C1235.44 24.2868 1234.26 23.888 1233.01 23.5625C1231.75 23.237 1230.47 23.0742 1229.17 23.0742C1227.3 23.0742 1225.86 23.3835 1224.85 24.002C1223.86 24.6204 1223.36 25.4668 1223.36 26.541C1223.36 27.3711 1223.59 28.0547 1224.05 28.5918C1224.52 29.1289 1225.27 29.6335 1226.29 30.1055C1227.32 30.5775 1228.67 31.1309 1230.34 31.7656C1232.02 32.3841 1233.47 33.027 1234.69 33.6943C1235.91 34.3454 1236.85 35.1429 1237.5 36.0869C1238.17 37.0146 1238.5 38.2109 1238.5 39.6758ZM1248.68 37.0879H1246.02L1244.9 11.3066H1249.8L1248.68 37.0879ZM1244.41 44.4609C1244.41 43.3216 1244.68 42.516 1245.24 42.0439C1245.79 41.5557 1246.48 41.3115 1247.31 41.3115C1248.13 41.3115 1248.81 41.5557 1249.36 42.0439C1249.93 42.516 1250.22 43.3216 1250.22 44.4609C1250.22 45.584 1249.93 46.4059 1249.36 46.9268C1248.81 47.4313 1248.13 47.6836 1247.31 47.6836C1246.48 47.6836 1245.79 47.4313 1245.24 46.9268C1244.68 46.4059 1244.41 45.584 1244.41 44.4609Z" fill="#BD4747"/>
</svg>
