<svg width="881" height="55" viewBox="0 0 881 55" fill="none" xmlns="http://www.w3.org/2000/svg">
<path id="sobre o namoro, casamento e fam&#195;&#173;lia!" d="M21.7744 39.6758C21.7744 41.3848 21.3431 42.8252 20.4805 43.9971C19.6341 45.1527 18.4134 46.0234 16.8184 46.6094C15.2396 47.1953 13.3516 47.4883 11.1543 47.4883C9.28255 47.4883 7.66309 47.3418 6.2959 47.0488C4.92871 46.7559 3.73242 46.3408 2.70703 45.8037V42.0684C3.79753 42.6055 5.09961 43.0938 6.61328 43.5332C8.12695 43.9727 9.67318 44.1924 11.252 44.1924C13.5632 44.1924 15.2396 43.818 16.2812 43.0693C17.3229 42.3206 17.8438 41.3034 17.8438 40.0176C17.8438 39.2852 17.6322 38.6423 17.209 38.0889C16.8021 37.5192 16.1104 36.974 15.1338 36.4531C14.1572 35.916 12.8063 35.3301 11.0811 34.6953C9.37207 34.0443 7.89095 33.4014 6.6377 32.7666C5.40072 32.1156 4.44043 31.3262 3.75684 30.3984C3.08952 29.4707 2.75586 28.2663 2.75586 26.7852C2.75586 24.5228 3.66732 22.7894 5.49023 21.585C7.32943 20.3643 9.73828 19.7539 12.7168 19.7539C14.3281 19.7539 15.8337 19.9167 17.2334 20.2422C18.6494 20.5514 19.9678 20.9746 21.1885 21.5117L19.8213 24.7588C18.7145 24.2868 17.5345 23.888 16.2812 23.5625C15.028 23.237 13.7503 23.0742 12.4482 23.0742C10.5765 23.0742 9.13607 23.3835 8.12695 24.002C7.13411 24.6204 6.6377 25.4668 6.6377 26.541C6.6377 27.3711 6.86556 28.0547 7.32129 28.5918C7.79329 29.1289 8.54199 29.6335 9.56738 30.1055C10.5928 30.5775 11.9437 31.1309 13.6201 31.7656C15.2965 32.3841 16.7451 33.027 17.9658 33.6943C19.1865 34.3454 20.1224 35.1429 20.7734 36.0869C21.4408 37.0146 21.7744 38.2109 21.7744 39.6758ZM51.3643 33.5723C51.3643 35.7695 51.0794 37.7308 50.5098 39.4561C49.9401 41.1813 49.1182 42.638 48.0439 43.8262C46.9697 45.0143 45.6676 45.9258 44.1377 46.5605C42.624 47.179 40.9069 47.4883 38.9863 47.4883C37.196 47.4883 35.5521 47.179 34.0547 46.5605C32.5736 45.9258 31.2878 45.0143 30.1973 43.8262C29.123 42.638 28.2848 41.1813 27.6826 39.4561C27.0967 37.7308 26.8037 35.7695 26.8037 33.5723C26.8037 30.6426 27.3001 28.1523 28.293 26.1016C29.2858 24.0345 30.7018 22.4639 32.541 21.3896C34.3965 20.2992 36.6019 19.7539 39.1572 19.7539C41.5986 19.7539 43.7308 20.2992 45.5537 21.3896C47.3929 22.4801 48.8171 24.0589 49.8262 26.126C50.8516 28.1768 51.3643 30.6589 51.3643 33.5723ZM31.0029 33.5723C31.0029 35.7207 31.2878 37.5843 31.8574 39.1631C32.4271 40.7419 33.306 41.9626 34.4941 42.8252C35.6823 43.6878 37.2122 44.1191 39.084 44.1191C40.9395 44.1191 42.4613 43.6878 43.6494 42.8252C44.8538 41.9626 45.7409 40.7419 46.3105 39.1631C46.8802 37.5843 47.165 35.7207 47.165 33.5723C47.165 31.4401 46.8802 29.6009 46.3105 28.0547C45.7409 26.4922 44.862 25.2878 43.6738 24.4414C42.4857 23.5951 40.9476 23.1719 39.0596 23.1719C36.2764 23.1719 34.2337 24.0915 32.9316 25.9307C31.6458 27.7699 31.0029 30.3171 31.0029 33.5723ZM62.4238 9.01172V18.5088C62.4238 19.5993 62.3913 20.6572 62.3262 21.6826C62.2773 22.708 62.2367 23.5055 62.2041 24.0752H62.4238C63.1562 22.8708 64.2142 21.8535 65.5977 21.0234C66.9811 20.1934 68.7471 19.7783 70.8955 19.7783C74.2484 19.7783 76.9176 20.9421 78.9033 23.2695C80.9053 25.5807 81.9062 29.0231 81.9062 33.5967C81.9062 36.6077 81.4505 39.1468 80.5391 41.2139C79.6276 43.2809 78.3418 44.8434 76.6816 45.9014C75.0215 46.9593 73.0602 47.4883 70.7979 47.4883C68.682 47.4883 66.9404 47.0977 65.5732 46.3164C64.2223 45.5189 63.1807 44.5505 62.4482 43.4111H62.1309L61.3008 47H58.3711V9.01172H62.4238ZM70.2363 23.1719C68.2995 23.1719 66.7614 23.5544 65.6221 24.3193C64.4827 25.068 63.6608 26.2074 63.1562 27.7373C62.668 29.251 62.4238 31.1715 62.4238 33.499V33.7188C62.4238 37.0879 62.9854 39.6676 64.1084 41.458C65.2314 43.2321 67.2741 44.1191 70.2363 44.1191C72.7266 44.1191 74.5902 43.2077 75.8271 41.3848C77.0804 39.5618 77.707 36.9577 77.707 33.5723C77.707 30.1217 77.0885 27.5257 75.8516 25.7842C74.6309 24.0426 72.7591 23.1719 70.2363 23.1719ZM101.145 19.7539C101.682 19.7539 102.243 19.7865 102.829 19.8516C103.415 19.9004 103.936 19.9736 104.392 20.0713L103.879 23.8311C103.439 23.7171 102.951 23.6276 102.414 23.5625C101.877 23.4974 101.372 23.4648 100.9 23.4648C99.8262 23.4648 98.8089 23.6846 97.8486 24.124C96.9046 24.5472 96.0745 25.1657 95.3584 25.9795C94.6423 26.777 94.0807 27.7454 93.6738 28.8848C93.2669 30.0078 93.0635 31.2611 93.0635 32.6445V47H88.9863V20.2422H92.3555L92.7949 25.1738H92.9658C93.5192 24.181 94.1865 23.2777 94.9678 22.4639C95.749 21.6338 96.6523 20.9746 97.6777 20.4863C98.7194 19.998 99.875 19.7539 101.145 19.7539ZM119.748 19.7539C122.027 19.7539 123.98 20.2585 125.607 21.2676C127.235 22.2767 128.48 23.6927 129.343 25.5156C130.205 27.3223 130.637 29.4382 130.637 31.8633V34.3779H112.155C112.204 37.5192 112.985 39.9118 114.499 41.5557C116.013 43.1995 118.145 44.0215 120.896 44.0215C122.588 44.0215 124.086 43.8669 125.388 43.5576C126.69 43.2484 128.041 42.7926 129.44 42.1904V45.7549C128.09 46.3571 126.747 46.7965 125.412 47.0732C124.094 47.3499 122.531 47.4883 120.725 47.4883C118.153 47.4883 115.907 46.9674 113.986 45.9258C112.082 44.8678 110.601 43.3216 109.543 41.2871C108.485 39.2526 107.956 36.7624 107.956 33.8164C107.956 30.9355 108.436 28.4453 109.396 26.3457C110.373 24.2298 111.74 22.6022 113.498 21.4629C115.272 20.3236 117.355 19.7539 119.748 19.7539ZM119.699 23.0742C117.535 23.0742 115.809 23.7822 114.523 25.1982C113.238 26.6143 112.473 28.5918 112.229 31.1309H126.389C126.372 29.5358 126.12 28.1361 125.632 26.9316C125.16 25.7109 124.436 24.7669 123.459 24.0996C122.482 23.416 121.229 23.0742 119.699 23.0742ZM173.581 33.5723C173.581 35.7695 173.296 37.7308 172.727 39.4561C172.157 41.1813 171.335 42.638 170.261 43.8262C169.187 45.0143 167.884 45.9258 166.354 46.5605C164.841 47.179 163.124 47.4883 161.203 47.4883C159.413 47.4883 157.769 47.179 156.271 46.5605C154.79 45.9258 153.505 45.0143 152.414 43.8262C151.34 42.638 150.502 41.1813 149.899 39.4561C149.313 37.7308 149.021 35.7695 149.021 33.5723C149.021 30.6426 149.517 28.1523 150.51 26.1016C151.503 24.0345 152.919 22.4639 154.758 21.3896C156.613 20.2992 158.819 19.7539 161.374 19.7539C163.815 19.7539 165.948 20.2992 167.771 21.3896C169.61 22.4801 171.034 24.0589 172.043 26.126C173.068 28.1768 173.581 30.6589 173.581 33.5723ZM153.22 33.5723C153.22 35.7207 153.505 37.5843 154.074 39.1631C154.644 40.7419 155.523 41.9626 156.711 42.8252C157.899 43.6878 159.429 44.1191 161.301 44.1191C163.156 44.1191 164.678 43.6878 165.866 42.8252C167.071 41.9626 167.958 40.7419 168.527 39.1631C169.097 37.5843 169.382 35.7207 169.382 33.5723C169.382 31.4401 169.097 29.6009 168.527 28.0547C167.958 26.4922 167.079 25.2878 165.891 24.4414C164.702 23.5951 163.164 23.1719 161.276 23.1719C158.493 23.1719 156.451 24.0915 155.148 25.9307C153.863 27.7699 153.22 30.3171 153.22 33.5723ZM206.247 19.7539C209.421 19.7539 211.822 20.5352 213.449 22.0977C215.077 23.6439 215.891 26.1341 215.891 29.5684V47H211.887V29.8369C211.887 27.6071 211.374 25.9388 210.349 24.832C209.34 23.7253 207.785 23.1719 205.686 23.1719C202.723 23.1719 200.64 24.0101 199.436 25.6865C198.231 27.363 197.629 29.7962 197.629 32.9863V47H193.576V20.2422H196.848L197.458 24.0996H197.678C198.247 23.1556 198.972 22.3662 199.851 21.7314C200.729 21.0804 201.714 20.5921 202.805 20.2666C203.895 19.9248 205.043 19.7539 206.247 19.7539ZM234.25 19.8027C237.44 19.8027 239.808 20.5189 241.354 21.9512C242.901 23.3835 243.674 25.6702 243.674 28.8115V47H240.72L239.938 43.0449H239.743C238.994 44.0215 238.213 44.8434 237.399 45.5107C236.586 46.1618 235.642 46.6582 234.567 47C233.509 47.3255 232.207 47.4883 230.661 47.4883C229.034 47.4883 227.585 47.2035 226.315 46.6338C225.062 46.0641 224.069 45.2015 223.337 44.0459C222.621 42.8903 222.263 41.4255 222.263 39.6514C222.263 36.9821 223.321 34.9313 225.437 33.499C227.552 32.0667 230.775 31.2855 235.104 31.1553L239.719 30.96V29.3242C239.719 27.013 239.222 25.3936 238.229 24.4658C237.237 23.5381 235.837 23.0742 234.03 23.0742C232.631 23.0742 231.296 23.2777 230.026 23.6846C228.757 24.0915 227.552 24.5716 226.413 25.125L225.168 22.0488C226.372 21.4303 227.756 20.9014 229.318 20.4619C230.881 20.0225 232.525 19.8027 234.25 19.8027ZM239.67 33.8164L235.593 33.9873C232.256 34.1175 229.904 34.6628 228.537 35.623C227.17 36.5833 226.486 37.9424 226.486 39.7002C226.486 41.2301 226.95 42.3613 227.878 43.0938C228.806 43.8262 230.035 44.1924 231.564 44.1924C233.941 44.1924 235.886 43.5332 237.399 42.2148C238.913 40.8965 239.67 38.9189 239.67 36.2822V33.8164ZM281.076 19.7539C284.022 19.7539 286.244 20.527 287.741 22.0732C289.239 23.6032 289.987 26.069 289.987 29.4707V47H285.983V29.666C285.983 27.5013 285.511 25.8818 284.567 24.8076C283.64 23.7171 282.256 23.1719 280.417 23.1719C277.829 23.1719 275.949 23.9206 274.777 25.418C273.605 26.9154 273.02 29.1208 273.02 32.0342V47H268.991V29.666C268.991 28.2174 268.78 27.013 268.356 26.0527C267.95 25.0924 267.331 24.3763 266.501 23.9043C265.687 23.416 264.654 23.1719 263.4 23.1719C261.626 23.1719 260.202 23.5381 259.128 24.2705C258.054 25.0029 257.272 26.0934 256.784 27.542C256.312 28.9743 256.076 30.7402 256.076 32.8398V47H252.023V20.2422H255.295L255.905 24.0264H256.125C256.662 23.0986 257.338 22.3174 258.151 21.6826C258.965 21.0479 259.877 20.5677 260.886 20.2422C261.895 19.9167 262.969 19.7539 264.108 19.7539C266.143 19.7539 267.844 20.1364 269.211 20.9014C270.594 21.6501 271.595 22.7975 272.214 24.3438H272.434C273.312 22.7975 274.517 21.6501 276.047 20.9014C277.577 20.1364 279.253 19.7539 281.076 19.7539ZM321.384 33.5723C321.384 35.7695 321.099 37.7308 320.529 39.4561C319.96 41.1813 319.138 42.638 318.063 43.8262C316.989 45.0143 315.687 45.9258 314.157 46.5605C312.644 47.179 310.926 47.4883 309.006 47.4883C307.215 47.4883 305.572 47.179 304.074 46.5605C302.593 45.9258 301.307 45.0143 300.217 43.8262C299.143 42.638 298.304 41.1813 297.702 39.4561C297.116 37.7308 296.823 35.7695 296.823 33.5723C296.823 30.6426 297.32 28.1523 298.312 26.1016C299.305 24.0345 300.721 22.4639 302.561 21.3896C304.416 20.2992 306.621 19.7539 309.177 19.7539C311.618 19.7539 313.75 20.2992 315.573 21.3896C317.412 22.4801 318.837 24.0589 319.846 26.126C320.871 28.1768 321.384 30.6589 321.384 33.5723ZM301.022 33.5723C301.022 35.7207 301.307 37.5843 301.877 39.1631C302.447 40.7419 303.326 41.9626 304.514 42.8252C305.702 43.6878 307.232 44.1191 309.104 44.1191C310.959 44.1191 312.481 43.6878 313.669 42.8252C314.873 41.9626 315.76 40.7419 316.33 39.1631C316.9 37.5843 317.185 35.7207 317.185 33.5723C317.185 31.4401 316.9 29.6009 316.33 28.0547C315.76 26.4922 314.882 25.2878 313.693 24.4414C312.505 23.5951 310.967 23.1719 309.079 23.1719C306.296 23.1719 304.253 24.0915 302.951 25.9307C301.665 27.7699 301.022 30.3171 301.022 33.5723ZM340.549 19.7539C341.086 19.7539 341.647 19.7865 342.233 19.8516C342.819 19.9004 343.34 19.9736 343.796 20.0713L343.283 23.8311C342.844 23.7171 342.355 23.6276 341.818 23.5625C341.281 23.4974 340.777 23.4648 340.305 23.4648C339.23 23.4648 338.213 23.6846 337.253 24.124C336.309 24.5472 335.479 25.1657 334.763 25.9795C334.047 26.777 333.485 27.7454 333.078 28.8848C332.671 30.0078 332.468 31.2611 332.468 32.6445V47H328.391V20.2422H331.76L332.199 25.1738H332.37C332.924 24.181 333.591 23.2777 334.372 22.4639C335.153 21.6338 336.057 20.9746 337.082 20.4863C338.124 19.998 339.279 19.7539 340.549 19.7539ZM371.921 33.5723C371.921 35.7695 371.636 37.7308 371.066 39.4561C370.497 41.1813 369.675 42.638 368.601 43.8262C367.526 45.0143 366.224 45.9258 364.694 46.5605C363.181 47.179 361.464 47.4883 359.543 47.4883C357.753 47.4883 356.109 47.179 354.611 46.5605C353.13 45.9258 351.844 45.0143 350.754 43.8262C349.68 42.638 348.841 41.1813 348.239 39.4561C347.653 37.7308 347.36 35.7695 347.36 33.5723C347.36 30.6426 347.857 28.1523 348.85 26.1016C349.842 24.0345 351.258 22.4639 353.098 21.3896C354.953 20.2992 357.159 19.7539 359.714 19.7539C362.155 19.7539 364.287 20.2992 366.11 21.3896C367.95 22.4801 369.374 24.0589 370.383 26.126C371.408 28.1768 371.921 30.6589 371.921 33.5723ZM351.56 33.5723C351.56 35.7207 351.844 37.5843 352.414 39.1631C352.984 40.7419 353.863 41.9626 355.051 42.8252C356.239 43.6878 357.769 44.1191 359.641 44.1191C361.496 44.1191 363.018 43.6878 364.206 42.8252C365.41 41.9626 366.298 40.7419 366.867 39.1631C367.437 37.5843 367.722 35.7207 367.722 33.5723C367.722 31.4401 367.437 29.6009 366.867 28.0547C366.298 26.4922 365.419 25.2878 364.23 24.4414C363.042 23.5951 361.504 23.1719 359.616 23.1719C356.833 23.1719 354.79 24.0915 353.488 25.9307C352.202 27.7699 351.56 30.3171 351.56 33.5723ZM383.566 41.1895L383.884 41.751C383.591 42.9391 383.216 44.2087 382.761 45.5596C382.321 46.9105 381.833 48.2614 381.296 49.6123C380.775 50.9795 380.246 52.2572 379.709 53.4453H376.682C377.023 52.1432 377.357 50.7679 377.683 49.3193C378.008 47.887 378.301 46.471 378.562 45.0713C378.838 43.6553 379.058 42.3613 379.221 41.1895H383.566ZM415.573 47.4883C413.164 47.4883 411.04 46.9919 409.201 45.999C407.362 45.0062 405.93 43.4925 404.904 41.458C403.879 39.4235 403.366 36.86 403.366 33.7676C403.366 30.5286 403.903 27.8838 404.978 25.833C406.068 23.766 407.565 22.236 409.47 21.2432C411.374 20.2503 413.539 19.7539 415.964 19.7539C417.299 19.7539 418.584 19.8923 419.821 20.1689C421.075 20.4294 422.1 20.763 422.897 21.1699L421.677 24.5635C420.863 24.238 419.919 23.945 418.845 23.6846C417.787 23.4242 416.794 23.2939 415.866 23.2939C414.011 23.2939 412.465 23.6927 411.228 24.4902C410.007 25.2878 409.087 26.4596 408.469 28.0059C407.867 29.5521 407.565 31.4564 407.565 33.7188C407.565 35.8835 407.858 37.7308 408.444 39.2607C409.047 40.7907 409.934 41.9626 411.105 42.7764C412.294 43.5739 413.775 43.9727 415.549 43.9727C416.965 43.9727 418.243 43.8262 419.382 43.5332C420.521 43.224 421.555 42.8659 422.482 42.459V46.0723C421.587 46.528 420.586 46.8779 419.479 47.1221C418.389 47.3662 417.087 47.4883 415.573 47.4883ZM438.84 19.8027C442.03 19.8027 444.398 20.5189 445.944 21.9512C447.491 23.3835 448.264 25.6702 448.264 28.8115V47H445.31L444.528 43.0449H444.333C443.584 44.0215 442.803 44.8434 441.989 45.5107C441.175 46.1618 440.231 46.6582 439.157 47C438.099 47.3255 436.797 47.4883 435.251 47.4883C433.623 47.4883 432.175 47.2035 430.905 46.6338C429.652 46.0641 428.659 45.2015 427.927 44.0459C427.211 42.8903 426.853 41.4255 426.853 39.6514C426.853 36.9821 427.91 34.9313 430.026 33.499C432.142 32.0667 435.365 31.2855 439.694 31.1553L444.309 30.96V29.3242C444.309 27.013 443.812 25.3936 442.819 24.4658C441.826 23.5381 440.427 23.0742 438.62 23.0742C437.22 23.0742 435.886 23.2777 434.616 23.6846C433.347 24.0915 432.142 24.5716 431.003 25.125L429.758 22.0488C430.962 21.4303 432.346 20.9014 433.908 20.4619C435.471 20.0225 437.115 19.8027 438.84 19.8027ZM444.26 33.8164L440.183 33.9873C436.846 34.1175 434.494 34.6628 433.127 35.623C431.76 36.5833 431.076 37.9424 431.076 39.7002C431.076 41.2301 431.54 42.3613 432.468 43.0938C433.396 43.8262 434.624 44.1924 436.154 44.1924C438.531 44.1924 440.476 43.5332 441.989 42.2148C443.503 40.8965 444.26 38.9189 444.26 36.2822V33.8164ZM473.923 39.6758C473.923 41.3848 473.492 42.8252 472.629 43.9971C471.783 45.1527 470.562 46.0234 468.967 46.6094C467.388 47.1953 465.5 47.4883 463.303 47.4883C461.431 47.4883 459.812 47.3418 458.444 47.0488C457.077 46.7559 455.881 46.3408 454.855 45.8037V42.0684C455.946 42.6055 457.248 43.0938 458.762 43.5332C460.275 43.9727 461.822 44.1924 463.4 44.1924C465.712 44.1924 467.388 43.818 468.43 43.0693C469.471 42.3206 469.992 41.3034 469.992 40.0176C469.992 39.2852 469.781 38.6423 469.357 38.0889C468.951 37.5192 468.259 36.974 467.282 36.4531C466.306 35.916 464.955 35.3301 463.229 34.6953C461.521 34.0443 460.039 33.4014 458.786 32.7666C457.549 32.1156 456.589 31.3262 455.905 30.3984C455.238 29.4707 454.904 28.2663 454.904 26.7852C454.904 24.5228 455.816 22.7894 457.639 21.585C459.478 20.3643 461.887 19.7539 464.865 19.7539C466.477 19.7539 467.982 19.9167 469.382 20.2422C470.798 20.5514 472.116 20.9746 473.337 21.5117L471.97 24.7588C470.863 24.2868 469.683 23.888 468.43 23.5625C467.176 23.237 465.899 23.0742 464.597 23.0742C462.725 23.0742 461.285 23.3835 460.275 24.002C459.283 24.6204 458.786 25.4668 458.786 26.541C458.786 27.3711 459.014 28.0547 459.47 28.5918C459.942 29.1289 460.69 29.6335 461.716 30.1055C462.741 30.5775 464.092 31.1309 465.769 31.7656C467.445 32.3841 468.894 33.027 470.114 33.6943C471.335 34.3454 472.271 35.1429 472.922 36.0869C473.589 37.0146 473.923 38.2109 473.923 39.6758ZM490.451 19.8027C493.641 19.8027 496.009 20.5189 497.556 21.9512C499.102 23.3835 499.875 25.6702 499.875 28.8115V47H496.921L496.14 43.0449H495.944C495.196 44.0215 494.414 44.8434 493.601 45.5107C492.787 46.1618 491.843 46.6582 490.769 47C489.711 47.3255 488.409 47.4883 486.862 47.4883C485.235 47.4883 483.786 47.2035 482.517 46.6338C481.263 46.0641 480.271 45.2015 479.538 44.0459C478.822 42.8903 478.464 41.4255 478.464 39.6514C478.464 36.9821 479.522 34.9313 481.638 33.499C483.754 32.0667 486.976 31.2855 491.306 31.1553L495.92 30.96V29.3242C495.92 27.013 495.424 25.3936 494.431 24.4658C493.438 23.5381 492.038 23.0742 490.231 23.0742C488.832 23.0742 487.497 23.2777 486.228 23.6846C484.958 24.0915 483.754 24.5716 482.614 25.125L481.369 22.0488C482.574 21.4303 483.957 20.9014 485.52 20.4619C487.082 20.0225 488.726 19.8027 490.451 19.8027ZM495.871 33.8164L491.794 33.9873C488.457 34.1175 486.105 34.6628 484.738 35.623C483.371 36.5833 482.688 37.9424 482.688 39.7002C482.688 41.2301 483.151 42.3613 484.079 43.0938C485.007 43.8262 486.236 44.1924 487.766 44.1924C490.142 44.1924 492.087 43.5332 493.601 42.2148C495.114 40.8965 495.871 38.9189 495.871 36.2822V33.8164ZM537.277 19.7539C540.223 19.7539 542.445 20.527 543.942 22.0732C545.44 23.6032 546.188 26.069 546.188 29.4707V47H542.185V29.666C542.185 27.5013 541.713 25.8818 540.769 24.8076C539.841 23.7171 538.457 23.1719 536.618 23.1719C534.03 23.1719 532.15 23.9206 530.979 25.418C529.807 26.9154 529.221 29.1208 529.221 32.0342V47H525.192V29.666C525.192 28.2174 524.981 27.013 524.558 26.0527C524.151 25.0924 523.532 24.3763 522.702 23.9043C521.888 23.416 520.855 23.1719 519.602 23.1719C517.827 23.1719 516.403 23.5381 515.329 24.2705C514.255 25.0029 513.474 26.0934 512.985 27.542C512.513 28.9743 512.277 30.7402 512.277 32.8398V47H508.225V20.2422H511.496L512.106 24.0264H512.326C512.863 23.0986 513.539 22.3174 514.353 21.6826C515.166 21.0479 516.078 20.5677 517.087 20.2422C518.096 19.9167 519.17 19.7539 520.31 19.7539C522.344 19.7539 524.045 20.1364 525.412 20.9014C526.796 21.6501 527.797 22.7975 528.415 24.3438H528.635C529.514 22.7975 530.718 21.6501 532.248 20.9014C533.778 20.1364 535.454 19.7539 537.277 19.7539ZM564.816 19.7539C567.095 19.7539 569.048 20.2585 570.676 21.2676C572.303 22.2767 573.549 23.6927 574.411 25.5156C575.274 27.3223 575.705 29.4382 575.705 31.8633V34.3779H557.224C557.272 37.5192 558.054 39.9118 559.567 41.5557C561.081 43.1995 563.213 44.0215 565.964 44.0215C567.657 44.0215 569.154 43.8669 570.456 43.5576C571.758 43.2484 573.109 42.7926 574.509 42.1904V45.7549C573.158 46.3571 571.815 46.7965 570.48 47.0732C569.162 47.3499 567.6 47.4883 565.793 47.4883C563.221 47.4883 560.975 46.9674 559.055 45.9258C557.15 44.8678 555.669 43.3216 554.611 41.2871C553.553 39.2526 553.024 36.7624 553.024 33.8164C553.024 30.9355 553.505 28.4453 554.465 26.3457C555.441 24.2298 556.809 22.6022 558.566 21.4629C560.34 20.3236 562.424 19.7539 564.816 19.7539ZM564.768 23.0742C562.603 23.0742 560.878 23.7822 559.592 25.1982C558.306 26.6143 557.541 28.5918 557.297 31.1309H571.457C571.441 29.5358 571.188 28.1361 570.7 26.9316C570.228 25.7109 569.504 24.7669 568.527 24.0996C567.551 23.416 566.298 23.0742 564.768 23.0742ZM595.261 19.7539C598.435 19.7539 600.835 20.5352 602.463 22.0977C604.09 23.6439 604.904 26.1341 604.904 29.5684V47H600.9V29.8369C600.9 27.6071 600.388 25.9388 599.362 24.832C598.353 23.7253 596.799 23.1719 594.699 23.1719C591.737 23.1719 589.654 24.0101 588.449 25.6865C587.245 27.363 586.643 29.7962 586.643 32.9863V47H582.59V20.2422H585.861L586.472 24.0996H586.691C587.261 23.1556 587.985 22.3662 588.864 21.7314C589.743 21.0804 590.728 20.5921 591.818 20.2666C592.909 19.9248 594.056 19.7539 595.261 19.7539ZM621.896 44.168C622.564 44.168 623.247 44.111 623.947 43.9971C624.647 43.8831 625.217 43.7448 625.656 43.582V46.7314C625.184 46.943 624.525 47.1221 623.679 47.2686C622.849 47.415 622.035 47.4883 621.237 47.4883C619.821 47.4883 618.535 47.2441 617.38 46.7559C616.224 46.2513 615.297 45.4049 614.597 44.2168C613.913 43.0286 613.571 41.3848 613.571 39.2852V23.416H609.763V21.4385L613.596 19.8516L615.207 14.041H617.648V20.2422H625.485V23.416H617.648V39.1631C617.648 40.8395 618.031 42.0928 618.796 42.9229C619.577 43.7529 620.611 44.168 621.896 44.168ZM654.147 33.5723C654.147 35.7695 653.863 37.7308 653.293 39.4561C652.723 41.1813 651.901 42.638 650.827 43.8262C649.753 45.0143 648.451 45.9258 646.921 46.5605C645.407 47.179 643.69 47.4883 641.77 47.4883C639.979 47.4883 638.335 47.179 636.838 46.5605C635.357 45.9258 634.071 45.0143 632.98 43.8262C631.906 42.638 631.068 41.1813 630.466 39.4561C629.88 37.7308 629.587 35.7695 629.587 33.5723C629.587 30.6426 630.083 28.1523 631.076 26.1016C632.069 24.0345 633.485 22.4639 635.324 21.3896C637.18 20.2992 639.385 19.7539 641.94 19.7539C644.382 19.7539 646.514 20.2992 648.337 21.3896C650.176 22.4801 651.6 24.0589 652.609 26.126C653.635 28.1768 654.147 30.6589 654.147 33.5723ZM633.786 33.5723C633.786 35.7207 634.071 37.5843 634.641 39.1631C635.21 40.7419 636.089 41.9626 637.277 42.8252C638.465 43.6878 639.995 44.1191 641.867 44.1191C643.723 44.1191 645.244 43.6878 646.433 42.8252C647.637 41.9626 648.524 40.7419 649.094 39.1631C649.663 37.5843 649.948 35.7207 649.948 33.5723C649.948 31.4401 649.663 29.6009 649.094 28.0547C648.524 26.4922 647.645 25.2878 646.457 24.4414C645.269 23.5951 643.731 23.1719 641.843 23.1719C639.06 23.1719 637.017 24.0915 635.715 25.9307C634.429 27.7699 633.786 30.3171 633.786 33.5723ZM684.445 19.7539C686.724 19.7539 688.677 20.2585 690.305 21.2676C691.932 22.2767 693.177 23.6927 694.04 25.5156C694.903 27.3223 695.334 29.4382 695.334 31.8633V34.3779H676.853C676.901 37.5192 677.683 39.9118 679.196 41.5557C680.71 43.1995 682.842 44.0215 685.593 44.0215C687.285 44.0215 688.783 43.8669 690.085 43.5576C691.387 43.2484 692.738 42.7926 694.138 42.1904V45.7549C692.787 46.3571 691.444 46.7965 690.109 47.0732C688.791 47.3499 687.229 47.4883 685.422 47.4883C682.85 47.4883 680.604 46.9674 678.684 45.9258C676.779 44.8678 675.298 43.3216 674.24 41.2871C673.182 39.2526 672.653 36.7624 672.653 33.8164C672.653 30.9355 673.133 28.4453 674.094 26.3457C675.07 24.2298 676.438 22.6022 678.195 21.4629C679.969 20.3236 682.053 19.7539 684.445 19.7539ZM684.396 23.0742C682.232 23.0742 680.507 23.7822 679.221 25.1982C677.935 26.6143 677.17 28.5918 676.926 31.1309H691.086C691.07 29.5358 690.817 28.1361 690.329 26.9316C689.857 25.7109 689.133 24.7669 688.156 24.0996C687.18 23.416 685.926 23.0742 684.396 23.0742ZM727.121 23.416H720.456V47H716.403V23.416H711.667V21.4629L716.403 20.1201V18.3379C716.403 16.0918 716.737 14.2689 717.404 12.8691C718.072 11.4531 719.04 10.4115 720.31 9.74414C721.579 9.07682 723.125 8.74316 724.948 8.74316C725.974 8.74316 726.91 8.83268 727.756 9.01172C728.618 9.19076 729.375 9.39421 730.026 9.62207L728.977 12.8203C728.423 12.6413 727.797 12.4785 727.097 12.332C726.413 12.1693 725.713 12.0879 724.997 12.0879C723.451 12.0879 722.303 12.5924 721.555 13.6016C720.822 14.5944 720.456 16.1569 720.456 18.2891V20.2422H727.121V23.416ZM742.062 19.8027C745.253 19.8027 747.621 20.5189 749.167 21.9512C750.713 23.3835 751.486 25.6702 751.486 28.8115V47H748.532L747.751 43.0449H747.556C746.807 44.0215 746.026 44.8434 745.212 45.5107C744.398 46.1618 743.454 46.6582 742.38 47C741.322 47.3255 740.02 47.4883 738.474 47.4883C736.846 47.4883 735.397 47.2035 734.128 46.6338C732.875 46.0641 731.882 45.2015 731.149 44.0459C730.433 42.8903 730.075 41.4255 730.075 39.6514C730.075 36.9821 731.133 34.9313 733.249 33.499C735.365 32.0667 738.588 31.2855 742.917 31.1553L747.531 30.96V29.3242C747.531 27.013 747.035 25.3936 746.042 24.4658C745.049 23.5381 743.649 23.0742 741.843 23.0742C740.443 23.0742 739.108 23.2777 737.839 23.6846C736.569 24.0915 735.365 24.5716 734.226 25.125L732.98 22.0488C734.185 21.4303 735.568 20.9014 737.131 20.4619C738.693 20.0225 740.337 19.8027 742.062 19.8027ZM747.482 33.8164L743.405 33.9873C740.069 34.1175 737.717 34.6628 736.35 35.623C734.982 36.5833 734.299 37.9424 734.299 39.7002C734.299 41.2301 734.763 42.3613 735.69 43.0938C736.618 43.8262 737.847 44.1924 739.377 44.1924C741.753 44.1924 743.698 43.5332 745.212 42.2148C746.726 40.8965 747.482 38.9189 747.482 36.2822V33.8164ZM788.889 19.7539C791.835 19.7539 794.056 20.527 795.554 22.0732C797.051 23.6032 797.8 26.069 797.8 29.4707V47H793.796V29.666C793.796 27.5013 793.324 25.8818 792.38 24.8076C791.452 23.7171 790.069 23.1719 788.229 23.1719C785.642 23.1719 783.762 23.9206 782.59 25.418C781.418 26.9154 780.832 29.1208 780.832 32.0342V47H776.804V29.666C776.804 28.2174 776.592 27.013 776.169 26.0527C775.762 25.0924 775.144 24.3763 774.313 23.9043C773.5 23.416 772.466 23.1719 771.213 23.1719C769.439 23.1719 768.015 23.5381 766.94 24.2705C765.866 25.0029 765.085 26.0934 764.597 27.542C764.125 28.9743 763.889 30.7402 763.889 32.8398V47H759.836V20.2422H763.107L763.718 24.0264H763.938C764.475 23.0986 765.15 22.3174 765.964 21.6826C766.778 21.0479 767.689 20.5677 768.698 20.2422C769.707 19.9167 770.782 19.7539 771.921 19.7539C773.955 19.7539 775.656 20.1364 777.023 20.9014C778.407 21.6501 779.408 22.7975 780.026 24.3438H780.246C781.125 22.7975 782.329 21.6501 783.859 20.9014C785.389 20.1364 787.066 19.7539 788.889 19.7539ZM810.178 47H806.125V20.2422H810.178V47ZM815.231 8.69434V9.18262C814.906 9.65462 814.458 10.2243 813.889 10.8916C813.335 11.5426 812.717 12.2344 812.033 12.9668C811.35 13.6829 810.658 14.3665 809.958 15.0176C809.274 15.6686 808.64 16.2301 808.054 16.7021H805.344V16.1162C805.865 15.4977 806.434 14.7572 807.053 13.8945C807.671 13.0156 808.273 12.1204 808.859 11.209C809.445 10.2812 809.934 9.44303 810.324 8.69434H815.231ZM822.849 47H818.771V9.01172H822.849V47ZM835.471 20.2422V47H831.418V20.2422H835.471ZM833.493 10.2324C834.16 10.2324 834.73 10.4521 835.202 10.8916C835.69 11.3148 835.935 11.9821 835.935 12.8936C835.935 13.7887 835.69 14.4561 835.202 14.8955C834.73 15.335 834.16 15.5547 833.493 15.5547C832.793 15.5547 832.207 15.335 831.735 14.8955C831.28 14.4561 831.052 13.7887 831.052 12.8936C831.052 11.9821 831.28 11.3148 831.735 10.8916C832.207 10.4521 832.793 10.2324 833.493 10.2324ZM854.074 19.8027C857.264 19.8027 859.632 20.5189 861.179 21.9512C862.725 23.3835 863.498 25.6702 863.498 28.8115V47H860.544L859.763 43.0449H859.567C858.819 44.0215 858.037 44.8434 857.224 45.5107C856.41 46.1618 855.466 46.6582 854.392 47C853.334 47.3255 852.032 47.4883 850.485 47.4883C848.858 47.4883 847.409 47.2035 846.14 46.6338C844.886 46.0641 843.894 45.2015 843.161 44.0459C842.445 42.8903 842.087 41.4255 842.087 39.6514C842.087 36.9821 843.145 34.9313 845.261 33.499C847.377 32.0667 850.599 31.2855 854.929 31.1553L859.543 30.96V29.3242C859.543 27.013 859.047 25.3936 858.054 24.4658C857.061 23.5381 855.661 23.0742 853.854 23.0742C852.455 23.0742 851.12 23.2777 849.851 23.6846C848.581 24.0915 847.377 24.5716 846.237 25.125L844.992 22.0488C846.197 21.4303 847.58 20.9014 849.143 20.4619C850.705 20.0225 852.349 19.8027 854.074 19.8027ZM859.494 33.8164L855.417 33.9873C852.08 34.1175 849.729 34.6628 848.361 35.623C846.994 36.5833 846.311 37.9424 846.311 39.7002C846.311 41.2301 846.774 42.3613 847.702 43.0938C848.63 43.8262 849.859 44.1924 851.389 44.1924C853.765 44.1924 855.71 43.5332 857.224 42.2148C858.737 40.8965 859.494 38.9189 859.494 36.2822V33.8164ZM875.51 37.0879H872.849L871.726 11.3066H876.633L875.51 37.0879ZM871.237 44.4609C871.237 43.3216 871.514 42.516 872.067 42.0439C872.621 41.5557 873.312 41.3115 874.143 41.3115C874.956 41.3115 875.64 41.5557 876.193 42.0439C876.763 42.516 877.048 43.3216 877.048 44.4609C877.048 45.584 876.763 46.4059 876.193 46.9268C875.64 47.4313 874.956 47.6836 874.143 47.6836C873.312 47.6836 872.621 47.4313 872.067 46.9268C871.514 46.4059 871.237 45.584 871.237 44.4609Z" fill="#BD4747"/>
</svg>
