<svg width="210" height="44" viewBox="0 0 210 44" fill="none" xmlns="http://www.w3.org/2000/svg">
<path id="volunt&#195;&#161;rios" d="M8.45703 38L0.332031 16.5938H3.80859L8.51562 29.543C8.84115 30.4284 9.17318 31.4049 9.51172 32.4727C9.85026 33.5404 10.0846 34.3997 10.2148 35.0508H10.3516C10.5078 34.3997 10.7682 33.5404 11.1328 32.4727C11.4974 31.3919 11.8294 30.4154 12.1289 29.543L16.8359 16.5938H20.3125L12.168 38H8.45703ZM42.207 27.2578C42.207 29.0156 41.9792 30.5846 41.5234 31.9648C41.0677 33.3451 40.4102 34.5104 39.5508 35.4609C38.6914 36.4115 37.6497 37.1406 36.4258 37.6484C35.2148 38.1432 33.8411 38.3906 32.3047 38.3906C30.8724 38.3906 29.5573 38.1432 28.3594 37.6484C27.1745 37.1406 26.1458 36.4115 25.2734 35.4609C24.4141 34.5104 23.7435 33.3451 23.2617 31.9648C22.793 30.5846 22.5586 29.0156 22.5586 27.2578C22.5586 24.9141 22.9557 22.9219 23.75 21.2812C24.5443 19.6276 25.6771 18.3711 27.1484 17.5117C28.6328 16.6393 30.3971 16.2031 32.4414 16.2031C34.3945 16.2031 36.1003 16.6393 37.5586 17.5117C39.0299 18.3841 40.1693 19.6471 40.9766 21.3008C41.7969 22.9414 42.207 24.9271 42.207 27.2578ZM25.918 27.2578C25.918 28.9766 26.1458 30.4674 26.6016 31.7305C27.0573 32.9935 27.7604 33.9701 28.7109 34.6602C29.6615 35.3503 30.8854 35.6953 32.3828 35.6953C33.8672 35.6953 35.0846 35.3503 36.0352 34.6602C36.9987 33.9701 37.7083 32.9935 38.1641 31.7305C38.6198 30.4674 38.8477 28.9766 38.8477 27.2578C38.8477 25.5521 38.6198 24.0807 38.1641 22.8438C37.7083 21.5938 37.0052 20.6302 36.0547 19.9531C35.1042 19.276 33.8737 18.9375 32.3633 18.9375C30.1367 18.9375 28.5026 19.6732 27.4609 21.1445C26.4323 22.6159 25.918 24.6536 25.918 27.2578ZM51.0742 38H47.8125V7.60938H51.0742V38ZM75.6055 16.5938V38H72.9492L72.4805 34.9922H72.3047C71.862 35.7344 71.2891 36.3594 70.5859 36.8672C69.8828 37.375 69.0885 37.7526 68.2031 38C67.3307 38.2604 66.3997 38.3906 65.4102 38.3906C63.7174 38.3906 62.2982 38.1172 61.1523 37.5703C60.0065 37.0234 59.1406 36.1771 58.5547 35.0312C57.9818 33.8854 57.6953 32.4141 57.6953 30.6172V16.5938H60.9766V30.3828C60.9766 32.1667 61.3802 33.5013 62.1875 34.3867C62.9948 35.2591 64.2253 35.6953 65.8789 35.6953C67.4674 35.6953 68.7305 35.3958 69.668 34.7969C70.6185 34.1979 71.3021 33.319 71.7188 32.1602C72.1354 30.9883 72.3438 29.556 72.3438 27.8633V16.5938H75.6055ZM92.5977 16.2031C95.1367 16.2031 97.0573 16.8281 98.3594 18.0781C99.6615 19.3151 100.312 21.3073 100.312 24.0547V38H97.1094V24.2695C97.1094 22.4857 96.6992 21.151 95.8789 20.2656C95.0716 19.3802 93.8281 18.9375 92.1484 18.9375C89.7786 18.9375 88.112 19.6081 87.1484 20.9492C86.1849 22.2904 85.7031 24.237 85.7031 26.7891V38H82.4609V16.5938H85.0781L85.5664 19.6797H85.7422C86.1979 18.9245 86.7773 18.293 87.4805 17.7852C88.1836 17.2643 88.9714 16.8737 89.8438 16.6133C90.7161 16.3398 91.6341 16.2031 92.5977 16.2031ZM113.906 35.7344C114.44 35.7344 114.987 35.6888 115.547 35.5977C116.107 35.5065 116.562 35.3958 116.914 35.2656V37.7852C116.536 37.9544 116.009 38.0977 115.332 38.2148C114.668 38.332 114.017 38.3906 113.379 38.3906C112.246 38.3906 111.217 38.1953 110.293 37.8047C109.368 37.401 108.626 36.724 108.066 35.7734C107.52 34.8229 107.246 33.5078 107.246 31.8281V19.1328H104.199V17.5508L107.266 16.2812L108.555 11.6328H110.508V16.5938H116.777V19.1328H110.508V31.7305C110.508 33.0716 110.814 34.0742 111.426 34.7383C112.051 35.4023 112.878 35.7344 113.906 35.7344ZM129.258 16.2422C131.81 16.2422 133.704 16.8151 134.941 17.9609C136.178 19.1068 136.797 20.9362 136.797 23.4492V38H134.434L133.809 34.8359H133.652C133.053 35.6172 132.428 36.2747 131.777 36.8086C131.126 37.3294 130.371 37.7266 129.512 38C128.665 38.2604 127.624 38.3906 126.387 38.3906C125.085 38.3906 123.926 38.1628 122.91 37.707C121.908 37.2513 121.113 36.5612 120.527 35.6367C119.954 34.7122 119.668 33.5404 119.668 32.1211C119.668 29.9857 120.514 28.3451 122.207 27.1992C123.9 26.0534 126.478 25.4284 129.941 25.3242L133.633 25.168V23.8594C133.633 22.0104 133.236 20.7148 132.441 19.9727C131.647 19.2305 130.527 18.8594 129.082 18.8594C127.962 18.8594 126.895 19.0221 125.879 19.3477C124.863 19.6732 123.9 20.0573 122.988 20.5L121.992 18.0391C122.956 17.5443 124.062 17.1211 125.312 16.7695C126.562 16.418 127.878 16.2422 129.258 16.2422ZM133.594 27.4531L130.332 27.5898C127.663 27.694 125.781 28.1302 124.688 28.8984C123.594 29.6667 123.047 30.7539 123.047 32.1602C123.047 33.3841 123.418 34.2891 124.16 34.875C124.902 35.4609 125.885 35.7539 127.109 35.7539C129.01 35.7539 130.566 35.2266 131.777 34.1719C132.988 33.1172 133.594 31.5352 133.594 29.4258V27.4531ZM134.609 7.35547V7.74609C134.349 8.1237 133.991 8.57943 133.535 9.11328C133.092 9.63411 132.598 10.1875 132.051 10.7734C131.504 11.3464 130.951 11.8932 130.391 12.4141C129.844 12.9349 129.336 13.3841 128.867 13.7617H126.699V13.293C127.116 12.7982 127.572 12.2057 128.066 11.5156C128.561 10.8125 129.043 10.0964 129.512 9.36719C129.98 8.625 130.371 7.95443 130.684 7.35547H134.609ZM153.203 16.2031C153.633 16.2031 154.082 16.2292 154.551 16.2812C155.02 16.3203 155.436 16.3789 155.801 16.457L155.391 19.4648C155.039 19.3737 154.648 19.3021 154.219 19.25C153.789 19.1979 153.385 19.1719 153.008 19.1719C152.148 19.1719 151.335 19.3477 150.566 19.6992C149.811 20.0378 149.147 20.5326 148.574 21.1836C148.001 21.8216 147.552 22.5964 147.227 23.5078C146.901 24.4062 146.738 25.4089 146.738 26.5156V38H143.477V16.5938H146.172L146.523 20.5391H146.66C147.103 19.7448 147.637 19.0221 148.262 18.3711C148.887 17.707 149.609 17.1797 150.43 16.7891C151.263 16.3984 152.188 16.2031 153.203 16.2031ZM163.086 16.5938V38H159.844V16.5938H163.086ZM161.504 8.58594C162.038 8.58594 162.493 8.76172 162.871 9.11328C163.262 9.45182 163.457 9.98568 163.457 10.7148C163.457 11.431 163.262 11.9648 162.871 12.3164C162.493 12.668 162.038 12.8438 161.504 12.8438C160.944 12.8438 160.475 12.668 160.098 12.3164C159.733 11.9648 159.551 11.431 159.551 10.7148C159.551 9.98568 159.733 9.45182 160.098 9.11328C160.475 8.76172 160.944 8.58594 161.504 8.58594ZM188.418 27.2578C188.418 29.0156 188.19 30.5846 187.734 31.9648C187.279 33.3451 186.621 34.5104 185.762 35.4609C184.902 36.4115 183.861 37.1406 182.637 37.6484C181.426 38.1432 180.052 38.3906 178.516 38.3906C177.083 38.3906 175.768 38.1432 174.57 37.6484C173.385 37.1406 172.357 36.4115 171.484 35.4609C170.625 34.5104 169.954 33.3451 169.473 31.9648C169.004 30.5846 168.77 29.0156 168.77 27.2578C168.77 24.9141 169.167 22.9219 169.961 21.2812C170.755 19.6276 171.888 18.3711 173.359 17.5117C174.844 16.6393 176.608 16.2031 178.652 16.2031C180.605 16.2031 182.311 16.6393 183.77 17.5117C185.241 18.3841 186.38 19.6471 187.188 21.3008C188.008 22.9414 188.418 24.9271 188.418 27.2578ZM172.129 27.2578C172.129 28.9766 172.357 30.4674 172.812 31.7305C173.268 32.9935 173.971 33.9701 174.922 34.6602C175.872 35.3503 177.096 35.6953 178.594 35.6953C180.078 35.6953 181.296 35.3503 182.246 34.6602C183.21 33.9701 183.919 32.9935 184.375 31.7305C184.831 30.4674 185.059 28.9766 185.059 27.2578C185.059 25.5521 184.831 24.0807 184.375 22.8438C183.919 21.5938 183.216 20.6302 182.266 19.9531C181.315 19.276 180.085 18.9375 178.574 18.9375C176.348 18.9375 174.714 19.6732 173.672 21.1445C172.643 22.6159 172.129 24.6536 172.129 27.2578ZM207.871 32.1406C207.871 33.5078 207.526 34.6602 206.836 35.5977C206.159 36.5221 205.182 37.2188 203.906 37.6875C202.643 38.1562 201.133 38.3906 199.375 38.3906C197.878 38.3906 196.582 38.2734 195.488 38.0391C194.395 37.8047 193.438 37.4727 192.617 37.043V34.0547C193.49 34.4844 194.531 34.875 195.742 35.2266C196.953 35.5781 198.19 35.7539 199.453 35.7539C201.302 35.7539 202.643 35.4544 203.477 34.8555C204.31 34.2565 204.727 33.4427 204.727 32.4141C204.727 31.8281 204.557 31.3138 204.219 30.8711C203.893 30.4154 203.34 29.9792 202.559 29.5625C201.777 29.1328 200.697 28.6641 199.316 28.1562C197.949 27.6354 196.764 27.1211 195.762 26.6133C194.772 26.0924 194.004 25.4609 193.457 24.7188C192.923 23.9766 192.656 23.013 192.656 21.8281C192.656 20.0182 193.385 18.6315 194.844 17.668C196.315 16.6914 198.242 16.2031 200.625 16.2031C201.914 16.2031 203.118 16.3333 204.238 16.5938C205.371 16.8411 206.426 17.1797 207.402 17.6094L206.309 20.207C205.423 19.8294 204.479 19.5104 203.477 19.25C202.474 18.9896 201.452 18.8594 200.41 18.8594C198.913 18.8594 197.76 19.1068 196.953 19.6016C196.159 20.0964 195.762 20.7734 195.762 21.6328C195.762 22.2969 195.944 22.8438 196.309 23.2734C196.686 23.7031 197.285 24.1068 198.105 24.4844C198.926 24.862 200.007 25.3047 201.348 25.8125C202.689 26.3073 203.848 26.8216 204.824 27.3555C205.801 27.8763 206.549 28.5143 207.07 29.2695C207.604 30.0117 207.871 30.9688 207.871 32.1406Z" fill="#BD4747"/>
</svg>
