<svg width="428" height="112" viewBox="0 0 428 112" fill="none" xmlns="http://www.w3.org/2000/svg">
<g filter="url(#filter0_d_3347_439)">
<rect x="6.5" y="2.5" width="415" height="99" rx="49.5" stroke="#BD4747" stroke-width="5" shape-rendering="crispEdges"/>
<path d="M62.125 68.495C59.89 68.495 57.9925 68.03 56.4325 67.1C54.8725 66.17 53.6125 64.925 52.6525 63.365C51.6925 61.805 50.9875 60.0575 50.5375 58.1225C50.1025 56.1875 49.885 54.23 49.885 52.25C49.885 50.3 50.11 48.365 50.56 46.445C51.025 44.51 51.745 42.755 52.72 41.18C53.695 39.605 54.955 38.345 56.5 37.4C58.06 36.455 59.935 35.9825 62.125 35.9825C63.835 35.9825 65.305 36.2825 66.535 36.8825C67.765 37.4825 68.785 38.2625 69.595 39.2225C70.405 40.1675 71.0275 41.1575 71.4625 42.1925L67.1875 44.3075C66.6025 43.1825 65.9275 42.2675 65.1625 41.5625C64.3975 40.8575 63.385 40.505 62.125 40.505C60.79 40.505 59.6575 40.865 58.7275 41.585C57.7975 42.29 57.0475 43.2275 56.4775 44.3975C55.9075 45.5525 55.495 46.82 55.24 48.2C54.985 49.565 54.8575 50.915 54.8575 52.25C54.8575 53.675 55 55.085 55.285 56.48C55.57 57.875 56.005 59.135 56.59 60.26C57.19 61.385 57.9475 62.285 58.8625 62.96C59.7775 63.635 60.865 63.9725 62.125 63.9725C63.4 63.9725 64.4425 63.5975 65.2525 62.8475C66.0775 62.0975 66.7675 61.13 67.3225 59.945L71.665 61.5875C71.14 62.8775 70.45 64.0475 69.595 65.0975C68.74 66.1475 67.69 66.98 66.445 67.595C65.215 68.195 63.775 68.495 62.125 68.495ZM76.557 68L86.8845 36.5L91.272 36.5L101.622 68L96.5145 68L89.877 46.2425C89.817 46.0325 89.7345 45.7325 89.6295 45.3425C89.5245 44.9375 89.4195 44.5175 89.3145 44.0825C89.2095 43.6475 89.1345 43.2575 89.0895 42.9125C89.0145 43.2575 88.9245 43.6475 88.8195 44.0825C88.7295 44.5175 88.632 44.9375 88.527 45.3425C88.437 45.7325 88.362 46.0325 88.302 46.2425L81.7095 68L76.557 68ZM82.7445 60.755L84.072 56.4125L94.107 56.4125L95.4345 60.755L82.7445 60.755ZM106.716 68L106.716 36.5L111.329 36.5L121.499 56.93C121.619 57.155 121.784 57.47 121.994 57.875C122.204 58.28 122.376 58.625 122.511 58.91C122.496 58.505 122.474 58.1375 122.444 57.8075C122.429 57.4625 122.421 57.1625 122.421 56.9075L122.421 36.5L126.921 36.5L126.921 68L122.489 68L112.184 47.615C112.064 47.36 111.891 47.03 111.666 46.625C111.456 46.22 111.284 45.8825 111.149 45.6125C111.209 45.9425 111.239 46.2875 111.239 46.6475C111.254 47.0075 111.261 47.3225 111.261 47.5925L111.261 68L106.716 68ZM134.446 68L134.446 36.5L142.163 36.5C144.713 36.5 146.866 36.95 148.621 37.85C150.391 38.735 151.823 39.935 152.918 41.45C154.013 42.95 154.808 44.6375 155.303 46.5125C155.813 48.3725 156.068 50.285 156.068 52.25C156.068 54.05 155.828 55.8725 155.348 57.7175C154.883 59.5625 154.111 61.265 153.031 62.825C151.951 64.385 150.511 65.6375 148.711 66.5825C146.911 67.5275 144.668 68 141.983 68L134.446 68ZM139.238 63.5L142.388 63.5C144.023 63.5 145.396 63.17 146.506 62.51C147.631 61.835 148.523 60.95 149.183 59.855C149.843 58.745 150.316 57.53 150.601 56.21C150.901 54.89 151.051 53.57 151.051 52.25C151.051 50.84 150.893 49.4675 150.578 48.1325C150.278 46.7975 149.798 45.59 149.138 44.51C148.493 43.43 147.653 42.575 146.618 41.945C145.583 41.3 144.338 40.9775 142.883 40.9775L139.238 40.9775L139.238 63.5ZM169.87 68L169.87 36.5L174.663 36.5L174.663 68L169.87 68ZM163.053 68L163.053 63.7025L181.503 63.7025L181.503 68L163.053 68ZM163.053 40.775L163.053 36.5L181.503 36.5L181.503 40.775L163.053 40.775ZM189.905 68L189.905 36.5L197.622 36.5C200.172 36.5 202.325 36.95 204.08 37.85C205.85 38.735 207.282 39.935 208.377 41.45C209.472 42.95 210.267 44.6375 210.762 46.5125C211.272 48.3725 211.527 50.285 211.527 52.25C211.527 54.05 211.287 55.8725 210.807 57.7175C210.342 59.5625 209.57 61.265 208.49 62.825C207.41 64.385 205.97 65.6375 204.17 66.5825C202.37 67.5275 200.127 68 197.442 68L189.905 68ZM194.697 63.5L197.847 63.5C199.482 63.5 200.855 63.17 201.965 62.51C203.09 61.835 203.982 60.95 204.642 59.855C205.302 58.745 205.775 57.53 206.06 56.21C206.36 54.89 206.51 53.57 206.51 52.25C206.51 50.84 206.352 49.4675 206.037 48.1325C205.737 46.7975 205.257 45.59 204.597 44.51C203.952 43.43 203.112 42.575 202.077 41.945C201.042 41.3 199.797 40.9775 198.342 40.9775L194.697 40.9775L194.697 63.5ZM215.204 68L225.532 36.5L229.919 36.5L240.269 68L235.162 68L228.524 46.2425C228.464 46.0325 228.382 45.7325 228.277 45.3425C228.172 44.9375 228.067 44.5175 227.962 44.0825C227.857 43.6475 227.782 43.2575 227.737 42.9125C227.662 43.2575 227.572 43.6475 227.467 44.0825C227.377 44.5175 227.279 44.9375 227.174 45.3425C227.084 45.7325 227.009 46.0325 226.949 46.2425L220.357 68L215.204 68ZM221.392 60.755L222.719 56.4125L232.754 56.4125L234.082 60.755L221.392 60.755ZM253.059 68L253.059 41.09L243.946 41.09L243.946 36.5L266.986 36.5L266.986 41.09L257.851 41.09L257.851 68L253.059 68ZM270.663 68L280.991 36.5L285.378 36.5L295.728 68L290.621 68L283.983 46.2425C283.923 46.0325 283.841 45.7325 283.736 45.3425C283.631 44.9375 283.526 44.5175 283.421 44.0825C283.316 43.6475 283.241 43.2575 283.196 42.9125C283.121 43.2575 283.031 43.6475 282.926 44.0825C282.836 44.5175 282.738 44.9375 282.633 45.3425C282.543 45.7325 282.468 46.0325 282.408 46.2425L275.816 68L270.663 68ZM276.851 60.755L278.178 56.4125L288.213 56.4125L289.541 60.755L276.851 60.755ZM300.35 56.885L300.35 52.385L321.5 52.385L321.5 56.885L300.35 56.885ZM336.247 68L336.247 41.09L327.135 41.09L327.135 36.5L350.175 36.5L350.175 41.09L341.04 41.09L341.04 68L336.247 68ZM356.282 68L356.282 36.5L375.834 36.5L375.834 41.0675L361.097 41.0675L361.097 49.4375L370.862 49.4375L370.862 54.005L361.097 54.005L361.097 63.4325L376.779 63.4325L376.779 68L356.282 68Z" fill="#BD4747"/>
</g>
<defs>
<filter id="filter0_d_3347_439" x="0" y="8.31642e-09" width="428" height="112" filterUnits="userSpaceOnUse" color-interpolation-filters="sRGB">
<feFlood flood-opacity="0" result="BackgroundImageFix"/>
<feColorMatrix in="SourceAlpha" type="matrix" values="0 0 0 0 0 0 0 0 0 0 0 0 0 0 0 0 0 0 127 0" result="hardAlpha"/>
<feOffset dy="4"/>
<feGaussianBlur stdDeviation="2"/>
<feComposite in2="hardAlpha" operator="out"/>
<feColorMatrix type="matrix" values="0 0 0 0 0 0 0 0 0 0 0 0 0 0 0 0 0 0 0.25 0"/>
<feBlend mode="normal" in2="BackgroundImageFix" result="effect1_dropShadow_3347_439"/>
<feBlend mode="normal" in="SourceGraphic" in2="effect1_dropShadow_3347_439" result="shape"/>
</filter>
</defs>
</svg>
