<svg width="428" height="112" viewBox="0 0 428 112" fill="none" xmlns="http://www.w3.org/2000/svg">
<g filter="url(#filter0_d_3347_438)">
<rect x="6.5" y="2.5" width="415" height="99" rx="49.5" stroke="#BD4747" stroke-width="5" shape-rendering="crispEdges"/>
<path d="M86.4525 68L86.4525 36.5L91.245 36.5L91.245 68L86.4525 68ZM79.635 68L79.635 63.7025L98.085 63.7025L98.085 68L79.635 68ZM79.635 40.775L79.635 36.5L98.085 36.5L98.085 40.775L79.635 40.775ZM106.487 68L106.487 36.5L111.324 36.5L115.937 54.365C116.072 54.92 116.207 55.4825 116.342 56.0525C116.492 56.6075 116.597 57.1025 116.657 57.5375C116.732 57.1025 116.837 56.6075 116.972 56.0525C117.107 55.4825 117.249 54.92 117.399 54.365L122.102 36.5L126.692 36.5L126.692 68L122.462 68L122.462 49.8875C122.462 49.5575 122.462 49.1225 122.462 48.5825C122.477 48.0275 122.507 47.5625 122.552 47.1875C122.432 47.6075 122.297 48.0575 122.147 48.5375C122.012 49.0025 121.884 49.4525 121.764 49.8875L116.859 68L116.342 68L111.414 49.8875C111.294 49.4525 111.159 48.995 111.009 48.515C110.874 48.035 110.747 47.5925 110.627 47.1875C110.657 47.5625 110.679 48.0275 110.694 48.5825C110.709 49.1225 110.717 49.5575 110.717 49.8875L110.717 68L106.487 68ZM134.216 68L134.216 36.5L144.814 36.5C147.394 36.5 149.441 36.9725 150.956 37.9175C152.471 38.8625 153.559 40.0775 154.219 41.5625C154.879 43.0325 155.209 44.555 155.209 46.13C155.209 47.24 155.014 48.365 154.624 49.505C154.249 50.63 153.641 51.665 152.801 52.61C151.976 53.555 150.904 54.32 149.584 54.905C148.279 55.475 146.689 55.76 144.814 55.76L139.031 55.76L139.031 68L134.216 68ZM139.031 51.2825L145.084 51.2825C146.374 51.2825 147.401 51.0275 148.166 50.5175C148.946 49.9925 149.509 49.34 149.854 48.56C150.199 47.765 150.371 46.955 150.371 46.13C150.371 45.395 150.214 44.63 149.899 43.835C149.599 43.04 149.066 42.365 148.301 41.81C147.536 41.255 146.464 40.9775 145.084 40.9775L139.031 40.9775L139.031 51.2825ZM172.048 68.54C170.113 68.54 168.358 68.1425 166.783 67.3475C165.208 66.5375 163.948 65.2175 163.003 63.3875C162.073 61.5575 161.608 59.0975 161.608 56.0075L161.608 36.5L166.378 36.5L166.378 56.0075C166.378 58.1075 166.626 59.735 167.121 60.89C167.631 62.045 168.313 62.855 169.168 63.32C170.023 63.785 170.983 64.0175 172.048 64.0175C173.098 64.0175 174.051 63.785 174.906 63.32C175.776 62.855 176.458 62.045 176.953 60.89C177.463 59.735 177.718 58.1075 177.718 56.0075L177.718 36.5L182.533 36.5L182.533 56.0075C182.533 59.0675 182.068 61.5125 181.138 63.3425C180.208 65.1725 178.948 66.5 177.358 67.325C175.768 68.135 173.998 68.54 172.048 68.54ZM189.675 68L189.675 36.5L194.49 36.5L194.49 63.3875L209.183 63.3875L209.183 68L189.675 68ZM227.822 68.54C226.142 68.54 224.582 68.2175 223.142 67.5725C221.702 66.9125 220.45 66.0125 219.385 64.8725C218.335 63.7175 217.555 62.3825 217.045 60.8675L221.432 59.2475C222.077 60.6725 223 61.8275 224.2 62.7125C225.4 63.5975 226.72 64.04 228.16 64.04C229.615 64.04 230.792 63.6575 231.692 62.8925C232.592 62.1275 233.042 61.0175 233.042 59.5625C233.042 58.6025 232.742 57.755 232.142 57.02C231.542 56.285 230.755 55.6325 229.78 55.0625C228.805 54.4775 227.755 53.93 226.63 53.42C225.625 53 224.62 52.52 223.615 51.98C222.625 51.44 221.71 50.81 220.87 50.09C220.045 49.355 219.377 48.4925 218.867 47.5025C218.357 46.5125 218.102 45.3575 218.102 44.0375C218.102 42.5675 218.477 41.225 219.227 40.01C219.992 38.78 221.072 37.7975 222.467 37.0625C223.877 36.3275 225.542 35.96 227.462 35.96C229.757 35.96 231.715 36.56 233.335 37.76C234.97 38.945 236.042 40.4375 236.552 42.2375L232.21 43.7C231.79 42.785 231.16 42.0125 230.32 41.3825C229.48 40.7525 228.445 40.4375 227.215 40.4375C225.985 40.4375 224.965 40.7525 224.155 41.3825C223.36 42.0125 222.962 42.8675 222.962 43.9475C222.962 44.7425 223.202 45.4325 223.682 46.0175C224.177 46.5875 224.867 47.12 225.752 47.615C226.637 48.11 227.695 48.6425 228.925 49.2125C229.915 49.6775 230.935 50.2025 231.985 50.7875C233.035 51.3725 234.01 52.0625 234.91 52.8575C235.81 53.6375 236.53 54.56 237.07 55.625C237.625 56.69 237.902 57.9275 237.902 59.3375C237.902 61.3025 237.445 62.9675 236.53 64.3325C235.615 65.6975 234.392 66.74 232.862 67.46C231.332 68.18 229.652 68.54 227.822 68.54ZM252.829 68L252.829 36.5L257.622 36.5L257.622 68L252.829 68ZM246.012 68L246.012 63.7025L264.462 63.7025L264.462 68L246.012 68ZM246.012 40.775L246.012 36.5L264.462 36.5L264.462 40.775L246.012 40.775ZM282.966 68.54C280.911 68.54 279.156 68.09 277.701 67.19C276.246 66.275 275.061 65.045 274.146 63.5C273.231 61.955 272.556 60.215 272.121 58.28C271.701 56.33 271.491 54.32 271.491 52.25C271.491 50.18 271.701 48.1775 272.121 46.2425C272.556 44.2925 273.231 42.545 274.146 41C275.061 39.455 276.246 38.2325 277.701 37.3325C279.156 36.4175 280.911 35.96 282.966 35.96C285.021 35.96 286.776 36.4175 288.231 37.3325C289.701 38.2325 290.894 39.455 291.809 41C292.724 42.545 293.399 44.2925 293.834 46.2425C294.269 48.1775 294.486 50.18 294.486 52.25C294.486 54.32 294.269 56.33 293.834 58.28C293.399 60.215 292.724 61.955 291.809 63.5C290.894 65.045 289.701 66.275 288.231 67.19C286.776 68.09 285.021 68.54 282.966 68.54ZM282.966 64.0175C284.121 64.0175 285.111 63.68 285.936 63.005C286.761 62.33 287.429 61.43 287.939 60.305C288.464 59.18 288.846 57.92 289.086 56.525C289.341 55.115 289.469 53.69 289.469 52.25C289.469 50.69 289.341 49.2125 289.086 47.8175C288.846 46.4075 288.471 45.155 287.961 44.06C287.451 42.95 286.784 42.08 285.959 41.45C285.134 40.805 284.136 40.4825 282.966 40.4825C281.811 40.4825 280.821 40.82 279.996 41.495C279.171 42.155 278.496 43.0475 277.971 44.1725C277.461 45.2975 277.079 46.565 276.824 47.975C276.584 49.37 276.464 50.795 276.464 52.25C276.464 53.795 276.584 55.2725 276.824 56.6825C277.079 58.0775 277.461 59.33 277.971 60.44C278.496 61.55 279.171 62.4275 279.996 63.0725C280.821 63.7025 281.811 64.0175 282.966 64.0175ZM300.593 68L300.593 36.5L305.206 36.5L315.376 56.93C315.496 57.155 315.661 57.47 315.871 57.875C316.081 58.28 316.253 58.625 316.388 58.91C316.373 58.505 316.351 58.1375 316.321 57.8075C316.306 57.4625 316.298 57.1625 316.298 56.9075L316.298 36.5L320.798 36.5L320.798 68L316.366 68L306.061 47.615C305.941 47.36 305.768 47.03 305.543 46.625C305.333 46.22 305.161 45.8825 305.026 45.6125C305.086 45.9425 305.116 46.2875 305.116 46.6475C305.131 47.0075 305.138 47.3225 305.138 47.5925L305.138 68L300.593 68ZM325.893 68L336.22 36.5L340.608 36.5L350.958 68L345.85 68L339.213 46.2425C339.153 46.0325 339.07 45.7325 338.965 45.3425C338.86 44.9375 338.755 44.5175 338.65 44.0825C338.545 43.6475 338.47 43.2575 338.425 42.9125C338.35 43.2575 338.26 43.6475 338.155 44.0825C338.065 44.5175 337.968 44.9375 337.863 45.3425C337.773 45.7325 337.698 46.0325 337.638 46.2425L331.045 68L325.893 68ZM332.08 60.755L333.408 56.4125L343.443 56.4125L344.77 60.755L332.08 60.755Z" fill="#BD4747"/>
</g>
<defs>
<filter id="filter0_d_3347_438" x="0" y="8.31642e-09" width="428" height="112" filterUnits="userSpaceOnUse" color-interpolation-filters="sRGB">
<feFlood flood-opacity="0" result="BackgroundImageFix"/>
<feColorMatrix in="SourceAlpha" type="matrix" values="0 0 0 0 0 0 0 0 0 0 0 0 0 0 0 0 0 0 127 0" result="hardAlpha"/>
<feOffset dy="4"/>
<feGaussianBlur stdDeviation="2"/>
<feComposite in2="hardAlpha" operator="out"/>
<feColorMatrix type="matrix" values="0 0 0 0 0 0 0 0 0 0 0 0 0 0 0 0 0 0 0.25 0"/>
<feBlend mode="normal" in2="BackgroundImageFix" result="effect1_dropShadow_3347_438"/>
<feBlend mode="normal" in="SourceGraphic" in2="effect1_dropShadow_3347_438" result="shape"/>
</filter>
</defs>
</svg>
