<svg width="1617" height="226" viewBox="0 0 1617 226" fill="none" xmlns="http://www.w3.org/2000/svg">
<path d="M33.8399 88.9188C29.3599 88.9188 25.1199 88.3588 21.1199 87.2387C17.1199 86.1187 13.5599 84.4387 10.4399 82.1987C7.31988 79.8787 4.83988 77.0387 2.99988 73.6787C1.23988 70.3187 0.279883 66.3987 0.119883 61.9187C0.119883 61.1987 0.359883 60.5987 0.839883 60.1187C1.31988 59.5587 1.95988 59.2787 2.75988 59.2787H16.4399C17.4799 59.2787 18.2799 59.5587 18.8399 60.1187C19.4799 60.6787 19.9599 61.4787 20.2799 62.5187C20.6799 65.0787 21.5199 67.1587 22.7999 68.7587C24.0799 70.3587 25.6799 71.5587 27.5999 72.3587C29.5999 73.0787 31.8399 73.4387 34.3199 73.4387C38.8799 73.4387 42.3599 71.9587 44.7599 68.9987C47.2399 66.0387 48.4799 61.8387 48.4799 56.3987V19.6787H8.51988C7.71988 19.6787 7.03988 19.3987 6.47988 18.8387C5.91988 18.2787 5.63988 17.5987 5.63988 16.7987V6.71875C5.63988 5.83875 5.91988 5.11875 6.47988 4.55875C7.03988 3.99875 7.71988 3.71874 8.51988 3.71874H65.0399C65.9199 3.71874 66.6399 3.99875 67.1999 4.55875C67.7599 5.11875 68.0399 5.83875 68.0399 6.71875V56.8788C68.0399 63.7587 66.5999 69.5987 63.7199 74.3987C60.8399 79.1187 56.8399 82.7187 51.7199 85.1987C46.5999 87.6787 40.6399 88.9188 33.8399 88.9188ZM106.461 88.9188C101.821 88.9188 97.7014 87.8788 94.1014 85.7987C90.5814 83.6387 87.8214 80.5587 85.8214 76.5587C83.9014 72.4787 82.9414 67.5587 82.9414 61.7987V28.3187C82.9414 27.4387 83.2214 26.7187 83.7814 26.1587C84.3414 25.5987 85.0214 25.3187 85.8214 25.3187H98.5414C99.4214 25.3187 100.141 25.5987 100.701 26.1587C101.261 26.7187 101.541 27.4387 101.541 28.3187V61.0787C101.541 70.0387 105.461 74.5187 113.301 74.5187C117.061 74.5187 120.021 73.3587 122.181 71.0387C124.421 68.6387 125.541 65.3187 125.541 61.0787V28.3187C125.541 27.4387 125.821 26.7187 126.381 26.1587C126.941 25.5987 127.661 25.3187 128.541 25.3187H141.261C142.061 25.3187 142.741 25.5987 143.301 26.1587C143.861 26.7187 144.141 27.4387 144.141 28.3187V84.7187C144.141 85.5987 143.861 86.3187 143.301 86.8787C142.741 87.4387 142.061 87.7188 141.261 87.7188H129.501C128.621 87.7188 127.901 87.4387 127.341 86.8787C126.781 86.3187 126.501 85.5987 126.501 84.7187V80.0387C124.421 82.9187 121.741 85.1187 118.461 86.6387C115.181 88.1588 111.181 88.9188 106.461 88.9188ZM162.125 87.7188C161.325 87.7188 160.645 87.4387 160.085 86.8787C159.525 86.3187 159.245 85.5987 159.245 84.7187V28.3187C159.245 27.4387 159.525 26.7187 160.085 26.1587C160.645 25.5987 161.325 25.3187 162.125 25.3187H173.885C174.765 25.3187 175.485 25.5987 176.045 26.1587C176.605 26.7187 176.885 27.4387 176.885 28.3187V32.9987C178.965 30.4387 181.645 28.3187 184.925 26.6387C188.205 24.9587 192.205 24.1187 196.925 24.1187C201.645 24.1187 205.765 25.1987 209.285 27.3587C212.885 29.4387 215.685 32.5187 217.685 36.5987C219.765 40.5987 220.805 45.4787 220.805 51.2387V84.7187C220.805 85.5987 220.485 86.3187 219.845 86.8787C219.285 87.4387 218.605 87.7188 217.805 87.7188H205.085C204.205 87.7188 203.485 87.4387 202.925 86.8787C202.365 86.3187 202.085 85.5987 202.085 84.7187V51.9587C202.085 47.7187 201.045 44.4387 198.965 42.1187C196.965 39.7187 194.005 38.5187 190.085 38.5187C186.325 38.5187 183.325 39.7187 181.085 42.1187C178.845 44.4387 177.725 47.7187 177.725 51.9587V84.7187C177.725 85.5987 177.445 86.3187 176.885 86.8787C176.325 87.4387 175.645 87.7188 174.845 87.7188H162.125ZM264.479 87.7188C259.519 87.7188 255.279 86.9187 251.759 85.3187C248.239 83.6387 245.559 81.0787 243.719 77.6387C241.959 74.1987 241.079 69.8787 241.079 64.6787V39.4787H231.719C230.839 39.4787 230.119 39.1987 229.559 38.6387C228.999 38.0787 228.719 37.3587 228.719 36.4787V28.3187C228.719 27.4387 228.999 26.7187 229.559 26.1587C230.119 25.5987 230.839 25.3187 231.719 25.3187H241.079V5.51874C241.079 4.63874 241.359 3.91875 241.919 3.35875C242.559 2.79875 243.279 2.51875 244.079 2.51875H255.839C256.719 2.51875 257.439 2.79875 257.999 3.35875C258.559 3.91875 258.839 4.63874 258.839 5.51874V25.3187H273.839C274.639 25.3187 275.319 25.5987 275.879 26.1587C276.439 26.7187 276.719 27.4387 276.719 28.3187V36.4787C276.719 37.3587 276.439 38.0787 275.879 38.6387C275.319 39.1987 274.639 39.4787 273.839 39.4787H258.839V63.2387C258.839 66.2787 259.359 68.6787 260.399 70.4387C261.519 72.1187 263.439 72.9587 266.159 72.9587H274.919C275.719 72.9587 276.399 73.2387 276.959 73.7987C277.519 74.3587 277.799 75.0387 277.799 75.8387V84.7187C277.799 85.5987 277.519 86.3187 276.959 86.8787C276.399 87.4387 275.719 87.7188 274.919 87.7188H264.479ZM306.628 88.9188C302.388 88.9188 298.588 88.1188 295.228 86.5187C291.868 84.8387 289.188 82.5987 287.188 79.7988C285.188 76.9987 284.188 73.8787 284.188 70.4387C284.188 64.7587 286.468 60.2787 291.028 56.9987C295.668 53.7187 301.748 51.4787 309.268 50.2787L324.988 47.9987V45.8387C324.988 42.7187 324.268 40.3187 322.828 38.6387C321.388 36.9587 318.868 36.1187 315.268 36.1187C312.628 36.1187 310.508 36.6387 308.908 37.6787C307.308 38.7187 306.068 40.0787 305.188 41.7587C304.548 42.7987 303.628 43.3187 302.428 43.3187H291.028C290.148 43.3187 289.468 43.0787 288.988 42.5987C288.508 42.0387 288.308 41.3987 288.388 40.6787C288.388 39.3187 288.908 37.7187 289.948 35.8787C290.988 34.0387 292.588 32.2387 294.748 30.4787C296.908 28.6387 299.668 27.1187 303.028 25.9187C306.388 24.7187 310.508 24.1187 315.388 24.1187C320.428 24.1187 324.748 24.7187 328.348 25.9187C331.948 27.1187 334.828 28.7987 336.988 30.9587C339.148 33.1187 340.748 35.6387 341.788 38.5187C342.828 41.3187 343.348 44.3587 343.348 47.6387V84.7187C343.348 85.5987 343.068 86.3187 342.508 86.8787C341.948 87.4387 341.228 87.7188 340.348 87.7188H328.588C327.788 87.7188 327.108 87.4387 326.548 86.8787C325.988 86.3187 325.708 85.5987 325.708 84.7187V80.2787C324.668 81.7987 323.268 83.2387 321.508 84.5987C319.748 85.8787 317.628 86.9187 315.148 87.7188C312.748 88.5188 309.908 88.9188 306.628 88.9188ZM311.428 76.4387C314.068 76.4387 316.428 75.8787 318.508 74.7587C320.588 73.6387 322.228 71.9187 323.428 69.5987C324.628 67.2787 325.228 64.3587 325.228 60.8387V58.7987L314.068 60.5987C309.748 61.3187 306.588 62.3987 304.588 63.8387C302.588 65.2787 301.588 67.0387 301.588 69.1187C301.588 70.6387 302.028 71.9587 302.908 73.0787C303.868 74.1987 305.108 75.0387 306.628 75.5987C308.148 76.1587 309.748 76.4387 311.428 76.4387ZM360.397 59.3987C359.597 59.3987 358.917 59.1187 358.357 58.5587C357.797 57.9987 357.517 57.3187 357.517 56.5187V46.9187C357.517 46.1187 357.797 45.4387 358.357 44.8787C358.917 44.3187 359.597 44.0387 360.397 44.0387H397.717C398.517 44.0387 399.197 44.3187 399.757 44.8787C400.317 45.4387 400.597 46.1187 400.597 46.9187V56.5187C400.597 57.3187 400.317 57.9987 399.757 58.5587C399.197 59.1187 398.517 59.3987 397.717 59.3987H360.397ZM444.245 87.7188C439.285 87.7188 435.045 86.9187 431.525 85.3187C428.005 83.6387 425.325 81.0787 423.485 77.6387C421.725 74.1987 420.845 69.8787 420.845 64.6787V39.4787H411.485C410.605 39.4787 409.885 39.1987 409.325 38.6387C408.765 38.0787 408.485 37.3587 408.485 36.4787V28.3187C408.485 27.4387 408.765 26.7187 409.325 26.1587C409.885 25.5987 410.605 25.3187 411.485 25.3187H420.845V5.51874C420.845 4.63874 421.125 3.91875 421.685 3.35875C422.325 2.79875 423.045 2.51875 423.845 2.51875H435.605C436.485 2.51875 437.205 2.79875 437.765 3.35875C438.325 3.91875 438.605 4.63874 438.605 5.51874V25.3187H453.605C454.405 25.3187 455.085 25.5987 455.645 26.1587C456.205 26.7187 456.485 27.4387 456.485 28.3187V36.4787C456.485 37.3587 456.205 38.0787 455.645 38.6387C455.085 39.1987 454.405 39.4787 453.605 39.4787H438.605V63.2387C438.605 66.2787 439.125 68.6787 440.165 70.4387C441.285 72.1187 443.205 72.9587 445.925 72.9587H454.685C455.485 72.9587 456.165 73.2387 456.725 73.7987C457.285 74.3587 457.565 75.0387 457.565 75.8387V84.7187C457.565 85.5987 457.285 86.3187 456.725 86.8787C456.165 87.4387 455.485 87.7188 454.685 87.7188H444.245ZM495.874 88.9188C486.674 88.9188 479.354 86.3588 473.914 81.2387C468.554 76.1187 465.714 68.6787 465.394 58.9187C465.394 58.2787 465.394 57.4387 465.394 56.3987C465.394 55.2787 465.394 54.3987 465.394 53.7587C465.714 47.5987 467.114 42.3187 469.594 37.9187C472.074 33.4387 475.554 30.0387 480.034 27.7188C484.514 25.3187 489.754 24.1187 495.754 24.1187C502.474 24.1187 508.074 25.5187 512.554 28.3187C517.114 31.0387 520.514 34.7987 522.754 39.5987C525.074 44.3187 526.234 49.7587 526.234 55.9187V58.6787C526.234 59.4787 525.914 60.1587 525.274 60.7187C524.714 61.2787 524.034 61.5587 523.234 61.5587H483.994C483.994 61.6387 483.994 61.7987 483.994 62.0387C483.994 62.1987 483.994 62.3587 483.994 62.5187C484.074 65.0787 484.554 67.4387 485.434 69.5987C486.394 71.6787 487.714 73.3587 489.394 74.6387C491.154 75.9187 493.234 76.5587 495.634 76.5587C497.634 76.5587 499.274 76.2787 500.554 75.7187C501.834 75.1587 502.874 74.4787 503.674 73.6787C504.554 72.8787 505.194 72.1987 505.594 71.6387C506.314 70.8387 506.874 70.3587 507.274 70.1987C507.754 69.9587 508.474 69.8387 509.434 69.8387H521.914C522.714 69.8387 523.354 70.0787 523.834 70.5587C524.394 70.9587 524.634 71.5587 524.554 72.3587C524.474 73.6387 523.794 75.2387 522.514 77.1587C521.314 78.9987 519.514 80.8387 517.114 82.6787C514.714 84.4387 511.714 85.9187 508.114 87.1187C504.594 88.3188 500.514 88.9188 495.874 88.9188ZM483.994 50.6387H507.514V50.3987C507.514 47.5187 507.034 45.0387 506.074 42.9587C505.194 40.7987 503.874 39.1187 502.114 37.9187C500.354 36.7187 498.234 36.1187 495.754 36.1187C493.274 36.1187 491.154 36.7187 489.394 37.9187C487.634 39.1187 486.274 40.7987 485.314 42.9587C484.434 45.0387 483.994 47.5187 483.994 50.3987V50.6387ZM583.073 88.9188C578.833 88.9188 575.033 88.1188 571.673 86.5187C568.313 84.8387 565.633 82.5987 563.633 79.7988C561.633 76.9987 560.633 73.8787 560.633 70.4387C560.633 64.7587 562.913 60.2787 567.473 56.9987C572.113 53.7187 578.193 51.4787 585.713 50.2787L601.433 47.9987V45.8387C601.433 42.7187 600.713 40.3187 599.273 38.6387C597.833 36.9587 595.313 36.1187 591.713 36.1187C589.073 36.1187 586.953 36.6387 585.353 37.6787C583.753 38.7187 582.513 40.0787 581.633 41.7587C580.993 42.7987 580.073 43.3187 578.873 43.3187H567.473C566.593 43.3187 565.913 43.0787 565.433 42.5987C564.953 42.0387 564.753 41.3987 564.833 40.6787C564.833 39.3187 565.353 37.7187 566.393 35.8787C567.433 34.0387 569.033 32.2387 571.193 30.4787C573.353 28.6387 576.113 27.1187 579.473 25.9187C582.833 24.7187 586.953 24.1187 591.833 24.1187C596.873 24.1187 601.193 24.7187 604.793 25.9187C608.393 27.1187 611.273 28.7987 613.433 30.9587C615.593 33.1187 617.193 35.6387 618.233 38.5187C619.273 41.3187 619.793 44.3587 619.793 47.6387V84.7187C619.793 85.5987 619.513 86.3187 618.953 86.8787C618.393 87.4387 617.673 87.7188 616.793 87.7188H605.033C604.233 87.7188 603.553 87.4387 602.993 86.8787C602.433 86.3187 602.153 85.5987 602.153 84.7187V80.2787C601.113 81.7987 599.713 83.2387 597.953 84.5987C596.193 85.8787 594.073 86.9187 591.593 87.7188C589.193 88.5188 586.353 88.9188 583.073 88.9188ZM587.873 76.4387C590.513 76.4387 592.873 75.8787 594.953 74.7587C597.033 73.6387 598.673 71.9187 599.873 69.5987C601.073 67.2787 601.673 64.3587 601.673 60.8387V58.7987L590.513 60.5987C586.193 61.3187 583.033 62.3987 581.033 63.8387C579.033 65.2787 578.033 67.0387 578.033 69.1187C578.033 70.6387 578.473 71.9587 579.353 73.0787C580.313 74.1987 581.553 75.0387 583.073 75.5987C584.593 76.1587 586.193 76.4387 587.873 76.4387ZM662.883 88.9188C656.243 88.9188 650.683 87.8388 646.203 85.6787C641.723 83.4387 638.283 80.2787 635.883 76.1987C633.563 72.1187 632.283 67.3587 632.043 61.9187C631.963 60.3187 631.923 58.5187 631.923 56.5187C631.923 54.4387 631.963 52.6387 632.043 51.1187C632.283 45.5987 633.643 40.8387 636.123 36.8387C638.603 32.7587 642.083 29.6387 646.563 27.4787C651.043 25.2387 656.483 24.1187 662.883 24.1187C669.203 24.1187 674.603 25.2387 679.083 27.4787C683.563 29.6387 687.043 32.7587 689.523 36.8387C692.003 40.8387 693.363 45.5987 693.603 51.1187C693.763 52.6387 693.843 54.4387 693.843 56.5187C693.843 58.5187 693.763 60.3187 693.603 61.9187C693.363 67.3587 692.043 72.1187 689.643 76.1987C687.323 80.2787 683.923 83.4387 679.443 85.6787C674.963 87.8388 669.443 88.9188 662.883 88.9188ZM662.883 75.7187C666.803 75.7187 669.763 74.5187 671.763 72.1187C673.763 69.6387 674.843 66.0387 675.003 61.3187C675.083 60.1187 675.123 58.5187 675.123 56.5187C675.123 54.5187 675.083 52.9187 675.003 51.7187C674.843 47.0787 673.763 43.5187 671.763 41.0387C669.763 38.5587 666.803 37.3187 662.883 37.3187C658.963 37.3187 655.963 38.5587 653.883 41.0387C651.883 43.5187 650.803 47.0787 650.643 51.7187C650.563 52.9187 650.523 54.5187 650.523 56.5187C650.523 58.5187 650.563 60.1187 650.643 61.3187C650.803 66.0387 651.883 69.6387 653.883 72.1187C655.963 74.5187 658.963 75.7187 662.883 75.7187ZM735.757 87.7188C734.957 87.7188 734.277 87.4387 733.717 86.8787C733.157 86.3187 732.877 85.5987 732.877 84.7187V28.3187C732.877 27.4387 733.157 26.7187 733.717 26.1587C734.277 25.5987 734.957 25.3187 735.757 25.3187H746.917C747.717 25.3187 748.397 25.5987 748.957 26.1587C749.597 26.7187 749.917 27.4387 749.917 28.3187V32.3987C751.517 30.1587 753.717 28.2387 756.517 26.6387C759.397 25.0387 762.797 24.1987 766.717 24.1187C775.997 23.9587 782.357 27.4787 785.797 34.6787C787.637 31.5587 790.277 29.0387 793.717 27.1188C797.237 25.1187 801.077 24.1187 805.237 24.1187C809.397 24.1187 813.157 25.0787 816.517 26.9987C819.877 28.8387 822.517 31.7187 824.437 35.6387C826.437 39.4787 827.437 44.4387 827.437 50.5187V84.7187C827.437 85.5987 827.157 86.3187 826.597 86.8787C826.037 87.4387 825.357 87.7188 824.557 87.7188H812.677C811.877 87.7188 811.197 87.4387 810.637 86.8787C810.077 86.3187 809.797 85.5987 809.797 84.7187V51.4787C809.797 48.1987 809.317 45.6387 808.357 43.7987C807.397 41.8787 806.117 40.5187 804.517 39.7187C802.997 38.9187 801.277 38.5187 799.357 38.5187C797.677 38.5187 796.037 38.9187 794.437 39.7187C792.917 40.5187 791.637 41.8787 790.597 43.7987C789.637 45.6387 789.157 48.1987 789.157 51.4787V84.7187C789.157 85.5987 788.877 86.3187 788.317 86.8787C787.757 87.4387 787.037 87.7188 786.157 87.7188H774.397C773.517 87.7188 772.797 87.4387 772.237 86.8787C771.677 86.3187 771.397 85.5987 771.397 84.7187V51.4787C771.397 48.1987 770.917 45.6387 769.957 43.7987C768.997 41.8787 767.717 40.5187 766.117 39.7187C764.597 38.9187 762.917 38.5187 761.077 38.5187C759.397 38.5187 757.757 38.9587 756.157 39.8387C754.557 40.6387 753.237 41.9587 752.197 43.7987C751.237 45.6387 750.757 48.1587 750.757 51.3587V84.7187C750.757 85.5987 750.477 86.3187 749.917 86.8787C749.357 87.4387 748.677 87.7188 747.877 87.7188H735.757ZM870.539 88.9188C863.899 88.9188 858.339 87.8388 853.859 85.6787C849.379 83.4387 845.939 80.2787 843.539 76.1987C841.219 72.1187 839.939 67.3587 839.699 61.9187C839.619 60.3187 839.579 58.5187 839.579 56.5187C839.579 54.4387 839.619 52.6387 839.699 51.1187C839.939 45.5987 841.299 40.8387 843.779 36.8387C846.259 32.7587 849.739 29.6387 854.219 27.4787C858.699 25.2387 864.139 24.1187 870.539 24.1187C876.859 24.1187 882.259 25.2387 886.739 27.4787C891.219 29.6387 894.699 32.7587 897.179 36.8387C899.659 40.8387 901.019 45.5987 901.259 51.1187C901.419 52.6387 901.499 54.4387 901.499 56.5187C901.499 58.5187 901.419 60.3187 901.259 61.9187C901.019 67.3587 899.699 72.1187 897.299 76.1987C894.979 80.2787 891.579 83.4387 887.099 85.6787C882.619 87.8388 877.099 88.9188 870.539 88.9188ZM870.539 75.7187C874.459 75.7187 877.419 74.5187 879.419 72.1187C881.419 69.6387 882.499 66.0387 882.659 61.3187C882.739 60.1187 882.779 58.5187 882.779 56.5187C882.779 54.5187 882.739 52.9187 882.659 51.7187C882.499 47.0787 881.419 43.5187 879.419 41.0387C877.419 38.5587 874.459 37.3187 870.539 37.3187C866.619 37.3187 863.619 38.5587 861.539 41.0387C859.539 43.5187 858.459 47.0787 858.299 51.7187C858.219 52.9187 858.179 54.5187 858.179 56.5187C858.179 58.5187 858.219 60.1187 858.299 61.3187C858.459 66.0387 859.539 69.6387 861.539 72.1187C863.619 74.5187 866.619 75.7187 870.539 75.7187ZM933.786 87.7188C932.586 87.7188 931.666 87.4387 931.026 86.8787C930.466 86.2387 929.986 85.5187 929.586 84.7187L907.026 29.0387C906.866 28.7187 906.786 28.3587 906.786 27.9587C906.786 27.2387 907.026 26.6387 907.506 26.1587C908.066 25.5987 908.706 25.3187 909.426 25.3187H921.066C922.106 25.3187 922.866 25.5987 923.346 26.1587C923.906 26.7187 924.266 27.2387 924.426 27.7188L939.186 67.3187L953.946 27.7188C954.186 27.2387 954.546 26.7187 955.026 26.1587C955.586 25.5987 956.346 25.3187 957.306 25.3187H968.946C969.666 25.3187 970.266 25.5987 970.746 26.1587C971.306 26.6387 971.586 27.2387 971.586 27.9587C971.586 28.3587 971.546 28.7187 971.466 29.0387L948.786 84.7187C948.466 85.5187 947.986 86.2387 947.346 86.8787C946.706 87.4387 945.786 87.7188 944.586 87.7188H933.786ZM984.664 87.7188C983.864 87.7188 983.184 87.4387 982.624 86.8787C982.064 86.3187 981.784 85.5987 981.784 84.7187V28.3187C981.784 27.4387 982.064 26.7187 982.624 26.1587C983.184 25.5987 983.864 25.3187 984.664 25.3187H996.664C997.544 25.3187 998.264 25.5987 998.824 26.1587C999.384 26.7187 999.664 27.4387 999.664 28.3187V84.7187C999.664 85.5987 999.384 86.3187 998.824 86.8787C998.264 87.4387 997.544 87.7188 996.664 87.7188H984.664ZM984.304 15.7187C983.504 15.7187 982.824 15.4387 982.264 14.8787C981.704 14.3187 981.424 13.5987 981.424 12.7188V3.11874C981.424 2.23875 981.704 1.51875 982.264 0.958744C982.824 0.318748 983.504 -0.00125074 984.304 -0.00125074H996.904C997.784 -0.00125074 998.504 0.318748 999.064 0.958744C999.704 1.51875 1000.02 2.23875 1000.02 3.11874V12.7188C1000.02 13.5987 999.704 14.3187 999.064 14.8787C998.504 15.4387 997.784 15.7187 996.904 15.7187H984.304ZM1017.59 87.7188C1016.79 87.7188 1016.11 87.4387 1015.55 86.8787C1014.99 86.3187 1014.71 85.5987 1014.71 84.7187V28.3187C1014.71 27.4387 1014.99 26.7187 1015.55 26.1587C1016.11 25.5987 1016.79 25.3187 1017.59 25.3187H1028.75C1029.55 25.3187 1030.23 25.5987 1030.79 26.1587C1031.43 26.7187 1031.75 27.4387 1031.75 28.3187V32.3987C1033.35 30.1587 1035.55 28.2387 1038.35 26.6387C1041.23 25.0387 1044.63 24.1987 1048.55 24.1187C1057.83 23.9587 1064.19 27.4787 1067.63 34.6787C1069.47 31.5587 1072.11 29.0387 1075.55 27.1188C1079.07 25.1187 1082.91 24.1187 1087.07 24.1187C1091.23 24.1187 1094.99 25.0787 1098.35 26.9987C1101.71 28.8387 1104.35 31.7187 1106.27 35.6387C1108.27 39.4787 1109.27 44.4387 1109.27 50.5187V84.7187C1109.27 85.5987 1108.99 86.3187 1108.43 86.8787C1107.87 87.4387 1107.19 87.7188 1106.39 87.7188H1094.51C1093.71 87.7188 1093.03 87.4387 1092.47 86.8787C1091.91 86.3187 1091.63 85.5987 1091.63 84.7187V51.4787C1091.63 48.1987 1091.15 45.6387 1090.19 43.7987C1089.23 41.8787 1087.95 40.5187 1086.35 39.7187C1084.83 38.9187 1083.11 38.5187 1081.19 38.5187C1079.51 38.5187 1077.87 38.9187 1076.27 39.7187C1074.75 40.5187 1073.47 41.8787 1072.43 43.7987C1071.47 45.6387 1070.99 48.1987 1070.99 51.4787V84.7187C1070.99 85.5987 1070.71 86.3187 1070.15 86.8787C1069.59 87.4387 1068.87 87.7188 1067.99 87.7188H1056.23C1055.35 87.7188 1054.63 87.4387 1054.07 86.8787C1053.51 86.3187 1053.23 85.5987 1053.23 84.7187V51.4787C1053.23 48.1987 1052.75 45.6387 1051.79 43.7987C1050.83 41.8787 1049.55 40.5187 1047.95 39.7187C1046.43 38.9187 1044.75 38.5187 1042.91 38.5187C1041.23 38.5187 1039.59 38.9587 1037.99 39.8387C1036.39 40.6387 1035.07 41.9587 1034.03 43.7987C1033.07 45.6387 1032.59 48.1587 1032.59 51.3587V84.7187C1032.59 85.5987 1032.31 86.3187 1031.75 86.8787C1031.19 87.4387 1030.51 87.7188 1029.71 87.7188H1017.59ZM1151.65 88.9188C1142.45 88.9188 1135.13 86.3588 1129.69 81.2387C1124.33 76.1187 1121.49 68.6787 1121.17 58.9187C1121.17 58.2787 1121.17 57.4387 1121.17 56.3987C1121.17 55.2787 1121.17 54.3987 1121.17 53.7587C1121.49 47.5987 1122.89 42.3187 1125.37 37.9187C1127.85 33.4387 1131.33 30.0387 1135.81 27.7188C1140.29 25.3187 1145.53 24.1187 1151.53 24.1187C1158.25 24.1187 1163.85 25.5187 1168.33 28.3187C1172.89 31.0387 1176.29 34.7987 1178.53 39.5987C1180.85 44.3187 1182.01 49.7587 1182.01 55.9187V58.6787C1182.01 59.4787 1181.69 60.1587 1181.05 60.7187C1180.49 61.2787 1179.81 61.5587 1179.01 61.5587H1139.77C1139.77 61.6387 1139.77 61.7987 1139.77 62.0387C1139.77 62.1987 1139.77 62.3587 1139.77 62.5187C1139.85 65.0787 1140.33 67.4387 1141.21 69.5987C1142.17 71.6787 1143.49 73.3587 1145.17 74.6387C1146.93 75.9187 1149.01 76.5587 1151.41 76.5587C1153.41 76.5587 1155.05 76.2787 1156.33 75.7187C1157.61 75.1587 1158.65 74.4787 1159.45 73.6787C1160.33 72.8787 1160.97 72.1987 1161.37 71.6387C1162.09 70.8387 1162.65 70.3587 1163.05 70.1987C1163.53 69.9587 1164.25 69.8387 1165.21 69.8387H1177.69C1178.49 69.8387 1179.13 70.0787 1179.61 70.5587C1180.17 70.9587 1180.41 71.5587 1180.33 72.3587C1180.25 73.6387 1179.57 75.2387 1178.29 77.1587C1177.09 78.9987 1175.29 80.8387 1172.89 82.6787C1170.49 84.4387 1167.49 85.9187 1163.89 87.1187C1160.37 88.3188 1156.29 88.9188 1151.65 88.9188ZM1139.77 50.6387H1163.29V50.3987C1163.29 47.5187 1162.81 45.0387 1161.85 42.9587C1160.97 40.7987 1159.65 39.1187 1157.89 37.9187C1156.13 36.7187 1154.01 36.1187 1151.53 36.1187C1149.05 36.1187 1146.93 36.7187 1145.17 37.9187C1143.41 39.1187 1142.05 40.7987 1141.09 42.9587C1140.21 45.0387 1139.77 47.5187 1139.77 50.3987V50.6387ZM1196.89 87.7188C1196.09 87.7188 1195.41 87.4387 1194.85 86.8787C1194.29 86.3187 1194.01 85.5987 1194.01 84.7187V28.3187C1194.01 27.4387 1194.29 26.7187 1194.85 26.1587C1195.41 25.5987 1196.09 25.3187 1196.89 25.3187H1208.65C1209.53 25.3187 1210.25 25.5987 1210.81 26.1587C1211.37 26.7187 1211.65 27.4387 1211.65 28.3187V32.9987C1213.73 30.4387 1216.41 28.3187 1219.69 26.6387C1222.97 24.9587 1226.97 24.1187 1231.69 24.1187C1236.41 24.1187 1240.53 25.1987 1244.05 27.3587C1247.65 29.4387 1250.45 32.5187 1252.45 36.5987C1254.53 40.5987 1255.57 45.4787 1255.57 51.2387V84.7187C1255.57 85.5987 1255.25 86.3187 1254.61 86.8787C1254.05 87.4387 1253.37 87.7188 1252.57 87.7188H1239.85C1238.97 87.7188 1238.25 87.4387 1237.69 86.8787C1237.13 86.3187 1236.85 85.5987 1236.85 84.7187V51.9587C1236.85 47.7187 1235.81 44.4387 1233.73 42.1187C1231.73 39.7187 1228.77 38.5187 1224.85 38.5187C1221.09 38.5187 1218.09 39.7187 1215.85 42.1187C1213.61 44.4387 1212.49 47.7187 1212.49 51.9587V84.7187C1212.49 85.5987 1212.21 86.3187 1211.65 86.8787C1211.09 87.4387 1210.41 87.7188 1209.61 87.7188H1196.89ZM1299.24 87.7188C1294.28 87.7188 1290.04 86.9187 1286.52 85.3187C1283 83.6387 1280.32 81.0787 1278.48 77.6387C1276.72 74.1987 1275.84 69.8787 1275.84 64.6787V39.4787H1266.48C1265.6 39.4787 1264.88 39.1987 1264.32 38.6387C1263.76 38.0787 1263.48 37.3587 1263.48 36.4787V28.3187C1263.48 27.4387 1263.76 26.7187 1264.32 26.1587C1264.88 25.5987 1265.6 25.3187 1266.48 25.3187H1275.84V5.51874C1275.84 4.63874 1276.12 3.91875 1276.68 3.35875C1277.32 2.79875 1278.04 2.51875 1278.84 2.51875H1290.6C1291.48 2.51875 1292.2 2.79875 1292.76 3.35875C1293.32 3.91875 1293.6 4.63874 1293.6 5.51874V25.3187H1308.6C1309.4 25.3187 1310.08 25.5987 1310.64 26.1587C1311.2 26.7187 1311.48 27.4387 1311.48 28.3187V36.4787C1311.48 37.3587 1311.2 38.0787 1310.64 38.6387C1310.08 39.1987 1309.4 39.4787 1308.6 39.4787H1293.6V63.2387C1293.6 66.2787 1294.12 68.6787 1295.16 70.4387C1296.28 72.1187 1298.2 72.9587 1300.92 72.9587H1309.68C1310.48 72.9587 1311.16 73.2387 1311.72 73.7987C1312.28 74.3587 1312.56 75.0387 1312.56 75.8387V84.7187C1312.56 85.5987 1312.28 86.3187 1311.72 86.8787C1311.16 87.4387 1310.48 87.7188 1309.68 87.7188H1299.24ZM1351.59 88.9188C1344.95 88.9188 1339.39 87.8388 1334.91 85.6787C1330.43 83.4387 1326.99 80.2787 1324.59 76.1987C1322.27 72.1187 1320.99 67.3587 1320.75 61.9187C1320.67 60.3187 1320.63 58.5187 1320.63 56.5187C1320.63 54.4387 1320.67 52.6387 1320.75 51.1187C1320.99 45.5987 1322.35 40.8387 1324.83 36.8387C1327.31 32.7587 1330.79 29.6387 1335.27 27.4787C1339.75 25.2387 1345.19 24.1187 1351.59 24.1187C1357.91 24.1187 1363.31 25.2387 1367.79 27.4787C1372.27 29.6387 1375.75 32.7587 1378.23 36.8387C1380.71 40.8387 1382.07 45.5987 1382.31 51.1187C1382.47 52.6387 1382.55 54.4387 1382.55 56.5187C1382.55 58.5187 1382.47 60.3187 1382.31 61.9187C1382.07 67.3587 1380.75 72.1187 1378.35 76.1987C1376.03 80.2787 1372.63 83.4387 1368.15 85.6787C1363.67 87.8388 1358.15 88.9188 1351.59 88.9188ZM1351.59 75.7187C1355.51 75.7187 1358.47 74.5187 1360.47 72.1187C1362.47 69.6387 1363.55 66.0387 1363.71 61.3187C1363.79 60.1187 1363.83 58.5187 1363.83 56.5187C1363.83 54.5187 1363.79 52.9187 1363.71 51.7187C1363.55 47.0787 1362.47 43.5187 1360.47 41.0387C1358.47 38.5587 1355.51 37.3187 1351.59 37.3187C1347.67 37.3187 1344.67 38.5587 1342.59 41.0387C1340.59 43.5187 1339.51 47.0787 1339.35 51.7187C1339.27 52.9187 1339.23 54.5187 1339.23 56.5187C1339.23 58.5187 1339.27 60.1187 1339.35 61.3187C1339.51 66.0387 1340.59 69.6387 1342.59 72.1187C1344.67 74.5187 1347.67 75.7187 1351.59 75.7187ZM1396.68 87.7188C1395.8 87.7188 1395.08 87.4387 1394.52 86.8787C1393.96 86.3187 1393.68 85.5987 1393.68 84.7187V71.2787C1393.68 70.3987 1393.96 69.6787 1394.52 69.1187C1395.08 68.5587 1395.8 68.2787 1396.68 68.2787H1410.12C1411 68.2787 1411.72 68.5587 1412.28 69.1187C1412.84 69.6787 1413.12 70.3987 1413.12 71.2787V84.7187C1413.12 85.5987 1412.84 86.3187 1412.28 86.8787C1411.72 87.4387 1411 87.7188 1410.12 87.7188H1396.68ZM29.9999 202.719C28.7199 202.719 27.6799 202.399 26.8799 201.759C26.1599 201.039 25.6399 200.199 25.3199 199.239L0.119883 122.319C0.0398829 121.919 -0.000117123 121.559 -0.000117123 121.239C-0.000117123 120.599 0.239883 120.039 0.719883 119.559C1.19988 118.999 1.79988 118.719 2.51988 118.719H15.1199C16.3199 118.719 17.2399 119.079 17.8799 119.799C18.5999 120.439 19.0399 121.039 19.1999 121.599L37.9199 180.279L56.5199 121.599C56.7599 121.039 57.1999 120.439 57.8399 119.799C58.4799 119.079 59.3999 118.719 60.5999 118.719H73.1999C73.9199 118.719 74.5199 118.999 74.9999 119.559C75.4799 120.039 75.7199 120.599 75.7199 121.239C75.7199 121.559 75.6799 121.919 75.5999 122.319L50.3999 199.239C50.1599 200.199 49.6399 201.039 48.8399 201.759C48.1199 202.399 47.0799 202.719 45.7199 202.719H29.9999ZM97.6827 203.919C93.4427 203.919 89.6427 203.119 86.2827 201.519C82.9227 199.839 80.2427 197.599 78.2427 194.799C76.2427 191.999 75.2427 188.879 75.2427 185.439C75.2427 179.759 77.5227 175.279 82.0827 171.999C86.7227 168.719 92.8027 166.479 100.323 165.279L116.043 162.999V160.839C116.043 157.719 115.323 155.319 113.883 153.639C112.443 151.959 109.923 151.119 106.323 151.119C103.683 151.119 101.563 151.639 99.9627 152.679C98.3627 153.719 97.1227 155.079 96.2427 156.759C95.6027 157.799 94.6827 158.319 93.4827 158.319H82.0827C81.2027 158.319 80.5227 158.079 80.0427 157.599C79.5627 157.039 79.3627 156.399 79.4427 155.679C79.4427 154.319 79.9627 152.719 81.0027 150.879C82.0427 149.039 83.6427 147.239 85.8027 145.479C87.9627 143.639 90.7227 142.119 94.0827 140.919C97.4427 139.719 101.563 139.119 106.443 139.119C111.483 139.119 115.803 139.719 119.403 140.919C123.003 142.119 125.883 143.799 128.043 145.959C130.203 148.119 131.803 150.639 132.843 153.519C133.883 156.319 134.403 159.359 134.403 162.639V199.719C134.403 200.599 134.123 201.319 133.563 201.879C133.003 202.439 132.283 202.719 131.403 202.719H119.643C118.843 202.719 118.163 202.439 117.603 201.879C117.043 201.319 116.763 200.599 116.763 199.719V195.279C115.723 196.799 114.323 198.239 112.563 199.599C110.803 200.879 108.683 201.919 106.203 202.719C103.803 203.519 100.963 203.919 97.6827 203.919ZM102.483 191.439C105.123 191.439 107.483 190.879 109.563 189.759C111.643 188.639 113.283 186.919 114.483 184.599C115.683 182.279 116.283 179.359 116.283 175.839V173.799L105.123 175.599C100.803 176.319 97.6427 177.399 95.6427 178.839C93.6427 180.279 92.6427 182.039 92.6427 184.119C92.6427 185.639 93.0827 186.959 93.9627 188.079C94.9227 189.199 96.1627 190.039 97.6827 190.599C99.2027 191.159 100.803 191.439 102.483 191.439ZM151.812 202.719C151.012 202.719 150.332 202.439 149.772 201.879C149.212 201.319 148.932 200.599 148.932 199.719V143.319C148.932 142.439 149.212 141.719 149.772 141.159C150.332 140.599 151.012 140.319 151.812 140.319H162.972C163.772 140.319 164.452 140.599 165.012 141.159C165.652 141.719 165.972 142.439 165.972 143.319V147.399C167.572 145.159 169.772 143.239 172.572 141.639C175.452 140.039 178.852 139.199 182.772 139.119C192.052 138.959 198.412 142.479 201.852 149.679C203.692 146.559 206.332 144.039 209.772 142.119C213.292 140.119 217.132 139.119 221.292 139.119C225.452 139.119 229.212 140.079 232.572 141.999C235.932 143.839 238.572 146.719 240.492 150.639C242.492 154.479 243.492 159.439 243.492 165.519V199.719C243.492 200.599 243.212 201.319 242.652 201.879C242.092 202.439 241.412 202.719 240.612 202.719H228.732C227.932 202.719 227.252 202.439 226.692 201.879C226.132 201.319 225.852 200.599 225.852 199.719V166.479C225.852 163.199 225.372 160.639 224.412 158.799C223.452 156.879 222.172 155.519 220.572 154.719C219.052 153.919 217.332 153.519 215.412 153.519C213.732 153.519 212.092 153.919 210.492 154.719C208.972 155.519 207.692 156.879 206.652 158.799C205.692 160.639 205.212 163.199 205.212 166.479V199.719C205.212 200.599 204.932 201.319 204.372 201.879C203.812 202.439 203.092 202.719 202.212 202.719H190.452C189.572 202.719 188.852 202.439 188.292 201.879C187.732 201.319 187.452 200.599 187.452 199.719V166.479C187.452 163.199 186.972 160.639 186.012 158.799C185.052 156.879 183.772 155.519 182.172 154.719C180.652 153.919 178.972 153.519 177.132 153.519C175.452 153.519 173.812 153.959 172.212 154.839C170.612 155.639 169.292 156.959 168.252 158.799C167.292 160.639 166.812 163.159 166.812 166.359V199.719C166.812 200.599 166.532 201.319 165.972 201.879C165.412 202.439 164.732 202.719 163.932 202.719H151.812ZM286.594 203.919C279.954 203.919 274.394 202.839 269.914 200.679C265.434 198.439 261.994 195.279 259.594 191.199C257.274 187.119 255.994 182.359 255.754 176.919C255.674 175.319 255.634 173.519 255.634 171.519C255.634 169.439 255.674 167.639 255.754 166.119C255.994 160.599 257.354 155.839 259.834 151.839C262.314 147.759 265.794 144.639 270.274 142.479C274.754 140.239 280.194 139.119 286.594 139.119C292.914 139.119 298.314 140.239 302.794 142.479C307.274 144.639 310.754 147.759 313.234 151.839C315.714 155.839 317.074 160.599 317.314 166.119C317.474 167.639 317.554 169.439 317.554 171.519C317.554 173.519 317.474 175.319 317.314 176.919C317.074 182.359 315.754 187.119 313.354 191.199C311.034 195.279 307.634 198.439 303.154 200.679C298.674 202.839 293.154 203.919 286.594 203.919ZM286.594 190.719C290.514 190.719 293.474 189.519 295.474 187.119C297.474 184.639 298.554 181.039 298.714 176.319C298.794 175.119 298.834 173.519 298.834 171.519C298.834 169.519 298.794 167.919 298.714 166.719C298.554 162.079 297.474 158.519 295.474 156.039C293.474 153.559 290.514 152.319 286.594 152.319C282.674 152.319 279.674 153.559 277.594 156.039C275.594 158.519 274.514 162.079 274.354 166.719C274.274 167.919 274.234 169.519 274.234 171.519C274.234 173.519 274.274 175.119 274.354 176.319C274.514 181.039 275.594 184.639 277.594 187.119C279.674 189.519 282.674 190.719 286.594 190.719ZM354.704 203.919C349.744 203.919 345.464 203.359 341.864 202.239C338.344 201.039 335.464 199.599 333.224 197.919C331.064 196.239 329.424 194.559 328.304 192.879C327.264 191.119 326.704 189.639 326.624 188.439C326.544 187.559 326.824 186.839 327.464 186.279C328.104 185.719 328.744 185.439 329.384 185.439H341.024C341.264 185.439 341.504 185.479 341.744 185.559C341.984 185.639 342.224 185.839 342.464 186.159C343.504 186.879 344.584 187.719 345.704 188.679C346.824 189.559 348.104 190.319 349.544 190.959C351.064 191.599 352.944 191.919 355.184 191.919C357.824 191.919 360.064 191.399 361.904 190.359C363.744 189.239 364.664 187.679 364.664 185.679C364.664 184.239 364.224 183.039 363.344 182.079C362.544 181.119 360.984 180.239 358.664 179.439C356.344 178.639 352.904 177.759 348.344 176.799C344.024 175.839 340.344 174.559 337.304 172.959C334.264 171.359 331.984 169.359 330.464 166.959C328.944 164.479 328.184 161.519 328.184 158.079C328.184 154.959 329.144 151.959 331.064 149.079C333.064 146.199 335.984 143.839 339.824 141.999C343.664 140.079 348.464 139.119 354.224 139.119C358.624 139.119 362.464 139.679 365.744 140.799C369.104 141.839 371.904 143.199 374.144 144.879C376.384 146.479 378.064 148.159 379.184 149.919C380.384 151.599 381.024 153.079 381.104 154.359C381.184 155.159 380.944 155.839 380.384 156.399C379.824 156.959 379.184 157.239 378.464 157.239H367.784C367.384 157.239 367.024 157.199 366.704 157.119C366.384 156.959 366.104 156.759 365.864 156.519C364.904 155.879 363.904 155.159 362.864 154.359C361.904 153.479 360.744 152.719 359.384 152.079C358.024 151.439 356.264 151.119 354.104 151.119C351.464 151.119 349.424 151.719 347.984 152.919C346.624 154.039 345.944 155.479 345.944 157.239C345.944 158.359 346.304 159.399 347.024 160.359C347.744 161.319 349.224 162.199 351.464 162.999C353.704 163.799 357.104 164.639 361.664 165.519C367.104 166.479 371.424 167.919 374.624 169.839C377.824 171.759 380.104 173.999 381.464 176.559C382.904 179.039 383.624 181.719 383.624 184.599C383.624 188.359 382.504 191.719 380.264 194.679C378.024 197.559 374.744 199.839 370.424 201.519C366.184 203.119 360.944 203.919 354.704 203.919ZM424.507 202.719C423.707 202.719 423.027 202.439 422.467 201.879C421.907 201.319 421.627 200.599 421.627 199.719V143.319C421.627 142.439 421.907 141.719 422.467 141.159C423.027 140.599 423.707 140.319 424.507 140.319H436.507C437.387 140.319 438.107 140.599 438.667 141.159C439.227 141.719 439.507 142.439 439.507 143.319V199.719C439.507 200.599 439.227 201.319 438.667 201.879C438.107 202.439 437.387 202.719 436.507 202.719H424.507ZM424.147 130.719C423.347 130.719 422.667 130.439 422.107 129.879C421.547 129.319 421.267 128.599 421.267 127.719V118.119C421.267 117.239 421.547 116.519 422.107 115.959C422.667 115.319 423.347 114.999 424.147 114.999H436.747C437.627 114.999 438.347 115.319 438.907 115.959C439.547 116.519 439.867 117.239 439.867 118.119V127.719C439.867 128.599 439.547 129.319 438.907 129.879C438.347 130.439 437.627 130.719 436.747 130.719H424.147ZM457.437 202.719C456.637 202.719 455.957 202.439 455.397 201.879C454.837 201.319 454.557 200.599 454.557 199.719V143.319C454.557 142.439 454.837 141.719 455.397 141.159C455.957 140.599 456.637 140.319 457.437 140.319H468.597C469.397 140.319 470.077 140.599 470.637 141.159C471.277 141.719 471.597 142.439 471.597 143.319V147.399C473.197 145.159 475.397 143.239 478.197 141.639C481.077 140.039 484.477 139.199 488.397 139.119C497.677 138.959 504.037 142.479 507.477 149.679C509.317 146.559 511.957 144.039 515.397 142.119C518.917 140.119 522.757 139.119 526.917 139.119C531.077 139.119 534.837 140.079 538.197 141.999C541.557 143.839 544.197 146.719 546.117 150.639C548.117 154.479 549.117 159.439 549.117 165.519V199.719C549.117 200.599 548.837 201.319 548.277 201.879C547.717 202.439 547.037 202.719 546.237 202.719H534.357C533.557 202.719 532.877 202.439 532.317 201.879C531.757 201.319 531.477 200.599 531.477 199.719V166.479C531.477 163.199 530.997 160.639 530.037 158.799C529.077 156.879 527.797 155.519 526.197 154.719C524.677 153.919 522.957 153.519 521.037 153.519C519.357 153.519 517.717 153.919 516.117 154.719C514.597 155.519 513.317 156.879 512.277 158.799C511.317 160.639 510.837 163.199 510.837 166.479V199.719C510.837 200.599 510.557 201.319 509.997 201.879C509.437 202.439 508.717 202.719 507.837 202.719H496.077C495.197 202.719 494.477 202.439 493.917 201.879C493.357 201.319 493.077 200.599 493.077 199.719V166.479C493.077 163.199 492.597 160.639 491.637 158.799C490.677 156.879 489.397 155.519 487.797 154.719C486.277 153.919 484.597 153.519 482.757 153.519C481.077 153.519 479.437 153.959 477.837 154.839C476.237 155.639 474.917 156.959 473.877 158.799C472.917 160.639 472.437 163.159 472.437 166.359V199.719C472.437 200.599 472.157 201.319 471.597 201.879C471.037 202.439 470.357 202.719 469.557 202.719H457.437ZM566.659 225.519C565.779 225.519 565.059 225.239 564.499 224.679C563.939 224.119 563.659 223.399 563.659 222.519V143.319C563.659 142.439 563.939 141.719 564.499 141.159C565.059 140.599 565.779 140.319 566.659 140.319H578.059C578.939 140.319 579.659 140.599 580.219 141.159C580.779 141.719 581.059 142.439 581.059 143.319V147.879C582.979 145.319 585.459 143.239 588.499 141.639C591.539 139.959 595.339 139.119 599.899 139.119C604.059 139.119 607.659 139.799 610.699 141.159C613.819 142.439 616.419 144.319 618.499 146.799C620.659 149.199 622.299 152.119 623.419 155.559C624.619 158.999 625.299 162.879 625.459 167.199C625.539 168.719 625.579 170.159 625.579 171.519C625.579 172.879 625.539 174.359 625.459 175.959C625.379 180.039 624.739 183.799 623.539 187.239C622.419 190.679 620.779 193.639 618.619 196.119C616.459 198.599 613.819 200.519 610.699 201.879C607.659 203.239 604.059 203.919 599.899 203.919C595.819 203.919 592.259 203.199 589.219 201.759C586.259 200.239 583.819 198.199 581.899 195.639V222.519C581.899 223.399 581.619 224.119 581.059 224.679C580.499 225.239 579.819 225.519 579.019 225.519H566.659ZM594.499 189.519C597.539 189.519 599.939 188.879 601.699 187.599C603.459 186.239 604.699 184.479 605.419 182.319C606.219 180.159 606.699 177.799 606.859 175.239C607.019 172.759 607.019 170.279 606.859 167.799C606.699 165.239 606.219 162.879 605.419 160.719C604.699 158.559 603.459 156.839 601.699 155.559C599.939 154.199 597.539 153.519 594.499 153.519C591.539 153.519 589.139 154.199 587.299 155.559C585.459 156.919 584.139 158.639 583.339 160.719C582.539 162.799 582.059 165.039 581.899 167.439C581.819 168.879 581.779 170.359 581.779 171.879C581.779 173.399 581.819 174.919 581.899 176.439C581.979 178.679 582.459 180.799 583.339 182.799C584.299 184.719 585.659 186.319 587.419 187.599C589.259 188.879 591.619 189.519 594.499 189.519ZM656.667 203.919C652.427 203.919 648.627 203.119 645.267 201.519C641.907 199.839 639.227 197.599 637.227 194.799C635.227 191.999 634.227 188.879 634.227 185.439C634.227 179.759 636.507 175.279 641.067 171.999C645.707 168.719 651.787 166.479 659.307 165.279L675.027 162.999V160.839C675.027 157.719 674.307 155.319 672.867 153.639C671.427 151.959 668.907 151.119 665.307 151.119C662.667 151.119 660.547 151.639 658.947 152.679C657.347 153.719 656.107 155.079 655.227 156.759C654.587 157.799 653.667 158.319 652.467 158.319H641.067C640.187 158.319 639.507 158.079 639.027 157.599C638.547 157.039 638.347 156.399 638.427 155.679C638.427 154.319 638.947 152.719 639.987 150.879C641.027 149.039 642.627 147.239 644.787 145.479C646.947 143.639 649.707 142.119 653.067 140.919C656.427 139.719 660.547 139.119 665.427 139.119C670.467 139.119 674.787 139.719 678.387 140.919C681.987 142.119 684.867 143.799 687.027 145.959C689.187 148.119 690.787 150.639 691.827 153.519C692.867 156.319 693.387 159.359 693.387 162.639V199.719C693.387 200.599 693.107 201.319 692.547 201.879C691.987 202.439 691.267 202.719 690.387 202.719H678.627C677.827 202.719 677.147 202.439 676.587 201.879C676.027 201.319 675.747 200.599 675.747 199.719V195.279C674.707 196.799 673.307 198.239 671.547 199.599C669.787 200.879 667.667 201.919 665.187 202.719C662.787 203.519 659.947 203.919 656.667 203.919ZM661.467 191.439C664.107 191.439 666.467 190.879 668.547 189.759C670.627 188.639 672.267 186.919 673.467 184.599C674.667 182.279 675.267 179.359 675.267 175.839V173.799L664.107 175.599C659.787 176.319 656.627 177.399 654.627 178.839C652.627 180.279 651.627 182.039 651.627 184.119C651.627 185.639 652.067 186.959 652.947 188.079C653.907 189.199 655.147 190.039 656.667 190.599C658.187 191.159 659.787 191.439 661.467 191.439ZM735.636 203.919C729.796 203.919 724.636 202.839 720.156 200.679C715.756 198.519 712.276 195.399 709.716 191.319C707.156 187.159 705.756 182.199 705.516 176.439C705.436 175.159 705.396 173.559 705.396 171.639C705.396 169.639 705.436 167.999 705.516 166.719C705.756 160.879 707.116 155.919 709.596 151.839C712.156 147.679 715.676 144.519 720.156 142.359C724.636 140.199 729.796 139.119 735.636 139.119C740.996 139.119 745.556 139.879 749.316 141.399C753.076 142.839 756.156 144.679 758.556 146.919C760.956 149.159 762.716 151.519 763.836 153.999C765.036 156.399 765.676 158.519 765.756 160.359C765.836 161.159 765.556 161.879 764.916 162.519C764.356 163.079 763.676 163.359 762.876 163.359H750.036C749.236 163.359 748.596 163.159 748.116 162.759C747.716 162.279 747.316 161.639 746.916 160.839C745.796 158.039 744.356 156.039 742.596 154.839C740.836 153.639 738.636 153.039 735.996 153.039C732.396 153.039 729.556 154.199 727.476 156.519C725.396 158.839 724.276 162.439 724.116 167.319C724.036 170.439 724.036 173.279 724.116 175.839C724.356 180.799 725.476 184.399 727.476 186.639C729.556 188.879 732.396 189.999 735.996 189.999C738.796 189.999 741.036 189.399 742.716 188.199C744.396 186.999 745.796 184.999 746.916 182.199C747.236 181.399 747.636 180.799 748.116 180.399C748.596 179.919 749.236 179.679 750.036 179.679H762.876C763.676 179.679 764.356 179.999 764.916 180.639C765.556 181.199 765.836 181.879 765.756 182.679C765.676 184.039 765.276 185.639 764.556 187.479C763.916 189.319 762.836 191.199 761.316 193.119C759.876 195.039 757.996 196.839 755.676 198.519C753.356 200.119 750.516 201.439 747.156 202.479C743.876 203.439 740.036 203.919 735.636 203.919ZM807.526 202.719C802.566 202.719 798.326 201.919 794.806 200.319C791.286 198.639 788.606 196.079 786.766 192.639C785.006 189.199 784.126 184.879 784.126 179.679V154.479H774.766C773.886 154.479 773.166 154.199 772.606 153.639C772.046 153.079 771.766 152.359 771.766 151.479V143.319C771.766 142.439 772.046 141.719 772.606 141.159C773.166 140.599 773.886 140.319 774.766 140.319H784.126V120.519C784.126 119.639 784.406 118.919 784.966 118.359C785.606 117.799 786.326 117.519 787.126 117.519H798.886C799.766 117.519 800.486 117.799 801.046 118.359C801.606 118.919 801.886 119.639 801.886 120.519V140.319H816.886C817.686 140.319 818.366 140.599 818.926 141.159C819.486 141.719 819.766 142.439 819.766 143.319V151.479C819.766 152.359 819.486 153.079 818.926 153.639C818.366 154.199 817.686 154.479 816.886 154.479H801.886V178.239C801.886 181.279 802.406 183.679 803.446 185.439C804.566 187.119 806.486 187.959 809.206 187.959H817.966C818.766 187.959 819.446 188.239 820.006 188.799C820.566 189.359 820.846 190.039 820.846 190.839V199.719C820.846 200.599 820.566 201.319 820.006 201.879C819.446 202.439 818.766 202.719 817.966 202.719H807.526ZM849.675 203.919C845.435 203.919 841.635 203.119 838.275 201.519C834.915 199.839 832.235 197.599 830.235 194.799C828.235 191.999 827.235 188.879 827.235 185.439C827.235 179.759 829.515 175.279 834.075 171.999C838.715 168.719 844.795 166.479 852.315 165.279L868.035 162.999V160.839C868.035 157.719 867.315 155.319 865.875 153.639C864.435 151.959 861.915 151.119 858.315 151.119C855.675 151.119 853.555 151.639 851.955 152.679C850.355 153.719 849.115 155.079 848.235 156.759C847.595 157.799 846.675 158.319 845.475 158.319H834.075C833.195 158.319 832.515 158.079 832.035 157.599C831.555 157.039 831.355 156.399 831.435 155.679C831.435 154.319 831.955 152.719 832.995 150.879C834.035 149.039 835.635 147.239 837.795 145.479C839.955 143.639 842.715 142.119 846.075 140.919C849.435 139.719 853.555 139.119 858.435 139.119C863.475 139.119 867.795 139.719 871.395 140.919C874.995 142.119 877.875 143.799 880.035 145.959C882.195 148.119 883.795 150.639 884.835 153.519C885.875 156.319 886.395 159.359 886.395 162.639V199.719C886.395 200.599 886.115 201.319 885.555 201.879C884.995 202.439 884.275 202.719 883.395 202.719H871.635C870.835 202.719 870.155 202.439 869.595 201.879C869.035 201.319 868.755 200.599 868.755 199.719V195.279C867.715 196.799 866.315 198.239 864.555 199.599C862.795 200.879 860.675 201.919 858.195 202.719C855.795 203.519 852.955 203.919 849.675 203.919ZM854.475 191.439C857.115 191.439 859.475 190.879 861.555 189.759C863.635 188.639 865.275 186.919 866.475 184.599C867.675 182.279 868.275 179.359 868.275 175.839V173.799L857.115 175.599C852.795 176.319 849.635 177.399 847.635 178.839C845.635 180.279 844.635 182.039 844.635 184.119C844.635 185.639 845.075 186.959 845.955 188.079C846.915 189.199 848.155 190.039 849.675 190.599C851.195 191.159 852.795 191.439 854.475 191.439ZM903.804 202.719C903.004 202.719 902.324 202.439 901.764 201.879C901.204 201.319 900.924 200.599 900.924 199.719V143.319C900.924 142.519 901.204 141.839 901.764 141.279C902.324 140.639 903.004 140.319 903.804 140.319H915.564C916.364 140.319 917.044 140.639 917.604 141.279C918.244 141.839 918.564 142.519 918.564 143.319V148.119C920.564 145.639 923.004 143.719 925.884 142.359C928.844 140.999 932.244 140.319 936.084 140.319H941.244C942.044 140.319 942.724 140.599 943.284 141.159C943.844 141.719 944.124 142.439 944.124 143.319V153.639C944.124 154.519 943.844 155.239 943.284 155.799C942.724 156.359 942.044 156.639 941.244 156.639H930.684C927.164 156.639 924.404 157.639 922.404 159.639C920.404 161.559 919.404 164.319 919.404 167.919V199.719C919.404 200.599 919.124 201.319 918.564 201.879C918.004 202.439 917.284 202.719 916.404 202.719H903.804ZM1600 202.719C1599.12 202.719 1598.4 202.439 1597.84 201.879C1597.28 201.319 1597 200.599 1597 199.719V186.279C1597 185.399 1597.28 184.679 1597.84 184.119C1598.4 183.559 1599.12 183.279 1600 183.279H1613.44C1614.32 183.279 1615.04 183.559 1615.6 184.119C1616.16 184.679 1616.44 185.399 1616.44 186.279V199.719C1616.44 200.599 1616.16 201.319 1615.6 201.879C1615.04 202.439 1614.32 202.719 1613.44 202.719H1600Z" fill="#6D2E46"/>
<path d="M980.096 202.719C979.216 202.719 978.496 202.439 977.936 201.879C977.376 201.319 977.096 200.599 977.096 199.719V120.519C977.096 119.639 977.376 118.919 977.936 118.359C978.496 117.799 979.216 117.519 980.096 117.519H992.096C992.896 117.519 993.576 117.799 994.136 118.359C994.696 118.919 994.976 119.639 994.976 120.519V199.719C994.976 200.599 994.696 201.319 994.136 201.879C993.576 202.439 992.896 202.719 992.096 202.719H980.096ZM1028.5 203.919C1024.26 203.919 1020.46 203.119 1017.1 201.519C1013.74 199.839 1011.06 197.599 1009.06 194.799C1007.06 191.999 1006.06 188.879 1006.06 185.439C1006.06 179.759 1008.34 175.279 1012.9 171.999C1017.54 168.719 1023.62 166.479 1031.14 165.279L1046.86 162.999V160.839C1046.86 157.719 1046.14 155.319 1044.7 153.639C1043.26 151.959 1040.74 151.119 1037.14 151.119C1034.5 151.119 1032.38 151.639 1030.78 152.679C1029.18 153.719 1027.94 155.079 1027.06 156.759C1026.42 157.799 1025.5 158.319 1024.3 158.319H1012.9C1012.02 158.319 1011.34 158.079 1010.86 157.599C1010.38 157.039 1010.18 156.399 1010.26 155.679C1010.26 154.319 1010.78 152.719 1011.82 150.879C1012.86 149.039 1014.46 147.239 1016.62 145.479C1018.78 143.639 1021.54 142.119 1024.9 140.919C1028.26 139.719 1032.38 139.119 1037.26 139.119C1042.3 139.119 1046.62 139.719 1050.22 140.919C1053.82 142.119 1056.7 143.799 1058.86 145.959C1061.02 148.119 1062.62 150.639 1063.66 153.519C1064.7 156.319 1065.22 159.359 1065.22 162.639V199.719C1065.22 200.599 1064.94 201.319 1064.38 201.879C1063.82 202.439 1063.1 202.719 1062.22 202.719H1050.46C1049.66 202.719 1048.98 202.439 1048.42 201.879C1047.86 201.319 1047.58 200.599 1047.58 199.719V195.279C1046.54 196.799 1045.14 198.239 1043.38 199.599C1041.62 200.879 1039.5 201.919 1037.02 202.719C1034.62 203.519 1031.78 203.919 1028.5 203.919ZM1033.3 191.439C1035.94 191.439 1038.3 190.879 1040.38 189.759C1042.46 188.639 1044.1 186.919 1045.3 184.599C1046.5 182.279 1047.1 179.359 1047.1 175.839V173.799L1035.94 175.599C1031.62 176.319 1028.46 177.399 1026.46 178.839C1024.46 180.279 1023.46 182.039 1023.46 184.119C1023.46 185.639 1023.9 186.959 1024.78 188.079C1025.74 189.199 1026.98 190.039 1028.5 190.599C1030.02 191.159 1031.62 191.439 1033.3 191.439ZM1102.91 203.919C1098.91 203.919 1095.35 203.279 1092.23 201.999C1089.11 200.639 1086.47 198.719 1084.31 196.239C1082.15 193.679 1080.51 190.679 1079.39 187.239C1078.27 183.719 1077.59 179.839 1077.35 175.599C1077.27 174.079 1077.23 172.719 1077.23 171.519C1077.23 170.239 1077.27 168.879 1077.35 167.439C1077.51 163.279 1078.15 159.479 1079.27 156.039C1080.47 152.599 1082.11 149.639 1084.19 147.159C1086.35 144.599 1088.99 142.639 1092.11 141.279C1095.31 139.839 1098.91 139.119 1102.91 139.119C1107.07 139.119 1110.63 139.839 1113.59 141.279C1116.55 142.639 1118.99 144.439 1120.91 146.679V120.519C1120.91 119.639 1121.19 118.919 1121.75 118.359C1122.31 117.799 1123.03 117.519 1123.91 117.519H1136.27C1137.07 117.519 1137.75 117.799 1138.31 118.359C1138.87 118.919 1139.15 119.639 1139.15 120.519V199.719C1139.15 200.599 1138.87 201.319 1138.31 201.879C1137.75 202.439 1137.07 202.719 1136.27 202.719H1124.75C1123.95 202.719 1123.27 202.439 1122.71 201.879C1122.15 201.319 1121.87 200.599 1121.87 199.719V195.639C1119.87 198.039 1117.35 200.039 1114.31 201.639C1111.27 203.159 1107.47 203.919 1102.91 203.919ZM1108.43 189.519C1111.39 189.519 1113.75 188.839 1115.51 187.479C1117.35 186.119 1118.67 184.399 1119.47 182.319C1120.35 180.239 1120.83 177.999 1120.91 175.599C1121.07 174.079 1121.15 172.559 1121.15 171.039C1121.15 169.519 1121.07 168.039 1120.91 166.599C1120.83 164.359 1120.35 162.279 1119.47 160.359C1118.59 158.359 1117.23 156.719 1115.39 155.439C1113.63 154.159 1111.31 153.519 1108.43 153.519C1105.39 153.519 1102.99 154.199 1101.23 155.559C1099.47 156.839 1098.19 158.559 1097.39 160.719C1096.67 162.879 1096.23 165.239 1096.07 167.799C1095.83 170.279 1095.83 172.759 1096.07 175.239C1096.23 177.799 1096.67 180.159 1097.39 182.319C1098.19 184.479 1099.47 186.239 1101.23 187.599C1102.99 188.879 1105.39 189.519 1108.43 189.519ZM1182.96 203.919C1176.32 203.919 1170.76 202.839 1166.28 200.679C1161.8 198.439 1158.36 195.279 1155.96 191.199C1153.64 187.119 1152.36 182.359 1152.12 176.919C1152.04 175.319 1152 173.519 1152 171.519C1152 169.439 1152.04 167.639 1152.12 166.119C1152.36 160.599 1153.72 155.839 1156.2 151.839C1158.68 147.759 1162.16 144.639 1166.64 142.479C1171.12 140.239 1176.56 139.119 1182.96 139.119C1189.28 139.119 1194.68 140.239 1199.16 142.479C1203.64 144.639 1207.12 147.759 1209.6 151.839C1212.08 155.839 1213.44 160.599 1213.68 166.119C1213.84 167.639 1213.92 169.439 1213.92 171.519C1213.92 173.519 1213.84 175.319 1213.68 176.919C1213.44 182.359 1212.12 187.119 1209.72 191.199C1207.4 195.279 1204 198.439 1199.52 200.679C1195.04 202.839 1189.52 203.919 1182.96 203.919ZM1182.96 190.719C1186.88 190.719 1189.84 189.519 1191.84 187.119C1193.84 184.639 1194.92 181.039 1195.08 176.319C1195.16 175.119 1195.2 173.519 1195.2 171.519C1195.2 169.519 1195.16 167.919 1195.08 166.719C1194.92 162.079 1193.84 158.519 1191.84 156.039C1189.84 153.559 1186.88 152.319 1182.96 152.319C1179.04 152.319 1176.04 153.559 1173.96 156.039C1171.96 158.519 1170.88 162.079 1170.72 166.719C1170.64 167.919 1170.6 169.519 1170.6 171.519C1170.6 173.519 1170.64 175.119 1170.72 176.319C1170.88 181.039 1171.96 184.639 1173.96 187.119C1176.04 189.519 1179.04 190.719 1182.96 190.719ZM1271.32 203.919C1267.08 203.919 1263.28 203.119 1259.92 201.519C1256.56 199.839 1253.88 197.599 1251.88 194.799C1249.88 191.999 1248.88 188.879 1248.88 185.439C1248.88 179.759 1251.16 175.279 1255.72 171.999C1260.36 168.719 1266.44 166.479 1273.96 165.279L1289.68 162.999V160.839C1289.68 157.719 1288.96 155.319 1287.52 153.639C1286.08 151.959 1283.56 151.119 1279.96 151.119C1277.32 151.119 1275.2 151.639 1273.6 152.679C1272 153.719 1270.76 155.079 1269.88 156.759C1269.24 157.799 1268.32 158.319 1267.12 158.319H1255.72C1254.84 158.319 1254.16 158.079 1253.68 157.599C1253.2 157.039 1253 156.399 1253.08 155.679C1253.08 154.319 1253.6 152.719 1254.64 150.879C1255.68 149.039 1257.28 147.239 1259.44 145.479C1261.6 143.639 1264.36 142.119 1267.72 140.919C1271.08 139.719 1275.2 139.119 1280.08 139.119C1285.12 139.119 1289.44 139.719 1293.04 140.919C1296.64 142.119 1299.52 143.799 1301.68 145.959C1303.84 148.119 1305.44 150.639 1306.48 153.519C1307.52 156.319 1308.04 159.359 1308.04 162.639V199.719C1308.04 200.599 1307.76 201.319 1307.2 201.879C1306.64 202.439 1305.92 202.719 1305.04 202.719H1293.28C1292.48 202.719 1291.8 202.439 1291.24 201.879C1290.68 201.319 1290.4 200.599 1290.4 199.719V195.279C1289.36 196.799 1287.96 198.239 1286.2 199.599C1284.44 200.879 1282.32 201.919 1279.84 202.719C1277.44 203.519 1274.6 203.919 1271.32 203.919ZM1276.12 191.439C1278.76 191.439 1281.12 190.879 1283.2 189.759C1285.28 188.639 1286.92 186.919 1288.12 184.599C1289.32 182.279 1289.92 179.359 1289.92 175.839V173.799L1278.76 175.599C1274.44 176.319 1271.28 177.399 1269.28 178.839C1267.28 180.279 1266.28 182.039 1266.28 184.119C1266.28 185.639 1266.72 186.959 1267.6 188.079C1268.56 189.199 1269.8 190.039 1271.32 190.599C1272.84 191.159 1274.44 191.439 1276.12 191.439ZM1352.05 202.719C1351.17 202.719 1350.45 202.439 1349.89 201.879C1349.33 201.319 1349.05 200.599 1349.05 199.719V120.519C1349.05 119.639 1349.33 118.919 1349.89 118.359C1350.45 117.799 1351.17 117.519 1352.05 117.519H1364.05C1364.85 117.519 1365.53 117.799 1366.09 118.359C1366.65 118.919 1366.93 119.639 1366.93 120.519V199.719C1366.93 200.599 1366.65 201.319 1366.09 201.879C1365.53 202.439 1364.85 202.719 1364.05 202.719H1352.05ZM1400.46 203.919C1396.22 203.919 1392.42 203.119 1389.06 201.519C1385.7 199.839 1383.02 197.599 1381.02 194.799C1379.02 191.999 1378.02 188.879 1378.02 185.439C1378.02 179.759 1380.3 175.279 1384.86 171.999C1389.5 168.719 1395.58 166.479 1403.1 165.279L1418.82 162.999V160.839C1418.82 157.719 1418.1 155.319 1416.66 153.639C1415.22 151.959 1412.7 151.119 1409.1 151.119C1406.46 151.119 1404.34 151.639 1402.74 152.679C1401.14 153.719 1399.9 155.079 1399.02 156.759C1398.38 157.799 1397.46 158.319 1396.26 158.319H1384.86C1383.98 158.319 1383.3 158.079 1382.82 157.599C1382.34 157.039 1382.14 156.399 1382.22 155.679C1382.22 154.319 1382.74 152.719 1383.78 150.879C1384.82 149.039 1386.42 147.239 1388.58 145.479C1390.74 143.639 1393.5 142.119 1396.86 140.919C1400.22 139.719 1404.34 139.119 1409.22 139.119C1414.26 139.119 1418.58 139.719 1422.18 140.919C1425.78 142.119 1428.66 143.799 1430.82 145.959C1432.98 148.119 1434.58 150.639 1435.62 153.519C1436.66 156.319 1437.18 159.359 1437.18 162.639V199.719C1437.18 200.599 1436.9 201.319 1436.34 201.879C1435.78 202.439 1435.06 202.719 1434.18 202.719H1422.42C1421.62 202.719 1420.94 202.439 1420.38 201.879C1419.82 201.319 1419.54 200.599 1419.54 199.719V195.279C1418.5 196.799 1417.1 198.239 1415.34 199.599C1413.58 200.879 1411.46 201.919 1408.98 202.719C1406.58 203.519 1403.74 203.919 1400.46 203.919ZM1405.26 191.439C1407.9 191.439 1410.26 190.879 1412.34 189.759C1414.42 188.639 1416.06 186.919 1417.26 184.599C1418.46 182.279 1419.06 179.359 1419.06 175.839V173.799L1407.9 175.599C1403.58 176.319 1400.42 177.399 1398.42 178.839C1396.42 180.279 1395.42 182.039 1395.42 184.119C1395.42 185.639 1395.86 186.959 1396.74 188.079C1397.7 189.199 1398.94 190.039 1400.46 190.599C1401.98 191.159 1403.58 191.439 1405.26 191.439ZM1474.87 203.919C1470.87 203.919 1467.31 203.279 1464.19 201.999C1461.07 200.639 1458.43 198.719 1456.27 196.239C1454.11 193.679 1452.47 190.679 1451.35 187.239C1450.23 183.719 1449.55 179.839 1449.31 175.599C1449.23 174.079 1449.19 172.719 1449.19 171.519C1449.19 170.239 1449.23 168.879 1449.31 167.439C1449.47 163.279 1450.11 159.479 1451.23 156.039C1452.43 152.599 1454.07 149.639 1456.15 147.159C1458.31 144.599 1460.95 142.639 1464.07 141.279C1467.27 139.839 1470.87 139.119 1474.87 139.119C1479.03 139.119 1482.59 139.839 1485.55 141.279C1488.51 142.639 1490.95 144.439 1492.87 146.679V120.519C1492.87 119.639 1493.15 118.919 1493.71 118.359C1494.27 117.799 1494.99 117.519 1495.87 117.519H1508.23C1509.03 117.519 1509.71 117.799 1510.27 118.359C1510.83 118.919 1511.11 119.639 1511.11 120.519V199.719C1511.11 200.599 1510.83 201.319 1510.27 201.879C1509.71 202.439 1509.03 202.719 1508.23 202.719H1496.71C1495.91 202.719 1495.23 202.439 1494.67 201.879C1494.11 201.319 1493.83 200.599 1493.83 199.719V195.639C1491.83 198.039 1489.31 200.039 1486.27 201.639C1483.23 203.159 1479.43 203.919 1474.87 203.919ZM1480.39 189.519C1483.35 189.519 1485.71 188.839 1487.47 187.479C1489.31 186.119 1490.63 184.399 1491.43 182.319C1492.31 180.239 1492.79 177.999 1492.87 175.599C1493.03 174.079 1493.11 172.559 1493.11 171.039C1493.11 169.519 1493.03 168.039 1492.87 166.599C1492.79 164.359 1492.31 162.279 1491.43 160.359C1490.55 158.359 1489.19 156.719 1487.35 155.439C1485.59 154.159 1483.27 153.519 1480.39 153.519C1477.35 153.519 1474.95 154.199 1473.19 155.559C1471.43 156.839 1470.15 158.559 1469.35 160.719C1468.63 162.879 1468.19 165.239 1468.03 167.799C1467.79 170.279 1467.79 172.759 1468.03 175.239C1468.19 177.799 1468.63 180.159 1469.35 182.319C1470.15 184.479 1471.43 186.239 1473.19 187.599C1474.95 188.879 1477.35 189.519 1480.39 189.519ZM1554.91 203.919C1548.27 203.919 1542.71 202.839 1538.23 200.679C1533.75 198.439 1530.31 195.279 1527.91 191.199C1525.59 187.119 1524.31 182.359 1524.07 176.919C1523.99 175.319 1523.95 173.519 1523.95 171.519C1523.95 169.439 1523.99 167.639 1524.07 166.119C1524.31 160.599 1525.67 155.839 1528.15 151.839C1530.63 147.759 1534.11 144.639 1538.59 142.479C1543.07 140.239 1548.51 139.119 1554.91 139.119C1561.23 139.119 1566.63 140.239 1571.11 142.479C1575.59 144.639 1579.07 147.759 1581.55 151.839C1584.03 155.839 1585.39 160.599 1585.63 166.119C1585.79 167.639 1585.87 169.439 1585.87 171.519C1585.87 173.519 1585.79 175.319 1585.63 176.919C1585.39 182.359 1584.07 187.119 1581.67 191.199C1579.35 195.279 1575.95 198.439 1571.47 200.679C1566.99 202.839 1561.47 203.919 1554.91 203.919ZM1554.91 190.719C1558.83 190.719 1561.79 189.519 1563.79 187.119C1565.79 184.639 1566.87 181.039 1567.03 176.319C1567.11 175.119 1567.15 173.519 1567.15 171.519C1567.15 169.519 1567.11 167.919 1567.03 166.719C1566.87 162.079 1565.79 158.519 1563.79 156.039C1561.79 153.559 1558.83 152.319 1554.91 152.319C1550.99 152.319 1547.99 153.559 1545.91 156.039C1543.91 158.519 1542.83 162.079 1542.67 166.719C1542.59 167.919 1542.55 169.519 1542.55 171.519C1542.55 173.519 1542.59 175.119 1542.67 176.319C1542.83 181.039 1543.91 184.639 1545.91 187.119C1547.99 189.519 1550.99 190.719 1554.91 190.719Z" fill="#BD4747"/>
</svg>
