<svg width="1512" height="216" viewBox="0 0 1512 216" fill="none" xmlns="http://www.w3.org/2000/svg">
<path d="M21.4355 50.2441V38.7695C21.4355 38.1348 21.4518 37.4023 21.4844 36.5723C21.5169 35.7422 21.5739 35.026 21.6553 34.4238H21.3867C20.638 35.6608 19.5719 36.6943 18.1885 37.5244C16.805 38.3545 15.0228 38.7695 12.8418 38.7695C9.57031 38.7695 6.94173 37.6139 4.95605 35.3027C2.97038 32.9915 1.97754 29.541 1.97754 24.9512C1.97754 21.9401 2.43327 19.401 3.34473 17.334C4.25618 15.2669 5.54199 13.7044 7.20215 12.6465C8.87858 11.5723 10.8317 11.0352 13.0615 11.0352C15.1937 11.0352 16.9352 11.4583 18.2861 12.3047C19.637 13.1348 20.695 14.152 21.46 15.3564H21.6553L22.2656 11.5234H25.4883V50.2441H21.4355ZM13.5986 35.4004C15.4867 35.4004 17.0003 35.0505 18.1396 34.3506C19.279 33.6344 20.109 32.5602 20.6299 31.1279C21.167 29.6956 21.4518 27.9134 21.4844 25.7812V24.9268C21.4844 21.4762 20.8984 18.8639 19.7266 17.0898C18.5547 15.2995 16.512 14.4043 13.5986 14.4043C11.0921 14.4043 9.22852 15.3646 8.00781 17.2852C6.78711 19.1895 6.17676 21.7773 6.17676 25.0488C6.17676 28.3203 6.78711 30.8675 8.00781 32.6904C9.22852 34.4971 11.0921 35.4004 13.5986 35.4004ZM56.2012 11.5234V38.2812H52.8809L52.2949 34.5215H52.0752C51.5218 35.4492 50.8057 36.2305 49.9268 36.8652C49.0479 37.5 48.055 37.972 46.9482 38.2812C45.8577 38.6068 44.694 38.7695 43.457 38.7695C41.3411 38.7695 39.5671 38.4277 38.1348 37.7441C36.7025 37.0605 35.6201 36.0026 34.8877 34.5703C34.1715 33.138 33.8135 31.2988 33.8135 29.0527V11.5234H37.915V28.7598C37.915 30.9896 38.4196 32.6579 39.4287 33.7646C40.4378 34.8551 41.9759 35.4004 44.043 35.4004C46.0286 35.4004 47.6074 35.026 48.7793 34.2773C49.9674 33.5286 50.8219 32.43 51.3428 30.9814C51.8636 29.5166 52.124 27.7262 52.124 25.6104V11.5234H56.2012ZM75.0732 11.0352C77.3519 11.0352 79.305 11.5397 80.9326 12.5488C82.5602 13.5579 83.8053 14.974 84.668 16.7969C85.5306 18.6035 85.9619 20.7194 85.9619 23.1445V25.6592H67.4805C67.5293 28.8005 68.3105 31.193 69.8242 32.8369C71.3379 34.4808 73.4701 35.3027 76.2207 35.3027C77.9134 35.3027 79.4108 35.1481 80.7129 34.8389C82.015 34.5296 83.3659 34.0739 84.7656 33.4717V37.0361C83.4147 37.6383 82.0719 38.0778 80.7373 38.3545C79.4189 38.6312 77.8564 38.7695 76.0498 38.7695C73.4782 38.7695 71.2321 38.2487 69.3115 37.207C67.4072 36.1491 65.9261 34.6029 64.8682 32.5684C63.8102 30.5339 63.2812 28.0436 63.2812 25.0977C63.2812 22.2168 63.7614 19.7266 64.7217 17.627C65.6982 15.5111 67.0654 13.8835 68.8232 12.7441C70.5973 11.6048 72.6807 11.0352 75.0732 11.0352ZM75.0244 14.3555C72.8597 14.3555 71.1344 15.0635 69.8486 16.4795C68.5628 17.8955 67.7979 19.873 67.5537 22.4121H81.7139C81.6976 20.8171 81.4453 19.4173 80.957 18.2129C80.485 16.9922 79.7607 16.0482 78.7842 15.3809C77.8076 14.6973 76.5544 14.3555 75.0244 14.3555ZM105.005 11.0352C105.542 11.0352 106.104 11.0677 106.689 11.1328C107.275 11.1816 107.796 11.2549 108.252 11.3525L107.739 15.1123C107.3 14.9984 106.812 14.9089 106.274 14.8438C105.737 14.7786 105.233 14.7461 104.761 14.7461C103.687 14.7461 102.669 14.9658 101.709 15.4053C100.765 15.8285 99.9349 16.4469 99.2188 17.2607C98.5026 18.0583 97.9411 19.0267 97.5342 20.166C97.1273 21.2891 96.9238 22.5423 96.9238 23.9258V38.2812H92.8467V11.5234H96.2158L96.6553 16.4551H96.8262C97.3796 15.4622 98.0469 14.5589 98.8281 13.7451C99.6094 12.915 100.513 12.2559 101.538 11.7676C102.58 11.2793 103.735 11.0352 105.005 11.0352ZM123.608 11.0352C125.887 11.0352 127.84 11.5397 129.468 12.5488C131.095 13.5579 132.34 14.974 133.203 16.7969C134.066 18.6035 134.497 20.7194 134.497 23.1445V25.6592H116.016C116.064 28.8005 116.846 31.193 118.359 32.8369C119.873 34.4808 122.005 35.3027 124.756 35.3027C126.449 35.3027 127.946 35.1481 129.248 34.8389C130.55 34.5296 131.901 34.0739 133.301 33.4717V37.0361C131.95 37.6383 130.607 38.0778 129.272 38.3545C127.954 38.6312 126.392 38.7695 124.585 38.7695C122.013 38.7695 119.767 38.2487 117.847 37.207C115.942 36.1491 114.461 34.6029 113.403 32.5684C112.345 30.5339 111.816 28.0436 111.816 25.0977C111.816 22.2168 112.297 19.7266 113.257 17.627C114.233 15.5111 115.601 13.8835 117.358 12.7441C119.132 11.6048 121.216 11.0352 123.608 11.0352ZM123.56 14.3555C121.395 14.3555 119.67 15.0635 118.384 16.4795C117.098 17.8955 116.333 19.873 116.089 22.4121H130.249C130.233 20.8171 129.98 19.4173 129.492 18.2129C129.02 16.9922 128.296 16.0482 127.319 15.3809C126.343 14.6973 125.09 14.3555 123.56 14.3555ZM158.691 30.957C158.691 32.666 158.26 34.1064 157.397 35.2783C156.551 36.4339 155.33 37.3047 153.735 37.8906C152.157 38.4766 150.269 38.7695 148.071 38.7695C146.2 38.7695 144.58 38.623 143.213 38.3301C141.846 38.0371 140.649 37.6221 139.624 37.085V33.3496C140.715 33.8867 142.017 34.375 143.53 34.8145C145.044 35.2539 146.59 35.4736 148.169 35.4736C150.48 35.4736 152.157 35.0993 153.198 34.3506C154.24 33.6019 154.761 32.5846 154.761 31.2988C154.761 30.5664 154.549 29.9235 154.126 29.3701C153.719 28.8005 153.027 28.2552 152.051 27.7344C151.074 27.1973 149.723 26.6113 147.998 25.9766C146.289 25.3255 144.808 24.6826 143.555 24.0479C142.318 23.3968 141.357 22.6074 140.674 21.6797C140.007 20.752 139.673 19.5475 139.673 18.0664C139.673 15.804 140.584 14.0706 142.407 12.8662C144.246 11.6455 146.655 11.0352 149.634 11.0352C151.245 11.0352 152.751 11.1979 154.15 11.5234C155.566 11.8327 156.885 12.2559 158.105 12.793L156.738 16.04C155.632 15.568 154.451 15.1693 153.198 14.8438C151.945 14.5182 150.667 14.3555 149.365 14.3555C147.493 14.3555 146.053 14.6647 145.044 15.2832C144.051 15.9017 143.555 16.748 143.555 17.8223C143.555 18.6523 143.783 19.3359 144.238 19.873C144.71 20.4102 145.459 20.9147 146.484 21.3867C147.51 21.8587 148.861 22.4121 150.537 23.0469C152.214 23.6654 153.662 24.3083 154.883 24.9756C156.104 25.6266 157.039 26.4242 157.69 27.3682C158.358 28.2959 158.691 29.4922 158.691 30.957ZM190.112 14.6973H183.447V38.2812H179.395V14.6973H174.658V12.7441L179.395 11.4014V9.61914C179.395 7.37305 179.728 5.55013 180.396 4.15039C181.063 2.73438 182.031 1.69271 183.301 1.02539C184.57 0.358073 186.117 0.0244141 187.939 0.0244141C188.965 0.0244141 189.901 0.113932 190.747 0.292969C191.61 0.472005 192.367 0.675456 193.018 0.90332L191.968 4.10156C191.414 3.92253 190.788 3.75977 190.088 3.61328C189.404 3.45052 188.704 3.36914 187.988 3.36914C186.442 3.36914 185.295 3.8737 184.546 4.88281C183.813 5.87565 183.447 7.43815 183.447 9.57031V11.5234H190.112V14.6973ZM205.054 11.084C208.244 11.084 210.612 11.8001 212.158 13.2324C213.704 14.6647 214.478 16.9515 214.478 20.0928V38.2812H211.523L210.742 34.3262H210.547C209.798 35.3027 209.017 36.1247 208.203 36.792C207.389 37.443 206.445 37.9395 205.371 38.2812C204.313 38.6068 203.011 38.7695 201.465 38.7695C199.837 38.7695 198.389 38.4847 197.119 37.915C195.866 37.3454 194.873 36.4827 194.141 35.3271C193.424 34.1715 193.066 32.7067 193.066 30.9326C193.066 28.2633 194.124 26.2126 196.24 24.7803C198.356 23.348 201.579 22.5667 205.908 22.4365L210.522 22.2412V20.6055C210.522 18.2943 210.026 16.6748 209.033 15.7471C208.04 14.8193 206.641 14.3555 204.834 14.3555C203.434 14.3555 202.1 14.5589 200.83 14.9658C199.561 15.3727 198.356 15.8529 197.217 16.4062L195.972 13.3301C197.176 12.7116 198.56 12.1826 200.122 11.7432C201.685 11.3037 203.328 11.084 205.054 11.084ZM210.474 25.0977L206.396 25.2686C203.06 25.3988 200.708 25.944 199.341 26.9043C197.974 27.8646 197.29 29.2236 197.29 30.9814C197.29 32.5114 197.754 33.6426 198.682 34.375C199.609 35.1074 200.838 35.4736 202.368 35.4736C204.744 35.4736 206.689 34.8145 208.203 33.4961C209.717 32.1777 210.474 30.2002 210.474 27.5635V25.0977ZM240.015 38.2812H220.508V35.5957L235.181 14.6973H221.436V11.5234H239.697V14.5264L225.22 35.1318H240.015V38.2812ZM256.567 11.0352C258.846 11.0352 260.799 11.5397 262.427 12.5488C264.054 13.5579 265.299 14.974 266.162 16.7969C267.025 18.6035 267.456 20.7194 267.456 23.1445V25.6592H248.975C249.023 28.8005 249.805 31.193 251.318 32.8369C252.832 34.4808 254.964 35.3027 257.715 35.3027C259.408 35.3027 260.905 35.1481 262.207 34.8389C263.509 34.5296 264.86 34.0739 266.26 33.4717V37.0361C264.909 37.6383 263.566 38.0778 262.231 38.3545C260.913 38.6312 259.351 38.7695 257.544 38.7695C254.972 38.7695 252.726 38.2487 250.806 37.207C248.901 36.1491 247.42 34.6029 246.362 32.5684C245.304 30.5339 244.775 28.0436 244.775 25.0977C244.775 22.2168 245.256 19.7266 246.216 17.627C247.192 15.5111 248.56 13.8835 250.317 12.7441C252.091 11.6048 254.175 11.0352 256.567 11.0352ZM256.519 14.3555C254.354 14.3555 252.629 15.0635 251.343 16.4795C250.057 17.8955 249.292 19.873 249.048 22.4121H263.208C263.192 20.8171 262.939 19.4173 262.451 18.2129C261.979 16.9922 261.255 16.0482 260.278 15.3809C259.302 14.6973 258.049 14.3555 256.519 14.3555ZM286.499 11.0352C287.036 11.0352 287.598 11.0677 288.184 11.1328C288.77 11.1816 289.29 11.2549 289.746 11.3525L289.233 15.1123C288.794 14.9984 288.306 14.9089 287.769 14.8438C287.231 14.7786 286.727 14.7461 286.255 14.7461C285.181 14.7461 284.163 14.9658 283.203 15.4053C282.259 15.8285 281.429 16.4469 280.713 17.2607C279.997 18.0583 279.435 19.0267 279.028 20.166C278.621 21.2891 278.418 22.5423 278.418 23.9258V38.2812H274.341V11.5234H277.71L278.149 16.4551H278.32C278.874 15.4622 279.541 14.5589 280.322 13.7451C281.104 12.915 282.007 12.2559 283.032 11.7676C284.074 11.2793 285.229 11.0352 286.499 11.0352ZM320.361 11.0352C323.698 11.0352 326.359 12.1826 328.345 14.4775C330.33 16.7725 331.323 20.223 331.323 24.8291C331.323 27.8727 330.868 30.4281 329.956 32.4951C329.045 34.5622 327.759 36.1247 326.099 37.1826C324.455 38.2406 322.51 38.7695 320.264 38.7695C318.848 38.7695 317.603 38.5824 316.528 38.208C315.454 37.8337 314.535 37.3291 313.77 36.6943C313.005 36.0596 312.37 35.3678 311.865 34.6191H311.572C311.621 35.2539 311.678 36.0189 311.743 36.9141C311.825 37.8092 311.865 38.5905 311.865 39.2578V50.2441H307.788V11.5234H311.133L311.67 15.4785H311.865C312.386 14.6647 313.021 13.9242 313.77 13.2568C314.518 12.5732 315.43 12.0361 316.504 11.6455C317.594 11.2386 318.88 11.0352 320.361 11.0352ZM319.653 14.4531C317.798 14.4531 316.3 14.8112 315.161 15.5273C314.038 16.2435 313.216 17.3177 312.695 18.75C312.174 20.166 311.898 21.9482 311.865 24.0967V24.8779C311.865 27.1403 312.109 29.0527 312.598 30.6152C313.102 32.1777 313.924 33.3659 315.063 34.1797C316.219 34.9935 317.765 35.4004 319.702 35.4004C321.362 35.4004 322.746 34.9528 323.853 34.0576C324.959 33.1624 325.781 31.9173 326.318 30.3223C326.872 28.7109 327.148 26.8636 327.148 24.7803C327.148 21.6227 326.53 19.1162 325.293 17.2607C324.072 15.389 322.192 14.4531 319.653 14.4531ZM348.413 11.084C351.603 11.084 353.971 11.8001 355.518 13.2324C357.064 14.6647 357.837 16.9515 357.837 20.0928V38.2812H354.883L354.102 34.3262H353.906C353.158 35.3027 352.376 36.1247 351.562 36.792C350.749 37.443 349.805 37.9395 348.73 38.2812C347.673 38.6068 346.37 38.7695 344.824 38.7695C343.197 38.7695 341.748 38.4847 340.479 37.915C339.225 37.3454 338.232 36.4827 337.5 35.3271C336.784 34.1715 336.426 32.7067 336.426 30.9326C336.426 28.2633 337.484 26.2126 339.6 24.7803C341.715 23.348 344.938 22.5667 349.268 22.4365L353.882 22.2412V20.6055C353.882 18.2943 353.385 16.6748 352.393 15.7471C351.4 14.8193 350 14.3555 348.193 14.3555C346.794 14.3555 345.459 14.5589 344.189 14.9658C342.92 15.3727 341.715 15.8529 340.576 16.4062L339.331 13.3301C340.535 12.7116 341.919 12.1826 343.481 11.7432C345.044 11.3037 346.688 11.084 348.413 11.084ZM353.833 25.0977L349.756 25.2686C346.419 25.3988 344.067 25.944 342.7 26.9043C341.333 27.8646 340.649 29.2236 340.649 30.9814C340.649 32.5114 341.113 33.6426 342.041 34.375C342.969 35.1074 344.198 35.4736 345.728 35.4736C348.104 35.4736 350.049 34.8145 351.562 33.4961C353.076 32.1777 353.833 30.2002 353.833 27.5635V25.0977ZM378.345 11.0352C378.882 11.0352 379.443 11.0677 380.029 11.1328C380.615 11.1816 381.136 11.2549 381.592 11.3525L381.079 15.1123C380.64 14.9984 380.151 14.9089 379.614 14.8438C379.077 14.7786 378.573 14.7461 378.101 14.7461C377.026 14.7461 376.009 14.9658 375.049 15.4053C374.105 15.8285 373.275 16.4469 372.559 17.2607C371.842 18.0583 371.281 19.0267 370.874 20.166C370.467 21.2891 370.264 22.5423 370.264 23.9258V38.2812H366.187V11.5234H369.556L369.995 16.4551H370.166C370.719 15.4622 371.387 14.5589 372.168 13.7451C372.949 12.915 373.853 12.2559 374.878 11.7676C375.92 11.2793 377.075 11.0352 378.345 11.0352ZM395.288 35.4492C395.955 35.4492 396.639 35.3923 397.339 35.2783C398.039 35.1644 398.608 35.026 399.048 34.8633V38.0127C398.576 38.2243 397.917 38.4033 397.07 38.5498C396.24 38.6963 395.426 38.7695 394.629 38.7695C393.213 38.7695 391.927 38.5254 390.771 38.0371C389.616 37.5326 388.688 36.6862 387.988 35.498C387.305 34.3099 386.963 32.666 386.963 30.5664V14.6973H383.154V12.7197L386.987 11.1328L388.599 5.32227H391.04V11.5234H398.877V14.6973H391.04V30.4443C391.04 32.1208 391.423 33.374 392.188 34.2041C392.969 35.0342 394.002 35.4492 395.288 35.4492ZM414.771 11.0352C417.049 11.0352 419.002 11.5397 420.63 12.5488C422.257 13.5579 423.503 14.974 424.365 16.7969C425.228 18.6035 425.659 20.7194 425.659 23.1445V25.6592H407.178C407.227 28.8005 408.008 31.193 409.521 32.8369C411.035 34.4808 413.167 35.3027 415.918 35.3027C417.611 35.3027 419.108 35.1481 420.41 34.8389C421.712 34.5296 423.063 34.0739 424.463 33.4717V37.0361C423.112 37.6383 421.769 38.0778 420.435 38.3545C419.116 38.6312 417.554 38.7695 415.747 38.7695C413.175 38.7695 410.929 38.2487 409.009 37.207C407.104 36.1491 405.623 34.6029 404.565 32.5684C403.507 30.5339 402.979 28.0436 402.979 25.0977C402.979 22.2168 403.459 19.7266 404.419 17.627C405.396 15.5111 406.763 13.8835 408.521 12.7441C410.295 11.6048 412.378 11.0352 414.771 11.0352ZM414.722 14.3555C412.557 14.3555 410.832 15.0635 409.546 16.4795C408.26 17.8955 407.495 19.873 407.251 22.4121H421.411C421.395 20.8171 421.143 19.4173 420.654 18.2129C420.182 16.9922 419.458 16.0482 418.481 15.3809C417.505 14.6973 416.252 14.3555 414.722 14.3555ZM455.054 38.7695C451.668 38.7695 448.983 37.6139 446.997 35.3027C445.028 32.9915 444.043 29.5573 444.043 25C444.043 20.3939 445.052 16.9189 447.07 14.5752C449.089 12.2152 451.774 11.0352 455.127 11.0352C456.543 11.0352 457.78 11.2223 458.838 11.5967C459.896 11.971 460.807 12.4756 461.572 13.1104C462.337 13.7288 462.98 14.4368 463.501 15.2344H463.794C463.729 14.7298 463.664 14.0381 463.599 13.1592C463.534 12.2803 463.501 11.5641 463.501 11.0107V0.292969H467.554V38.2812H464.282L463.672 34.4727H463.501C462.996 35.2702 462.354 35.9945 461.572 36.6455C460.807 37.2965 459.888 37.8174 458.813 38.208C457.756 38.5824 456.502 38.7695 455.054 38.7695ZM455.688 35.4004C458.553 35.4004 460.579 34.5866 461.768 32.959C462.956 31.3314 463.55 28.9144 463.55 25.708V24.9756C463.55 21.5739 462.98 18.9616 461.841 17.1387C460.718 15.3158 458.667 14.4043 455.688 14.4043C453.198 14.4043 451.335 15.3646 450.098 17.2852C448.861 19.1895 448.242 21.7936 448.242 25.0977C448.242 28.3854 448.853 30.9245 450.073 32.7148C451.31 34.5052 453.182 35.4004 455.688 35.4004ZM499.219 24.8535C499.219 27.0508 498.934 29.012 498.364 30.7373C497.795 32.4626 496.973 33.9193 495.898 35.1074C494.824 36.2956 493.522 37.207 491.992 37.8418C490.479 38.4603 488.761 38.7695 486.841 38.7695C485.05 38.7695 483.407 38.4603 481.909 37.8418C480.428 37.207 479.142 36.2956 478.052 35.1074C476.978 33.9193 476.139 32.4626 475.537 30.7373C474.951 29.012 474.658 27.0508 474.658 24.8535C474.658 21.9238 475.155 19.4336 476.147 17.3828C477.14 15.3158 478.556 13.7451 480.396 12.6709C482.251 11.5804 484.456 11.0352 487.012 11.0352C489.453 11.0352 491.585 11.5804 493.408 12.6709C495.247 13.7614 496.672 15.3402 497.681 17.4072C498.706 19.458 499.219 21.9401 499.219 24.8535ZM478.857 24.8535C478.857 27.002 479.142 28.8656 479.712 30.4443C480.282 32.0231 481.16 33.2438 482.349 34.1064C483.537 34.9691 485.067 35.4004 486.938 35.4004C488.794 35.4004 490.316 34.9691 491.504 34.1064C492.708 33.2438 493.595 32.0231 494.165 30.4443C494.735 28.8656 495.02 27.002 495.02 24.8535C495.02 22.7214 494.735 20.8822 494.165 19.3359C493.595 17.7734 492.716 16.569 491.528 15.7227C490.34 14.8763 488.802 14.4531 486.914 14.4531C484.131 14.4531 482.088 15.3727 480.786 17.2119C479.5 19.0511 478.857 21.5983 478.857 24.8535ZM548.267 11.0352C551.213 11.0352 553.434 11.8083 554.932 13.3545C556.429 14.8844 557.178 17.3503 557.178 20.752V38.2812H553.174V20.9473C553.174 18.7826 552.702 17.1631 551.758 16.0889C550.83 14.9984 549.447 14.4531 547.607 14.4531C545.02 14.4531 543.14 15.2018 541.968 16.6992C540.796 18.1966 540.21 20.402 540.21 23.3154V38.2812H536.182V20.9473C536.182 19.4987 535.97 18.2943 535.547 17.334C535.14 16.3737 534.521 15.6576 533.691 15.1855C532.878 14.6973 531.844 14.4531 530.591 14.4531C528.817 14.4531 527.393 14.8193 526.318 15.5518C525.244 16.2842 524.463 17.3747 523.975 18.8232C523.503 20.2555 523.267 22.0215 523.267 24.1211V38.2812H519.214V11.5234H522.485L523.096 15.3076H523.315C523.853 14.3799 524.528 13.5986 525.342 12.9639C526.156 12.3291 527.067 11.849 528.076 11.5234C529.085 11.1979 530.16 11.0352 531.299 11.0352C533.333 11.0352 535.034 11.4176 536.401 12.1826C537.785 12.9313 538.786 14.0788 539.404 15.625H539.624C540.503 14.0788 541.707 12.9313 543.237 12.1826C544.767 11.4176 546.444 11.0352 548.267 11.0352ZM588.574 24.8535C588.574 27.0508 588.289 29.012 587.72 30.7373C587.15 32.4626 586.328 33.9193 585.254 35.1074C584.18 36.2956 582.878 37.207 581.348 37.8418C579.834 38.4603 578.117 38.7695 576.196 38.7695C574.406 38.7695 572.762 38.4603 571.265 37.8418C569.784 37.207 568.498 36.2956 567.407 35.1074C566.333 33.9193 565.495 32.4626 564.893 30.7373C564.307 29.012 564.014 27.0508 564.014 24.8535C564.014 21.9238 564.51 19.4336 565.503 17.3828C566.496 15.3158 567.912 13.7451 569.751 12.6709C571.606 11.5804 573.812 11.0352 576.367 11.0352C578.809 11.0352 580.941 11.5804 582.764 12.6709C584.603 13.7614 586.027 15.3402 587.036 17.4072C588.062 19.458 588.574 21.9401 588.574 24.8535ZM568.213 24.8535C568.213 27.002 568.498 28.8656 569.067 30.4443C569.637 32.0231 570.516 33.2438 571.704 34.1064C572.892 34.9691 574.422 35.4004 576.294 35.4004C578.149 35.4004 579.671 34.9691 580.859 34.1064C582.064 33.2438 582.951 32.0231 583.521 30.4443C584.09 28.8656 584.375 27.002 584.375 24.8535C584.375 22.7214 584.09 20.8822 583.521 19.3359C582.951 17.7734 582.072 16.569 580.884 15.7227C579.696 14.8763 578.158 14.4531 576.27 14.4531C573.486 14.4531 571.444 15.3727 570.142 17.2119C568.856 19.0511 568.213 21.5983 568.213 24.8535ZM601.465 38.2812L591.309 11.5234H595.654L601.538 27.71C601.945 28.8167 602.36 30.0374 602.783 31.3721C603.206 32.7067 603.499 33.7809 603.662 34.5947H603.833C604.028 33.7809 604.354 32.7067 604.81 31.3721C605.265 30.0212 605.68 28.8005 606.055 27.71L611.938 11.5234H616.284L606.104 38.2812H601.465ZM624.634 11.5234V38.2812H620.581V11.5234H624.634ZM622.656 1.51367C623.324 1.51367 623.893 1.7334 624.365 2.17285C624.854 2.59603 625.098 3.26335 625.098 4.1748C625.098 5.06999 624.854 5.7373 624.365 6.17676C623.893 6.61621 623.324 6.83594 622.656 6.83594C621.956 6.83594 621.37 6.61621 620.898 6.17676C620.443 5.7373 620.215 5.06999 620.215 4.1748C620.215 3.26335 620.443 2.59603 620.898 2.17285C621.37 1.7334 621.956 1.51367 622.656 1.51367ZM662.28 11.0352C665.226 11.0352 667.448 11.8083 668.945 13.3545C670.443 14.8844 671.191 17.3503 671.191 20.752V38.2812H667.188V20.9473C667.188 18.7826 666.715 17.1631 665.771 16.0889C664.844 14.9984 663.46 14.4531 661.621 14.4531C659.033 14.4531 657.153 15.2018 655.981 16.6992C654.81 18.1966 654.224 20.402 654.224 23.3154V38.2812H650.195V20.9473C650.195 19.4987 649.984 18.2943 649.561 17.334C649.154 16.3737 648.535 15.6576 647.705 15.1855C646.891 14.6973 645.858 14.4531 644.604 14.4531C642.83 14.4531 641.406 14.8193 640.332 15.5518C639.258 16.2842 638.477 17.3747 637.988 18.8232C637.516 20.2555 637.28 22.0215 637.28 24.1211V38.2812H633.228V11.5234H636.499L637.109 15.3076H637.329C637.866 14.3799 638.542 13.5986 639.355 12.9639C640.169 12.3291 641.081 11.849 642.09 11.5234C643.099 11.1979 644.173 11.0352 645.312 11.0352C647.347 11.0352 649.048 11.4176 650.415 12.1826C651.799 12.9313 652.799 14.0788 653.418 15.625H653.638C654.517 14.0788 655.721 12.9313 657.251 12.1826C658.781 11.4176 660.457 11.0352 662.28 11.0352ZM689.819 11.0352C692.098 11.0352 694.051 11.5397 695.679 12.5488C697.306 13.5579 698.551 14.974 699.414 16.7969C700.277 18.6035 700.708 20.7194 700.708 23.1445V25.6592H682.227C682.275 28.8005 683.057 31.193 684.57 32.8369C686.084 34.4808 688.216 35.3027 690.967 35.3027C692.66 35.3027 694.157 35.1481 695.459 34.8389C696.761 34.5296 698.112 34.0739 699.512 33.4717V37.0361C698.161 37.6383 696.818 38.0778 695.483 38.3545C694.165 38.6312 692.603 38.7695 690.796 38.7695C688.224 38.7695 685.978 38.2487 684.058 37.207C682.153 36.1491 680.672 34.6029 679.614 32.5684C678.556 30.5339 678.027 28.0436 678.027 25.0977C678.027 22.2168 678.507 19.7266 679.468 17.627C680.444 15.5111 681.812 13.8835 683.569 12.7441C685.343 11.6048 687.427 11.0352 689.819 11.0352ZM689.771 14.3555C687.606 14.3555 685.881 15.0635 684.595 16.4795C683.309 17.8955 682.544 19.873 682.3 22.4121H696.46C696.444 20.8171 696.191 19.4173 695.703 18.2129C695.231 16.9922 694.507 16.0482 693.53 15.3809C692.554 14.6973 691.3 14.3555 689.771 14.3555ZM720.264 11.0352C723.438 11.0352 725.838 11.8164 727.466 13.3789C729.093 14.9251 729.907 17.4154 729.907 20.8496V38.2812H725.903V21.1182C725.903 18.8883 725.391 17.2201 724.365 16.1133C723.356 15.0065 721.802 14.4531 719.702 14.4531C716.74 14.4531 714.657 15.2913 713.452 16.9678C712.248 18.6442 711.646 21.0775 711.646 24.2676V38.2812H707.593V11.5234H710.864L711.475 15.3809H711.694C712.264 14.4368 712.988 13.6475 713.867 13.0127C714.746 12.3617 715.731 11.8734 716.821 11.5479C717.912 11.2061 719.059 11.0352 720.264 11.0352ZM746.899 35.4492C747.567 35.4492 748.25 35.3923 748.95 35.2783C749.65 35.1644 750.22 35.026 750.659 34.8633V38.0127C750.187 38.2243 749.528 38.4033 748.682 38.5498C747.852 38.6963 747.038 38.7695 746.24 38.7695C744.824 38.7695 743.538 38.5254 742.383 38.0371C741.227 37.5326 740.299 36.6862 739.6 35.498C738.916 34.3099 738.574 32.666 738.574 30.5664V14.6973H734.766V12.7197L738.599 11.1328L740.21 5.32227H742.651V11.5234H750.488V14.6973H742.651V30.4443C742.651 32.1208 743.034 33.374 743.799 34.2041C744.58 35.0342 745.614 35.4492 746.899 35.4492ZM779.15 24.8535C779.15 27.0508 778.866 29.012 778.296 30.7373C777.726 32.4626 776.904 33.9193 775.83 35.1074C774.756 36.2956 773.454 37.207 771.924 37.8418C770.41 38.4603 768.693 38.7695 766.772 38.7695C764.982 38.7695 763.338 38.4603 761.841 37.8418C760.36 37.207 759.074 36.2956 757.983 35.1074C756.909 33.9193 756.071 32.4626 755.469 30.7373C754.883 29.012 754.59 27.0508 754.59 24.8535C754.59 21.9238 755.086 19.4336 756.079 17.3828C757.072 15.3158 758.488 13.7451 760.327 12.6709C762.183 11.5804 764.388 11.0352 766.943 11.0352C769.385 11.0352 771.517 11.5804 773.34 12.6709C775.179 13.7614 776.603 15.3402 777.612 17.4072C778.638 19.458 779.15 21.9401 779.15 24.8535ZM758.789 24.8535C758.789 27.002 759.074 28.8656 759.644 30.4443C760.213 32.0231 761.092 33.2438 762.28 34.1064C763.468 34.9691 764.998 35.4004 766.87 35.4004C768.726 35.4004 770.247 34.9691 771.436 34.1064C772.64 33.2438 773.527 32.0231 774.097 30.4443C774.666 28.8656 774.951 27.002 774.951 24.8535C774.951 22.7214 774.666 20.8822 774.097 19.3359C773.527 17.7734 772.648 16.569 771.46 15.7227C770.272 14.8763 768.734 14.4531 766.846 14.4531C764.062 14.4531 762.02 15.3727 760.718 17.2119C759.432 19.0511 758.789 21.5983 758.789 24.8535ZM808.667 38.7695C805.282 38.7695 802.596 37.6139 800.61 35.3027C798.641 32.9915 797.656 29.5573 797.656 25C797.656 20.3939 798.665 16.9189 800.684 14.5752C802.702 12.2152 805.387 11.0352 808.74 11.0352C810.156 11.0352 811.393 11.2223 812.451 11.5967C813.509 11.971 814.421 12.4756 815.186 13.1104C815.951 13.7288 816.593 14.4368 817.114 15.2344H817.407C817.342 14.7298 817.277 14.0381 817.212 13.1592C817.147 12.2803 817.114 11.5641 817.114 11.0107V0.292969H821.167V38.2812H817.896L817.285 34.4727H817.114C816.61 35.2702 815.967 35.9945 815.186 36.6455C814.421 37.2965 813.501 37.8174 812.427 38.208C811.369 38.5824 810.116 38.7695 808.667 38.7695ZM809.302 35.4004C812.166 35.4004 814.193 34.5866 815.381 32.959C816.569 31.3314 817.163 28.9144 817.163 25.708V24.9756C817.163 21.5739 816.593 18.9616 815.454 17.1387C814.331 15.3158 812.28 14.4043 809.302 14.4043C806.812 14.4043 804.948 15.3646 803.711 17.2852C802.474 19.1895 801.855 21.7936 801.855 25.0977C801.855 28.3854 802.466 30.9245 803.687 32.7148C804.924 34.5052 806.795 35.4004 809.302 35.4004ZM840.063 11.0352C842.342 11.0352 844.295 11.5397 845.923 12.5488C847.55 13.5579 848.796 14.974 849.658 16.7969C850.521 18.6035 850.952 20.7194 850.952 23.1445V25.6592H832.471C832.52 28.8005 833.301 31.193 834.814 32.8369C836.328 34.4808 838.46 35.3027 841.211 35.3027C842.904 35.3027 844.401 35.1481 845.703 34.8389C847.005 34.5296 848.356 34.0739 849.756 33.4717V37.0361C848.405 37.6383 847.062 38.0778 845.728 38.3545C844.409 38.6312 842.847 38.7695 841.04 38.7695C838.468 38.7695 836.222 38.2487 834.302 37.207C832.397 36.1491 830.916 34.6029 829.858 32.5684C828.8 30.5339 828.271 28.0436 828.271 25.0977C828.271 22.2168 828.752 19.7266 829.712 17.627C830.688 15.5111 832.056 13.8835 833.813 12.7441C835.588 11.6048 837.671 11.0352 840.063 11.0352ZM840.015 14.3555C837.85 14.3555 836.125 15.0635 834.839 16.4795C833.553 17.8955 832.788 19.873 832.544 22.4121H846.704C846.688 20.8171 846.436 19.4173 845.947 18.2129C845.475 16.9922 844.751 16.0482 843.774 15.3809C842.798 14.6973 841.545 14.3555 840.015 14.3555ZM882.983 11.0352C883.521 11.0352 884.082 11.0677 884.668 11.1328C885.254 11.1816 885.775 11.2549 886.23 11.3525L885.718 15.1123C885.278 14.9984 884.79 14.9089 884.253 14.8438C883.716 14.7786 883.211 14.7461 882.739 14.7461C881.665 14.7461 880.648 14.9658 879.688 15.4053C878.743 15.8285 877.913 16.4469 877.197 17.2607C876.481 18.0583 875.92 19.0267 875.513 20.166C875.106 21.2891 874.902 22.5423 874.902 23.9258V38.2812H870.825V11.5234H874.194L874.634 16.4551H874.805C875.358 15.4622 876.025 14.5589 876.807 13.7451C877.588 12.915 878.491 12.2559 879.517 11.7676C880.558 11.2793 881.714 11.0352 882.983 11.0352ZM901.587 11.0352C903.866 11.0352 905.819 11.5397 907.446 12.5488C909.074 13.5579 910.319 14.974 911.182 16.7969C912.044 18.6035 912.476 20.7194 912.476 23.1445V25.6592H893.994C894.043 28.8005 894.824 31.193 896.338 32.8369C897.852 34.4808 899.984 35.3027 902.734 35.3027C904.427 35.3027 905.924 35.1481 907.227 34.8389C908.529 34.5296 909.88 34.0739 911.279 33.4717V37.0361C909.928 37.6383 908.586 38.0778 907.251 38.3545C905.933 38.6312 904.37 38.7695 902.563 38.7695C899.992 38.7695 897.746 38.2487 895.825 37.207C893.921 36.1491 892.44 34.6029 891.382 32.5684C890.324 30.5339 889.795 28.0436 889.795 25.0977C889.795 22.2168 890.275 19.7266 891.235 17.627C892.212 15.5111 893.579 13.8835 895.337 12.7441C897.111 11.6048 899.194 11.0352 901.587 11.0352ZM901.538 14.3555C899.373 14.3555 897.648 15.0635 896.362 16.4795C895.076 17.8955 894.312 19.873 894.067 22.4121H908.228C908.211 20.8171 907.959 19.4173 907.471 18.2129C906.999 16.9922 906.274 16.0482 905.298 15.3809C904.321 14.6973 903.068 14.3555 901.538 14.3555ZM931.274 14.6973H924.609V38.2812H920.557V14.6973H915.82V12.7441L920.557 11.4014V9.61914C920.557 7.37305 920.89 5.55013 921.558 4.15039C922.225 2.73438 923.193 1.69271 924.463 1.02539C925.732 0.358073 927.279 0.0244141 929.102 0.0244141C930.127 0.0244141 931.063 0.113932 931.909 0.292969C932.772 0.472005 933.529 0.675456 934.18 0.90332L933.13 4.10156C932.576 3.92253 931.95 3.75977 931.25 3.61328C930.566 3.45052 929.867 3.36914 929.15 3.36914C927.604 3.36914 926.457 3.8737 925.708 4.88281C924.976 5.87565 924.609 7.43815 924.609 9.57031V11.5234H931.274V14.6973ZM946.509 11.0352C948.787 11.0352 950.741 11.5397 952.368 12.5488C953.996 13.5579 955.241 14.974 956.104 16.7969C956.966 18.6035 957.397 20.7194 957.397 23.1445V25.6592H938.916C938.965 28.8005 939.746 31.193 941.26 32.8369C942.773 34.4808 944.906 35.3027 947.656 35.3027C949.349 35.3027 950.846 35.1481 952.148 34.8389C953.451 34.5296 954.801 34.0739 956.201 33.4717V37.0361C954.85 37.6383 953.507 38.0778 952.173 38.3545C950.854 38.6312 949.292 38.7695 947.485 38.7695C944.914 38.7695 942.668 38.2487 940.747 37.207C938.843 36.1491 937.362 34.6029 936.304 32.5684C935.246 30.5339 934.717 28.0436 934.717 25.0977C934.717 22.2168 935.197 19.7266 936.157 17.627C937.134 15.5111 938.501 13.8835 940.259 12.7441C942.033 11.6048 944.116 11.0352 946.509 11.0352ZM946.46 14.3555C944.295 14.3555 942.57 15.0635 941.284 16.4795C939.998 17.8955 939.233 19.873 938.989 22.4121H953.149C953.133 20.8171 952.881 19.4173 952.393 18.2129C951.921 16.9922 951.196 16.0482 950.22 15.3809C949.243 14.6973 947.99 14.3555 946.46 14.3555ZM976.44 11.0352C976.978 11.0352 977.539 11.0677 978.125 11.1328C978.711 11.1816 979.232 11.2549 979.688 11.3525L979.175 15.1123C978.735 14.9984 978.247 14.9089 977.71 14.8438C977.173 14.7786 976.668 14.7461 976.196 14.7461C975.122 14.7461 974.105 14.9658 973.145 15.4053C972.201 15.8285 971.37 16.4469 970.654 17.2607C969.938 18.0583 969.377 19.0267 968.97 20.166C968.563 21.2891 968.359 22.5423 968.359 23.9258V38.2812H964.282V11.5234H967.651L968.091 16.4551H968.262C968.815 15.4622 969.482 14.5589 970.264 13.7451C971.045 12.915 971.948 12.2559 972.974 11.7676C974.015 11.2793 975.171 11.0352 976.44 11.0352ZM995.044 11.0352C997.323 11.0352 999.276 11.5397 1000.9 12.5488C1002.53 13.5579 1003.78 14.974 1004.64 16.7969C1005.5 18.6035 1005.93 20.7194 1005.93 23.1445V25.6592H987.451C987.5 28.8005 988.281 31.193 989.795 32.8369C991.309 34.4808 993.441 35.3027 996.191 35.3027C997.884 35.3027 999.382 35.1481 1000.68 34.8389C1001.99 34.5296 1003.34 34.0739 1004.74 33.4717V37.0361C1003.39 37.6383 1002.04 38.0778 1000.71 38.3545C999.39 38.6312 997.827 38.7695 996.021 38.7695C993.449 38.7695 991.203 38.2487 989.282 37.207C987.378 36.1491 985.897 34.6029 984.839 32.5684C983.781 30.5339 983.252 28.0436 983.252 25.0977C983.252 22.2168 983.732 19.7266 984.692 17.627C985.669 15.5111 987.036 13.8835 988.794 12.7441C990.568 11.6048 992.651 11.0352 995.044 11.0352ZM994.995 14.3555C992.83 14.3555 991.105 15.0635 989.819 16.4795C988.534 17.8955 987.769 19.873 987.524 22.4121H1001.68C1001.67 20.8171 1001.42 19.4173 1000.93 18.2129C1000.46 16.9922 999.731 16.0482 998.755 15.3809C997.778 14.6973 996.525 14.3555 994.995 14.3555ZM996.802 0C997.209 0.732422 997.778 1.5625 998.511 2.49023C999.243 3.40169 1000.02 4.29688 1000.83 5.17578C1001.64 6.05469 1002.37 6.81152 1003 7.44629V7.9834H1000.12C999.243 7.41374 998.34 6.71387 997.412 5.88379C996.484 5.05371 995.581 4.19108 994.702 3.2959C993.823 4.19108 992.928 5.05371 992.017 5.88379C991.121 6.69759 990.234 7.39746 989.355 7.9834H986.572V7.44629C987.191 6.79525 987.891 6.03027 988.672 5.15137C989.469 4.27246 990.226 3.37728 990.942 2.46582C991.675 1.55436 992.253 0.732422 992.676 0H996.802ZM1025.49 11.0352C1028.66 11.0352 1031.06 11.8164 1032.69 13.3789C1034.32 14.9251 1035.13 17.4154 1035.13 20.8496V38.2812H1031.13V21.1182C1031.13 18.8883 1030.62 17.2201 1029.59 16.1133C1028.58 15.0065 1027.03 14.4531 1024.93 14.4531C1021.96 14.4531 1019.88 15.2913 1018.68 16.9678C1017.47 18.6442 1016.87 21.0775 1016.87 24.2676V38.2812H1012.82V11.5234H1016.09L1016.7 15.3809H1016.92C1017.49 14.4368 1018.21 13.6475 1019.09 13.0127C1019.97 12.3617 1020.96 11.8734 1022.05 11.5479C1023.14 11.2061 1024.28 11.0352 1025.49 11.0352ZM1054.2 38.7695C1051.79 38.7695 1049.67 38.2731 1047.83 37.2803C1045.99 36.2874 1044.56 34.7738 1043.53 32.7393C1042.5 30.7048 1041.99 28.1413 1041.99 25.0488C1041.99 21.8099 1042.53 19.165 1043.6 17.1143C1044.69 15.0472 1046.19 13.5173 1048.1 12.5244C1050 11.5316 1052.16 11.0352 1054.59 11.0352C1055.92 11.0352 1057.21 11.1735 1058.45 11.4502C1059.7 11.7106 1060.73 12.0443 1061.52 12.4512L1060.3 15.8447C1059.49 15.5192 1058.54 15.2262 1057.47 14.9658C1056.41 14.7054 1055.42 14.5752 1054.49 14.5752C1052.64 14.5752 1051.09 14.974 1049.85 15.7715C1048.63 16.569 1047.71 17.7409 1047.09 19.2871C1046.49 20.8333 1046.19 22.7376 1046.19 25C1046.19 27.1647 1046.48 29.012 1047.07 30.542C1047.67 32.0719 1048.56 33.2438 1049.73 34.0576C1050.92 34.8551 1052.4 35.2539 1054.17 35.2539C1055.59 35.2539 1056.87 35.1074 1058.01 34.8145C1059.15 34.5052 1060.18 34.1471 1061.11 33.7402V37.3535C1060.21 37.8092 1059.21 38.1592 1058.11 38.4033C1057.01 38.6475 1055.71 38.7695 1054.2 38.7695ZM1071.51 11.5234V38.2812H1067.46V11.5234H1071.51ZM1069.53 1.51367C1070.2 1.51367 1070.77 1.7334 1071.24 2.17285C1071.73 2.59603 1071.97 3.26335 1071.97 4.1748C1071.97 5.06999 1071.73 5.7373 1071.24 6.17676C1070.77 6.61621 1070.2 6.83594 1069.53 6.83594C1068.83 6.83594 1068.25 6.61621 1067.77 6.17676C1067.32 5.7373 1067.09 5.06999 1067.09 4.1748C1067.09 3.26335 1067.32 2.59603 1067.77 2.17285C1068.25 1.7334 1068.83 1.51367 1069.53 1.51367ZM1090.11 11.084C1093.3 11.084 1095.67 11.8001 1097.22 13.2324C1098.76 14.6647 1099.54 16.9515 1099.54 20.0928V38.2812H1096.58L1095.8 34.3262H1095.61C1094.86 35.3027 1094.08 36.1247 1093.26 36.792C1092.45 37.443 1091.5 37.9395 1090.43 38.2812C1089.37 38.6068 1088.07 38.7695 1086.52 38.7695C1084.9 38.7695 1083.45 38.4847 1082.18 37.915C1080.92 37.3454 1079.93 36.4827 1079.2 35.3271C1078.48 34.1715 1078.12 32.7067 1078.12 30.9326C1078.12 28.2633 1079.18 26.2126 1081.3 24.7803C1083.41 23.348 1086.64 22.5667 1090.97 22.4365L1095.58 22.2412V20.6055C1095.58 18.2943 1095.08 16.6748 1094.09 15.7471C1093.1 14.8193 1091.7 14.3555 1089.89 14.3555C1088.49 14.3555 1087.16 14.5589 1085.89 14.9658C1084.62 15.3727 1083.41 15.8529 1082.28 16.4062L1081.03 13.3301C1082.23 12.7116 1083.62 12.1826 1085.18 11.7432C1086.74 11.3037 1088.39 11.084 1090.11 11.084ZM1095.53 25.0977L1091.46 25.2686C1088.12 25.3988 1085.77 25.944 1084.4 26.9043C1083.03 27.8646 1082.35 29.2236 1082.35 30.9814C1082.35 32.5114 1082.81 33.6426 1083.74 34.375C1084.67 35.1074 1085.9 35.4736 1087.43 35.4736C1089.8 35.4736 1091.75 34.8145 1093.26 33.4961C1094.78 32.1777 1095.53 30.2002 1095.53 27.5635V25.0977ZM1133.45 11.0352C1136.78 11.0352 1139.44 12.1826 1141.43 14.4775C1143.42 16.7725 1144.41 20.223 1144.41 24.8291C1144.41 27.8727 1143.95 30.4281 1143.04 32.4951C1142.13 34.5622 1140.84 36.1247 1139.18 37.1826C1137.54 38.2406 1135.6 38.7695 1133.35 38.7695C1131.93 38.7695 1130.69 38.5824 1129.61 38.208C1128.54 37.8337 1127.62 37.3291 1126.86 36.6943C1126.09 36.0596 1125.46 35.3678 1124.95 34.6191H1124.66C1124.71 35.2539 1124.76 36.0189 1124.83 36.9141C1124.91 37.8092 1124.95 38.5905 1124.95 39.2578V50.2441H1120.87V11.5234H1124.22L1124.76 15.4785H1124.95C1125.47 14.6647 1126.11 13.9242 1126.86 13.2568C1127.6 12.5732 1128.52 12.0361 1129.59 11.6455C1130.68 11.2386 1131.97 11.0352 1133.45 11.0352ZM1132.74 14.4531C1130.88 14.4531 1129.39 14.8112 1128.25 15.5273C1127.12 16.2435 1126.3 17.3177 1125.78 18.75C1125.26 20.166 1124.98 21.9482 1124.95 24.0967V24.8779C1124.95 27.1403 1125.2 29.0527 1125.68 30.6152C1126.19 32.1777 1127.01 33.3659 1128.15 34.1797C1129.31 34.9935 1130.85 35.4004 1132.79 35.4004C1134.45 35.4004 1135.83 34.9528 1136.94 34.0576C1138.05 33.1624 1138.87 31.9173 1139.4 30.3223C1139.96 28.7109 1140.23 26.8636 1140.23 24.7803C1140.23 21.6227 1139.62 19.1162 1138.38 17.2607C1137.16 15.389 1135.28 14.4531 1132.74 14.4531ZM1161.5 11.084C1164.69 11.084 1167.06 11.8001 1168.6 13.2324C1170.15 14.6647 1170.92 16.9515 1170.92 20.0928V38.2812H1167.97L1167.19 34.3262H1166.99C1166.24 35.3027 1165.46 36.1247 1164.65 36.792C1163.83 37.443 1162.89 37.9395 1161.82 38.2812C1160.76 38.6068 1159.46 38.7695 1157.91 38.7695C1156.28 38.7695 1154.83 38.4847 1153.56 37.915C1152.31 37.3454 1151.32 36.4827 1150.59 35.3271C1149.87 34.1715 1149.51 32.7067 1149.51 30.9326C1149.51 28.2633 1150.57 26.2126 1152.69 24.7803C1154.8 23.348 1158.02 22.5667 1162.35 22.4365L1166.97 22.2412V20.6055C1166.97 18.2943 1166.47 16.6748 1165.48 15.7471C1164.49 14.8193 1163.09 14.3555 1161.28 14.3555C1159.88 14.3555 1158.54 14.5589 1157.28 14.9658C1156.01 15.3727 1154.8 15.8529 1153.66 16.4062L1152.42 13.3301C1153.62 12.7116 1155 12.1826 1156.57 11.7432C1158.13 11.3037 1159.77 11.084 1161.5 11.084ZM1166.92 25.0977L1162.84 25.2686C1159.51 25.3988 1157.15 25.944 1155.79 26.9043C1154.42 27.8646 1153.74 29.2236 1153.74 30.9814C1153.74 32.5114 1154.2 33.6426 1155.13 34.375C1156.05 35.1074 1157.28 35.4736 1158.81 35.4736C1161.19 35.4736 1163.13 34.8145 1164.65 33.4961C1166.16 32.1777 1166.92 30.2002 1166.92 27.5635V25.0977ZM1191.43 11.0352C1191.97 11.0352 1192.53 11.0677 1193.12 11.1328C1193.7 11.1816 1194.22 11.2549 1194.68 11.3525L1194.17 15.1123C1193.73 14.9984 1193.24 14.9089 1192.7 14.8438C1192.16 14.7786 1191.66 14.7461 1191.19 14.7461C1190.11 14.7461 1189.1 14.9658 1188.13 15.4053C1187.19 15.8285 1186.36 16.4469 1185.64 17.2607C1184.93 18.0583 1184.37 19.0267 1183.96 20.166C1183.55 21.2891 1183.35 22.5423 1183.35 23.9258V38.2812H1179.27V11.5234H1182.64L1183.08 16.4551H1183.25C1183.81 15.4622 1184.47 14.5589 1185.25 13.7451C1186.04 12.915 1186.94 12.2559 1187.96 11.7676C1189.01 11.2793 1190.16 11.0352 1191.43 11.0352ZM1209.74 11.084C1212.93 11.084 1215.3 11.8001 1216.85 13.2324C1218.39 14.6647 1219.17 16.9515 1219.17 20.0928V38.2812H1216.21L1215.43 34.3262H1215.23C1214.49 35.3027 1213.7 36.1247 1212.89 36.792C1212.08 37.443 1211.13 37.9395 1210.06 38.2812C1209 38.6068 1207.7 38.7695 1206.15 38.7695C1204.52 38.7695 1203.08 38.4847 1201.81 37.915C1200.55 37.3454 1199.56 36.4827 1198.83 35.3271C1198.11 34.1715 1197.75 32.7067 1197.75 30.9326C1197.75 28.2633 1198.81 26.2126 1200.93 24.7803C1203.04 23.348 1206.27 22.5667 1210.6 22.4365L1215.21 22.2412V20.6055C1215.21 18.2943 1214.71 16.6748 1213.72 15.7471C1212.73 14.8193 1211.33 14.3555 1209.52 14.3555C1208.12 14.3555 1206.79 14.5589 1205.52 14.9658C1204.25 15.3727 1203.04 15.8529 1201.9 16.4062L1200.66 13.3301C1201.86 12.7116 1203.25 12.1826 1204.81 11.7432C1206.37 11.3037 1208.02 11.084 1209.74 11.084ZM1215.16 25.0977L1211.08 25.2686C1207.75 25.3988 1205.4 25.944 1204.03 26.9043C1202.66 27.8646 1201.98 29.2236 1201.98 30.9814C1201.98 32.5114 1202.44 33.6426 1203.37 34.375C1204.3 35.1074 1205.53 35.4736 1207.06 35.4736C1209.43 35.4736 1211.38 34.8145 1212.89 33.4961C1214.4 32.1777 1215.16 30.2002 1215.16 27.5635V25.0977ZM1250.51 11.084C1253.7 11.084 1256.07 11.8001 1257.62 13.2324C1259.16 14.6647 1259.94 16.9515 1259.94 20.0928V38.2812H1256.98L1256.2 34.3262H1256.01C1255.26 35.3027 1254.48 36.1247 1253.66 36.792C1252.85 37.443 1251.9 37.9395 1250.83 38.2812C1249.77 38.6068 1248.47 38.7695 1246.92 38.7695C1245.3 38.7695 1243.85 38.4847 1242.58 37.915C1241.32 37.3454 1240.33 36.4827 1239.6 35.3271C1238.88 34.1715 1238.53 32.7067 1238.53 30.9326C1238.53 28.2633 1239.58 26.2126 1241.7 24.7803C1243.82 23.348 1247.04 22.5667 1251.37 22.4365L1255.98 22.2412V20.6055C1255.98 18.2943 1255.49 16.6748 1254.49 15.7471C1253.5 14.8193 1252.1 14.3555 1250.29 14.3555C1248.89 14.3555 1247.56 14.5589 1246.29 14.9658C1245.02 15.3727 1243.82 15.8529 1242.68 16.4062L1241.43 13.3301C1242.64 12.7116 1244.02 12.1826 1245.58 11.7432C1247.14 11.3037 1248.79 11.084 1250.51 11.084ZM1255.93 25.0977L1251.86 25.2686C1248.52 25.3988 1246.17 25.944 1244.8 26.9043C1243.43 27.8646 1242.75 29.2236 1242.75 30.9814C1242.75 32.5114 1243.21 33.6426 1244.14 34.375C1245.07 35.1074 1246.3 35.4736 1247.83 35.4736C1250.2 35.4736 1252.15 34.8145 1253.66 33.4961C1255.18 32.1777 1255.93 30.2002 1255.93 27.5635V25.0977ZM1291.99 38.7695C1289.58 38.7695 1287.46 38.2731 1285.62 37.2803C1283.78 36.2874 1282.35 34.7738 1281.32 32.7393C1280.3 30.7048 1279.79 28.1413 1279.79 25.0488C1279.79 21.8099 1280.32 19.165 1281.4 17.1143C1282.49 15.0472 1283.98 13.5173 1285.89 12.5244C1287.79 11.5316 1289.96 11.0352 1292.38 11.0352C1293.72 11.0352 1295 11.1735 1296.24 11.4502C1297.49 11.7106 1298.52 12.0443 1299.32 12.4512L1298.1 15.8447C1297.28 15.5192 1296.34 15.2262 1295.26 14.9658C1294.21 14.7054 1293.21 14.5752 1292.29 14.5752C1290.43 14.5752 1288.88 14.974 1287.65 15.7715C1286.43 16.569 1285.51 17.7409 1284.89 19.2871C1284.29 20.8333 1283.98 22.7376 1283.98 25C1283.98 27.1647 1284.28 29.012 1284.86 30.542C1285.47 32.0719 1286.35 33.2438 1287.52 34.0576C1288.71 34.8551 1290.19 35.2539 1291.97 35.2539C1293.38 35.2539 1294.66 35.1074 1295.8 34.8145C1296.94 34.5052 1297.97 34.1471 1298.9 33.7402V37.3535C1298.01 37.8092 1297.01 38.1592 1295.9 38.4033C1294.81 38.6475 1293.51 38.7695 1291.99 38.7695ZM1327.34 11.5234V38.2812H1324.02L1323.44 34.5215H1323.22C1322.66 35.4492 1321.95 36.2305 1321.07 36.8652C1320.19 37.5 1319.2 37.972 1318.09 38.2812C1317 38.6068 1315.84 38.7695 1314.6 38.7695C1312.48 38.7695 1310.71 38.4277 1309.28 37.7441C1307.85 37.0605 1306.76 36.0026 1306.03 34.5703C1305.31 33.138 1304.96 31.2988 1304.96 29.0527V11.5234H1309.06V28.7598C1309.06 30.9896 1309.56 32.6579 1310.57 33.7646C1311.58 34.8551 1313.12 35.4004 1315.19 35.4004C1317.17 35.4004 1318.75 35.026 1319.92 34.2773C1321.11 33.5286 1321.96 32.43 1322.49 30.9814C1323.01 29.5166 1323.27 27.7262 1323.27 25.6104V11.5234H1327.34ZM1339.99 38.2812H1335.91V0.292969H1339.99V38.2812ZM1357.2 35.4492C1357.87 35.4492 1358.55 35.3923 1359.25 35.2783C1359.95 35.1644 1360.52 35.026 1360.96 34.8633V38.0127C1360.49 38.2243 1359.83 38.4033 1358.98 38.5498C1358.15 38.6963 1357.34 38.7695 1356.54 38.7695C1355.13 38.7695 1353.84 38.5254 1352.69 38.0371C1351.53 37.5326 1350.6 36.6862 1349.9 35.498C1349.22 34.3099 1348.88 32.666 1348.88 30.5664V14.6973H1345.07V12.7197L1348.9 11.1328L1350.51 5.32227H1352.95V11.5234H1360.79V14.6973H1352.95V30.4443C1352.95 32.1208 1353.34 33.374 1354.1 34.2041C1354.88 35.0342 1355.92 35.4492 1357.2 35.4492ZM1388.48 11.5234V38.2812H1385.16L1384.57 34.5215H1384.35C1383.8 35.4492 1383.08 36.2305 1382.2 36.8652C1381.32 37.5 1380.33 37.972 1379.22 38.2812C1378.13 38.6068 1376.97 38.7695 1375.73 38.7695C1373.62 38.7695 1371.84 38.4277 1370.41 37.7441C1368.98 37.0605 1367.9 36.0026 1367.16 34.5703C1366.45 33.138 1366.09 31.2988 1366.09 29.0527V11.5234H1370.19V28.7598C1370.19 30.9896 1370.69 32.6579 1371.7 33.7646C1372.71 34.8551 1374.25 35.4004 1376.32 35.4004C1378.3 35.4004 1379.88 35.026 1381.05 34.2773C1382.24 33.5286 1383.1 32.43 1383.62 30.9814C1384.14 29.5166 1384.4 27.7262 1384.4 25.6104V11.5234H1388.48ZM1409.2 11.0352C1409.74 11.0352 1410.3 11.0677 1410.89 11.1328C1411.47 11.1816 1412 11.2549 1412.45 11.3525L1411.94 15.1123C1411.5 14.9984 1411.01 14.9089 1410.47 14.8438C1409.94 14.7786 1409.43 14.7461 1408.96 14.7461C1407.89 14.7461 1406.87 14.9658 1405.91 15.4053C1404.96 15.8285 1404.13 16.4469 1403.42 17.2607C1402.7 18.0583 1402.14 19.0267 1401.73 20.166C1401.33 21.2891 1401.12 22.5423 1401.12 23.9258V38.2812H1397.05V11.5234H1400.42L1400.85 16.4551H1401.03C1401.58 15.4622 1402.25 14.5589 1403.03 13.7451C1403.81 12.915 1404.71 12.2559 1405.74 11.7676C1406.78 11.2793 1407.93 11.0352 1409.2 11.0352ZM1427.51 11.084C1430.7 11.084 1433.07 11.8001 1434.62 13.2324C1436.17 14.6647 1436.94 16.9515 1436.94 20.0928V38.2812H1433.98L1433.2 34.3262H1433.01C1432.26 35.3027 1431.48 36.1247 1430.66 36.792C1429.85 37.443 1428.91 37.9395 1427.83 38.2812C1426.77 38.6068 1425.47 38.7695 1423.93 38.7695C1422.3 38.7695 1420.85 38.4847 1419.58 37.915C1418.33 37.3454 1417.33 36.4827 1416.6 35.3271C1415.89 34.1715 1415.53 32.7067 1415.53 30.9326C1415.53 28.2633 1416.59 26.2126 1418.7 24.7803C1420.82 23.348 1424.04 22.5667 1428.37 22.4365L1432.98 22.2412V20.6055C1432.98 18.2943 1432.49 16.6748 1431.49 15.7471C1430.5 14.8193 1429.1 14.3555 1427.29 14.3555C1425.9 14.3555 1424.56 14.5589 1423.29 14.9658C1422.02 15.3727 1420.82 15.8529 1419.68 16.4062L1418.43 13.3301C1419.64 12.7116 1421.02 12.1826 1422.58 11.7432C1424.15 11.3037 1425.79 11.084 1427.51 11.084ZM1432.93 25.0977L1428.86 25.2686C1425.52 25.3988 1423.17 25.944 1421.8 26.9043C1420.43 27.8646 1419.75 29.2236 1419.75 30.9814C1419.75 32.5114 1420.21 33.6426 1421.14 34.375C1422.07 35.1074 1423.3 35.4736 1424.83 35.4736C1427.21 35.4736 1429.15 34.8145 1430.66 33.4961C1432.18 32.1777 1432.93 30.2002 1432.93 27.5635V25.0977ZM1467.8 38.7695C1464.41 38.7695 1461.73 37.6139 1459.74 35.3027C1457.77 32.9915 1456.79 29.5573 1456.79 25C1456.79 20.3939 1457.8 16.9189 1459.81 14.5752C1461.83 12.2152 1464.52 11.0352 1467.87 11.0352C1469.29 11.0352 1470.52 11.2223 1471.58 11.5967C1472.64 11.971 1473.55 12.4756 1474.32 13.1104C1475.08 13.7288 1475.72 14.4368 1476.25 15.2344H1476.54C1476.47 14.7298 1476.41 14.0381 1476.34 13.1592C1476.28 12.2803 1476.25 11.5641 1476.25 11.0107V0.292969H1480.3V38.2812H1477.03L1476.42 34.4727H1476.25C1475.74 35.2702 1475.1 35.9945 1474.32 36.6455C1473.55 37.2965 1472.63 37.8174 1471.56 38.208C1470.5 38.5824 1469.25 38.7695 1467.8 38.7695ZM1468.43 35.4004C1471.3 35.4004 1473.32 34.5866 1474.51 32.959C1475.7 31.3314 1476.29 28.9144 1476.29 25.708V24.9756C1476.29 21.5739 1475.72 18.9616 1474.58 17.1387C1473.46 15.3158 1471.41 14.4043 1468.43 14.4043C1465.94 14.4043 1464.08 15.3646 1462.84 17.2852C1461.6 19.1895 1460.99 21.7936 1460.99 25.0977C1460.99 28.3854 1461.6 30.9245 1462.82 32.7148C1464.05 34.5052 1465.93 35.4004 1468.43 35.4004ZM1511.96 24.8535C1511.96 27.0508 1511.68 29.012 1511.11 30.7373C1510.54 32.4626 1509.72 33.9193 1508.64 35.1074C1507.57 36.2956 1506.27 37.207 1504.74 37.8418C1503.22 38.4603 1501.51 38.7695 1499.58 38.7695C1497.79 38.7695 1496.15 38.4603 1494.65 37.8418C1493.17 37.207 1491.89 36.2956 1490.8 35.1074C1489.72 33.9193 1488.88 32.4626 1488.28 30.7373C1487.7 29.012 1487.4 27.0508 1487.4 24.8535C1487.4 21.9238 1487.9 19.4336 1488.89 17.3828C1489.88 15.3158 1491.3 13.7451 1493.14 12.6709C1495 11.5804 1497.2 11.0352 1499.76 11.0352C1502.2 11.0352 1504.33 11.5804 1506.15 12.6709C1507.99 13.7614 1509.42 15.3402 1510.42 17.4072C1511.45 19.458 1511.96 21.9401 1511.96 24.8535ZM1491.6 24.8535C1491.6 27.002 1491.89 28.8656 1492.46 30.4443C1493.03 32.0231 1493.9 33.2438 1495.09 34.1064C1496.28 34.9691 1497.81 35.4004 1499.68 35.4004C1501.54 35.4004 1503.06 34.9691 1504.25 34.1064C1505.45 33.2438 1506.34 32.0231 1506.91 30.4443C1507.48 28.8656 1507.76 27.002 1507.76 24.8535C1507.76 22.7214 1507.48 20.8822 1506.91 19.3359C1506.34 17.7734 1505.46 16.569 1504.27 15.7227C1503.08 14.8763 1501.55 14.4531 1499.66 14.4531C1496.88 14.4531 1494.83 15.3727 1493.53 17.2119C1492.24 19.0511 1491.6 21.5983 1491.6 24.8535ZM14.209 93.7695C11.8001 93.7695 9.67611 93.2731 7.83691 92.2803C5.99772 91.2874 4.56543 89.7738 3.54004 87.7393C2.51465 85.7048 2.00195 83.1413 2.00195 80.0488C2.00195 76.8099 2.53906 74.165 3.61328 72.1143C4.70378 70.0472 6.20117 68.5173 8.10547 67.5244C10.0098 66.5316 12.1745 66.0352 14.5996 66.0352C15.9342 66.0352 17.2201 66.1735 18.457 66.4502C19.7103 66.7106 20.7357 67.0443 21.5332 67.4512L20.3125 70.8447C19.4987 70.5192 18.5547 70.2262 17.4805 69.9658C16.4225 69.7054 15.4297 69.5752 14.502 69.5752C12.6465 69.5752 11.1003 69.974 9.86328 70.7715C8.64258 71.569 7.72298 72.7409 7.10449 74.2871C6.50228 75.8333 6.20117 77.7376 6.20117 80C6.20117 82.1647 6.49414 84.012 7.08008 85.542C7.68229 87.0719 8.56934 88.2438 9.74121 89.0576C10.9294 89.8551 12.4105 90.2539 14.1846 90.2539C15.6006 90.2539 16.8783 90.1074 18.0176 89.8145C19.1569 89.5052 20.1904 89.1471 21.1182 88.7402V92.3535C20.223 92.8092 19.222 93.1592 18.1152 93.4033C17.0247 93.6475 15.7227 93.7695 14.209 93.7695ZM50.5371 79.8535C50.5371 82.0508 50.2523 84.012 49.6826 85.7373C49.113 87.4626 48.291 88.9193 47.2168 90.1074C46.1426 91.2956 44.8405 92.207 43.3105 92.8418C41.7969 93.4603 40.0798 93.7695 38.1592 93.7695C36.3688 93.7695 34.7249 93.4603 33.2275 92.8418C31.7464 92.207 30.4606 91.2956 29.3701 90.1074C28.2959 88.9193 27.4577 87.4626 26.8555 85.7373C26.2695 84.012 25.9766 82.0508 25.9766 79.8535C25.9766 76.9238 26.473 74.4336 27.4658 72.3828C28.4587 70.3158 29.8747 68.7451 31.7139 67.6709C33.5693 66.5804 35.7747 66.0352 38.3301 66.0352C40.7715 66.0352 42.9036 66.5804 44.7266 67.6709C46.5658 68.7614 47.9899 70.3402 48.999 72.4072C50.0244 74.458 50.5371 76.9401 50.5371 79.8535ZM30.1758 79.8535C30.1758 82.002 30.4606 83.8656 31.0303 85.4443C31.5999 87.0231 32.4788 88.2438 33.667 89.1064C34.8551 89.9691 36.3851 90.4004 38.2568 90.4004C40.1123 90.4004 41.6341 89.9691 42.8223 89.1064C44.0267 88.2438 44.9137 87.0231 45.4834 85.4443C46.0531 83.8656 46.3379 82.002 46.3379 79.8535C46.3379 77.7214 46.0531 75.8822 45.4834 74.3359C44.9137 72.7734 44.0348 71.569 42.8467 70.7227C41.6585 69.8763 40.1204 69.4531 38.2324 69.4531C35.4492 69.4531 33.4066 70.3727 32.1045 72.2119C30.8187 74.0511 30.1758 76.5983 30.1758 79.8535ZM86.5967 66.0352C89.5426 66.0352 91.7643 66.8083 93.2617 68.3545C94.7591 69.8844 95.5078 72.3503 95.5078 75.752V93.2812H91.5039V75.9473C91.5039 73.7826 91.0319 72.1631 90.0879 71.0889C89.1602 69.9984 87.7767 69.4531 85.9375 69.4531C83.3496 69.4531 81.4697 70.2018 80.2979 71.6992C79.126 73.1966 78.54 75.402 78.54 78.3154V93.2812H74.5117V75.9473C74.5117 74.4987 74.3001 73.2943 73.877 72.334C73.4701 71.3737 72.8516 70.6576 72.0215 70.1855C71.2077 69.6973 70.1742 69.4531 68.9209 69.4531C67.1468 69.4531 65.7227 69.8193 64.6484 70.5518C63.5742 71.2842 62.793 72.3747 62.3047 73.8232C61.8327 75.2555 61.5967 77.0215 61.5967 79.1211V93.2812H57.5439V66.5234H60.8154L61.4258 70.3076H61.6455C62.1826 69.3799 62.8581 68.5986 63.6719 67.9639C64.4857 67.3291 65.3971 66.849 66.4062 66.5234C67.4154 66.1979 68.4896 66.0352 69.6289 66.0352C71.6634 66.0352 73.3643 66.4176 74.7314 67.1826C76.1149 67.9313 77.1159 69.0788 77.7344 70.625H77.9541C78.833 69.0788 80.0374 67.9313 81.5674 67.1826C83.0973 66.4176 84.7738 66.0352 86.5967 66.0352ZM116.406 66.0352C119.743 66.0352 122.404 67.1826 124.39 69.4775C126.375 71.7725 127.368 75.223 127.368 79.8291C127.368 82.8727 126.912 85.4281 126.001 87.4951C125.09 89.5622 123.804 91.1247 122.144 92.1826C120.5 93.2406 118.555 93.7695 116.309 93.7695C114.893 93.7695 113.647 93.5824 112.573 93.208C111.499 92.8337 110.579 92.3291 109.814 91.6943C109.049 91.0596 108.415 90.3678 107.91 89.6191H107.617C107.666 90.2539 107.723 91.0189 107.788 91.9141C107.869 92.8092 107.91 93.5905 107.91 94.2578V105.244H103.833V66.5234H107.178L107.715 70.4785H107.91C108.431 69.6647 109.066 68.9242 109.814 68.2568C110.563 67.5732 111.475 67.0361 112.549 66.6455C113.639 66.2386 114.925 66.0352 116.406 66.0352ZM115.698 69.4531C113.843 69.4531 112.345 69.8112 111.206 70.5273C110.083 71.2435 109.261 72.3177 108.74 73.75C108.219 75.166 107.943 76.9482 107.91 79.0967V79.8779C107.91 82.1403 108.154 84.0527 108.643 85.6152C109.147 87.1777 109.969 88.3659 111.108 89.1797C112.264 89.9935 113.81 90.4004 115.747 90.4004C117.407 90.4004 118.791 89.9528 119.897 89.0576C121.004 88.1624 121.826 86.9173 122.363 85.3223C122.917 83.7109 123.193 81.8636 123.193 79.7803C123.193 76.6227 122.575 74.1162 121.338 72.2607C120.117 70.389 118.237 69.4531 115.698 69.4531ZM146.606 66.0352C147.144 66.0352 147.705 66.0677 148.291 66.1328C148.877 66.1816 149.398 66.2549 149.854 66.3525L149.341 70.1123C148.901 69.9984 148.413 69.9089 147.876 69.8438C147.339 69.7786 146.834 69.7461 146.362 69.7461C145.288 69.7461 144.271 69.9658 143.311 70.4053C142.367 70.8285 141.536 71.4469 140.82 72.2607C140.104 73.0583 139.543 74.0267 139.136 75.166C138.729 76.2891 138.525 77.5423 138.525 78.9258V93.2812H134.448V66.5234H137.817L138.257 71.4551H138.428C138.981 70.4622 139.648 69.5589 140.43 68.7451C141.211 67.915 142.114 67.2559 143.14 66.7676C144.181 66.2793 145.337 66.0352 146.606 66.0352ZM177.979 79.8535C177.979 82.0508 177.694 84.012 177.124 85.7373C176.554 87.4626 175.732 88.9193 174.658 90.1074C173.584 91.2956 172.282 92.207 170.752 92.8418C169.238 93.4603 167.521 93.7695 165.601 93.7695C163.81 93.7695 162.166 93.4603 160.669 92.8418C159.188 92.207 157.902 91.2956 156.812 90.1074C155.737 88.9193 154.899 87.4626 154.297 85.7373C153.711 84.012 153.418 82.0508 153.418 79.8535C153.418 76.9238 153.914 74.4336 154.907 72.3828C155.9 70.3158 157.316 68.7451 159.155 67.6709C161.011 66.5804 163.216 66.0352 165.771 66.0352C168.213 66.0352 170.345 66.5804 172.168 67.6709C174.007 68.7614 175.431 70.3402 176.44 72.4072C177.466 74.458 177.979 76.9401 177.979 79.8535ZM157.617 79.8535C157.617 82.002 157.902 83.8656 158.472 85.4443C159.041 87.0231 159.92 88.2438 161.108 89.1064C162.297 89.9691 163.826 90.4004 165.698 90.4004C167.554 90.4004 169.076 89.9691 170.264 89.1064C171.468 88.2438 172.355 87.0231 172.925 85.4443C173.494 83.8656 173.779 82.002 173.779 79.8535C173.779 77.7214 173.494 75.8822 172.925 74.3359C172.355 72.7734 171.476 71.569 170.288 70.7227C169.1 69.8763 167.562 69.4531 165.674 69.4531C162.891 69.4531 160.848 70.3727 159.546 72.2119C158.26 74.0511 157.617 76.5983 157.617 79.8535ZM214.038 66.0352C216.984 66.0352 219.206 66.8083 220.703 68.3545C222.201 69.8844 222.949 72.3503 222.949 75.752V93.2812H218.945V75.9473C218.945 73.7826 218.473 72.1631 217.529 71.0889C216.602 69.9984 215.218 69.4531 213.379 69.4531C210.791 69.4531 208.911 70.2018 207.739 71.6992C206.567 73.1966 205.981 75.402 205.981 78.3154V93.2812H201.953V75.9473C201.953 74.4987 201.742 73.2943 201.318 72.334C200.911 71.3737 200.293 70.6576 199.463 70.1855C198.649 69.6973 197.616 69.4531 196.362 69.4531C194.588 69.4531 193.164 69.8193 192.09 70.5518C191.016 71.2842 190.234 72.3747 189.746 73.8232C189.274 75.2555 189.038 77.0215 189.038 79.1211V93.2812H184.985V66.5234H188.257L188.867 70.3076H189.087C189.624 69.3799 190.299 68.5986 191.113 67.9639C191.927 67.3291 192.839 66.849 193.848 66.5234C194.857 66.1979 195.931 66.0352 197.07 66.0352C199.105 66.0352 200.806 66.4176 202.173 67.1826C203.556 67.9313 204.557 69.0788 205.176 70.625H205.396C206.274 69.0788 207.479 67.9313 209.009 67.1826C210.539 66.4176 212.215 66.0352 214.038 66.0352ZM235.327 66.5234V93.2812H231.274V66.5234H235.327ZM233.35 56.5137C234.017 56.5137 234.587 56.7334 235.059 57.1729C235.547 57.596 235.791 58.2633 235.791 59.1748C235.791 60.07 235.547 60.7373 235.059 61.1768C234.587 61.6162 234.017 61.8359 233.35 61.8359C232.65 61.8359 232.064 61.6162 231.592 61.1768C231.136 60.7373 230.908 60.07 230.908 59.1748C230.908 58.2633 231.136 57.596 231.592 57.1729C232.064 56.7334 232.65 56.5137 233.35 56.5137ZM261.23 85.957C261.23 87.666 260.799 89.1064 259.937 90.2783C259.09 91.4339 257.869 92.3047 256.274 92.8906C254.696 93.4766 252.808 93.7695 250.61 93.7695C248.739 93.7695 247.119 93.623 245.752 93.3301C244.385 93.0371 243.188 92.6221 242.163 92.085V88.3496C243.254 88.8867 244.556 89.375 246.069 89.8145C247.583 90.2539 249.129 90.4736 250.708 90.4736C253.019 90.4736 254.696 90.0993 255.737 89.3506C256.779 88.6019 257.3 87.5846 257.3 86.2988C257.3 85.5664 257.088 84.9235 256.665 84.3701C256.258 83.8005 255.566 83.2552 254.59 82.7344C253.613 82.1973 252.262 81.6113 250.537 80.9766C248.828 80.3255 247.347 79.6826 246.094 79.0479C244.857 78.3968 243.896 77.6074 243.213 76.6797C242.546 75.752 242.212 74.5475 242.212 73.0664C242.212 70.804 243.123 69.0706 244.946 67.8662C246.785 66.6455 249.194 66.0352 252.173 66.0352C253.784 66.0352 255.29 66.1979 256.689 66.5234C258.105 66.8327 259.424 67.2559 260.645 67.793L259.277 71.04C258.171 70.568 256.991 70.1693 255.737 69.8438C254.484 69.5182 253.206 69.3555 251.904 69.3555C250.033 69.3555 248.592 69.6647 247.583 70.2832C246.59 70.9017 246.094 71.748 246.094 72.8223C246.094 73.6523 246.322 74.3359 246.777 74.873C247.249 75.4102 247.998 75.9147 249.023 76.3867C250.049 76.8587 251.4 77.4121 253.076 78.0469C254.753 78.6654 256.201 79.3083 257.422 79.9756C258.643 80.6266 259.578 81.4242 260.229 82.3682C260.897 83.2959 261.23 84.4922 261.23 85.957ZM285.059 85.957C285.059 87.666 284.627 89.1064 283.765 90.2783C282.918 91.4339 281.698 92.3047 280.103 92.8906C278.524 93.4766 276.636 93.7695 274.438 93.7695C272.567 93.7695 270.947 93.623 269.58 93.3301C268.213 93.0371 267.017 92.6221 265.991 92.085V88.3496C267.082 88.8867 268.384 89.375 269.897 89.8145C271.411 90.2539 272.957 90.4736 274.536 90.4736C276.847 90.4736 278.524 90.0993 279.565 89.3506C280.607 88.6019 281.128 87.5846 281.128 86.2988C281.128 85.5664 280.916 84.9235 280.493 84.3701C280.086 83.8005 279.395 83.2552 278.418 82.7344C277.441 82.1973 276.09 81.6113 274.365 80.9766C272.656 80.3255 271.175 79.6826 269.922 79.0479C268.685 78.3968 267.725 77.6074 267.041 76.6797C266.374 75.752 266.04 74.5475 266.04 73.0664C266.04 70.804 266.951 69.0706 268.774 67.8662C270.614 66.6455 273.022 66.0352 276.001 66.0352C277.612 66.0352 279.118 66.1979 280.518 66.5234C281.934 66.8327 283.252 67.2559 284.473 67.793L283.105 71.04C281.999 70.568 280.819 70.1693 279.565 69.8438C278.312 69.5182 277.035 69.3555 275.732 69.3555C273.861 69.3555 272.42 69.6647 271.411 70.2832C270.418 70.9017 269.922 71.748 269.922 72.8223C269.922 73.6523 270.15 74.3359 270.605 74.873C271.077 75.4102 271.826 75.9147 272.852 76.3867C273.877 76.8587 275.228 77.4121 276.904 78.0469C278.581 78.6654 280.029 79.3083 281.25 79.9756C282.471 80.6266 283.407 81.4242 284.058 82.3682C284.725 83.2959 285.059 84.4922 285.059 85.957ZM314.648 79.8535C314.648 82.0508 314.364 84.012 313.794 85.7373C313.224 87.4626 312.402 88.9193 311.328 90.1074C310.254 91.2956 308.952 92.207 307.422 92.8418C305.908 93.4603 304.191 93.7695 302.271 93.7695C300.48 93.7695 298.836 93.4603 297.339 92.8418C295.858 92.207 294.572 91.2956 293.481 90.1074C292.407 88.9193 291.569 87.4626 290.967 85.7373C290.381 84.012 290.088 82.0508 290.088 79.8535C290.088 76.9238 290.584 74.4336 291.577 72.3828C292.57 70.3158 293.986 68.7451 295.825 67.6709C297.681 66.5804 299.886 66.0352 302.441 66.0352C304.883 66.0352 307.015 66.5804 308.838 67.6709C310.677 68.7614 312.101 70.3402 313.11 72.4072C314.136 74.458 314.648 76.9401 314.648 79.8535ZM294.287 79.8535C294.287 82.002 294.572 83.8656 295.142 85.4443C295.711 87.0231 296.59 88.2438 297.778 89.1064C298.966 89.9691 300.496 90.4004 302.368 90.4004C304.224 90.4004 305.745 89.9691 306.934 89.1064C308.138 88.2438 309.025 87.0231 309.595 85.4443C310.164 83.8656 310.449 82.002 310.449 79.8535C310.449 77.7214 310.164 75.8822 309.595 74.3359C309.025 72.7734 308.146 71.569 306.958 70.7227C305.77 69.8763 304.232 69.4531 302.344 69.4531C299.561 69.4531 297.518 70.3727 296.216 72.2119C294.93 74.0511 294.287 76.5983 294.287 79.8535ZM324.414 83.3691V82.0996C324.414 80.7975 324.536 79.6826 324.78 78.7549C325.024 77.8109 325.448 76.932 326.05 76.1182C326.668 75.3044 327.523 74.4417 328.613 73.5303C329.883 72.4723 330.884 71.5771 331.616 70.8447C332.365 70.096 332.902 69.3473 333.228 68.5986C333.553 67.8499 333.716 66.9466 333.716 65.8887C333.716 64.196 333.171 62.902 332.08 62.0068C330.99 61.0954 329.451 60.6396 327.466 60.6396C325.854 60.6396 324.422 60.8431 323.169 61.25C321.916 61.6569 320.711 62.1452 319.556 62.7148L318.14 59.4434C319.474 58.7435 320.923 58.1738 322.485 57.7344C324.048 57.2949 325.789 57.0752 327.71 57.0752C330.851 57.0752 333.285 57.8564 335.01 59.4189C336.735 60.9652 337.598 63.0973 337.598 65.8154C337.598 67.3291 337.354 68.623 336.865 69.6973C336.377 70.7552 335.685 71.7318 334.79 72.627C333.895 73.5059 332.837 74.4417 331.616 75.4346C330.542 76.346 329.72 77.1517 329.15 77.8516C328.581 78.5352 328.19 79.2432 327.979 79.9756C327.767 80.6917 327.661 81.5544 327.661 82.5635V83.3691H324.414ZM323.34 90.7422C323.34 89.6029 323.608 88.7972 324.146 88.3252C324.683 87.8369 325.374 87.5928 326.221 87.5928C327.018 87.5928 327.694 87.8369 328.247 88.3252C328.817 88.7972 329.102 89.6029 329.102 90.7422C329.102 91.8652 328.817 92.6872 328.247 93.208C327.694 93.7126 327.018 93.9648 326.221 93.9648C325.374 93.9648 324.683 93.7126 324.146 93.208C323.608 92.6872 323.34 91.8652 323.34 90.7422ZM12.1338 200.449C12.8011 200.449 13.4847 200.392 14.1846 200.278C14.8844 200.164 15.4541 200.026 15.8936 199.863V203.013C15.4215 203.224 14.7624 203.403 13.916 203.55C13.0859 203.696 12.2721 203.77 11.4746 203.77C10.0586 203.77 8.77279 203.525 7.61719 203.037C6.46159 202.533 5.53385 201.686 4.83398 200.498C4.15039 199.31 3.80859 197.666 3.80859 195.566V179.697H0V177.72L3.83301 176.133L5.44434 170.322H7.88574V176.523H15.7227V179.697H7.88574V195.444C7.88574 197.121 8.26823 198.374 9.0332 199.204C9.81445 200.034 10.848 200.449 12.1338 200.449ZM44.3848 189.854C44.3848 192.051 44.0999 194.012 43.5303 195.737C42.9606 197.463 42.1387 198.919 41.0645 200.107C39.9902 201.296 38.6882 202.207 37.1582 202.842C35.6445 203.46 33.9274 203.77 32.0068 203.77C30.2165 203.77 28.5726 203.46 27.0752 202.842C25.5941 202.207 24.3083 201.296 23.2178 200.107C22.1436 198.919 21.3053 197.463 20.7031 195.737C20.1172 194.012 19.8242 192.051 19.8242 189.854C19.8242 186.924 20.3206 184.434 21.3135 182.383C22.3063 180.316 23.7223 178.745 25.5615 177.671C27.417 176.58 29.6224 176.035 32.1777 176.035C34.6191 176.035 36.7513 176.58 38.5742 177.671C40.4134 178.761 41.8376 180.34 42.8467 182.407C43.8721 184.458 44.3848 186.94 44.3848 189.854ZM24.0234 189.854C24.0234 192.002 24.3083 193.866 24.8779 195.444C25.4476 197.023 26.3265 198.244 27.5146 199.106C28.7028 199.969 30.2327 200.4 32.1045 200.4C33.96 200.4 35.4818 199.969 36.6699 199.106C37.8743 198.244 38.7614 197.023 39.3311 195.444C39.9007 193.866 40.1855 192.002 40.1855 189.854C40.1855 187.721 39.9007 185.882 39.3311 184.336C38.7614 182.773 37.8825 181.569 36.6943 180.723C35.5062 179.876 33.9681 179.453 32.0801 179.453C29.2969 179.453 27.2542 180.373 25.9521 182.212C24.6663 184.051 24.0234 186.598 24.0234 189.854ZM63.5498 176.035C64.0869 176.035 64.6484 176.068 65.2344 176.133C65.8203 176.182 66.3411 176.255 66.7969 176.353L66.2842 180.112C65.8447 179.998 65.3564 179.909 64.8193 179.844C64.2822 179.779 63.7777 179.746 63.3057 179.746C62.2314 179.746 61.2142 179.966 60.2539 180.405C59.3099 180.828 58.4798 181.447 57.7637 182.261C57.0475 183.058 56.486 184.027 56.0791 185.166C55.6722 186.289 55.4688 187.542 55.4688 188.926V203.281H51.3916V176.523H54.7607L55.2002 181.455H55.3711C55.9245 180.462 56.5918 179.559 57.373 178.745C58.1543 177.915 59.0576 177.256 60.083 176.768C61.1247 176.279 62.2803 176.035 63.5498 176.035ZM84.5215 176.035C87.6953 176.035 90.096 176.816 91.7236 178.379C93.3512 179.925 94.165 182.415 94.165 185.85V203.281H90.1611V186.118C90.1611 183.888 89.6484 182.22 88.623 181.113C87.6139 180.007 86.0596 179.453 83.96 179.453C80.9977 179.453 78.9144 180.291 77.71 181.968C76.5055 183.644 75.9033 186.077 75.9033 189.268V203.281H71.8506V176.523H75.1221L75.7324 180.381H75.9521C76.5218 179.437 77.2461 178.647 78.125 178.013C79.0039 177.362 79.9886 176.873 81.0791 176.548C82.1696 176.206 83.3171 176.035 84.5215 176.035ZM112.524 176.084C115.715 176.084 118.083 176.8 119.629 178.232C121.175 179.665 121.948 181.951 121.948 185.093V203.281H118.994L118.213 199.326H118.018C117.269 200.303 116.488 201.125 115.674 201.792C114.86 202.443 113.916 202.939 112.842 203.281C111.784 203.607 110.482 203.77 108.936 203.77C107.308 203.77 105.859 203.485 104.59 202.915C103.337 202.345 102.344 201.483 101.611 200.327C100.895 199.172 100.537 197.707 100.537 195.933C100.537 193.263 101.595 191.213 103.711 189.78C105.827 188.348 109.049 187.567 113.379 187.437L117.993 187.241V185.605C117.993 183.294 117.497 181.675 116.504 180.747C115.511 179.819 114.111 179.355 112.305 179.355C110.905 179.355 109.57 179.559 108.301 179.966C107.031 180.373 105.827 180.853 104.688 181.406L103.442 178.33C104.647 177.712 106.03 177.183 107.593 176.743C109.155 176.304 110.799 176.084 112.524 176.084ZM117.944 190.098L113.867 190.269C110.531 190.399 108.179 190.944 106.812 191.904C105.444 192.865 104.761 194.224 104.761 195.981C104.761 197.511 105.225 198.643 106.152 199.375C107.08 200.107 108.309 200.474 109.839 200.474C112.215 200.474 114.16 199.814 115.674 198.496C117.188 197.178 117.944 195.2 117.944 192.563V190.098ZM128.027 191.66V188.047H140.137V191.66H128.027ZM155.054 200.449C155.721 200.449 156.405 200.392 157.104 200.278C157.804 200.164 158.374 200.026 158.813 199.863V203.013C158.341 203.224 157.682 203.403 156.836 203.55C156.006 203.696 155.192 203.77 154.395 203.77C152.979 203.77 151.693 203.525 150.537 203.037C149.382 202.533 148.454 201.686 147.754 200.498C147.07 199.31 146.729 197.666 146.729 195.566V179.697H142.92V177.72L146.753 176.133L148.364 170.322H150.806V176.523H158.643V179.697H150.806V195.444C150.806 197.121 151.188 198.374 151.953 199.204C152.734 200.034 153.768 200.449 155.054 200.449ZM174.536 176.035C176.815 176.035 178.768 176.54 180.396 177.549C182.023 178.558 183.268 179.974 184.131 181.797C184.993 183.604 185.425 185.719 185.425 188.145V190.659H166.943C166.992 193.8 167.773 196.193 169.287 197.837C170.801 199.481 172.933 200.303 175.684 200.303C177.376 200.303 178.874 200.148 180.176 199.839C181.478 199.53 182.829 199.074 184.229 198.472V202.036C182.878 202.638 181.535 203.078 180.2 203.354C178.882 203.631 177.319 203.77 175.513 203.77C172.941 203.77 170.695 203.249 168.774 202.207C166.87 201.149 165.389 199.603 164.331 197.568C163.273 195.534 162.744 193.044 162.744 190.098C162.744 187.217 163.224 184.727 164.185 182.627C165.161 180.511 166.528 178.883 168.286 177.744C170.06 176.605 172.144 176.035 174.536 176.035ZM174.487 179.355C172.323 179.355 170.597 180.063 169.312 181.479C168.026 182.896 167.261 184.873 167.017 187.412H181.177C181.16 185.817 180.908 184.417 180.42 183.213C179.948 181.992 179.224 181.048 178.247 180.381C177.271 179.697 176.017 179.355 174.487 179.355ZM209.351 176.523V203.281H205.298V176.523H209.351ZM207.373 166.514C208.04 166.514 208.61 166.733 209.082 167.173C209.57 167.596 209.814 168.263 209.814 169.175C209.814 170.07 209.57 170.737 209.082 171.177C208.61 171.616 208.04 171.836 207.373 171.836C206.673 171.836 206.087 171.616 205.615 171.177C205.16 170.737 204.932 170.07 204.932 169.175C204.932 168.263 205.16 167.596 205.615 167.173C206.087 166.733 206.673 166.514 207.373 166.514ZM246.997 176.035C249.943 176.035 252.165 176.808 253.662 178.354C255.16 179.884 255.908 182.35 255.908 185.752V203.281H251.904V185.947C251.904 183.783 251.432 182.163 250.488 181.089C249.561 179.998 248.177 179.453 246.338 179.453C243.75 179.453 241.87 180.202 240.698 181.699C239.526 183.197 238.94 185.402 238.94 188.315V203.281H234.912V185.947C234.912 184.499 234.701 183.294 234.277 182.334C233.87 181.374 233.252 180.658 232.422 180.186C231.608 179.697 230.575 179.453 229.321 179.453C227.547 179.453 226.123 179.819 225.049 180.552C223.975 181.284 223.193 182.375 222.705 183.823C222.233 185.256 221.997 187.021 221.997 189.121V203.281H217.944V176.523H221.216L221.826 180.308H222.046C222.583 179.38 223.258 178.599 224.072 177.964C224.886 177.329 225.798 176.849 226.807 176.523C227.816 176.198 228.89 176.035 230.029 176.035C232.064 176.035 233.765 176.418 235.132 177.183C236.515 177.931 237.516 179.079 238.135 180.625H238.354C239.233 179.079 240.438 177.931 241.968 177.183C243.498 176.418 245.174 176.035 246.997 176.035ZM276.807 176.035C280.143 176.035 282.804 177.183 284.79 179.478C286.776 181.772 287.769 185.223 287.769 189.829C287.769 192.873 287.313 195.428 286.401 197.495C285.49 199.562 284.204 201.125 282.544 202.183C280.9 203.241 278.955 203.77 276.709 203.77C275.293 203.77 274.048 203.582 272.974 203.208C271.899 202.834 270.98 202.329 270.215 201.694C269.45 201.06 268.815 200.368 268.311 199.619H268.018C268.066 200.254 268.123 201.019 268.188 201.914C268.27 202.809 268.311 203.59 268.311 204.258V215.244H264.233V176.523H267.578L268.115 180.479H268.311C268.831 179.665 269.466 178.924 270.215 178.257C270.964 177.573 271.875 177.036 272.949 176.646C274.04 176.239 275.326 176.035 276.807 176.035ZM276.099 179.453C274.243 179.453 272.746 179.811 271.606 180.527C270.483 181.243 269.661 182.318 269.141 183.75C268.62 185.166 268.343 186.948 268.311 189.097V189.878C268.311 192.14 268.555 194.053 269.043 195.615C269.548 197.178 270.369 198.366 271.509 199.18C272.664 199.993 274.211 200.4 276.147 200.4C277.808 200.4 279.191 199.953 280.298 199.058C281.405 198.162 282.227 196.917 282.764 195.322C283.317 193.711 283.594 191.864 283.594 189.78C283.594 186.623 282.975 184.116 281.738 182.261C280.518 180.389 278.638 179.453 276.099 179.453ZM316.943 176.523V203.281H313.623L313.037 199.521H312.817C312.264 200.449 311.548 201.23 310.669 201.865C309.79 202.5 308.797 202.972 307.69 203.281C306.6 203.607 305.436 203.77 304.199 203.77C302.083 203.77 300.309 203.428 298.877 202.744C297.445 202.061 296.362 201.003 295.63 199.57C294.914 198.138 294.556 196.299 294.556 194.053V176.523H298.657V193.76C298.657 195.99 299.162 197.658 300.171 198.765C301.18 199.855 302.718 200.4 304.785 200.4C306.771 200.4 308.35 200.026 309.521 199.277C310.71 198.529 311.564 197.43 312.085 195.981C312.606 194.517 312.866 192.726 312.866 190.61V176.523H316.943ZM329.59 203.281H325.513V165.293H329.59V203.281ZM355.469 195.957C355.469 197.666 355.037 199.106 354.175 200.278C353.328 201.434 352.108 202.305 350.513 202.891C348.934 203.477 347.046 203.77 344.849 203.77C342.977 203.77 341.357 203.623 339.99 203.33C338.623 203.037 337.427 202.622 336.401 202.085V198.35C337.492 198.887 338.794 199.375 340.308 199.814C341.821 200.254 343.368 200.474 344.946 200.474C347.257 200.474 348.934 200.099 349.976 199.351C351.017 198.602 351.538 197.585 351.538 196.299C351.538 195.566 351.326 194.924 350.903 194.37C350.496 193.8 349.805 193.255 348.828 192.734C347.852 192.197 346.501 191.611 344.775 190.977C343.066 190.326 341.585 189.683 340.332 189.048C339.095 188.397 338.135 187.607 337.451 186.68C336.784 185.752 336.45 184.548 336.45 183.066C336.45 180.804 337.362 179.071 339.185 177.866C341.024 176.646 343.433 176.035 346.411 176.035C348.022 176.035 349.528 176.198 350.928 176.523C352.344 176.833 353.662 177.256 354.883 177.793L353.516 181.04C352.409 180.568 351.229 180.169 349.976 179.844C348.722 179.518 347.445 179.355 346.143 179.355C344.271 179.355 342.83 179.665 341.821 180.283C340.828 180.902 340.332 181.748 340.332 182.822C340.332 183.652 340.56 184.336 341.016 184.873C341.488 185.41 342.236 185.915 343.262 186.387C344.287 186.859 345.638 187.412 347.314 188.047C348.991 188.665 350.439 189.308 351.66 189.976C352.881 190.627 353.817 191.424 354.468 192.368C355.135 193.296 355.469 194.492 355.469 195.957ZM366.04 176.523V203.281H361.987V176.523H366.04ZM364.062 166.514C364.73 166.514 365.299 166.733 365.771 167.173C366.26 167.596 366.504 168.263 366.504 169.175C366.504 170.07 366.26 170.737 365.771 171.177C365.299 171.616 364.73 171.836 364.062 171.836C363.363 171.836 362.777 171.616 362.305 171.177C361.849 170.737 361.621 170.07 361.621 169.175C361.621 168.263 361.849 167.596 362.305 167.173C362.777 166.733 363.363 166.514 364.062 166.514ZM397.705 189.854C397.705 192.051 397.42 194.012 396.851 195.737C396.281 197.463 395.459 198.919 394.385 200.107C393.311 201.296 392.008 202.207 390.479 202.842C388.965 203.46 387.248 203.77 385.327 203.77C383.537 203.77 381.893 203.46 380.396 202.842C378.914 202.207 377.629 201.296 376.538 200.107C375.464 198.919 374.626 197.463 374.023 195.737C373.438 194.012 373.145 192.051 373.145 189.854C373.145 186.924 373.641 184.434 374.634 182.383C375.627 180.316 377.043 178.745 378.882 177.671C380.737 176.58 382.943 176.035 385.498 176.035C387.939 176.035 390.072 176.58 391.895 177.671C393.734 178.761 395.158 180.34 396.167 182.407C397.192 184.458 397.705 186.94 397.705 189.854ZM377.344 189.854C377.344 192.002 377.629 193.866 378.198 195.444C378.768 197.023 379.647 198.244 380.835 199.106C382.023 199.969 383.553 200.4 385.425 200.4C387.28 200.4 388.802 199.969 389.99 199.106C391.195 198.244 392.082 197.023 392.651 195.444C393.221 193.866 393.506 192.002 393.506 189.854C393.506 187.721 393.221 185.882 392.651 184.336C392.082 182.773 391.203 181.569 390.015 180.723C388.826 179.876 387.288 179.453 385.4 179.453C382.617 179.453 380.575 180.373 379.272 182.212C377.987 184.051 377.344 186.598 377.344 189.854ZM417.383 176.035C420.557 176.035 422.957 176.816 424.585 178.379C426.213 179.925 427.026 182.415 427.026 185.85V203.281H423.022V186.118C423.022 183.888 422.51 182.22 421.484 181.113C420.475 180.007 418.921 179.453 416.821 179.453C413.859 179.453 411.776 180.291 410.571 181.968C409.367 183.644 408.765 186.077 408.765 189.268V203.281H404.712V176.523H407.983L408.594 180.381H408.813C409.383 179.437 410.107 178.647 410.986 178.013C411.865 177.362 412.85 176.873 413.94 176.548C415.031 176.206 416.178 176.035 417.383 176.035ZM445.386 176.084C448.576 176.084 450.944 176.8 452.49 178.232C454.036 179.665 454.81 181.951 454.81 185.093V203.281H451.855L451.074 199.326H450.879C450.13 200.303 449.349 201.125 448.535 201.792C447.721 202.443 446.777 202.939 445.703 203.281C444.645 203.607 443.343 203.77 441.797 203.77C440.169 203.77 438.721 203.485 437.451 202.915C436.198 202.345 435.205 201.483 434.473 200.327C433.757 199.172 433.398 197.707 433.398 195.933C433.398 193.263 434.456 191.213 436.572 189.78C438.688 188.348 441.911 187.567 446.24 187.437L450.854 187.241V185.605C450.854 183.294 450.358 181.675 449.365 180.747C448.372 179.819 446.973 179.355 445.166 179.355C443.766 179.355 442.432 179.559 441.162 179.966C439.893 180.373 438.688 180.853 437.549 181.406L436.304 178.33C437.508 177.712 438.892 177.183 440.454 176.743C442.017 176.304 443.66 176.084 445.386 176.084ZM450.806 190.098L446.729 190.269C443.392 190.399 441.04 190.944 439.673 191.904C438.306 192.865 437.622 194.224 437.622 195.981C437.622 197.511 438.086 198.643 439.014 199.375C439.941 200.107 441.17 200.474 442.7 200.474C445.076 200.474 447.021 199.814 448.535 198.496C450.049 197.178 450.806 195.2 450.806 192.563V190.098ZM472.681 203.77C469.295 203.77 466.61 202.614 464.624 200.303C462.655 197.992 461.67 194.557 461.67 190C461.67 185.394 462.679 181.919 464.697 179.575C466.715 177.215 469.401 176.035 472.754 176.035C474.17 176.035 475.407 176.222 476.465 176.597C477.523 176.971 478.434 177.476 479.199 178.11C479.964 178.729 480.607 179.437 481.128 180.234H481.421C481.356 179.73 481.291 179.038 481.226 178.159C481.16 177.28 481.128 176.564 481.128 176.011V165.293H485.181V203.281H481.909L481.299 199.473H481.128C480.623 200.27 479.98 200.994 479.199 201.646C478.434 202.297 477.515 202.817 476.44 203.208C475.382 203.582 474.129 203.77 472.681 203.77ZM473.315 200.4C476.18 200.4 478.206 199.587 479.395 197.959C480.583 196.331 481.177 193.914 481.177 190.708V189.976C481.177 186.574 480.607 183.962 479.468 182.139C478.345 180.316 476.294 179.404 473.315 179.404C470.825 179.404 468.962 180.365 467.725 182.285C466.488 184.189 465.869 186.794 465.869 190.098C465.869 193.385 466.479 195.924 467.7 197.715C468.937 199.505 470.809 200.4 473.315 200.4ZM516.846 189.854C516.846 192.051 516.561 194.012 515.991 195.737C515.422 197.463 514.6 198.919 513.525 200.107C512.451 201.296 511.149 202.207 509.619 202.842C508.105 203.46 506.388 203.77 504.468 203.77C502.677 203.77 501.034 203.46 499.536 202.842C498.055 202.207 496.769 201.296 495.679 200.107C494.604 198.919 493.766 197.463 493.164 195.737C492.578 194.012 492.285 192.051 492.285 189.854C492.285 186.924 492.782 184.434 493.774 182.383C494.767 180.316 496.183 178.745 498.022 177.671C499.878 176.58 502.083 176.035 504.639 176.035C507.08 176.035 509.212 176.58 511.035 177.671C512.874 178.761 514.299 180.34 515.308 182.407C516.333 184.458 516.846 186.94 516.846 189.854ZM496.484 189.854C496.484 192.002 496.769 193.866 497.339 195.444C497.909 197.023 498.787 198.244 499.976 199.106C501.164 199.969 502.694 200.4 504.565 200.4C506.421 200.4 507.943 199.969 509.131 199.106C510.335 198.244 511.222 197.023 511.792 195.444C512.362 193.866 512.646 192.002 512.646 189.854C512.646 187.721 512.362 185.882 511.792 184.336C511.222 182.773 510.343 181.569 509.155 180.723C507.967 179.876 506.429 179.453 504.541 179.453C501.758 179.453 499.715 180.373 498.413 182.212C497.127 184.051 496.484 186.598 496.484 189.854ZM536.011 176.035C536.548 176.035 537.109 176.068 537.695 176.133C538.281 176.182 538.802 176.255 539.258 176.353L538.745 180.112C538.306 179.998 537.817 179.909 537.28 179.844C536.743 179.779 536.239 179.746 535.767 179.746C534.692 179.746 533.675 179.966 532.715 180.405C531.771 180.828 530.941 181.447 530.225 182.261C529.508 183.058 528.947 184.027 528.54 185.166C528.133 186.289 527.93 187.542 527.93 188.926V203.281H523.853V176.523H527.222L527.661 181.455H527.832C528.385 180.462 529.053 179.559 529.834 178.745C530.615 177.915 531.519 177.256 532.544 176.768C533.586 176.279 534.741 176.035 536.011 176.035ZM580.371 189.854C580.371 192.051 580.086 194.012 579.517 195.737C578.947 197.463 578.125 198.919 577.051 200.107C575.977 201.296 574.674 202.207 573.145 202.842C571.631 203.46 569.914 203.77 567.993 203.77C566.203 203.77 564.559 203.46 563.062 202.842C561.58 202.207 560.295 201.296 559.204 200.107C558.13 198.919 557.292 197.463 556.689 195.737C556.104 194.012 555.811 192.051 555.811 189.854C555.811 186.924 556.307 184.434 557.3 182.383C558.293 180.316 559.709 178.745 561.548 177.671C563.403 176.58 565.609 176.035 568.164 176.035C570.605 176.035 572.738 176.58 574.561 177.671C576.4 178.761 577.824 180.34 578.833 182.407C579.858 184.458 580.371 186.94 580.371 189.854ZM560.01 189.854C560.01 192.002 560.295 193.866 560.864 195.444C561.434 197.023 562.313 198.244 563.501 199.106C564.689 199.969 566.219 200.4 568.091 200.4C569.946 200.4 571.468 199.969 572.656 199.106C573.861 198.244 574.748 197.023 575.317 195.444C575.887 193.866 576.172 192.002 576.172 189.854C576.172 187.721 575.887 185.882 575.317 184.336C574.748 182.773 573.869 181.569 572.681 180.723C571.493 179.876 569.954 179.453 568.066 179.453C565.283 179.453 563.241 180.373 561.938 182.212C560.653 184.051 560.01 186.598 560.01 189.854ZM609.473 176.523V203.281H606.152L605.566 199.521H605.347C604.793 200.449 604.077 201.23 603.198 201.865C602.319 202.5 601.326 202.972 600.22 203.281C599.129 203.607 597.965 203.77 596.729 203.77C594.613 203.77 592.839 203.428 591.406 202.744C589.974 202.061 588.892 201.003 588.159 199.57C587.443 198.138 587.085 196.299 587.085 194.053V176.523H591.187V193.76C591.187 195.99 591.691 197.658 592.7 198.765C593.709 199.855 595.247 200.4 597.314 200.4C599.3 200.4 600.879 200.026 602.051 199.277C603.239 198.529 604.093 197.43 604.614 195.981C605.135 194.517 605.396 192.726 605.396 190.61V176.523H609.473ZM636.914 203.281L626.758 176.523H631.104L636.987 192.71C637.394 193.817 637.809 195.037 638.232 196.372C638.656 197.707 638.949 198.781 639.111 199.595H639.282C639.478 198.781 639.803 197.707 640.259 196.372C640.715 195.021 641.13 193.8 641.504 192.71L647.388 176.523H651.733L641.553 203.281H636.914ZM679.102 189.854C679.102 192.051 678.817 194.012 678.247 195.737C677.677 197.463 676.855 198.919 675.781 200.107C674.707 201.296 673.405 202.207 671.875 202.842C670.361 203.46 668.644 203.77 666.724 203.77C664.933 203.77 663.289 203.46 661.792 202.842C660.311 202.207 659.025 201.296 657.935 200.107C656.86 198.919 656.022 197.463 655.42 195.737C654.834 194.012 654.541 192.051 654.541 189.854C654.541 186.924 655.037 184.434 656.03 182.383C657.023 180.316 658.439 178.745 660.278 177.671C662.134 176.58 664.339 176.035 666.895 176.035C669.336 176.035 671.468 176.58 673.291 177.671C675.13 178.761 676.554 180.34 677.563 182.407C678.589 184.458 679.102 186.94 679.102 189.854ZM658.74 189.854C658.74 192.002 659.025 193.866 659.595 195.444C660.164 197.023 661.043 198.244 662.231 199.106C663.42 199.969 664.95 200.4 666.821 200.4C668.677 200.4 670.199 199.969 671.387 199.106C672.591 198.244 673.478 197.023 674.048 195.444C674.618 193.866 674.902 192.002 674.902 189.854C674.902 187.721 674.618 185.882 674.048 184.336C673.478 182.773 672.599 181.569 671.411 180.723C670.223 179.876 668.685 179.453 666.797 179.453C664.014 179.453 661.971 180.373 660.669 182.212C659.383 184.051 658.74 186.598 658.74 189.854ZM690.186 203.281H686.108V165.293H690.186V203.281ZM720.85 176.523V203.281H717.529L716.943 199.521H716.724C716.17 200.449 715.454 201.23 714.575 201.865C713.696 202.5 712.703 202.972 711.597 203.281C710.506 203.607 709.342 203.77 708.105 203.77C705.99 203.77 704.215 203.428 702.783 202.744C701.351 202.061 700.269 201.003 699.536 199.57C698.82 198.138 698.462 196.299 698.462 194.053V176.523H702.563V193.76C702.563 195.99 703.068 197.658 704.077 198.765C705.086 199.855 706.624 200.4 708.691 200.4C710.677 200.4 712.256 200.026 713.428 199.277C714.616 198.529 715.47 197.43 715.991 195.981C716.512 194.517 716.772 192.726 716.772 190.61V176.523H720.85ZM742.09 176.035C745.264 176.035 747.664 176.816 749.292 178.379C750.92 179.925 751.733 182.415 751.733 185.85V203.281H747.729V186.118C747.729 183.888 747.217 182.22 746.191 181.113C745.182 180.007 743.628 179.453 741.528 179.453C738.566 179.453 736.483 180.291 735.278 181.968C734.074 183.644 733.472 186.077 733.472 189.268V203.281H729.419V176.523H732.69L733.301 180.381H733.521C734.09 179.437 734.814 178.647 735.693 178.013C736.572 177.362 737.557 176.873 738.647 176.548C739.738 176.206 740.885 176.035 742.09 176.035ZM768.726 200.449C769.393 200.449 770.076 200.392 770.776 200.278C771.476 200.164 772.046 200.026 772.485 199.863V203.013C772.013 203.224 771.354 203.403 770.508 203.55C769.678 203.696 768.864 203.77 768.066 203.77C766.65 203.77 765.365 203.525 764.209 203.037C763.053 202.533 762.126 201.686 761.426 200.498C760.742 199.31 760.4 197.666 760.4 195.566V179.697H756.592V177.72L760.425 176.133L762.036 170.322H764.478V176.523H772.314V179.697H764.478V195.444C764.478 197.121 764.86 198.374 765.625 199.204C766.406 200.034 767.44 200.449 768.726 200.449ZM787.915 176.084C791.105 176.084 793.473 176.8 795.02 178.232C796.566 179.665 797.339 181.951 797.339 185.093V203.281H794.385L793.604 199.326H793.408C792.66 200.303 791.878 201.125 791.064 201.792C790.251 202.443 789.307 202.939 788.232 203.281C787.174 203.607 785.872 203.77 784.326 203.77C782.699 203.77 781.25 203.485 779.98 202.915C778.727 202.345 777.734 201.483 777.002 200.327C776.286 199.172 775.928 197.707 775.928 195.933C775.928 193.263 776.986 191.213 779.102 189.78C781.217 188.348 784.44 187.567 788.77 187.437L793.384 187.241V185.605C793.384 183.294 792.887 181.675 791.895 180.747C790.902 179.819 789.502 179.355 787.695 179.355C786.296 179.355 784.961 179.559 783.691 179.966C782.422 180.373 781.217 180.853 780.078 181.406L778.833 178.33C780.037 177.712 781.421 177.183 782.983 176.743C784.546 176.304 786.19 176.084 787.915 176.084ZM793.335 190.098L789.258 190.269C785.921 190.399 783.569 190.944 782.202 191.904C780.835 192.865 780.151 194.224 780.151 195.981C780.151 197.511 780.615 198.643 781.543 199.375C782.471 200.107 783.7 200.474 785.229 200.474C787.606 200.474 789.551 199.814 791.064 198.496C792.578 197.178 793.335 195.2 793.335 192.563V190.098ZM794.604 164.976V165.464C794.279 165.936 793.831 166.506 793.262 167.173C792.708 167.824 792.09 168.516 791.406 169.248C790.723 169.964 790.031 170.648 789.331 171.299C788.647 171.95 788.013 172.511 787.427 172.983H784.717V172.397C785.238 171.779 785.807 171.038 786.426 170.176C787.044 169.297 787.646 168.402 788.232 167.49C788.818 166.562 789.307 165.724 789.697 164.976H794.604ZM817.847 176.035C818.384 176.035 818.945 176.068 819.531 176.133C820.117 176.182 820.638 176.255 821.094 176.353L820.581 180.112C820.142 179.998 819.653 179.909 819.116 179.844C818.579 179.779 818.075 179.746 817.603 179.746C816.528 179.746 815.511 179.966 814.551 180.405C813.607 180.828 812.777 181.447 812.061 182.261C811.344 183.058 810.783 184.027 810.376 185.166C809.969 186.289 809.766 187.542 809.766 188.926V203.281H805.688V176.523H809.058L809.497 181.455H809.668C810.221 180.462 810.889 179.559 811.67 178.745C812.451 177.915 813.354 177.256 814.38 176.768C815.422 176.279 816.577 176.035 817.847 176.035ZM830.2 176.523V203.281H826.147V176.523H830.2ZM828.223 166.514C828.89 166.514 829.46 166.733 829.932 167.173C830.42 167.596 830.664 168.263 830.664 169.175C830.664 170.07 830.42 170.737 829.932 171.177C829.46 171.616 828.89 171.836 828.223 171.836C827.523 171.836 826.937 171.616 826.465 171.177C826.009 170.737 825.781 170.07 825.781 169.175C825.781 168.263 826.009 167.596 826.465 167.173C826.937 166.733 827.523 166.514 828.223 166.514ZM861.865 189.854C861.865 192.051 861.58 194.012 861.011 195.737C860.441 197.463 859.619 198.919 858.545 200.107C857.471 201.296 856.169 202.207 854.639 202.842C853.125 203.46 851.408 203.77 849.487 203.77C847.697 203.77 846.053 203.46 844.556 202.842C843.075 202.207 841.789 201.296 840.698 200.107C839.624 198.919 838.786 197.463 838.184 195.737C837.598 194.012 837.305 192.051 837.305 189.854C837.305 186.924 837.801 184.434 838.794 182.383C839.787 180.316 841.203 178.745 843.042 177.671C844.897 176.58 847.103 176.035 849.658 176.035C852.1 176.035 854.232 176.58 856.055 177.671C857.894 178.761 859.318 180.34 860.327 182.407C861.353 184.458 861.865 186.94 861.865 189.854ZM841.504 189.854C841.504 192.002 841.789 193.866 842.358 195.444C842.928 197.023 843.807 198.244 844.995 199.106C846.183 199.969 847.713 200.4 849.585 200.4C851.44 200.4 852.962 199.969 854.15 199.106C855.355 198.244 856.242 197.023 856.812 195.444C857.381 193.866 857.666 192.002 857.666 189.854C857.666 187.721 857.381 185.882 856.812 184.336C856.242 182.773 855.363 181.569 854.175 180.723C852.987 179.876 851.449 179.453 849.561 179.453C846.777 179.453 844.735 180.373 843.433 182.212C842.147 184.051 841.504 186.598 841.504 189.854ZM872.534 193.369H869.873L868.75 167.588H873.657L872.534 193.369ZM868.262 200.742C868.262 199.603 868.538 198.797 869.092 198.325C869.645 197.837 870.337 197.593 871.167 197.593C871.981 197.593 872.664 197.837 873.218 198.325C873.787 198.797 874.072 199.603 874.072 200.742C874.072 201.865 873.787 202.687 873.218 203.208C872.664 203.713 871.981 203.965 871.167 203.965C870.337 203.965 869.645 203.713 869.092 203.208C868.538 202.687 868.262 201.865 868.262 200.742Z" fill="#BD4747"/>
</svg>
