<svg width="58" height="58" viewBox="0 0 58 58" fill="none" xmlns="http://www.w3.org/2000/svg">
<path d="M41.7627 2.99414H15.7627C8.58299 2.99414 2.7627 8.81444 2.7627 15.9941V41.9941C2.7627 49.1738 8.58299 54.9941 15.7627 54.9941H41.7627C48.9424 54.9941 54.7627 49.1738 54.7627 41.9941V15.9941C54.7627 8.81444 48.9424 2.99414 41.7627 2.99414Z" stroke="#FCF9E9" stroke-width="5.28667" stroke-linecap="round" stroke-linejoin="round"/>
<path d="M43.0621 14.6934H43.0881M39.1621 27.3554C39.483 29.5192 39.1134 31.7291 38.1059 33.6708C37.0984 35.6125 35.5043 37.187 33.5504 38.1705C31.5964 39.154 29.3821 39.4963 27.2224 39.1488C25.0627 38.8013 23.0675 37.7816 21.5207 36.2348C19.9739 34.688 18.9542 32.6928 18.6067 30.5331C18.2592 28.3734 18.6015 26.1591 19.585 24.2051C20.5685 22.2512 22.143 20.6571 24.0847 19.6496C26.0264 18.6421 28.2363 18.2725 30.4001 18.5934C32.6073 18.9207 34.6507 19.9492 36.2285 21.527C37.8063 23.1047 38.8348 25.1482 39.1621 27.3554Z" stroke="#FCF9E9" stroke-width="5.28667" stroke-linecap="round" stroke-linejoin="round"/>
</svg>
