<svg width="69" height="54" viewBox="0 0 69 54" fill="none" xmlns="http://www.w3.org/2000/svg">
<path d="M45.4156 25.3067L30.4156 15.3067C30.1331 15.1182 29.8046 15.01 29.4653 14.9936C29.1261 14.9772 28.7887 15.0533 28.4893 15.2138C28.19 15.3742 27.9398 15.613 27.7655 15.9045C27.5913 16.1961 27.4995 16.5295 27.5 16.8692V36.8692C27.4995 37.2089 27.5913 37.5423 27.7655 37.8339C27.9398 38.1254 28.19 38.3642 28.4893 38.5246C28.7887 38.6851 29.1261 38.7612 29.4653 38.7448C29.8046 38.7284 30.1331 38.6202 30.4156 38.4317L45.4156 28.4317C45.6735 28.2607 45.885 28.0285 46.0313 27.7559C46.1776 27.4832 46.2542 27.1786 46.2542 26.8692C46.2542 26.5598 46.1776 26.2552 46.0313 25.9826C45.885 25.7099 45.6735 25.4777 45.4156 25.3067ZM31.25 33.3661V20.3723L40.9937 26.8692L31.25 33.3661ZM67 8.7442C66.7287 7.69015 66.211 6.71558 65.4895 5.90066C64.7681 5.08573 63.8634 4.45375 62.85 4.0567C52.1875 -0.0714221 35.0844 -0.00579706 34.375 -0.00579706C33.6656 -0.00579706 16.5625 -0.0714221 5.8875 4.0567C4.87643 4.45538 3.97428 5.08808 3.25506 5.9029C2.53584 6.71772 2.02005 7.69145 1.75 8.7442C0.953125 11.8348 0 17.4942 0 26.8692C0 36.2442 0.953125 41.9036 1.75 44.9942C2.02131 46.0483 2.53899 47.0228 3.26047 47.8377C3.98195 48.6527 4.8866 49.2847 5.9 49.6817C16.5625 53.8098 33.6625 53.7442 34.375 53.7442H34.5969C36.7563 53.7442 52.7219 53.6067 62.8625 49.6817C63.8759 49.2847 64.7805 48.6527 65.502 47.8377C66.2235 47.0228 66.7412 46.0483 67.0125 44.9942C67.8094 41.9098 68.7625 36.2661 68.7625 26.8692C68.7625 17.4723 67.8125 11.8348 67 8.7442ZM63.3688 44.0567C63.2484 44.537 63.0157 44.9819 62.6897 45.3546C62.3637 45.7273 61.9538 46.0172 61.4938 46.2005C51.4938 50.0536 34.5563 49.9942 34.375 49.9942C34.1937 49.9942 17.2781 50.0567 7.26562 46.1911C6.8056 46.0079 6.3957 45.7179 6.06971 45.3452C5.74372 44.9725 5.51096 44.5276 5.39062 44.0473C4.6375 41.1755 3.75 35.863 3.75 26.8692C3.75 17.8755 4.6375 12.563 5.38125 9.6817C5.50159 9.20138 5.73434 8.75653 6.06034 8.38381C6.38633 8.01109 6.79623 7.72118 7.25625 7.53795C16.8938 3.82545 32.9781 3.7442 34.3 3.7442H34.375C34.5438 3.7442 51.4719 3.6817 61.4844 7.54733C61.9444 7.73055 62.3543 8.02047 62.6803 8.39319C63.0063 8.76591 63.239 9.21076 63.3594 9.69108C64.1031 12.563 64.9906 17.8755 64.9906 26.8786C64.9906 35.8817 64.1125 41.1755 63.3688 44.0567Z" fill="#FCF9E9"/>
<path d="M30.375 35.3691L28.875 18.3691L43.375 26.8691L30.375 35.3691Z" fill="#FCF9E9"/>
</svg>
