<svg width="392" height="102" viewBox="0 0 392 102" fill="none" xmlns="http://www.w3.org/2000/svg">
<g id="Frame 32/Variant4" filter="url(#filter0_i_3347_489)">
<rect width="392" height="102" rx="51" fill="#BD4747"/>
<path id="EVENTOS" d="M101.92 67V35.5H122.125V40.585H107.275V48.19H116.95V53.275H107.275V61.915H123.07V67H101.92ZM137.524 67L127.264 35.5H133.204L139.459 56.965C139.579 57.34 139.699 57.8125 139.819 58.3825C139.939 58.9525 140.029 59.455 140.089 59.89C140.164 59.455 140.254 58.96 140.359 58.405C140.464 57.85 140.569 57.385 140.674 57.01L147.019 35.5H152.914L142.654 67H137.524ZM157.379 67V35.5H177.584V40.585H162.734V48.19H172.409V53.275H162.734V61.915H178.529V67H157.379ZM185.108 67V35.5H190.193L200.003 54.94C200.138 55.18 200.326 55.525 200.566 55.975C200.806 56.425 200.993 56.8 201.128 57.1C201.113 56.71 201.091 56.32 201.061 55.93C201.046 55.54 201.038 55.21 201.038 54.94V35.5H205.988V67H201.128L191.138 47.47C191.003 47.215 190.816 46.8625 190.576 46.4125C190.336 45.9625 190.133 45.595 189.968 45.31C190.043 45.64 190.081 46.0075 190.081 46.4125C190.096 46.8175 190.103 47.17 190.103 47.47V67H185.108ZM220.578 67V40.63H211.443V35.5H235.113V40.63H225.933V67H220.578ZM251.007 67.54C248.892 67.54 247.077 67.0975 245.562 66.2125C244.062 65.3125 242.832 64.0975 241.872 62.5675C240.912 61.0375 240.207 59.2975 239.757 57.3475C239.307 55.3975 239.082 53.365 239.082 51.25C239.082 49.135 239.307 47.1025 239.757 45.1525C240.207 43.2025 240.912 41.4625 241.872 39.9325C242.832 38.4025 244.062 37.195 245.562 36.31C247.077 35.41 248.892 34.96 251.007 34.96C253.122 34.96 254.937 35.41 256.452 36.31C257.967 37.195 259.205 38.4025 260.165 39.9325C261.125 41.4625 261.83 43.2025 262.28 45.1525C262.745 47.1025 262.977 49.135 262.977 51.25C262.977 53.365 262.745 55.3975 262.28 57.3475C261.83 59.2975 261.125 61.0375 260.165 62.5675C259.205 64.0975 257.967 65.3125 256.452 66.2125C254.937 67.0975 253.122 67.54 251.007 67.54ZM251.007 62.455C252.117 62.455 253.077 62.14 253.887 61.51C254.697 60.88 255.357 60.0325 255.867 58.9675C256.392 57.9025 256.775 56.7025 257.015 55.3675C257.27 54.0325 257.397 52.66 257.397 51.25C257.397 49.75 257.27 48.3325 257.015 46.9975C256.775 45.6475 256.4 44.455 255.89 43.42C255.38 42.37 254.72 41.545 253.91 40.945C253.1 40.345 252.132 40.045 251.007 40.045C249.882 40.045 248.915 40.36 248.105 40.99C247.295 41.605 246.635 42.445 246.125 43.51C245.615 44.575 245.232 45.775 244.977 47.11C244.737 48.445 244.617 49.825 244.617 51.25C244.617 52.735 244.737 54.1525 244.977 55.5025C245.232 56.8375 245.615 58.03 246.125 59.08C246.635 60.13 247.295 60.955 248.105 61.555C248.915 62.155 249.882 62.455 251.007 62.455ZM279.097 67.54C277.387 67.54 275.782 67.21 274.282 66.55C272.797 65.875 271.499 64.93 270.389 63.715C269.279 62.5 268.447 61.075 267.892 59.44L272.752 57.64C273.427 59.08 274.372 60.25 275.587 61.15C276.817 62.05 278.137 62.5 279.547 62.5C280.897 62.5 281.999 62.155 282.854 61.465C283.709 60.775 284.137 59.77 284.137 58.45C284.137 57.595 283.837 56.8375 283.237 56.1775C282.637 55.5025 281.842 54.8875 280.852 54.3325C279.877 53.7775 278.812 53.245 277.657 52.735C276.652 52.3 275.639 51.8125 274.619 51.2725C273.614 50.7325 272.684 50.095 271.829 49.36C270.989 48.625 270.307 47.7625 269.782 46.7725C269.272 45.7825 269.017 44.62 269.017 43.285C269.017 41.77 269.414 40.3825 270.209 39.1225C271.004 37.8625 272.129 36.8575 273.584 36.1075C275.039 35.3425 276.757 34.96 278.737 34.96C281.107 34.96 283.139 35.5975 284.834 36.8725C286.544 38.1475 287.677 39.745 288.232 41.665L283.417 43.285C282.967 42.355 282.322 41.575 281.482 40.945C280.642 40.315 279.622 40 278.422 40C277.297 40 276.344 40.285 275.564 40.855C274.799 41.425 274.417 42.205 274.417 43.195C274.417 43.885 274.634 44.485 275.069 44.995C275.519 45.505 276.172 46 277.027 46.48C277.897 46.96 278.962 47.5 280.222 48.1C281.242 48.58 282.292 49.12 283.372 49.72C284.452 50.305 285.457 50.9875 286.387 51.7675C287.332 52.5475 288.089 53.4625 288.659 54.5125C289.244 55.5625 289.537 56.785 289.537 58.18C289.537 60.175 289.049 61.87 288.074 63.265C287.114 64.66 285.839 65.725 284.249 66.46C282.674 67.18 280.957 67.54 279.097 67.54Z" fill="#FFE57D"/>
</g>
<defs>
<filter id="filter0_i_3347_489" x="0" y="0" width="392" height="106" filterUnits="userSpaceOnUse" color-interpolation-filters="sRGB">
<feFlood flood-opacity="0" result="BackgroundImageFix"/>
<feBlend mode="normal" in="SourceGraphic" in2="BackgroundImageFix" result="shape"/>
<feColorMatrix in="SourceAlpha" type="matrix" values="0 0 0 0 0 0 0 0 0 0 0 0 0 0 0 0 0 0 127 0" result="hardAlpha"/>
<feOffset dy="4"/>
<feGaussianBlur stdDeviation="15.35"/>
<feComposite in2="hardAlpha" operator="arithmetic" k2="-1" k3="1"/>
<feColorMatrix type="matrix" values="0 0 0 0 0 0 0 0 0 0 0 0 0 0 0 0 0 0 0.5 0"/>
<feBlend mode="normal" in2="shape" result="effect1_innerShadow_3347_489"/>
</filter>
</defs>
</svg>
