<svg width="488" height="93" viewBox="0 0 488 93" fill="none" xmlns="http://www.w3.org/2000/svg">
<g id="Frame 32/Variant4">
<rect width="488" height="93" rx="46.5" fill="#FFE57D"/>
<path id="Pr&#195;&#179;ximo evento" d="M33.16 62.5V31H38.515V62.5H33.16ZM26.59 62.5V57.775H45.13V62.5H26.59ZM26.59 35.725V31H45.13V35.725H26.59ZM53.1495 62.5V31H58.2345L68.0445 50.44C68.1795 50.68 68.367 51.025 68.607 51.475C68.847 51.925 69.0345 52.3 69.1695 52.6C69.1545 52.21 69.132 51.82 69.102 51.43C69.087 51.04 69.0795 50.71 69.0795 50.44V31H74.0295V62.5H69.1695L59.1795 42.97C59.0445 42.715 58.857 42.3625 58.617 41.9125C58.377 41.4625 58.1745 41.095 58.0095 40.81C58.0845 41.14 58.122 41.5075 58.122 41.9125C58.137 42.3175 58.1445 42.67 58.1445 42.97V62.5H53.1495ZM91.679 63.04C89.969 63.04 88.364 62.71 86.864 62.05C85.379 61.375 84.0815 60.43 82.9715 59.215C81.8615 58 81.029 56.575 80.474 54.94L85.334 53.14C86.009 54.58 86.954 55.75 88.169 56.65C89.399 57.55 90.719 58 92.129 58C93.479 58 94.5815 57.655 95.4365 56.965C96.2915 56.275 96.719 55.27 96.719 53.95C96.719 53.095 96.419 52.3375 95.819 51.6775C95.219 51.0025 94.424 50.3875 93.434 49.8325C92.459 49.2775 91.394 48.745 90.239 48.235C89.234 47.8 88.2215 47.3125 87.2015 46.7725C86.1965 46.2325 85.2665 45.595 84.4115 44.86C83.5715 44.125 82.889 43.2625 82.364 42.2725C81.854 41.2825 81.599 40.12 81.599 38.785C81.599 37.27 81.9965 35.8825 82.7915 34.6225C83.5865 33.3625 84.7115 32.3575 86.1665 31.6075C87.6215 30.8425 89.339 30.46 91.319 30.46C93.689 30.46 95.7215 31.0975 97.4165 32.3725C99.1265 33.6475 100.259 35.245 100.814 37.165L95.999 38.785C95.549 37.855 94.904 37.075 94.064 36.445C93.224 35.815 92.204 35.5 91.004 35.5C89.879 35.5 88.9265 35.785 88.1465 36.355C87.3815 36.925 86.999 37.705 86.999 38.695C86.999 39.385 87.2165 39.985 87.6515 40.495C88.1015 41.005 88.754 41.5 89.609 41.98C90.479 42.46 91.544 43 92.804 43.6C93.824 44.08 94.874 44.62 95.954 45.22C97.034 45.805 98.039 46.4875 98.969 47.2675C99.914 48.0475 100.671 48.9625 101.241 50.0125C101.826 51.0625 102.119 52.285 102.119 53.68C102.119 55.675 101.631 57.37 100.656 58.765C99.6965 60.16 98.4215 61.225 96.8315 61.96C95.2565 62.68 93.539 63.04 91.679 63.04ZM119.588 62.995C117.308 62.995 115.373 62.53 113.783 61.6C112.193 60.655 110.911 59.4025 109.936 57.8425C108.961 56.2675 108.248 54.52 107.798 52.6C107.348 50.665 107.123 48.715 107.123 46.75C107.123 44.86 107.348 42.9625 107.798 41.0575C108.263 39.1375 108.991 37.3825 109.981 35.7925C110.971 34.2025 112.253 32.9275 113.828 31.9675C115.418 30.9925 117.338 30.505 119.588 30.505C121.358 30.505 122.888 30.8275 124.178 31.4725C125.483 32.1025 126.563 32.92 127.418 33.925C128.273 34.93 128.918 35.98 129.353 37.075L124.583 39.37C123.983 38.2 123.301 37.2775 122.536 36.6025C121.786 35.9275 120.803 35.59 119.588 35.59C118.313 35.59 117.233 35.9275 116.348 36.6025C115.463 37.2775 114.743 38.17 114.188 39.28C113.648 40.39 113.258 41.5975 113.018 42.9025C112.778 44.2075 112.658 45.49 112.658 46.75C112.658 48.085 112.793 49.4125 113.063 50.7325C113.348 52.0525 113.768 53.2525 114.323 54.3325C114.893 55.4125 115.613 56.2825 116.483 56.9425C117.368 57.5875 118.403 57.91 119.588 57.91C120.803 57.91 121.808 57.535 122.603 56.785C123.398 56.02 124.073 55.045 124.628 53.86L129.488 55.705C128.918 57.1 128.183 58.3525 127.283 59.4625C126.398 60.5575 125.318 61.42 124.043 62.05C122.768 62.68 121.283 62.995 119.588 62.995ZM136.338 62.5V31H147.228C149.823 31 151.87 31.45 153.37 32.35C154.87 33.25 155.935 34.4275 156.565 35.8825C157.21 37.3375 157.533 38.89 157.533 40.54C157.533 41.71 157.338 42.85 156.948 43.96C156.558 45.055 155.973 46.0525 155.193 46.9525C154.413 47.8375 153.43 48.565 152.245 49.135C151.075 49.705 149.703 50.05 148.128 50.17H141.693V62.5H136.338ZM151.548 62.5L145.113 49.54L150.828 48.955L157.488 62.5H151.548ZM141.693 45.13H147.318C148.518 45.13 149.463 44.9125 150.153 44.4775C150.843 44.0425 151.33 43.48 151.615 42.79C151.9 42.1 152.043 41.365 152.043 40.585C152.043 39.88 151.908 39.1825 151.638 38.4925C151.368 37.7875 150.888 37.2025 150.198 36.7375C149.523 36.2725 148.563 36.04 147.318 36.04H141.693V45.13ZM164.067 62.5V31H184.272V36.085H169.422V43.69H179.097V48.775H169.422V57.415H185.217V62.5H164.067ZM199.672 62.5L189.412 31H195.352L201.607 52.465C201.727 52.84 201.847 53.3125 201.967 53.8825C202.087 54.4525 202.177 54.955 202.237 55.39C202.312 54.955 202.402 54.46 202.507 53.905C202.612 53.35 202.717 52.885 202.822 52.51L209.167 31H215.062L204.802 62.5H199.672ZM219.526 62.5V31H239.731V36.085H224.881V43.69H234.556V48.775H224.881V57.415H240.676V62.5H219.526ZM247.121 51.655V46.66H268.271V51.655H247.121ZM282.725 62.5V36.13H273.59V31H297.26V36.13H288.08V62.5H282.725ZM302.715 62.5V31H322.92V36.085H308.07V43.69H317.745V48.775H308.07V57.415H323.865V62.5H302.715ZM355.789 62.5L366.094 31H371.134L381.439 62.5H375.679L369.379 41.35C369.304 41.11 369.214 40.7875 369.109 40.3825C369.019 39.9775 368.929 39.55 368.839 39.1C368.749 38.65 368.674 38.23 368.614 37.84C368.539 38.23 368.456 38.65 368.366 39.1C368.276 39.55 368.186 39.9775 368.096 40.3825C368.006 40.7875 367.924 41.11 367.849 41.35L361.549 62.5H355.789ZM362.449 55.57L363.889 50.71H373.339L374.779 55.57H362.449ZM402.238 66.055L394.588 54.67L398.593 52.06L406.153 63.445L402.238 66.055ZM396.343 63.04C394.228 63.04 392.413 62.5975 390.898 61.7125C389.398 60.8125 388.168 59.5975 387.208 58.0675C386.248 56.5375 385.543 54.7975 385.093 52.8475C384.643 50.8975 384.418 48.865 384.418 46.75C384.418 44.635 384.643 42.6025 385.093 40.6525C385.543 38.7025 386.248 36.9625 387.208 35.4325C388.168 33.9025 389.398 32.695 390.898 31.81C392.413 30.91 394.228 30.46 396.343 30.46C398.458 30.46 400.273 30.91 401.788 31.81C403.303 32.695 404.541 33.9025 405.501 35.4325C406.461 36.9625 407.166 38.7025 407.616 40.6525C408.081 42.6025 408.313 44.635 408.313 46.75C408.313 48.865 408.081 50.8975 407.616 52.8475C407.166 54.7975 406.461 56.5375 405.501 58.0675C404.541 59.5975 403.303 60.8125 401.788 61.7125C400.273 62.5975 398.458 63.04 396.343 63.04ZM396.343 57.955C397.453 57.955 398.413 57.64 399.223 57.01C400.033 56.38 400.693 55.5325 401.203 54.4675C401.728 53.4025 402.111 52.2025 402.351 50.8675C402.606 49.5325 402.733 48.16 402.733 46.75C402.733 45.25 402.606 43.8325 402.351 42.4975C402.111 41.1475 401.736 39.955 401.226 38.92C400.716 37.87 400.056 37.045 399.246 36.445C398.436 35.845 397.468 35.545 396.343 35.545C395.218 35.545 394.251 35.86 393.441 36.49C392.631 37.105 391.971 37.945 391.461 39.01C390.951 40.075 390.568 41.275 390.313 42.61C390.073 43.945 389.953 45.325 389.953 46.75C389.953 48.235 390.073 49.6525 390.313 51.0025C390.568 52.3375 390.951 53.53 391.461 54.58C391.971 55.63 392.631 56.455 393.441 57.055C394.251 57.655 395.218 57.955 396.343 57.955ZM424.073 63.04C422.183 63.04 420.428 62.6425 418.808 61.8475C417.203 61.0525 415.905 59.74 414.915 57.91C413.94 56.08 413.453 53.605 413.453 50.485V31H418.763V50.485C418.763 52.42 418.988 53.9275 419.438 55.0075C419.903 56.0875 420.533 56.8525 421.328 57.3025C422.138 57.7375 423.053 57.955 424.073 57.955C425.078 57.955 425.978 57.7375 426.773 57.3025C427.583 56.8525 428.22 56.0875 428.685 55.0075C429.15 53.9275 429.383 52.42 429.383 50.485V31H434.738V50.485C434.738 53.56 434.25 56.02 433.275 57.865C432.3 59.695 431.003 61.015 429.383 61.825C427.763 62.635 425.993 63.04 424.073 63.04ZM449.102 62.5V31H454.457V62.5H449.102ZM442.532 62.5V57.775H461.072V62.5H442.532ZM442.532 35.725V31H461.072V35.725H442.532Z" fill="#6D2E46"/>
</g>
</svg>
