<svg width="488" height="93" viewBox="0 0 488 93" fill="none" xmlns="http://www.w3.org/2000/svg">
<g id="Frame 32/Variant4">
<rect width="488" height="93" rx="46.5" fill="#FFE57D"/>
<path id="Pr&#195;&#179;ximo evento" d="M132.86 63.04C130.745 63.04 128.93 62.5975 127.415 61.7125C125.915 60.8125 124.685 59.5975 123.725 58.0675C122.765 56.5375 122.06 54.7975 121.61 52.8475C121.16 50.8975 120.935 48.865 120.935 46.75C120.935 44.635 121.16 42.6025 121.61 40.6525C122.06 38.7025 122.765 36.9625 123.725 35.4325C124.685 33.9025 125.915 32.695 127.415 31.81C128.93 30.91 130.745 30.46 132.86 30.46C134.975 30.46 136.79 30.91 138.305 31.81C139.82 32.695 141.058 33.9025 142.018 35.4325C142.978 36.9625 143.683 38.7025 144.133 40.6525C144.598 42.6025 144.83 44.635 144.83 46.75C144.83 48.865 144.598 50.8975 144.133 52.8475C143.683 54.7975 142.978 56.5375 142.018 58.0675C141.058 59.5975 139.82 60.8125 138.305 61.7125C136.79 62.5975 134.975 63.04 132.86 63.04ZM132.86 57.955C133.97 57.955 134.93 57.64 135.74 57.01C136.55 56.38 137.21 55.5325 137.72 54.4675C138.245 53.4025 138.628 52.2025 138.868 50.8675C139.123 49.5325 139.25 48.16 139.25 46.75C139.25 45.25 139.123 43.8325 138.868 42.4975C138.628 41.1475 138.253 39.955 137.743 38.92C137.233 37.87 136.573 37.045 135.763 36.445C134.953 35.845 133.985 35.545 132.86 35.545C131.735 35.545 130.768 35.86 129.958 36.49C129.148 37.105 128.488 37.945 127.978 39.01C127.468 40.075 127.085 41.275 126.83 42.61C126.59 43.945 126.47 45.325 126.47 46.75C126.47 48.235 126.59 49.6525 126.83 51.0025C127.085 52.3375 127.468 53.53 127.978 54.58C128.488 55.63 129.148 56.455 129.958 57.055C130.768 57.655 131.735 57.955 132.86 57.955ZM160.589 63.04C158.699 63.04 156.944 62.6425 155.324 61.8475C153.719 61.0525 152.422 59.74 151.432 57.91C150.457 56.08 149.969 53.605 149.969 50.485V31H155.279V50.485C155.279 52.42 155.504 53.9275 155.954 55.0075C156.419 56.0875 157.049 56.8525 157.844 57.3025C158.654 57.7375 159.569 57.955 160.589 57.955C161.594 57.955 162.494 57.7375 163.289 57.3025C164.099 56.8525 164.737 56.0875 165.202 55.0075C165.667 53.9275 165.899 52.42 165.899 50.485V31H171.254V50.485C171.254 53.56 170.767 56.02 169.792 57.865C168.817 59.695 167.519 61.015 165.899 61.825C164.279 62.635 162.509 63.04 160.589 63.04ZM185.754 62.5L175.494 31H181.434L187.689 52.465C187.809 52.84 187.929 53.3125 188.049 53.8825C188.169 54.4525 188.259 54.955 188.319 55.39C188.394 54.955 188.484 54.46 188.589 53.905C188.694 53.35 188.799 52.885 188.904 52.51L195.249 31H201.144L190.884 62.5H185.754ZM205.608 62.5V31H225.813V36.085H210.963V43.69H220.638V48.775H210.963V57.415H226.758V62.5H205.608ZM258.682 62.5L268.987 31H274.027L284.332 62.5H278.572L272.272 41.35C272.197 41.11 272.107 40.7875 272.002 40.3825C271.912 39.9775 271.822 39.55 271.732 39.1C271.642 38.65 271.567 38.23 271.507 37.84C271.432 38.23 271.35 38.65 271.26 39.1C271.17 39.55 271.08 39.9775 270.99 40.3825C270.9 40.7875 270.817 41.11 270.742 41.35L264.442 62.5H258.682ZM265.342 55.57L266.782 50.71H276.232L277.672 55.57H265.342ZM305.132 66.055L297.482 54.67L301.487 52.06L309.047 63.445L305.132 66.055ZM299.237 63.04C297.122 63.04 295.307 62.5975 293.792 61.7125C292.292 60.8125 291.062 59.5975 290.102 58.0675C289.142 56.5375 288.437 54.7975 287.987 52.8475C287.537 50.8975 287.312 48.865 287.312 46.75C287.312 44.635 287.537 42.6025 287.987 40.6525C288.437 38.7025 289.142 36.9625 290.102 35.4325C291.062 33.9025 292.292 32.695 293.792 31.81C295.307 30.91 297.122 30.46 299.237 30.46C301.352 30.46 303.167 30.91 304.682 31.81C306.197 32.695 307.434 33.9025 308.394 35.4325C309.354 36.9625 310.059 38.7025 310.509 40.6525C310.974 42.6025 311.207 44.635 311.207 46.75C311.207 48.865 310.974 50.8975 310.509 52.8475C310.059 54.7975 309.354 56.5375 308.394 58.0675C307.434 59.5975 306.197 60.8125 304.682 61.7125C303.167 62.5975 301.352 63.04 299.237 63.04ZM299.237 57.955C300.347 57.955 301.307 57.64 302.117 57.01C302.927 56.38 303.587 55.5325 304.097 54.4675C304.622 53.4025 305.004 52.2025 305.244 50.8675C305.499 49.5325 305.627 48.16 305.627 46.75C305.627 45.25 305.499 43.8325 305.244 42.4975C305.004 41.1475 304.629 39.955 304.119 38.92C303.609 37.87 302.949 37.045 302.139 36.445C301.329 35.845 300.362 35.545 299.237 35.545C298.112 35.545 297.144 35.86 296.334 36.49C295.524 37.105 294.864 37.945 294.354 39.01C293.844 40.075 293.462 41.275 293.207 42.61C292.967 43.945 292.847 45.325 292.847 46.75C292.847 48.235 292.967 49.6525 293.207 51.0025C293.462 52.3375 293.844 53.53 294.354 54.58C294.864 55.63 295.524 56.455 296.334 57.055C297.144 57.655 298.112 57.955 299.237 57.955ZM326.966 63.04C325.076 63.04 323.321 62.6425 321.701 61.8475C320.096 61.0525 318.799 59.74 317.809 57.91C316.834 56.08 316.346 53.605 316.346 50.485V31H321.656V50.485C321.656 52.42 321.881 53.9275 322.331 55.0075C322.796 56.0875 323.426 56.8525 324.221 57.3025C325.031 57.7375 325.946 57.955 326.966 57.955C327.971 57.955 328.871 57.7375 329.666 57.3025C330.476 56.8525 331.114 56.0875 331.579 55.0075C332.044 53.9275 332.276 52.42 332.276 50.485V31H337.631V50.485C337.631 53.56 337.144 56.02 336.169 57.865C335.194 59.695 333.896 61.015 332.276 61.825C330.656 62.635 328.886 63.04 326.966 63.04ZM351.996 62.5V31H357.351V62.5H351.996ZM345.426 62.5V57.775H363.966V62.5H345.426ZM345.426 35.725V31H363.966V35.725H345.426Z" fill="#6D2E46"/>
</g>
</svg>
