<svg width="192" height="207" viewBox="0 0 192 207" fill="none" xmlns="http://www.w3.org/2000/svg">
    <g clip-path="url(#clip0_1007_598)">
        <path d="M84.9503 168.248L84.8402 167.985C85.0943 168.959 85.2722 170.12 85.45 171.281C85.3569 168.849 85.1537 166.154 83.934 164.35C84.2729 164.053 84.1035 161.807 83.9172 161.731C83.697 161.205 83.6631 160.756 83.3667 160.417C83.4768 160.68 83.5869 160.943 83.6207 161.392C83.5106 161.129 83.4768 160.68 83.3667 160.417C82.4181 157.418 81.9947 154.198 81.4612 150.715C81.1393 148.842 80.2078 143.673 79.9622 141.613C79.8521 141.351 79.9283 141.164 79.8945 140.715C79.9283 141.164 79.9283 141.164 79.9622 141.613C79.598 140.376 79.3439 139.402 79.0899 138.427C79.0136 138.614 79.0136 138.614 79.0475 139.063L79.0136 138.614C78.7934 138.088 78.5393 137.114 78.3191 136.589C78.5055 136.665 78.4716 136.216 78.3615 135.953L78.2853 136.139C77.9973 134.716 77.523 133.216 77.4214 131.868C77.4977 131.682 77.3113 131.606 77.3876 131.419L77.0234 130.182C77.2097 130.258 76.9557 129.284 77.1759 129.809C76.8455 129.021 76.7778 128.123 76.2612 127.259C75.4989 124.335 74.6266 121.149 73.4155 118.26C72.975 117.209 72.4584 116.345 71.9079 115.032C71.3912 114.167 70.5781 112.964 70.2054 112.812C69.6888 111.948 69.3923 111.609 68.6894 110.669C68.7995 110.931 67.9864 109.728 68.2066 110.254C68.3505 110.966 68.6131 110.855 68.7571 111.567C69.3076 112.88 70.1207 114.083 70.4849 115.321C71.0354 116.634 71.3234 118.058 71.8739 119.371C72.4583 121.133 72.8902 123.269 73.3983 125.218C74.0928 127.243 74.7111 129.455 75.2192 131.404C75.2531 131.853 75.3632 132.115 75.3971 132.565C75.7951 134.251 76.227 136.386 76.7352 138.335C76.9893 139.31 76.8707 140.132 77.1247 141.106L77.2348 141.369C77.1586 141.556 78.6492 146.953 78.6831 147.402L78.7932 147.665C79.0387 149.724 79.2081 151.97 79.6061 153.656C79.7162 153.919 79.9364 154.444 80.0465 154.707C80.0804 155.156 80.1566 154.97 80.1905 155.419C79.9957 156.428 80.2159 156.953 80.3683 156.58C80.5123 157.292 80.5801 158.19 80.724 158.902C80.8341 159.165 80.868 159.614 80.9781 159.876C81.0882 160.139 81.012 160.326 80.9357 160.512C81.0797 161.224 80.9696 160.961 81.1136 161.673C81.0373 161.86 81.698 163.435 81.6217 163.622C81.6895 164.52 81.6471 165.156 81.7911 165.868C82.1467 168.19 82.7989 170.851 83.2308 172.986C83.4171 173.062 83.1969 172.537 83.2732 172.35C83.6373 173.587 83.7389 174.935 83.8405 176.282C83.9506 176.545 83.8744 176.732 83.7982 176.918C83.832 177.367 83.9083 177.181 84.0184 177.443C84.2386 177.969 83.976 178.079 84.1962 178.604L84.3063 178.867L84.3402 179.316C84.3402 179.316 84.264 179.503 84.4503 179.579C84.5604 179.842 85.1109 181.155 85.221 181.418C85.5175 181.756 85.5175 181.756 85.5175 181.756L85.6276 182.019L85.7377 182.282C85.8478 182.544 85.8478 182.544 85.9579 182.807C85.924 182.358 85.9664 181.722 85.9325 181.273C85.6699 181.383 85.7038 181.833 85.8901 181.909C85.8139 182.095 85.9579 182.807 85.9918 183.256C85.9918 183.256 86.1781 183.332 86.1019 183.519C86.0256 183.705 86.212 183.781 86.1357 183.968C86.0256 183.705 86.1019 183.519 85.9155 183.443C85.9155 183.443 85.9494 183.892 85.8731 184.078C85.8731 184.078 85.907 184.527 86.0171 184.79C85.8308 184.714 85.9409 184.977 85.8646 185.163C85.7884 185.35 85.9748 185.426 85.9748 185.426C86.1611 185.502 85.8308 184.714 86.1272 185.053L86.1611 185.502C86.0849 185.688 86.2712 185.765 86.195 185.951C86.195 185.951 86.195 185.951 86.2712 185.765C86.3813 186.027 85.7207 184.451 85.7545 184.9C85.8308 184.714 86.3051 186.214 86.3813 186.027C86.4575 185.841 86.5676 186.103 86.4575 185.841L86.3474 185.578C86.2373 185.315 86.4999 185.205 86.4237 185.392C86.4575 185.841 85.7207 184.451 86.0171 184.79L86.0934 184.604C86.2797 184.68 86.3136 185.129 86.2373 185.315L86.3474 185.578C86.4575 185.841 86.4575 185.841 86.4575 185.841C86.2035 184.866 87.1267 186.332 87.0589 185.434C86.9065 185.807 86.8726 185.357 86.8387 184.908C86.8387 184.908 86.9149 184.722 86.8048 184.459C86.6947 184.197 86.6185 184.383 86.6947 184.197C86.771 184.01 86.6609 183.747 86.8472 183.824C86.7371 183.561 86.7371 183.561 86.8133 183.374C86.7032 183.112 86.8133 183.374 86.627 183.298C86.5169 183.036 86.483 182.586 86.5593 182.4C86.6355 182.213 86.7117 182.027 86.8218 182.29C86.8557 182.739 86.6355 182.213 86.6694 182.663C86.7456 182.476 86.7032 183.112 86.8896 183.188C86.9658 183.001 86.8557 182.739 86.7456 182.476C86.6355 182.213 86.6016 181.764 86.6779 181.578C86.6779 181.578 86.6779 181.578 86.8642 181.654L86.7541 181.391C86.5678 181.315 86.644 181.129 86.7202 180.942L86.246 179.442C86.1359 179.18 86.3222 179.256 86.2121 178.993C86.2121 178.993 86.9066 181.018 86.7965 180.756C86.8727 180.569 85.9919 178.468 86.0681 178.281C86.1444 178.095 85.958 178.019 85.958 178.019C85.8479 177.756 86.1444 178.095 86.0343 177.832L86.1105 177.646C85.8903 177.12 85.8564 176.671 85.8225 176.222C86.0089 176.298 85.9326 176.485 86.0428 176.747L86.1529 177.01C86.0428 176.747 86.119 176.561 86.0089 176.298L86.0851 176.112C86.1614 175.925 85.831 175.137 85.7972 174.688C85.6871 174.425 85.7972 174.688 85.6871 174.425C85.6532 173.976 85.6193 173.527 85.5855 173.078C85.3991 173.002 85.3991 173.002 85.3229 173.188L85.289 172.739C85.5855 173.078 85.4076 171.917 85.6278 172.442C85.7041 172.256 85.594 171.993 85.4076 171.917C85.4076 171.917 85.2213 171.841 85.2975 171.654C85.0434 170.68 85.2298 170.756 85.1197 170.493C85.1197 170.493 85.1197 170.493 85.306 170.569C85.0858 170.044 85.2722 170.12 85.2383 169.671C85.1282 169.409 84.9842 168.697 84.908 168.883C84.9503 168.248 84.9503 168.248 84.9503 168.248Z" fill="#6D2E46"/>
        <path d="M105.68 135.584L105.977 135.922C105.35 134.796 104.986 133.558 104.435 132.245C105.274 134.982 106.519 138.321 108.001 140.015C107.662 140.312 108.687 143.125 108.95 143.014C109.17 143.54 109.653 143.955 109.873 144.48C109.576 144.141 109.466 143.879 109.246 143.353C109.543 143.692 109.576 144.141 109.873 144.48C111.753 147.861 113.295 151.538 114.87 155.664C115.751 157.766 118.283 163.807 119.088 166.095C119.198 166.357 119.232 166.807 119.528 167.145C119.308 166.62 119.308 166.62 119.088 166.095C119.825 167.484 120.451 168.611 120.892 169.662C120.782 169.399 120.782 169.399 120.824 168.763L121.044 169.289C121.527 169.704 122.078 171.017 122.298 171.542C122.111 171.466 122.332 171.992 122.442 172.254L122.518 172.068C123.179 173.644 123.949 175.482 124.686 176.872C124.796 177.135 124.796 177.135 124.72 177.321L125.457 178.711C125.271 178.634 125.821 179.948 125.491 179.16C126.007 180.024 126.448 181.075 126.888 182.125C128.167 185.913 129.785 189.404 131.589 192.971C132.216 194.097 132.919 195.038 133.579 196.614C134.206 197.741 134.943 199.13 135.426 199.545C135.976 200.858 136.273 201.197 136.899 202.324C136.789 202.061 137.526 203.451 137.306 202.926C137.052 201.951 136.976 202.138 136.832 201.426C135.477 197.825 134.155 194.673 132.91 191.334C131.843 189.157 130.852 186.793 129.785 184.615C128.608 182.175 127.507 179.548 126.363 177.557C126.143 177.032 126.033 176.769 125.813 176.244C124.856 174.329 123.941 171.779 123.06 169.677C122.62 168.627 122.366 167.652 121.739 166.526L121.629 166.263C121.705 166.076 118.427 159.73 118.393 159.281L118.283 159.019C117.292 156.655 116.64 153.994 115.683 152.079C115.387 151.74 115.167 151.215 114.87 150.876C114.836 150.427 114.574 150.537 114.353 150.012C114.176 148.851 113.769 148.249 113.989 148.775C113.473 147.91 113.219 146.936 112.888 146.148C112.592 145.809 112.558 145.36 112.261 145.021C112.151 144.758 112.041 144.496 112.118 144.309C111.787 143.521 111.897 143.784 111.643 142.809C111.719 142.623 110.5 140.818 110.39 140.556L110.576 140.632C110.136 139.581 109.992 138.87 109.551 137.819C108.45 135.192 107.053 132.227 105.875 129.787C105.689 129.71 106.096 130.312 106.019 130.498C105.283 129.109 104.698 127.346 103.885 126.143C103.775 125.881 103.851 125.694 103.927 125.508C103.894 125.059 103.817 125.245 103.707 124.982C103.487 124.457 103.75 124.347 103.529 123.821L103.419 123.559C103.419 123.559 103.385 123.11 103.572 123.186L103.648 122.999C103.538 122.737 103.402 120.94 103.479 120.754C103.555 120.567 103.445 120.304 103.369 120.491L103.521 120.118L103.674 119.745C103.674 119.745 103.75 119.558 103.86 119.821C103.936 119.635 103.826 119.372 103.902 119.185C103.674 119.745 103.445 120.304 103.216 120.864C103.292 120.677 103.258 120.228 103.335 120.042C103.487 119.669 103.716 119.109 103.868 118.736C103.945 118.55 103.758 118.474 103.834 118.287C103.911 118.101 103.911 118.101 103.987 117.914C103.911 118.101 103.834 118.287 103.758 118.474C103.758 118.474 103.987 117.914 104.063 117.728C104.063 117.728 104.292 117.168 104.368 116.982C104.478 117.244 104.444 116.795 104.707 116.685C104.783 116.498 104.859 116.312 104.783 116.498C104.597 116.422 104.478 117.244 104.444 116.795C104.444 116.795 104.597 116.422 104.673 116.236C104.673 116.236 104.597 116.422 104.487 116.16C104.563 115.973 104.639 115.787 104.715 115.6L104.639 115.787C104.715 115.6 104.402 117.431 104.554 117.058C104.478 117.244 104.792 115.414 104.715 115.6C104.639 115.787 104.605 115.337 104.529 115.524L104.453 115.71C104.377 115.897 104.114 116.007 104.19 115.821C104.343 115.448 104.106 117.092 104.258 116.719L104.182 116.905C104.258 116.719 104.411 116.346 104.487 116.16C104.487 116.16 104.563 115.973 104.639 115.787C104.715 115.6 104.792 115.414 104.792 115.414C104.411 116.346 104.538 114.439 104.156 115.372C104.495 115.075 104.267 115.634 104.114 116.007C104.114 116.007 103.851 116.117 103.699 116.49C103.623 116.677 103.623 116.677 103.623 116.677C103.547 116.863 103.47 117.05 103.284 116.974C103.208 117.16 103.131 117.347 103.055 117.533C102.979 117.72 103.055 117.533 102.979 117.72C102.827 118.093 102.674 118.466 102.522 118.839C102.445 119.025 102.183 119.135 102.259 118.949C102.488 118.39 102.369 119.212 102.598 118.652C102.335 118.763 102.75 118.279 102.64 118.017C102.564 118.203 102.412 118.576 102.335 118.763C102.259 118.949 102.217 119.585 102.14 119.771C102.14 119.771 102.14 119.771 102.03 119.508L101.878 119.881C101.802 120.068 101.725 120.254 101.725 120.254L101.785 122.238C101.708 122.424 101.632 122.611 101.742 122.873C101.742 122.873 101.725 120.254 101.759 120.704C101.683 120.89 101.641 121.526 101.708 122.424C101.852 123.136 101.92 124.034 101.92 124.034C101.844 124.221 101.954 124.483 101.954 124.483C101.988 124.932 101.768 124.407 101.878 124.67L101.801 124.856C102.022 125.382 101.903 126.204 102.386 126.619C102.2 126.543 102.089 126.28 101.979 126.017L101.869 125.755C101.979 126.017 102.013 126.466 102.123 126.729L102.233 126.992C102.157 127.178 102.157 127.178 102.233 126.992C102.081 127.365 103.046 128.195 103.267 128.72C103.453 128.796 103.267 128.72 103.377 128.983C103.597 129.508 103.817 130.033 104.037 130.559C104.224 130.635 104.224 130.635 104.114 130.372L104.334 130.898C104.037 130.559 104.588 131.872 104.105 131.457C104.029 131.644 104.139 131.906 104.512 132.059C104.512 132.059 104.698 132.135 104.808 132.397C105.028 132.923 104.918 132.66 104.952 133.109C104.876 133.296 104.952 133.109 104.766 133.033C105.172 133.635 104.8 133.482 105.206 134.084C105.316 134.346 105.647 135.134 105.723 134.948C105.943 135.473 105.867 135.66 105.68 135.584Z" fill="#6D2E46"/>
        <path d="M-20.4652 127.111L-20.2027 127.001C-21.253 127.442 -22.3795 128.07 -23.4298 128.511C-20.8803 127.595 -18.0682 126.568 -16.6706 124.745C-16.3741 125.084 -13.9347 123.904 -13.9347 123.904C-13.5959 123.607 -13.0707 123.387 -12.6557 122.903C-12.9183 123.014 -13.2571 123.311 -13.5197 123.421C-13.1809 123.124 -12.9183 123.014 -12.6557 122.903C-9.725 121.054 -6.49785 119.544 -3.00813 117.923C-1.1701 117.151 4.15766 114.758 6.07192 113.8C6.3345 113.689 6.59707 113.579 6.85964 113.469C6.33449 113.689 6.3345 113.689 5.80935 113.91C6.93589 113.282 8.06243 112.654 8.92639 112.137C8.66381 112.247 8.74004 112.061 8.21489 112.282L8.74005 112.061C9.1551 111.578 10.2054 111.136 10.7305 110.916C10.6543 111.102 11.1795 110.882 11.442 110.771L11.2557 110.695C12.5686 110.143 14.2203 109.295 15.5332 108.743C15.7957 108.633 15.7957 108.633 15.9821 108.709L17.3712 107.971C17.2949 108.158 18.4215 107.53 17.8201 107.937C18.6841 107.42 19.548 106.902 20.3357 106.571C21.835 106.096 23.5205 105.697 25.1299 105.484C26.0277 105.416 26.9255 105.347 27.8996 105.093C28.8737 104.838 29.7376 104.32 30.4152 103.727C31.4317 102.836 31.8891 101.717 32.6091 100.488C32.8039 99.4795 33.2275 97.9114 32.931 97.5725C33.2021 96.3774 33.1682 95.9283 33.1767 94.8435C33.0243 95.2165 33.1852 93.7587 32.9565 94.3181C32.6516 95.0641 32.8379 95.1403 32.6092 95.6997C32.1009 98.5391 31.0675 101.599 28.7382 103.041C28.0606 103.635 27.3491 103.779 26.2649 103.771C25.1807 103.763 24.0203 103.942 22.8599 104.121C21.6233 104.486 20.4629 104.664 19.15 105.216C18.0234 105.844 16.9731 106.285 16.1092 106.802C15.7704 107.099 15.3214 107.133 14.8725 107.168C13.2208 108.016 11.1202 108.898 9.12972 110.044C8.07942 110.485 7.2917 110.816 6.24139 111.257C6.24139 111.257 6.16516 111.444 5.97882 111.367C5.79248 111.291 0.346114 114.506 -0.1028 114.54L-0.365372 114.651C-2.46598 115.533 -4.75293 116.34 -6.66719 117.298C-7.00601 117.595 -7.34481 117.892 -7.68362 118.189C-7.9462 118.299 -8.02244 118.486 -8.47136 118.52C-9.63176 118.698 -10.0468 119.182 -9.52166 118.961C-10.3094 119.292 -11.1733 119.809 -11.7747 120.216C-12.0373 120.327 -12.3761 120.624 -12.6387 120.734C-12.9013 120.844 -13.1638 120.955 -13.1638 120.955C-13.7652 121.362 -13.689 121.175 -14.4767 121.506C-14.6631 121.43 -16.2809 122.727 -16.4672 122.651L-16.391 122.465C-17.255 122.982 -17.8902 122.94 -18.7542 123.458C-21.1936 124.637 -23.5229 126.079 -25.6997 127.148L-25.1746 126.927C-26.4875 127.479 -27.8004 128.031 -29.0031 128.845C-29.2657 128.955 -29.5283 129.065 -29.7146 128.989C-30.2398 129.21 -29.9772 129.1 -30.2398 129.21L-30.4261 129.134C-30.7649 129.431 -31.1376 129.278 -31.4764 129.575C-31.4764 129.575 -31.5527 129.761 -31.8152 129.872L-32.3404 130.092L-32.603 130.203C-32.8655 130.313 -34.1446 131.314 -34.2208 131.5C-34.4834 131.611 -34.5596 131.797 -34.297 131.687L-34.5596 131.797L-34.8222 131.907L-35.0085 131.831C-35.0847 132.018 -35.3473 132.128 -35.5337 132.052C-35.0085 131.831 -34.4834 131.611 -33.8481 131.653C-34.1107 131.763 -34.3733 131.873 -34.6358 131.984C-34.8984 132.094 -35.4236 132.315 -35.8725 132.349C-35.8725 132.349 -35.9487 132.535 -36.2113 132.645C-36.3976 132.569 -36.4739 132.756 -36.6602 132.68C-36.3976 132.569 -36.3214 132.383 -36.0588 132.272C-36.2452 132.196 -36.584 132.493 -36.7703 132.417C-36.7703 132.417 -37.2955 132.638 -37.3717 132.824C-37.2955 132.638 -37.6343 132.934 -37.8206 132.858C-38.0832 132.969 -38.0832 132.969 -37.8968 133.045C-37.9731 133.231 -37.1091 132.714 -37.4479 133.011C-37.4479 133.011 -37.7867 133.307 -37.9731 133.231C-38.2357 133.342 -38.3119 133.528 -38.4982 133.452C-38.4982 133.452 -38.422 133.265 -38.2357 133.342C-38.4982 133.452 -37.143 132.265 -37.4056 132.375C-37.4056 132.375 -38.6846 133.376 -38.4982 133.452C-38.2357 133.342 -38.5745 133.638 -38.3119 133.528L-38.2357 133.342C-37.9731 133.231 -37.7867 133.307 -38.0493 133.418C-38.3881 133.715 -37.2192 132.451 -37.558 132.748L-37.3717 132.824C-37.4479 133.011 -37.7105 133.121 -37.9731 133.231C-37.9731 133.231 -38.0493 133.418 -38.3119 133.528C-38.3881 133.714 -38.6507 133.825 -38.5745 133.638C-37.7105 133.121 -38.8794 134.384 -37.9053 134.13C-38.3543 134.164 -37.8291 133.943 -37.4903 133.646C-37.4903 133.646 -37.2277 133.536 -36.9651 133.426C-36.5586 134.027 -36.8212 134.137 -36.7449 133.951C-36.5586 134.027 -36.296 133.917 -36.296 133.917C-36.2198 133.73 -36.0334 133.806 -35.7709 133.696C-35.5083 133.586 -35.7709 133.696 -35.6946 133.51C-35.4321 133.399 -34.9069 133.179 -34.8307 132.992C-34.6443 133.068 -34.3818 132.958 -34.458 133.145C-34.9831 133.365 -34.3818 132.958 -34.9069 133.179C-34.7206 133.255 -35.2457 133.476 -35.322 133.662C-35.1356 133.738 -34.7968 133.441 -34.5342 133.331C-34.2717 133.221 -33.9328 132.924 -33.6703 132.814C-33.6703 132.814 -33.4839 132.89 -33.7465 133L-33.5602 133.076C-33.4839 132.89 -33.2976 132.966 -33.2213 132.779L-31.756 131.855C-31.4934 131.745 -31.4934 131.745 -31.2309 131.634C-31.2309 131.634 -33.2213 132.779 -32.9588 132.669C-32.6962 132.559 -30.6295 131.227 -30.4431 131.303C-30.1805 131.193 -30.1043 131.007 -30.1043 131.007C-29.8417 130.896 -30.1805 131.193 -29.918 131.083L-29.6554 130.972C-29.3166 130.676 -28.6051 130.531 -28.19 130.048C-28.2663 130.234 -28.3425 130.421 -28.6051 130.531L-28.8677 130.641C-28.6051 130.531 -28.3425 130.421 -28.0799 130.31L-27.8174 130.2C-27.631 130.276 -26.8772 129.496 -26.352 129.276C-26.2758 129.089 -26.352 129.276 -26.2758 129.089C-25.7506 128.868 -25.488 128.758 -24.9629 128.538C-24.8867 128.351 -24.8867 128.351 -25.1492 128.461L-24.8104 128.165C-25.1492 128.461 -24.0227 127.834 -24.2514 128.393C-24.0651 128.469 -23.9888 128.283 -23.7262 128.172C-23.7262 128.172 -23.65 127.986 -23.3874 127.876C-22.9385 127.841 -23.1249 127.765 -22.6759 127.731C-22.4896 127.807 -22.6759 127.731 -22.7522 127.918C-22.4134 127.621 -22.3033 127.883 -21.7781 127.663C-21.5155 127.553 -20.9142 127.145 -20.9142 127.145C-20.5753 126.849 -20.389 126.925 -20.4652 127.111Z" fill="#6D2E46"/>
        <path d="M42.8784 126.453C43.2172 126.156 43.8948 125.562 44.6825 125.231C43.1071 125.893 41.3029 127.115 40.7693 128.42C40.3966 128.268 39.0075 129.006 38.9312 129.192C38.7788 129.565 38.5162 129.675 38.1774 129.972C36.6697 131.533 34.6029 132.864 32.4599 134.382C31.2572 135.197 28.174 137.419 26.9712 138.233C26.7086 138.343 26.6324 138.53 26.3698 138.64C26.6324 138.53 26.6324 138.53 26.9712 138.233C26.2936 138.827 25.8023 139.496 25.2009 139.904C25.3873 139.98 25.3873 139.98 25.7261 139.683L25.3873 139.98C25.2348 140.353 24.5572 140.946 24.2946 141.057C24.3708 140.87 24.032 141.167 23.7694 141.277L23.9558 141.353C23.0918 141.871 22.2617 142.837 21.5841 143.431C21.5079 143.618 21.3215 143.541 21.3215 143.541L20.6439 144.135C20.7201 143.949 20.0425 144.542 20.195 144.169C19.7799 144.652 19.1785 145.06 18.7635 145.543C17.0694 147.027 15.189 148.435 13.6051 150.181C12.9275 150.775 12.6987 151.335 11.8348 151.852C11.4197 152.335 10.6659 153.115 10.5134 153.488C9.83579 154.082 9.75955 154.268 9.08192 154.862C9.3445 154.752 8.59064 155.532 8.92945 155.235C9.4546 155.014 9.26827 154.938 9.79342 154.718C11.5976 153.496 13.1392 152.385 14.9433 151.164C15.9598 150.273 17.2388 149.273 18.2552 148.382C19.5342 147.382 20.6269 146.305 21.7196 145.228C21.9821 145.117 22.2447 145.007 22.5073 144.897C23.4475 144.193 24.7265 143.192 25.7429 142.302C26.3443 141.895 26.8695 141.674 27.3608 141.004L27.437 140.818C27.6233 140.894 30.5625 137.96 30.8251 137.85L30.9013 137.663C32.1041 136.849 33.6796 136.187 34.696 135.296C34.7722 135.11 35.1111 134.813 35.1873 134.627C35.4499 134.516 35.2635 134.44 35.6023 134.143C37.2117 133.931 37.3641 133.558 37.1016 133.668C37.5166 133.185 38.0418 132.964 38.3806 132.667C38.4568 132.481 38.7194 132.37 38.7956 132.184C38.8719 131.997 39.0582 132.074 39.1344 131.887C39.4732 131.59 39.4732 131.59 39.9984 131.37C40.1847 131.446 41.0148 130.479 41.0911 130.293C41.6925 129.886 42.1414 129.852 42.5564 129.368C44.0218 128.444 45.4533 127.07 46.656 126.256C46.656 126.256 46.3172 126.552 46.2071 126.29C47.0711 125.772 47.8588 125.441 48.7228 124.924C48.9853 124.814 48.9853 124.814 49.1717 124.89C49.4343 124.78 49.2479 124.703 49.5105 124.593L49.6968 124.669C50.0356 124.372 50.222 124.449 50.4846 124.338L50.5608 124.152C50.7471 124.228 50.8234 124.041 50.8234 124.041C50.8234 124.041 50.8234 124.041 51.086 123.931C51.1622 123.745 51.916 122.965 51.9923 122.778C52.0685 122.592 52.0685 122.592 52.0685 122.592L52.3311 122.481L52.5937 122.371L52.78 122.447C52.8562 122.261 52.8562 122.261 53.1188 122.15C52.8562 122.261 52.3311 122.481 52.0685 122.592C52.1448 122.405 52.4073 122.295 52.5937 122.371C52.8563 122.261 53.1188 122.15 53.3814 122.04L53.4576 121.853C53.644 121.93 53.5339 121.667 53.7202 121.743C53.644 121.93 53.4576 121.853 53.3814 122.04C53.5677 122.116 53.644 121.93 53.9066 121.819C53.9066 121.819 54.1691 121.709 54.2454 121.523C54.1691 121.709 54.4317 121.599 54.5079 121.412L54.5842 121.226C54.6604 121.039 54.059 121.446 54.1353 121.26C54.1353 121.26 54.3978 121.15 54.4741 120.963C54.5503 120.777 54.7366 120.853 54.7366 120.853C54.7366 120.853 54.7366 120.853 54.6604 121.039C54.923 120.929 54.0929 121.896 54.1691 121.709L54.7366 120.853C54.7366 120.853 54.8129 120.666 54.5503 120.777L54.4741 120.963C54.2115 121.073 54.2877 120.887 54.2877 120.887C54.5503 120.777 53.9828 121.633 54.059 121.446C54.1353 121.26 54.3978 121.15 54.3978 121.15L54.4741 120.963C54.5503 120.777 54.7366 120.853 54.5503 120.777C53.9489 121.184 54.6689 119.954 54.0675 120.362C54.3301 120.251 53.9913 120.548 53.9151 120.735C53.9151 120.735 53.7287 120.658 53.4661 120.769C53.3899 120.955 53.3899 120.955 53.3899 120.955L53.1273 121.065C53.0511 121.252 52.8647 121.176 52.8647 121.176C52.7885 121.362 52.8647 121.176 52.7885 121.362C52.5259 121.473 52.4497 121.659 52.1871 121.769C52.1871 121.769 51.9245 121.88 52.0008 121.693C52.2634 121.583 51.9245 121.88 52.1871 121.769C52.0008 121.693 52.4497 121.659 52.3396 121.396C52.1533 121.32 52.077 121.507 51.8144 121.617C51.7382 121.804 51.4756 121.914 51.2131 122.024C51.2131 122.024 51.2131 122.024 51.2893 121.838L51.0267 121.948C50.9505 122.135 50.7641 122.058 50.7641 122.058L50.0103 122.838C49.934 123.025 49.7477 122.949 49.7477 122.949C49.7477 122.949 51.0267 121.948 50.7641 122.058C50.5778 121.982 49.4089 123.246 49.2226 123.169C49.2226 123.169 48.96 123.28 49.1463 123.356C48.8837 123.466 49.2226 123.169 48.96 123.28L48.7736 123.204C48.5111 123.314 48.1723 123.611 47.8334 123.907C47.9097 123.721 47.9097 123.721 47.9859 123.534L48.0621 123.348C47.7996 123.458 47.7996 123.458 47.537 123.569L47.3507 123.492C47.1643 123.416 46.7493 123.9 46.4105 124.196C46.4105 124.196 46.4105 124.196 46.3342 124.383C46.0716 124.493 45.8091 124.604 45.2839 124.824C45.2077 125.011 45.2077 125.011 45.4703 124.9L45.2077 125.011C45.3602 124.638 44.6825 125.231 44.835 124.858C44.835 124.858 44.5724 124.969 44.4962 125.155L44.42 125.342C44.1574 125.452 44.1574 125.452 43.8948 125.562C43.8948 125.562 43.8948 125.562 43.7085 125.486C43.3697 125.783 43.4459 125.596 43.1071 125.893C43.0308 126.08 42.692 126.376 42.692 126.376C43.0647 126.529 43.0647 126.529 42.8784 126.453Z" fill="#6D2E46"/>
        <path d="M68.4678 104.267L68.6202 103.894C68.2729 105.276 67.7393 106.581 66.9431 107.997C68.5355 105.165 69.7977 101.546 69.5182 99.0375C70.0434 98.8169 70.8142 95.8672 70.6279 95.791C70.6703 95.1553 70.7126 94.5197 70.9413 93.9602C70.7889 94.3332 70.8227 94.7824 70.6703 95.1553C70.6364 94.7062 70.7889 94.3332 70.9413 93.9602C71.5343 89.8495 72.7626 85.7809 74.3297 81.4154C74.6347 80.6695 75.0158 79.737 75.2869 78.5419L75.2107 78.7284C76.2441 75.6683 77.6926 72.125 78.6413 70.3363C78.7938 69.9633 78.9462 69.5903 79.0987 69.2173C78.87 69.7768 78.87 69.7768 78.6413 70.3363C79.2512 68.8444 79.5985 67.4628 80.3185 66.2335C80.2422 66.42 80.0559 66.3438 79.8272 66.9033L80.0559 66.3438C80.0983 65.7082 80.8183 64.4789 81.3096 63.8091C81.2333 63.9956 81.6484 63.5123 81.8008 63.1393L81.7246 63.3258C82.7834 61.7997 83.8422 60.2737 85.4177 59.6118C85.6802 59.5015 85.7565 59.315 85.9428 59.3911C86.468 59.1705 86.883 58.6872 87.2981 58.2039C87.2218 58.3904 88.3907 57.127 87.8995 57.7968C88.6194 56.5675 89.1531 55.2621 88.8652 53.8384C88.501 52.6013 87.6116 51.5848 86.4936 51.1277C85.8245 50.6365 84.8504 50.8913 84.5116 51.1881C83.9864 51.4088 83.5714 51.8921 83.0462 52.1127C81.3522 53.5967 80.2171 55.3093 78.8958 56.9457C77.9894 58.0988 77.4558 59.4042 76.4732 60.7438C75.8295 61.7865 74.957 63.3888 74.9146 64.0244C74.1946 65.2537 73.9659 65.8132 73.2459 67.0424C73.5848 66.7456 72.5259 68.2717 72.941 67.7884C73.6949 67.0083 73.5085 66.9321 73.9998 66.2623C76.1174 63.2102 78.235 60.1581 80.539 57.1821C81.3691 56.2155 82.0128 55.1727 83.0292 54.2823C83.4443 53.799 84.0457 53.3919 84.3845 53.0951C84.7233 52.7983 85.4348 52.6538 85.4348 52.6538C85.4348 52.6538 85.6211 52.73 85.9938 52.8823C86.1802 52.9585 86.4766 53.2973 86.6629 53.3735C86.9594 53.7123 87.1796 54.2377 87.2135 54.6868C87.205 55.7716 86.5612 56.8144 85.8073 57.5945C85.4685 57.8913 84.9434 58.112 84.6808 58.2223C82.4277 59.4778 80.6489 62.2331 79.5478 64.3948C79.5478 64.3948 79.5478 64.3948 79.624 64.2083C78.904 65.4376 78.3365 66.2939 77.8028 67.5993C77.8028 67.5993 77.7266 67.7858 77.6504 67.9723C77.3878 68.0826 74.8635 75.3216 74.8974 75.7708C74.8211 75.9573 74.8211 75.9573 74.7449 76.1438C74.5162 76.7032 74.2875 77.2627 74.0588 77.8222C73.2202 79.8736 72.4578 81.7385 71.8818 83.6796C71.8394 84.3152 71.687 84.6882 71.6446 85.3238C71.4921 85.6968 71.6785 85.773 71.4497 86.3325C70.7298 87.5617 70.6874 88.1974 70.9161 87.6379C70.645 88.833 70.2638 89.7655 70.1452 90.5876C69.9928 90.9606 70.0266 91.4098 69.8742 91.7827C69.7217 92.1557 69.6454 92.3422 69.5692 92.5287C69.3744 93.5373 69.3405 93.0882 69.1457 94.0968C69.0694 94.2833 68.7899 96.5632 68.6374 96.9362L68.7136 96.7497C68.4425 97.9448 68.1376 98.6908 67.7564 99.6232C66.9856 102.573 66.0622 105.896 64.6222 108.354C64.8086 108.43 64.851 107.795 65.0373 107.871C64.2411 109.287 63.2585 110.626 62.1997 112.152C61.9371 112.263 61.7846 112.636 61.5221 112.746C61.107 113.229 61.3696 113.119 61.107 113.229L60.9207 113.153C60.692 113.712 60.2431 113.747 60.0906 114.12C60.0906 114.12 60.0143 114.306 59.9381 114.493C59.9381 114.493 59.5231 114.976 59.5993 114.789C59.5231 114.976 59.5231 114.976 59.2605 115.086C59.1843 115.273 57.8629 116.909 57.7866 117.096C57.5241 117.206 57.4478 117.392 57.7104 117.282L57.3716 117.579L57.0328 117.876C57.0328 117.876 56.7702 117.986 56.8464 117.8C56.7702 117.986 56.5076 118.096 56.4314 118.283C56.7702 117.986 57.3716 117.579 57.973 117.172C57.8967 117.358 57.3716 117.579 57.2191 117.952C56.9565 118.062 56.3552 118.469 55.9401 118.953C55.8639 119.139 55.8639 119.139 55.6013 119.249C55.415 119.173 55.3387 119.36 55.0761 119.47C55.1524 119.284 55.415 119.173 55.6775 119.063C55.4912 118.987 55.0761 119.47 55.0761 119.47C55.0761 119.47 54.6611 119.953 54.3985 120.064C54.4748 119.877 54.1359 120.174 53.8734 120.284C53.6108 120.395 53.5346 120.581 53.7971 120.471C53.7209 120.657 54.3985 120.064 54.3223 120.25C54.3223 120.25 53.9835 120.547 53.7209 120.657C53.4583 120.768 53.3821 120.954 53.1195 121.064C53.1195 121.064 53.1957 120.878 53.3821 120.954C53.1195 121.064 54.551 119.691 54.2122 119.987C54.3985 120.064 52.7807 121.361 53.0433 121.251C53.3059 121.141 52.967 121.437 53.2296 121.327L53.3059 121.141C53.5684 121.03 53.7548 121.106 53.5684 121.03C53.2296 121.327 54.4748 119.877 54.1359 120.174L54.3985 120.064C54.3223 120.25 53.9835 120.547 53.7971 120.471C53.7971 120.471 53.7209 120.657 53.4583 120.768C53.3821 120.954 53.1195 121.064 53.1195 121.064C54.0597 120.36 52.7383 121.997 53.6785 121.293C53.1534 121.514 53.7548 121.106 54.0936 120.81C54.0936 120.81 54.3562 120.699 54.6187 120.589C54.8813 120.479 54.695 120.402 54.695 120.402C54.9575 120.292 55.0338 120.106 55.2201 120.182C55.2964 119.995 55.5589 119.885 55.8215 119.775C55.8977 119.588 55.8215 119.775 55.8977 119.588C56.2366 119.291 56.5754 118.995 56.8379 118.884C57.0243 118.96 57.3631 118.664 57.2106 119.037C56.7956 119.52 57.2869 118.85 56.948 119.147C57.2106 119.037 56.6092 119.444 56.533 119.63C56.7956 119.52 57.0582 119.41 57.2106 119.037C57.4732 118.926 57.8882 118.443 58.1508 118.333C58.1508 118.333 58.1508 118.333 58.0746 118.519L58.5235 118.485C58.5997 118.299 58.8623 118.188 58.8623 118.188L60.1837 116.552C60.2599 116.365 60.5225 116.255 60.5987 116.069C60.2599 116.365 59.2774 117.705 59.0148 117.815C59.2774 117.705 61.09 115.399 61.1663 115.212C61.2425 115.026 61.5051 114.915 61.3187 114.839C61.6575 114.543 61.2425 115.026 61.5051 114.915L61.7676 114.805C61.9964 114.246 62.674 113.652 62.9027 113.093C62.8265 113.279 62.7502 113.466 62.5977 113.839L62.4453 114.212C62.7841 113.915 62.8603 113.728 63.0128 113.355L63.089 113.169C63.3516 113.058 63.809 111.94 64.2241 111.456C64.3003 111.27 64.2241 111.456 64.3003 111.27C64.7153 110.786 64.9441 110.227 65.3591 109.744C65.4353 109.557 65.4353 109.557 65.1728 109.667L65.4015 109.108C65.4353 109.557 65.969 108.252 65.9266 108.887C66.0029 108.701 66.0791 108.514 66.2316 108.141C66.2316 108.141 66.0452 108.065 66.384 107.768C66.6127 107.209 66.5365 107.395 66.8753 107.099C66.9516 106.912 66.8753 107.099 67.0617 107.175C67.2904 106.615 67.4767 106.692 67.5191 106.056C67.6716 105.683 67.9765 104.937 67.7902 104.861C68.2814 104.191 68.4678 104.267 68.4678 104.267Z" fill="#6D2E46"/>
        <path d="M49.3709 65.3262L49.5234 64.9532C48.9897 66.2586 47.9733 67.149 47.5921 68.0815C48.0072 67.5982 48.4222 67.1149 48.8373 66.6316C49.3285 65.9618 49.8198 65.292 50.0485 64.7326C50.5822 63.4271 51.1158 62.1217 51.0142 60.7742C51.2768 60.6639 51.5818 59.9179 51.6241 59.2823C51.7427 58.4601 51.7851 57.8245 51.7851 57.8245C51.6411 57.1127 51.6073 56.6635 51.4633 55.9517C51.4972 56.4009 51.7936 56.7397 51.8275 57.1889C51.7936 56.7397 51.7597 56.2905 51.4633 55.9517C51.2092 54.9772 50.6926 54.113 50.1759 53.2489C49.6593 52.3847 48.5836 51.292 47.0505 51.3183C46.4152 51.2762 45.6275 51.6072 45.2887 51.904C44.7635 52.1246 44.2723 52.7944 43.8572 53.2777C43.2135 54.3205 43.205 55.4053 42.7137 56.0751C42.6374 56.2616 42.485 56.6346 42.4087 56.821C42.3325 57.0075 42.18 57.3805 41.8412 57.6773C41.3499 58.3471 40.5961 59.1272 40.0286 59.9835C38.8935 61.6961 37.5721 63.3324 36.9284 64.3752C36.7759 64.7482 36.5133 64.8585 36.3608 65.2315C36.5896 64.672 36.5896 64.672 37.0046 64.1887C36.2846 65.418 35.9373 66.7996 35.6662 67.9947C35.7425 67.8082 35.7425 67.8082 36.1575 67.3249L35.9288 67.8844C35.8864 68.52 35.6154 69.7152 35.573 70.3508C35.6492 70.1643 35.4205 70.7238 35.2681 71.0968L35.3443 70.9103C34.9207 72.4784 34.421 74.233 33.8873 75.5384C33.8111 75.7249 33.7348 75.9114 33.7348 75.9114C33.5824 76.2844 33.4299 76.6573 33.2012 77.2168C33.2774 77.0303 32.5574 78.2596 32.8624 77.5136C32.4812 78.4461 32.2101 79.6412 32.0153 80.6498C31.7018 82.4806 31.8373 84.2772 31.8965 86.2603C32.032 88.057 32.3538 89.9298 32.4893 91.7264C32.6671 92.8874 32.845 94.0483 32.6078 95.6926C32.5993 96.7774 32.1757 98.3455 32.3959 98.8708C31.9385 99.9898 31.8961 100.625 31.4387 101.744C31.7775 101.448 30.9813 102.863 31.3964 102.38C31.8876 101.71 31.8876 101.71 32.1926 100.964C32.9888 99.5485 33.4886 97.7939 33.9884 96.0393C34.3018 94.2086 34.3527 92.4881 34.141 90.878C33.9716 88.6322 33.616 86.3103 33.633 84.1407C33.7177 82.8694 33.5399 81.7084 33.921 80.7759C34.1921 79.5808 34.5733 78.6484 34.9545 77.7159C35.1832 77.1564 35.522 76.8596 35.6745 76.4866C36.4368 74.6217 37.0552 72.045 37.7075 69.9174C37.7075 69.9174 37.7075 69.9174 37.6312 70.1039C37.9023 68.9088 38.2072 68.1628 38.5884 67.2304L38.6647 67.0439C38.5546 66.7812 41.8496 61.3809 42.1884 61.0841C42.2646 60.8976 42.2646 60.8976 42.3409 60.7111C42.7559 60.2278 43.171 59.7445 43.586 59.2612C43.6622 59.0747 44.0011 58.7779 44.0773 58.5914C44.2298 58.2184 44.5686 57.9216 44.6448 57.7351C45.2886 56.6924 45.6359 55.3107 45.9408 54.5648C46.0933 54.1918 46.1695 54.0053 46.322 53.6323C46.5846 53.522 46.6608 53.3355 46.9234 53.2252C47.0759 52.8522 47.2622 52.9284 47.2622 52.9284C47.4485 53.0046 47.4485 53.0046 47.3384 52.7419C47.7874 52.7078 48.3802 53.3855 48.7868 53.987C48.8969 54.2496 49.1933 54.5885 49.3034 54.8511C49.4135 55.1138 49.5236 55.3765 49.4474 55.5629C49.7777 56.3509 49.6676 56.0883 49.8116 56.8001C49.7354 56.9866 49.7692 57.4357 49.9894 57.9611C50.0233 58.4102 49.9809 59.0459 49.9809 59.0459L50.0572 58.8594C49.8623 59.868 49.6336 60.4275 49.3287 61.1734C48.8713 62.2924 48.2614 63.7843 47.6176 64.8271C47.3889 65.3866 46.9739 65.8699 46.4826 66.5396C45.9913 67.2094 45.6863 67.9554 45.644 68.591C45.8303 68.6672 45.8727 68.0316 45.8727 68.0316C45.2628 69.5235 44.8393 71.0916 44.7884 72.812C44.7122 72.9985 44.746 73.4477 44.6698 73.6342C44.7036 74.0833 44.7799 73.8968 44.6274 74.2698C44.6613 74.719 44.5088 75.092 44.5427 75.5411C44.5427 75.5411 44.6528 75.8038 44.5765 75.9903C44.5765 75.9903 44.6104 76.4394 44.5342 76.6259C44.5342 76.6259 44.4579 76.8124 44.6443 76.8886C44.7544 77.1513 45.0762 79.0241 45.2625 79.1002C45.3726 79.3629 45.2964 79.5494 45.3726 79.3629L45.4065 79.8121L45.5166 80.0747C45.6267 80.3374 45.5505 80.5239 45.7368 80.6C45.703 80.1509 45.6352 79.2526 45.6013 78.8034C45.7115 79.0661 45.7453 79.5152 45.6691 79.7017C45.7792 79.9644 45.7368 80.6001 45.7707 81.0492C45.7707 81.0492 45.957 81.1254 45.9909 81.5745C45.9147 81.761 46.101 81.8372 46.0248 82.0237C45.9147 81.761 45.9909 81.5745 45.8808 81.3119C45.8808 81.3119 45.8384 81.9475 46.0248 82.0237C46.0248 82.0237 46.245 82.549 46.3551 82.8117C46.1687 82.7355 46.2788 82.9982 46.3889 83.2608C46.499 83.5235 46.4991 83.5235 46.4991 83.5235C46.6854 83.5997 46.3551 82.8117 46.4652 83.0743C46.4652 83.0743 46.4991 83.5235 46.6092 83.7862C46.7193 84.0488 46.8294 84.3115 46.8294 84.3115C46.8294 84.3115 46.9056 84.125 46.7193 84.0488C46.8294 84.3115 45.9824 82.6593 46.0925 82.922C46.0925 82.922 46.7531 84.498 46.8294 84.3115C46.9056 84.125 47.0157 84.3877 46.9056 84.125L46.7955 83.8623C46.6854 83.5997 46.7616 83.4132 46.948 83.4894C46.9818 83.9385 46.3212 82.3625 46.3551 82.8117L46.4313 82.6252C46.5414 82.8879 46.6515 83.1505 46.5753 83.337C46.5753 83.337 46.6854 83.5997 46.8717 83.6759C46.9818 83.9385 46.9056 84.125 46.9818 83.9385C46.7278 82.964 47.651 84.4297 47.3969 83.4552C47.4307 83.9044 47.2105 83.379 47.1767 82.9299C47.1767 82.9299 47.2529 82.7434 47.219 82.2942C47.1089 82.0316 47.1089 82.0316 47.1089 82.0316C47.1852 81.8451 47.0751 81.5824 47.0751 81.5824C46.965 81.3198 47.0412 81.1333 46.8549 81.0571C46.7448 80.7944 46.8549 81.0571 46.6685 80.9809C46.5584 80.7183 46.5245 80.2691 46.4907 79.8199C46.5669 79.6334 46.6431 79.447 46.7532 79.7096C46.7871 80.1588 46.5669 79.6334 46.6008 80.0826C46.677 79.8961 46.6347 80.5318 46.821 80.6079C46.8972 80.4214 46.7871 80.1588 46.677 79.8961C46.5669 79.6334 46.5331 79.1843 46.4229 78.9216C46.4229 78.9216 46.4229 78.9216 46.6093 78.9978L46.4992 78.7351C46.3891 78.4725 46.3891 78.4725 46.4653 78.286C46.4653 78.286 46.1435 76.4132 46.0673 76.5997C45.9572 76.337 46.2197 76.2267 46.1096 75.964C46.1096 75.964 46.4653 78.286 46.3552 78.0233C46.4314 77.8368 45.7793 75.176 46.0419 75.0657C46.1181 74.8792 46.008 74.6166 46.008 74.6166C46.0843 74.4301 46.1944 74.6927 46.0843 74.4301L46.1605 74.2436C46.1266 73.7944 46.2452 72.9723 46.2114 72.5231C46.3215 72.7858 46.3215 72.7858 46.3553 73.235L46.4654 73.4976C46.5417 73.3111 46.5078 72.862 46.3977 72.5993L46.4739 72.4128C46.5502 72.2263 46.4824 71.328 46.5248 70.6924C46.6011 70.5059 46.5248 70.6924 46.6011 70.5059C46.8298 69.9464 46.9822 69.5734 47.2109 69.014C47.2872 68.8275 47.1008 68.7513 47.0246 68.9378L47.1771 68.5648C47.2109 69.014 47.6684 67.895 47.7022 68.3442C47.7785 68.1577 47.8547 67.9712 47.9309 67.7847C47.9309 67.7847 47.7446 67.7085 48.0834 67.4117C48.4222 67.1149 48.2359 67.0387 48.4984 66.9284C48.4984 66.9284 48.4984 66.9284 48.6848 67.0046C48.9135 66.4451 49.0236 66.7078 49.4386 66.2245C49.5911 65.8515 50.0062 65.3682 49.8198 65.292C49.3709 65.3262 49.3709 65.3262 49.3709 65.3262Z" fill="#6D2E46"/>
        <path d="M63.2037 45.3138L63.4663 45.2035C62.7886 45.7971 61.8484 46.5011 60.9845 47.0185C62.8987 46.0598 65.0417 44.5416 65.9142 42.9394C66.2869 43.0917 67.9047 41.7942 67.9047 41.7942C68.2435 41.4974 68.396 41.1244 68.7348 40.8276C69.7512 39.9372 70.7677 39.0467 72.1568 38.3087C72.7582 37.9015 73.5459 37.5706 73.9948 37.5364C74.7063 37.392 75.1552 37.3578 75.4517 37.6967C75.638 37.7729 75.7481 38.0355 75.9683 38.5609C76.1885 39.0862 76.1461 39.7218 76.1038 40.3575C76.0614 40.9931 75.8327 41.5526 75.604 42.1121C75.3753 42.6715 74.9602 43.1548 74.6214 43.4516C74.5452 43.6381 74.2826 43.7485 74.2064 43.9349C74.5452 43.6381 74.5452 43.6381 74.6977 43.2652C74.1301 44.1214 73.5626 44.9777 73.0713 45.6475C73.3339 45.5372 73.3339 45.5372 73.5965 45.4269L73.2577 45.7237C73.1052 46.0967 72.3513 46.8768 72.1989 47.2497C72.2751 47.0633 71.9363 47.3601 71.5975 47.6569L71.6737 47.4704C70.8436 48.437 69.751 49.5139 68.9971 50.294C68.9209 50.4805 68.7345 50.4043 68.7345 50.4043L67.9807 51.1844C68.0569 50.9979 67.303 51.778 67.7181 51.2947C67.2268 51.9645 66.5492 52.5581 66.1341 53.0414C65.1177 53.9319 64.1013 54.8223 63.0086 55.8992C61.9159 56.9761 61.0096 58.1292 60.1033 59.2823C59.5357 60.1386 59.0445 60.8083 58.2144 61.7749C57.7231 62.4447 56.893 63.4113 56.7405 63.7843C55.8765 64.3017 55.5377 64.5986 54.6738 65.116C54.8601 65.1922 53.8098 65.6334 54.2587 65.5993C54.9702 65.4548 55.0464 65.2683 55.4954 65.2342C56.732 64.8691 58.011 63.8684 59.0275 62.978C59.8575 62.0114 60.874 61.1209 61.7041 60.1543C62.1954 59.4845 62.9492 58.7044 63.4405 58.0346C63.9318 57.3649 64.7958 56.8474 65.4734 56.2538C66.9049 54.8801 68.4126 53.3199 69.5815 52.0565C69.9203 51.7597 70.1829 51.6494 70.3353 51.2764C71.5043 50.013 72.6732 48.7496 74.1046 47.3758C74.7823 46.7822 75.2735 46.1124 75.7648 45.4427L75.8411 45.2562C75.8411 45.2562 76.7474 44.1031 77.4674 42.8738C78.2636 41.4581 78.0519 39.8479 78.1281 39.6614C78.1281 39.6614 78.2044 39.4749 78.018 39.3988C78.0265 38.314 77.8487 37.153 77.1457 36.2126C76.7392 35.6111 75.9938 35.3064 75.3586 35.2644C74.7233 35.2224 74.088 35.1803 73.7492 35.4772C73.4104 35.774 72.9615 35.8081 72.6227 36.1049C72.3601 36.2152 72.2839 36.4017 72.0213 36.512C71.1235 36.5803 70.7084 37.0636 71.1573 37.0295C70.556 37.4366 69.7682 37.7675 69.3532 38.2508C69.0906 38.3612 68.9381 38.7341 68.6755 38.8445C68.413 38.9548 68.3367 39.1413 68.1504 39.0651C67.549 39.4722 67.8116 39.3619 67.2102 39.769C66.9476 39.8793 66.0413 41.0324 65.7787 41.1427L65.855 40.9563C65.1773 41.5499 64.6522 41.7705 64.0508 42.1776C62.433 43.4752 60.6627 45.1457 58.9347 46.1806C58.9347 46.1806 59.2736 45.8838 59.4599 45.9599C58.5197 46.6639 57.4694 47.1051 56.3428 47.7329C56.0803 47.8432 55.8177 47.9535 55.8177 47.9535C55.4789 48.2503 55.7415 48.14 55.4789 48.2503L55.2925 48.1742C54.9537 48.471 54.7674 48.3948 54.4286 48.6916C54.4286 48.6916 54.3524 48.8781 54.166 48.8019L53.8272 49.0987C53.8272 49.0987 53.751 49.2852 53.5646 49.209C53.4884 49.3955 52.5821 50.5486 52.5058 50.7351C52.4296 50.9216 52.3534 51.1081 52.4296 50.9216L52.3534 51.1081L52.2771 51.2946C52.2771 51.2946 52.2771 51.2946 52.0908 51.2184C52.0145 51.4049 51.9383 51.5914 51.752 51.5152C52.0908 51.2184 52.4296 50.9216 52.9547 50.701C52.8785 50.8875 52.6159 50.9978 52.5397 51.1843C52.2771 51.2946 51.9383 51.5914 51.5995 51.8882C51.5995 51.8882 51.5232 52.0747 51.447 52.2612C51.2607 52.185 51.3708 52.4477 51.1082 52.558C51.1844 52.3715 51.2607 52.185 51.5232 52.0747C51.5232 52.0747 51.1844 52.3715 51.1082 52.558C51.1082 52.558 50.7694 52.8548 50.6932 53.0413C50.7694 52.8548 50.4306 53.1516 50.4306 53.1516C50.3543 53.3381 50.3543 53.3381 50.3543 53.3381C50.3543 53.3381 50.7694 52.8548 50.6932 53.0413L50.3543 53.3381C50.2781 53.5246 50.2019 53.7111 50.0155 53.6349L50.0918 53.4484C50.0155 53.6349 50.5492 52.3295 50.473 52.516C50.473 52.516 49.753 53.7452 50.0155 53.6349C50.0918 53.4484 49.9393 53.8214 50.2019 53.7111L50.2781 53.5246C50.3543 53.3381 50.5407 53.4143 50.5407 53.4143C50.2019 53.7111 50.9219 52.4818 50.8456 52.6683L50.9219 52.4818C50.8456 52.6683 50.7694 52.8548 50.5068 52.9651C50.5068 52.9651 50.4306 53.1516 50.3543 53.3381C50.2781 53.5246 50.2019 53.7111 50.2781 53.5246C50.7694 52.8548 50.4221 54.2364 50.8371 53.7531C50.5745 53.8634 50.9134 53.5666 50.9896 53.3801C50.9896 53.3801 51.2522 53.2698 51.3284 53.0833C51.4047 52.8968 51.4047 52.8968 51.4047 52.8968C51.4809 52.7103 51.7435 52.6 51.6672 52.7865C51.7435 52.6 51.9298 52.6762 52.006 52.4897C52.0823 52.3032 52.006 52.4897 52.0823 52.3032C52.1585 52.1167 52.4973 51.8199 52.7599 51.7096C52.7599 51.7096 53.0225 51.5993 52.9462 51.7858C52.6074 52.0826 53.0225 51.5993 52.6837 51.8961C52.9462 51.7858 52.5312 52.2691 52.5312 52.2691C52.6074 52.0826 52.87 51.9723 52.9462 51.7858C53.0225 51.5993 53.3613 51.3025 53.4375 51.116C53.4375 51.116 53.4375 51.116 53.3613 51.3025L53.4375 51.116C53.5138 50.9295 53.5138 50.9295 53.7763 50.8192L54.6827 49.6661C54.7589 49.4796 54.9452 49.5558 55.0215 49.3693C55.0215 49.3693 53.7763 50.8192 53.8526 50.6327C53.9288 50.4462 55.4365 48.886 55.4365 48.886C55.5128 48.6995 55.6991 48.7757 55.5128 48.6995C55.7753 48.5892 55.4365 48.886 55.6991 48.7757L55.9617 48.6654C56.3005 48.3686 56.6393 48.0717 56.9781 47.7749C56.9019 47.9614 56.9019 47.9614 56.5631 48.2582C56.5631 48.2582 56.3005 48.3686 56.4868 48.4447C56.7494 48.3344 56.8256 48.1479 57.0882 48.0376L57.2745 48.1138C57.4609 48.19 57.9522 47.5202 58.4773 47.2995C58.5536 47.113 58.4773 47.2995 58.5536 47.113C59.0787 46.8924 59.3413 46.7821 59.6801 46.4853C59.7563 46.2988 59.7563 46.2988 59.4938 46.4091L59.7563 46.2988C59.6039 46.6718 60.4678 46.1543 60.129 46.4511C60.129 46.4511 60.3916 46.3408 60.6542 46.2305C60.6542 46.2305 60.7304 46.044 60.8066 45.8575C61.0692 45.7472 61.0692 45.7472 61.3318 45.6369C61.6706 45.3401 61.7807 45.6028 62.1195 45.3059C62.3821 45.1956 62.7971 44.7123 62.6108 44.6362C63.2037 45.3138 63.2037 45.3138 63.2037 45.3138Z" fill="#6D2E46"/>
        <path d="M71.154 57.2526L71.2302 57.0661C70.8152 57.5494 70.3239 58.2192 69.7225 58.6263C71.0015 57.6256 72.5431 56.5145 72.7041 55.0568C73.0768 55.2091 73.9831 54.056 74.0593 53.8695C74.2118 53.4965 74.288 53.3101 74.4405 52.9371C75.3892 51.1483 77.0833 49.6643 78.591 48.1041C79.4211 47.1375 81.869 44.8733 82.8854 43.9829C82.9617 43.7964 83.2242 43.6861 83.2242 43.6861C82.9617 43.7964 82.9617 43.7964 82.6229 44.0932C83.1141 43.4235 83.5292 42.9402 83.9442 42.4569C83.9442 42.4569 83.7579 42.3807 83.4953 42.491L83.7579 42.3807C83.9104 42.0077 84.5118 41.6006 84.588 41.4141C84.5118 41.6006 84.8506 41.3038 85.1131 41.1934C85.9771 40.676 86.8072 39.7094 87.2985 39.0396C87.3747 38.8531 87.3747 38.8531 87.3747 38.8531C87.5272 38.4801 87.6034 38.2937 87.6797 38.1072C87.866 38.1833 87.9846 37.3612 88.0185 37.8104C88.0608 37.1747 88.3658 36.4288 88.0355 35.6408C87.485 34.3274 86.4432 33.6839 85.3251 33.2269C84.1308 32.9563 83.1229 32.7619 81.8863 33.127C81.1748 33.2715 80.5734 33.6786 79.7094 34.196C79.2944 34.6793 78.6167 35.2729 78.6506 35.7221C78.2356 36.2054 78.0831 36.5784 77.8544 37.1378C78.117 37.0275 77.6257 37.6973 77.8883 37.587C78.2271 37.2902 78.0407 37.214 78.3795 36.9172C79.5484 35.6538 81.0138 34.7292 82.5469 34.703C83.521 34.4482 84.9016 34.7949 85.757 35.3623C86.3161 35.5908 86.4262 35.8535 86.46 36.3027C86.4939 36.7518 86.2652 37.3113 86.1127 37.6843C86.0365 37.8707 85.9602 38.0572 85.6977 38.1676C85.5452 38.5405 85.1301 39.0238 84.605 39.2445C84.2662 39.5413 83.4022 40.0587 82.9872 40.542C82.3858 40.9491 82.047 41.246 81.4456 41.6531L81.3693 41.8396C81.183 41.7634 78.8791 44.7394 78.6165 44.8497L78.5402 45.0362C77.5238 45.9266 76.2448 46.9273 75.6773 47.7836C75.601 47.9701 75.4486 48.3431 75.3723 48.5296C75.1098 48.6399 75.2961 48.7161 75.0335 48.8264C74.4321 49.2335 74.2797 49.6065 74.6185 49.3097C74.2034 49.793 73.8646 50.0898 73.7121 50.4628C73.6359 50.6493 73.5597 50.8357 73.2971 50.9461C73.2209 51.1326 73.0345 51.0564 72.9583 51.2429C72.8058 51.6159 72.6195 51.5397 72.467 51.9127C72.2807 51.8365 71.8232 52.9554 71.747 53.1419C71.332 53.6252 71.0694 53.7355 70.6543 54.2188C69.748 55.3719 68.5791 56.6353 67.4864 57.7122C67.4864 57.7122 67.6389 57.3393 67.749 57.6019C67.0714 58.1955 66.3938 58.7892 65.9025 59.4589C65.8262 59.6454 65.5637 59.7557 65.5637 59.7557C65.3011 59.8661 65.4874 59.9422 65.4112 60.1287L65.2248 60.0526C65.0724 60.4255 64.886 60.3494 64.8098 60.5359L64.7336 60.7223C64.7336 60.7223 64.5811 61.0953 64.471 60.8327L64.3948 61.0192C64.3185 61.2056 63.9373 62.1381 63.8611 62.3246C63.7849 62.5111 63.7849 62.5111 63.7849 62.5111L63.7086 62.6976L63.6324 62.8841C63.6324 62.8841 63.6324 62.8841 63.4461 62.8079C63.3698 62.9944 63.3698 62.9944 63.2936 63.1809C63.5562 63.0706 63.7086 62.6976 64.0474 62.4008C63.9712 62.5873 63.895 62.7737 63.6324 62.8841C63.3698 62.9944 63.2936 63.1809 62.9548 63.4777L62.8785 63.6642C62.8785 63.6642 62.8023 63.8507 62.616 63.7745C62.6922 63.588 62.6922 63.588 62.7684 63.4015L62.4296 63.6983L62.2772 64.0713C62.2772 64.0713 62.2009 64.2578 62.0146 64.1816C61.9383 64.3681 61.9383 64.3681 61.9383 64.3681C61.9383 64.3681 62.2771 64.0713 62.2009 64.2578C62.2009 64.2578 62.1247 64.4443 62.0484 64.6308C61.9722 64.8173 61.9722 64.8173 61.896 65.0037C61.896 65.0037 61.896 65.0037 61.9722 64.8173C61.896 65.0037 62.167 63.8086 62.0908 63.9951C62.0908 63.9951 61.896 65.0037 61.9722 64.8173C61.9722 64.8173 61.9722 64.8173 62.1585 64.8934L62.2348 64.7069C62.311 64.5204 62.4974 64.5966 62.4974 64.5966C62.4211 64.7831 62.616 63.7745 62.5397 63.961L62.3872 64.334L62.311 64.5204C62.2348 64.7069 62.2348 64.7069 62.2348 64.7069C62.6498 64.2236 62.455 65.2323 62.7938 64.9355C62.5312 65.0458 62.6075 64.8593 62.9463 64.5625L63.2088 64.4522C63.2851 64.2657 63.2088 64.4522 63.2851 64.2657C63.2851 64.2657 63.3613 64.0792 63.5477 64.1554C63.6239 63.9689 63.6239 63.9689 63.7001 63.7824C63.7764 63.5959 64.0389 63.4856 64.1152 63.2991C64.1152 63.2991 64.3778 63.1888 64.3015 63.3752C64.2253 63.5617 64.1914 63.1126 64.0389 63.4856C64.3015 63.3752 63.9627 63.6721 63.8865 63.8585C63.8865 63.8585 64.149 63.7482 64.2253 63.5617C64.3015 63.3752 64.3778 63.1888 64.6403 63.0784L64.7166 62.8919L64.7928 62.7055L65.174 61.773C65.2502 61.5865 65.4366 61.6627 65.4366 61.6627C65.4366 61.6627 64.7166 62.892 64.7928 62.7055C64.869 62.519 65.589 61.2897 65.589 61.2897C65.6653 61.1032 65.6653 61.1032 65.6653 61.1032C65.7415 60.9167 65.6653 61.1032 65.8516 61.1794C65.9278 60.9929 66.2667 60.6961 66.4191 60.3231C66.4191 60.3231 66.3429 60.5096 66.2667 60.6961L66.1904 60.8826C66.2667 60.6961 66.5292 60.5858 66.5292 60.5858C66.7156 60.662 66.9443 60.1025 67.2831 59.8057C67.2831 59.8057 67.2831 59.8057 67.3593 59.6192C67.6219 59.5089 67.6981 59.3224 68.0369 59.0256C68.1132 58.8391 68.1132 58.8391 67.8506 58.9494L68.1132 58.8391C68.0369 59.0256 68.6383 58.6184 68.4859 58.9914C68.4859 58.9914 68.7484 58.8811 68.8247 58.6946C68.8247 58.6946 68.8247 58.6946 68.9009 58.5081C69.1635 58.3978 68.9771 58.3216 69.2397 58.2113C69.2397 58.2113 69.2397 58.2113 69.4261 58.2875C69.5785 57.9145 69.6886 58.1772 70.0274 57.8804C70.1037 57.6939 70.4425 57.3971 70.2562 57.3209C71.0439 56.9899 71.2302 57.0661 71.154 57.2526Z" fill="#6D2E46"/>
        <path d="M89.8236 42.4779C89.8998 42.2914 89.7897 42.0287 89.866 41.8422C89.6373 42.4017 89.2985 42.6985 89.705 43.3C89.3323 43.1477 88.9173 43.631 89.1036 43.7071C89.0274 43.8936 89.2137 43.9698 89.1375 44.1563C89.0189 44.9784 88.5276 45.6482 87.7737 46.4283C87.4349 46.7251 86.5286 47.8782 86.0034 48.0988C86.0034 48.0988 85.9272 48.2853 85.7409 48.2092C85.8171 48.0227 85.8171 48.0227 86.0034 48.0988C85.851 48.4718 85.7747 48.6583 85.6223 49.0313C85.6223 49.0313 85.8086 49.1075 85.8848 48.921L85.8086 49.1075C85.9187 49.3701 85.6561 49.4805 85.5799 49.6669C85.5799 49.6669 85.3935 49.5908 85.3173 49.7773C84.9785 50.0741 84.826 50.4471 84.4872 50.7439L84.3347 51.1168C84.3347 51.1168 84.0722 51.2272 84.1484 51.0407C84.0722 51.2272 83.8096 51.3375 83.6571 51.7105C83.1658 52.3802 82.4882 52.9739 81.9969 53.6436C81.8445 54.0166 81.7682 54.2031 81.4294 54.4999C81.2769 54.8729 81.2007 55.0594 81.1245 55.2459C80.8619 55.3562 80.972 55.6189 80.6332 55.9157C80.8195 55.9919 80.4807 56.2887 80.7433 56.1783C81.0059 56.068 81.0059 56.068 81.1922 56.1442C81.9799 55.8132 82.6576 55.2196 83.2589 54.8125C83.674 54.3292 84.0128 54.0324 84.4278 53.5491C84.8429 53.0658 85.2579 52.5825 85.4867 52.023C85.5629 51.8366 85.7492 51.9127 85.7492 51.9127C86.088 51.6159 86.5031 51.1326 86.7318 50.5731C86.808 50.3867 87.0706 50.2763 87.4094 49.9795C87.5958 50.0557 88.2057 48.5638 88.2819 48.3773C88.6969 47.894 89.2221 47.6734 89.6371 47.1901C89.7134 47.0036 89.7134 47.0036 89.6033 46.7409L89.6795 46.5544C90.1284 46.5203 90.0183 46.2576 89.9421 46.4441C90.0183 46.2576 90.0945 46.0711 90.1708 45.8846L90.247 45.6981C90.247 45.6981 90.3233 45.5116 90.5096 45.5878C90.5858 45.4013 90.5858 45.4013 90.6621 45.2148C90.8484 45.291 90.7044 44.5792 90.7044 44.5792C90.7807 44.3927 91.0433 44.2824 91.1957 43.9094C91.5007 43.1634 91.5092 42.0786 91.3652 41.3668C91.3652 41.3668 91.4753 41.6295 91.289 41.5533C91.2551 41.1041 91.2212 40.655 91.001 40.1297L91.0772 39.9432C91.1535 39.7567 91.0772 39.9432 90.8909 39.867C90.7046 39.7908 90.7808 39.6043 90.7808 39.6043C90.7808 39.6043 90.7808 39.6043 90.5945 39.5282C90.5945 39.5282 90.4081 39.452 90.6707 39.3417C90.6707 39.3417 90.1117 39.1131 89.9253 39.037L89.739 38.9608L89.5527 38.8846C89.6628 39.1473 89.6628 39.1473 89.7729 39.41C89.7729 39.41 89.5865 39.3338 89.6628 39.1473C89.6628 39.1473 89.5527 38.8846 89.6289 38.6981C89.6289 38.6981 89.6289 38.6981 89.4426 38.622L89.6289 38.6981L89.5188 38.4355L89.3325 38.3593C89.3325 38.3593 89.3324 38.3593 89.4087 38.1728C89.4087 38.1728 89.5188 38.4355 89.3325 38.3593L89.1461 38.2831L88.9598 38.2069C88.9598 38.2069 89.595 38.249 89.4087 38.1728C89.4087 38.1728 88.7734 38.1308 88.9598 38.2069C88.9598 38.2069 88.9598 38.2069 88.8835 38.3934L88.8073 38.5799C88.621 38.5037 89.2562 38.5458 89.2562 38.5458L89.0699 38.4696C89.0699 38.4696 89.0699 38.4696 88.8835 38.3934L88.6972 38.3173C88.8835 38.3934 88.172 38.5379 88.4685 38.8767C88.5447 38.6902 88.5447 38.6902 88.6548 38.9529L88.5786 39.1394C88.5786 39.1394 88.5786 39.1394 88.5024 39.3259C88.5024 39.3259 88.5024 39.3259 88.6887 39.4021C88.6887 39.4021 88.875 39.4782 88.7988 39.6647L88.7226 39.8512C88.5362 39.775 88.9851 39.7409 88.7988 39.6647C88.7226 39.8512 88.6125 39.5886 88.6125 39.5886C88.6125 39.5886 88.5362 39.775 88.7226 39.8512C88.7226 39.8512 88.9089 39.9274 88.8327 40.1139L89.2053 40.2662C89.2053 40.2662 89.1291 40.4527 89.3917 40.3424C89.3917 40.3424 88.9089 39.9274 89.0952 40.0036C89.0952 40.0036 89.7644 40.4948 89.578 40.4186C89.578 40.4186 89.578 40.4186 89.7644 40.4948C89.7644 40.4948 89.7644 40.4948 89.6881 40.6812C89.8745 40.7574 89.7982 40.9439 89.9846 41.0201L89.7982 40.9439C89.7982 40.9439 89.7982 40.9439 89.6119 40.8677C89.6119 40.8677 89.6119 40.8677 89.722 41.1304C89.6458 41.3169 89.8321 41.3931 89.8321 41.3931C89.7559 41.5796 89.7559 41.5796 89.866 41.8422C89.866 41.8422 89.866 41.8422 90.0523 41.9184C89.866 41.8422 89.9761 42.1049 89.7897 42.0287C89.7897 42.0287 89.7897 42.0287 89.7135 42.2152C89.7135 42.2152 89.7135 42.2152 89.8998 42.2914C89.8236 42.4779 89.8998 42.2914 89.8236 42.4779C89.8236 42.4779 89.8236 42.4779 89.6373 42.4017C89.8236 42.4779 89.561 42.5882 89.561 42.5882C89.8998 42.2914 89.8998 42.2914 89.8236 42.4779Z" fill="#6D2E46"/>
        <path d="M121.535 102.672L121.687 102.299C120.891 103.715 119.798 104.792 118.706 105.869C119.985 104.868 121.603 103.57 122.365 101.706C122.746 100.773 122.941 99.7645 122.983 99.1288C122.916 98.2305 122.882 97.7814 122.738 97.0696C123.077 96.7728 123.771 94.0095 123.771 94.0095C123.814 93.3739 123.856 92.7382 124.085 92.1788C123.932 92.5517 123.966 93.0009 123.814 93.3739C123.78 92.9247 123.932 92.5517 124.085 92.1788C124.279 91.1701 124.661 90.2377 124.855 89.2291C125.127 88.0339 125.321 87.0253 125.592 85.8302C125.872 83.5503 126.152 81.2703 126.245 78.9142C126.245 78.9142 126.245 78.9143 126.321 78.7278C126.245 78.9143 126.245 78.9143 126.169 79.1007L126.321 78.7278C126.363 78.0921 126.372 77.0073 126.304 76.109C126.347 75.4734 126.728 74.5409 127.185 73.422C128.024 71.3706 129.498 69.3612 129.252 67.3019C129.294 66.6663 129.074 66.1409 128.854 65.6156C129.184 66.4036 129.108 66.5901 129.176 67.4884C129.074 66.1409 128.558 65.2768 127.965 64.5991C127.372 63.9214 126.703 63.4302 126.034 62.939C126.144 63.2017 126.516 63.354 126.813 63.6929C126.703 63.4302 126.33 63.2779 126.144 63.2017C125.398 62.897 123.908 62.2876 123.01 62.3559C123.272 62.2456 122.451 62.1274 121.926 62.348L122.112 62.4242C120.952 62.6028 119.825 63.2305 119.147 63.8241C118.393 64.6042 117.64 65.3843 117.148 66.0541C117.072 66.2406 116.81 66.3509 116.733 66.5374C116.505 67.0969 116.09 67.5802 115.937 67.9532C115.827 67.6905 115.217 69.1824 115.522 68.4365C115.065 69.5554 114.607 70.6744 114.336 71.8695C114.141 72.8781 113.87 74.0732 113.862 75.158C113.853 76.2428 113.658 77.2515 113.464 78.2601C113.074 80.2774 112.498 82.2184 111.473 84.1937C110.939 85.4991 110.592 86.8807 109.719 88.483C109.448 89.6781 108.949 91.4327 108.906 92.0683C108.559 93.4499 108.33 94.0094 107.983 95.391C108.322 95.0942 107.636 96.7726 107.941 96.0267C108.508 95.1704 108.322 95.0942 108.627 94.3482C109.389 92.4833 110.075 90.8049 110.761 89.1265C111.524 87.2616 112.32 85.8458 113.269 84.0571C114.336 81.4462 115.217 78.7592 115.539 75.8436C115.7 74.3858 115.784 73.1145 116.132 71.7329C116.665 70.4275 117.199 69.1221 117.58 68.1896C117.809 67.6301 118.148 67.3333 118.487 67.0365C119.054 66.1802 119.884 65.2136 120.748 64.6962C121.612 64.1788 122.696 64.1866 123.628 64.5675C123.628 64.5675 123.628 64.5675 123.442 64.4913C124.56 64.9484 125.153 65.6261 125.745 66.3037L125.932 66.3799C125.932 66.3799 126.228 66.7188 126.262 67.1679C126.296 67.6171 126.177 68.4392 126.059 69.2613C125.373 70.9398 124.534 72.9912 124.458 73.1777C124.382 73.3641 124.305 73.5506 124.305 73.5506C124.153 73.9236 124 74.2966 123.848 74.6696C123.695 75.0426 123.653 75.6782 123.687 76.1274C123.568 76.9495 123.712 77.6613 123.594 78.4835L123.746 78.1105C123.517 78.6699 123.78 78.5596 123.78 78.5596L123.704 78.7461L123.628 78.9326L123.661 79.3818C123.585 79.5683 123.619 80.0174 123.543 80.2039C123.5 80.8396 123.534 81.2887 123.492 81.9244C123.526 82.3735 123.56 82.8227 123.517 83.4583C123.365 83.8313 123.551 83.9075 123.509 84.5431C122.975 85.8486 122.933 86.4842 123.162 85.9247C122.967 86.9334 122.772 87.942 122.653 88.7641C122.501 89.1371 122.348 89.5101 122.382 89.9592C122.23 90.3322 122.153 90.5187 122.077 90.7052C121.882 91.7138 121.772 91.4512 121.577 92.4598C121.315 92.5701 121.145 95.1127 121.069 95.2992L121.145 95.1127C120.874 96.3078 120.569 97.0538 120.485 98.3251C120.366 99.1472 120.324 99.7829 120.095 100.342C119.79 101.088 119.561 101.648 119.146 102.131C118.24 103.284 117.147 104.361 116.055 105.438C116.241 105.514 116.47 104.955 116.656 105.031C115.301 106.218 114.022 107.219 112.556 108.143C112.294 108.254 111.955 108.551 111.769 108.474C111.244 108.695 111.43 108.771 111.167 108.881L110.981 108.805C110.566 109.289 110.193 109.136 109.778 109.62C109.778 109.62 109.702 109.806 109.439 109.916C109.253 109.84 108.838 110.323 108.914 110.137C108.838 110.323 108.652 110.247 108.652 110.247C108.575 110.434 106.881 111.918 106.805 112.104C106.543 112.215 106.466 112.401 106.729 112.291L106.39 112.588L106.051 112.884C106.051 112.884 105.789 112.995 105.865 112.808C105.789 112.995 105.526 113.105 105.187 113.402C105.789 112.995 106.39 112.588 107.178 112.257C106.915 112.367 106.576 112.664 106.238 112.961C105.975 113.071 105.297 113.665 104.772 113.885C104.696 114.072 104.696 114.072 104.357 114.368C104.095 114.479 104.018 114.665 103.942 114.852C104.018 114.665 104.357 114.368 104.433 114.182C104.247 114.106 103.832 114.589 103.756 114.776C103.68 114.962 103.341 115.259 103.188 115.632C103.265 115.445 102.926 115.742 102.849 115.929C102.773 116.115 102.697 116.302 102.697 116.302C102.697 116.302 103.264 115.445 103.112 115.818C103.112 115.818 102.697 116.302 102.621 116.488C102.621 116.488 102.697 116.302 102.807 116.564C102.731 116.751 102.578 117.124 102.502 117.31L102.578 117.124C102.426 117.497 103.341 115.259 103.002 115.556C103.002 115.556 102.163 117.607 102.316 117.234C102.392 117.048 102.24 117.421 102.502 117.31L102.578 117.124C102.731 116.751 102.917 116.827 102.841 117.013C102.426 117.497 103.265 115.445 103.036 116.005L103.112 115.818C103.036 116.005 102.883 116.378 102.621 116.488C102.621 116.488 102.545 116.675 102.468 116.861C102.392 117.048 102.24 117.421 102.316 117.234C102.96 116.191 102.57 118.209 103.027 117.09C102.688 117.386 102.917 116.827 103.256 116.53C103.256 116.53 103.519 116.42 103.671 116.047C103.824 115.674 103.747 115.86 103.747 115.86C103.824 115.674 104.086 115.564 104.086 115.564C104.162 115.377 104.425 115.267 104.501 115.08C104.577 114.894 104.501 115.08 104.577 114.894C104.916 114.597 105.255 114.3 105.594 114.003C105.78 114.08 106.119 113.783 105.966 114.156C105.551 114.639 106.043 113.969 105.518 114.19C105.78 114.08 105.103 114.673 105.103 114.673C105.365 114.563 105.518 114.19 105.78 114.08C106.043 113.969 106.458 113.486 106.72 113.376C106.72 113.376 106.907 113.452 106.644 113.562L106.983 113.265C107.059 113.079 107.322 112.968 107.322 112.968C107.322 112.968 109.016 111.484 108.94 111.671C109.202 111.561 109.202 111.561 109.541 111.264C109.541 111.264 107.508 113.045 107.584 112.858C107.847 112.748 110.032 110.594 110.219 110.67C110.481 110.56 110.557 110.373 110.557 110.373C110.82 110.263 110.481 110.56 110.744 110.45L111.006 110.339C111.421 109.856 112.209 109.525 112.624 109.042C112.548 109.228 112.472 109.415 112.133 109.711L111.794 110.008C112.057 109.898 112.395 109.601 112.734 109.304L112.997 109.194C113.259 109.084 114.013 108.304 114.615 107.896C114.691 107.71 114.615 107.897 114.691 107.71C115.292 107.303 115.631 107.006 116.232 106.599C116.309 106.412 116.309 106.412 116.046 106.523L116.385 106.226C116.156 106.785 117.249 105.709 117.02 106.268C117.283 106.158 117.359 105.971 117.698 105.674C117.698 105.674 117.774 105.488 117.85 105.301C118.189 105.005 118.189 105.005 118.528 104.708C118.528 104.708 118.528 104.708 118.714 104.784C119.129 104.301 119.316 104.377 119.731 103.894C120.069 103.597 120.561 102.927 120.374 102.851C121.425 102.41 121.425 102.41 121.535 102.672Z" fill="#6D2E46"/>
        <path d="M117.567 50.1153L117.457 49.8527C117.974 50.7168 118.304 51.5048 118.821 52.369C117.864 50.4542 117.059 48.1664 115.611 46.9213C115.95 46.6245 115.255 44.5994 115.069 44.5232C114.848 43.9979 114.552 43.659 114.256 43.3202C113.849 42.7187 113.256 42.041 112.663 41.3633C112.257 40.7618 111.588 40.2706 110.995 39.593C109.919 38.5003 108.471 37.2552 106.531 36.68C105.972 36.4515 105.15 36.3332 104.176 36.588C103.202 36.8428 102.152 37.2841 101.474 37.8777C99.8565 39.1752 99.018 41.2266 98.9332 42.4979C98.9671 42.9471 98.8908 43.1336 98.9247 43.5827C98.9671 42.9471 98.9671 42.9471 98.9332 42.4979C99.1449 44.108 99.6616 44.9722 100.102 46.0229C100.178 45.8364 100.178 45.8364 100.144 45.3872L100.365 45.9126C100.661 46.2514 101.101 47.3021 101.398 47.6409C101.212 47.5647 101.508 47.9036 101.542 48.3527L101.618 48.1662C101.982 49.4034 102.795 50.6064 103.16 51.8435C103.346 51.9197 103.27 52.1062 103.27 52.1062L103.71 53.1569C103.524 53.0807 103.964 54.1313 103.744 53.606C104.15 54.2075 104.405 55.182 104.811 55.7835C105.726 58.334 106.827 60.9606 106.691 63.9524C106.683 65.0372 106.937 66.0117 107.115 67.1727C107.445 67.9607 108.072 69.0875 108.444 69.2398C108.961 70.104 109.334 70.2564 109.927 70.934C109.816 70.6714 110.782 71.5014 110.486 71.1626C110.079 70.5611 110.003 70.7475 109.783 70.2222C109.08 69.2819 108.639 68.2312 108.461 67.0702C108.284 65.9093 108.292 64.8244 108.453 63.3667C108.58 61.4597 108.148 59.3243 107.564 57.5618C106.869 55.5366 106.099 53.698 105.252 52.0458C104.955 51.707 105.108 51.334 104.998 51.0713C104.337 49.4953 103.566 47.6567 102.829 46.2672C102.499 45.4792 102.355 44.7674 102.025 43.9794C102.025 43.9794 101.838 43.9032 101.915 43.7167C101.991 43.5302 101.474 42.666 101.932 41.5471C102.203 40.352 103.143 39.6481 103.406 39.5377C103.406 39.5377 103.482 39.3512 103.668 39.4274C105.133 38.5028 106.81 39.1884 108.039 39.9081C108.411 40.0605 108.598 40.1366 108.97 40.289C109.08 40.5517 109.343 40.4413 109.453 40.704C109.783 41.492 110.08 41.8309 109.86 41.3055C110.342 41.7205 110.749 42.322 111.232 42.7371C111.342 42.9997 111.715 43.1521 111.825 43.4147C111.935 43.6774 112.121 43.7536 112.045 43.9401C112.451 44.5416 112.341 44.2789 112.485 44.9907C112.409 45.1772 113.408 46.4564 113.519 46.7191C113.849 47.507 113.807 48.1427 114.213 48.7442C115.094 50.8455 116.424 52.9127 117.72 54.5307C117.72 54.5307 117.423 54.1919 117.499 54.0054C118.202 54.9457 118.643 55.9964 119.083 57.0471C119.193 57.3097 119.117 57.4962 119.303 57.5724C119.413 57.8351 119.413 57.8351 119.524 58.0977L119.447 58.2842C119.744 58.6231 119.668 58.8095 119.701 59.2587C119.701 59.2587 119.888 59.3349 119.812 59.5214C119.812 59.5214 119.922 59.784 119.845 59.9705C119.845 59.9705 119.845 59.9705 119.955 60.2332C120.142 60.3094 120.692 61.6227 120.879 61.6989C120.989 61.9615 120.989 61.9615 121.065 61.775L121.175 62.0377C121.361 62.1139 121.285 62.3004 121.395 62.563C121.361 62.1139 121.328 61.6647 121.294 61.2156C121.404 61.4782 121.328 61.6647 121.438 61.9274C121.361 62.1139 121.582 62.6392 121.429 63.0122C121.429 63.0122 121.616 63.0884 121.539 63.2748C121.463 63.4613 121.649 63.5375 121.573 63.724C121.463 63.4613 121.463 63.4613 121.353 63.1987C121.353 63.1987 121.387 63.6478 121.311 63.8343C121.311 63.8343 121.344 64.2835 121.455 64.5461C121.268 64.47 121.378 64.7326 121.302 64.9191C121.226 65.1056 121.412 65.1818 121.412 65.1818C121.599 65.258 121.455 64.5461 121.565 64.8088L121.599 65.258C121.522 65.4445 121.709 65.5206 121.632 65.7071C121.632 65.7071 121.632 65.7071 121.709 65.5206C121.819 65.7833 121.082 64.3938 121.192 64.6565L121.819 65.7833C121.895 65.5968 122.005 65.8595 121.895 65.5968L121.709 65.5206C121.785 65.3341 121.861 65.1476 121.785 65.3341C121.895 65.5968 121.268 64.47 121.378 64.7326L121.455 64.5461C121.455 64.5461 121.488 64.9953 121.675 65.0715C121.675 65.0715 121.861 65.1476 121.785 65.3341L121.895 65.5968C121.751 64.885 122.564 66.088 122.496 65.1897C122.344 65.5627 122.31 65.1135 122.276 64.6643C122.276 64.6643 122.352 64.4779 122.242 64.2152C122.132 63.9525 122.056 64.139 122.056 64.139C122.132 63.9525 122.022 63.6899 122.208 63.766C122.022 63.6899 122.098 63.5034 122.175 63.3169C122.064 63.0542 122.175 63.3169 121.988 63.2407C121.878 62.978 121.844 62.5289 121.92 62.3424C121.997 62.1559 122.073 61.9694 122.183 62.2321C122.217 62.6812 121.997 62.1559 122.031 62.6051C122.107 62.4186 122.141 62.8677 122.327 62.9439C122.403 62.7574 122.293 62.4947 122.183 62.2321C122.073 61.9694 121.963 61.7068 122.039 61.5203C122.039 61.5203 122.039 61.5203 122.225 61.5964L122.115 61.3338C121.929 61.2576 122.005 61.0711 122.005 61.0711C122.005 61.0711 121.268 59.6816 121.455 59.7578C121.345 59.4951 121.345 59.4951 121.421 59.3086C121.421 59.3086 122.192 61.1473 122.081 60.8846C122.158 60.6981 121.014 58.7071 121.014 58.7071C120.904 58.4445 120.904 58.4444 120.904 58.4444C120.794 58.1818 121.091 58.5206 120.98 58.258L121.057 58.0715C120.76 57.7326 120.726 57.2835 120.43 56.9446C120.616 57.0208 120.803 57.097 120.913 57.3596L121.023 57.6223C120.913 57.3597 120.803 57.097 120.616 57.0208L120.692 56.8343C120.769 56.6478 120.176 55.9701 119.956 55.4448C119.769 55.3686 119.956 55.4448 119.769 55.3686C119.549 54.8433 119.439 54.5806 119.143 54.2418C118.956 54.1656 118.956 54.1656 119.066 54.4283L118.956 54.1656C119.329 54.318 118.812 53.4538 119.109 53.7927C119.109 53.7927 118.999 53.53 118.888 53.2673C118.888 53.2673 118.702 53.1911 118.516 53.115C118.406 52.8523 118.406 52.8523 118.296 52.5896C118.296 52.5896 118.296 52.5896 118.482 52.6658C118.185 52.327 118.448 52.2167 118.152 51.8778C118.041 51.6152 117.745 51.2763 117.559 51.2001C117.381 50.0392 117.381 50.0392 117.567 50.1153Z" fill="#6D2E46"/>
        <path d="M99.2399 61.9982L99.3162 61.8117C99.35 62.2609 99.3839 62.71 99.2314 63.083C99.0027 63.6425 98.7401 63.7528 98.5877 64.1258C98.8502 64.0155 99.2653 63.5322 99.494 62.9727C99.7227 62.4132 99.6888 61.9641 99.655 61.5149C99.5872 60.6166 99.0706 59.7524 98.249 59.6342C98.5878 59.3374 97.9611 58.2106 97.9611 58.2106C97.7747 58.1344 97.6646 57.8717 97.4783 57.7956C97.0717 57.1941 96.9278 56.4822 96.9701 55.8466C97.0464 55.6601 97.0887 55.0244 97.1311 54.3888C97.1735 53.7532 97.1396 53.304 97.1057 52.8548C97.1481 52.2192 96.7839 50.982 96.2673 50.1179C95.8268 49.0672 95.6066 48.5419 95.3864 48.0165C95.4627 47.8301 95.2763 47.7539 95.3526 47.5674C95.4627 47.8301 95.4627 47.8301 95.3864 48.0165C95.1662 47.4912 94.946 46.9659 94.7258 46.4406C94.6496 46.6271 94.6496 46.6271 94.5733 46.8136L94.4632 46.5509C94.3531 46.2882 94.1329 45.7629 94.0228 45.5002C94.2092 45.5764 94.0991 45.3137 94.1753 45.1272C94.2177 44.4916 94.1499 43.5933 94.1923 42.9576L94.2685 42.7711C94.3448 42.5846 94.2347 42.322 94.3109 42.1355C94.4972 42.2117 94.4634 41.7625 94.5735 42.0252C94.5396 41.576 94.8784 41.2792 94.8445 40.8301C95.6408 39.4143 96.6233 38.0747 97.86 37.7096C98.3851 37.489 98.9103 37.2684 99.5794 37.7595C100.028 37.7254 100.774 38.0301 101.146 38.1825C101.629 38.5975 101.815 38.6737 102.298 39.0887C102.375 38.9022 102.781 39.5037 102.671 39.241C102.637 38.7919 102.375 38.9022 102.341 38.453C101.748 37.7753 101.155 37.0977 100.223 36.7168C99.2915 36.3359 98.2835 36.1415 97.1231 36.3201C95.6239 36.7955 94.6075 37.686 93.9637 38.7287C93.32 39.7715 92.7101 41.2634 92.5152 42.2721C92.439 42.4586 92.3628 42.645 92.2103 43.018C92.0154 44.0267 92.1171 45.3741 92.2949 46.5351C92.5151 47.0604 92.2864 47.6199 92.5066 48.1452C92.5066 48.1452 92.5066 48.1452 92.6929 48.2214C92.6929 48.2214 92.947 49.1959 93.3536 49.7974C93.6839 50.5854 94.2768 51.2631 94.2768 51.2631C94.2768 51.2631 94.2768 51.2631 94.4631 51.3393C94.9035 52.3899 94.7087 53.3985 94.5901 54.2207C94.7002 54.4833 94.7002 54.4833 94.8103 54.746C94.734 54.9325 94.9204 55.0087 94.8441 55.1952C94.3529 55.8649 94.6493 56.2038 94.8018 55.8308C94.8356 56.28 94.7933 56.9156 95.0897 57.2545C95.1998 57.5171 95.1236 57.7036 95.3099 57.7798C95.42 58.0424 95.42 58.0424 95.3438 58.2289C95.6402 58.5678 95.4539 58.4916 95.6741 59.0169C95.5979 59.2034 96.3771 59.9573 96.3771 59.9573C96.6735 60.2961 96.7074 60.7453 96.8175 61.0079C97.0377 61.5333 97.1478 61.7959 96.9954 62.1689C96.9191 62.3554 96.9191 62.3554 96.8429 62.5419C96.7666 62.7284 96.4278 63.0252 96.2754 63.3982C96.4617 63.4743 96.4278 63.0252 96.6142 63.1014C96.1229 63.7712 95.818 64.5171 95.513 65.2631C95.4368 65.4496 95.3605 65.6361 95.3605 65.6361C95.2843 65.8226 95.2843 65.8226 95.3944 66.0852L95.2081 66.009C95.3182 66.2717 95.0556 66.382 94.9794 66.5685C94.9794 66.5685 94.9794 66.5685 94.9031 66.755C94.7168 66.6788 94.8269 66.9415 94.8269 66.9415C94.8269 66.9415 94.8269 66.9415 94.7506 67.128C94.6744 67.3145 95.1148 68.3651 95.1148 68.3651C95.0386 68.5516 95.2249 68.6278 95.3012 68.4413L95.2249 68.6278L95.1487 68.8143L95.2588 69.077C95.335 68.8905 95.3012 68.4413 95.4536 68.0683L95.4875 68.5175C95.4113 68.704 95.335 68.8905 95.3689 69.3396C95.3689 69.3396 95.5552 69.4158 95.479 69.6023C95.4028 69.7888 95.4028 69.7888 95.4028 69.7888C95.2164 69.7126 95.2927 69.5261 95.2927 69.5261C95.2927 69.5261 95.2164 69.7126 95.3265 69.9753C95.3265 69.9753 95.4366 70.2379 95.3604 70.4244C95.1741 70.3483 95.2842 70.6109 95.2842 70.6109C95.2842 70.6109 95.3943 70.8736 95.4705 70.6871C95.6568 70.7633 95.4366 70.2379 95.623 70.3141L95.7331 70.5768L95.8432 70.8394C95.7669 71.0259 95.2503 70.1618 95.3604 70.4244L95.9533 71.1021C95.9533 71.1021 96.1396 71.1783 96.0295 70.9156L95.8432 70.8394C95.9194 70.653 95.9194 70.653 95.9194 70.653C96.0295 70.9156 95.2503 70.1618 95.4366 70.2379L95.5467 70.5006L95.7331 70.5768C95.7331 70.5768 95.8432 70.8394 95.9194 70.653C95.6992 70.1276 96.5547 70.695 96.5208 70.2458C96.4446 70.4323 96.3345 70.1697 96.4107 69.9832C96.4107 69.9832 96.4869 69.7967 96.5632 69.6102C96.5632 69.6102 96.5632 69.6102 96.3768 69.534L96.4531 69.3475C96.2667 69.2713 96.5293 69.161 96.343 69.0849C96.343 69.0849 96.343 69.0849 96.1566 69.0087C96.2329 68.8222 96.1228 68.5595 96.1228 68.5595C96.1228 68.5595 96.199 68.373 96.3853 68.4492C96.4954 68.7119 96.199 68.373 96.3091 68.6357C96.3853 68.4492 96.4192 68.8984 96.4192 68.8984C96.4954 68.7119 96.4954 68.7119 96.3853 68.4492C96.3853 68.4492 96.2752 68.1865 96.3515 68.0001C96.3515 68.0001 96.3515 68.0001 96.5378 68.0762L96.614 67.8897L96.6903 67.7032C96.6903 67.7032 96.36 66.9153 96.5463 66.9914C96.6225 66.8049 96.6225 66.8049 96.6225 66.8049C96.6225 66.8049 96.8004 67.9659 96.6903 67.7032C96.6903 67.7032 96.4023 66.2796 96.5887 66.3558C96.5887 66.3558 96.6649 66.1693 96.4786 66.0931C96.5548 65.9066 96.6649 66.1693 96.6649 66.1693L96.7411 65.9828C96.631 65.7201 96.9699 65.4233 96.8598 65.1607L96.9698 65.4233C96.9698 65.4233 96.8936 65.6098 97.08 65.686C97.1562 65.4995 97.1562 65.4995 97.2324 65.313C97.495 65.2027 97.2748 64.6774 97.351 64.4909C97.4273 64.3044 97.6898 64.1941 97.7661 64.0076C97.7661 64.0076 97.7661 64.0076 97.5797 63.9314L97.656 63.7449C97.7661 64.0076 97.9948 63.4481 98.1049 63.7108L98.1811 63.5243C98.1811 63.5243 97.9948 63.4481 98.2574 63.3378C98.5199 63.2275 98.3336 63.1513 98.5962 63.041C98.5962 63.041 98.5962 63.041 98.7825 63.1171C98.935 62.7442 99.1213 62.8203 99.2738 62.4474C99.35 62.2609 99.3924 61.6252 99.3162 61.8117C99.0536 61.922 99.0536 61.922 99.2399 61.9982Z" fill="#6D2E46"/>
        <path d="M89.7389 66.5917C89.6627 66.7782 89.5865 66.9647 89.5102 67.1512C90.0354 66.9305 90.4504 66.4472 89.7813 65.9561C90.2302 65.9219 90.569 65.6251 90.3827 65.5489L90.2726 65.2863C90.2726 65.2863 90.1963 65.4728 90.3827 65.5489L90.2726 65.2863C90.0524 64.7609 90.3573 64.015 90.3997 63.3793C90.5522 63.0063 90.5607 61.9215 90.7131 61.5486L90.7894 61.3621C90.7131 61.5486 90.7131 61.5486 90.7131 61.5486C90.603 61.2859 90.4167 61.2097 90.3066 60.947C90.3066 60.947 90.3066 60.9471 90.044 61.0574L90.1202 60.8709C89.9339 60.7947 90.0101 60.6082 89.8238 60.532L89.9 60.3456C89.7899 60.0829 89.6798 59.8202 89.7561 59.6337L89.4596 59.2949C89.646 59.3711 89.5359 59.1084 89.7222 59.1846C89.5359 59.1084 89.6121 58.9219 89.4258 58.8457C89.2055 58.3204 88.9853 57.7951 88.5026 57.3801C88.3162 57.3039 88.1299 57.2277 88.0198 56.965C87.8334 56.8889 87.6471 56.8127 87.4607 56.7365C87.2744 56.6603 87.0881 56.5842 87.0881 56.5842C87.0118 56.7707 86.9017 56.508 86.8255 56.6945C86.7493 56.881 86.8255 56.6945 86.7493 56.881C86.7831 57.3301 87.0033 57.8555 87.0372 58.3046C87.1473 58.5673 87.2574 58.8299 87.3675 59.0926C87.4776 59.3553 87.7741 59.6941 87.8842 59.9568L87.8079 60.1433C87.918 60.4059 87.9519 60.8551 88.062 61.1178C87.9858 61.3043 87.9095 61.4907 88.0959 61.5669C87.9095 61.4907 88.6125 62.4311 88.3499 62.5414C88.1975 62.9144 87.8587 63.2112 87.9688 63.4739C87.9688 63.4739 88.1551 63.55 88.0789 63.7365C88.0789 63.7365 88.0789 63.7365 88.0026 63.923C87.7401 64.0333 87.7401 64.0333 87.9264 64.1095C87.8502 64.296 87.8502 64.296 87.9603 64.5587C87.9603 64.5587 87.9603 64.5587 88.0704 64.8213C88.0704 64.8213 88.0704 64.8213 87.9941 65.0078C87.9179 65.1943 87.9941 65.0078 87.9179 65.1943C87.7316 65.1181 88.028 65.457 87.9518 65.6435C87.8755 65.83 87.6892 65.7538 87.613 65.9403C87.4605 66.3133 87.4944 66.7624 87.1555 67.0592C87.3419 67.1354 87.1555 67.0592 87.3419 67.1354C87.2656 67.3219 87.0031 67.4322 86.9268 67.6187C86.9268 67.6187 86.9268 67.6187 86.6643 67.729L86.4779 67.6528C86.4779 67.6528 86.2153 67.7631 86.4017 67.8393C86.2153 67.7631 86.4017 67.8393 86.2153 67.7631C86.2153 67.7631 86.5118 68.102 86.4355 68.2885C86.4355 68.2885 86.4356 68.2885 86.6219 68.3647C86.6219 68.3647 86.6219 68.3647 86.4355 68.2885C86.4355 68.2885 86.6981 68.1782 86.8845 68.2543C86.8845 68.2543 86.8845 68.2543 86.8082 68.4408L86.5457 68.5511C86.3593 68.475 86.5457 68.5511 86.3593 68.475C86.3593 68.475 86.3593 68.475 86.2831 68.6615C86.2831 68.6615 86.2831 68.6615 86.4694 68.7376L86.6558 68.8138L86.8421 68.89L86.5457 68.5511C86.5457 68.5511 86.5457 68.5511 86.4694 68.7376C86.5457 68.5511 86.9522 69.1527 87.0284 68.9662C86.8421 68.89 86.8421 68.89 86.9183 68.7035L87.1047 68.7797C87.1047 68.7797 87.1047 68.7797 87.291 68.8558L87.3672 68.6694C87.5536 68.7455 87.3672 68.6694 87.5536 68.7455C87.5536 68.7455 87.5536 68.7455 87.6298 68.559L87.7061 68.3725C87.7061 68.3725 87.7061 68.3725 87.8924 68.4487L87.7823 68.1861L87.9686 68.2622L88.0449 68.0757L88.2312 68.1519C88.2312 68.1519 88.2312 68.1519 88.3074 67.9654C88.4938 68.0416 88.1973 67.7027 88.3837 67.7789L88.6463 67.6686L88.4599 67.5924C88.6463 67.6686 88.7225 67.4821 88.8326 67.7448C88.8326 67.7448 88.8326 67.7448 88.9088 67.5583L88.7225 67.4821C88.7225 67.4821 88.7225 67.4821 88.7987 67.2956C88.7987 67.2956 88.7987 67.2956 88.9851 67.3718C88.9851 67.3718 89.1714 67.448 89.2476 67.2615C89.4764 66.702 89.4764 66.702 89.7389 66.5917C89.5526 66.5155 89.5526 66.5155 89.7389 66.5917Z" fill="#6D2E46"/>
    </g>
    <defs>
        <clipPath id="clip0_1007_598">
            <rect width="188.827" height="146.067" fill="white" transform="translate(135.787 206.657) rotate(-157.766)"/>
        </clipPath>
    </defs>
</svg>
